%TF.GenerationSoftware,KiCad,Pcbnew,7.0.2-0*%
%TF.CreationDate,2023-04-20T17:34:09-07:00*%
%TF.ProjectId,RagGuard_V1,52616747-7561-4726-945f-56312e6b6963,rev?*%
%TF.SameCoordinates,Original*%
%TF.FileFunction,Legend,Bot*%
%TF.FilePolarity,Positive*%
%FSLAX46Y46*%
G04 Gerber Fmt 4.6, Leading zero omitted, Abs format (unit mm)*
G04 Created by KiCad (PCBNEW 7.0.2-0) date 2023-04-20 17:34:09*
%MOMM*%
%LPD*%
G01*
G04 APERTURE LIST*
%ADD10C,0.150000*%
%ADD11C,0.120000*%
G04 APERTURE END LIST*
D10*
X194710742Y-136092151D02*
X194710742Y-135092151D01*
X194710742Y-135092151D02*
X194329790Y-135092151D01*
X194329790Y-135092151D02*
X194234552Y-135139770D01*
X194234552Y-135139770D02*
X194186933Y-135187389D01*
X194186933Y-135187389D02*
X194139314Y-135282627D01*
X194139314Y-135282627D02*
X194139314Y-135425484D01*
X194139314Y-135425484D02*
X194186933Y-135520722D01*
X194186933Y-135520722D02*
X194234552Y-135568341D01*
X194234552Y-135568341D02*
X194329790Y-135615960D01*
X194329790Y-135615960D02*
X194710742Y-135615960D01*
X193377409Y-135568341D02*
X193234552Y-135615960D01*
X193234552Y-135615960D02*
X193186933Y-135663579D01*
X193186933Y-135663579D02*
X193139314Y-135758817D01*
X193139314Y-135758817D02*
X193139314Y-135901674D01*
X193139314Y-135901674D02*
X193186933Y-135996912D01*
X193186933Y-135996912D02*
X193234552Y-136044532D01*
X193234552Y-136044532D02*
X193329790Y-136092151D01*
X193329790Y-136092151D02*
X193710742Y-136092151D01*
X193710742Y-136092151D02*
X193710742Y-135092151D01*
X193710742Y-135092151D02*
X193377409Y-135092151D01*
X193377409Y-135092151D02*
X193282171Y-135139770D01*
X193282171Y-135139770D02*
X193234552Y-135187389D01*
X193234552Y-135187389D02*
X193186933Y-135282627D01*
X193186933Y-135282627D02*
X193186933Y-135377865D01*
X193186933Y-135377865D02*
X193234552Y-135473103D01*
X193234552Y-135473103D02*
X193282171Y-135520722D01*
X193282171Y-135520722D02*
X193377409Y-135568341D01*
X193377409Y-135568341D02*
X193710742Y-135568341D01*
X192758361Y-135187389D02*
X192710742Y-135139770D01*
X192710742Y-135139770D02*
X192615504Y-135092151D01*
X192615504Y-135092151D02*
X192377409Y-135092151D01*
X192377409Y-135092151D02*
X192282171Y-135139770D01*
X192282171Y-135139770D02*
X192234552Y-135187389D01*
X192234552Y-135187389D02*
X192186933Y-135282627D01*
X192186933Y-135282627D02*
X192186933Y-135377865D01*
X192186933Y-135377865D02*
X192234552Y-135520722D01*
X192234552Y-135520722D02*
X192805980Y-136092151D01*
X192805980Y-136092151D02*
X192186933Y-136092151D01*
X210839712Y-143442049D02*
X210839712Y-142442049D01*
X210839712Y-142442049D02*
X210506379Y-143156334D01*
X210506379Y-143156334D02*
X210173046Y-142442049D01*
X210173046Y-142442049D02*
X210173046Y-143442049D01*
X209363522Y-142918239D02*
X209220665Y-142965858D01*
X209220665Y-142965858D02*
X209173046Y-143013477D01*
X209173046Y-143013477D02*
X209125427Y-143108715D01*
X209125427Y-143108715D02*
X209125427Y-143251572D01*
X209125427Y-143251572D02*
X209173046Y-143346810D01*
X209173046Y-143346810D02*
X209220665Y-143394430D01*
X209220665Y-143394430D02*
X209315903Y-143442049D01*
X209315903Y-143442049D02*
X209696855Y-143442049D01*
X209696855Y-143442049D02*
X209696855Y-142442049D01*
X209696855Y-142442049D02*
X209363522Y-142442049D01*
X209363522Y-142442049D02*
X209268284Y-142489668D01*
X209268284Y-142489668D02*
X209220665Y-142537287D01*
X209220665Y-142537287D02*
X209173046Y-142632525D01*
X209173046Y-142632525D02*
X209173046Y-142727763D01*
X209173046Y-142727763D02*
X209220665Y-142823001D01*
X209220665Y-142823001D02*
X209268284Y-142870620D01*
X209268284Y-142870620D02*
X209363522Y-142918239D01*
X209363522Y-142918239D02*
X209696855Y-142918239D01*
X210238095Y-130425238D02*
X210333333Y-130377619D01*
X210333333Y-130377619D02*
X210476190Y-130377619D01*
X210476190Y-130377619D02*
X210619047Y-130425238D01*
X210619047Y-130425238D02*
X210714285Y-130520476D01*
X210714285Y-130520476D02*
X210761904Y-130615714D01*
X210761904Y-130615714D02*
X210809523Y-130806190D01*
X210809523Y-130806190D02*
X210809523Y-130949047D01*
X210809523Y-130949047D02*
X210761904Y-131139523D01*
X210761904Y-131139523D02*
X210714285Y-131234761D01*
X210714285Y-131234761D02*
X210619047Y-131330000D01*
X210619047Y-131330000D02*
X210476190Y-131377619D01*
X210476190Y-131377619D02*
X210380952Y-131377619D01*
X210380952Y-131377619D02*
X210238095Y-131330000D01*
X210238095Y-131330000D02*
X210190476Y-131282380D01*
X210190476Y-131282380D02*
X210190476Y-130949047D01*
X210190476Y-130949047D02*
X210380952Y-130949047D01*
X209761904Y-131377619D02*
X209761904Y-130377619D01*
X209761904Y-130377619D02*
X209190476Y-131377619D01*
X209190476Y-131377619D02*
X209190476Y-130377619D01*
X208714285Y-131377619D02*
X208714285Y-130377619D01*
X208714285Y-130377619D02*
X208476190Y-130377619D01*
X208476190Y-130377619D02*
X208333333Y-130425238D01*
X208333333Y-130425238D02*
X208238095Y-130520476D01*
X208238095Y-130520476D02*
X208190476Y-130615714D01*
X208190476Y-130615714D02*
X208142857Y-130806190D01*
X208142857Y-130806190D02*
X208142857Y-130949047D01*
X208142857Y-130949047D02*
X208190476Y-131139523D01*
X208190476Y-131139523D02*
X208238095Y-131234761D01*
X208238095Y-131234761D02*
X208333333Y-131330000D01*
X208333333Y-131330000D02*
X208476190Y-131377619D01*
X208476190Y-131377619D02*
X208714285Y-131377619D01*
X194638236Y-141206243D02*
X194638236Y-140206243D01*
X194638236Y-140206243D02*
X194257284Y-140206243D01*
X194257284Y-140206243D02*
X194162046Y-140253862D01*
X194162046Y-140253862D02*
X194114427Y-140301481D01*
X194114427Y-140301481D02*
X194066808Y-140396719D01*
X194066808Y-140396719D02*
X194066808Y-140539576D01*
X194066808Y-140539576D02*
X194114427Y-140634814D01*
X194114427Y-140634814D02*
X194162046Y-140682433D01*
X194162046Y-140682433D02*
X194257284Y-140730052D01*
X194257284Y-140730052D02*
X194638236Y-140730052D01*
X193304903Y-140682433D02*
X193162046Y-140730052D01*
X193162046Y-140730052D02*
X193114427Y-140777671D01*
X193114427Y-140777671D02*
X193066808Y-140872909D01*
X193066808Y-140872909D02*
X193066808Y-141015766D01*
X193066808Y-141015766D02*
X193114427Y-141111004D01*
X193114427Y-141111004D02*
X193162046Y-141158624D01*
X193162046Y-141158624D02*
X193257284Y-141206243D01*
X193257284Y-141206243D02*
X193638236Y-141206243D01*
X193638236Y-141206243D02*
X193638236Y-140206243D01*
X193638236Y-140206243D02*
X193304903Y-140206243D01*
X193304903Y-140206243D02*
X193209665Y-140253862D01*
X193209665Y-140253862D02*
X193162046Y-140301481D01*
X193162046Y-140301481D02*
X193114427Y-140396719D01*
X193114427Y-140396719D02*
X193114427Y-140491957D01*
X193114427Y-140491957D02*
X193162046Y-140587195D01*
X193162046Y-140587195D02*
X193209665Y-140634814D01*
X193209665Y-140634814D02*
X193304903Y-140682433D01*
X193304903Y-140682433D02*
X193638236Y-140682433D01*
X192447760Y-140206243D02*
X192352522Y-140206243D01*
X192352522Y-140206243D02*
X192257284Y-140253862D01*
X192257284Y-140253862D02*
X192209665Y-140301481D01*
X192209665Y-140301481D02*
X192162046Y-140396719D01*
X192162046Y-140396719D02*
X192114427Y-140587195D01*
X192114427Y-140587195D02*
X192114427Y-140825290D01*
X192114427Y-140825290D02*
X192162046Y-141015766D01*
X192162046Y-141015766D02*
X192209665Y-141111004D01*
X192209665Y-141111004D02*
X192257284Y-141158624D01*
X192257284Y-141158624D02*
X192352522Y-141206243D01*
X192352522Y-141206243D02*
X192447760Y-141206243D01*
X192447760Y-141206243D02*
X192542998Y-141158624D01*
X192542998Y-141158624D02*
X192590617Y-141111004D01*
X192590617Y-141111004D02*
X192638236Y-141015766D01*
X192638236Y-141015766D02*
X192685855Y-140825290D01*
X192685855Y-140825290D02*
X192685855Y-140587195D01*
X192685855Y-140587195D02*
X192638236Y-140396719D01*
X192638236Y-140396719D02*
X192590617Y-140301481D01*
X192590617Y-140301481D02*
X192542998Y-140253862D01*
X192542998Y-140253862D02*
X192447760Y-140206243D01*
X210807119Y-140932442D02*
X210807119Y-139932442D01*
X210807119Y-139932442D02*
X210473786Y-140646727D01*
X210473786Y-140646727D02*
X210140453Y-139932442D01*
X210140453Y-139932442D02*
X210140453Y-140932442D01*
X209711881Y-140646727D02*
X209235691Y-140646727D01*
X209807119Y-140932442D02*
X209473786Y-139932442D01*
X209473786Y-139932442D02*
X209140453Y-140932442D01*
X193942947Y-133567434D02*
X194276280Y-133091243D01*
X194514375Y-133567434D02*
X194514375Y-132567434D01*
X194514375Y-132567434D02*
X194133423Y-132567434D01*
X194133423Y-132567434D02*
X194038185Y-132615053D01*
X194038185Y-132615053D02*
X193990566Y-132662672D01*
X193990566Y-132662672D02*
X193942947Y-132757910D01*
X193942947Y-132757910D02*
X193942947Y-132900767D01*
X193942947Y-132900767D02*
X193990566Y-132996005D01*
X193990566Y-132996005D02*
X194038185Y-133043624D01*
X194038185Y-133043624D02*
X194133423Y-133091243D01*
X194133423Y-133091243D02*
X194514375Y-133091243D01*
X193561994Y-133519815D02*
X193419137Y-133567434D01*
X193419137Y-133567434D02*
X193181042Y-133567434D01*
X193181042Y-133567434D02*
X193085804Y-133519815D01*
X193085804Y-133519815D02*
X193038185Y-133472195D01*
X193038185Y-133472195D02*
X192990566Y-133376957D01*
X192990566Y-133376957D02*
X192990566Y-133281719D01*
X192990566Y-133281719D02*
X193038185Y-133186481D01*
X193038185Y-133186481D02*
X193085804Y-133138862D01*
X193085804Y-133138862D02*
X193181042Y-133091243D01*
X193181042Y-133091243D02*
X193371518Y-133043624D01*
X193371518Y-133043624D02*
X193466756Y-132996005D01*
X193466756Y-132996005D02*
X193514375Y-132948386D01*
X193514375Y-132948386D02*
X193561994Y-132853148D01*
X193561994Y-132853148D02*
X193561994Y-132757910D01*
X193561994Y-132757910D02*
X193514375Y-132662672D01*
X193514375Y-132662672D02*
X193466756Y-132615053D01*
X193466756Y-132615053D02*
X193371518Y-132567434D01*
X193371518Y-132567434D02*
X193133423Y-132567434D01*
X193133423Y-132567434D02*
X192990566Y-132615053D01*
X192704851Y-132567434D02*
X192133423Y-132567434D01*
X192419137Y-133567434D02*
X192419137Y-132567434D01*
X194264600Y-130099140D02*
X194359838Y-130051521D01*
X194359838Y-130051521D02*
X194502695Y-130051521D01*
X194502695Y-130051521D02*
X194645552Y-130099140D01*
X194645552Y-130099140D02*
X194740790Y-130194378D01*
X194740790Y-130194378D02*
X194788409Y-130289616D01*
X194788409Y-130289616D02*
X194836028Y-130480092D01*
X194836028Y-130480092D02*
X194836028Y-130622949D01*
X194836028Y-130622949D02*
X194788409Y-130813425D01*
X194788409Y-130813425D02*
X194740790Y-130908663D01*
X194740790Y-130908663D02*
X194645552Y-131003902D01*
X194645552Y-131003902D02*
X194502695Y-131051521D01*
X194502695Y-131051521D02*
X194407457Y-131051521D01*
X194407457Y-131051521D02*
X194264600Y-131003902D01*
X194264600Y-131003902D02*
X194216981Y-130956282D01*
X194216981Y-130956282D02*
X194216981Y-130622949D01*
X194216981Y-130622949D02*
X194407457Y-130622949D01*
X193788409Y-131051521D02*
X193788409Y-130051521D01*
X193788409Y-130051521D02*
X193216981Y-131051521D01*
X193216981Y-131051521D02*
X193216981Y-130051521D01*
X192740790Y-131051521D02*
X192740790Y-130051521D01*
X192740790Y-130051521D02*
X192502695Y-130051521D01*
X192502695Y-130051521D02*
X192359838Y-130099140D01*
X192359838Y-130099140D02*
X192264600Y-130194378D01*
X192264600Y-130194378D02*
X192216981Y-130289616D01*
X192216981Y-130289616D02*
X192169362Y-130480092D01*
X192169362Y-130480092D02*
X192169362Y-130622949D01*
X192169362Y-130622949D02*
X192216981Y-130813425D01*
X192216981Y-130813425D02*
X192264600Y-130908663D01*
X192264600Y-130908663D02*
X192359838Y-131003902D01*
X192359838Y-131003902D02*
X192502695Y-131051521D01*
X192502695Y-131051521D02*
X192740790Y-131051521D01*
X210854144Y-133455904D02*
X210092240Y-133455904D01*
X210473192Y-133836857D02*
X210473192Y-133074952D01*
X209092240Y-133836857D02*
X209663668Y-133836857D01*
X209377954Y-133836857D02*
X209377954Y-132836857D01*
X209377954Y-132836857D02*
X209473192Y-132979714D01*
X209473192Y-132979714D02*
X209568430Y-133074952D01*
X209568430Y-133074952D02*
X209663668Y-133122571D01*
X208711287Y-132932095D02*
X208663668Y-132884476D01*
X208663668Y-132884476D02*
X208568430Y-132836857D01*
X208568430Y-132836857D02*
X208330335Y-132836857D01*
X208330335Y-132836857D02*
X208235097Y-132884476D01*
X208235097Y-132884476D02*
X208187478Y-132932095D01*
X208187478Y-132932095D02*
X208139859Y-133027333D01*
X208139859Y-133027333D02*
X208139859Y-133122571D01*
X208139859Y-133122571D02*
X208187478Y-133265428D01*
X208187478Y-133265428D02*
X208758906Y-133836857D01*
X208758906Y-133836857D02*
X208139859Y-133836857D01*
X207854144Y-132836857D02*
X207520811Y-133836857D01*
X207520811Y-133836857D02*
X207187478Y-132836857D01*
X194654637Y-138672973D02*
X194654637Y-137672973D01*
X194654637Y-137672973D02*
X194273685Y-137672973D01*
X194273685Y-137672973D02*
X194178447Y-137720592D01*
X194178447Y-137720592D02*
X194130828Y-137768211D01*
X194130828Y-137768211D02*
X194083209Y-137863449D01*
X194083209Y-137863449D02*
X194083209Y-138006306D01*
X194083209Y-138006306D02*
X194130828Y-138101544D01*
X194130828Y-138101544D02*
X194178447Y-138149163D01*
X194178447Y-138149163D02*
X194273685Y-138196782D01*
X194273685Y-138196782D02*
X194654637Y-138196782D01*
X193321304Y-138149163D02*
X193178447Y-138196782D01*
X193178447Y-138196782D02*
X193130828Y-138244401D01*
X193130828Y-138244401D02*
X193083209Y-138339639D01*
X193083209Y-138339639D02*
X193083209Y-138482496D01*
X193083209Y-138482496D02*
X193130828Y-138577734D01*
X193130828Y-138577734D02*
X193178447Y-138625354D01*
X193178447Y-138625354D02*
X193273685Y-138672973D01*
X193273685Y-138672973D02*
X193654637Y-138672973D01*
X193654637Y-138672973D02*
X193654637Y-137672973D01*
X193654637Y-137672973D02*
X193321304Y-137672973D01*
X193321304Y-137672973D02*
X193226066Y-137720592D01*
X193226066Y-137720592D02*
X193178447Y-137768211D01*
X193178447Y-137768211D02*
X193130828Y-137863449D01*
X193130828Y-137863449D02*
X193130828Y-137958687D01*
X193130828Y-137958687D02*
X193178447Y-138053925D01*
X193178447Y-138053925D02*
X193226066Y-138101544D01*
X193226066Y-138101544D02*
X193321304Y-138149163D01*
X193321304Y-138149163D02*
X193654637Y-138149163D01*
X192130828Y-138672973D02*
X192702256Y-138672973D01*
X192416542Y-138672973D02*
X192416542Y-137672973D01*
X192416542Y-137672973D02*
X192511780Y-137815830D01*
X192511780Y-137815830D02*
X192607018Y-137911068D01*
X192607018Y-137911068D02*
X192702256Y-137958687D01*
X194958928Y-143392728D02*
X194197024Y-143392728D01*
X194577976Y-143773681D02*
X194577976Y-143011776D01*
X193244643Y-142773681D02*
X193720833Y-142773681D01*
X193720833Y-142773681D02*
X193768452Y-143249871D01*
X193768452Y-143249871D02*
X193720833Y-143202252D01*
X193720833Y-143202252D02*
X193625595Y-143154633D01*
X193625595Y-143154633D02*
X193387500Y-143154633D01*
X193387500Y-143154633D02*
X193292262Y-143202252D01*
X193292262Y-143202252D02*
X193244643Y-143249871D01*
X193244643Y-143249871D02*
X193197024Y-143345109D01*
X193197024Y-143345109D02*
X193197024Y-143583204D01*
X193197024Y-143583204D02*
X193244643Y-143678442D01*
X193244643Y-143678442D02*
X193292262Y-143726062D01*
X193292262Y-143726062D02*
X193387500Y-143773681D01*
X193387500Y-143773681D02*
X193625595Y-143773681D01*
X193625595Y-143773681D02*
X193720833Y-143726062D01*
X193720833Y-143726062D02*
X193768452Y-143678442D01*
X192911309Y-142773681D02*
X192577976Y-143773681D01*
X192577976Y-143773681D02*
X192244643Y-142773681D01*
D11*
%TO.C,J4*%
X180370422Y-143263047D02*
X180370422Y-144533047D01*
X180370422Y-144533047D02*
X181640422Y-144533047D01*
X182683351Y-130183047D02*
X183080422Y-130183047D01*
X182683351Y-130943047D02*
X183080422Y-130943047D01*
X182683351Y-132723047D02*
X183080422Y-132723047D01*
X182683351Y-133483047D02*
X183080422Y-133483047D01*
X182683351Y-135263047D02*
X183080422Y-135263047D01*
X182683351Y-136023047D02*
X183080422Y-136023047D01*
X182683351Y-137803047D02*
X183080422Y-137803047D01*
X182683351Y-138563047D02*
X183080422Y-138563047D01*
X182683351Y-140343047D02*
X183080422Y-140343047D01*
X182683351Y-141103047D02*
X183080422Y-141103047D01*
X182750422Y-142883047D02*
X183080422Y-142883047D01*
X182750422Y-143643047D02*
X183080422Y-143643047D01*
X183080422Y-129233047D02*
X185740422Y-129233047D01*
X183080422Y-131833047D02*
X185740422Y-131833047D01*
X183080422Y-134373047D02*
X185740422Y-134373047D01*
X183080422Y-136913047D02*
X185740422Y-136913047D01*
X183080422Y-139453047D02*
X185740422Y-139453047D01*
X183080422Y-141993047D02*
X185740422Y-141993047D01*
X183080422Y-144593047D02*
X183080422Y-129233047D01*
X185740422Y-129233047D02*
X185740422Y-144593047D01*
X185740422Y-130943047D02*
X191740422Y-130943047D01*
X185740422Y-133483047D02*
X191740422Y-133483047D01*
X185740422Y-136023047D02*
X191740422Y-136023047D01*
X185740422Y-138563047D02*
X191740422Y-138563047D01*
X185740422Y-141103047D02*
X191740422Y-141103047D01*
X185740422Y-142983047D02*
X191740422Y-142983047D01*
X185740422Y-143103047D02*
X191740422Y-143103047D01*
X185740422Y-143223047D02*
X191740422Y-143223047D01*
X185740422Y-143343047D02*
X191740422Y-143343047D01*
X185740422Y-143463047D02*
X191740422Y-143463047D01*
X185740422Y-143583047D02*
X191740422Y-143583047D01*
X185740422Y-143643047D02*
X191740422Y-143643047D01*
X185740422Y-144593047D02*
X183080422Y-144593047D01*
X191740422Y-130183047D02*
X185740422Y-130183047D01*
X191740422Y-130943047D02*
X191740422Y-130183047D01*
X191740422Y-132723047D02*
X185740422Y-132723047D01*
X191740422Y-133483047D02*
X191740422Y-132723047D01*
X191740422Y-135263047D02*
X185740422Y-135263047D01*
X191740422Y-136023047D02*
X191740422Y-135263047D01*
X191740422Y-137803047D02*
X185740422Y-137803047D01*
X191740422Y-138563047D02*
X191740422Y-137803047D01*
X191740422Y-140343047D02*
X185740422Y-140343047D01*
X191740422Y-141103047D02*
X191740422Y-140343047D01*
X191740422Y-142883047D02*
X185740422Y-142883047D01*
X191740422Y-143643047D02*
X191740422Y-142883047D01*
%TD*%
M02*
