%TF.GenerationSoftware,KiCad,Pcbnew,7.0.2-0*%
%TF.CreationDate,2023-04-20T17:34:09-07:00*%
%TF.ProjectId,RagGuard_V1,52616747-7561-4726-945f-56312e6b6963,rev?*%
%TF.SameCoordinates,Original*%
%TF.FileFunction,Copper,L2,Bot*%
%TF.FilePolarity,Positive*%
%FSLAX46Y46*%
G04 Gerber Fmt 4.6, Leading zero omitted, Abs format (unit mm)*
G04 Created by KiCad (PCBNEW 7.0.2-0) date 2023-04-20 17:34:09*
%MOMM*%
%LPD*%
G01*
G04 APERTURE LIST*
%TA.AperFunction,ComponentPad*%
%ADD10C,2.600000*%
%TD*%
%TA.AperFunction,ConnectorPad*%
%ADD11C,4.400000*%
%TD*%
%TA.AperFunction,ComponentPad*%
%ADD12R,2.100000X2.100000*%
%TD*%
%TA.AperFunction,ComponentPad*%
%ADD13C,2.100000*%
%TD*%
%TA.AperFunction,ComponentPad*%
%ADD14C,0.630000*%
%TD*%
%TA.AperFunction,SMDPad,CuDef*%
%ADD15R,2.600000X3.300000*%
%TD*%
%TA.AperFunction,ComponentPad*%
%ADD16R,1.700000X1.700000*%
%TD*%
%TA.AperFunction,ComponentPad*%
%ADD17O,1.700000X1.700000*%
%TD*%
%TA.AperFunction,ViaPad*%
%ADD18C,0.500000*%
%TD*%
%TA.AperFunction,ViaPad*%
%ADD19C,0.800000*%
%TD*%
%TA.AperFunction,Conductor*%
%ADD20C,0.250000*%
%TD*%
G04 APERTURE END LIST*
D10*
%TO.P,REF\u002A\u002A,1*%
%TO.N,N/C*%
X213000000Y-148000000D03*
D11*
X213000000Y-148000000D03*
%TD*%
D12*
%TO.P,J1,1,Pin_1*%
%TO.N,+12V*%
X212365644Y-133542264D03*
D13*
%TO.P,J1,2,Pin_2*%
%TO.N,GND*%
X212365644Y-131002264D03*
%TD*%
D14*
%TO.P,U3,9,GND*%
%TO.N,GND*%
X201700000Y-140275981D03*
X201700000Y-141575981D03*
X201700000Y-142875981D03*
D15*
X202350000Y-141575981D03*
D14*
X203000000Y-140275981D03*
X203000000Y-141575981D03*
X203000000Y-142875981D03*
%TD*%
D10*
%TO.P,REF\u002A\u002A,1*%
%TO.N,N/C*%
X183000000Y-126000000D03*
D11*
X183000000Y-126000000D03*
%TD*%
D10*
%TO.P,REF\u002A\u002A,1*%
%TO.N,N/C*%
X183000000Y-148000000D03*
D11*
X183000000Y-148000000D03*
%TD*%
D10*
%TO.P,REF\u002A\u002A,1*%
%TO.N,N/C*%
X213000000Y-126000000D03*
D11*
X213000000Y-126000000D03*
%TD*%
D12*
%TO.P,J2,1,Pin_1*%
%TO.N,Net-(J2-Pin_1)*%
X212382475Y-143000000D03*
D13*
%TO.P,J2,2,Pin_2*%
%TO.N,Net-(J2-Pin_2)*%
X212382475Y-140460000D03*
%TD*%
D16*
%TO.P,J4,1,Pin_1*%
%TO.N,+5V*%
X181640422Y-143263047D03*
D17*
%TO.P,J4,2,Pin_2*%
%TO.N,Net-(J4-Pin_2)*%
X181640422Y-140723047D03*
%TO.P,J4,3,Pin_3*%
%TO.N,Net-(J4-Pin_3)*%
X181640422Y-138183047D03*
%TO.P,J4,4,Pin_4*%
%TO.N,Net-(J4-Pin_4)*%
X181640422Y-135643047D03*
%TO.P,J4,5,Pin_5*%
%TO.N,Net-(J4-Pin_5)*%
X181640422Y-133103047D03*
%TO.P,J4,6,Pin_6*%
%TO.N,GND*%
X181640422Y-130563047D03*
%TD*%
D18*
%TO.N,+12V*%
X196654667Y-138442721D03*
X207063296Y-143457739D03*
%TO.N,GND*%
X200804667Y-136261316D03*
X200804667Y-137211316D03*
X198554667Y-137311316D03*
X199454667Y-135411316D03*
X198254667Y-136411316D03*
X198554667Y-135561316D03*
X198254667Y-134711316D03*
D19*
%TO.N,+5V*%
X204304667Y-134111316D03*
D18*
X188491177Y-134945884D03*
D19*
X194454667Y-134061316D03*
D18*
X186592667Y-143267604D03*
X188516233Y-138248416D03*
%TD*%
D20*
%TO.N,+12V*%
X196654667Y-138442721D02*
X196661684Y-138449738D01*
X207063296Y-142689277D02*
X207063296Y-143457739D01*
X202823757Y-138449738D02*
X207063296Y-142689277D01*
X196661684Y-138449738D02*
X202823757Y-138449738D01*
X212382475Y-137370098D02*
X212382475Y-133354763D01*
X207063296Y-142689277D02*
X212382475Y-137370098D01*
%TO.N,+5V*%
X195554667Y-132161316D02*
X203154667Y-132161316D01*
X194454667Y-134061316D02*
X194454667Y-133261316D01*
X186592667Y-143267604D02*
X186588110Y-143263047D01*
X194454667Y-133261316D02*
X195554667Y-132161316D01*
X203154667Y-132161316D02*
X204304667Y-133311316D01*
X186588110Y-143263047D02*
X181640422Y-143263047D01*
X188516233Y-138248416D02*
X188516233Y-134970940D01*
X188516233Y-134970940D02*
X188491177Y-134945884D01*
X204304667Y-133311316D02*
X204304667Y-134111316D01*
%TD*%
%TA.AperFunction,Conductor*%
%TO.N,GND*%
G36*
X183133613Y-123007502D02*
G01*
X183315157Y-123017698D01*
X183325065Y-123018758D01*
X183475647Y-123042608D01*
X183636491Y-123069936D01*
X183645474Y-123071898D01*
X183796693Y-123112418D01*
X183950213Y-123156646D01*
X183958244Y-123159339D01*
X184104991Y-123215670D01*
X184107376Y-123216622D01*
X184246493Y-123274246D01*
X184252662Y-123276801D01*
X184259722Y-123280056D01*
X184400438Y-123351755D01*
X184403372Y-123353312D01*
X184540334Y-123429008D01*
X184546329Y-123432605D01*
X184679181Y-123518881D01*
X184682504Y-123521137D01*
X184784673Y-123593630D01*
X184809788Y-123611450D01*
X184814798Y-123615249D01*
X184934862Y-123712475D01*
X184938050Y-123715056D01*
X184941715Y-123718175D01*
X185057931Y-123822032D01*
X185061967Y-123825847D01*
X185174151Y-123938031D01*
X185177966Y-123942067D01*
X185281823Y-124058283D01*
X185284942Y-124061948D01*
X185384746Y-124185196D01*
X185388548Y-124190210D01*
X185478846Y-124317472D01*
X185481134Y-124320842D01*
X185567382Y-124453652D01*
X185571001Y-124459683D01*
X185646681Y-124596617D01*
X185648243Y-124599560D01*
X185719942Y-124740276D01*
X185723197Y-124747336D01*
X185783376Y-124892622D01*
X185784337Y-124895029D01*
X185840653Y-125041738D01*
X185843359Y-125049809D01*
X185887579Y-125203297D01*
X185928096Y-125354509D01*
X185930067Y-125363537D01*
X185957394Y-125524368D01*
X185981239Y-125674921D01*
X185982301Y-125684853D01*
X185992509Y-125866617D01*
X185999364Y-125997405D01*
X185999500Y-126002586D01*
X185999500Y-127955685D01*
X185996534Y-127964812D01*
X185999023Y-127990081D01*
X185999500Y-127999785D01*
X185999499Y-128087531D01*
X186014541Y-128172837D01*
X186013883Y-128177518D01*
X186015700Y-128183508D01*
X186018458Y-128195054D01*
X186029899Y-128259940D01*
X186065785Y-128358535D01*
X186065964Y-128363687D01*
X186067964Y-128367427D01*
X186073683Y-128380234D01*
X186089773Y-128424441D01*
X186149601Y-128528066D01*
X186150873Y-128534054D01*
X186153094Y-128536760D01*
X186162300Y-128550060D01*
X186177308Y-128576055D01*
X186177309Y-128576057D01*
X186178028Y-128577301D01*
X186184188Y-128586413D01*
X186184209Y-128586422D01*
X186195839Y-128598141D01*
X186262929Y-128678096D01*
X186265601Y-128684709D01*
X186267728Y-128686455D01*
X186280763Y-128699349D01*
X186289836Y-128710162D01*
X186300650Y-128719236D01*
X186310247Y-128728938D01*
X186321902Y-128737069D01*
X186401857Y-128804159D01*
X186406129Y-128810995D01*
X186407729Y-128811851D01*
X186422700Y-128821973D01*
X186423944Y-128822691D01*
X186423945Y-128822692D01*
X186449939Y-128837699D01*
X186461170Y-128845473D01*
X186471932Y-128850398D01*
X186575555Y-128910225D01*
X186619766Y-128926317D01*
X186632138Y-128931841D01*
X186641459Y-128934212D01*
X186740062Y-128970101D01*
X186804960Y-128981544D01*
X186816503Y-128984302D01*
X186818287Y-128984843D01*
X186827155Y-128985457D01*
X186912468Y-129000500D01*
X187000223Y-129000500D01*
X187009926Y-129000977D01*
X187025886Y-129002548D01*
X187044313Y-129000500D01*
X208955686Y-129000500D01*
X208964811Y-129003464D01*
X208990073Y-129000977D01*
X208999776Y-129000500D01*
X209087530Y-129000500D01*
X209087532Y-129000500D01*
X209172838Y-128985458D01*
X209177515Y-128986115D01*
X209183495Y-128984302D01*
X209195045Y-128981543D01*
X209259938Y-128970101D01*
X209259937Y-128970100D01*
X209358536Y-128934213D01*
X209363683Y-128934034D01*
X209367416Y-128932039D01*
X209380218Y-128926322D01*
X209424445Y-128910225D01*
X209528068Y-128850397D01*
X209534055Y-128849124D01*
X209536755Y-128846909D01*
X209550062Y-128837699D01*
X209576055Y-128822692D01*
X209576059Y-128822688D01*
X209577300Y-128821972D01*
X209586419Y-128815807D01*
X209586429Y-128815783D01*
X209598142Y-128804159D01*
X209644022Y-128765661D01*
X209678097Y-128737069D01*
X209684709Y-128734397D01*
X209686451Y-128732275D01*
X209699343Y-128719241D01*
X209710163Y-128710163D01*
X209719241Y-128699343D01*
X209728932Y-128689757D01*
X209737064Y-128678102D01*
X209804158Y-128598142D01*
X209810994Y-128593870D01*
X209811848Y-128592274D01*
X209821972Y-128577300D01*
X209822688Y-128576059D01*
X209822692Y-128576055D01*
X209837700Y-128550060D01*
X209845466Y-128538838D01*
X209850392Y-128528076D01*
X209910225Y-128424445D01*
X209926322Y-128380218D01*
X209931838Y-128367865D01*
X209934214Y-128358535D01*
X209970101Y-128259938D01*
X209981543Y-128195043D01*
X209984302Y-128183495D01*
X209984841Y-128181717D01*
X209985457Y-128172846D01*
X210000500Y-128087532D01*
X210000500Y-128000000D01*
X210000500Y-127999775D01*
X210000977Y-127990071D01*
X210002547Y-127974121D01*
X210000500Y-127955685D01*
X210000500Y-126002773D01*
X210000578Y-126000000D01*
X210594754Y-126000000D01*
X210613720Y-126301457D01*
X210614302Y-126304511D01*
X210614304Y-126304522D01*
X210669736Y-126595106D01*
X210670319Y-126598160D01*
X210671276Y-126601106D01*
X210671277Y-126601109D01*
X210762696Y-126882468D01*
X210762699Y-126882476D01*
X210763659Y-126885430D01*
X210892267Y-127158736D01*
X211054115Y-127413768D01*
X211056100Y-127416167D01*
X211244669Y-127644109D01*
X211244674Y-127644115D01*
X211246651Y-127646504D01*
X211466838Y-127853274D01*
X211469357Y-127855104D01*
X211633170Y-127974121D01*
X211711205Y-128030816D01*
X211975896Y-128176332D01*
X212256738Y-128287525D01*
X212549302Y-128362642D01*
X212848973Y-128400500D01*
X212852078Y-128400500D01*
X213147922Y-128400500D01*
X213151027Y-128400500D01*
X213450698Y-128362642D01*
X213743262Y-128287525D01*
X214024104Y-128176332D01*
X214288795Y-128030816D01*
X214533162Y-127853274D01*
X214753349Y-127646504D01*
X214945885Y-127413768D01*
X215107733Y-127158736D01*
X215236341Y-126885430D01*
X215329681Y-126598160D01*
X215386280Y-126301457D01*
X215405246Y-126000000D01*
X215386280Y-125698543D01*
X215329681Y-125401840D01*
X215236341Y-125114570D01*
X215107733Y-124841264D01*
X214945885Y-124586232D01*
X214774242Y-124378751D01*
X214755330Y-124355890D01*
X214755325Y-124355885D01*
X214753349Y-124353496D01*
X214579468Y-124190210D01*
X214535435Y-124148860D01*
X214535430Y-124148856D01*
X214533162Y-124146726D01*
X214509923Y-124129842D01*
X214291309Y-123971010D01*
X214291303Y-123971006D01*
X214288795Y-123969184D01*
X214232128Y-123938031D01*
X214072591Y-123850324D01*
X214024104Y-123823668D01*
X214021223Y-123822527D01*
X214021216Y-123822524D01*
X213808915Y-123738469D01*
X213743262Y-123712475D01*
X213740259Y-123711704D01*
X213740253Y-123711702D01*
X213453705Y-123638130D01*
X213453704Y-123638129D01*
X213450698Y-123637358D01*
X213447617Y-123636968D01*
X213447613Y-123636968D01*
X213154110Y-123599889D01*
X213154102Y-123599888D01*
X213151027Y-123599500D01*
X212848973Y-123599500D01*
X212845898Y-123599888D01*
X212845889Y-123599889D01*
X212552386Y-123636968D01*
X212552379Y-123636969D01*
X212549302Y-123637358D01*
X212546298Y-123638129D01*
X212546294Y-123638130D01*
X212259746Y-123711702D01*
X212259735Y-123711705D01*
X212256738Y-123712475D01*
X212253851Y-123713617D01*
X212253848Y-123713619D01*
X211978783Y-123822524D01*
X211978770Y-123822530D01*
X211975896Y-123823668D01*
X211973179Y-123825161D01*
X211973174Y-123825164D01*
X211713932Y-123967684D01*
X211713922Y-123967690D01*
X211711205Y-123969184D01*
X211708703Y-123971001D01*
X211708690Y-123971010D01*
X211469357Y-124144895D01*
X211469348Y-124144901D01*
X211466838Y-124146726D01*
X211464576Y-124148849D01*
X211464564Y-124148860D01*
X211284940Y-124317540D01*
X211246651Y-124353496D01*
X211244681Y-124355876D01*
X211244669Y-124355890D01*
X211056100Y-124583832D01*
X211054115Y-124586232D01*
X211052449Y-124588856D01*
X211052444Y-124588864D01*
X210893935Y-124838634D01*
X210893928Y-124838646D01*
X210892267Y-124841264D01*
X210890944Y-124844074D01*
X210890942Y-124844079D01*
X210794151Y-125049772D01*
X210763659Y-125114570D01*
X210762701Y-125117518D01*
X210762696Y-125117531D01*
X210671277Y-125398890D01*
X210671275Y-125398897D01*
X210670319Y-125401840D01*
X210669738Y-125404883D01*
X210669736Y-125404893D01*
X210614304Y-125695477D01*
X210614302Y-125695490D01*
X210613720Y-125698543D01*
X210594754Y-126000000D01*
X210000578Y-126000000D01*
X210000656Y-125997222D01*
X210013965Y-125760230D01*
X210019349Y-125667791D01*
X210020576Y-125657001D01*
X210052965Y-125466374D01*
X210077009Y-125330015D01*
X210079372Y-125319815D01*
X210130405Y-125142675D01*
X210172812Y-125001029D01*
X210176175Y-124991574D01*
X210245302Y-124824687D01*
X210305495Y-124685145D01*
X210309721Y-124676531D01*
X210396183Y-124520090D01*
X210473316Y-124386496D01*
X210478264Y-124378781D01*
X210580413Y-124234815D01*
X210581597Y-124233187D01*
X210674073Y-124108970D01*
X210679618Y-124102177D01*
X210796632Y-123971239D01*
X210798276Y-123969449D01*
X210905131Y-123856188D01*
X210911158Y-123850324D01*
X211041519Y-123733826D01*
X211043801Y-123731848D01*
X211163486Y-123631421D01*
X211169803Y-123626541D01*
X211312100Y-123525577D01*
X211314881Y-123523677D01*
X211445770Y-123437591D01*
X211452236Y-123433685D01*
X211604631Y-123349459D01*
X211607960Y-123347704D01*
X211748304Y-123277221D01*
X211754777Y-123274260D01*
X211915398Y-123207728D01*
X211919350Y-123206192D01*
X212067052Y-123152432D01*
X212073450Y-123150348D01*
X212240383Y-123102256D01*
X212244839Y-123101086D01*
X212397987Y-123064790D01*
X212404158Y-123063536D01*
X212575267Y-123034464D01*
X212580263Y-123033747D01*
X212736667Y-123015466D01*
X212742578Y-123014956D01*
X212915738Y-123005231D01*
X212921289Y-123005076D01*
X213078711Y-123005076D01*
X213084261Y-123005231D01*
X213257415Y-123014955D01*
X213263338Y-123015467D01*
X213419725Y-123033746D01*
X213424743Y-123034465D01*
X213595829Y-123063534D01*
X213602024Y-123064792D01*
X213755140Y-123101081D01*
X213759637Y-123102262D01*
X213926532Y-123150343D01*
X213932964Y-123152438D01*
X214080617Y-123206180D01*
X214084628Y-123207740D01*
X214245201Y-123274251D01*
X214251716Y-123277231D01*
X214391997Y-123347683D01*
X214395410Y-123349482D01*
X214402290Y-123353285D01*
X214547744Y-123433675D01*
X214554257Y-123437609D01*
X214685064Y-123523642D01*
X214687951Y-123525614D01*
X214830179Y-123626530D01*
X214836527Y-123631433D01*
X214956147Y-123731806D01*
X214958479Y-123733826D01*
X215088840Y-123850324D01*
X215094882Y-123856204D01*
X215201640Y-123969360D01*
X215203440Y-123971321D01*
X215226815Y-123997477D01*
X215320357Y-124102150D01*
X215325948Y-124108999D01*
X215418327Y-124233086D01*
X215419658Y-124234917D01*
X215521713Y-124378751D01*
X215526708Y-124386539D01*
X215603842Y-124520138D01*
X215690273Y-124676523D01*
X215694516Y-124685173D01*
X215754706Y-124824711D01*
X215823817Y-124991558D01*
X215827192Y-125001045D01*
X215869604Y-125142709D01*
X215920627Y-125319815D01*
X215922991Y-125330027D01*
X215947047Y-125466451D01*
X215979419Y-125656982D01*
X215980651Y-125667808D01*
X215986034Y-125760230D01*
X215999343Y-125997222D01*
X215999499Y-126002773D01*
X215999499Y-129019589D01*
X215999500Y-129019594D01*
X215999500Y-147997412D01*
X215999364Y-148002594D01*
X215992509Y-148133382D01*
X215982301Y-148315144D01*
X215981238Y-148325078D01*
X215957394Y-148475629D01*
X215930069Y-148636457D01*
X215928095Y-148645493D01*
X215887579Y-148796702D01*
X215843358Y-148950194D01*
X215840655Y-148958255D01*
X215784337Y-149104969D01*
X215783376Y-149107376D01*
X215723197Y-149252662D01*
X215719942Y-149259722D01*
X215648243Y-149400438D01*
X215646681Y-149403381D01*
X215571001Y-149540315D01*
X215567382Y-149546346D01*
X215481134Y-149679156D01*
X215478846Y-149682526D01*
X215388548Y-149809788D01*
X215384746Y-149814802D01*
X215284942Y-149938050D01*
X215281823Y-149941715D01*
X215177966Y-150057931D01*
X215174151Y-150061967D01*
X215061967Y-150174151D01*
X215057931Y-150177966D01*
X214941715Y-150281823D01*
X214938050Y-150284942D01*
X214814802Y-150384746D01*
X214809788Y-150388548D01*
X214682526Y-150478846D01*
X214679156Y-150481134D01*
X214546346Y-150567382D01*
X214540315Y-150571001D01*
X214403381Y-150646681D01*
X214400438Y-150648243D01*
X214259722Y-150719942D01*
X214252662Y-150723197D01*
X214107376Y-150783376D01*
X214104969Y-150784337D01*
X213958260Y-150840653D01*
X213950189Y-150843359D01*
X213796702Y-150887579D01*
X213645489Y-150928096D01*
X213636461Y-150930067D01*
X213475631Y-150957394D01*
X213325077Y-150981239D01*
X213315145Y-150982301D01*
X213133382Y-150992509D01*
X213005181Y-150999228D01*
X212994819Y-150999228D01*
X212866618Y-150992509D01*
X212684854Y-150982301D01*
X212674919Y-150981238D01*
X212524369Y-150957394D01*
X212393741Y-150935200D01*
X212363536Y-150930068D01*
X212354505Y-150928095D01*
X212203297Y-150887579D01*
X212049804Y-150843358D01*
X212041743Y-150840655D01*
X211895029Y-150784337D01*
X211892622Y-150783376D01*
X211747336Y-150723197D01*
X211740276Y-150719942D01*
X211599560Y-150648243D01*
X211596617Y-150646681D01*
X211459683Y-150571001D01*
X211453652Y-150567382D01*
X211445963Y-150562389D01*
X211320840Y-150481132D01*
X211317472Y-150478846D01*
X211311183Y-150474384D01*
X211287286Y-150457427D01*
X211190210Y-150388548D01*
X211185196Y-150384746D01*
X211061948Y-150284942D01*
X211058283Y-150281823D01*
X210942067Y-150177966D01*
X210938031Y-150174151D01*
X210825847Y-150061967D01*
X210822032Y-150057931D01*
X210799140Y-150032315D01*
X210718169Y-149941708D01*
X210715056Y-149938050D01*
X210660078Y-149870158D01*
X210615249Y-149814798D01*
X210611450Y-149809788D01*
X210581028Y-149766912D01*
X210521137Y-149682504D01*
X210518881Y-149679181D01*
X210432605Y-149546329D01*
X210429008Y-149540334D01*
X210353312Y-149403372D01*
X210351755Y-149400438D01*
X210280056Y-149259722D01*
X210276801Y-149252662D01*
X210216622Y-149107376D01*
X210215661Y-149104969D01*
X210159342Y-148958251D01*
X210156639Y-148950189D01*
X210129875Y-148857290D01*
X210112414Y-148796679D01*
X210071903Y-148645490D01*
X210069931Y-148636460D01*
X210069930Y-148636457D01*
X210042601Y-148475606D01*
X210018756Y-148325050D01*
X210017698Y-148315161D01*
X210007490Y-148133382D01*
X210000635Y-148002594D01*
X210000567Y-148000000D01*
X210594754Y-148000000D01*
X210613720Y-148301457D01*
X210614302Y-148304511D01*
X210614304Y-148304522D01*
X210657993Y-148533547D01*
X210670319Y-148598160D01*
X210671276Y-148601106D01*
X210671277Y-148601109D01*
X210762696Y-148882468D01*
X210762699Y-148882476D01*
X210763659Y-148885430D01*
X210892267Y-149158736D01*
X210893932Y-149161360D01*
X210893935Y-149161365D01*
X211047523Y-149403381D01*
X211054115Y-149413768D01*
X211056100Y-149416167D01*
X211244669Y-149644109D01*
X211244674Y-149644115D01*
X211246651Y-149646504D01*
X211370772Y-149763062D01*
X211425869Y-149814802D01*
X211466838Y-149853274D01*
X211469357Y-149855104D01*
X211708248Y-150028668D01*
X211711205Y-150030816D01*
X211975896Y-150176332D01*
X212256738Y-150287525D01*
X212549302Y-150362642D01*
X212848973Y-150400500D01*
X212852078Y-150400500D01*
X213147922Y-150400500D01*
X213151027Y-150400500D01*
X213450698Y-150362642D01*
X213743262Y-150287525D01*
X214024104Y-150176332D01*
X214288795Y-150030816D01*
X214533162Y-149853274D01*
X214753349Y-149646504D01*
X214945885Y-149413768D01*
X215107733Y-149158736D01*
X215236341Y-148885430D01*
X215329681Y-148598160D01*
X215386280Y-148301457D01*
X215405246Y-148000000D01*
X215386280Y-147698543D01*
X215329681Y-147401840D01*
X215236341Y-147114570D01*
X215107733Y-146841264D01*
X214945885Y-146586232D01*
X214846372Y-146465941D01*
X214755330Y-146355890D01*
X214755325Y-146355885D01*
X214753349Y-146353496D01*
X214617912Y-146226312D01*
X214535435Y-146148860D01*
X214535430Y-146148856D01*
X214533162Y-146146726D01*
X214344872Y-146009926D01*
X214291309Y-145971010D01*
X214291303Y-145971006D01*
X214288795Y-145969184D01*
X214024104Y-145823668D01*
X214021223Y-145822527D01*
X214021216Y-145822524D01*
X213746151Y-145713619D01*
X213746153Y-145713619D01*
X213743262Y-145712475D01*
X213740259Y-145711704D01*
X213740253Y-145711702D01*
X213453705Y-145638130D01*
X213453704Y-145638129D01*
X213450698Y-145637358D01*
X213447617Y-145636968D01*
X213447613Y-145636968D01*
X213154110Y-145599889D01*
X213154102Y-145599888D01*
X213151027Y-145599500D01*
X212848973Y-145599500D01*
X212845898Y-145599888D01*
X212845889Y-145599889D01*
X212552386Y-145636968D01*
X212552379Y-145636969D01*
X212549302Y-145637358D01*
X212546298Y-145638129D01*
X212546294Y-145638130D01*
X212259746Y-145711702D01*
X212259735Y-145711705D01*
X212256738Y-145712475D01*
X212253851Y-145713617D01*
X212253848Y-145713619D01*
X211978783Y-145822524D01*
X211978770Y-145822530D01*
X211975896Y-145823668D01*
X211973179Y-145825161D01*
X211973174Y-145825164D01*
X211713932Y-145967684D01*
X211713922Y-145967690D01*
X211711205Y-145969184D01*
X211708703Y-145971001D01*
X211708690Y-145971010D01*
X211469357Y-146144895D01*
X211469348Y-146144901D01*
X211466838Y-146146726D01*
X211464576Y-146148849D01*
X211464564Y-146148860D01*
X211248918Y-146351367D01*
X211246651Y-146353496D01*
X211244681Y-146355876D01*
X211244669Y-146355890D01*
X211056100Y-146583832D01*
X211054115Y-146586232D01*
X211052449Y-146588856D01*
X211052444Y-146588864D01*
X210893935Y-146838634D01*
X210893928Y-146838646D01*
X210892267Y-146841264D01*
X210763659Y-147114570D01*
X210762701Y-147117518D01*
X210762696Y-147117531D01*
X210671277Y-147398890D01*
X210671275Y-147398897D01*
X210670319Y-147401840D01*
X210669738Y-147404883D01*
X210669736Y-147404893D01*
X210614304Y-147695477D01*
X210614302Y-147695490D01*
X210613720Y-147698543D01*
X210594754Y-148000000D01*
X210000567Y-148000000D01*
X210000500Y-147997414D01*
X210000500Y-146044313D01*
X210003464Y-146035187D01*
X210000977Y-146009926D01*
X210000500Y-146000223D01*
X210000500Y-145912468D01*
X210000500Y-145912466D01*
X209985458Y-145827159D01*
X209986115Y-145822481D01*
X209984302Y-145816503D01*
X209981544Y-145804960D01*
X209970101Y-145740062D01*
X209934212Y-145641461D01*
X209934033Y-145636311D01*
X209932036Y-145632575D01*
X209926317Y-145619766D01*
X209910225Y-145575555D01*
X209850398Y-145471932D01*
X209849125Y-145465944D01*
X209846906Y-145463240D01*
X209837697Y-145449935D01*
X209821973Y-145422700D01*
X209815802Y-145413573D01*
X209815772Y-145413561D01*
X209804159Y-145401857D01*
X209737069Y-145321902D01*
X209734396Y-145315288D01*
X209732271Y-145313544D01*
X209719236Y-145300650D01*
X209710162Y-145289836D01*
X209699349Y-145280763D01*
X209689758Y-145271067D01*
X209678096Y-145262929D01*
X209598141Y-145195839D01*
X209593869Y-145189002D01*
X209592268Y-145188147D01*
X209577301Y-145178028D01*
X209576057Y-145177309D01*
X209576055Y-145177308D01*
X209550060Y-145162300D01*
X209538836Y-145154531D01*
X209528066Y-145149601D01*
X209482282Y-145123167D01*
X209424445Y-145089775D01*
X209424443Y-145089774D01*
X209424441Y-145089773D01*
X209380234Y-145073683D01*
X209367876Y-145068164D01*
X209358535Y-145065785D01*
X209259940Y-145029899D01*
X209195054Y-145018458D01*
X209183508Y-145015700D01*
X209181720Y-145015157D01*
X209172837Y-145014541D01*
X209087532Y-144999500D01*
X209000099Y-144999500D01*
X208999786Y-144999500D01*
X208990082Y-144999023D01*
X208974118Y-144997450D01*
X208955686Y-144999500D01*
X187044313Y-144999500D01*
X187035185Y-144996534D01*
X187009917Y-144999023D01*
X187000213Y-144999500D01*
X186912467Y-144999500D01*
X186827160Y-145014541D01*
X186822477Y-145013882D01*
X186816486Y-145015700D01*
X186804944Y-145018458D01*
X186740063Y-145029898D01*
X186641463Y-145065786D01*
X186636309Y-145065965D01*
X186632565Y-145067967D01*
X186619762Y-145073684D01*
X186575554Y-145089775D01*
X186471930Y-145149602D01*
X186465943Y-145150874D01*
X186463235Y-145153097D01*
X186449933Y-145162303D01*
X186422698Y-145178027D01*
X186413582Y-145184190D01*
X186413572Y-145184215D01*
X186401858Y-145195840D01*
X186321901Y-145262931D01*
X186315287Y-145265603D01*
X186313540Y-145267732D01*
X186300654Y-145280759D01*
X186289836Y-145289836D01*
X186280759Y-145300654D01*
X186271064Y-145310243D01*
X186262931Y-145321901D01*
X186195840Y-145401858D01*
X186189000Y-145406131D01*
X186188143Y-145407736D01*
X186178027Y-145422698D01*
X186162303Y-145449933D01*
X186154528Y-145461166D01*
X186149602Y-145471930D01*
X186089775Y-145575554D01*
X186073684Y-145619762D01*
X186068162Y-145632127D01*
X186065786Y-145641463D01*
X186029898Y-145740063D01*
X186018458Y-145804944D01*
X186015700Y-145816486D01*
X186015156Y-145818279D01*
X186014541Y-145827160D01*
X185999500Y-145912466D01*
X185999500Y-146000213D01*
X185999023Y-146009917D01*
X185997450Y-146025880D01*
X185999500Y-146044313D01*
X185999499Y-147997226D01*
X185999343Y-148002777D01*
X185986034Y-148239769D01*
X185980650Y-148332191D01*
X185979419Y-148343016D01*
X185947047Y-148533547D01*
X185922991Y-148669971D01*
X185920626Y-148680183D01*
X185869604Y-148857290D01*
X185827192Y-148998953D01*
X185823816Y-149008440D01*
X185754706Y-149175288D01*
X185694516Y-149314825D01*
X185690262Y-149323495D01*
X185603844Y-149479858D01*
X185526706Y-149613465D01*
X185521716Y-149621243D01*
X185419658Y-149765081D01*
X185418327Y-149766912D01*
X185325948Y-149890999D01*
X185320357Y-149897848D01*
X185203449Y-150028668D01*
X185201640Y-150030638D01*
X185094882Y-150143794D01*
X185088840Y-150149674D01*
X184958479Y-150266172D01*
X184956147Y-150268192D01*
X184836527Y-150368565D01*
X184830179Y-150373468D01*
X184687951Y-150474384D01*
X184685064Y-150476356D01*
X184554257Y-150562389D01*
X184547744Y-150566323D01*
X184395420Y-150650510D01*
X184391963Y-150652333D01*
X184251735Y-150722758D01*
X184245189Y-150725752D01*
X184084628Y-150792258D01*
X184080603Y-150793823D01*
X183932974Y-150847556D01*
X183926521Y-150849658D01*
X183759675Y-150897726D01*
X183755099Y-150898927D01*
X183602049Y-150935200D01*
X183595801Y-150936469D01*
X183424779Y-150965527D01*
X183419689Y-150966257D01*
X183263346Y-150984530D01*
X183257405Y-150985043D01*
X183090326Y-150994427D01*
X183084260Y-150994768D01*
X183078711Y-150994924D01*
X182921289Y-150994924D01*
X182915739Y-150994768D01*
X182909232Y-150994402D01*
X182742593Y-150985043D01*
X182736652Y-150984530D01*
X182580309Y-150966257D01*
X182575219Y-150965527D01*
X182404197Y-150936469D01*
X182397949Y-150935200D01*
X182244899Y-150898927D01*
X182240323Y-150897726D01*
X182073477Y-150849658D01*
X182067024Y-150847556D01*
X181919395Y-150793823D01*
X181915370Y-150792258D01*
X181754809Y-150725752D01*
X181748263Y-150722758D01*
X181608035Y-150652333D01*
X181604578Y-150650510D01*
X181452254Y-150566323D01*
X181445741Y-150562389D01*
X181314934Y-150476356D01*
X181312047Y-150474384D01*
X181169819Y-150373468D01*
X181163471Y-150368565D01*
X181043851Y-150268192D01*
X181041519Y-150266172D01*
X180911158Y-150149674D01*
X180905116Y-150143794D01*
X180824108Y-150057931D01*
X180798345Y-150030623D01*
X180796549Y-150028668D01*
X180777236Y-150007057D01*
X180679637Y-149897843D01*
X180674056Y-149891006D01*
X180581659Y-149766895D01*
X180580340Y-149765081D01*
X180578907Y-149763062D01*
X180478282Y-149621243D01*
X180473290Y-149613459D01*
X180396164Y-149479873D01*
X180309717Y-149323459D01*
X180305488Y-149314838D01*
X180245293Y-149175288D01*
X180204480Y-149076759D01*
X180176176Y-149008427D01*
X180172808Y-148998958D01*
X180130394Y-148857286D01*
X180112940Y-148796702D01*
X180079367Y-148680170D01*
X180077008Y-148669976D01*
X180052952Y-148533547D01*
X180020577Y-148343000D01*
X180019348Y-148332204D01*
X180013965Y-148239768D01*
X180000656Y-148002777D01*
X180000578Y-148000000D01*
X180594754Y-148000000D01*
X180613720Y-148301457D01*
X180614302Y-148304511D01*
X180614304Y-148304522D01*
X180657993Y-148533547D01*
X180670319Y-148598160D01*
X180671276Y-148601106D01*
X180671277Y-148601109D01*
X180762696Y-148882468D01*
X180762699Y-148882476D01*
X180763659Y-148885430D01*
X180892267Y-149158736D01*
X180893932Y-149161360D01*
X180893935Y-149161365D01*
X181047523Y-149403381D01*
X181054115Y-149413768D01*
X181056100Y-149416167D01*
X181244669Y-149644109D01*
X181244674Y-149644115D01*
X181246651Y-149646504D01*
X181370772Y-149763062D01*
X181425869Y-149814802D01*
X181466838Y-149853274D01*
X181469357Y-149855104D01*
X181708248Y-150028668D01*
X181711205Y-150030816D01*
X181975896Y-150176332D01*
X182256738Y-150287525D01*
X182549302Y-150362642D01*
X182848973Y-150400500D01*
X182852078Y-150400500D01*
X183147922Y-150400500D01*
X183151027Y-150400500D01*
X183450698Y-150362642D01*
X183743262Y-150287525D01*
X184024104Y-150176332D01*
X184288795Y-150030816D01*
X184533162Y-149853274D01*
X184753349Y-149646504D01*
X184945885Y-149413768D01*
X185107733Y-149158736D01*
X185236341Y-148885430D01*
X185329681Y-148598160D01*
X185386280Y-148301457D01*
X185405246Y-148000000D01*
X185386280Y-147698543D01*
X185329681Y-147401840D01*
X185236341Y-147114570D01*
X185107733Y-146841264D01*
X184945885Y-146586232D01*
X184846372Y-146465941D01*
X184755330Y-146355890D01*
X184755325Y-146355885D01*
X184753349Y-146353496D01*
X184617912Y-146226312D01*
X184535435Y-146148860D01*
X184535430Y-146148856D01*
X184533162Y-146146726D01*
X184344872Y-146009926D01*
X184291309Y-145971010D01*
X184291303Y-145971006D01*
X184288795Y-145969184D01*
X184024104Y-145823668D01*
X184021223Y-145822527D01*
X184021216Y-145822524D01*
X183746151Y-145713619D01*
X183746153Y-145713619D01*
X183743262Y-145712475D01*
X183740259Y-145711704D01*
X183740253Y-145711702D01*
X183453705Y-145638130D01*
X183453704Y-145638129D01*
X183450698Y-145637358D01*
X183447617Y-145636968D01*
X183447613Y-145636968D01*
X183154110Y-145599889D01*
X183154102Y-145599888D01*
X183151027Y-145599500D01*
X182848973Y-145599500D01*
X182845898Y-145599888D01*
X182845889Y-145599889D01*
X182552386Y-145636968D01*
X182552379Y-145636969D01*
X182549302Y-145637358D01*
X182546298Y-145638129D01*
X182546294Y-145638130D01*
X182259746Y-145711702D01*
X182259735Y-145711705D01*
X182256738Y-145712475D01*
X182253851Y-145713617D01*
X182253848Y-145713619D01*
X181978783Y-145822524D01*
X181978770Y-145822530D01*
X181975896Y-145823668D01*
X181973179Y-145825161D01*
X181973174Y-145825164D01*
X181713932Y-145967684D01*
X181713922Y-145967690D01*
X181711205Y-145969184D01*
X181708703Y-145971001D01*
X181708690Y-145971010D01*
X181469357Y-146144895D01*
X181469348Y-146144901D01*
X181466838Y-146146726D01*
X181464576Y-146148849D01*
X181464564Y-146148860D01*
X181248918Y-146351367D01*
X181246651Y-146353496D01*
X181244681Y-146355876D01*
X181244669Y-146355890D01*
X181056100Y-146583832D01*
X181054115Y-146586232D01*
X181052449Y-146588856D01*
X181052444Y-146588864D01*
X180893935Y-146838634D01*
X180893928Y-146838646D01*
X180892267Y-146841264D01*
X180763659Y-147114570D01*
X180762701Y-147117518D01*
X180762696Y-147117531D01*
X180671277Y-147398890D01*
X180671275Y-147398897D01*
X180670319Y-147401840D01*
X180669738Y-147404883D01*
X180669736Y-147404893D01*
X180614304Y-147695477D01*
X180614302Y-147695490D01*
X180613720Y-147698543D01*
X180594754Y-148000000D01*
X180000578Y-148000000D01*
X180000500Y-147997226D01*
X180000500Y-144132793D01*
X180589922Y-144132793D01*
X180601555Y-144191278D01*
X180645869Y-144257599D01*
X180690184Y-144287209D01*
X180712191Y-144301914D01*
X180770674Y-144313547D01*
X180770675Y-144313547D01*
X182510169Y-144313547D01*
X182510170Y-144313547D01*
X182568653Y-144301914D01*
X182634974Y-144257599D01*
X182679289Y-144191278D01*
X182690922Y-144132795D01*
X182690922Y-143687547D01*
X182709829Y-143629356D01*
X182759329Y-143593392D01*
X182789922Y-143588547D01*
X186229724Y-143588547D01*
X186283248Y-143604263D01*
X186294616Y-143611569D01*
X186294618Y-143611571D01*
X186403598Y-143681608D01*
X186527895Y-143718104D01*
X186657439Y-143718104D01*
X186781736Y-143681608D01*
X186890716Y-143611571D01*
X186975549Y-143513667D01*
X186975548Y-143513667D01*
X186975550Y-143513666D01*
X187029364Y-143395831D01*
X187047800Y-143267603D01*
X187029364Y-143139376D01*
X186975550Y-143021541D01*
X186890717Y-142923638D01*
X186890716Y-142923637D01*
X186799646Y-142865110D01*
X186781735Y-142853599D01*
X186657439Y-142817104D01*
X186527895Y-142817104D01*
X186403596Y-142853600D01*
X186297427Y-142921831D01*
X186243904Y-142937547D01*
X182789922Y-142937547D01*
X182731731Y-142918640D01*
X182695767Y-142869140D01*
X182690922Y-142838547D01*
X182690922Y-142393300D01*
X182690922Y-142393299D01*
X182679289Y-142334816D01*
X182664584Y-142312809D01*
X182634974Y-142268494D01*
X182568653Y-142224180D01*
X182568653Y-142224179D01*
X182510170Y-142212547D01*
X180770674Y-142212547D01*
X180741432Y-142218363D01*
X180712190Y-142224180D01*
X180645869Y-142268494D01*
X180601555Y-142334815D01*
X180589922Y-142393300D01*
X180589922Y-144132793D01*
X180000500Y-144132793D01*
X180000500Y-140723047D01*
X180584838Y-140723047D01*
X180605121Y-140928980D01*
X180665189Y-141126999D01*
X180665190Y-141127001D01*
X180762737Y-141309497D01*
X180894012Y-141469457D01*
X181053972Y-141600732D01*
X181236468Y-141698279D01*
X181405323Y-141749500D01*
X181434488Y-141758347D01*
X181640421Y-141778630D01*
X181640421Y-141778629D01*
X181640422Y-141778630D01*
X181846356Y-141758347D01*
X182044376Y-141698279D01*
X182226872Y-141600732D01*
X182386832Y-141469457D01*
X182518107Y-141309497D01*
X182615654Y-141127001D01*
X182675722Y-140928981D01*
X182696005Y-140723047D01*
X182675722Y-140517113D01*
X182615654Y-140319093D01*
X182518107Y-140136597D01*
X182386832Y-139976637D01*
X182226872Y-139845362D01*
X182044376Y-139747815D01*
X182044375Y-139747814D01*
X182044374Y-139747814D01*
X181846355Y-139687746D01*
X181640421Y-139667463D01*
X181434488Y-139687746D01*
X181236469Y-139747814D01*
X181053971Y-139845362D01*
X180894012Y-139976637D01*
X180762737Y-140136596D01*
X180665189Y-140319094D01*
X180605121Y-140517113D01*
X180584838Y-140723047D01*
X180000500Y-140723047D01*
X180000500Y-138183047D01*
X180584838Y-138183047D01*
X180605121Y-138388980D01*
X180637124Y-138494479D01*
X180665190Y-138587001D01*
X180762737Y-138769497D01*
X180894012Y-138929457D01*
X181053972Y-139060732D01*
X181236468Y-139158279D01*
X181434488Y-139218347D01*
X181640422Y-139238630D01*
X181846356Y-139218347D01*
X182044376Y-139158279D01*
X182226872Y-139060732D01*
X182386832Y-138929457D01*
X182518107Y-138769497D01*
X182615654Y-138587001D01*
X182675722Y-138388981D01*
X182696005Y-138183047D01*
X182691681Y-138139150D01*
X182675722Y-137977113D01*
X182615654Y-137779094D01*
X182615654Y-137779093D01*
X182518107Y-137596597D01*
X182386832Y-137436637D01*
X182226872Y-137305362D01*
X182044376Y-137207815D01*
X182044375Y-137207814D01*
X182044374Y-137207814D01*
X181846355Y-137147746D01*
X181640421Y-137127463D01*
X181434488Y-137147746D01*
X181236469Y-137207814D01*
X181053971Y-137305362D01*
X180894012Y-137436637D01*
X180762737Y-137596596D01*
X180665189Y-137779094D01*
X180605121Y-137977113D01*
X180584838Y-138183047D01*
X180000500Y-138183047D01*
X180000500Y-135643046D01*
X180584838Y-135643046D01*
X180605121Y-135848980D01*
X180665189Y-136046999D01*
X180665190Y-136047001D01*
X180762737Y-136229497D01*
X180894012Y-136389457D01*
X181053972Y-136520732D01*
X181236468Y-136618279D01*
X181434488Y-136678347D01*
X181640422Y-136698630D01*
X181846356Y-136678347D01*
X182044376Y-136618279D01*
X182226872Y-136520732D01*
X182386832Y-136389457D01*
X182518107Y-136229497D01*
X182615654Y-136047001D01*
X182675722Y-135848981D01*
X182696005Y-135643047D01*
X182675722Y-135437113D01*
X182615654Y-135239093D01*
X182518107Y-135056597D01*
X182427247Y-134945883D01*
X188036043Y-134945883D01*
X188054479Y-135074109D01*
X188108295Y-135191947D01*
X188166552Y-135259179D01*
X188190370Y-135315538D01*
X188190733Y-135324010D01*
X188190733Y-137899204D01*
X188171826Y-137957395D01*
X188166553Y-137964034D01*
X188133350Y-138002352D01*
X188079535Y-138120190D01*
X188061099Y-138248415D01*
X188079535Y-138376643D01*
X188133349Y-138494478D01*
X188218182Y-138592381D01*
X188218184Y-138592383D01*
X188327164Y-138662420D01*
X188451461Y-138698916D01*
X188581005Y-138698916D01*
X188705302Y-138662420D01*
X188814282Y-138592383D01*
X188899115Y-138494479D01*
X188899114Y-138494479D01*
X188899116Y-138494478D01*
X188922753Y-138442721D01*
X196199533Y-138442721D01*
X196217969Y-138570948D01*
X196271783Y-138688783D01*
X196356616Y-138786686D01*
X196356618Y-138786688D01*
X196465598Y-138856725D01*
X196589895Y-138893221D01*
X196719439Y-138893221D01*
X196843736Y-138856725D01*
X196879304Y-138833866D01*
X196946079Y-138790954D01*
X196999602Y-138775238D01*
X202647923Y-138775238D01*
X202706114Y-138794145D01*
X202717927Y-138804234D01*
X206708800Y-142795107D01*
X206736577Y-142849624D01*
X206737796Y-142865111D01*
X206737796Y-143108527D01*
X206718889Y-143166718D01*
X206713616Y-143173357D01*
X206680413Y-143211675D01*
X206626598Y-143329513D01*
X206608162Y-143457738D01*
X206626598Y-143585966D01*
X206680412Y-143703801D01*
X206765245Y-143801704D01*
X206765247Y-143801706D01*
X206874227Y-143871743D01*
X206998524Y-143908239D01*
X207128068Y-143908239D01*
X207252365Y-143871743D01*
X207361345Y-143801706D01*
X207446178Y-143703802D01*
X207446177Y-143703802D01*
X207446179Y-143703801D01*
X207499993Y-143585966D01*
X207518429Y-143457739D01*
X207499993Y-143329513D01*
X207446178Y-143211675D01*
X207412976Y-143173357D01*
X207389159Y-143116997D01*
X207388796Y-143108527D01*
X207388796Y-142865110D01*
X207407703Y-142806919D01*
X207417786Y-142795112D01*
X209752898Y-140460000D01*
X211127197Y-140460000D01*
X211146267Y-140677973D01*
X211146267Y-140677976D01*
X211146268Y-140677977D01*
X211174583Y-140783653D01*
X211202901Y-140889334D01*
X211295371Y-141087636D01*
X211295372Y-141087638D01*
X211295373Y-141087639D01*
X211420877Y-141266877D01*
X211575598Y-141421598D01*
X211754836Y-141547102D01*
X211784160Y-141560776D01*
X211828907Y-141602504D01*
X211840582Y-141662565D01*
X211814724Y-141718018D01*
X211761210Y-141747681D01*
X211742320Y-141749500D01*
X211312727Y-141749500D01*
X211283485Y-141755316D01*
X211254243Y-141761133D01*
X211187922Y-141805447D01*
X211143608Y-141871768D01*
X211131975Y-141930253D01*
X211131975Y-144069746D01*
X211143608Y-144128231D01*
X211187922Y-144194552D01*
X211232236Y-144224162D01*
X211254244Y-144238867D01*
X211312727Y-144250500D01*
X211312728Y-144250500D01*
X213452222Y-144250500D01*
X213452223Y-144250500D01*
X213510706Y-144238867D01*
X213577027Y-144194552D01*
X213621342Y-144128231D01*
X213632975Y-144069748D01*
X213632975Y-141930252D01*
X213621342Y-141871769D01*
X213606637Y-141849761D01*
X213577027Y-141805447D01*
X213510706Y-141761133D01*
X213496700Y-141758347D01*
X213452223Y-141749500D01*
X213022630Y-141749500D01*
X212964439Y-141730593D01*
X212928475Y-141681093D01*
X212928475Y-141619907D01*
X212964439Y-141570407D01*
X212980786Y-141560777D01*
X213010114Y-141547102D01*
X213189352Y-141421598D01*
X213344073Y-141266877D01*
X213469577Y-141087639D01*
X213562050Y-140889330D01*
X213618682Y-140677977D01*
X213637752Y-140460000D01*
X213618682Y-140242023D01*
X213562050Y-140030670D01*
X213469577Y-139832362D01*
X213344073Y-139653123D01*
X213189352Y-139498402D01*
X213010114Y-139372898D01*
X213010113Y-139372897D01*
X213010111Y-139372896D01*
X212811809Y-139280426D01*
X212600448Y-139223792D01*
X212382475Y-139204722D01*
X212164501Y-139223792D01*
X211953140Y-139280426D01*
X211754839Y-139372896D01*
X211575601Y-139498399D01*
X211420874Y-139653126D01*
X211295371Y-139832364D01*
X211202901Y-140030665D01*
X211146267Y-140242026D01*
X211127197Y-140460000D01*
X209752898Y-140460000D01*
X212599541Y-137613356D01*
X212605885Y-137607542D01*
X212635669Y-137582553D01*
X212655107Y-137548883D01*
X212659729Y-137541627D01*
X212682029Y-137509782D01*
X212682417Y-137508330D01*
X212692313Y-137484441D01*
X212693063Y-137483143D01*
X212699810Y-137444875D01*
X212701676Y-137436457D01*
X212711739Y-137398905D01*
X212708349Y-137360169D01*
X212707974Y-137351585D01*
X212707974Y-134891763D01*
X212726882Y-134833573D01*
X212776382Y-134797609D01*
X212806975Y-134792764D01*
X213435391Y-134792764D01*
X213435392Y-134792764D01*
X213493875Y-134781131D01*
X213560196Y-134736816D01*
X213604511Y-134670495D01*
X213616144Y-134612012D01*
X213616144Y-132472516D01*
X213604511Y-132414033D01*
X213566160Y-132356637D01*
X213560196Y-132347711D01*
X213493875Y-132303397D01*
X213493874Y-132303396D01*
X213435392Y-132291764D01*
X211295896Y-132291764D01*
X211266654Y-132297580D01*
X211237412Y-132303397D01*
X211171091Y-132347711D01*
X211126777Y-132414032D01*
X211115144Y-132472517D01*
X211115144Y-134612010D01*
X211126777Y-134670495D01*
X211171091Y-134736816D01*
X211213813Y-134765362D01*
X211237413Y-134781131D01*
X211295896Y-134792764D01*
X211957975Y-134792764D01*
X212016166Y-134811671D01*
X212052130Y-134861171D01*
X212056975Y-134891764D01*
X212056974Y-137194263D01*
X212038067Y-137252454D01*
X212027978Y-137264267D01*
X207133299Y-142158946D01*
X207078782Y-142186723D01*
X207018350Y-142177152D01*
X206993291Y-142158946D01*
X203067025Y-138232680D01*
X203061191Y-138226312D01*
X203039958Y-138201009D01*
X203036212Y-138196544D01*
X203036211Y-138196543D01*
X203002551Y-138177108D01*
X202995271Y-138172470D01*
X202963442Y-138150184D01*
X202961982Y-138149793D01*
X202938109Y-138139904D01*
X202936802Y-138139150D01*
X202936800Y-138139149D01*
X202936799Y-138139149D01*
X202898535Y-138132401D01*
X202890107Y-138130533D01*
X202852564Y-138120473D01*
X202817087Y-138123577D01*
X202813850Y-138123861D01*
X202805223Y-138124238D01*
X197020010Y-138124238D01*
X196964789Y-138106296D01*
X196964691Y-138106449D01*
X196964109Y-138106075D01*
X196961819Y-138105331D01*
X196959174Y-138102903D01*
X196843737Y-138028717D01*
X196719439Y-137992221D01*
X196589895Y-137992221D01*
X196465598Y-138028716D01*
X196356616Y-138098755D01*
X196271783Y-138196658D01*
X196217969Y-138314493D01*
X196199533Y-138442721D01*
X188922753Y-138442721D01*
X188952930Y-138376643D01*
X188971366Y-138248416D01*
X188952930Y-138120190D01*
X188899115Y-138002352D01*
X188865913Y-137964034D01*
X188842096Y-137907674D01*
X188841733Y-137899204D01*
X188841733Y-135266177D01*
X188860640Y-135207986D01*
X188865899Y-135201363D01*
X188874059Y-135191947D01*
X188927874Y-135074110D01*
X188946310Y-134945884D01*
X188946309Y-134945883D01*
X188927874Y-134817656D01*
X188874060Y-134699821D01*
X188789227Y-134601918D01*
X188789226Y-134601917D01*
X188734736Y-134566898D01*
X188680245Y-134531879D01*
X188555949Y-134495384D01*
X188426405Y-134495384D01*
X188302108Y-134531879D01*
X188193126Y-134601918D01*
X188108293Y-134699821D01*
X188054479Y-134817656D01*
X188036043Y-134945883D01*
X182427247Y-134945883D01*
X182386832Y-134896637D01*
X182226872Y-134765362D01*
X182044376Y-134667815D01*
X182044375Y-134667814D01*
X182044374Y-134667814D01*
X181846355Y-134607746D01*
X181640422Y-134587463D01*
X181434488Y-134607746D01*
X181236469Y-134667814D01*
X181053971Y-134765362D01*
X180894012Y-134896637D01*
X180762737Y-135056596D01*
X180665189Y-135239094D01*
X180605121Y-135437113D01*
X180584838Y-135643046D01*
X180000500Y-135643046D01*
X180000500Y-133103046D01*
X180584838Y-133103046D01*
X180605121Y-133308980D01*
X180654470Y-133471663D01*
X180665190Y-133507001D01*
X180762737Y-133689497D01*
X180894012Y-133849457D01*
X181053972Y-133980732D01*
X181236468Y-134078279D01*
X181434488Y-134138347D01*
X181640422Y-134158630D01*
X181846356Y-134138347D01*
X182044376Y-134078279D01*
X182076113Y-134061315D01*
X193848985Y-134061315D01*
X193869622Y-134218077D01*
X193930131Y-134364157D01*
X194026384Y-134489598D01*
X194081488Y-134531880D01*
X194151826Y-134585852D01*
X194297905Y-134646360D01*
X194454667Y-134666998D01*
X194611429Y-134646360D01*
X194757508Y-134585852D01*
X194882949Y-134489598D01*
X194979203Y-134364157D01*
X195039711Y-134218078D01*
X195060349Y-134061316D01*
X195039711Y-133904554D01*
X194979203Y-133758475D01*
X194882949Y-133633034D01*
X194857538Y-133613535D01*
X194818899Y-133583885D01*
X194784243Y-133533460D01*
X194780167Y-133505344D01*
X194780167Y-133437149D01*
X194799074Y-133378958D01*
X194809163Y-133367145D01*
X195660497Y-132515812D01*
X195715014Y-132488035D01*
X195730501Y-132486816D01*
X202978833Y-132486816D01*
X203037024Y-132505723D01*
X203048837Y-132515812D01*
X203950171Y-133417146D01*
X203977948Y-133471663D01*
X203979167Y-133487150D01*
X203979167Y-133555344D01*
X203960260Y-133613535D01*
X203940435Y-133633885D01*
X203876385Y-133683033D01*
X203780131Y-133808474D01*
X203719622Y-133954554D01*
X203698985Y-134111316D01*
X203719622Y-134268077D01*
X203780131Y-134414157D01*
X203876384Y-134539598D01*
X203938764Y-134587463D01*
X204001826Y-134635852D01*
X204147905Y-134696360D01*
X204304667Y-134716998D01*
X204461429Y-134696360D01*
X204607508Y-134635852D01*
X204732949Y-134539598D01*
X204829203Y-134414157D01*
X204889711Y-134268078D01*
X204910349Y-134111316D01*
X204889711Y-133954554D01*
X204829203Y-133808475D01*
X204732949Y-133683034D01*
X204732948Y-133683033D01*
X204668899Y-133633885D01*
X204634243Y-133583460D01*
X204630167Y-133555344D01*
X204630167Y-133329849D01*
X204630544Y-133321219D01*
X204633931Y-133282509D01*
X204623872Y-133244971D01*
X204622002Y-133236536D01*
X204621210Y-133232048D01*
X204615255Y-133198271D01*
X204614501Y-133196966D01*
X204604610Y-133173084D01*
X204604609Y-133173081D01*
X204604221Y-133171632D01*
X204581927Y-133139793D01*
X204577300Y-133132531D01*
X204557861Y-133098861D01*
X204528095Y-133073884D01*
X204521727Y-133068050D01*
X203397935Y-131944258D01*
X203392101Y-131937890D01*
X203367121Y-131908121D01*
X203333461Y-131888686D01*
X203326181Y-131884048D01*
X203294352Y-131861762D01*
X203292892Y-131861371D01*
X203269019Y-131851482D01*
X203267712Y-131850728D01*
X203267710Y-131850727D01*
X203267709Y-131850727D01*
X203229445Y-131843979D01*
X203221017Y-131842111D01*
X203183474Y-131832051D01*
X203147997Y-131835155D01*
X203144760Y-131835439D01*
X203136133Y-131835816D01*
X195573201Y-131835816D01*
X195564573Y-131835439D01*
X195560717Y-131835101D01*
X195525858Y-131832051D01*
X195488316Y-131842110D01*
X195479890Y-131843978D01*
X195441623Y-131850726D01*
X195440312Y-131851484D01*
X195416447Y-131861369D01*
X195414985Y-131861760D01*
X195383151Y-131884050D01*
X195375871Y-131888687D01*
X195342211Y-131908121D01*
X195317236Y-131937885D01*
X195311403Y-131944252D01*
X194237607Y-133018048D01*
X194231241Y-133023881D01*
X194201471Y-133048861D01*
X194182038Y-133082520D01*
X194177401Y-133089800D01*
X194155111Y-133121634D01*
X194154720Y-133123096D01*
X194144835Y-133146961D01*
X194144077Y-133148272D01*
X194137329Y-133186539D01*
X194135461Y-133194965D01*
X194125402Y-133232507D01*
X194128790Y-133271219D01*
X194129167Y-133279849D01*
X194129167Y-133505344D01*
X194110260Y-133563535D01*
X194090435Y-133583885D01*
X194026385Y-133633033D01*
X193930131Y-133758474D01*
X193869622Y-133904554D01*
X193848985Y-134061315D01*
X182076113Y-134061315D01*
X182226872Y-133980732D01*
X182386832Y-133849457D01*
X182518107Y-133689497D01*
X182615654Y-133507001D01*
X182675722Y-133308981D01*
X182696005Y-133103047D01*
X182675722Y-132897113D01*
X182615654Y-132699093D01*
X182518107Y-132516597D01*
X182386832Y-132356637D01*
X182226872Y-132225362D01*
X182044376Y-132127815D01*
X182044375Y-132127814D01*
X182044374Y-132127814D01*
X181846355Y-132067746D01*
X181640422Y-132047463D01*
X181434488Y-132067746D01*
X181236469Y-132127814D01*
X181053971Y-132225362D01*
X180894012Y-132356637D01*
X180762737Y-132516596D01*
X180665189Y-132699094D01*
X180605121Y-132897113D01*
X180584838Y-133103046D01*
X180000500Y-133103046D01*
X180000500Y-126002585D01*
X180000568Y-126000000D01*
X180594754Y-126000000D01*
X180613720Y-126301457D01*
X180614302Y-126304511D01*
X180614304Y-126304522D01*
X180669736Y-126595106D01*
X180670319Y-126598160D01*
X180671276Y-126601106D01*
X180671277Y-126601109D01*
X180762696Y-126882468D01*
X180762699Y-126882476D01*
X180763659Y-126885430D01*
X180892267Y-127158736D01*
X181054115Y-127413768D01*
X181056100Y-127416167D01*
X181244669Y-127644109D01*
X181244674Y-127644115D01*
X181246651Y-127646504D01*
X181466838Y-127853274D01*
X181469357Y-127855104D01*
X181633170Y-127974121D01*
X181711205Y-128030816D01*
X181975896Y-128176332D01*
X182256738Y-128287525D01*
X182549302Y-128362642D01*
X182848973Y-128400500D01*
X182852078Y-128400500D01*
X183147922Y-128400500D01*
X183151027Y-128400500D01*
X183450698Y-128362642D01*
X183743262Y-128287525D01*
X184024104Y-128176332D01*
X184288795Y-128030816D01*
X184533162Y-127853274D01*
X184753349Y-127646504D01*
X184945885Y-127413768D01*
X185107733Y-127158736D01*
X185236341Y-126885430D01*
X185329681Y-126598160D01*
X185386280Y-126301457D01*
X185405246Y-126000000D01*
X185386280Y-125698543D01*
X185329681Y-125401840D01*
X185236341Y-125114570D01*
X185107733Y-124841264D01*
X184945885Y-124586232D01*
X184774242Y-124378751D01*
X184755330Y-124355890D01*
X184755325Y-124355885D01*
X184753349Y-124353496D01*
X184579468Y-124190210D01*
X184535435Y-124148860D01*
X184535430Y-124148856D01*
X184533162Y-124146726D01*
X184509923Y-124129842D01*
X184291309Y-123971010D01*
X184291303Y-123971006D01*
X184288795Y-123969184D01*
X184232128Y-123938031D01*
X184072591Y-123850324D01*
X184024104Y-123823668D01*
X184021223Y-123822527D01*
X184021216Y-123822524D01*
X183808915Y-123738469D01*
X183743262Y-123712475D01*
X183740259Y-123711704D01*
X183740253Y-123711702D01*
X183453705Y-123638130D01*
X183453704Y-123638129D01*
X183450698Y-123637358D01*
X183447617Y-123636968D01*
X183447613Y-123636968D01*
X183154110Y-123599889D01*
X183154102Y-123599888D01*
X183151027Y-123599500D01*
X182848973Y-123599500D01*
X182845898Y-123599888D01*
X182845889Y-123599889D01*
X182552386Y-123636968D01*
X182552379Y-123636969D01*
X182549302Y-123637358D01*
X182546298Y-123638129D01*
X182546294Y-123638130D01*
X182259746Y-123711702D01*
X182259735Y-123711705D01*
X182256738Y-123712475D01*
X182253851Y-123713617D01*
X182253848Y-123713619D01*
X181978783Y-123822524D01*
X181978770Y-123822530D01*
X181975896Y-123823668D01*
X181973179Y-123825161D01*
X181973174Y-123825164D01*
X181713932Y-123967684D01*
X181713922Y-123967690D01*
X181711205Y-123969184D01*
X181708703Y-123971001D01*
X181708690Y-123971010D01*
X181469357Y-124144895D01*
X181469348Y-124144901D01*
X181466838Y-124146726D01*
X181464576Y-124148849D01*
X181464564Y-124148860D01*
X181284940Y-124317540D01*
X181246651Y-124353496D01*
X181244681Y-124355876D01*
X181244669Y-124355890D01*
X181056100Y-124583832D01*
X181054115Y-124586232D01*
X181052449Y-124588856D01*
X181052444Y-124588864D01*
X180893935Y-124838634D01*
X180893928Y-124838646D01*
X180892267Y-124841264D01*
X180890944Y-124844074D01*
X180890942Y-124844079D01*
X180794151Y-125049772D01*
X180763659Y-125114570D01*
X180762701Y-125117518D01*
X180762696Y-125117531D01*
X180671277Y-125398890D01*
X180671275Y-125398897D01*
X180670319Y-125401840D01*
X180669738Y-125404883D01*
X180669736Y-125404893D01*
X180614304Y-125695477D01*
X180614302Y-125695490D01*
X180613720Y-125698543D01*
X180594754Y-126000000D01*
X180000568Y-126000000D01*
X180000636Y-125997404D01*
X180007490Y-125866617D01*
X180017698Y-125684838D01*
X180018757Y-125674938D01*
X180042611Y-125524331D01*
X180069938Y-125363499D01*
X180071895Y-125354539D01*
X180112428Y-125203266D01*
X180156650Y-125049772D01*
X180159334Y-125041769D01*
X180215690Y-124894954D01*
X180216602Y-124892670D01*
X180276810Y-124747315D01*
X180280047Y-124740295D01*
X180351773Y-124599524D01*
X180353285Y-124596675D01*
X180429022Y-124459640D01*
X180432590Y-124453695D01*
X180518911Y-124320772D01*
X180521105Y-124317540D01*
X180611477Y-124190174D01*
X180615225Y-124185230D01*
X180715096Y-124061900D01*
X180718133Y-124058331D01*
X180822067Y-123942029D01*
X180825812Y-123938067D01*
X180938067Y-123825812D01*
X180942029Y-123822067D01*
X181058331Y-123718133D01*
X181061900Y-123715096D01*
X181185230Y-123615225D01*
X181190174Y-123611477D01*
X181317540Y-123521105D01*
X181320772Y-123518911D01*
X181453695Y-123432590D01*
X181459640Y-123429022D01*
X181596675Y-123353285D01*
X181599524Y-123351773D01*
X181740295Y-123280047D01*
X181747315Y-123276810D01*
X181892670Y-123216602D01*
X181894954Y-123215690D01*
X182041762Y-123159336D01*
X182049786Y-123156646D01*
X182203279Y-123112425D01*
X182354521Y-123071900D01*
X182363522Y-123069934D01*
X182524284Y-123042618D01*
X182674953Y-123018755D01*
X182684834Y-123017699D01*
X182866581Y-123007492D01*
X182994829Y-123000771D01*
X183005171Y-123000771D01*
X183133613Y-123007502D01*
G37*
%TD.AperFunction*%
%TD*%
M02*
