%TF.GenerationSoftware,KiCad,Pcbnew,7.0.2-0*%
%TF.CreationDate,2023-04-20T17:34:09-07:00*%
%TF.ProjectId,RagGuard_V1,52616747-7561-4726-945f-56312e6b6963,rev?*%
%TF.SameCoordinates,Original*%
%TF.FileFunction,Legend,Top*%
%TF.FilePolarity,Positive*%
%FSLAX46Y46*%
G04 Gerber Fmt 4.6, Leading zero omitted, Abs format (unit mm)*
G04 Created by KiCad (PCBNEW 7.0.2-0) date 2023-04-20 17:34:09*
%MOMM*%
%LPD*%
G01*
G04 APERTURE LIST*
%ADD10C,0.150000*%
%ADD11C,0.120000*%
G04 APERTURE END LIST*
D10*
X184100190Y-130844935D02*
X183766857Y-130368744D01*
X183528762Y-130844935D02*
X183528762Y-129844935D01*
X183528762Y-129844935D02*
X183909714Y-129844935D01*
X183909714Y-129844935D02*
X184004952Y-129892554D01*
X184004952Y-129892554D02*
X184052571Y-129940173D01*
X184052571Y-129940173D02*
X184100190Y-130035411D01*
X184100190Y-130035411D02*
X184100190Y-130178268D01*
X184100190Y-130178268D02*
X184052571Y-130273506D01*
X184052571Y-130273506D02*
X184004952Y-130321125D01*
X184004952Y-130321125D02*
X183909714Y-130368744D01*
X183909714Y-130368744D02*
X183528762Y-130368744D01*
X184957333Y-130844935D02*
X184957333Y-130321125D01*
X184957333Y-130321125D02*
X184909714Y-130225887D01*
X184909714Y-130225887D02*
X184814476Y-130178268D01*
X184814476Y-130178268D02*
X184624000Y-130178268D01*
X184624000Y-130178268D02*
X184528762Y-130225887D01*
X184957333Y-130797316D02*
X184862095Y-130844935D01*
X184862095Y-130844935D02*
X184624000Y-130844935D01*
X184624000Y-130844935D02*
X184528762Y-130797316D01*
X184528762Y-130797316D02*
X184481143Y-130702077D01*
X184481143Y-130702077D02*
X184481143Y-130606839D01*
X184481143Y-130606839D02*
X184528762Y-130511601D01*
X184528762Y-130511601D02*
X184624000Y-130463982D01*
X184624000Y-130463982D02*
X184862095Y-130463982D01*
X184862095Y-130463982D02*
X184957333Y-130416363D01*
X185862095Y-130178268D02*
X185862095Y-130987792D01*
X185862095Y-130987792D02*
X185814476Y-131083030D01*
X185814476Y-131083030D02*
X185766857Y-131130649D01*
X185766857Y-131130649D02*
X185671619Y-131178268D01*
X185671619Y-131178268D02*
X185528762Y-131178268D01*
X185528762Y-131178268D02*
X185433524Y-131130649D01*
X185862095Y-130797316D02*
X185766857Y-130844935D01*
X185766857Y-130844935D02*
X185576381Y-130844935D01*
X185576381Y-130844935D02*
X185481143Y-130797316D01*
X185481143Y-130797316D02*
X185433524Y-130749696D01*
X185433524Y-130749696D02*
X185385905Y-130654458D01*
X185385905Y-130654458D02*
X185385905Y-130368744D01*
X185385905Y-130368744D02*
X185433524Y-130273506D01*
X185433524Y-130273506D02*
X185481143Y-130225887D01*
X185481143Y-130225887D02*
X185576381Y-130178268D01*
X185576381Y-130178268D02*
X185766857Y-130178268D01*
X185766857Y-130178268D02*
X185862095Y-130225887D01*
X186862095Y-129892554D02*
X186766857Y-129844935D01*
X186766857Y-129844935D02*
X186624000Y-129844935D01*
X186624000Y-129844935D02*
X186481143Y-129892554D01*
X186481143Y-129892554D02*
X186385905Y-129987792D01*
X186385905Y-129987792D02*
X186338286Y-130083030D01*
X186338286Y-130083030D02*
X186290667Y-130273506D01*
X186290667Y-130273506D02*
X186290667Y-130416363D01*
X186290667Y-130416363D02*
X186338286Y-130606839D01*
X186338286Y-130606839D02*
X186385905Y-130702077D01*
X186385905Y-130702077D02*
X186481143Y-130797316D01*
X186481143Y-130797316D02*
X186624000Y-130844935D01*
X186624000Y-130844935D02*
X186719238Y-130844935D01*
X186719238Y-130844935D02*
X186862095Y-130797316D01*
X186862095Y-130797316D02*
X186909714Y-130749696D01*
X186909714Y-130749696D02*
X186909714Y-130416363D01*
X186909714Y-130416363D02*
X186719238Y-130416363D01*
X187766857Y-130178268D02*
X187766857Y-130844935D01*
X187338286Y-130178268D02*
X187338286Y-130702077D01*
X187338286Y-130702077D02*
X187385905Y-130797316D01*
X187385905Y-130797316D02*
X187481143Y-130844935D01*
X187481143Y-130844935D02*
X187624000Y-130844935D01*
X187624000Y-130844935D02*
X187719238Y-130797316D01*
X187719238Y-130797316D02*
X187766857Y-130749696D01*
X188671619Y-130844935D02*
X188671619Y-130321125D01*
X188671619Y-130321125D02*
X188624000Y-130225887D01*
X188624000Y-130225887D02*
X188528762Y-130178268D01*
X188528762Y-130178268D02*
X188338286Y-130178268D01*
X188338286Y-130178268D02*
X188243048Y-130225887D01*
X188671619Y-130797316D02*
X188576381Y-130844935D01*
X188576381Y-130844935D02*
X188338286Y-130844935D01*
X188338286Y-130844935D02*
X188243048Y-130797316D01*
X188243048Y-130797316D02*
X188195429Y-130702077D01*
X188195429Y-130702077D02*
X188195429Y-130606839D01*
X188195429Y-130606839D02*
X188243048Y-130511601D01*
X188243048Y-130511601D02*
X188338286Y-130463982D01*
X188338286Y-130463982D02*
X188576381Y-130463982D01*
X188576381Y-130463982D02*
X188671619Y-130416363D01*
X189147810Y-130844935D02*
X189147810Y-130178268D01*
X189147810Y-130368744D02*
X189195429Y-130273506D01*
X189195429Y-130273506D02*
X189243048Y-130225887D01*
X189243048Y-130225887D02*
X189338286Y-130178268D01*
X189338286Y-130178268D02*
X189433524Y-130178268D01*
X190195429Y-130844935D02*
X190195429Y-129844935D01*
X190195429Y-130797316D02*
X190100191Y-130844935D01*
X190100191Y-130844935D02*
X189909715Y-130844935D01*
X189909715Y-130844935D02*
X189814477Y-130797316D01*
X189814477Y-130797316D02*
X189766858Y-130749696D01*
X189766858Y-130749696D02*
X189719239Y-130654458D01*
X189719239Y-130654458D02*
X189719239Y-130368744D01*
X189719239Y-130368744D02*
X189766858Y-130273506D01*
X189766858Y-130273506D02*
X189814477Y-130225887D01*
X189814477Y-130225887D02*
X189909715Y-130178268D01*
X189909715Y-130178268D02*
X190100191Y-130178268D01*
X190100191Y-130178268D02*
X190195429Y-130225887D01*
X190909715Y-131178268D02*
X190909715Y-129749696D01*
X192195429Y-130844935D02*
X191862096Y-130368744D01*
X191624001Y-130844935D02*
X191624001Y-129844935D01*
X191624001Y-129844935D02*
X192004953Y-129844935D01*
X192004953Y-129844935D02*
X192100191Y-129892554D01*
X192100191Y-129892554D02*
X192147810Y-129940173D01*
X192147810Y-129940173D02*
X192195429Y-130035411D01*
X192195429Y-130035411D02*
X192195429Y-130178268D01*
X192195429Y-130178268D02*
X192147810Y-130273506D01*
X192147810Y-130273506D02*
X192100191Y-130321125D01*
X192100191Y-130321125D02*
X192004953Y-130368744D01*
X192004953Y-130368744D02*
X191624001Y-130368744D01*
X193004953Y-130797316D02*
X192909715Y-130844935D01*
X192909715Y-130844935D02*
X192719239Y-130844935D01*
X192719239Y-130844935D02*
X192624001Y-130797316D01*
X192624001Y-130797316D02*
X192576382Y-130702077D01*
X192576382Y-130702077D02*
X192576382Y-130321125D01*
X192576382Y-130321125D02*
X192624001Y-130225887D01*
X192624001Y-130225887D02*
X192719239Y-130178268D01*
X192719239Y-130178268D02*
X192909715Y-130178268D01*
X192909715Y-130178268D02*
X193004953Y-130225887D01*
X193004953Y-130225887D02*
X193052572Y-130321125D01*
X193052572Y-130321125D02*
X193052572Y-130416363D01*
X193052572Y-130416363D02*
X192576382Y-130511601D01*
X193385906Y-130178268D02*
X193624001Y-130844935D01*
X193624001Y-130844935D02*
X193862096Y-130178268D01*
X194766858Y-130844935D02*
X194195430Y-130844935D01*
X194481144Y-130844935D02*
X194481144Y-129844935D01*
X194481144Y-129844935D02*
X194385906Y-129987792D01*
X194385906Y-129987792D02*
X194290668Y-130083030D01*
X194290668Y-130083030D02*
X194195430Y-130130649D01*
D11*
%TO.C,C3*%
X195314667Y-133600064D02*
X195314667Y-135022568D01*
X193494667Y-133600064D02*
X193494667Y-135022568D01*
%TO.C,C4*%
X192814667Y-133600064D02*
X192814667Y-135022568D01*
X190994667Y-133600064D02*
X190994667Y-135022568D01*
%TO.C,C1*%
X197418415Y-135701316D02*
X198840919Y-135701316D01*
X197418415Y-137521316D02*
X198840919Y-137521316D01*
%TO.C,L1*%
X201664667Y-131471316D02*
X206944667Y-131471316D01*
X201664667Y-132416316D02*
X201664667Y-131471316D01*
X201664667Y-135806316D02*
X201664667Y-136751316D01*
X201664667Y-136751316D02*
X206944667Y-136751316D01*
X206944667Y-131471316D02*
X206944667Y-132416316D01*
X206944667Y-136751316D02*
X206944667Y-135806316D01*
%TO.C,R1*%
X195783720Y-142616380D02*
X195783720Y-141162252D01*
X197603720Y-142616380D02*
X197603720Y-141162252D01*
D10*
%TO.C,U1*%
X189347667Y-134313316D02*
X189142667Y-134313316D01*
X189347667Y-134313316D02*
X189347667Y-139813316D01*
X189142667Y-134313316D02*
X189142667Y-132563316D01*
X183837667Y-134313316D02*
X184137667Y-134313316D01*
X183837667Y-134313316D02*
X183837667Y-139813316D01*
X189347667Y-139813316D02*
X189047667Y-139813316D01*
X183837667Y-139813316D02*
X184137667Y-139813316D01*
D11*
%TO.C,U2*%
X198147167Y-132201316D02*
X196347167Y-132201316D01*
X198147167Y-132201316D02*
X198947167Y-132201316D01*
X198147167Y-135321316D02*
X197347167Y-135321316D01*
X198147167Y-135321316D02*
X198947167Y-135321316D01*
%TO.C,J1*%
X215335644Y-135402264D02*
X215975644Y-135402264D01*
X215975644Y-135402264D02*
X215975644Y-135002264D01*
X208995644Y-135162264D02*
X215735644Y-135162264D01*
X208995644Y-135162264D02*
X208995644Y-129382264D01*
X210115644Y-135162264D02*
X210115644Y-129382264D01*
X215215644Y-135162264D02*
X215215644Y-129382264D01*
X215735644Y-135162264D02*
X215735644Y-129382264D01*
X208995644Y-129382264D02*
X215735644Y-129382264D01*
%TO.C,C5*%
X187303919Y-144177604D02*
X185881415Y-144177604D01*
X187303919Y-142357604D02*
X185881415Y-142357604D01*
D10*
%TO.C,U3*%
X200275000Y-139000981D02*
X200275000Y-139050981D01*
X200275000Y-139000981D02*
X204425000Y-139000981D01*
X200275000Y-139050981D02*
X198875000Y-139050981D01*
X200275000Y-144150981D02*
X200275000Y-144005981D01*
X200275000Y-144150981D02*
X204425000Y-144150981D01*
X204425000Y-139000981D02*
X204425000Y-139145981D01*
X204425000Y-144150981D02*
X204425000Y-144005981D01*
D11*
%TO.C,C2*%
X198915919Y-131821316D02*
X197493415Y-131821316D01*
X198915919Y-130001316D02*
X197493415Y-130001316D01*
%TO.C,G\u002A\u002A\u002A*%
G36*
X190905117Y-139875513D02*
G01*
X190909571Y-139898584D01*
X190904096Y-139925249D01*
X190889602Y-139929662D01*
X190879131Y-139922092D01*
X190870689Y-139898961D01*
X190882661Y-139877883D01*
X190890003Y-139873888D01*
X190905117Y-139875513D01*
G37*
G36*
X192866428Y-139598123D02*
G01*
X192866428Y-139630737D01*
X192416351Y-139630737D01*
X191966274Y-139630737D01*
X191966274Y-139598123D01*
X191966274Y-139565509D01*
X192416351Y-139565509D01*
X192866428Y-139565509D01*
X192866428Y-139598123D01*
G37*
G36*
X193790332Y-141676760D02*
G01*
X193792674Y-141691190D01*
X193786683Y-141716164D01*
X193779628Y-141724574D01*
X193769954Y-141719955D01*
X193766582Y-141699253D01*
X193770954Y-141674370D01*
X193779628Y-141665868D01*
X193790332Y-141676760D01*
G37*
G36*
X193870948Y-140087337D02*
G01*
X193870948Y-140204749D01*
X193779628Y-140204749D01*
X193688308Y-140204749D01*
X193688308Y-140087337D01*
X193688308Y-139969926D01*
X193779628Y-139969926D01*
X193870948Y-139969926D01*
X193870948Y-140087337D01*
G37*
G36*
X193839755Y-141667048D02*
G01*
X193856070Y-141689268D01*
X193849773Y-141712882D01*
X193819852Y-141741247D01*
X193816607Y-141743675D01*
X193790916Y-141761678D01*
X193781531Y-141764132D01*
X193784378Y-141751780D01*
X193785327Y-141749390D01*
X193797370Y-141718262D01*
X193808475Y-141688281D01*
X193820276Y-141664309D01*
X193833064Y-141662388D01*
X193839755Y-141667048D01*
G37*
G36*
X193526199Y-141689842D02*
G01*
X193541497Y-141720323D01*
X193551581Y-141730009D01*
X193553911Y-141717987D01*
X193550162Y-141698483D01*
X193548490Y-141672863D01*
X193556436Y-141665868D01*
X193566909Y-141676808D01*
X193569505Y-141703371D01*
X193563784Y-141736171D01*
X193560195Y-141746281D01*
X193552020Y-141758779D01*
X193538708Y-141756226D01*
X193514091Y-141738183D01*
X193490237Y-141716266D01*
X193484787Y-141698763D01*
X193492853Y-141678482D01*
X193508853Y-141648587D01*
X193526199Y-141689842D01*
G37*
G36*
X193564523Y-140048372D02*
G01*
X193567052Y-140050384D01*
X193594997Y-140063014D01*
X193628393Y-140067769D01*
X193659988Y-140073250D01*
X193668739Y-140087337D01*
X193658840Y-140101874D01*
X193631018Y-140104197D01*
X193593192Y-140108719D01*
X193566148Y-140120504D01*
X193541313Y-140135971D01*
X193524687Y-140137107D01*
X193507885Y-140128120D01*
X193496328Y-140107796D01*
X193495423Y-140090601D01*
X193508820Y-140090601D01*
X193512616Y-140101072D01*
X193529338Y-140110693D01*
X193547250Y-140100942D01*
X193555546Y-140082995D01*
X193550105Y-140064417D01*
X193540009Y-140061246D01*
X193516299Y-140070202D01*
X193508820Y-140090601D01*
X193495423Y-140090601D01*
X193494839Y-140079510D01*
X193507855Y-140047484D01*
X193533182Y-140036258D01*
X193564523Y-140048372D01*
G37*
G36*
X191237685Y-141444445D02*
G01*
X191278546Y-141470880D01*
X191297148Y-141486631D01*
X191321518Y-141523935D01*
X191334800Y-141575938D01*
X191335433Y-141633050D01*
X191327265Y-141671693D01*
X191309275Y-141705771D01*
X191281577Y-141736629D01*
X191249161Y-141761493D01*
X191217014Y-141777593D01*
X191190124Y-141782155D01*
X191173480Y-141772408D01*
X191170486Y-141758819D01*
X191181389Y-141737326D01*
X191209615Y-141726532D01*
X191246912Y-141707222D01*
X191278173Y-141670244D01*
X191297490Y-141624024D01*
X191300894Y-141596375D01*
X191290874Y-141560998D01*
X191265755Y-141524863D01*
X191233070Y-141496225D01*
X191200355Y-141483334D01*
X191197580Y-141483228D01*
X191175106Y-141474512D01*
X191170486Y-141457137D01*
X191179378Y-141436578D01*
X191203203Y-141432680D01*
X191237685Y-141444445D01*
G37*
G36*
X194050485Y-140041091D02*
G01*
X194064024Y-140050809D01*
X194078790Y-140079276D01*
X194067611Y-140109519D01*
X194059179Y-140119020D01*
X194033939Y-140137340D01*
X194011652Y-140132742D01*
X193996591Y-140119797D01*
X193968330Y-140106093D01*
X193934198Y-140103489D01*
X193902663Y-140102194D01*
X193888501Y-140089286D01*
X193888098Y-140087894D01*
X194001294Y-140087894D01*
X194010374Y-140105003D01*
X194029262Y-140110288D01*
X194044626Y-140097449D01*
X194047065Y-140086429D01*
X194036221Y-140068781D01*
X194024235Y-140063729D01*
X194005921Y-140069328D01*
X194001294Y-140087894D01*
X193888098Y-140087894D01*
X193886434Y-140082154D01*
X193886334Y-140066232D01*
X193899532Y-140061640D01*
X193927519Y-140064895D01*
X193968579Y-140065562D01*
X193989149Y-140053772D01*
X194017856Y-140036772D01*
X194050485Y-140041091D01*
G37*
G36*
X194124481Y-139965144D02*
G01*
X194144569Y-139982362D01*
X194150697Y-140007984D01*
X194136858Y-140036841D01*
X194136677Y-140037041D01*
X194107545Y-140058637D01*
X194080961Y-140054684D01*
X194065691Y-140040541D01*
X194047949Y-140028430D01*
X194017058Y-140023409D01*
X193969512Y-140024234D01*
X193924484Y-140025488D01*
X193900068Y-140022223D01*
X193892143Y-140014522D01*
X194083301Y-140014522D01*
X194086202Y-140022109D01*
X194102722Y-140034946D01*
X194115868Y-140025307D01*
X194118816Y-140009063D01*
X194113672Y-139987859D01*
X194106541Y-139982972D01*
X194088356Y-139993289D01*
X194083301Y-140014522D01*
X193892143Y-140014522D01*
X193891022Y-140013433D01*
X193890516Y-140009063D01*
X193895666Y-139998038D01*
X193914655Y-139993149D01*
X193952793Y-139993347D01*
X193966290Y-139994089D01*
X194016238Y-139994680D01*
X194048313Y-139988127D01*
X194066460Y-139976606D01*
X194096442Y-139961502D01*
X194124481Y-139965144D01*
G37*
G36*
X193485459Y-139969371D02*
G01*
X193493565Y-139977585D01*
X193511306Y-139989696D01*
X193542197Y-139994717D01*
X193589744Y-139993892D01*
X193634772Y-139992638D01*
X193659188Y-139995903D01*
X193668234Y-140004693D01*
X193668739Y-140009063D01*
X193663682Y-140019936D01*
X193645016Y-140024945D01*
X193607499Y-140025097D01*
X193589744Y-140024234D01*
X193540375Y-140023501D01*
X193510238Y-140028828D01*
X193493565Y-140040541D01*
X193465973Y-140059612D01*
X193439135Y-140056628D01*
X193420948Y-140032880D01*
X193419663Y-140028462D01*
X193419549Y-140013852D01*
X193431021Y-140013852D01*
X193433660Y-140021694D01*
X193452723Y-140032538D01*
X193476290Y-140027507D01*
X193489365Y-140012331D01*
X193484760Y-139995438D01*
X193465804Y-139986164D01*
X193444027Y-139988821D01*
X193438090Y-139993148D01*
X193431021Y-140013852D01*
X193419549Y-140013852D01*
X193419382Y-139992603D01*
X193434438Y-139967922D01*
X193458556Y-139958738D01*
X193485459Y-139969371D01*
G37*
G36*
X191224832Y-141330534D02*
G01*
X191293964Y-141352457D01*
X191356859Y-141396919D01*
X191409002Y-141460423D01*
X191422289Y-141483451D01*
X191444386Y-141530243D01*
X191454168Y-141567986D01*
X191454420Y-141608911D01*
X191453408Y-141620208D01*
X191433815Y-141700320D01*
X191394332Y-141772120D01*
X191339004Y-141830244D01*
X191271881Y-141869324D01*
X191263120Y-141872515D01*
X191212414Y-141885695D01*
X191181162Y-141884287D01*
X191170486Y-141868340D01*
X191170486Y-141868325D01*
X191181731Y-141851918D01*
X191206361Y-141841376D01*
X191277337Y-141814202D01*
X191341303Y-141766851D01*
X191355979Y-141751519D01*
X191387479Y-141697958D01*
X191402424Y-141632315D01*
X191400572Y-141562867D01*
X191381686Y-141497894D01*
X191364198Y-141467412D01*
X191333832Y-141435757D01*
X191291643Y-141404722D01*
X191246649Y-141379846D01*
X191207870Y-141366664D01*
X191198692Y-141365817D01*
X191175300Y-141357575D01*
X191170486Y-141344531D01*
X191175121Y-141331451D01*
X191193257Y-141327624D01*
X191224832Y-141330534D01*
G37*
G36*
X193967900Y-140138063D02*
G01*
X194015474Y-140150960D01*
X194042025Y-140170391D01*
X194052550Y-140200956D01*
X194053388Y-140216767D01*
X194062250Y-140251875D01*
X194074739Y-140271726D01*
X194089041Y-140301883D01*
X194078113Y-140330117D01*
X194055231Y-140347372D01*
X194028988Y-140353701D01*
X194008834Y-140340771D01*
X193992037Y-140313322D01*
X194015334Y-140313322D01*
X194022793Y-140326154D01*
X194038756Y-140329188D01*
X194051420Y-140314261D01*
X194053588Y-140301822D01*
X194043128Y-140285198D01*
X194034019Y-140283023D01*
X194017609Y-140292751D01*
X194015334Y-140313322D01*
X193992037Y-140313322D01*
X193989978Y-140309958D01*
X193997083Y-140281366D01*
X194008594Y-140269424D01*
X194023318Y-140242109D01*
X194024901Y-140212383D01*
X194017642Y-140182869D01*
X193998481Y-140170332D01*
X193984309Y-140167930D01*
X193951349Y-140169521D01*
X193930595Y-140177875D01*
X193911626Y-140183830D01*
X193896714Y-140171742D01*
X193886248Y-140149163D01*
X193898706Y-140136119D01*
X193932431Y-140133394D01*
X193967900Y-140138063D01*
G37*
G36*
X192014652Y-142951573D02*
G01*
X192056057Y-142954566D01*
X192085517Y-142961179D01*
X192110095Y-142972739D01*
X192126377Y-142983246D01*
X192166867Y-143017610D01*
X192190179Y-143056964D01*
X192200042Y-143109269D01*
X192201097Y-143142678D01*
X192189920Y-143211807D01*
X192157517Y-143267044D01*
X192105580Y-143306968D01*
X192035800Y-143330159D01*
X191971204Y-143335719D01*
X191901045Y-143335719D01*
X191901045Y-143459654D01*
X191901045Y-143583588D01*
X191861676Y-143583588D01*
X191822307Y-143583588D01*
X191825801Y-143267229D01*
X191828646Y-143009577D01*
X191901045Y-143009577D01*
X191901045Y-143141649D01*
X191901045Y-143273722D01*
X191973644Y-143267701D01*
X192025381Y-143259772D01*
X192060897Y-143244106D01*
X192078797Y-143229126D01*
X192103645Y-143187813D01*
X192112714Y-143135997D01*
X192104923Y-143084734D01*
X192094977Y-143063729D01*
X192065581Y-143037878D01*
X192017839Y-143019121D01*
X191959110Y-143010083D01*
X191943444Y-143009649D01*
X191901045Y-143009577D01*
X191828646Y-143009577D01*
X191829294Y-142950871D01*
X191954238Y-142950871D01*
X192014652Y-142951573D01*
G37*
G36*
X193765649Y-140236239D02*
G01*
X193776800Y-140259431D01*
X193764118Y-140272856D01*
X193728075Y-140276239D01*
X193700990Y-140274025D01*
X193636125Y-140266343D01*
X193636125Y-140312424D01*
X193641729Y-140349428D01*
X193655694Y-140366015D01*
X193672151Y-140384029D01*
X193673253Y-140411957D01*
X193659607Y-140436962D01*
X193634413Y-140450727D01*
X193601020Y-140444286D01*
X193600249Y-140443977D01*
X193589397Y-140429116D01*
X193584567Y-140403660D01*
X193600000Y-140403660D01*
X193603511Y-140413480D01*
X193622425Y-140426411D01*
X193641638Y-140419856D01*
X193649171Y-140400434D01*
X193641345Y-140379282D01*
X193630372Y-140374343D01*
X193607433Y-140383407D01*
X193600000Y-140403660D01*
X193584567Y-140403660D01*
X193584446Y-140403023D01*
X193585838Y-140376906D01*
X193594015Y-140361972D01*
X193596988Y-140361297D01*
X193605814Y-140349878D01*
X193609984Y-140322008D01*
X193610034Y-140318246D01*
X193617199Y-140274872D01*
X193640522Y-140251033D01*
X193681785Y-140243886D01*
X193714772Y-140239782D01*
X193735825Y-140230287D01*
X193753116Y-140225615D01*
X193765649Y-140236239D01*
G37*
G36*
X193836107Y-140226973D02*
G01*
X193858033Y-140234947D01*
X193892427Y-140242589D01*
X193896596Y-140243286D01*
X193928009Y-140251273D01*
X193942060Y-140267486D01*
X193947021Y-140296219D01*
X193957091Y-140334422D01*
X193975501Y-140364228D01*
X193976374Y-140365067D01*
X193997553Y-140389743D01*
X193996737Y-140409730D01*
X193977548Y-140431027D01*
X193948697Y-140450235D01*
X193925086Y-140447075D01*
X193912694Y-140436962D01*
X193898698Y-140410355D01*
X193899403Y-140400434D01*
X193923131Y-140400434D01*
X193931288Y-140421683D01*
X193942699Y-140426526D01*
X193958636Y-140415650D01*
X193962268Y-140400434D01*
X193954111Y-140379186D01*
X193942699Y-140374343D01*
X193926763Y-140385219D01*
X193923131Y-140400434D01*
X193899403Y-140400434D01*
X193900664Y-140382671D01*
X193916608Y-140366015D01*
X193931408Y-140347139D01*
X193936176Y-140312424D01*
X193936176Y-140266343D01*
X193871311Y-140274025D01*
X193830308Y-140276246D01*
X193803762Y-140272447D01*
X193798437Y-140268748D01*
X193798410Y-140249548D01*
X193812346Y-140231550D01*
X193830938Y-140225077D01*
X193836107Y-140226973D01*
G37*
G36*
X194011832Y-139651574D02*
G01*
X194020083Y-139665735D01*
X194018102Y-139691652D01*
X193999923Y-139716378D01*
X193974160Y-139730654D01*
X193959677Y-139730646D01*
X193936749Y-139736297D01*
X193904765Y-139763848D01*
X193884151Y-139787098D01*
X193850364Y-139831024D01*
X193834658Y-139862350D01*
X193835504Y-139885680D01*
X193846329Y-139900951D01*
X193854482Y-139921371D01*
X193852082Y-139929652D01*
X193832790Y-139942365D01*
X193809541Y-139940760D01*
X193800767Y-139933330D01*
X193797449Y-139906257D01*
X193808276Y-139866606D01*
X193830288Y-139821501D01*
X193860523Y-139778064D01*
X193869667Y-139767596D01*
X193898412Y-139732497D01*
X193917820Y-139701308D01*
X193923131Y-139684809D01*
X193923764Y-139682920D01*
X193949222Y-139682920D01*
X193955825Y-139704332D01*
X193972052Y-139706528D01*
X193991460Y-139693664D01*
X193994882Y-139682920D01*
X193984037Y-139664500D01*
X193972052Y-139659312D01*
X193953560Y-139663850D01*
X193949222Y-139682920D01*
X193923764Y-139682920D01*
X193933181Y-139654830D01*
X193957324Y-139638116D01*
X193986545Y-139636440D01*
X194011832Y-139651574D01*
G37*
G36*
X191256521Y-141219244D02*
G01*
X191304750Y-141235464D01*
X191390212Y-141280091D01*
X191459160Y-141341447D01*
X191510799Y-141415647D01*
X191544337Y-141498804D01*
X191558979Y-141587031D01*
X191553931Y-141676441D01*
X191528401Y-141763149D01*
X191481594Y-141843266D01*
X191438554Y-141890747D01*
X191388385Y-141927858D01*
X191323937Y-141962229D01*
X191256858Y-141988185D01*
X191219407Y-141997502D01*
X191187333Y-142001492D01*
X191173386Y-141996364D01*
X191170486Y-141981274D01*
X191177203Y-141963253D01*
X191201249Y-141952903D01*
X191220820Y-141949558D01*
X191306033Y-141925382D01*
X191382798Y-141878478D01*
X191446988Y-141811850D01*
X191478722Y-141761838D01*
X191501595Y-141698753D01*
X191512806Y-141623985D01*
X191511664Y-141548603D01*
X191497479Y-141483681D01*
X191496265Y-141480527D01*
X191460589Y-141416485D01*
X191409299Y-141357975D01*
X191348334Y-141309598D01*
X191283630Y-141275956D01*
X191221125Y-141261651D01*
X191213584Y-141261451D01*
X191183202Y-141258139D01*
X191171495Y-141245422D01*
X191170486Y-141235360D01*
X191179759Y-141215143D01*
X191208152Y-141209771D01*
X191256521Y-141219244D01*
G37*
G36*
X193642839Y-139728561D02*
G01*
X193665540Y-139746329D01*
X193674541Y-139773716D01*
X193665620Y-139802755D01*
X193655694Y-139813377D01*
X193641403Y-139837581D01*
X193636125Y-139868356D01*
X193637263Y-139890788D01*
X193645047Y-139901769D01*
X193666028Y-139904578D01*
X193704615Y-139902634D01*
X193746042Y-139901540D01*
X193767090Y-139905986D01*
X193773101Y-139917139D01*
X193773105Y-139917564D01*
X193767852Y-139931964D01*
X193748888Y-139938073D01*
X193711407Y-139936838D01*
X193688360Y-139934281D01*
X193643204Y-139923729D01*
X193618765Y-139903054D01*
X193610248Y-139867598D01*
X193610034Y-139858210D01*
X193606454Y-139826283D01*
X193597759Y-139807407D01*
X193596988Y-139806854D01*
X193584180Y-139786055D01*
X193585186Y-139770784D01*
X193601761Y-139770784D01*
X193606040Y-139778943D01*
X193626780Y-139787423D01*
X193644908Y-139779626D01*
X193649171Y-139767717D01*
X193639123Y-139750413D01*
X193630372Y-139748149D01*
X193609019Y-139755371D01*
X193601761Y-139770784D01*
X193585186Y-139770784D01*
X193586047Y-139757701D01*
X193600434Y-139734173D01*
X193610660Y-139728381D01*
X193642839Y-139728561D01*
G37*
G36*
X193666568Y-140138966D02*
G01*
X193672359Y-140154937D01*
X193662542Y-140171742D01*
X193643690Y-140184543D01*
X193628660Y-140177875D01*
X193603750Y-140168752D01*
X193574947Y-140167930D01*
X193547212Y-140176521D01*
X193535572Y-140199297D01*
X193533947Y-140210152D01*
X193537684Y-140245584D01*
X193550255Y-140259722D01*
X193567378Y-140282025D01*
X193569125Y-140312867D01*
X193556002Y-140340086D01*
X193546607Y-140347287D01*
X193517309Y-140352244D01*
X193497892Y-140342425D01*
X193482565Y-140327306D01*
X193480948Y-140308099D01*
X193481388Y-140306666D01*
X193500539Y-140306666D01*
X193513114Y-140322833D01*
X193529503Y-140329129D01*
X193533237Y-140327769D01*
X193543858Y-140309835D01*
X193544805Y-140301822D01*
X193535077Y-140286017D01*
X193514513Y-140284024D01*
X193501432Y-140291607D01*
X193500539Y-140306666D01*
X193481388Y-140306666D01*
X193489567Y-140280037D01*
X193500619Y-140242796D01*
X193505816Y-140212179D01*
X193505868Y-140210345D01*
X193512634Y-140177121D01*
X193535304Y-140155173D01*
X193578389Y-140140685D01*
X193591356Y-140138063D01*
X193639015Y-140133080D01*
X193666568Y-140138966D01*
G37*
G36*
X192683788Y-142976962D02*
G01*
X192683788Y-143009577D01*
X192553331Y-143009577D01*
X192422874Y-143009577D01*
X192422874Y-143113942D01*
X192422874Y-143218308D01*
X192532992Y-143218308D01*
X192593185Y-143219567D01*
X192630958Y-143224255D01*
X192649902Y-143233738D01*
X192653606Y-143249385D01*
X192649820Y-143262791D01*
X192640703Y-143273340D01*
X192619933Y-143279722D01*
X192582499Y-143282821D01*
X192532367Y-143283537D01*
X192422874Y-143283537D01*
X192422874Y-143393953D01*
X192422874Y-143504369D01*
X192550070Y-143508103D01*
X192608378Y-143510053D01*
X192645426Y-143512680D01*
X192666033Y-143517362D01*
X192675022Y-143525476D01*
X192677212Y-143538401D01*
X192677265Y-143544451D01*
X192677265Y-143577065D01*
X192520442Y-143580704D01*
X192443882Y-143581407D01*
X192390857Y-143579265D01*
X192358951Y-143574103D01*
X192347586Y-143568311D01*
X192341806Y-143554236D01*
X192337436Y-143523612D01*
X192334359Y-143474260D01*
X192332459Y-143404006D01*
X192331619Y-143310675D01*
X192331554Y-143268949D01*
X192331907Y-143184573D01*
X192332893Y-143108279D01*
X192334406Y-143044188D01*
X192336338Y-142996419D01*
X192338583Y-142969093D01*
X192339472Y-142964984D01*
X192346547Y-142956327D01*
X192362708Y-142950421D01*
X192392096Y-142946780D01*
X192438854Y-142944919D01*
X192507122Y-142944352D01*
X192515590Y-142944348D01*
X192683788Y-142944348D01*
X192683788Y-142976962D01*
G37*
G36*
X192563809Y-138731734D02*
G01*
X192592206Y-138735872D01*
X192604182Y-138744026D01*
X192605514Y-138750152D01*
X192609825Y-138759277D01*
X192625619Y-138765136D01*
X192657187Y-138768371D01*
X192708822Y-138769628D01*
X192735971Y-138769720D01*
X192866428Y-138769720D01*
X192866428Y-138802335D01*
X192866428Y-138834949D01*
X192735971Y-138834949D01*
X192676241Y-138835412D01*
X192637964Y-138837347D01*
X192616512Y-138841573D01*
X192607254Y-138848908D01*
X192605514Y-138858012D01*
X192597370Y-138887906D01*
X192577110Y-138922835D01*
X192550990Y-138954606D01*
X192525266Y-138975026D01*
X192513532Y-138978452D01*
X192488714Y-138967406D01*
X192463395Y-138938963D01*
X192461549Y-138936053D01*
X192441866Y-138899700D01*
X192428530Y-138867190D01*
X192427712Y-138864302D01*
X192424194Y-138853718D01*
X192417521Y-138846044D01*
X192403957Y-138840811D01*
X192379765Y-138837553D01*
X192341211Y-138835802D01*
X192284558Y-138835090D01*
X192206072Y-138834950D01*
X192193160Y-138834949D01*
X191966274Y-138834949D01*
X191966274Y-138802335D01*
X191966274Y-138769720D01*
X192194574Y-138769720D01*
X192278100Y-138769434D01*
X192338922Y-138768383D01*
X192380425Y-138766275D01*
X192405994Y-138762822D01*
X192419011Y-138757733D01*
X192422860Y-138750719D01*
X192422874Y-138750152D01*
X192428244Y-138739520D01*
X192447555Y-138733435D01*
X192485604Y-138730869D01*
X192514194Y-138730583D01*
X192563809Y-138731734D01*
G37*
G36*
X193073713Y-143109593D02*
G01*
X193117880Y-143131395D01*
X193156415Y-143160223D01*
X193178182Y-143187955D01*
X193183827Y-143213526D01*
X193188336Y-143260055D01*
X193191363Y-143322420D01*
X193192564Y-143395498D01*
X193192571Y-143401562D01*
X193192571Y-143583588D01*
X193154444Y-143583588D01*
X193116318Y-143583588D01*
X193112046Y-143408798D01*
X193109796Y-143335833D01*
X193106760Y-143284231D01*
X193102255Y-143249264D01*
X193095601Y-143226205D01*
X193086117Y-143210327D01*
X193082922Y-143206590D01*
X193046041Y-143183610D01*
X193001155Y-143182294D01*
X192957389Y-143201402D01*
X192931593Y-143220803D01*
X192913818Y-143240679D01*
X192902566Y-143266211D01*
X192896333Y-143302578D01*
X192893619Y-143354960D01*
X192892934Y-143423778D01*
X192892605Y-143490537D01*
X192891475Y-143535509D01*
X192888713Y-143562996D01*
X192883487Y-143577302D01*
X192874968Y-143582732D01*
X192862324Y-143583588D01*
X192862079Y-143583588D01*
X192834682Y-143580216D01*
X192822942Y-143574891D01*
X192820103Y-143559602D01*
X192817652Y-143522635D01*
X192815752Y-143468403D01*
X192814568Y-143401319D01*
X192814245Y-143340068D01*
X192814245Y-143113942D01*
X192853382Y-143113942D01*
X192882170Y-143118153D01*
X192892198Y-143133529D01*
X192892519Y-143139277D01*
X192894098Y-143153448D01*
X192902693Y-143156015D01*
X192924093Y-143146313D01*
X192947964Y-143132912D01*
X192987417Y-143113868D01*
X193022878Y-143102474D01*
X193034246Y-143101054D01*
X193073713Y-143109593D01*
G37*
G36*
X191467666Y-142941055D02*
G01*
X191504764Y-142946822D01*
X191534957Y-142959072D01*
X191564935Y-142978244D01*
X191620286Y-143031747D01*
X191659380Y-143099684D01*
X191682457Y-143177211D01*
X191689754Y-143259484D01*
X191681510Y-143341656D01*
X191657963Y-143418883D01*
X191619352Y-143486320D01*
X191565914Y-143539122D01*
X191536460Y-143557142D01*
X191483951Y-143574489D01*
X191418619Y-143582914D01*
X191350944Y-143582196D01*
X191291406Y-143572116D01*
X191266548Y-143562810D01*
X191217745Y-143533023D01*
X191182427Y-143495454D01*
X191154083Y-143442383D01*
X191144264Y-143417815D01*
X191128138Y-143367480D01*
X191120714Y-143319640D01*
X191120568Y-143295067D01*
X191210640Y-143295067D01*
X191223745Y-143369701D01*
X191250760Y-143433282D01*
X191290578Y-143480126D01*
X191298835Y-143486217D01*
X191359298Y-143512820D01*
X191423973Y-143516477D01*
X191485525Y-143496941D01*
X191492841Y-143492731D01*
X191543559Y-143446813D01*
X191576705Y-143381687D01*
X191592224Y-143297479D01*
X191593480Y-143257445D01*
X191585014Y-143166365D01*
X191560762Y-143096042D01*
X191520731Y-143046485D01*
X191464931Y-143017706D01*
X191402462Y-143009577D01*
X191335706Y-143021479D01*
X191280880Y-143055634D01*
X191241169Y-143109707D01*
X191230579Y-143135362D01*
X191212549Y-143215060D01*
X191210640Y-143295067D01*
X191120568Y-143295067D01*
X191120370Y-143261935D01*
X191121296Y-143242795D01*
X191134460Y-143148049D01*
X191163177Y-143072390D01*
X191208888Y-143012959D01*
X191255257Y-142977276D01*
X191291849Y-142956478D01*
X191324500Y-142944855D01*
X191363443Y-142939960D01*
X191414093Y-142939301D01*
X191467666Y-142941055D01*
G37*
G36*
X193584555Y-142949366D02*
G01*
X193623253Y-142969600D01*
X193645772Y-142998598D01*
X193649171Y-143017279D01*
X193645767Y-143040759D01*
X193630813Y-143044422D01*
X193619818Y-143041604D01*
X193591290Y-143029822D01*
X193578072Y-143021156D01*
X193558187Y-143013969D01*
X193523313Y-143009911D01*
X193509582Y-143009577D01*
X193456924Y-143018506D01*
X193419817Y-143043270D01*
X193402204Y-143080835D01*
X193401302Y-143092928D01*
X193408266Y-143125322D01*
X193431187Y-143155937D01*
X193473107Y-143187689D01*
X193537068Y-143223490D01*
X193538282Y-143224110D01*
X193612035Y-143269374D01*
X193660639Y-143317616D01*
X193684963Y-143369855D01*
X193688308Y-143399979D01*
X193677412Y-143454778D01*
X193648933Y-143508949D01*
X193609185Y-143551570D01*
X193595288Y-143560888D01*
X193551506Y-143576085D01*
X193493925Y-143583233D01*
X193432689Y-143582352D01*
X193377940Y-143573462D01*
X193345327Y-143560411D01*
X193315916Y-143533348D01*
X193299479Y-143500779D01*
X193300291Y-143471761D01*
X193301982Y-143468566D01*
X193316751Y-143467086D01*
X193346636Y-143476446D01*
X193370650Y-143487393D01*
X193413689Y-143505546D01*
X193453945Y-143516689D01*
X193469390Y-143518359D01*
X193518690Y-143509757D01*
X193560965Y-143487225D01*
X193588043Y-143455678D01*
X193592150Y-143444539D01*
X193595171Y-143397374D01*
X193576878Y-143357748D01*
X193535355Y-143322592D01*
X193505668Y-143305925D01*
X193436622Y-143269231D01*
X193387805Y-143238403D01*
X193355066Y-143210018D01*
X193334252Y-143180654D01*
X193324071Y-143156241D01*
X193315399Y-143092722D01*
X193331825Y-143034326D01*
X193372474Y-142983730D01*
X193383613Y-142974644D01*
X193429207Y-142950536D01*
X193481750Y-142938906D01*
X193535460Y-142938826D01*
X193584555Y-142949366D01*
G37*
G36*
X192521338Y-139016339D02*
G01*
X192526077Y-139046766D01*
X192527240Y-139076295D01*
X192527240Y-139148046D01*
X192598991Y-139148046D01*
X192670742Y-139148046D01*
X192670742Y-139343732D01*
X192670742Y-139539417D01*
X192416002Y-139539417D01*
X192161262Y-139539417D01*
X192164077Y-139389392D01*
X192462011Y-139389392D01*
X192468534Y-139395915D01*
X192473588Y-139390861D01*
X192557815Y-139390861D01*
X192559854Y-139395915D01*
X192571577Y-139408360D01*
X192573669Y-139408960D01*
X192579273Y-139398867D01*
X192579422Y-139395915D01*
X192569393Y-139383370D01*
X192565607Y-139382869D01*
X192557815Y-139390861D01*
X192473588Y-139390861D01*
X192475057Y-139389392D01*
X192468534Y-139382869D01*
X192462011Y-139389392D01*
X192164077Y-139389392D01*
X192164872Y-139346993D01*
X192165314Y-139323416D01*
X192507613Y-139323416D01*
X192509000Y-139354661D01*
X192514819Y-139366341D01*
X192518403Y-139366246D01*
X192531983Y-139351383D01*
X192532458Y-139345906D01*
X192531511Y-139325731D01*
X192530842Y-139304595D01*
X192553331Y-139304595D01*
X192557782Y-139317301D01*
X192559084Y-139317640D01*
X192570222Y-139308499D01*
X192572900Y-139304595D01*
X192571865Y-139292573D01*
X192567147Y-139291549D01*
X192553862Y-139301019D01*
X192553331Y-139304595D01*
X192530842Y-139304595D01*
X192530313Y-139287902D01*
X192529196Y-139243715D01*
X192527575Y-139200909D01*
X192525190Y-139171641D01*
X192522552Y-139162123D01*
X192522497Y-139162179D01*
X192519386Y-139176861D01*
X192515398Y-139210902D01*
X192511286Y-139257617D01*
X192510399Y-139269490D01*
X192507613Y-139323416D01*
X192165314Y-139323416D01*
X192165762Y-139299541D01*
X192466495Y-139299541D01*
X192468534Y-139304595D01*
X192480257Y-139317040D01*
X192482349Y-139317640D01*
X192487953Y-139307547D01*
X192488102Y-139304595D01*
X192478073Y-139292050D01*
X192474287Y-139291549D01*
X192466495Y-139299541D01*
X192165762Y-139299541D01*
X192168482Y-139154569D01*
X192334815Y-139150918D01*
X192501148Y-139147266D01*
X192501148Y-139075905D01*
X192503304Y-139036733D01*
X192508862Y-139010813D01*
X192514194Y-139004543D01*
X192521338Y-139016339D01*
G37*
G36*
X190972969Y-141271563D02*
G01*
X190983586Y-141299594D01*
X190997664Y-141351318D01*
X191015459Y-141427616D01*
X191022935Y-141461774D01*
X191035523Y-141511190D01*
X191048861Y-141549275D01*
X191060597Y-141569588D01*
X191062828Y-141571071D01*
X191085151Y-141569762D01*
X191117513Y-141557818D01*
X191124311Y-141554344D01*
X191154527Y-141539827D01*
X191174782Y-141538496D01*
X191197497Y-141550133D01*
X191201872Y-141552975D01*
X191229471Y-141582308D01*
X191234949Y-141614427D01*
X191220642Y-141643043D01*
X191188890Y-141661865D01*
X191159895Y-141665868D01*
X191130280Y-141656358D01*
X191118303Y-141646300D01*
X191094615Y-141632630D01*
X191059930Y-141626736D01*
X191058925Y-141626731D01*
X191034069Y-141625254D01*
X191019427Y-141616648D01*
X191014344Y-141604886D01*
X191120312Y-141604886D01*
X191128832Y-141628716D01*
X191141133Y-141638732D01*
X191166052Y-141650778D01*
X191182178Y-141647601D01*
X191193968Y-141637168D01*
X191208661Y-141609151D01*
X191202945Y-141582404D01*
X191182905Y-141567827D01*
X191151657Y-141567128D01*
X191129357Y-141581919D01*
X191120312Y-141604886D01*
X191014344Y-141604886D01*
X191009923Y-141594656D01*
X191000939Y-141555207D01*
X190990738Y-141514571D01*
X190980128Y-141485369D01*
X190973922Y-141476163D01*
X190962344Y-141472318D01*
X190961754Y-141473420D01*
X190959319Y-141487262D01*
X190952654Y-141521786D01*
X190942717Y-141572101D01*
X190930468Y-141633318D01*
X190927703Y-141647045D01*
X190913752Y-141716890D01*
X190900656Y-141783657D01*
X190889848Y-141839953D01*
X190882764Y-141878389D01*
X190882568Y-141879510D01*
X190873290Y-141925499D01*
X190865344Y-141946569D01*
X190857831Y-141943797D01*
X190849913Y-141918538D01*
X190842238Y-141886882D01*
X190830603Y-141840193D01*
X190817838Y-141789803D01*
X190804935Y-141738634D01*
X190793664Y-141692787D01*
X190786563Y-141662607D01*
X190775838Y-141636598D01*
X190753510Y-141627361D01*
X190738772Y-141626731D01*
X190710717Y-141623305D01*
X190702589Y-141610648D01*
X190703323Y-141603901D01*
X190714153Y-141587912D01*
X190742260Y-141581506D01*
X190757997Y-141581071D01*
X190808275Y-141581071D01*
X190833704Y-141663908D01*
X190847154Y-141704879D01*
X190858036Y-141732873D01*
X190864008Y-141741871D01*
X190864027Y-141741853D01*
X190868691Y-141727401D01*
X190875861Y-141694803D01*
X190882565Y-141659015D01*
X190894961Y-141590784D01*
X190908810Y-141518762D01*
X190923110Y-141447686D01*
X190936861Y-141382292D01*
X190949061Y-141327318D01*
X190958709Y-141287501D01*
X190964803Y-141267578D01*
X190965554Y-141266348D01*
X190972969Y-141271563D01*
G37*
G36*
X193727445Y-141471291D02*
G01*
X193727321Y-141577491D01*
X193726825Y-141660603D01*
X193725774Y-141723627D01*
X193723983Y-141769566D01*
X193721269Y-141801421D01*
X193717446Y-141822195D01*
X193712331Y-141834889D01*
X193705740Y-141842506D01*
X193704615Y-141843394D01*
X193696413Y-141852098D01*
X193702464Y-141857384D01*
X193726490Y-141860098D01*
X193772214Y-141861081D01*
X193782889Y-141861139D01*
X193883993Y-141861554D01*
X193883993Y-141815894D01*
X193883993Y-141770234D01*
X193975313Y-141770234D01*
X194066633Y-141770234D01*
X194066633Y-141881123D01*
X194066633Y-141992011D01*
X193677436Y-141992011D01*
X193579165Y-141991730D01*
X193489428Y-141990935D01*
X193411519Y-141989698D01*
X193348732Y-141988091D01*
X193304360Y-141986187D01*
X193281697Y-141984056D01*
X193279542Y-141983314D01*
X193275430Y-141966977D01*
X193272367Y-141931520D01*
X193270899Y-141883908D01*
X193270845Y-141872425D01*
X193270845Y-141770234D01*
X193362165Y-141770234D01*
X193453485Y-141770234D01*
X193453485Y-141815894D01*
X193453485Y-141861554D01*
X193554589Y-141861139D01*
X193604532Y-141860500D01*
X193632205Y-141858436D01*
X193641427Y-141853959D01*
X193636016Y-141846079D01*
X193630318Y-141841532D01*
X193628127Y-141839506D01*
X193662216Y-141839506D01*
X193670158Y-141841670D01*
X193688308Y-141828940D01*
X193707797Y-141806907D01*
X193714399Y-141792282D01*
X193706458Y-141790118D01*
X193688308Y-141802848D01*
X193668818Y-141824881D01*
X193662216Y-141839506D01*
X193628127Y-141839506D01*
X193622705Y-141834491D01*
X193616775Y-141824217D01*
X193612310Y-141807638D01*
X193609092Y-141781684D01*
X193606904Y-141743281D01*
X193605797Y-141699888D01*
X193623079Y-141699888D01*
X193624308Y-141730032D01*
X193630316Y-141738663D01*
X193644592Y-141730329D01*
X193645731Y-141729433D01*
X193672537Y-141705011D01*
X193690957Y-141685437D01*
X193707209Y-141652129D01*
X193713612Y-141607356D01*
X193713612Y-141607163D01*
X193713693Y-141554980D01*
X193668386Y-141603710D01*
X193637678Y-141642958D01*
X193624556Y-141679100D01*
X193623079Y-141699888D01*
X193605797Y-141699888D01*
X193605528Y-141689359D01*
X193604747Y-141616844D01*
X193604342Y-141522667D01*
X193604245Y-141481657D01*
X193623079Y-141481657D01*
X193624883Y-141509236D01*
X193633417Y-141515969D01*
X193648502Y-141509678D01*
X193675871Y-141488270D01*
X193694162Y-141467179D01*
X193706427Y-141439784D01*
X193713141Y-141405984D01*
X193713682Y-141374819D01*
X193707429Y-141355328D01*
X193702017Y-141352771D01*
X193682427Y-141363801D01*
X193659809Y-141391393D01*
X193639214Y-141427299D01*
X193625694Y-141463272D01*
X193623079Y-141481657D01*
X193604245Y-141481657D01*
X193604226Y-141473406D01*
X193603551Y-141144040D01*
X193623079Y-141144040D01*
X193623432Y-141232098D01*
X193623785Y-141320157D01*
X193669092Y-141271427D01*
X193703367Y-141224938D01*
X193714399Y-141183369D01*
X193711873Y-141156948D01*
X193699017Y-141146111D01*
X193668739Y-141144040D01*
X193623079Y-141144040D01*
X193603551Y-141144040D01*
X193603511Y-141124471D01*
X193665478Y-141120495D01*
X193727445Y-141116519D01*
X193727445Y-141471291D01*
G37*
G36*
X191299821Y-139664004D02*
G01*
X191295793Y-139697534D01*
X191285288Y-139719448D01*
X191277222Y-139732187D01*
X191289789Y-139735103D01*
X191316425Y-139724306D01*
X191340652Y-139698913D01*
X191352909Y-139669417D01*
X191353125Y-139665586D01*
X191359534Y-139646837D01*
X191366171Y-139643783D01*
X191377922Y-139654271D01*
X191379217Y-139662285D01*
X191369570Y-139704382D01*
X191339812Y-139734409D01*
X191288715Y-139753014D01*
X191215054Y-139760844D01*
X191191634Y-139761194D01*
X191126736Y-139764492D01*
X191084089Y-139775378D01*
X191060578Y-139795340D01*
X191053085Y-139825866D01*
X191053074Y-139827355D01*
X191058566Y-139844783D01*
X191079512Y-139851776D01*
X191098734Y-139852514D01*
X191128914Y-139855791D01*
X191144000Y-139863848D01*
X191144394Y-139865560D01*
X191154961Y-139877134D01*
X191163963Y-139878606D01*
X191179899Y-139889482D01*
X191183531Y-139904697D01*
X191175374Y-139925946D01*
X191163963Y-139930789D01*
X191148211Y-139942108D01*
X191144394Y-139963013D01*
X191144394Y-139995238D01*
X191310727Y-139998889D01*
X191380832Y-140000910D01*
X191428683Y-140003706D01*
X191458114Y-140007814D01*
X191472961Y-140013768D01*
X191477060Y-140022104D01*
X191477060Y-140022109D01*
X191472957Y-140030461D01*
X191458087Y-140036423D01*
X191428607Y-140040531D01*
X191380678Y-140043326D01*
X191311395Y-140045323D01*
X191145731Y-140048970D01*
X191141801Y-140117075D01*
X191138378Y-140157081D01*
X191131532Y-140177979D01*
X191117417Y-140186747D01*
X191101996Y-140189308D01*
X191074976Y-140197780D01*
X191066287Y-140219011D01*
X191066120Y-140224725D01*
X191054320Y-140256843D01*
X191021350Y-140278161D01*
X190985442Y-140285373D01*
X190982658Y-140287315D01*
X191001932Y-140290403D01*
X191039285Y-140294061D01*
X191053074Y-140295157D01*
X191103404Y-140299724D01*
X191133299Y-140305259D01*
X191148394Y-140313747D01*
X191154325Y-140327172D01*
X191154966Y-140331027D01*
X191154210Y-140348655D01*
X191141474Y-140358997D01*
X191110682Y-140365870D01*
X191096260Y-140367929D01*
X191046103Y-140375480D01*
X191021601Y-140381122D01*
X191022878Y-140384810D01*
X191043709Y-140386359D01*
X191091259Y-140394393D01*
X191137364Y-140412912D01*
X191172210Y-140437368D01*
X191182481Y-140450655D01*
X191194544Y-140494204D01*
X191193933Y-140546519D01*
X191180890Y-140593695D01*
X191179961Y-140595580D01*
X191150762Y-140625349D01*
X191106410Y-140644250D01*
X191050793Y-140654687D01*
X191011023Y-140650097D01*
X190989708Y-140631063D01*
X190986816Y-140617536D01*
X190983674Y-140602126D01*
X190979114Y-140606179D01*
X190963483Y-140622884D01*
X190934912Y-140641957D01*
X190904888Y-140656593D01*
X190887389Y-140660522D01*
X190868159Y-140655422D01*
X190847604Y-140647896D01*
X190822504Y-140632965D01*
X190822414Y-140619831D01*
X190846257Y-140610200D01*
X190873696Y-140606654D01*
X190909482Y-140601814D01*
X190925760Y-140591835D01*
X190929140Y-140576551D01*
X190920502Y-140555208D01*
X190893264Y-140546332D01*
X190865955Y-140536556D01*
X190858311Y-140520774D01*
X190871466Y-140506614D01*
X190886741Y-140502446D01*
X190911284Y-140489486D01*
X190916094Y-140472186D01*
X190911365Y-140454306D01*
X190892385Y-140448695D01*
X190873696Y-140449405D01*
X190843454Y-140445739D01*
X190830030Y-140432914D01*
X190836642Y-140417001D01*
X190851933Y-140408353D01*
X190892711Y-140401620D01*
X190929961Y-140410052D01*
X190958821Y-140429487D01*
X190974428Y-140455760D01*
X190971921Y-140484709D01*
X190960244Y-140501091D01*
X190953688Y-140519224D01*
X190966767Y-140545741D01*
X190980584Y-140564134D01*
X190986476Y-140563355D01*
X190987823Y-140540439D01*
X190987846Y-140527271D01*
X190991584Y-140492366D01*
X191003743Y-140479081D01*
X191007414Y-140478709D01*
X191019720Y-140485692D01*
X191025731Y-140509868D01*
X191026983Y-140543937D01*
X191027741Y-140582540D01*
X191032981Y-140601788D01*
X191047148Y-140608419D01*
X191070034Y-140609166D01*
X191111039Y-140603129D01*
X191134447Y-140582302D01*
X191143792Y-140542606D01*
X191144394Y-140523357D01*
X191141015Y-140483353D01*
X191127346Y-140458380D01*
X191098090Y-140443461D01*
X191049026Y-140433777D01*
X191011268Y-140426799D01*
X190993494Y-140417707D01*
X190989656Y-140402646D01*
X190990320Y-140396372D01*
X190998014Y-140377788D01*
X191018854Y-140366530D01*
X191055680Y-140359328D01*
X191108352Y-140348926D01*
X191135807Y-140337370D01*
X191138782Y-140326157D01*
X191118016Y-140316784D01*
X191074248Y-140310749D01*
X191031014Y-140309314D01*
X190979087Y-140306451D01*
X190948869Y-140298745D01*
X190941678Y-140287055D01*
X190958834Y-140272240D01*
X190967541Y-140267939D01*
X190995361Y-140244306D01*
X191000891Y-140222223D01*
X190996212Y-140200298D01*
X190977072Y-140192327D01*
X190961754Y-140191703D01*
X190939380Y-140190498D01*
X190927735Y-140182602D01*
X190923315Y-140161593D01*
X190922617Y-140121049D01*
X190922617Y-140119952D01*
X190922617Y-140048200D01*
X190753023Y-140048200D01*
X190683787Y-140047979D01*
X190636483Y-140046888D01*
X190606954Y-140044289D01*
X190591041Y-140039542D01*
X190584587Y-140032006D01*
X190583429Y-140022109D01*
X190584867Y-140011457D01*
X190591954Y-140004180D01*
X190608848Y-139999637D01*
X190639708Y-139997188D01*
X190688690Y-139996196D01*
X190753023Y-139996017D01*
X190922617Y-139996017D01*
X190922617Y-139924266D01*
X190922617Y-139852514D01*
X190974800Y-139852514D01*
X191008442Y-139850711D01*
X191023394Y-139842300D01*
X191026969Y-139822781D01*
X191026983Y-139820408D01*
X191038409Y-139779474D01*
X191071628Y-139751167D01*
X191125050Y-139736539D01*
X191156638Y-139734688D01*
X191216040Y-139729349D01*
X191255633Y-139712393D01*
X191280102Y-139681195D01*
X191287572Y-139661331D01*
X191298700Y-139624214D01*
X191299821Y-139664004D01*
G37*
G36*
X192409828Y-139961242D02*
G01*
X192401383Y-139971736D01*
X192378611Y-139996785D01*
X192345351Y-140032220D01*
X192318763Y-140060063D01*
X192245679Y-140142880D01*
X192178416Y-140231994D01*
X192119854Y-140322613D01*
X192072872Y-140409944D01*
X192040348Y-140489196D01*
X192026154Y-140547114D01*
X192018483Y-140602643D01*
X192035235Y-140551773D01*
X192357645Y-140551773D01*
X192369506Y-140554667D01*
X192400918Y-140554207D01*
X192445629Y-140550890D01*
X192497385Y-140545213D01*
X192549932Y-140537672D01*
X192563039Y-140535452D01*
X192589492Y-140529267D01*
X192600242Y-140517785D01*
X192599896Y-140492727D01*
X192597226Y-140474009D01*
X192587817Y-140428005D01*
X192573601Y-140375117D01*
X192567161Y-140354774D01*
X192553148Y-140316659D01*
X192539433Y-140296785D01*
X192527146Y-140291873D01*
X192594392Y-140291873D01*
X192601512Y-140312395D01*
X192631740Y-140381073D01*
X192651544Y-140432985D01*
X192663217Y-140474146D01*
X192663339Y-140474701D01*
X192672465Y-140516248D01*
X192778714Y-140471438D01*
X192829069Y-140448980D01*
X192871498Y-140427831D01*
X192899114Y-140411506D01*
X192904197Y-140407393D01*
X192914307Y-140390196D01*
X192911484Y-140368053D01*
X192893956Y-140337178D01*
X192859952Y-140293786D01*
X192840350Y-140270940D01*
X192790005Y-140213196D01*
X192695592Y-140241580D01*
X192649426Y-140256026D01*
X192613841Y-140268222D01*
X192595526Y-140275854D01*
X192594629Y-140276513D01*
X192594392Y-140291873D01*
X192527146Y-140291873D01*
X192518618Y-140288464D01*
X192490577Y-140285534D01*
X192435920Y-140281523D01*
X192435920Y-140334828D01*
X192427482Y-140387751D01*
X192403952Y-140450843D01*
X192396782Y-140465663D01*
X192376884Y-140506281D01*
X192362793Y-140537335D01*
X192357645Y-140551773D01*
X192035235Y-140551773D01*
X192035980Y-140549510D01*
X192081129Y-140439014D01*
X192145722Y-140324158D01*
X192231329Y-140202363D01*
X192297559Y-140119952D01*
X192330395Y-140080814D01*
X192367388Y-140119952D01*
X192396743Y-140157363D01*
X192419995Y-140197526D01*
X192422115Y-140202408D01*
X192436724Y-140231018D01*
X192453261Y-140240134D01*
X192473733Y-140237224D01*
X192500362Y-140229457D01*
X192511963Y-140224374D01*
X192509958Y-140210236D01*
X192496497Y-140184020D01*
X192476376Y-140154060D01*
X192460384Y-140134768D01*
X192444700Y-140113854D01*
X192442382Y-140102617D01*
X192454745Y-140106353D01*
X192476132Y-140124791D01*
X192500283Y-140151489D01*
X192520938Y-140180004D01*
X192525777Y-140188441D01*
X192542497Y-140210557D01*
X192564764Y-140216102D01*
X192598923Y-140205570D01*
X192619817Y-140195740D01*
X192663218Y-140171784D01*
X192683643Y-140153198D01*
X192682908Y-140137219D01*
X192667137Y-140123708D01*
X192569998Y-140076244D01*
X192468534Y-140047315D01*
X192426688Y-140038074D01*
X192396547Y-140030717D01*
X192385686Y-140027280D01*
X192390263Y-140016586D01*
X192407607Y-139995403D01*
X192408787Y-139994129D01*
X192439603Y-139974198D01*
X192484370Y-139967658D01*
X192546014Y-139974479D01*
X192618559Y-139992080D01*
X192739955Y-140039656D01*
X192848776Y-140109197D01*
X192942923Y-140198774D01*
X193020296Y-140306456D01*
X193069772Y-140406957D01*
X193086260Y-140450309D01*
X193096980Y-140487917D01*
X193103128Y-140527656D01*
X193105905Y-140577398D01*
X193106508Y-140645018D01*
X193106504Y-140648303D01*
X193103063Y-140746276D01*
X193091475Y-140827263D01*
X193069334Y-140899729D01*
X193034235Y-140972138D01*
X192997388Y-141032379D01*
X192915071Y-141136138D01*
X192816841Y-141219229D01*
X192702866Y-141281523D01*
X192654980Y-141299880D01*
X192583283Y-141317933D01*
X192497162Y-141329849D01*
X192407741Y-141334784D01*
X192326146Y-141331894D01*
X192292417Y-141327371D01*
X192163768Y-141292207D01*
X192045905Y-141236119D01*
X191942167Y-141161283D01*
X191932983Y-141151553D01*
X192296946Y-141151553D01*
X192307304Y-141174106D01*
X192312666Y-141184537D01*
X192352946Y-141255622D01*
X192387705Y-141301993D01*
X192417487Y-141324309D01*
X192429465Y-141326680D01*
X192455645Y-141322727D01*
X192497998Y-141312282D01*
X192548068Y-141297470D01*
X192556020Y-141294905D01*
X192603025Y-141277966D01*
X192651795Y-141257839D01*
X192696246Y-141237372D01*
X192730298Y-141219419D01*
X192747868Y-141206827D01*
X192749017Y-141204455D01*
X192737074Y-141204015D01*
X192705639Y-141204098D01*
X192661307Y-141204597D01*
X192610670Y-141205406D01*
X192560320Y-141206418D01*
X192516851Y-141207527D01*
X192486855Y-141208625D01*
X192484841Y-141208731D01*
X192475878Y-141219751D01*
X192475057Y-141226815D01*
X192466115Y-141248104D01*
X192448965Y-141267974D01*
X192429293Y-141281790D01*
X192424460Y-141275067D01*
X192434700Y-141248888D01*
X192441872Y-141235360D01*
X192451275Y-141215525D01*
X192448343Y-141203069D01*
X192428586Y-141192383D01*
X192399012Y-141181805D01*
X192357820Y-141167249D01*
X192323868Y-141154566D01*
X192313928Y-141150551D01*
X192299090Y-141145409D01*
X192296946Y-141151553D01*
X191932983Y-141151553D01*
X191855894Y-141069878D01*
X191821259Y-141020106D01*
X191779825Y-140947977D01*
X191751552Y-140882405D01*
X191741472Y-140843710D01*
X192249428Y-140843710D01*
X192257440Y-140938492D01*
X192265117Y-141012836D01*
X192275719Y-141064898D01*
X192292597Y-141098482D01*
X192319106Y-141117393D01*
X192358598Y-141125439D01*
X192414426Y-141126422D01*
X192422874Y-141126234D01*
X192494625Y-141124471D01*
X192495031Y-141123293D01*
X192543170Y-141123293D01*
X192550653Y-141128696D01*
X192578088Y-141130287D01*
X192619705Y-141128612D01*
X192669731Y-141124216D01*
X192722395Y-141117644D01*
X192771924Y-141109442D01*
X192812547Y-141100155D01*
X192823397Y-141096815D01*
X192860516Y-141082587D01*
X192887258Y-141066018D01*
X192909580Y-141041174D01*
X192933440Y-141002116D01*
X192950662Y-140969980D01*
X192974707Y-140919450D01*
X192983159Y-140888035D01*
X192976089Y-140873985D01*
X192954487Y-140875284D01*
X192929515Y-140880069D01*
X192885565Y-140886399D01*
X192829631Y-140893323D01*
X192788154Y-140897903D01*
X192719153Y-140905297D01*
X192671969Y-140911121D01*
X192642460Y-140916431D01*
X192626485Y-140922278D01*
X192619900Y-140929717D01*
X192618564Y-140939801D01*
X192618559Y-140941035D01*
X192613509Y-140960819D01*
X192600561Y-140996176D01*
X192583020Y-141039116D01*
X192564193Y-141081650D01*
X192547382Y-141115787D01*
X192543170Y-141123293D01*
X192495031Y-141123293D01*
X192523825Y-141039674D01*
X192542971Y-140982760D01*
X192551819Y-140944341D01*
X192547306Y-140920125D01*
X192526369Y-140905821D01*
X192485946Y-140897135D01*
X192422973Y-140889778D01*
X192416351Y-140889062D01*
X192365011Y-140881157D01*
X192317046Y-140869946D01*
X192293752Y-140862145D01*
X192249428Y-140843710D01*
X191741472Y-140843710D01*
X191733866Y-140814514D01*
X191731510Y-140795243D01*
X192266325Y-140795243D01*
X192269229Y-140817157D01*
X192282693Y-140828471D01*
X192313846Y-140834319D01*
X192321770Y-140835176D01*
X192360268Y-140837582D01*
X192409733Y-140838543D01*
X192463361Y-140838212D01*
X192514348Y-140836739D01*
X192555890Y-140834278D01*
X192581182Y-140830980D01*
X192585432Y-140829281D01*
X192586818Y-140823800D01*
X192661575Y-140823800D01*
X192675861Y-140827200D01*
X192710188Y-140823618D01*
X192711591Y-140823413D01*
X192758484Y-140814790D01*
X192813605Y-140802238D01*
X192840337Y-140795270D01*
X192891068Y-140780176D01*
X192940207Y-140763840D01*
X192961009Y-140756125D01*
X192991450Y-140742079D01*
X193005638Y-140725553D01*
X193009737Y-140696804D01*
X193009931Y-140678755D01*
X193007563Y-140642418D01*
X193001505Y-140597039D01*
X192993326Y-140551386D01*
X192984595Y-140514224D01*
X192976927Y-140494376D01*
X192964879Y-140497682D01*
X192938302Y-140510630D01*
X192926272Y-140517206D01*
X192891918Y-140534115D01*
X192864881Y-140543353D01*
X192859951Y-140543937D01*
X192835860Y-140548933D01*
X192802073Y-140561120D01*
X192798381Y-140562709D01*
X192758433Y-140577950D01*
X192721905Y-140588503D01*
X192721482Y-140588592D01*
X192703989Y-140594003D01*
X192692995Y-140605148D01*
X192686114Y-140627890D01*
X192680960Y-140668090D01*
X192678498Y-140694214D01*
X192673214Y-140744524D01*
X192667539Y-140786066D01*
X192662599Y-140810729D01*
X192662084Y-140812235D01*
X192661575Y-140823800D01*
X192586818Y-140823800D01*
X192589200Y-140814382D01*
X192593978Y-140779992D01*
X192598903Y-140732643D01*
X192600336Y-140716237D01*
X192609265Y-140609166D01*
X192532377Y-140609052D01*
X192475118Y-140607486D01*
X192415641Y-140603629D01*
X192389224Y-140600976D01*
X192349918Y-140597182D01*
X192328451Y-140600001D01*
X192316828Y-140612389D01*
X192309508Y-140630442D01*
X192285795Y-140700244D01*
X192271883Y-140751300D01*
X192266494Y-140788484D01*
X192266325Y-140795243D01*
X191731510Y-140795243D01*
X191724199Y-140735431D01*
X191721004Y-140674052D01*
X191720101Y-140641780D01*
X192007954Y-140641780D01*
X192009364Y-140664060D01*
X192013448Y-140666021D01*
X192013968Y-140664858D01*
X192016549Y-140638960D01*
X192014452Y-140625721D01*
X192010299Y-140620401D01*
X192008040Y-140637729D01*
X192007954Y-140641780D01*
X191720101Y-140641780D01*
X191719146Y-140607657D01*
X191719692Y-140559353D01*
X191723763Y-140521168D01*
X191732478Y-140485134D01*
X191746958Y-140443279D01*
X191757213Y-140416372D01*
X191778051Y-140365593D01*
X191797833Y-140322974D01*
X191813266Y-140295430D01*
X191817207Y-140290451D01*
X191832597Y-140270929D01*
X191835817Y-140262443D01*
X191845421Y-140246091D01*
X191870557Y-140219320D01*
X191905708Y-140187127D01*
X191945356Y-140154513D01*
X191983984Y-140126474D01*
X191990678Y-140122124D01*
X192029016Y-140102653D01*
X192082352Y-140081596D01*
X192142073Y-140061705D01*
X192199564Y-140045735D01*
X192246211Y-140036439D01*
X192262731Y-140035154D01*
X192282751Y-140025882D01*
X192307869Y-140003143D01*
X192311501Y-139998972D01*
X192341433Y-139973540D01*
X192373364Y-139960277D01*
X192375887Y-139959981D01*
X192401010Y-139959243D01*
X192409828Y-139961242D01*
G37*
G36*
X192472127Y-137688306D02*
G01*
X192553910Y-137689608D01*
X192617178Y-137691860D01*
X192665718Y-137695291D01*
X192703315Y-137700132D01*
X192733757Y-137706613D01*
X192748555Y-137710878D01*
X192819846Y-137733235D01*
X192849191Y-137826934D01*
X192863384Y-137878724D01*
X192879201Y-137946763D01*
X192894531Y-138021479D01*
X192905255Y-138081001D01*
X192919040Y-138159657D01*
X192935089Y-138244953D01*
X192951100Y-138324919D01*
X192961168Y-138371826D01*
X192990362Y-138502283D01*
X193101251Y-138557428D01*
X193167756Y-138588414D01*
X193242802Y-138620213D01*
X193311983Y-138646771D01*
X193323028Y-138650640D01*
X193378826Y-138670104D01*
X193430346Y-138688612D01*
X193468798Y-138702991D01*
X193477041Y-138706256D01*
X193495989Y-138712770D01*
X193514527Y-138714748D01*
X193536087Y-138710623D01*
X193564098Y-138698829D01*
X193601992Y-138677799D01*
X193653200Y-138645966D01*
X193721152Y-138601763D01*
X193755737Y-138578982D01*
X193806051Y-138546187D01*
X193848183Y-138519479D01*
X193877532Y-138501725D01*
X193889343Y-138495760D01*
X193903031Y-138488392D01*
X193929881Y-138469834D01*
X193962849Y-138445402D01*
X193994892Y-138420416D01*
X194018968Y-138400193D01*
X194027496Y-138391446D01*
X194041341Y-138379609D01*
X194070393Y-138359178D01*
X194098540Y-138340843D01*
X194155405Y-138310285D01*
X194201536Y-138300263D01*
X194243071Y-138311412D01*
X194286148Y-138344366D01*
X194303546Y-138362042D01*
X194335841Y-138395248D01*
X194381301Y-138440406D01*
X194433995Y-138491688D01*
X194487989Y-138543269D01*
X194490255Y-138545410D01*
X194547843Y-138601537D01*
X194607499Y-138662606D01*
X194661878Y-138720942D01*
X194700942Y-138765607D01*
X194738335Y-138811118D01*
X194761233Y-138841697D01*
X194771996Y-138862328D01*
X194772980Y-138878000D01*
X194766544Y-138893698D01*
X194763834Y-138898597D01*
X194740897Y-138936898D01*
X194706017Y-138991970D01*
X194662190Y-139059191D01*
X194612410Y-139133938D01*
X194587425Y-139170920D01*
X194521388Y-139268398D01*
X194468849Y-139347201D01*
X194428668Y-139410253D01*
X194399704Y-139460478D01*
X194380816Y-139500799D01*
X194370866Y-139534140D01*
X194368711Y-139563424D01*
X194373212Y-139591577D01*
X194383229Y-139621519D01*
X194397620Y-139656177D01*
X194397898Y-139656829D01*
X194421425Y-139712807D01*
X194446495Y-139773640D01*
X194457308Y-139800332D01*
X194496611Y-139894027D01*
X194531375Y-139966059D01*
X194564196Y-140019861D01*
X194597674Y-140058866D01*
X194634407Y-140086508D01*
X194676990Y-140106220D01*
X194692828Y-140111587D01*
X194722088Y-140118962D01*
X194771040Y-140129290D01*
X194833617Y-140141369D01*
X194903752Y-140153997D01*
X194927650Y-140158102D01*
X195058607Y-140181347D01*
X195165722Y-140202597D01*
X195248388Y-140221717D01*
X195305997Y-140238573D01*
X195325568Y-140246270D01*
X195358159Y-140261120D01*
X195358159Y-140662379D01*
X195358159Y-141063638D01*
X195276623Y-141089212D01*
X195217907Y-141105562D01*
X195150510Y-141121357D01*
X195103768Y-141130514D01*
X195066824Y-141136983D01*
X195023240Y-141144837D01*
X194969634Y-141154708D01*
X194902625Y-141167225D01*
X194818833Y-141183018D01*
X194714878Y-141202717D01*
X194639510Y-141217036D01*
X194616575Y-141227163D01*
X194596028Y-141251398D01*
X194573368Y-141295145D01*
X194572120Y-141297896D01*
X194540442Y-141369003D01*
X194516894Y-141424748D01*
X194498226Y-141473249D01*
X194481186Y-141522621D01*
X194477091Y-141535152D01*
X194457239Y-141591405D01*
X194433627Y-141651626D01*
X194423345Y-141675765D01*
X194399387Y-141745023D01*
X194394626Y-141806749D01*
X194409911Y-141867586D01*
X194446091Y-141934176D01*
X194458760Y-141952874D01*
X194474831Y-141976684D01*
X194501209Y-142016653D01*
X194534091Y-142066989D01*
X194566073Y-142116319D01*
X194601071Y-142169267D01*
X194632847Y-142215110D01*
X194657772Y-142248749D01*
X194671704Y-142264681D01*
X194688952Y-142283974D01*
X194692828Y-142293940D01*
X194699446Y-142311196D01*
X194716106Y-142340819D01*
X194724648Y-142354309D01*
X194751434Y-142398231D01*
X194764923Y-142432885D01*
X194764029Y-142464269D01*
X194747665Y-142498380D01*
X194714745Y-142541216D01*
X194684498Y-142575968D01*
X194574441Y-142695280D01*
X194461944Y-142808329D01*
X194352233Y-142910089D01*
X194250533Y-142995539D01*
X194237250Y-143005900D01*
X194223509Y-143016024D01*
X194211380Y-143019751D01*
X194194683Y-143015563D01*
X194167241Y-143001943D01*
X194124304Y-142978171D01*
X194080169Y-142952130D01*
X194023214Y-142916387D01*
X193958193Y-142874158D01*
X193889861Y-142828656D01*
X193822975Y-142783097D01*
X193762289Y-142740696D01*
X193712558Y-142704667D01*
X193678538Y-142678224D01*
X193671391Y-142671986D01*
X193633055Y-142647467D01*
X193587651Y-142640641D01*
X193531622Y-142651768D01*
X193461411Y-142681107D01*
X193446962Y-142688357D01*
X193390576Y-142713867D01*
X193340350Y-142730455D01*
X193309032Y-142735373D01*
X193287378Y-142734475D01*
X193270770Y-142728710D01*
X193255296Y-142713868D01*
X193237043Y-142685739D01*
X193212096Y-142640114D01*
X193201052Y-142619220D01*
X193171221Y-142560282D01*
X193143261Y-142500938D01*
X193121555Y-142450652D01*
X193114932Y-142433318D01*
X193101732Y-142398389D01*
X193080010Y-142343397D01*
X193051399Y-142272314D01*
X193017531Y-142189111D01*
X192980041Y-142097758D01*
X192940560Y-142002228D01*
X192900723Y-141906492D01*
X192862162Y-141814520D01*
X192826510Y-141730284D01*
X192808229Y-141687515D01*
X192783067Y-141624975D01*
X192761731Y-141564623D01*
X192746756Y-141514079D01*
X192741000Y-141485306D01*
X192734494Y-141424523D01*
X192800247Y-141380651D01*
X192921282Y-141284347D01*
X193027124Y-141167586D01*
X193116315Y-141032094D01*
X193150558Y-140965625D01*
X193199057Y-140863557D01*
X193199075Y-140654826D01*
X193199094Y-140446094D01*
X193145192Y-140335206D01*
X193098296Y-140250999D01*
X193042746Y-140170815D01*
X192984069Y-140101950D01*
X192934090Y-140056399D01*
X192908369Y-140036145D01*
X192893043Y-140023093D01*
X192892519Y-140022558D01*
X192873704Y-140009036D01*
X192837949Y-139988278D01*
X192791988Y-139964016D01*
X192749017Y-139943000D01*
X192667698Y-139911750D01*
X192573956Y-139886620D01*
X192479869Y-139870359D01*
X192408383Y-139865560D01*
X192262144Y-139877609D01*
X192126502Y-139913089D01*
X192002898Y-139970996D01*
X191892773Y-140050331D01*
X191797567Y-140150089D01*
X191718722Y-140269271D01*
X191667259Y-140380866D01*
X191648532Y-140431053D01*
X191635822Y-140471417D01*
X191627935Y-140509418D01*
X191623677Y-140552518D01*
X191621857Y-140608179D01*
X191621347Y-140667871D01*
X191621307Y-140738125D01*
X191622781Y-140789829D01*
X191627022Y-140830526D01*
X191635279Y-140867758D01*
X191648807Y-140909064D01*
X191668856Y-140961987D01*
X191671157Y-140967923D01*
X191721752Y-141098380D01*
X191902719Y-141275528D01*
X191958808Y-141331359D01*
X192007823Y-141381919D01*
X192046884Y-141424089D01*
X192073106Y-141454749D01*
X192083610Y-141470780D01*
X192083685Y-141471397D01*
X192079246Y-141493216D01*
X192067781Y-141530033D01*
X192056350Y-141561687D01*
X192035567Y-141618119D01*
X192014104Y-141679434D01*
X192005476Y-141705224D01*
X191986687Y-141758437D01*
X191965444Y-141812623D01*
X191955525Y-141835681D01*
X191935152Y-141881731D01*
X191908538Y-141943261D01*
X191877570Y-142015765D01*
X191844139Y-142094734D01*
X191810132Y-142175662D01*
X191777438Y-142254042D01*
X191747947Y-142325366D01*
X191723546Y-142385127D01*
X191706126Y-142428818D01*
X191698754Y-142448397D01*
X191682592Y-142489743D01*
X191666242Y-142524339D01*
X191661061Y-142533195D01*
X191647849Y-142560282D01*
X191632343Y-142601700D01*
X191622828Y-142631855D01*
X191605367Y-142677918D01*
X191583357Y-142717674D01*
X191569782Y-142734299D01*
X191544348Y-142753962D01*
X191520292Y-142756985D01*
X191494361Y-142750002D01*
X191460553Y-142735618D01*
X191415233Y-142712308D01*
X191372694Y-142687787D01*
X191309079Y-142654644D01*
X191256775Y-142641472D01*
X191210973Y-142647727D01*
X191176748Y-142665687D01*
X191147755Y-142685311D01*
X191104912Y-142714052D01*
X191056119Y-142746613D01*
X191041474Y-142756354D01*
X190989158Y-142791212D01*
X190924676Y-142834311D01*
X190857499Y-142879316D01*
X190814380Y-142908267D01*
X190759110Y-142943689D01*
X190707372Y-142973769D01*
X190665239Y-142995157D01*
X190640180Y-143004281D01*
X190617524Y-143006630D01*
X190596758Y-143002081D01*
X190572176Y-142987598D01*
X190538068Y-142960143D01*
X190508336Y-142934123D01*
X190468023Y-142897115D01*
X190418668Y-142849833D01*
X190363204Y-142795300D01*
X190304564Y-142736537D01*
X190245682Y-142676567D01*
X190189491Y-142618412D01*
X190138925Y-142565093D01*
X190096917Y-142519633D01*
X190066400Y-142485053D01*
X190050309Y-142464375D01*
X190048554Y-142460466D01*
X190055153Y-142440897D01*
X190072772Y-142405246D01*
X190098145Y-142359266D01*
X190128005Y-142308708D01*
X190159088Y-142259323D01*
X190182137Y-142225236D01*
X190249896Y-142129118D01*
X190304131Y-142051790D01*
X190346340Y-141990708D01*
X190378022Y-141943328D01*
X190400673Y-141907106D01*
X190415793Y-141879500D01*
X190424879Y-141857965D01*
X190429429Y-141839958D01*
X190430942Y-141822935D01*
X190430914Y-141804352D01*
X190430892Y-141802848D01*
X190423067Y-141744148D01*
X190400247Y-141672988D01*
X190382754Y-141631141D01*
X190361686Y-141582287D01*
X190345466Y-141542169D01*
X190336544Y-141516955D01*
X190335560Y-141512207D01*
X190331129Y-141493750D01*
X190319790Y-141460130D01*
X190310744Y-141436047D01*
X190292430Y-141388742D01*
X190274979Y-141343217D01*
X190269065Y-141327626D01*
X190245538Y-141284339D01*
X190212300Y-141245808D01*
X190176183Y-141218615D01*
X190146216Y-141209268D01*
X190122009Y-141206569D01*
X190078940Y-141199263D01*
X190023584Y-141188539D01*
X189975295Y-141178388D01*
X189902550Y-141163288D01*
X189824881Y-141148330D01*
X189754263Y-141135774D01*
X189723568Y-141130834D01*
X189662305Y-141119756D01*
X189601498Y-141105846D01*
X189553003Y-141091857D01*
X189547635Y-141089963D01*
X189510345Y-141076546D01*
X189484808Y-141067759D01*
X189477989Y-141065766D01*
X189477145Y-141053239D01*
X189476377Y-141017732D01*
X189475709Y-140962358D01*
X189475169Y-140890228D01*
X189474781Y-140804455D01*
X189474572Y-140708150D01*
X189474568Y-140701428D01*
X189621195Y-140701428D01*
X189621914Y-140736225D01*
X189622088Y-140738419D01*
X189630381Y-140809375D01*
X189642404Y-140859310D01*
X189660574Y-140893263D01*
X189687309Y-140916270D01*
X189713537Y-140929014D01*
X189748162Y-140939902D01*
X189804528Y-140954008D01*
X189878599Y-140970494D01*
X189966341Y-140988524D01*
X190063719Y-141007262D01*
X190166700Y-141025871D01*
X190244454Y-141039118D01*
X190342511Y-141055368D01*
X190384088Y-141155148D01*
X190407559Y-141213259D01*
X190435123Y-141284173D01*
X190462219Y-141356078D01*
X190472962Y-141385386D01*
X190515041Y-141496898D01*
X190555469Y-141593436D01*
X190598730Y-141685383D01*
X190623976Y-141735105D01*
X190663277Y-141810864D01*
X190615605Y-141897591D01*
X190588531Y-141945081D01*
X190562540Y-141987725D01*
X190543062Y-142016629D01*
X190542384Y-142017518D01*
X190508603Y-142063619D01*
X190469979Y-142119863D01*
X190429156Y-142181974D01*
X190388778Y-142245675D01*
X190351487Y-142306690D01*
X190319926Y-142360743D01*
X190296739Y-142403558D01*
X190284569Y-142430858D01*
X190283377Y-142436547D01*
X190292278Y-142449709D01*
X190316588Y-142477203D01*
X190352722Y-142515478D01*
X190397092Y-142560979D01*
X190446111Y-142610154D01*
X190496193Y-142659451D01*
X190543752Y-142705316D01*
X190585199Y-142744197D01*
X190616949Y-142772540D01*
X190635415Y-142786794D01*
X190637984Y-142787799D01*
X190658312Y-142782276D01*
X190678868Y-142773060D01*
X190703989Y-142758399D01*
X190744876Y-142732659D01*
X190797573Y-142698501D01*
X190858125Y-142658587D01*
X190922578Y-142615578D01*
X190986977Y-142572134D01*
X191047366Y-142530917D01*
X191099790Y-142494587D01*
X191140295Y-142465806D01*
X191164925Y-142447236D01*
X191170120Y-142442529D01*
X191200238Y-142425276D01*
X191246444Y-142427255D01*
X191309365Y-142448522D01*
X191327034Y-142456508D01*
X191382981Y-142482708D01*
X191420324Y-142498340D01*
X191444295Y-142503446D01*
X191460128Y-142498066D01*
X191473057Y-142482240D01*
X191487311Y-142457746D01*
X191511022Y-142412747D01*
X191543609Y-142344675D01*
X191585239Y-142253165D01*
X191636082Y-142137851D01*
X191659748Y-142083331D01*
X191677936Y-142039241D01*
X191701159Y-141980088D01*
X191725716Y-141915392D01*
X191738367Y-141881123D01*
X191759208Y-141824372D01*
X191777715Y-141774662D01*
X191791467Y-141738460D01*
X191796986Y-141724574D01*
X191810284Y-141690302D01*
X191825861Y-141646189D01*
X191841194Y-141599951D01*
X191853759Y-141559303D01*
X191861033Y-141531961D01*
X191861908Y-141526040D01*
X191853558Y-141511392D01*
X191830826Y-141482000D01*
X191797192Y-141442141D01*
X191756465Y-141396451D01*
X191658407Y-141282768D01*
X191581130Y-141177666D01*
X191522737Y-141076821D01*
X191481333Y-140975914D01*
X191455018Y-140870621D01*
X191441898Y-140756622D01*
X191439545Y-140674394D01*
X191447087Y-140530028D01*
X191471309Y-140400003D01*
X191514231Y-140277076D01*
X191577875Y-140154003D01*
X191590594Y-140133039D01*
X191621113Y-140091115D01*
X191665152Y-140039927D01*
X191717319Y-139984840D01*
X191772222Y-139931217D01*
X191824470Y-139884420D01*
X191868671Y-139849813D01*
X191886929Y-139838281D01*
X191928899Y-139814927D01*
X191969157Y-139791954D01*
X191972797Y-139789833D01*
X192064737Y-139747470D01*
X192174118Y-139715744D01*
X192294083Y-139695791D01*
X192417771Y-139688749D01*
X192538323Y-139695753D01*
X192539520Y-139695902D01*
X192686103Y-139724637D01*
X192819765Y-139773518D01*
X192944213Y-139844364D01*
X193063155Y-139938992D01*
X193093832Y-139967907D01*
X193190266Y-140073849D01*
X193264892Y-140184326D01*
X193319135Y-140302946D01*
X193354423Y-140433314D01*
X193372183Y-140579037D01*
X193375018Y-140678509D01*
X193370413Y-140796891D01*
X193355823Y-140899108D01*
X193329574Y-140993725D01*
X193298155Y-141071692D01*
X193268873Y-141129542D01*
X193231874Y-141189493D01*
X193184647Y-141254882D01*
X193124684Y-141329050D01*
X193049475Y-141415335D01*
X192993792Y-141476705D01*
X192971084Y-141504186D01*
X192958622Y-141524593D01*
X192957808Y-141528020D01*
X192961816Y-141545880D01*
X192972210Y-141580558D01*
X192986448Y-141624354D01*
X193001986Y-141669570D01*
X193016282Y-141708506D01*
X193022743Y-141724574D01*
X193032089Y-141747515D01*
X193048260Y-141788141D01*
X193068625Y-141839821D01*
X193082241Y-141874600D01*
X193106862Y-141936563D01*
X193132026Y-141998097D01*
X193153739Y-142049504D01*
X193161605Y-142067381D01*
X193178319Y-142105509D01*
X193189562Y-142133014D01*
X193192571Y-142142312D01*
X193197568Y-142155723D01*
X193211129Y-142188030D01*
X193231113Y-142234338D01*
X193255375Y-142289750D01*
X193281773Y-142349369D01*
X193308164Y-142408300D01*
X193330914Y-142458395D01*
X193346816Y-142485316D01*
X193366739Y-142497657D01*
X193396332Y-142496050D01*
X193441246Y-142481128D01*
X193461353Y-142472991D01*
X193541269Y-142453766D01*
X193626808Y-142459858D01*
X193717659Y-142491178D01*
X193813508Y-142547638D01*
X193867689Y-142588920D01*
X193958892Y-142660611D01*
X194035102Y-142713433D01*
X194098214Y-142748405D01*
X194150123Y-142766544D01*
X194192726Y-142768870D01*
X194200240Y-142767539D01*
X194226378Y-142754476D01*
X194265589Y-142725874D01*
X194313556Y-142685642D01*
X194365961Y-142637693D01*
X194418486Y-142585936D01*
X194466815Y-142534282D01*
X194497352Y-142498408D01*
X194536102Y-142450361D01*
X194509800Y-142389000D01*
X194485895Y-142338701D01*
X194453259Y-142279819D01*
X194410092Y-142209429D01*
X194354592Y-142124605D01*
X194284961Y-142022421D01*
X194278146Y-142012572D01*
X194234916Y-141949229D01*
X194205214Y-141902911D01*
X194187008Y-141869701D01*
X194178264Y-141845680D01*
X194176948Y-141826931D01*
X194178096Y-141819805D01*
X194187629Y-141788090D01*
X194205198Y-141739432D01*
X194228076Y-141680657D01*
X194253535Y-141618589D01*
X194278847Y-141560054D01*
X194300628Y-141513211D01*
X194316676Y-141478306D01*
X194326307Y-141453053D01*
X194327548Y-141447163D01*
X194332808Y-141429944D01*
X194346330Y-141397669D01*
X194358437Y-141371520D01*
X194376956Y-141325937D01*
X194396394Y-141267094D01*
X194412688Y-141207344D01*
X194413357Y-141204514D01*
X194429911Y-141143780D01*
X194446545Y-141104926D01*
X194465054Y-141083798D01*
X194465705Y-141083363D01*
X194494504Y-141070588D01*
X194544577Y-141054815D01*
X194611428Y-141037123D01*
X194690560Y-141018589D01*
X194777476Y-141000289D01*
X194867681Y-140983302D01*
X194921128Y-140974250D01*
X194983379Y-140961922D01*
X195049829Y-140945321D01*
X195092950Y-140932306D01*
X195136746Y-140916546D01*
X195162326Y-140902575D01*
X195176403Y-140884494D01*
X195185694Y-140856402D01*
X195187532Y-140849209D01*
X195194545Y-140804575D01*
X195198752Y-140742874D01*
X195200216Y-140671863D01*
X195199004Y-140599295D01*
X195195180Y-140532926D01*
X195188812Y-140480511D01*
X195184246Y-140460434D01*
X195169138Y-140424565D01*
X195145316Y-140403402D01*
X195116758Y-140391406D01*
X195079045Y-140380278D01*
X195020315Y-140365456D01*
X194945207Y-140347995D01*
X194858359Y-140328951D01*
X194764411Y-140309379D01*
X194699350Y-140296408D01*
X194639590Y-140283646D01*
X194575138Y-140268305D01*
X194545304Y-140260560D01*
X194515645Y-140251905D01*
X194491990Y-140241826D01*
X194471961Y-140226951D01*
X194453183Y-140203906D01*
X194433279Y-140169319D01*
X194409872Y-140119817D01*
X194380586Y-140052027D01*
X194354314Y-139989494D01*
X194322206Y-139913018D01*
X194297267Y-139854423D01*
X194276682Y-139807484D01*
X194257633Y-139765976D01*
X194237307Y-139723676D01*
X194212886Y-139674359D01*
X194201065Y-139650723D01*
X194142473Y-139533728D01*
X194169726Y-139481128D01*
X194190764Y-139441334D01*
X194211240Y-139404949D01*
X194234200Y-139367142D01*
X194262694Y-139323079D01*
X194299769Y-139267930D01*
X194348473Y-139196863D01*
X194355141Y-139187183D01*
X194397855Y-139124023D01*
X194438003Y-139062517D01*
X194471841Y-139008552D01*
X194495622Y-138968013D01*
X194500726Y-138958384D01*
X194533920Y-138892655D01*
X194487722Y-138827926D01*
X194460108Y-138793324D01*
X194419031Y-138746901D01*
X194370028Y-138694719D01*
X194318637Y-138642838D01*
X194318421Y-138642626D01*
X194195317Y-138522054D01*
X194121191Y-138563008D01*
X194081726Y-138586410D01*
X194027872Y-138620523D01*
X193966484Y-138660910D01*
X193904416Y-138703133D01*
X193899693Y-138706410D01*
X193845801Y-138743623D01*
X193799962Y-138774799D01*
X193766215Y-138797230D01*
X193748594Y-138808204D01*
X193747060Y-138808858D01*
X193734175Y-138815498D01*
X193706886Y-138832509D01*
X193685700Y-138846454D01*
X193640281Y-138875377D01*
X193593043Y-138903225D01*
X193578160Y-138911389D01*
X193526718Y-138938728D01*
X193467272Y-138904920D01*
X193430484Y-138886241D01*
X193377053Y-138861924D01*
X193314791Y-138835422D01*
X193264322Y-138815148D01*
X193178105Y-138781422D01*
X193111738Y-138755126D01*
X193060713Y-138734339D01*
X193020521Y-138717140D01*
X192986654Y-138701608D01*
X192954604Y-138685821D01*
X192925134Y-138670617D01*
X192846859Y-138629724D01*
X192809951Y-138520344D01*
X192791896Y-138459495D01*
X192773172Y-138384237D01*
X192756499Y-138306034D01*
X192748360Y-138260938D01*
X192735941Y-138189064D01*
X192722184Y-138115180D01*
X192709070Y-138049687D01*
X192701604Y-138015565D01*
X192689711Y-137968957D01*
X192676120Y-137934076D01*
X192657128Y-137909229D01*
X192629032Y-137892721D01*
X192588128Y-137882860D01*
X192530713Y-137877953D01*
X192453084Y-137876305D01*
X192396782Y-137876176D01*
X192308199Y-137877251D01*
X192238974Y-137880292D01*
X192191383Y-137885149D01*
X192168443Y-137891218D01*
X192149131Y-137911328D01*
X192131841Y-137949700D01*
X192115808Y-138008724D01*
X192100266Y-138090793D01*
X192096020Y-138117435D01*
X192086616Y-138173298D01*
X192073653Y-138243705D01*
X192059180Y-138317720D01*
X192050738Y-138358780D01*
X192037608Y-138421356D01*
X192025657Y-138478539D01*
X192016406Y-138523052D01*
X192012085Y-138544069D01*
X191996421Y-138589367D01*
X191967222Y-138626559D01*
X191920363Y-138659451D01*
X191852140Y-138691676D01*
X191794467Y-138715900D01*
X191736470Y-138740870D01*
X191689757Y-138761583D01*
X191685791Y-138763394D01*
X191640514Y-138783662D01*
X191583136Y-138808680D01*
X191525665Y-138833218D01*
X191522720Y-138834458D01*
X191444496Y-138867561D01*
X191386268Y-138891832D01*
X191343707Y-138907873D01*
X191312482Y-138916290D01*
X191288266Y-138917685D01*
X191266727Y-138912663D01*
X191243538Y-138901829D01*
X191214368Y-138885784D01*
X191202176Y-138879174D01*
X191162292Y-138855988D01*
X191106491Y-138820977D01*
X191040025Y-138777567D01*
X190968146Y-138729186D01*
X190900128Y-138682089D01*
X190833883Y-138636243D01*
X190773740Y-138595962D01*
X190723352Y-138563586D01*
X190686371Y-138541454D01*
X190666450Y-138531906D01*
X190665305Y-138531711D01*
X190631368Y-138540015D01*
X190584850Y-138567123D01*
X190528512Y-138610738D01*
X190465115Y-138668561D01*
X190397423Y-138738292D01*
X190343043Y-138799912D01*
X190278775Y-138875763D01*
X190316260Y-138949937D01*
X190339712Y-138992342D01*
X190373174Y-139047761D01*
X190411555Y-139107931D01*
X190438345Y-139148046D01*
X190504084Y-139244384D01*
X190556522Y-139321520D01*
X190597051Y-139381809D01*
X190627063Y-139427612D01*
X190647949Y-139461285D01*
X190661102Y-139485187D01*
X190667912Y-139501675D01*
X190669772Y-139513107D01*
X190668074Y-139521842D01*
X190664209Y-139530238D01*
X190664084Y-139530490D01*
X190654188Y-139552765D01*
X190636943Y-139593939D01*
X190614561Y-139648635D01*
X190589261Y-139711479D01*
X190582442Y-139728580D01*
X190553414Y-139800327D01*
X190523316Y-139872692D01*
X190495572Y-139937554D01*
X190473609Y-139986794D01*
X190472354Y-139989494D01*
X190445255Y-140048258D01*
X190416722Y-140111173D01*
X190395144Y-140159624D01*
X190375519Y-140202180D01*
X190358305Y-140227793D01*
X190335671Y-140243518D01*
X190299785Y-140256409D01*
X190281653Y-140261851D01*
X190254388Y-140268638D01*
X190206727Y-140279180D01*
X190143433Y-140292532D01*
X190069267Y-140307751D01*
X189988992Y-140323893D01*
X189907370Y-140340015D01*
X189829163Y-140355174D01*
X189759133Y-140368425D01*
X189702044Y-140378825D01*
X189662657Y-140385430D01*
X189648866Y-140387237D01*
X189644462Y-140399656D01*
X189639482Y-140432427D01*
X189634361Y-140479834D01*
X189629536Y-140536156D01*
X189625442Y-140595674D01*
X189622517Y-140652671D01*
X189621195Y-140701428D01*
X189474568Y-140701428D01*
X189474543Y-140654826D01*
X189474687Y-140554266D01*
X189475096Y-140462616D01*
X189475733Y-140382988D01*
X189476564Y-140318494D01*
X189477551Y-140272246D01*
X189478660Y-140247355D01*
X189479274Y-140243886D01*
X189493222Y-140240951D01*
X189526280Y-140233133D01*
X189572249Y-140221906D01*
X189590296Y-140217431D01*
X189657661Y-140201124D01*
X189720771Y-140187030D01*
X189787484Y-140173547D01*
X189865661Y-140159072D01*
X189944189Y-140145277D01*
X190009912Y-140132485D01*
X190079327Y-140116731D01*
X190138328Y-140101237D01*
X190142734Y-140099938D01*
X190190988Y-140084132D01*
X190221904Y-140068603D01*
X190243581Y-140047815D01*
X190263393Y-140017471D01*
X190278052Y-139989676D01*
X190298972Y-139946467D01*
X190323825Y-139893065D01*
X190350286Y-139834692D01*
X190376029Y-139776567D01*
X190398725Y-139723911D01*
X190416050Y-139681946D01*
X190425677Y-139655891D01*
X190426880Y-139650609D01*
X190431979Y-139635646D01*
X190444975Y-139605432D01*
X190454338Y-139585083D01*
X190481797Y-139526668D01*
X190435376Y-139458030D01*
X190406167Y-139415200D01*
X190368608Y-139360617D01*
X190329323Y-139303897D01*
X190316186Y-139285026D01*
X190242356Y-139178582D01*
X190182727Y-139091232D01*
X190136101Y-139021008D01*
X190101279Y-138965941D01*
X190077064Y-138924062D01*
X190062256Y-138893405D01*
X190055658Y-138872000D01*
X190056070Y-138857880D01*
X190056075Y-138857863D01*
X190067907Y-138839832D01*
X190095394Y-138806892D01*
X190135530Y-138762365D01*
X190185308Y-138709576D01*
X190241723Y-138651849D01*
X190249405Y-138644137D01*
X190310459Y-138582732D01*
X190369352Y-138523038D01*
X190421997Y-138469232D01*
X190464306Y-138425492D01*
X190492109Y-138396086D01*
X190548634Y-138343942D01*
X190601777Y-138315803D01*
X190655123Y-138310532D01*
X190711204Y-138326521D01*
X190754593Y-138349765D01*
X190793615Y-138377163D01*
X190803341Y-138385825D01*
X190834899Y-138413392D01*
X190882654Y-138451086D01*
X190940974Y-138494861D01*
X191004226Y-138540670D01*
X191066776Y-138584469D01*
X191122991Y-138622212D01*
X191167240Y-138649853D01*
X191183298Y-138658714D01*
X191237920Y-138683665D01*
X191284766Y-138696719D01*
X191331615Y-138698069D01*
X191386248Y-138687905D01*
X191456445Y-138666419D01*
X191459126Y-138665516D01*
X191545162Y-138634083D01*
X191627985Y-138599437D01*
X191701990Y-138564228D01*
X191761570Y-138531107D01*
X191798354Y-138505163D01*
X191821162Y-138474447D01*
X191845136Y-138422873D01*
X191868599Y-138355523D01*
X191889878Y-138277475D01*
X191907297Y-138193809D01*
X191913300Y-138156572D01*
X191923073Y-138089488D01*
X191933917Y-138014891D01*
X191941751Y-137960886D01*
X191957841Y-137864040D01*
X191974802Y-137791327D01*
X191993276Y-137740789D01*
X192013906Y-137710469D01*
X192026891Y-137701475D01*
X192052888Y-137696126D01*
X192104056Y-137692052D01*
X192179507Y-137689291D01*
X192278351Y-137687876D01*
X192368043Y-137687723D01*
X192472127Y-137688306D01*
G37*
%TO.C,J2*%
X215352475Y-144860000D02*
X215992475Y-144860000D01*
X215992475Y-144860000D02*
X215992475Y-144460000D01*
X209012475Y-144620000D02*
X215752475Y-144620000D01*
X209012475Y-144620000D02*
X209012475Y-138840000D01*
X210132475Y-144620000D02*
X210132475Y-138840000D01*
X215232475Y-144620000D02*
X215232475Y-138840000D01*
X215752475Y-144620000D02*
X215752475Y-138840000D01*
X209012475Y-138840000D02*
X215752475Y-138840000D01*
%TD*%
M02*
