%TF.GenerationSoftware,KiCad,Pcbnew,7.0.2-0*%
%TF.CreationDate,2023-04-20T17:34:09-07:00*%
%TF.ProjectId,RagGuard_V1,52616747-7561-4726-945f-56312e6b6963,rev?*%
%TF.SameCoordinates,Original*%
%TF.FileFunction,Copper,L1,Top*%
%TF.FilePolarity,Positive*%
%FSLAX46Y46*%
G04 Gerber Fmt 4.6, Leading zero omitted, Abs format (unit mm)*
G04 Created by KiCad (PCBNEW 7.0.2-0) date 2023-04-20 17:34:09*
%MOMM*%
%LPD*%
G01*
G04 APERTURE LIST*
G04 Aperture macros list*
%AMRoundRect*
0 Rectangle with rounded corners*
0 $1 Rounding radius*
0 $2 $3 $4 $5 $6 $7 $8 $9 X,Y pos of 4 corners*
0 Add a 4 corners polygon primitive as box body*
4,1,4,$2,$3,$4,$5,$6,$7,$8,$9,$2,$3,0*
0 Add four circle primitives for the rounded corners*
1,1,$1+$1,$2,$3*
1,1,$1+$1,$4,$5*
1,1,$1+$1,$6,$7*
1,1,$1+$1,$8,$9*
0 Add four rect primitives between the rounded corners*
20,1,$1+$1,$2,$3,$4,$5,0*
20,1,$1+$1,$4,$5,$6,$7,0*
20,1,$1+$1,$6,$7,$8,$9,0*
20,1,$1+$1,$8,$9,$2,$3,0*%
G04 Aperture macros list end*
%TA.AperFunction,SMDPad,CuDef*%
%ADD10RoundRect,0.250000X-0.650000X0.325000X-0.650000X-0.325000X0.650000X-0.325000X0.650000X0.325000X0*%
%TD*%
%TA.AperFunction,SMDPad,CuDef*%
%ADD11RoundRect,0.250000X-0.325000X-0.650000X0.325000X-0.650000X0.325000X0.650000X-0.325000X0.650000X0*%
%TD*%
%TA.AperFunction,ComponentPad*%
%ADD12C,2.600000*%
%TD*%
%TA.AperFunction,ConnectorPad*%
%ADD13C,4.400000*%
%TD*%
%TA.AperFunction,SMDPad,CuDef*%
%ADD14R,1.903000X2.790000*%
%TD*%
%TA.AperFunction,SMDPad,CuDef*%
%ADD15RoundRect,0.250000X0.625000X-0.312500X0.625000X0.312500X-0.625000X0.312500X-0.625000X-0.312500X0*%
%TD*%
%TA.AperFunction,SMDPad,CuDef*%
%ADD16R,0.650000X1.700000*%
%TD*%
%TA.AperFunction,SMDPad,CuDef*%
%ADD17RoundRect,0.150000X-0.512500X-0.150000X0.512500X-0.150000X0.512500X0.150000X-0.512500X0.150000X0*%
%TD*%
%TA.AperFunction,ComponentPad*%
%ADD18R,2.100000X2.100000*%
%TD*%
%TA.AperFunction,ComponentPad*%
%ADD19C,2.100000*%
%TD*%
%TA.AperFunction,SMDPad,CuDef*%
%ADD20RoundRect,0.250000X0.325000X0.650000X-0.325000X0.650000X-0.325000X-0.650000X0.325000X-0.650000X0*%
%TD*%
%TA.AperFunction,SMDPad,CuDef*%
%ADD21R,2.200000X0.500000*%
%TD*%
%TA.AperFunction,ComponentPad*%
%ADD22C,0.630000*%
%TD*%
%TA.AperFunction,SMDPad,CuDef*%
%ADD23R,2.950000X4.900000*%
%TD*%
%TA.AperFunction,ComponentPad*%
%ADD24R,1.700000X1.700000*%
%TD*%
%TA.AperFunction,ComponentPad*%
%ADD25O,1.700000X1.700000*%
%TD*%
%TA.AperFunction,ViaPad*%
%ADD26C,0.500000*%
%TD*%
%TA.AperFunction,ViaPad*%
%ADD27C,0.800000*%
%TD*%
%TA.AperFunction,Conductor*%
%ADD28C,0.250000*%
%TD*%
G04 APERTURE END LIST*
D10*
%TO.P,C3,1*%
%TO.N,+5V*%
X194404667Y-132836316D03*
%TO.P,C3,2*%
%TO.N,GND*%
X194404667Y-135786316D03*
%TD*%
%TO.P,C4,1*%
%TO.N,+5V*%
X191904667Y-132836316D03*
%TO.P,C4,2*%
%TO.N,GND*%
X191904667Y-135786316D03*
%TD*%
D11*
%TO.P,C1,1*%
%TO.N,+12V*%
X196654667Y-136611316D03*
%TO.P,C1,2*%
%TO.N,GND*%
X199604667Y-136611316D03*
%TD*%
D12*
%TO.P,REF\u002A\u002A,1*%
%TO.N,N/C*%
X213000000Y-148000000D03*
D13*
X213000000Y-148000000D03*
%TD*%
D14*
%TO.P,L1,1*%
%TO.N,Net-(U2-SW)*%
X201878167Y-134111316D03*
%TO.P,L1,2*%
%TO.N,+5V*%
X206731167Y-134111316D03*
%TD*%
D15*
%TO.P,R1,1*%
%TO.N,Net-(U3-ILIM)*%
X196693720Y-143351816D03*
%TO.P,R1,2*%
%TO.N,GND*%
X196693720Y-140426816D03*
%TD*%
D16*
%TO.P,U1,1,~{RESET}/PB5*%
%TO.N,Net-(J4-Pin_5)*%
X188497667Y-133413316D03*
%TO.P,U1,2,XTAL1/PB3*%
%TO.N,MOTOR_CTRL*%
X187227667Y-133413316D03*
%TO.P,U1,3,XTAL2/PB4*%
%TO.N,unconnected-(U1-XTAL2{slash}PB4-Pad3)*%
X185957667Y-133413316D03*
%TO.P,U1,4,GND*%
%TO.N,GND*%
X184687667Y-133413316D03*
%TO.P,U1,5,AREF/PB0*%
%TO.N,Net-(J4-Pin_2)*%
X184687667Y-140713316D03*
%TO.P,U1,6,PB1*%
%TO.N,Net-(J4-Pin_3)*%
X185957667Y-140713316D03*
%TO.P,U1,7,PB2*%
%TO.N,Net-(J4-Pin_4)*%
X187227667Y-140713316D03*
%TO.P,U1,8,VCC*%
%TO.N,+5V*%
X188497667Y-140713316D03*
%TD*%
D17*
%TO.P,U2,1,FB*%
%TO.N,+5V*%
X197009667Y-132811316D03*
%TO.P,U2,2,EN*%
%TO.N,+12V*%
X197009667Y-133761316D03*
%TO.P,U2,3,IN*%
X197009667Y-134711316D03*
%TO.P,U2,4,GND*%
%TO.N,GND*%
X199284667Y-134711316D03*
%TO.P,U2,5,SW*%
%TO.N,Net-(U2-SW)*%
X199284667Y-133761316D03*
%TO.P,U2,6,BST*%
%TO.N,Net-(U2-BST)*%
X199284667Y-132811316D03*
%TD*%
D18*
%TO.P,J1,1,Pin_1*%
%TO.N,+12V*%
X212365644Y-133542264D03*
D19*
%TO.P,J1,2,Pin_2*%
%TO.N,GND*%
X212365644Y-131002264D03*
%TD*%
D20*
%TO.P,C5,1*%
%TO.N,+5V*%
X188067667Y-143267604D03*
%TO.P,C5,2*%
%TO.N,GND*%
X185117667Y-143267604D03*
%TD*%
D21*
%TO.P,U3,1,GND*%
%TO.N,GND*%
X199475000Y-139670981D03*
%TO.P,U3,2,IN2*%
X199475000Y-140940981D03*
%TO.P,U3,3,IN1*%
%TO.N,MOTOR_CTRL*%
X199475000Y-142210981D03*
%TO.P,U3,4,ILIM*%
%TO.N,Net-(U3-ILIM)*%
X199475000Y-143480981D03*
%TO.P,U3,5,VM*%
%TO.N,+12V*%
X205225000Y-143480981D03*
%TO.P,U3,6,OUT1*%
%TO.N,Net-(J2-Pin_1)*%
X205225000Y-142210981D03*
%TO.P,U3,7,GND*%
%TO.N,GND*%
X205225000Y-140940981D03*
%TO.P,U3,8,OUT2*%
%TO.N,Net-(J2-Pin_2)*%
X205225000Y-139670981D03*
D22*
%TO.P,U3,9,GND*%
%TO.N,GND*%
X201700000Y-140275981D03*
X201700000Y-141575981D03*
X201700000Y-142875981D03*
D23*
X202350000Y-141575981D03*
D22*
X203000000Y-140275981D03*
X203000000Y-141575981D03*
X203000000Y-142875981D03*
%TD*%
D12*
%TO.P,REF\u002A\u002A,1*%
%TO.N,N/C*%
X183000000Y-126000000D03*
D13*
X183000000Y-126000000D03*
%TD*%
D12*
%TO.P,REF\u002A\u002A,1*%
%TO.N,N/C*%
X183000000Y-148000000D03*
D13*
X183000000Y-148000000D03*
%TD*%
D20*
%TO.P,C2,1*%
%TO.N,Net-(U2-SW)*%
X199679667Y-130911316D03*
%TO.P,C2,2*%
%TO.N,Net-(U2-BST)*%
X196729667Y-130911316D03*
%TD*%
D12*
%TO.P,REF\u002A\u002A,1*%
%TO.N,N/C*%
X213000000Y-126000000D03*
D13*
X213000000Y-126000000D03*
%TD*%
D18*
%TO.P,J2,1,Pin_1*%
%TO.N,Net-(J2-Pin_1)*%
X212382475Y-143000000D03*
D19*
%TO.P,J2,2,Pin_2*%
%TO.N,Net-(J2-Pin_2)*%
X212382475Y-140460000D03*
%TD*%
D24*
%TO.P,J4,1,Pin_1*%
%TO.N,+5V*%
X181640422Y-143263047D03*
D25*
%TO.P,J4,2,Pin_2*%
%TO.N,Net-(J4-Pin_2)*%
X181640422Y-140723047D03*
%TO.P,J4,3,Pin_3*%
%TO.N,Net-(J4-Pin_3)*%
X181640422Y-138183047D03*
%TO.P,J4,4,Pin_4*%
%TO.N,Net-(J4-Pin_4)*%
X181640422Y-135643047D03*
%TO.P,J4,5,Pin_5*%
%TO.N,Net-(J4-Pin_5)*%
X181640422Y-133103047D03*
%TO.P,J4,6,Pin_6*%
%TO.N,GND*%
X181640422Y-130563047D03*
%TD*%
D26*
%TO.N,+12V*%
X196654667Y-138442721D03*
X207063296Y-143457739D03*
%TO.N,GND*%
X200804667Y-136261316D03*
X200804667Y-137211316D03*
X198554667Y-137311316D03*
X199454667Y-135411316D03*
X198254667Y-136411316D03*
X198554667Y-135561316D03*
X198254667Y-134711316D03*
D27*
%TO.N,+5V*%
X204304667Y-134111316D03*
D26*
X188491177Y-134945884D03*
D27*
X194454667Y-134061316D03*
D26*
X186592667Y-143267604D03*
X188516233Y-138248416D03*
%TD*%
D28*
%TO.N,+12V*%
X207063296Y-143457739D02*
X207040054Y-143480981D01*
X207040054Y-143480981D02*
X205225000Y-143480981D01*
X196654667Y-136611316D02*
X196654667Y-138442721D01*
%TO.N,+5V*%
X188497667Y-140713316D02*
X188497667Y-138266982D01*
X188497667Y-138266982D02*
X188516233Y-138248416D01*
X188491177Y-134945884D02*
X189218099Y-134945884D01*
X188497667Y-142837604D02*
X188497667Y-140713316D01*
X191327667Y-132836316D02*
X191904667Y-132836316D01*
X189218099Y-134945884D02*
X191327667Y-132836316D01*
X204304667Y-134111316D02*
X206731167Y-134111316D01*
X186592667Y-143267604D02*
X188067667Y-143267604D01*
X188067667Y-143267604D02*
X188497667Y-142837604D01*
%TO.N,Net-(J2-Pin_1)*%
X208445385Y-142210981D02*
X209234404Y-143000000D01*
X205225000Y-142210981D02*
X208445385Y-142210981D01*
X209234404Y-143000000D02*
X212382475Y-143000000D01*
%TO.N,Net-(J2-Pin_2)*%
X209234404Y-140460000D02*
X208445385Y-139670981D01*
X208445385Y-139670981D02*
X205225000Y-139670981D01*
X209234404Y-140460000D02*
X212382475Y-140460000D01*
%TO.N,Net-(J4-Pin_2)*%
X184687667Y-140713316D02*
X181650153Y-140713316D01*
X181650153Y-140713316D02*
X181640422Y-140723047D01*
%TO.N,Net-(J4-Pin_3)*%
X185957667Y-140188316D02*
X183952398Y-138183047D01*
X185957667Y-140713316D02*
X185957667Y-140188316D01*
X183952398Y-138183047D02*
X181640422Y-138183047D01*
%TO.N,Net-(J4-Pin_4)*%
X182682398Y-135643047D02*
X181640422Y-135643047D01*
X187227667Y-140188316D02*
X182682398Y-135643047D01*
X187227667Y-140713316D02*
X187227667Y-140188316D01*
%TO.N,Net-(J4-Pin_5)*%
X188497667Y-133413316D02*
X188497667Y-132888316D01*
X188497667Y-132888316D02*
X187592667Y-131983316D01*
X182760153Y-131983316D02*
X181640422Y-133103047D01*
X187592667Y-131983316D02*
X182760153Y-131983316D01*
%TO.N,Net-(U3-ILIM)*%
X196693720Y-143351816D02*
X196822885Y-143480981D01*
X196822885Y-143480981D02*
X199475000Y-143480981D01*
%TO.N,MOTOR_CTRL*%
X187227667Y-135666316D02*
X193772332Y-142210981D01*
X193772332Y-142210981D02*
X199475000Y-142210981D01*
X187227667Y-133413316D02*
X187227667Y-135666316D01*
%TD*%
%TA.AperFunction,Conductor*%
%TO.N,Net-(U2-BST)*%
G36*
X198649722Y-129781001D02*
G01*
X198695477Y-129833805D01*
X198705421Y-129902963D01*
X198704304Y-129909483D01*
X198699167Y-129935316D01*
X198699167Y-129935318D01*
X198699167Y-131987316D01*
X198714806Y-132065952D01*
X198721835Y-132082922D01*
X198758470Y-132141225D01*
X198833060Y-132194147D01*
X198850030Y-132201176D01*
X198928666Y-132216816D01*
X198928667Y-132216816D01*
X199875167Y-132216816D01*
X199942206Y-132236501D01*
X199987961Y-132289305D01*
X199999167Y-132340816D01*
X199999167Y-132981816D01*
X199979482Y-133048855D01*
X199926678Y-133094610D01*
X199875167Y-133105816D01*
X199835597Y-133105816D01*
X199833351Y-133105877D01*
X199824021Y-133106235D01*
X199819536Y-133106316D01*
X198749798Y-133106316D01*
X198745313Y-133106235D01*
X198733737Y-133105816D01*
X198731498Y-133105796D01*
X198528672Y-133105814D01*
X198450030Y-133121455D01*
X198433060Y-133128484D01*
X198358205Y-133175520D01*
X198324203Y-133202354D01*
X198277919Y-133211316D01*
X198178667Y-133211316D01*
X198111628Y-133191631D01*
X198065873Y-133138827D01*
X198054667Y-133087316D01*
X198054667Y-131911316D01*
X196028667Y-131911316D01*
X195961628Y-131891631D01*
X195915873Y-131838827D01*
X195904667Y-131787316D01*
X195904667Y-129885316D01*
X195924352Y-129818277D01*
X195977156Y-129772522D01*
X196028667Y-129761316D01*
X198582683Y-129761316D01*
X198649722Y-129781001D01*
G37*
%TD.AperFunction*%
%TD*%
%TA.AperFunction,Conductor*%
%TO.N,+5V*%
G36*
X197697706Y-132231001D02*
G01*
X197743461Y-132283805D01*
X197754667Y-132335316D01*
X197754667Y-132981816D01*
X197734982Y-133048855D01*
X197682178Y-133094610D01*
X197630667Y-133105816D01*
X197566594Y-133105816D01*
X197564174Y-133105888D01*
X197556333Y-133106219D01*
X197551467Y-133106315D01*
X196467891Y-133106315D01*
X196463030Y-133106220D01*
X196452733Y-133105816D01*
X196450310Y-133105792D01*
X196381997Y-133105814D01*
X196381960Y-133105816D01*
X196378667Y-133105816D01*
X196375387Y-133106168D01*
X196375379Y-133106169D01*
X196327654Y-133111300D01*
X196327649Y-133111300D01*
X196324354Y-133111655D01*
X196321113Y-133112359D01*
X196321107Y-133112361D01*
X196274448Y-133122511D01*
X196274418Y-133122518D01*
X196272843Y-133122861D01*
X196271280Y-133123289D01*
X196271267Y-133123293D01*
X196254163Y-133127985D01*
X196246469Y-133130097D01*
X196246468Y-133130097D01*
X196246466Y-133130098D01*
X196159841Y-133179425D01*
X196157990Y-133181030D01*
X196153111Y-133183257D01*
X196149225Y-133185471D01*
X196149026Y-133185123D01*
X196094434Y-133210054D01*
X196076788Y-133211316D01*
X195854667Y-133211316D01*
X195854667Y-134487316D01*
X195834982Y-134554355D01*
X195782178Y-134600110D01*
X195730667Y-134611316D01*
X191028667Y-134611316D01*
X190961628Y-134591631D01*
X190915873Y-134538827D01*
X190904667Y-134487316D01*
X190904667Y-132335316D01*
X190924352Y-132268277D01*
X190977156Y-132222522D01*
X191028667Y-132211316D01*
X197630667Y-132211316D01*
X197697706Y-132231001D01*
G37*
%TD.AperFunction*%
%TD*%
%TA.AperFunction,Conductor*%
%TO.N,+12V*%
G36*
X196459086Y-133361815D02*
G01*
X196465642Y-133361815D01*
X196465648Y-133361816D01*
X197553685Y-133361815D01*
X197560251Y-133361815D01*
X197566594Y-133361316D01*
X197630667Y-133361316D01*
X197697706Y-133381001D01*
X197743461Y-133433805D01*
X197754667Y-133485316D01*
X197754667Y-134663170D01*
X197753405Y-134680816D01*
X197749020Y-134711315D01*
X197753405Y-134741814D01*
X197754667Y-134759461D01*
X197754667Y-136363170D01*
X197753405Y-136380816D01*
X197749020Y-136411315D01*
X197753405Y-136441814D01*
X197754667Y-136459461D01*
X197754667Y-137637316D01*
X197734982Y-137704355D01*
X197682178Y-137750110D01*
X197630667Y-137761316D01*
X195978667Y-137761316D01*
X195911628Y-137741631D01*
X195865873Y-137688827D01*
X195854667Y-137637316D01*
X195854667Y-135585316D01*
X195874352Y-135518277D01*
X195927156Y-135472522D01*
X195978667Y-135461316D01*
X196254667Y-135461316D01*
X196254667Y-133485316D01*
X196274352Y-133418277D01*
X196327156Y-133372522D01*
X196378667Y-133361316D01*
X196452733Y-133361316D01*
X196459086Y-133361815D01*
G37*
%TD.AperFunction*%
%TD*%
%TA.AperFunction,Conductor*%
%TO.N,Net-(U2-SW)*%
G36*
X200697638Y-129918345D02*
G01*
X200704667Y-129935315D01*
X200704667Y-132611316D01*
X202980667Y-132611316D01*
X202997638Y-132618345D01*
X203004667Y-132635316D01*
X203004667Y-135587316D01*
X202997638Y-135604287D01*
X202980667Y-135611316D01*
X200228667Y-135611316D01*
X200211696Y-135604287D01*
X200204667Y-135587316D01*
X200204667Y-134211317D01*
X200204667Y-134211316D01*
X200204666Y-134211316D01*
X199835597Y-134211316D01*
X199832136Y-134211065D01*
X199830427Y-134210816D01*
X198738907Y-134210816D01*
X198737198Y-134211065D01*
X198733737Y-134211316D01*
X198528667Y-134211316D01*
X198511696Y-134204287D01*
X198504667Y-134187316D01*
X198504667Y-133335316D01*
X198511696Y-133318345D01*
X198528667Y-133311316D01*
X198733737Y-133311316D01*
X198737198Y-133311567D01*
X198738907Y-133311816D01*
X199830427Y-133311816D01*
X199832136Y-133311567D01*
X199835597Y-133311316D01*
X200204666Y-133311316D01*
X200204667Y-133311316D01*
X200204667Y-132011316D01*
X198928667Y-132011316D01*
X198911696Y-132004287D01*
X198904667Y-131987316D01*
X198904667Y-129935316D01*
X198911696Y-129918345D01*
X198928667Y-129911316D01*
X200680667Y-129911316D01*
X200697638Y-129918345D01*
G37*
%TD.AperFunction*%
%TD*%
%TA.AperFunction,Conductor*%
%TO.N,GND*%
G36*
X183133613Y-123007502D02*
G01*
X183315157Y-123017698D01*
X183325065Y-123018758D01*
X183475647Y-123042608D01*
X183636491Y-123069936D01*
X183645474Y-123071898D01*
X183796693Y-123112418D01*
X183950213Y-123156646D01*
X183958244Y-123159339D01*
X184104991Y-123215670D01*
X184107376Y-123216622D01*
X184246493Y-123274246D01*
X184252662Y-123276801D01*
X184259722Y-123280056D01*
X184400438Y-123351755D01*
X184403372Y-123353312D01*
X184540334Y-123429008D01*
X184546329Y-123432605D01*
X184679181Y-123518881D01*
X184682504Y-123521137D01*
X184784673Y-123593630D01*
X184809788Y-123611450D01*
X184814798Y-123615249D01*
X184934862Y-123712475D01*
X184938050Y-123715056D01*
X184941715Y-123718175D01*
X185057931Y-123822032D01*
X185061967Y-123825847D01*
X185174151Y-123938031D01*
X185177966Y-123942067D01*
X185281823Y-124058283D01*
X185284942Y-124061948D01*
X185384746Y-124185196D01*
X185388548Y-124190210D01*
X185478846Y-124317472D01*
X185481134Y-124320842D01*
X185567382Y-124453652D01*
X185571001Y-124459683D01*
X185646681Y-124596617D01*
X185648243Y-124599560D01*
X185719942Y-124740276D01*
X185723197Y-124747336D01*
X185783376Y-124892622D01*
X185784337Y-124895029D01*
X185840653Y-125041738D01*
X185843359Y-125049809D01*
X185887579Y-125203297D01*
X185928096Y-125354509D01*
X185930067Y-125363537D01*
X185957394Y-125524368D01*
X185981239Y-125674921D01*
X185982301Y-125684853D01*
X185992509Y-125866617D01*
X185999364Y-125997405D01*
X185999500Y-126002586D01*
X185999500Y-127955685D01*
X185996534Y-127964812D01*
X185999023Y-127990081D01*
X185999500Y-127999785D01*
X185999499Y-128087531D01*
X186014541Y-128172837D01*
X186013883Y-128177518D01*
X186015700Y-128183508D01*
X186018458Y-128195054D01*
X186029899Y-128259940D01*
X186065785Y-128358535D01*
X186065964Y-128363687D01*
X186067964Y-128367427D01*
X186073683Y-128380234D01*
X186089773Y-128424441D01*
X186149601Y-128528066D01*
X186150873Y-128534054D01*
X186153094Y-128536760D01*
X186162300Y-128550060D01*
X186177308Y-128576055D01*
X186177309Y-128576057D01*
X186178028Y-128577301D01*
X186184188Y-128586413D01*
X186184209Y-128586422D01*
X186195839Y-128598141D01*
X186262929Y-128678096D01*
X186265601Y-128684709D01*
X186267728Y-128686455D01*
X186280763Y-128699349D01*
X186289836Y-128710162D01*
X186300650Y-128719236D01*
X186310247Y-128728938D01*
X186321902Y-128737069D01*
X186401857Y-128804159D01*
X186406129Y-128810995D01*
X186407729Y-128811851D01*
X186422700Y-128821973D01*
X186423944Y-128822691D01*
X186423945Y-128822692D01*
X186449939Y-128837699D01*
X186461170Y-128845473D01*
X186471932Y-128850398D01*
X186575555Y-128910225D01*
X186619766Y-128926317D01*
X186632138Y-128931841D01*
X186641459Y-128934212D01*
X186740062Y-128970101D01*
X186804960Y-128981544D01*
X186816503Y-128984302D01*
X186818287Y-128984843D01*
X186827155Y-128985457D01*
X186912468Y-129000500D01*
X187000223Y-129000500D01*
X187009926Y-129000977D01*
X187025886Y-129002548D01*
X187044313Y-129000500D01*
X208955686Y-129000500D01*
X208964811Y-129003464D01*
X208990073Y-129000977D01*
X208999776Y-129000500D01*
X209087530Y-129000500D01*
X209087532Y-129000500D01*
X209172838Y-128985458D01*
X209177515Y-128986115D01*
X209183495Y-128984302D01*
X209195045Y-128981543D01*
X209259938Y-128970101D01*
X209259937Y-128970100D01*
X209358536Y-128934213D01*
X209363683Y-128934034D01*
X209367416Y-128932039D01*
X209380218Y-128926322D01*
X209424445Y-128910225D01*
X209528068Y-128850397D01*
X209534055Y-128849124D01*
X209536755Y-128846909D01*
X209550062Y-128837699D01*
X209576055Y-128822692D01*
X209576059Y-128822688D01*
X209577300Y-128821972D01*
X209586419Y-128815807D01*
X209586429Y-128815783D01*
X209598142Y-128804159D01*
X209644022Y-128765661D01*
X209678097Y-128737069D01*
X209684709Y-128734397D01*
X209686451Y-128732275D01*
X209699343Y-128719241D01*
X209710163Y-128710163D01*
X209719241Y-128699343D01*
X209728932Y-128689757D01*
X209737064Y-128678102D01*
X209804158Y-128598142D01*
X209810994Y-128593870D01*
X209811848Y-128592274D01*
X209821972Y-128577300D01*
X209822688Y-128576059D01*
X209822692Y-128576055D01*
X209837700Y-128550060D01*
X209845466Y-128538838D01*
X209850392Y-128528076D01*
X209910225Y-128424445D01*
X209926322Y-128380218D01*
X209931838Y-128367865D01*
X209934214Y-128358535D01*
X209970101Y-128259938D01*
X209981543Y-128195043D01*
X209984302Y-128183495D01*
X209984841Y-128181717D01*
X209985457Y-128172846D01*
X210000500Y-128087532D01*
X210000500Y-128000000D01*
X210000500Y-127999775D01*
X210000977Y-127990071D01*
X210002547Y-127974121D01*
X210000500Y-127955685D01*
X210000500Y-126002773D01*
X210000578Y-126000000D01*
X210594754Y-126000000D01*
X210613720Y-126301457D01*
X210614302Y-126304511D01*
X210614304Y-126304522D01*
X210669736Y-126595106D01*
X210670319Y-126598160D01*
X210671276Y-126601106D01*
X210671277Y-126601109D01*
X210762696Y-126882468D01*
X210762699Y-126882476D01*
X210763659Y-126885430D01*
X210892267Y-127158736D01*
X211054115Y-127413768D01*
X211056100Y-127416167D01*
X211244669Y-127644109D01*
X211244674Y-127644115D01*
X211246651Y-127646504D01*
X211466838Y-127853274D01*
X211469357Y-127855104D01*
X211633170Y-127974121D01*
X211711205Y-128030816D01*
X211975896Y-128176332D01*
X212256738Y-128287525D01*
X212549302Y-128362642D01*
X212848973Y-128400500D01*
X212852078Y-128400500D01*
X213147922Y-128400500D01*
X213151027Y-128400500D01*
X213450698Y-128362642D01*
X213743262Y-128287525D01*
X214024104Y-128176332D01*
X214288795Y-128030816D01*
X214533162Y-127853274D01*
X214753349Y-127646504D01*
X214945885Y-127413768D01*
X215107733Y-127158736D01*
X215236341Y-126885430D01*
X215329681Y-126598160D01*
X215386280Y-126301457D01*
X215405246Y-126000000D01*
X215386280Y-125698543D01*
X215329681Y-125401840D01*
X215236341Y-125114570D01*
X215107733Y-124841264D01*
X214945885Y-124586232D01*
X214774242Y-124378751D01*
X214755330Y-124355890D01*
X214755325Y-124355885D01*
X214753349Y-124353496D01*
X214579468Y-124190210D01*
X214535435Y-124148860D01*
X214535430Y-124148856D01*
X214533162Y-124146726D01*
X214509923Y-124129842D01*
X214291309Y-123971010D01*
X214291303Y-123971006D01*
X214288795Y-123969184D01*
X214232128Y-123938031D01*
X214072591Y-123850324D01*
X214024104Y-123823668D01*
X214021223Y-123822527D01*
X214021216Y-123822524D01*
X213808915Y-123738469D01*
X213743262Y-123712475D01*
X213740259Y-123711704D01*
X213740253Y-123711702D01*
X213453705Y-123638130D01*
X213453704Y-123638129D01*
X213450698Y-123637358D01*
X213447617Y-123636968D01*
X213447613Y-123636968D01*
X213154110Y-123599889D01*
X213154102Y-123599888D01*
X213151027Y-123599500D01*
X212848973Y-123599500D01*
X212845898Y-123599888D01*
X212845889Y-123599889D01*
X212552386Y-123636968D01*
X212552379Y-123636969D01*
X212549302Y-123637358D01*
X212546298Y-123638129D01*
X212546294Y-123638130D01*
X212259746Y-123711702D01*
X212259735Y-123711705D01*
X212256738Y-123712475D01*
X212253851Y-123713617D01*
X212253848Y-123713619D01*
X211978783Y-123822524D01*
X211978770Y-123822530D01*
X211975896Y-123823668D01*
X211973179Y-123825161D01*
X211973174Y-123825164D01*
X211713932Y-123967684D01*
X211713922Y-123967690D01*
X211711205Y-123969184D01*
X211708703Y-123971001D01*
X211708690Y-123971010D01*
X211469357Y-124144895D01*
X211469348Y-124144901D01*
X211466838Y-124146726D01*
X211464576Y-124148849D01*
X211464564Y-124148860D01*
X211284940Y-124317540D01*
X211246651Y-124353496D01*
X211244681Y-124355876D01*
X211244669Y-124355890D01*
X211056100Y-124583832D01*
X211054115Y-124586232D01*
X211052449Y-124588856D01*
X211052444Y-124588864D01*
X210893935Y-124838634D01*
X210893928Y-124838646D01*
X210892267Y-124841264D01*
X210890944Y-124844074D01*
X210890942Y-124844079D01*
X210794151Y-125049772D01*
X210763659Y-125114570D01*
X210762701Y-125117518D01*
X210762696Y-125117531D01*
X210671277Y-125398890D01*
X210671275Y-125398897D01*
X210670319Y-125401840D01*
X210669738Y-125404883D01*
X210669736Y-125404893D01*
X210614304Y-125695477D01*
X210614302Y-125695490D01*
X210613720Y-125698543D01*
X210594754Y-126000000D01*
X210000578Y-126000000D01*
X210000656Y-125997222D01*
X210013965Y-125760230D01*
X210019349Y-125667791D01*
X210020576Y-125657001D01*
X210052965Y-125466374D01*
X210077009Y-125330015D01*
X210079372Y-125319815D01*
X210130405Y-125142675D01*
X210172812Y-125001029D01*
X210176175Y-124991574D01*
X210245302Y-124824687D01*
X210305495Y-124685145D01*
X210309721Y-124676531D01*
X210396183Y-124520090D01*
X210473316Y-124386496D01*
X210478264Y-124378781D01*
X210580413Y-124234815D01*
X210581597Y-124233187D01*
X210674073Y-124108970D01*
X210679618Y-124102177D01*
X210796632Y-123971239D01*
X210798276Y-123969449D01*
X210905131Y-123856188D01*
X210911158Y-123850324D01*
X211041519Y-123733826D01*
X211043801Y-123731848D01*
X211163486Y-123631421D01*
X211169803Y-123626541D01*
X211312100Y-123525577D01*
X211314881Y-123523677D01*
X211445770Y-123437591D01*
X211452236Y-123433685D01*
X211604631Y-123349459D01*
X211607960Y-123347704D01*
X211748304Y-123277221D01*
X211754777Y-123274260D01*
X211915398Y-123207728D01*
X211919350Y-123206192D01*
X212067052Y-123152432D01*
X212073450Y-123150348D01*
X212240383Y-123102256D01*
X212244839Y-123101086D01*
X212397987Y-123064790D01*
X212404158Y-123063536D01*
X212575267Y-123034464D01*
X212580263Y-123033747D01*
X212736667Y-123015466D01*
X212742578Y-123014956D01*
X212915738Y-123005231D01*
X212921289Y-123005076D01*
X213078711Y-123005076D01*
X213084261Y-123005231D01*
X213257415Y-123014955D01*
X213263338Y-123015467D01*
X213419725Y-123033746D01*
X213424743Y-123034465D01*
X213595829Y-123063534D01*
X213602024Y-123064792D01*
X213755140Y-123101081D01*
X213759637Y-123102262D01*
X213926532Y-123150343D01*
X213932964Y-123152438D01*
X214080617Y-123206180D01*
X214084628Y-123207740D01*
X214245201Y-123274251D01*
X214251716Y-123277231D01*
X214391997Y-123347683D01*
X214395410Y-123349482D01*
X214402290Y-123353285D01*
X214547744Y-123433675D01*
X214554257Y-123437609D01*
X214685064Y-123523642D01*
X214687951Y-123525614D01*
X214830179Y-123626530D01*
X214836527Y-123631433D01*
X214956147Y-123731806D01*
X214958479Y-123733826D01*
X215088840Y-123850324D01*
X215094882Y-123856204D01*
X215201640Y-123969360D01*
X215203440Y-123971321D01*
X215226815Y-123997477D01*
X215320357Y-124102150D01*
X215325948Y-124108999D01*
X215418327Y-124233086D01*
X215419658Y-124234917D01*
X215521713Y-124378751D01*
X215526708Y-124386539D01*
X215603842Y-124520138D01*
X215690273Y-124676523D01*
X215694516Y-124685173D01*
X215754706Y-124824711D01*
X215823817Y-124991558D01*
X215827192Y-125001045D01*
X215869604Y-125142709D01*
X215920627Y-125319815D01*
X215922991Y-125330027D01*
X215947047Y-125466451D01*
X215979419Y-125656982D01*
X215980651Y-125667808D01*
X215986034Y-125760230D01*
X215999343Y-125997222D01*
X215999499Y-126002773D01*
X215999499Y-129019589D01*
X215999500Y-129019594D01*
X215999500Y-147997412D01*
X215999364Y-148002594D01*
X215992509Y-148133382D01*
X215982301Y-148315144D01*
X215981238Y-148325078D01*
X215957394Y-148475629D01*
X215930069Y-148636457D01*
X215928095Y-148645493D01*
X215887579Y-148796702D01*
X215843358Y-148950194D01*
X215840655Y-148958255D01*
X215784337Y-149104969D01*
X215783376Y-149107376D01*
X215723197Y-149252662D01*
X215719942Y-149259722D01*
X215648243Y-149400438D01*
X215646681Y-149403381D01*
X215571001Y-149540315D01*
X215567382Y-149546346D01*
X215481134Y-149679156D01*
X215478846Y-149682526D01*
X215388548Y-149809788D01*
X215384746Y-149814802D01*
X215284942Y-149938050D01*
X215281823Y-149941715D01*
X215177966Y-150057931D01*
X215174151Y-150061967D01*
X215061967Y-150174151D01*
X215057931Y-150177966D01*
X214941715Y-150281823D01*
X214938050Y-150284942D01*
X214814802Y-150384746D01*
X214809788Y-150388548D01*
X214682526Y-150478846D01*
X214679156Y-150481134D01*
X214546346Y-150567382D01*
X214540315Y-150571001D01*
X214403381Y-150646681D01*
X214400438Y-150648243D01*
X214259722Y-150719942D01*
X214252662Y-150723197D01*
X214107376Y-150783376D01*
X214104969Y-150784337D01*
X213958260Y-150840653D01*
X213950189Y-150843359D01*
X213796702Y-150887579D01*
X213645489Y-150928096D01*
X213636461Y-150930067D01*
X213475631Y-150957394D01*
X213325077Y-150981239D01*
X213315145Y-150982301D01*
X213133382Y-150992509D01*
X213005181Y-150999228D01*
X212994819Y-150999228D01*
X212866618Y-150992509D01*
X212684854Y-150982301D01*
X212674919Y-150981238D01*
X212524369Y-150957394D01*
X212393741Y-150935200D01*
X212363536Y-150930068D01*
X212354505Y-150928095D01*
X212203297Y-150887579D01*
X212049804Y-150843358D01*
X212041743Y-150840655D01*
X211895029Y-150784337D01*
X211892622Y-150783376D01*
X211747336Y-150723197D01*
X211740276Y-150719942D01*
X211599560Y-150648243D01*
X211596617Y-150646681D01*
X211459683Y-150571001D01*
X211453652Y-150567382D01*
X211445963Y-150562389D01*
X211320840Y-150481132D01*
X211317472Y-150478846D01*
X211311183Y-150474384D01*
X211287286Y-150457427D01*
X211190210Y-150388548D01*
X211185196Y-150384746D01*
X211061948Y-150284942D01*
X211058283Y-150281823D01*
X210942067Y-150177966D01*
X210938031Y-150174151D01*
X210825847Y-150061967D01*
X210822032Y-150057931D01*
X210799140Y-150032315D01*
X210718169Y-149941708D01*
X210715056Y-149938050D01*
X210660078Y-149870158D01*
X210615249Y-149814798D01*
X210611450Y-149809788D01*
X210581028Y-149766912D01*
X210521137Y-149682504D01*
X210518881Y-149679181D01*
X210432605Y-149546329D01*
X210429008Y-149540334D01*
X210353312Y-149403372D01*
X210351755Y-149400438D01*
X210280056Y-149259722D01*
X210276801Y-149252662D01*
X210216622Y-149107376D01*
X210215661Y-149104969D01*
X210159342Y-148958251D01*
X210156639Y-148950189D01*
X210129875Y-148857290D01*
X210112414Y-148796679D01*
X210071903Y-148645490D01*
X210069931Y-148636460D01*
X210069930Y-148636457D01*
X210042601Y-148475606D01*
X210018756Y-148325050D01*
X210017698Y-148315161D01*
X210007490Y-148133382D01*
X210000635Y-148002594D01*
X210000567Y-148000000D01*
X210594754Y-148000000D01*
X210613720Y-148301457D01*
X210614302Y-148304511D01*
X210614304Y-148304522D01*
X210657993Y-148533547D01*
X210670319Y-148598160D01*
X210671276Y-148601106D01*
X210671277Y-148601109D01*
X210762696Y-148882468D01*
X210762699Y-148882476D01*
X210763659Y-148885430D01*
X210892267Y-149158736D01*
X210893932Y-149161360D01*
X210893935Y-149161365D01*
X211047523Y-149403381D01*
X211054115Y-149413768D01*
X211056100Y-149416167D01*
X211244669Y-149644109D01*
X211244674Y-149644115D01*
X211246651Y-149646504D01*
X211370772Y-149763062D01*
X211425869Y-149814802D01*
X211466838Y-149853274D01*
X211469357Y-149855104D01*
X211708248Y-150028668D01*
X211711205Y-150030816D01*
X211975896Y-150176332D01*
X212256738Y-150287525D01*
X212549302Y-150362642D01*
X212848973Y-150400500D01*
X212852078Y-150400500D01*
X213147922Y-150400500D01*
X213151027Y-150400500D01*
X213450698Y-150362642D01*
X213743262Y-150287525D01*
X214024104Y-150176332D01*
X214288795Y-150030816D01*
X214533162Y-149853274D01*
X214753349Y-149646504D01*
X214945885Y-149413768D01*
X215107733Y-149158736D01*
X215236341Y-148885430D01*
X215329681Y-148598160D01*
X215386280Y-148301457D01*
X215405246Y-148000000D01*
X215386280Y-147698543D01*
X215329681Y-147401840D01*
X215236341Y-147114570D01*
X215107733Y-146841264D01*
X214945885Y-146586232D01*
X214846372Y-146465941D01*
X214755330Y-146355890D01*
X214755325Y-146355885D01*
X214753349Y-146353496D01*
X214617912Y-146226312D01*
X214535435Y-146148860D01*
X214535430Y-146148856D01*
X214533162Y-146146726D01*
X214344872Y-146009926D01*
X214291309Y-145971010D01*
X214291303Y-145971006D01*
X214288795Y-145969184D01*
X214024104Y-145823668D01*
X214021223Y-145822527D01*
X214021216Y-145822524D01*
X213746151Y-145713619D01*
X213746153Y-145713619D01*
X213743262Y-145712475D01*
X213740259Y-145711704D01*
X213740253Y-145711702D01*
X213453705Y-145638130D01*
X213453704Y-145638129D01*
X213450698Y-145637358D01*
X213447617Y-145636968D01*
X213447613Y-145636968D01*
X213154110Y-145599889D01*
X213154102Y-145599888D01*
X213151027Y-145599500D01*
X212848973Y-145599500D01*
X212845898Y-145599888D01*
X212845889Y-145599889D01*
X212552386Y-145636968D01*
X212552379Y-145636969D01*
X212549302Y-145637358D01*
X212546298Y-145638129D01*
X212546294Y-145638130D01*
X212259746Y-145711702D01*
X212259735Y-145711705D01*
X212256738Y-145712475D01*
X212253851Y-145713617D01*
X212253848Y-145713619D01*
X211978783Y-145822524D01*
X211978770Y-145822530D01*
X211975896Y-145823668D01*
X211973179Y-145825161D01*
X211973174Y-145825164D01*
X211713932Y-145967684D01*
X211713922Y-145967690D01*
X211711205Y-145969184D01*
X211708703Y-145971001D01*
X211708690Y-145971010D01*
X211469357Y-146144895D01*
X211469348Y-146144901D01*
X211466838Y-146146726D01*
X211464576Y-146148849D01*
X211464564Y-146148860D01*
X211248918Y-146351367D01*
X211246651Y-146353496D01*
X211244681Y-146355876D01*
X211244669Y-146355890D01*
X211056100Y-146583832D01*
X211054115Y-146586232D01*
X211052449Y-146588856D01*
X211052444Y-146588864D01*
X210893935Y-146838634D01*
X210893928Y-146838646D01*
X210892267Y-146841264D01*
X210763659Y-147114570D01*
X210762701Y-147117518D01*
X210762696Y-147117531D01*
X210671277Y-147398890D01*
X210671275Y-147398897D01*
X210670319Y-147401840D01*
X210669738Y-147404883D01*
X210669736Y-147404893D01*
X210614304Y-147695477D01*
X210614302Y-147695490D01*
X210613720Y-147698543D01*
X210594754Y-148000000D01*
X210000567Y-148000000D01*
X210000500Y-147997414D01*
X210000500Y-146044313D01*
X210003464Y-146035187D01*
X210000977Y-146009926D01*
X210000500Y-146000223D01*
X210000500Y-145912468D01*
X210000500Y-145912466D01*
X209985458Y-145827159D01*
X209986115Y-145822481D01*
X209984302Y-145816503D01*
X209981544Y-145804960D01*
X209970101Y-145740062D01*
X209934212Y-145641461D01*
X209934033Y-145636311D01*
X209932036Y-145632575D01*
X209926317Y-145619766D01*
X209910225Y-145575555D01*
X209850398Y-145471932D01*
X209849125Y-145465944D01*
X209846906Y-145463240D01*
X209837697Y-145449935D01*
X209821973Y-145422700D01*
X209815802Y-145413573D01*
X209815772Y-145413561D01*
X209804159Y-145401857D01*
X209737069Y-145321902D01*
X209734396Y-145315288D01*
X209732271Y-145313544D01*
X209719236Y-145300650D01*
X209710162Y-145289836D01*
X209699349Y-145280763D01*
X209689758Y-145271067D01*
X209678096Y-145262929D01*
X209598141Y-145195839D01*
X209593869Y-145189002D01*
X209592268Y-145188147D01*
X209577301Y-145178028D01*
X209576057Y-145177309D01*
X209576055Y-145177308D01*
X209550060Y-145162300D01*
X209538836Y-145154531D01*
X209528066Y-145149601D01*
X209482282Y-145123167D01*
X209424445Y-145089775D01*
X209424443Y-145089774D01*
X209424441Y-145089773D01*
X209380234Y-145073683D01*
X209367876Y-145068164D01*
X209358535Y-145065785D01*
X209259940Y-145029899D01*
X209195054Y-145018458D01*
X209183508Y-145015700D01*
X209181720Y-145015157D01*
X209172837Y-145014541D01*
X209087532Y-144999500D01*
X209000099Y-144999500D01*
X208999786Y-144999500D01*
X208990082Y-144999023D01*
X208974118Y-144997450D01*
X208955686Y-144999500D01*
X187044313Y-144999500D01*
X187035185Y-144996534D01*
X187009917Y-144999023D01*
X187000213Y-144999500D01*
X186912467Y-144999500D01*
X186827160Y-145014541D01*
X186822477Y-145013882D01*
X186816486Y-145015700D01*
X186804944Y-145018458D01*
X186740063Y-145029898D01*
X186641463Y-145065786D01*
X186636309Y-145065965D01*
X186632565Y-145067967D01*
X186619762Y-145073684D01*
X186575554Y-145089775D01*
X186471930Y-145149602D01*
X186465943Y-145150874D01*
X186463235Y-145153097D01*
X186449933Y-145162303D01*
X186422698Y-145178027D01*
X186413582Y-145184190D01*
X186413572Y-145184215D01*
X186401858Y-145195840D01*
X186321901Y-145262931D01*
X186315287Y-145265603D01*
X186313540Y-145267732D01*
X186300654Y-145280759D01*
X186289836Y-145289836D01*
X186280759Y-145300654D01*
X186271064Y-145310243D01*
X186262931Y-145321901D01*
X186195840Y-145401858D01*
X186189000Y-145406131D01*
X186188143Y-145407736D01*
X186178027Y-145422698D01*
X186162303Y-145449933D01*
X186154528Y-145461166D01*
X186149602Y-145471930D01*
X186089775Y-145575554D01*
X186073684Y-145619762D01*
X186068162Y-145632127D01*
X186065786Y-145641463D01*
X186029898Y-145740063D01*
X186018458Y-145804944D01*
X186015700Y-145816486D01*
X186015156Y-145818279D01*
X186014541Y-145827160D01*
X185999500Y-145912466D01*
X185999500Y-146000213D01*
X185999023Y-146009917D01*
X185997450Y-146025880D01*
X185999500Y-146044313D01*
X185999499Y-147997226D01*
X185999343Y-148002777D01*
X185986034Y-148239769D01*
X185980650Y-148332191D01*
X185979419Y-148343016D01*
X185947047Y-148533547D01*
X185922991Y-148669971D01*
X185920626Y-148680183D01*
X185869604Y-148857290D01*
X185827192Y-148998953D01*
X185823816Y-149008440D01*
X185754706Y-149175288D01*
X185694516Y-149314825D01*
X185690262Y-149323495D01*
X185603844Y-149479858D01*
X185526706Y-149613465D01*
X185521716Y-149621243D01*
X185419658Y-149765081D01*
X185418327Y-149766912D01*
X185325948Y-149890999D01*
X185320357Y-149897848D01*
X185203449Y-150028668D01*
X185201640Y-150030638D01*
X185094882Y-150143794D01*
X185088840Y-150149674D01*
X184958479Y-150266172D01*
X184956147Y-150268192D01*
X184836527Y-150368565D01*
X184830179Y-150373468D01*
X184687951Y-150474384D01*
X184685064Y-150476356D01*
X184554257Y-150562389D01*
X184547744Y-150566323D01*
X184395420Y-150650510D01*
X184391963Y-150652333D01*
X184251735Y-150722758D01*
X184245189Y-150725752D01*
X184084628Y-150792258D01*
X184080603Y-150793823D01*
X183932974Y-150847556D01*
X183926521Y-150849658D01*
X183759675Y-150897726D01*
X183755099Y-150898927D01*
X183602049Y-150935200D01*
X183595801Y-150936469D01*
X183424779Y-150965527D01*
X183419689Y-150966257D01*
X183263346Y-150984530D01*
X183257405Y-150985043D01*
X183090326Y-150994427D01*
X183084260Y-150994768D01*
X183078711Y-150994924D01*
X182921289Y-150994924D01*
X182915739Y-150994768D01*
X182909232Y-150994402D01*
X182742593Y-150985043D01*
X182736652Y-150984530D01*
X182580309Y-150966257D01*
X182575219Y-150965527D01*
X182404197Y-150936469D01*
X182397949Y-150935200D01*
X182244899Y-150898927D01*
X182240323Y-150897726D01*
X182073477Y-150849658D01*
X182067024Y-150847556D01*
X181919395Y-150793823D01*
X181915370Y-150792258D01*
X181754809Y-150725752D01*
X181748263Y-150722758D01*
X181608035Y-150652333D01*
X181604578Y-150650510D01*
X181452254Y-150566323D01*
X181445741Y-150562389D01*
X181314934Y-150476356D01*
X181312047Y-150474384D01*
X181169819Y-150373468D01*
X181163471Y-150368565D01*
X181043851Y-150268192D01*
X181041519Y-150266172D01*
X180911158Y-150149674D01*
X180905116Y-150143794D01*
X180824108Y-150057931D01*
X180798345Y-150030623D01*
X180796549Y-150028668D01*
X180777236Y-150007057D01*
X180679637Y-149897843D01*
X180674056Y-149891006D01*
X180581659Y-149766895D01*
X180580340Y-149765081D01*
X180578907Y-149763062D01*
X180478282Y-149621243D01*
X180473290Y-149613459D01*
X180396164Y-149479873D01*
X180309717Y-149323459D01*
X180305488Y-149314838D01*
X180245293Y-149175288D01*
X180204480Y-149076759D01*
X180176176Y-149008427D01*
X180172808Y-148998958D01*
X180130394Y-148857286D01*
X180112940Y-148796702D01*
X180079367Y-148680170D01*
X180077008Y-148669976D01*
X180052952Y-148533547D01*
X180020577Y-148343000D01*
X180019348Y-148332204D01*
X180013965Y-148239768D01*
X180000656Y-148002777D01*
X180000578Y-148000000D01*
X180594754Y-148000000D01*
X180613720Y-148301457D01*
X180614302Y-148304511D01*
X180614304Y-148304522D01*
X180657993Y-148533547D01*
X180670319Y-148598160D01*
X180671276Y-148601106D01*
X180671277Y-148601109D01*
X180762696Y-148882468D01*
X180762699Y-148882476D01*
X180763659Y-148885430D01*
X180892267Y-149158736D01*
X180893932Y-149161360D01*
X180893935Y-149161365D01*
X181047523Y-149403381D01*
X181054115Y-149413768D01*
X181056100Y-149416167D01*
X181244669Y-149644109D01*
X181244674Y-149644115D01*
X181246651Y-149646504D01*
X181370772Y-149763062D01*
X181425869Y-149814802D01*
X181466838Y-149853274D01*
X181469357Y-149855104D01*
X181708248Y-150028668D01*
X181711205Y-150030816D01*
X181975896Y-150176332D01*
X182256738Y-150287525D01*
X182549302Y-150362642D01*
X182848973Y-150400500D01*
X182852078Y-150400500D01*
X183147922Y-150400500D01*
X183151027Y-150400500D01*
X183450698Y-150362642D01*
X183743262Y-150287525D01*
X184024104Y-150176332D01*
X184288795Y-150030816D01*
X184533162Y-149853274D01*
X184753349Y-149646504D01*
X184945885Y-149413768D01*
X185107733Y-149158736D01*
X185236341Y-148885430D01*
X185329681Y-148598160D01*
X185386280Y-148301457D01*
X185405246Y-148000000D01*
X185386280Y-147698543D01*
X185329681Y-147401840D01*
X185236341Y-147114570D01*
X185107733Y-146841264D01*
X184945885Y-146586232D01*
X184846372Y-146465941D01*
X184755330Y-146355890D01*
X184755325Y-146355885D01*
X184753349Y-146353496D01*
X184617912Y-146226312D01*
X184535435Y-146148860D01*
X184535430Y-146148856D01*
X184533162Y-146146726D01*
X184344872Y-146009926D01*
X184291309Y-145971010D01*
X184291303Y-145971006D01*
X184288795Y-145969184D01*
X184024104Y-145823668D01*
X184021223Y-145822527D01*
X184021216Y-145822524D01*
X183746151Y-145713619D01*
X183746153Y-145713619D01*
X183743262Y-145712475D01*
X183740259Y-145711704D01*
X183740253Y-145711702D01*
X183453705Y-145638130D01*
X183453704Y-145638129D01*
X183450698Y-145637358D01*
X183447617Y-145636968D01*
X183447613Y-145636968D01*
X183154110Y-145599889D01*
X183154102Y-145599888D01*
X183151027Y-145599500D01*
X182848973Y-145599500D01*
X182845898Y-145599888D01*
X182845889Y-145599889D01*
X182552386Y-145636968D01*
X182552379Y-145636969D01*
X182549302Y-145637358D01*
X182546298Y-145638129D01*
X182546294Y-145638130D01*
X182259746Y-145711702D01*
X182259735Y-145711705D01*
X182256738Y-145712475D01*
X182253851Y-145713617D01*
X182253848Y-145713619D01*
X181978783Y-145822524D01*
X181978770Y-145822530D01*
X181975896Y-145823668D01*
X181973179Y-145825161D01*
X181973174Y-145825164D01*
X181713932Y-145967684D01*
X181713922Y-145967690D01*
X181711205Y-145969184D01*
X181708703Y-145971001D01*
X181708690Y-145971010D01*
X181469357Y-146144895D01*
X181469348Y-146144901D01*
X181466838Y-146146726D01*
X181464576Y-146148849D01*
X181464564Y-146148860D01*
X181248918Y-146351367D01*
X181246651Y-146353496D01*
X181244681Y-146355876D01*
X181244669Y-146355890D01*
X181056100Y-146583832D01*
X181054115Y-146586232D01*
X181052449Y-146588856D01*
X181052444Y-146588864D01*
X180893935Y-146838634D01*
X180893928Y-146838646D01*
X180892267Y-146841264D01*
X180763659Y-147114570D01*
X180762701Y-147117518D01*
X180762696Y-147117531D01*
X180671277Y-147398890D01*
X180671275Y-147398897D01*
X180670319Y-147401840D01*
X180669738Y-147404883D01*
X180669736Y-147404893D01*
X180614304Y-147695477D01*
X180614302Y-147695490D01*
X180613720Y-147698543D01*
X180594754Y-148000000D01*
X180000578Y-148000000D01*
X180000500Y-147997226D01*
X180000500Y-144132793D01*
X180589922Y-144132793D01*
X180601555Y-144191278D01*
X180645869Y-144257599D01*
X180690184Y-144287209D01*
X180712191Y-144301914D01*
X180770674Y-144313547D01*
X180770675Y-144313547D01*
X182510169Y-144313547D01*
X182510170Y-144313547D01*
X182568653Y-144301914D01*
X182634974Y-144257599D01*
X182679289Y-144191278D01*
X182690922Y-144132795D01*
X182690922Y-142393299D01*
X182679289Y-142334816D01*
X182652988Y-142295454D01*
X182634974Y-142268494D01*
X182568653Y-142224180D01*
X182568653Y-142224179D01*
X182510170Y-142212547D01*
X180770674Y-142212547D01*
X180741432Y-142218363D01*
X180712190Y-142224180D01*
X180645869Y-142268494D01*
X180601555Y-142334815D01*
X180589922Y-142393300D01*
X180589922Y-144132793D01*
X180000500Y-144132793D01*
X180000500Y-140723047D01*
X180584838Y-140723047D01*
X180605121Y-140928980D01*
X180659190Y-141107223D01*
X180665190Y-141127001D01*
X180762737Y-141309497D01*
X180894012Y-141469457D01*
X181053972Y-141600732D01*
X181236468Y-141698279D01*
X181414168Y-141752183D01*
X181434488Y-141758347D01*
X181640421Y-141778630D01*
X181640421Y-141778629D01*
X181640422Y-141778630D01*
X181846356Y-141758347D01*
X182044376Y-141698279D01*
X182226872Y-141600732D01*
X182386832Y-141469457D01*
X182518107Y-141309497D01*
X182615654Y-141127001D01*
X182615655Y-141126998D01*
X182621091Y-141109079D01*
X182656075Y-141058882D01*
X182713883Y-141038835D01*
X182715828Y-141038816D01*
X184063167Y-141038816D01*
X184121358Y-141057723D01*
X184157322Y-141107223D01*
X184162167Y-141137815D01*
X184162167Y-141583064D01*
X184166034Y-141602504D01*
X184173800Y-141641547D01*
X184218114Y-141707868D01*
X184233305Y-141718018D01*
X184284436Y-141752183D01*
X184342919Y-141763816D01*
X184342920Y-141763816D01*
X185032414Y-141763816D01*
X185032415Y-141763816D01*
X185090898Y-141752183D01*
X185157219Y-141707868D01*
X185201534Y-141641547D01*
X185213167Y-141583064D01*
X185213167Y-140143149D01*
X185232074Y-140084959D01*
X185281574Y-140048995D01*
X185342760Y-140048995D01*
X185382169Y-140073145D01*
X185403169Y-140094144D01*
X185430948Y-140148660D01*
X185432167Y-140164149D01*
X185432167Y-141583064D01*
X185436034Y-141602504D01*
X185443800Y-141641547D01*
X185488114Y-141707868D01*
X185503305Y-141718018D01*
X185554436Y-141752183D01*
X185612919Y-141763816D01*
X185612920Y-141763816D01*
X186302414Y-141763816D01*
X186302415Y-141763816D01*
X186360898Y-141752183D01*
X186427219Y-141707868D01*
X186471534Y-141641547D01*
X186483167Y-141583064D01*
X186483167Y-140143150D01*
X186502074Y-140084959D01*
X186551574Y-140048995D01*
X186612760Y-140048995D01*
X186652171Y-140073146D01*
X186673171Y-140094146D01*
X186700948Y-140148663D01*
X186702167Y-140164149D01*
X186702167Y-141583064D01*
X186706034Y-141602504D01*
X186713800Y-141641547D01*
X186758114Y-141707868D01*
X186773305Y-141718018D01*
X186824436Y-141752183D01*
X186882919Y-141763816D01*
X186882920Y-141763816D01*
X187572414Y-141763816D01*
X187572415Y-141763816D01*
X187630898Y-141752183D01*
X187697219Y-141707868D01*
X187741534Y-141641547D01*
X187753167Y-141583064D01*
X187753167Y-139843568D01*
X187741534Y-139785085D01*
X187716630Y-139747814D01*
X187697219Y-139718763D01*
X187630898Y-139674449D01*
X187630897Y-139674448D01*
X187572415Y-139662816D01*
X187572414Y-139662816D01*
X187203501Y-139662816D01*
X187145310Y-139643909D01*
X187133497Y-139633820D01*
X182925666Y-135425989D01*
X182919832Y-135419621D01*
X182894852Y-135389852D01*
X182861192Y-135370417D01*
X182853912Y-135365779D01*
X182822083Y-135343493D01*
X182820623Y-135343102D01*
X182796750Y-135333213D01*
X182795443Y-135332459D01*
X182795441Y-135332458D01*
X182795440Y-135332458D01*
X182757176Y-135325710D01*
X182748748Y-135323842D01*
X182694344Y-135309265D01*
X182694911Y-135307145D01*
X182660617Y-135299227D01*
X182620477Y-135253049D01*
X182616869Y-135243100D01*
X182615653Y-135239091D01*
X182590453Y-135191946D01*
X182518107Y-135056597D01*
X182386832Y-134896637D01*
X182226872Y-134765362D01*
X182044376Y-134667815D01*
X182044375Y-134667814D01*
X182044374Y-134667814D01*
X181846355Y-134607746D01*
X181640422Y-134587463D01*
X181434488Y-134607746D01*
X181236469Y-134667814D01*
X181053971Y-134765362D01*
X180894012Y-134896637D01*
X180762737Y-135056596D01*
X180665189Y-135239094D01*
X180605121Y-135437113D01*
X180584838Y-135643046D01*
X180605121Y-135848980D01*
X180621734Y-135903745D01*
X180665190Y-136047001D01*
X180762737Y-136229497D01*
X180894012Y-136389457D01*
X181053972Y-136520732D01*
X181236468Y-136618279D01*
X181434488Y-136678347D01*
X181640422Y-136698630D01*
X181846356Y-136678347D01*
X182044376Y-136618279D01*
X182226872Y-136520732D01*
X182386832Y-136389457D01*
X182518107Y-136229497D01*
X182556342Y-136157963D01*
X182600446Y-136115559D01*
X182661054Y-136107176D01*
X182713655Y-136134630D01*
X186072837Y-139493812D01*
X186100614Y-139548329D01*
X186091043Y-139608761D01*
X186047778Y-139652026D01*
X186002833Y-139662816D01*
X185933501Y-139662816D01*
X185875310Y-139643909D01*
X185863497Y-139633820D01*
X184195666Y-137965989D01*
X184189832Y-137959621D01*
X184164852Y-137929852D01*
X184131192Y-137910417D01*
X184123912Y-137905779D01*
X184092083Y-137883493D01*
X184090623Y-137883102D01*
X184066750Y-137873213D01*
X184065443Y-137872459D01*
X184065441Y-137872458D01*
X184065440Y-137872458D01*
X184027176Y-137865710D01*
X184018748Y-137863842D01*
X183981205Y-137853782D01*
X183945728Y-137856886D01*
X183942491Y-137857170D01*
X183933864Y-137857547D01*
X182712876Y-137857547D01*
X182654685Y-137838640D01*
X182618721Y-137789140D01*
X182618138Y-137787282D01*
X182615654Y-137779092D01*
X182518106Y-137596596D01*
X182386832Y-137436637D01*
X182226872Y-137305362D01*
X182044376Y-137207815D01*
X182044375Y-137207814D01*
X182044374Y-137207814D01*
X181846355Y-137147746D01*
X181640421Y-137127463D01*
X181434488Y-137147746D01*
X181236469Y-137207814D01*
X181053971Y-137305362D01*
X180894012Y-137436637D01*
X180762737Y-137596596D01*
X180665189Y-137779094D01*
X180605121Y-137977113D01*
X180584838Y-138183047D01*
X180605121Y-138388980D01*
X180655247Y-138554223D01*
X180665190Y-138587001D01*
X180762737Y-138769497D01*
X180894012Y-138929457D01*
X181053972Y-139060732D01*
X181236468Y-139158279D01*
X181434488Y-139218347D01*
X181640422Y-139238630D01*
X181846356Y-139218347D01*
X182044376Y-139158279D01*
X182226872Y-139060732D01*
X182386832Y-138929457D01*
X182518107Y-138769497D01*
X182615654Y-138587001D01*
X182618138Y-138578811D01*
X182653122Y-138528614D01*
X182710929Y-138508566D01*
X182712876Y-138508547D01*
X183776564Y-138508547D01*
X183834755Y-138527454D01*
X183846568Y-138537543D01*
X184802837Y-139493812D01*
X184830614Y-139548329D01*
X184821043Y-139608761D01*
X184777778Y-139652026D01*
X184732833Y-139662816D01*
X184342919Y-139662816D01*
X184319557Y-139667463D01*
X184284435Y-139674449D01*
X184218114Y-139718763D01*
X184173800Y-139785084D01*
X184162167Y-139843569D01*
X184162167Y-140288816D01*
X184143260Y-140347007D01*
X184093760Y-140382971D01*
X184063167Y-140387816D01*
X182709925Y-140387816D01*
X182651734Y-140368909D01*
X182621358Y-140327100D01*
X182620251Y-140327693D01*
X182615970Y-140319685D01*
X182615770Y-140319409D01*
X182615694Y-140319168D01*
X182574459Y-140242023D01*
X182518107Y-140136597D01*
X182386832Y-139976637D01*
X182226872Y-139845362D01*
X182044376Y-139747815D01*
X182044375Y-139747814D01*
X182044374Y-139747814D01*
X181846355Y-139687746D01*
X181640421Y-139667463D01*
X181434488Y-139687746D01*
X181236469Y-139747814D01*
X181053971Y-139845362D01*
X180894012Y-139976637D01*
X180762737Y-140136596D01*
X180665189Y-140319094D01*
X180605121Y-140517113D01*
X180584838Y-140723047D01*
X180000500Y-140723047D01*
X180000500Y-133103046D01*
X180584838Y-133103046D01*
X180605121Y-133308980D01*
X180658612Y-133485316D01*
X180665190Y-133507001D01*
X180762737Y-133689497D01*
X180894012Y-133849457D01*
X181053972Y-133980732D01*
X181236468Y-134078279D01*
X181434488Y-134138347D01*
X181640422Y-134158630D01*
X181846356Y-134138347D01*
X182044376Y-134078279D01*
X182226872Y-133980732D01*
X182386832Y-133849457D01*
X182518107Y-133689497D01*
X182615654Y-133507001D01*
X182675722Y-133308981D01*
X182696005Y-133103047D01*
X182675722Y-132897113D01*
X182615654Y-132699093D01*
X182611618Y-132691542D01*
X182600862Y-132631309D01*
X182627563Y-132576258D01*
X182628925Y-132574869D01*
X182740978Y-132462817D01*
X182865982Y-132337812D01*
X182920499Y-132310035D01*
X182935986Y-132308816D01*
X185376363Y-132308816D01*
X185434554Y-132327723D01*
X185470518Y-132377223D01*
X185470518Y-132438409D01*
X185458679Y-132462817D01*
X185443800Y-132485084D01*
X185432167Y-132543569D01*
X185432167Y-134283062D01*
X185443800Y-134341547D01*
X185488114Y-134407868D01*
X185501506Y-134416816D01*
X185554436Y-134452183D01*
X185612919Y-134463816D01*
X185612920Y-134463816D01*
X186302414Y-134463816D01*
X186302415Y-134463816D01*
X186360898Y-134452183D01*
X186427219Y-134407868D01*
X186471534Y-134341547D01*
X186483167Y-134283064D01*
X186483167Y-132543568D01*
X186471534Y-132485085D01*
X186456655Y-132462817D01*
X186440047Y-132403929D01*
X186461225Y-132346526D01*
X186512099Y-132312533D01*
X186538971Y-132308816D01*
X186646363Y-132308816D01*
X186704554Y-132327723D01*
X186740518Y-132377223D01*
X186740518Y-132438409D01*
X186728679Y-132462817D01*
X186713800Y-132485084D01*
X186702167Y-132543569D01*
X186702167Y-134283062D01*
X186713800Y-134341547D01*
X186758114Y-134407868D01*
X186830963Y-134456544D01*
X186875862Y-134481686D01*
X186901480Y-134537250D01*
X186902167Y-134548891D01*
X186902167Y-135647781D01*
X186901790Y-135656411D01*
X186898402Y-135695122D01*
X186908462Y-135732666D01*
X186910330Y-135741094D01*
X186913226Y-135757513D01*
X186917079Y-135779361D01*
X186917833Y-135780668D01*
X186927722Y-135804541D01*
X186928113Y-135806001D01*
X186950399Y-135837830D01*
X186955037Y-135845110D01*
X186974470Y-135878768D01*
X186974472Y-135878770D01*
X186974473Y-135878771D01*
X187004250Y-135903757D01*
X187010605Y-135909580D01*
X188756827Y-137655802D01*
X188784604Y-137710319D01*
X188775033Y-137770751D01*
X188731768Y-137814016D01*
X188671336Y-137823587D01*
X188658933Y-137820796D01*
X188581007Y-137797916D01*
X188581005Y-137797916D01*
X188451461Y-137797916D01*
X188327164Y-137834411D01*
X188218182Y-137904450D01*
X188133349Y-138002353D01*
X188079535Y-138120188D01*
X188061099Y-138248415D01*
X188079535Y-138376641D01*
X188133351Y-138494478D01*
X188133351Y-138494479D01*
X188145557Y-138508566D01*
X188147985Y-138511367D01*
X188171804Y-138567726D01*
X188172167Y-138576199D01*
X188172166Y-139577740D01*
X188153259Y-139635931D01*
X188103759Y-139671895D01*
X188094735Y-139674248D01*
X188028114Y-139718763D01*
X187983800Y-139785084D01*
X187983799Y-139785085D01*
X187983800Y-139785085D01*
X187972167Y-139843568D01*
X187972167Y-141583064D01*
X187976034Y-141602504D01*
X187983800Y-141641547D01*
X188028114Y-141707868D01*
X188079817Y-141742414D01*
X188087698Y-141747681D01*
X188100963Y-141756544D01*
X188145862Y-141781686D01*
X188171480Y-141837250D01*
X188172167Y-141848891D01*
X188172167Y-142068104D01*
X188153260Y-142126295D01*
X188103760Y-142162259D01*
X188073167Y-142167104D01*
X187688401Y-142167104D01*
X187686106Y-142167319D01*
X187686089Y-142167320D01*
X187657971Y-142169957D01*
X187657968Y-142169957D01*
X187657968Y-142169958D01*
X187529785Y-142214811D01*
X187529784Y-142214811D01*
X187529783Y-142214812D01*
X187420517Y-142295454D01*
X187348304Y-142393300D01*
X187339874Y-142404722D01*
X187301532Y-142514298D01*
X187295020Y-142532908D01*
X187292383Y-142561026D01*
X187292382Y-142561043D01*
X187292167Y-142563338D01*
X187292167Y-142565648D01*
X187292167Y-142565649D01*
X187292167Y-142843104D01*
X187273260Y-142901295D01*
X187223760Y-142937259D01*
X187193167Y-142942104D01*
X186948521Y-142942104D01*
X186894998Y-142926388D01*
X186781737Y-142853600D01*
X186657439Y-142817104D01*
X186527895Y-142817104D01*
X186403598Y-142853599D01*
X186294616Y-142923638D01*
X186209783Y-143021541D01*
X186155969Y-143139376D01*
X186137533Y-143267603D01*
X186155969Y-143395831D01*
X186209783Y-143513666D01*
X186272431Y-143585966D01*
X186294618Y-143611571D01*
X186403598Y-143681608D01*
X186527895Y-143718104D01*
X186657439Y-143718104D01*
X186781736Y-143681608D01*
X186814801Y-143660358D01*
X186894998Y-143608820D01*
X186948521Y-143593104D01*
X187193167Y-143593104D01*
X187251358Y-143612011D01*
X187287322Y-143661511D01*
X187292167Y-143692103D01*
X187292167Y-143971870D01*
X187292382Y-143974165D01*
X187292383Y-143974181D01*
X187295020Y-144002299D01*
X187295020Y-144002301D01*
X187295021Y-144002303D01*
X187339874Y-144130486D01*
X187420517Y-144239754D01*
X187529785Y-144320397D01*
X187657968Y-144365250D01*
X187688401Y-144368104D01*
X187690712Y-144368104D01*
X188444622Y-144368104D01*
X188446933Y-144368104D01*
X188477366Y-144365250D01*
X188605549Y-144320397D01*
X188714817Y-144239754D01*
X188795460Y-144130486D01*
X188840313Y-144002303D01*
X188843167Y-143971870D01*
X188843167Y-142563338D01*
X188840313Y-142532905D01*
X188828722Y-142499779D01*
X188823167Y-142467083D01*
X188823167Y-141848891D01*
X188842074Y-141790700D01*
X188891574Y-141754736D01*
X188900602Y-141752380D01*
X188900896Y-141752183D01*
X188900898Y-141752183D01*
X188967219Y-141707868D01*
X189011534Y-141641547D01*
X189023167Y-141583064D01*
X189023167Y-139843568D01*
X189011534Y-139785085D01*
X188986630Y-139747814D01*
X188967219Y-139718763D01*
X188894372Y-139670088D01*
X188849469Y-139644941D01*
X188823853Y-139589376D01*
X188823167Y-139577740D01*
X188823167Y-138619054D01*
X188842074Y-138560863D01*
X188847348Y-138554223D01*
X188899116Y-138494478D01*
X188952930Y-138376643D01*
X188971366Y-138248416D01*
X188950905Y-138106100D01*
X188953104Y-138105783D01*
X188948395Y-138064750D01*
X188978480Y-138011472D01*
X189034135Y-137986053D01*
X189094102Y-137998201D01*
X189115428Y-138014403D01*
X193529062Y-142428037D01*
X193534896Y-142434404D01*
X193559877Y-142464175D01*
X193593547Y-142483614D01*
X193600809Y-142488241D01*
X193632648Y-142510535D01*
X193634097Y-142510923D01*
X193634100Y-142510924D01*
X193657982Y-142520815D01*
X193659287Y-142521569D01*
X193693064Y-142527524D01*
X193697552Y-142528316D01*
X193705979Y-142530184D01*
X193743525Y-142540245D01*
X193782238Y-142536857D01*
X193790866Y-142536481D01*
X195690533Y-142536481D01*
X195748724Y-142555388D01*
X195784688Y-142604888D01*
X195784688Y-142666074D01*
X195749323Y-142715134D01*
X195746570Y-142717166D01*
X195746569Y-142717167D01*
X195746568Y-142717168D01*
X195665928Y-142826432D01*
X195665927Y-142826434D01*
X195621074Y-142954617D01*
X195621073Y-142954620D01*
X195618436Y-142982738D01*
X195618435Y-142982755D01*
X195618220Y-142985050D01*
X195618220Y-143718582D01*
X195618435Y-143720877D01*
X195618436Y-143720893D01*
X195621073Y-143749011D01*
X195621073Y-143749013D01*
X195621074Y-143749015D01*
X195665927Y-143877198D01*
X195746570Y-143986466D01*
X195855838Y-144067109D01*
X195984021Y-144111962D01*
X196014454Y-144114816D01*
X196016765Y-144114816D01*
X197370675Y-144114816D01*
X197372986Y-144114816D01*
X197403419Y-144111962D01*
X197531602Y-144067109D01*
X197640870Y-143986466D01*
X197721513Y-143877198D01*
X197723057Y-143872782D01*
X197760123Y-143824103D01*
X197816502Y-143806481D01*
X198131392Y-143806481D01*
X198189583Y-143825388D01*
X198213707Y-143850479D01*
X198230447Y-143875533D01*
X198274761Y-143905143D01*
X198296769Y-143919848D01*
X198355252Y-143931481D01*
X198355253Y-143931481D01*
X200594747Y-143931481D01*
X200594748Y-143931481D01*
X200653231Y-143919848D01*
X200719552Y-143875533D01*
X200763867Y-143809212D01*
X200775500Y-143750729D01*
X200775500Y-143750727D01*
X203924500Y-143750727D01*
X203936133Y-143809212D01*
X203980447Y-143875533D01*
X204024762Y-143905143D01*
X204046769Y-143919848D01*
X204105252Y-143931481D01*
X204105253Y-143931481D01*
X206344747Y-143931481D01*
X206344748Y-143931481D01*
X206403231Y-143919848D01*
X206469552Y-143875533D01*
X206486292Y-143850479D01*
X206534343Y-143812600D01*
X206568608Y-143806481D01*
X206743608Y-143806481D01*
X206797131Y-143822196D01*
X206874227Y-143871743D01*
X206998524Y-143908239D01*
X207128068Y-143908239D01*
X207252365Y-143871743D01*
X207361345Y-143801706D01*
X207446178Y-143703802D01*
X207446177Y-143703802D01*
X207446179Y-143703801D01*
X207499993Y-143585966D01*
X207518429Y-143457739D01*
X207499993Y-143329511D01*
X207446179Y-143211676D01*
X207361346Y-143113773D01*
X207361345Y-143113772D01*
X207306854Y-143078753D01*
X207252364Y-143043734D01*
X207128068Y-143007239D01*
X206998524Y-143007239D01*
X206874225Y-143043735D01*
X206765247Y-143113770D01*
X206758714Y-143121311D01*
X206706318Y-143152908D01*
X206683894Y-143155481D01*
X206568608Y-143155481D01*
X206510417Y-143136574D01*
X206486293Y-143111483D01*
X206469552Y-143086428D01*
X206403231Y-143042114D01*
X206403230Y-143042113D01*
X206344748Y-143030481D01*
X204105252Y-143030481D01*
X204076010Y-143036297D01*
X204046768Y-143042114D01*
X203980447Y-143086428D01*
X203936133Y-143152749D01*
X203924500Y-143211234D01*
X203924500Y-143750727D01*
X200775500Y-143750727D01*
X200775500Y-143211233D01*
X200763867Y-143152750D01*
X200737823Y-143113773D01*
X200719552Y-143086428D01*
X200653231Y-143042114D01*
X200653231Y-143042113D01*
X200594748Y-143030481D01*
X198355252Y-143030481D01*
X198326010Y-143036297D01*
X198296768Y-143042114D01*
X198230447Y-143086428D01*
X198213707Y-143111483D01*
X198165657Y-143149362D01*
X198131392Y-143155481D01*
X197868220Y-143155481D01*
X197810029Y-143136574D01*
X197774065Y-143087074D01*
X197769220Y-143056481D01*
X197769220Y-142987361D01*
X197769220Y-142987360D01*
X197769220Y-142985050D01*
X197766366Y-142954617D01*
X197721513Y-142826434D01*
X197640870Y-142717166D01*
X197638117Y-142715134D01*
X197602526Y-142665369D01*
X197602984Y-142604186D01*
X197639316Y-142554956D01*
X197696907Y-142536481D01*
X198131392Y-142536481D01*
X198189583Y-142555388D01*
X198213707Y-142580479D01*
X198230447Y-142605533D01*
X198272589Y-142633691D01*
X198296769Y-142649848D01*
X198355252Y-142661481D01*
X198355253Y-142661481D01*
X200594747Y-142661481D01*
X200594748Y-142661481D01*
X200653231Y-142649848D01*
X200719552Y-142605533D01*
X200763867Y-142539212D01*
X200775500Y-142480729D01*
X203924500Y-142480729D01*
X203934879Y-142532906D01*
X203936133Y-142539212D01*
X203980447Y-142605533D01*
X204022589Y-142633691D01*
X204046769Y-142649848D01*
X204105252Y-142661481D01*
X204105253Y-142661481D01*
X206344747Y-142661481D01*
X206344748Y-142661481D01*
X206403231Y-142649848D01*
X206469552Y-142605533D01*
X206486292Y-142580479D01*
X206534343Y-142542600D01*
X206568608Y-142536481D01*
X208269551Y-142536481D01*
X208327742Y-142555388D01*
X208339555Y-142565477D01*
X208991145Y-143217068D01*
X208996969Y-143223424D01*
X209021949Y-143253194D01*
X209021951Y-143253195D01*
X209055607Y-143272627D01*
X209062877Y-143277257D01*
X209094720Y-143299554D01*
X209096165Y-143299941D01*
X209096172Y-143299943D01*
X209120054Y-143309834D01*
X209121359Y-143310588D01*
X209121360Y-143310588D01*
X209121362Y-143310589D01*
X209146433Y-143315008D01*
X209159632Y-143317336D01*
X209168042Y-143319199D01*
X209205597Y-143329263D01*
X209205597Y-143329262D01*
X209205598Y-143329263D01*
X209228382Y-143327269D01*
X209244301Y-143325876D01*
X209252929Y-143325500D01*
X211032975Y-143325500D01*
X211091166Y-143344407D01*
X211127130Y-143393907D01*
X211131975Y-143424500D01*
X211131975Y-144069748D01*
X211140940Y-144114816D01*
X211143608Y-144128231D01*
X211187922Y-144194552D01*
X211232236Y-144224162D01*
X211254244Y-144238867D01*
X211312727Y-144250500D01*
X211312728Y-144250500D01*
X213452222Y-144250500D01*
X213452223Y-144250500D01*
X213510706Y-144238867D01*
X213577027Y-144194552D01*
X213621342Y-144128231D01*
X213632975Y-144069748D01*
X213632975Y-141930252D01*
X213621342Y-141871769D01*
X213598277Y-141837250D01*
X213577027Y-141805447D01*
X213510706Y-141761133D01*
X213496700Y-141758347D01*
X213452223Y-141749500D01*
X213022630Y-141749500D01*
X212964439Y-141730593D01*
X212928475Y-141681093D01*
X212928475Y-141619907D01*
X212964439Y-141570407D01*
X212980786Y-141560777D01*
X213010114Y-141547102D01*
X213189352Y-141421598D01*
X213344073Y-141266877D01*
X213469577Y-141087639D01*
X213562050Y-140889330D01*
X213618682Y-140677977D01*
X213637752Y-140460000D01*
X213618682Y-140242023D01*
X213562050Y-140030670D01*
X213559628Y-140025477D01*
X213469578Y-139832364D01*
X213436472Y-139785084D01*
X213344073Y-139653123D01*
X213189352Y-139498402D01*
X213010114Y-139372898D01*
X213010113Y-139372897D01*
X213010111Y-139372896D01*
X212811809Y-139280426D01*
X212600448Y-139223792D01*
X212382475Y-139204722D01*
X212164501Y-139223792D01*
X211953140Y-139280426D01*
X211754839Y-139372896D01*
X211575601Y-139498399D01*
X211420874Y-139653126D01*
X211295371Y-139832364D01*
X211202899Y-140030670D01*
X211194739Y-140061124D01*
X211161415Y-140112438D01*
X211104293Y-140134364D01*
X211099113Y-140134500D01*
X209410239Y-140134500D01*
X209352048Y-140115593D01*
X209340235Y-140105504D01*
X208688653Y-139453923D01*
X208682819Y-139447555D01*
X208657839Y-139417786D01*
X208624179Y-139398351D01*
X208616899Y-139393713D01*
X208585070Y-139371427D01*
X208583610Y-139371036D01*
X208559737Y-139361147D01*
X208558430Y-139360393D01*
X208558428Y-139360392D01*
X208558427Y-139360392D01*
X208520163Y-139353644D01*
X208511735Y-139351776D01*
X208474192Y-139341716D01*
X208438715Y-139344820D01*
X208435478Y-139345104D01*
X208426851Y-139345481D01*
X206568608Y-139345481D01*
X206510417Y-139326574D01*
X206486293Y-139301483D01*
X206469552Y-139276428D01*
X206403231Y-139232114D01*
X206403230Y-139232113D01*
X206344748Y-139220481D01*
X204105252Y-139220481D01*
X204076010Y-139226297D01*
X204046768Y-139232114D01*
X203980447Y-139276428D01*
X203936133Y-139342749D01*
X203924500Y-139401234D01*
X203924500Y-139940727D01*
X203936133Y-139999212D01*
X203980447Y-140065533D01*
X204023267Y-140094144D01*
X204046769Y-140109848D01*
X204105252Y-140121481D01*
X204105253Y-140121481D01*
X206344747Y-140121481D01*
X206344748Y-140121481D01*
X206403231Y-140109848D01*
X206469552Y-140065533D01*
X206486292Y-140040479D01*
X206534343Y-140002600D01*
X206568608Y-139996481D01*
X208269551Y-139996481D01*
X208327742Y-140015388D01*
X208339554Y-140025476D01*
X208682986Y-140368909D01*
X208991145Y-140677068D01*
X208996969Y-140683424D01*
X209021949Y-140713194D01*
X209021951Y-140713195D01*
X209055607Y-140732627D01*
X209062877Y-140737257D01*
X209094720Y-140759554D01*
X209096165Y-140759941D01*
X209096172Y-140759943D01*
X209120054Y-140769834D01*
X209121359Y-140770588D01*
X209121360Y-140770588D01*
X209121362Y-140770589D01*
X209146433Y-140775008D01*
X209159632Y-140777336D01*
X209168042Y-140779199D01*
X209205597Y-140789263D01*
X209205597Y-140789262D01*
X209205598Y-140789263D01*
X209228382Y-140787269D01*
X209244301Y-140785876D01*
X209252929Y-140785500D01*
X211099113Y-140785500D01*
X211157304Y-140804407D01*
X211193268Y-140853907D01*
X211194739Y-140858876D01*
X211202899Y-140889329D01*
X211295371Y-141087636D01*
X211295372Y-141087638D01*
X211295373Y-141087639D01*
X211420877Y-141266877D01*
X211575598Y-141421598D01*
X211754836Y-141547102D01*
X211784160Y-141560776D01*
X211828907Y-141602504D01*
X211840582Y-141662565D01*
X211814724Y-141718018D01*
X211761210Y-141747681D01*
X211742320Y-141749500D01*
X211312727Y-141749500D01*
X211286404Y-141754736D01*
X211254243Y-141761133D01*
X211187922Y-141805447D01*
X211143608Y-141871768D01*
X211131975Y-141930253D01*
X211131975Y-142575500D01*
X211113068Y-142633691D01*
X211063568Y-142669655D01*
X211032975Y-142674500D01*
X209410239Y-142674500D01*
X209352048Y-142655593D01*
X209340235Y-142645504D01*
X208688653Y-141993923D01*
X208682819Y-141987555D01*
X208657839Y-141957786D01*
X208624179Y-141938351D01*
X208616899Y-141933713D01*
X208585070Y-141911427D01*
X208583610Y-141911036D01*
X208559737Y-141901147D01*
X208558430Y-141900393D01*
X208558428Y-141900392D01*
X208558427Y-141900392D01*
X208520163Y-141893644D01*
X208511735Y-141891776D01*
X208474192Y-141881716D01*
X208438715Y-141884820D01*
X208435478Y-141885104D01*
X208426851Y-141885481D01*
X206568608Y-141885481D01*
X206510417Y-141866574D01*
X206486293Y-141841483D01*
X206469552Y-141816428D01*
X206403231Y-141772114D01*
X206403230Y-141772113D01*
X206344748Y-141760481D01*
X204105252Y-141760481D01*
X204088486Y-141763816D01*
X204046768Y-141772114D01*
X203980447Y-141816428D01*
X203936133Y-141882749D01*
X203934115Y-141892895D01*
X203924500Y-141941233D01*
X203924500Y-142480729D01*
X200775500Y-142480729D01*
X200775500Y-141941233D01*
X200763867Y-141882750D01*
X200736293Y-141841483D01*
X200719552Y-141816428D01*
X200653231Y-141772114D01*
X200653231Y-141772113D01*
X200594748Y-141760481D01*
X198355252Y-141760481D01*
X198338486Y-141763816D01*
X198296768Y-141772114D01*
X198230447Y-141816428D01*
X198213707Y-141841483D01*
X198165657Y-141879362D01*
X198131392Y-141885481D01*
X193948166Y-141885481D01*
X193889975Y-141866574D01*
X193878162Y-141856485D01*
X190791174Y-138769497D01*
X187582160Y-135560482D01*
X187554385Y-135505968D01*
X187553167Y-135490493D01*
X187553167Y-134548891D01*
X187572074Y-134490700D01*
X187621574Y-134454736D01*
X187630602Y-134452380D01*
X187630896Y-134452183D01*
X187630898Y-134452183D01*
X187697219Y-134407868D01*
X187741534Y-134341547D01*
X187753167Y-134283064D01*
X187753166Y-132843147D01*
X187772073Y-132784957D01*
X187821573Y-132748993D01*
X187882759Y-132748993D01*
X187922166Y-132773142D01*
X187943172Y-132794147D01*
X187970948Y-132848662D01*
X187972167Y-132864149D01*
X187972167Y-134283062D01*
X187983800Y-134341547D01*
X188028114Y-134407868D01*
X188041506Y-134416816D01*
X188094436Y-134452183D01*
X188122259Y-134457717D01*
X188175643Y-134487613D01*
X188201260Y-134543178D01*
X188189323Y-134603188D01*
X188177766Y-134619645D01*
X188176120Y-134621544D01*
X188108292Y-134699823D01*
X188054479Y-134817656D01*
X188036043Y-134945883D01*
X188054479Y-135074111D01*
X188108293Y-135191946D01*
X188190744Y-135287100D01*
X188193128Y-135289851D01*
X188302108Y-135359888D01*
X188426405Y-135396384D01*
X188555949Y-135396384D01*
X188680246Y-135359888D01*
X188721755Y-135333212D01*
X188793508Y-135287100D01*
X188847031Y-135271384D01*
X189199565Y-135271384D01*
X189208192Y-135271760D01*
X189221456Y-135272921D01*
X189246904Y-135275148D01*
X189246904Y-135275147D01*
X189246906Y-135275148D01*
X189284458Y-135265085D01*
X189292876Y-135263219D01*
X189331144Y-135256472D01*
X189332445Y-135255720D01*
X189356331Y-135245826D01*
X189357783Y-135245438D01*
X189389628Y-135223138D01*
X189396884Y-135218516D01*
X189430554Y-135199078D01*
X189455541Y-135169298D01*
X189461353Y-135162954D01*
X190530164Y-134094144D01*
X190584680Y-134066368D01*
X190645112Y-134075939D01*
X190688377Y-134119204D01*
X190699167Y-134164148D01*
X190699167Y-134487316D01*
X190699448Y-134489935D01*
X190699449Y-134489942D01*
X190703580Y-134528366D01*
X190703582Y-134528380D01*
X190703864Y-134531000D01*
X190704427Y-134533588D01*
X190704428Y-134533594D01*
X190715070Y-134582511D01*
X190715366Y-134583760D01*
X190717546Y-134592668D01*
X190717556Y-134592688D01*
X190717557Y-134592689D01*
X190760567Y-134673401D01*
X190806322Y-134726205D01*
X190823913Y-134744159D01*
X190903730Y-134788806D01*
X190970769Y-134808491D01*
X191028667Y-134816816D01*
X195728022Y-134816816D01*
X195730667Y-134816816D01*
X195774351Y-134812119D01*
X195825862Y-134800913D01*
X195827111Y-134800617D01*
X195836020Y-134798435D01*
X195836034Y-134798427D01*
X195836040Y-134798426D01*
X195853611Y-134789062D01*
X195913855Y-134778383D01*
X195968872Y-134805154D01*
X195997647Y-134859151D01*
X195999167Y-134876432D01*
X195999167Y-135115601D01*
X195980260Y-135173792D01*
X195930760Y-135209756D01*
X195921213Y-135212338D01*
X195874137Y-135222579D01*
X195874119Y-135222583D01*
X195872843Y-135222861D01*
X195871597Y-135223202D01*
X195871576Y-135223208D01*
X195852071Y-135228559D01*
X195846469Y-135230097D01*
X195846468Y-135230097D01*
X195846466Y-135230098D01*
X195759839Y-135279427D01*
X195708710Y-135323731D01*
X195708702Y-135323738D01*
X195707035Y-135325183D01*
X195705507Y-135326765D01*
X195705498Y-135326775D01*
X195675410Y-135357956D01*
X195629201Y-135446294D01*
X195609516Y-135513331D01*
X195599167Y-135585313D01*
X195599167Y-135585316D01*
X195599167Y-137637316D01*
X195599448Y-137639933D01*
X195599449Y-137639945D01*
X195601154Y-137655802D01*
X195605006Y-137691629D01*
X195605565Y-137694201D01*
X195605568Y-137694216D01*
X195615928Y-137741838D01*
X195615934Y-137741864D01*
X195616212Y-137743140D01*
X195616556Y-137744394D01*
X195616559Y-137744406D01*
X195623449Y-137769516D01*
X195671434Y-137853783D01*
X195672779Y-137856144D01*
X195718534Y-137908948D01*
X195751308Y-137940573D01*
X195839643Y-137986781D01*
X195892675Y-138002353D01*
X195906682Y-138006466D01*
X195978664Y-138016816D01*
X195978667Y-138016816D01*
X196210839Y-138016816D01*
X196269030Y-138035723D01*
X196304994Y-138085223D01*
X196304994Y-138146409D01*
X196285659Y-138180646D01*
X196271784Y-138196658D01*
X196217969Y-138314495D01*
X196199533Y-138442721D01*
X196217969Y-138570948D01*
X196271783Y-138688783D01*
X196341722Y-138769497D01*
X196356618Y-138786688D01*
X196465598Y-138856725D01*
X196589895Y-138893221D01*
X196719439Y-138893221D01*
X196843736Y-138856725D01*
X196952716Y-138786688D01*
X197037549Y-138688784D01*
X197037548Y-138688784D01*
X197037550Y-138688783D01*
X197091364Y-138570948D01*
X197102358Y-138494479D01*
X197109800Y-138442721D01*
X197100299Y-138376643D01*
X197091364Y-138314495D01*
X197037549Y-138196658D01*
X197023675Y-138180646D01*
X196999858Y-138124287D01*
X197013717Y-138064692D01*
X197059958Y-138024624D01*
X197098495Y-138016816D01*
X197628020Y-138016816D01*
X197630667Y-138016816D01*
X197684980Y-138010977D01*
X197736491Y-137999771D01*
X197762865Y-137992535D01*
X197849495Y-137943204D01*
X197902299Y-137897449D01*
X197933924Y-137864675D01*
X197980132Y-137776340D01*
X197999817Y-137709301D01*
X198010167Y-137637316D01*
X198010167Y-136459461D01*
X198010120Y-136457692D01*
X198009516Y-136441236D01*
X198009406Y-136439470D01*
X198008254Y-136423589D01*
X198008082Y-136421845D01*
X198008074Y-136421921D01*
X198008074Y-136421915D01*
X198008075Y-136400697D01*
X198008254Y-136399042D01*
X198008254Y-136399039D01*
X198008258Y-136399004D01*
X198008397Y-136397265D01*
X198009516Y-136381396D01*
X198009595Y-136379634D01*
X198010167Y-136363170D01*
X198010183Y-136361405D01*
X198010167Y-134759461D01*
X198010120Y-134757692D01*
X198009516Y-134741236D01*
X198009406Y-134739470D01*
X198008254Y-134723589D01*
X198008082Y-134721845D01*
X198008074Y-134721921D01*
X198008074Y-134721915D01*
X198008075Y-134700697D01*
X198008254Y-134699042D01*
X198008254Y-134699039D01*
X198008258Y-134699004D01*
X198008397Y-134697265D01*
X198009516Y-134681396D01*
X198009595Y-134679634D01*
X198010167Y-134663170D01*
X198010183Y-134661405D01*
X198010167Y-133506840D01*
X198029074Y-133448649D01*
X198078574Y-133412685D01*
X198123254Y-133408848D01*
X198178667Y-133416816D01*
X198200167Y-133416816D01*
X198258358Y-133435723D01*
X198294322Y-133485223D01*
X198299167Y-133515816D01*
X198299167Y-134187316D01*
X198314807Y-134265952D01*
X198321835Y-134282923D01*
X198358469Y-134341224D01*
X198358470Y-134341224D01*
X198358471Y-134341226D01*
X198433060Y-134394147D01*
X198450031Y-134401176D01*
X198483678Y-134407868D01*
X198528666Y-134416816D01*
X198528667Y-134416816D01*
X198733737Y-134416816D01*
X198735521Y-134416767D01*
X198745755Y-134416381D01*
X198749336Y-134416316D01*
X199819998Y-134416316D01*
X199823579Y-134416381D01*
X199835597Y-134416816D01*
X199837394Y-134416832D01*
X199900166Y-134416816D01*
X199958357Y-134435723D01*
X199994321Y-134485223D01*
X199999166Y-134515816D01*
X199999166Y-135587316D01*
X200014807Y-135665952D01*
X200021835Y-135682923D01*
X200058469Y-135741224D01*
X200058470Y-135741224D01*
X200058471Y-135741226D01*
X200133060Y-135794147D01*
X200150031Y-135801176D01*
X200174291Y-135806001D01*
X200228666Y-135816816D01*
X200228667Y-135816816D01*
X202980668Y-135816816D01*
X202993713Y-135814221D01*
X203059303Y-135801176D01*
X203076274Y-135794147D01*
X203134577Y-135757512D01*
X203187498Y-135682923D01*
X203194527Y-135665952D01*
X203210167Y-135587316D01*
X203210167Y-134111316D01*
X203698985Y-134111316D01*
X203719622Y-134268077D01*
X203780131Y-134414157D01*
X203876384Y-134539598D01*
X203957601Y-134601917D01*
X204001826Y-134635852D01*
X204147905Y-134696360D01*
X204304667Y-134716998D01*
X204461429Y-134696360D01*
X204607508Y-134635852D01*
X204732949Y-134539598D01*
X204738871Y-134531880D01*
X204782096Y-134475549D01*
X204832520Y-134440893D01*
X204860638Y-134436816D01*
X205480167Y-134436816D01*
X205538358Y-134455723D01*
X205574322Y-134505223D01*
X205579167Y-134535816D01*
X205579167Y-135526062D01*
X205590800Y-135584547D01*
X205635114Y-135650868D01*
X205657686Y-135665950D01*
X205701436Y-135695183D01*
X205759919Y-135706816D01*
X205759920Y-135706816D01*
X207702414Y-135706816D01*
X207702415Y-135706816D01*
X207760898Y-135695183D01*
X207827219Y-135650868D01*
X207871534Y-135584547D01*
X207883167Y-135526064D01*
X207883167Y-134612012D01*
X211115144Y-134612012D01*
X211119886Y-134635851D01*
X211126777Y-134670495D01*
X211171091Y-134736816D01*
X211204982Y-134759461D01*
X211237413Y-134781131D01*
X211295896Y-134792764D01*
X211295897Y-134792764D01*
X213435391Y-134792764D01*
X213435392Y-134792764D01*
X213493875Y-134781131D01*
X213560196Y-134736816D01*
X213604511Y-134670495D01*
X213616144Y-134612012D01*
X213616144Y-132472516D01*
X213604511Y-132414033D01*
X213579915Y-132377223D01*
X213560196Y-132347711D01*
X213493875Y-132303397D01*
X213493874Y-132303396D01*
X213435392Y-132291764D01*
X211295896Y-132291764D01*
X211266654Y-132297580D01*
X211237412Y-132303397D01*
X211171091Y-132347711D01*
X211126777Y-132414032D01*
X211126776Y-132414033D01*
X211126777Y-132414033D01*
X211115144Y-132472516D01*
X211115144Y-134612012D01*
X207883167Y-134612012D01*
X207883167Y-132696568D01*
X207871534Y-132638085D01*
X207829294Y-132574869D01*
X207827219Y-132571763D01*
X207760898Y-132527449D01*
X207760898Y-132527448D01*
X207702415Y-132515816D01*
X205759919Y-132515816D01*
X205730677Y-132521632D01*
X205701435Y-132527449D01*
X205635114Y-132571763D01*
X205590800Y-132638084D01*
X205579167Y-132696569D01*
X205579167Y-133686816D01*
X205560260Y-133745007D01*
X205510760Y-133780971D01*
X205480167Y-133785816D01*
X204860638Y-133785816D01*
X204802447Y-133766909D01*
X204782096Y-133747083D01*
X204732949Y-133683033D01*
X204607508Y-133586780D01*
X204461428Y-133526271D01*
X204304667Y-133505634D01*
X204147905Y-133526271D01*
X204001825Y-133586780D01*
X203876384Y-133683033D01*
X203780131Y-133808474D01*
X203719622Y-133954554D01*
X203698985Y-134111316D01*
X203210167Y-134111316D01*
X203210167Y-132635316D01*
X203194527Y-132556680D01*
X203187498Y-132539709D01*
X203187498Y-132539708D01*
X203150864Y-132481407D01*
X203076274Y-132428485D01*
X203059301Y-132421455D01*
X202980668Y-132405816D01*
X202980667Y-132405816D01*
X201009167Y-132405816D01*
X200950976Y-132386909D01*
X200915012Y-132337409D01*
X200910167Y-132306816D01*
X200910167Y-129935315D01*
X200894525Y-129856675D01*
X200887495Y-129839703D01*
X200850864Y-129781407D01*
X200821226Y-129760379D01*
X200776274Y-129728485D01*
X200759303Y-129721456D01*
X200759301Y-129721455D01*
X200680668Y-129705816D01*
X200680667Y-129705816D01*
X198928667Y-129705816D01*
X198928666Y-129705816D01*
X198923536Y-129706836D01*
X198862775Y-129699638D01*
X198829413Y-129674568D01*
X198806038Y-129647593D01*
X198805028Y-129646427D01*
X198787437Y-129628473D01*
X198787436Y-129628472D01*
X198707622Y-129583827D01*
X198707621Y-129583826D01*
X198707620Y-129583826D01*
X198640581Y-129564141D01*
X198640578Y-129564140D01*
X198582683Y-129555816D01*
X196028667Y-129555816D01*
X196026048Y-129556097D01*
X196026040Y-129556098D01*
X195987616Y-129560229D01*
X195987599Y-129560231D01*
X195984983Y-129560513D01*
X195982397Y-129561075D01*
X195982388Y-129561077D01*
X195933472Y-129571719D01*
X195932223Y-129572015D01*
X195923314Y-129574195D01*
X195905241Y-129583826D01*
X195842582Y-129617216D01*
X195789778Y-129662971D01*
X195788697Y-129664029D01*
X195788683Y-129664043D01*
X195771823Y-129680562D01*
X195727178Y-129760376D01*
X195707491Y-129827420D01*
X195705725Y-129839706D01*
X195699167Y-129885316D01*
X195699167Y-131787316D01*
X195699448Y-131789935D01*
X195699449Y-131789942D01*
X195703580Y-131828366D01*
X195703582Y-131828380D01*
X195703864Y-131831000D01*
X195704427Y-131833588D01*
X195704428Y-131833594D01*
X195715070Y-131882511D01*
X195715263Y-131883328D01*
X195710715Y-131944327D01*
X195671169Y-131991015D01*
X195619096Y-132005816D01*
X191028667Y-132005816D01*
X191026048Y-132006097D01*
X191026040Y-132006098D01*
X190987616Y-132010229D01*
X190987599Y-132010231D01*
X190984983Y-132010513D01*
X190982397Y-132011075D01*
X190982388Y-132011077D01*
X190933472Y-132021719D01*
X190932223Y-132022015D01*
X190923314Y-132024195D01*
X190879650Y-132047463D01*
X190842582Y-132067216D01*
X190789778Y-132112971D01*
X190788697Y-132114029D01*
X190788683Y-132114043D01*
X190771823Y-132130562D01*
X190727178Y-132210376D01*
X190707491Y-132277420D01*
X190699167Y-132335315D01*
X190699167Y-132963481D01*
X190680260Y-133021672D01*
X190670171Y-133033485D01*
X189112269Y-134591388D01*
X189057752Y-134619165D01*
X189042265Y-134620384D01*
X188975526Y-134620384D01*
X188917335Y-134601477D01*
X188881371Y-134551977D01*
X188881371Y-134490791D01*
X188917335Y-134441291D01*
X188920524Y-134439069D01*
X188967219Y-134407868D01*
X189011534Y-134341547D01*
X189023167Y-134283064D01*
X189023167Y-132543568D01*
X189011534Y-132485085D01*
X188980346Y-132438409D01*
X188967219Y-132418763D01*
X188900898Y-132374449D01*
X188900897Y-132374448D01*
X188842415Y-132362816D01*
X188842414Y-132362816D01*
X188473502Y-132362816D01*
X188415311Y-132343909D01*
X188403498Y-132333820D01*
X187835935Y-131766258D01*
X187830101Y-131759890D01*
X187805121Y-131730121D01*
X187771461Y-131710686D01*
X187764181Y-131706048D01*
X187732352Y-131683762D01*
X187730892Y-131683371D01*
X187707019Y-131673482D01*
X187705712Y-131672728D01*
X187705710Y-131672727D01*
X187705709Y-131672727D01*
X187667445Y-131665979D01*
X187659017Y-131664111D01*
X187621474Y-131654051D01*
X187585997Y-131657155D01*
X187582760Y-131657439D01*
X187574133Y-131657816D01*
X182778687Y-131657816D01*
X182770059Y-131657439D01*
X182766203Y-131657101D01*
X182731344Y-131654051D01*
X182693802Y-131664110D01*
X182685376Y-131665978D01*
X182647109Y-131672726D01*
X182645798Y-131673484D01*
X182621933Y-131683369D01*
X182620471Y-131683760D01*
X182588637Y-131706050D01*
X182581357Y-131710687D01*
X182547697Y-131730121D01*
X182522722Y-131759885D01*
X182516889Y-131766252D01*
X182168598Y-132114543D01*
X182114081Y-132142320D01*
X182053649Y-132132749D01*
X182051929Y-132131851D01*
X182044377Y-132127814D01*
X181846355Y-132067746D01*
X181640422Y-132047463D01*
X181434488Y-132067746D01*
X181236469Y-132127814D01*
X181053971Y-132225362D01*
X180894012Y-132356637D01*
X180762737Y-132516596D01*
X180665189Y-132699094D01*
X180605121Y-132897113D01*
X180584838Y-133103046D01*
X180000500Y-133103046D01*
X180000500Y-126002585D01*
X180000568Y-126000000D01*
X180594754Y-126000000D01*
X180613720Y-126301457D01*
X180614302Y-126304511D01*
X180614304Y-126304522D01*
X180669736Y-126595106D01*
X180670319Y-126598160D01*
X180671276Y-126601106D01*
X180671277Y-126601109D01*
X180762696Y-126882468D01*
X180762699Y-126882476D01*
X180763659Y-126885430D01*
X180892267Y-127158736D01*
X181054115Y-127413768D01*
X181056100Y-127416167D01*
X181244669Y-127644109D01*
X181244674Y-127644115D01*
X181246651Y-127646504D01*
X181466838Y-127853274D01*
X181469357Y-127855104D01*
X181633170Y-127974121D01*
X181711205Y-128030816D01*
X181975896Y-128176332D01*
X182256738Y-128287525D01*
X182549302Y-128362642D01*
X182848973Y-128400500D01*
X182852078Y-128400500D01*
X183147922Y-128400500D01*
X183151027Y-128400500D01*
X183450698Y-128362642D01*
X183743262Y-128287525D01*
X184024104Y-128176332D01*
X184288795Y-128030816D01*
X184533162Y-127853274D01*
X184753349Y-127646504D01*
X184945885Y-127413768D01*
X185107733Y-127158736D01*
X185236341Y-126885430D01*
X185329681Y-126598160D01*
X185386280Y-126301457D01*
X185405246Y-126000000D01*
X185386280Y-125698543D01*
X185329681Y-125401840D01*
X185236341Y-125114570D01*
X185107733Y-124841264D01*
X184945885Y-124586232D01*
X184774242Y-124378751D01*
X184755330Y-124355890D01*
X184755325Y-124355885D01*
X184753349Y-124353496D01*
X184579468Y-124190210D01*
X184535435Y-124148860D01*
X184535430Y-124148856D01*
X184533162Y-124146726D01*
X184509923Y-124129842D01*
X184291309Y-123971010D01*
X184291303Y-123971006D01*
X184288795Y-123969184D01*
X184232128Y-123938031D01*
X184072591Y-123850324D01*
X184024104Y-123823668D01*
X184021223Y-123822527D01*
X184021216Y-123822524D01*
X183808915Y-123738469D01*
X183743262Y-123712475D01*
X183740259Y-123711704D01*
X183740253Y-123711702D01*
X183453705Y-123638130D01*
X183453704Y-123638129D01*
X183450698Y-123637358D01*
X183447617Y-123636968D01*
X183447613Y-123636968D01*
X183154110Y-123599889D01*
X183154102Y-123599888D01*
X183151027Y-123599500D01*
X182848973Y-123599500D01*
X182845898Y-123599888D01*
X182845889Y-123599889D01*
X182552386Y-123636968D01*
X182552379Y-123636969D01*
X182549302Y-123637358D01*
X182546298Y-123638129D01*
X182546294Y-123638130D01*
X182259746Y-123711702D01*
X182259735Y-123711705D01*
X182256738Y-123712475D01*
X182253851Y-123713617D01*
X182253848Y-123713619D01*
X181978783Y-123822524D01*
X181978770Y-123822530D01*
X181975896Y-123823668D01*
X181973179Y-123825161D01*
X181973174Y-123825164D01*
X181713932Y-123967684D01*
X181713922Y-123967690D01*
X181711205Y-123969184D01*
X181708703Y-123971001D01*
X181708690Y-123971010D01*
X181469357Y-124144895D01*
X181469348Y-124144901D01*
X181466838Y-124146726D01*
X181464576Y-124148849D01*
X181464564Y-124148860D01*
X181284940Y-124317540D01*
X181246651Y-124353496D01*
X181244681Y-124355876D01*
X181244669Y-124355890D01*
X181056100Y-124583832D01*
X181054115Y-124586232D01*
X181052449Y-124588856D01*
X181052444Y-124588864D01*
X180893935Y-124838634D01*
X180893928Y-124838646D01*
X180892267Y-124841264D01*
X180890944Y-124844074D01*
X180890942Y-124844079D01*
X180794151Y-125049772D01*
X180763659Y-125114570D01*
X180762701Y-125117518D01*
X180762696Y-125117531D01*
X180671277Y-125398890D01*
X180671275Y-125398897D01*
X180670319Y-125401840D01*
X180669738Y-125404883D01*
X180669736Y-125404893D01*
X180614304Y-125695477D01*
X180614302Y-125695490D01*
X180613720Y-125698543D01*
X180594754Y-126000000D01*
X180000568Y-126000000D01*
X180000636Y-125997404D01*
X180007490Y-125866617D01*
X180017698Y-125684838D01*
X180018757Y-125674938D01*
X180042611Y-125524331D01*
X180069938Y-125363499D01*
X180071895Y-125354539D01*
X180112428Y-125203266D01*
X180156650Y-125049772D01*
X180159334Y-125041769D01*
X180215690Y-124894954D01*
X180216602Y-124892670D01*
X180276810Y-124747315D01*
X180280047Y-124740295D01*
X180351773Y-124599524D01*
X180353285Y-124596675D01*
X180429022Y-124459640D01*
X180432590Y-124453695D01*
X180518911Y-124320772D01*
X180521105Y-124317540D01*
X180611477Y-124190174D01*
X180615225Y-124185230D01*
X180715096Y-124061900D01*
X180718133Y-124058331D01*
X180822067Y-123942029D01*
X180825812Y-123938067D01*
X180938067Y-123825812D01*
X180942029Y-123822067D01*
X181058331Y-123718133D01*
X181061900Y-123715096D01*
X181185230Y-123615225D01*
X181190174Y-123611477D01*
X181317540Y-123521105D01*
X181320772Y-123518911D01*
X181453695Y-123432590D01*
X181459640Y-123429022D01*
X181596675Y-123353285D01*
X181599524Y-123351773D01*
X181740295Y-123280047D01*
X181747315Y-123276810D01*
X181892670Y-123216602D01*
X181894954Y-123215690D01*
X182041762Y-123159336D01*
X182049786Y-123156646D01*
X182203279Y-123112425D01*
X182354521Y-123071900D01*
X182363522Y-123069934D01*
X182524284Y-123042618D01*
X182674953Y-123018755D01*
X182684834Y-123017699D01*
X182866581Y-123007492D01*
X182994829Y-123000771D01*
X183005171Y-123000771D01*
X183133613Y-123007502D01*
G37*
%TD.AperFunction*%
%TD*%
M02*
