%TF.GenerationSoftware,KiCad,Pcbnew,7.0.2-0*%
%TF.CreationDate,2023-05-15T10:38:26-07:00*%
%TF.ProjectId,RagGuard_V2,52616747-7561-4726-945f-56322e6b6963,rev?*%
%TF.SameCoordinates,Original*%
%TF.FileFunction,Legend,Bot*%
%TF.FilePolarity,Positive*%
%FSLAX46Y46*%
G04 Gerber Fmt 4.6, Leading zero omitted, Abs format (unit mm)*
G04 Created by KiCad (PCBNEW 7.0.2-0) date 2023-05-15 10:38:26*
%MOMM*%
%LPD*%
G01*
G04 APERTURE LIST*
%ADD10C,0.150000*%
%ADD11C,0.120000*%
G04 APERTURE END LIST*
D10*
X208803904Y-118064619D02*
X208803904Y-117064619D01*
X208803904Y-117064619D02*
X208470571Y-117778904D01*
X208470571Y-117778904D02*
X208137238Y-117064619D01*
X208137238Y-117064619D02*
X208137238Y-118064619D01*
X207708666Y-117778904D02*
X207232476Y-117778904D01*
X207803904Y-118064619D02*
X207470571Y-117064619D01*
X207470571Y-117064619D02*
X207137238Y-118064619D01*
X197825799Y-115742441D02*
X197825799Y-114742441D01*
X197825799Y-114742441D02*
X197444847Y-114742441D01*
X197444847Y-114742441D02*
X197349609Y-114790060D01*
X197349609Y-114790060D02*
X197301990Y-114837679D01*
X197301990Y-114837679D02*
X197254371Y-114932917D01*
X197254371Y-114932917D02*
X197254371Y-115075774D01*
X197254371Y-115075774D02*
X197301990Y-115171012D01*
X197301990Y-115171012D02*
X197349609Y-115218631D01*
X197349609Y-115218631D02*
X197444847Y-115266250D01*
X197444847Y-115266250D02*
X197825799Y-115266250D01*
X196492466Y-115218631D02*
X196349609Y-115266250D01*
X196349609Y-115266250D02*
X196301990Y-115313869D01*
X196301990Y-115313869D02*
X196254371Y-115409107D01*
X196254371Y-115409107D02*
X196254371Y-115551964D01*
X196254371Y-115551964D02*
X196301990Y-115647202D01*
X196301990Y-115647202D02*
X196349609Y-115694822D01*
X196349609Y-115694822D02*
X196444847Y-115742441D01*
X196444847Y-115742441D02*
X196825799Y-115742441D01*
X196825799Y-115742441D02*
X196825799Y-114742441D01*
X196825799Y-114742441D02*
X196492466Y-114742441D01*
X196492466Y-114742441D02*
X196397228Y-114790060D01*
X196397228Y-114790060D02*
X196349609Y-114837679D01*
X196349609Y-114837679D02*
X196301990Y-114932917D01*
X196301990Y-114932917D02*
X196301990Y-115028155D01*
X196301990Y-115028155D02*
X196349609Y-115123393D01*
X196349609Y-115123393D02*
X196397228Y-115171012D01*
X196397228Y-115171012D02*
X196492466Y-115218631D01*
X196492466Y-115218631D02*
X196825799Y-115218631D01*
X195301990Y-115742441D02*
X195873418Y-115742441D01*
X195587704Y-115742441D02*
X195587704Y-114742441D01*
X195587704Y-114742441D02*
X195682942Y-114885298D01*
X195682942Y-114885298D02*
X195778180Y-114980536D01*
X195778180Y-114980536D02*
X195873418Y-115028155D01*
X198130090Y-120462196D02*
X197368186Y-120462196D01*
X197749138Y-120843149D02*
X197749138Y-120081244D01*
X196415805Y-119843149D02*
X196891995Y-119843149D01*
X196891995Y-119843149D02*
X196939614Y-120319339D01*
X196939614Y-120319339D02*
X196891995Y-120271720D01*
X196891995Y-120271720D02*
X196796757Y-120224101D01*
X196796757Y-120224101D02*
X196558662Y-120224101D01*
X196558662Y-120224101D02*
X196463424Y-120271720D01*
X196463424Y-120271720D02*
X196415805Y-120319339D01*
X196415805Y-120319339D02*
X196368186Y-120414577D01*
X196368186Y-120414577D02*
X196368186Y-120652672D01*
X196368186Y-120652672D02*
X196415805Y-120747910D01*
X196415805Y-120747910D02*
X196463424Y-120795530D01*
X196463424Y-120795530D02*
X196558662Y-120843149D01*
X196558662Y-120843149D02*
X196796757Y-120843149D01*
X196796757Y-120843149D02*
X196891995Y-120795530D01*
X196891995Y-120795530D02*
X196939614Y-120747910D01*
X196082471Y-119843149D02*
X195749138Y-120843149D01*
X195749138Y-120843149D02*
X195415805Y-119843149D01*
X197114109Y-110636902D02*
X197447442Y-110160711D01*
X197685537Y-110636902D02*
X197685537Y-109636902D01*
X197685537Y-109636902D02*
X197304585Y-109636902D01*
X197304585Y-109636902D02*
X197209347Y-109684521D01*
X197209347Y-109684521D02*
X197161728Y-109732140D01*
X197161728Y-109732140D02*
X197114109Y-109827378D01*
X197114109Y-109827378D02*
X197114109Y-109970235D01*
X197114109Y-109970235D02*
X197161728Y-110065473D01*
X197161728Y-110065473D02*
X197209347Y-110113092D01*
X197209347Y-110113092D02*
X197304585Y-110160711D01*
X197304585Y-110160711D02*
X197685537Y-110160711D01*
X196733156Y-110589283D02*
X196590299Y-110636902D01*
X196590299Y-110636902D02*
X196352204Y-110636902D01*
X196352204Y-110636902D02*
X196256966Y-110589283D01*
X196256966Y-110589283D02*
X196209347Y-110541663D01*
X196209347Y-110541663D02*
X196161728Y-110446425D01*
X196161728Y-110446425D02*
X196161728Y-110351187D01*
X196161728Y-110351187D02*
X196209347Y-110255949D01*
X196209347Y-110255949D02*
X196256966Y-110208330D01*
X196256966Y-110208330D02*
X196352204Y-110160711D01*
X196352204Y-110160711D02*
X196542680Y-110113092D01*
X196542680Y-110113092D02*
X196637918Y-110065473D01*
X196637918Y-110065473D02*
X196685537Y-110017854D01*
X196685537Y-110017854D02*
X196733156Y-109922616D01*
X196733156Y-109922616D02*
X196733156Y-109827378D01*
X196733156Y-109827378D02*
X196685537Y-109732140D01*
X196685537Y-109732140D02*
X196637918Y-109684521D01*
X196637918Y-109684521D02*
X196542680Y-109636902D01*
X196542680Y-109636902D02*
X196304585Y-109636902D01*
X196304585Y-109636902D02*
X196161728Y-109684521D01*
X195876013Y-109636902D02*
X195304585Y-109636902D01*
X195590299Y-110636902D02*
X195590299Y-109636902D01*
X208803904Y-120604619D02*
X208803904Y-119604619D01*
X208803904Y-119604619D02*
X208470571Y-120318904D01*
X208470571Y-120318904D02*
X208137238Y-119604619D01*
X208137238Y-119604619D02*
X208137238Y-120604619D01*
X207327714Y-120080809D02*
X207184857Y-120128428D01*
X207184857Y-120128428D02*
X207137238Y-120176047D01*
X207137238Y-120176047D02*
X207089619Y-120271285D01*
X207089619Y-120271285D02*
X207089619Y-120414142D01*
X207089619Y-120414142D02*
X207137238Y-120509380D01*
X207137238Y-120509380D02*
X207184857Y-120557000D01*
X207184857Y-120557000D02*
X207280095Y-120604619D01*
X207280095Y-120604619D02*
X207661047Y-120604619D01*
X207661047Y-120604619D02*
X207661047Y-119604619D01*
X207661047Y-119604619D02*
X207327714Y-119604619D01*
X207327714Y-119604619D02*
X207232476Y-119652238D01*
X207232476Y-119652238D02*
X207184857Y-119699857D01*
X207184857Y-119699857D02*
X207137238Y-119795095D01*
X207137238Y-119795095D02*
X207137238Y-119890333D01*
X207137238Y-119890333D02*
X207184857Y-119985571D01*
X207184857Y-119985571D02*
X207232476Y-120033190D01*
X207232476Y-120033190D02*
X207327714Y-120080809D01*
X207327714Y-120080809D02*
X207661047Y-120080809D01*
X208803904Y-108031666D02*
X208042000Y-108031666D01*
X208422952Y-108412619D02*
X208422952Y-107650714D01*
X207042000Y-108412619D02*
X207613428Y-108412619D01*
X207327714Y-108412619D02*
X207327714Y-107412619D01*
X207327714Y-107412619D02*
X207422952Y-107555476D01*
X207422952Y-107555476D02*
X207518190Y-107650714D01*
X207518190Y-107650714D02*
X207613428Y-107698333D01*
X206661047Y-107507857D02*
X206613428Y-107460238D01*
X206613428Y-107460238D02*
X206518190Y-107412619D01*
X206518190Y-107412619D02*
X206280095Y-107412619D01*
X206280095Y-107412619D02*
X206184857Y-107460238D01*
X206184857Y-107460238D02*
X206137238Y-107507857D01*
X206137238Y-107507857D02*
X206089619Y-107603095D01*
X206089619Y-107603095D02*
X206089619Y-107698333D01*
X206089619Y-107698333D02*
X206137238Y-107841190D01*
X206137238Y-107841190D02*
X206708666Y-108412619D01*
X206708666Y-108412619D02*
X206089619Y-108412619D01*
X205803904Y-107412619D02*
X205470571Y-108412619D01*
X205470571Y-108412619D02*
X205137238Y-107412619D01*
X208280095Y-110000238D02*
X208375333Y-109952619D01*
X208375333Y-109952619D02*
X208518190Y-109952619D01*
X208518190Y-109952619D02*
X208661047Y-110000238D01*
X208661047Y-110000238D02*
X208756285Y-110095476D01*
X208756285Y-110095476D02*
X208803904Y-110190714D01*
X208803904Y-110190714D02*
X208851523Y-110381190D01*
X208851523Y-110381190D02*
X208851523Y-110524047D01*
X208851523Y-110524047D02*
X208803904Y-110714523D01*
X208803904Y-110714523D02*
X208756285Y-110809761D01*
X208756285Y-110809761D02*
X208661047Y-110905000D01*
X208661047Y-110905000D02*
X208518190Y-110952619D01*
X208518190Y-110952619D02*
X208422952Y-110952619D01*
X208422952Y-110952619D02*
X208280095Y-110905000D01*
X208280095Y-110905000D02*
X208232476Y-110857380D01*
X208232476Y-110857380D02*
X208232476Y-110524047D01*
X208232476Y-110524047D02*
X208422952Y-110524047D01*
X207803904Y-110952619D02*
X207803904Y-109952619D01*
X207803904Y-109952619D02*
X207232476Y-110952619D01*
X207232476Y-110952619D02*
X207232476Y-109952619D01*
X206756285Y-110952619D02*
X206756285Y-109952619D01*
X206756285Y-109952619D02*
X206518190Y-109952619D01*
X206518190Y-109952619D02*
X206375333Y-110000238D01*
X206375333Y-110000238D02*
X206280095Y-110095476D01*
X206280095Y-110095476D02*
X206232476Y-110190714D01*
X206232476Y-110190714D02*
X206184857Y-110381190D01*
X206184857Y-110381190D02*
X206184857Y-110524047D01*
X206184857Y-110524047D02*
X206232476Y-110714523D01*
X206232476Y-110714523D02*
X206280095Y-110809761D01*
X206280095Y-110809761D02*
X206375333Y-110905000D01*
X206375333Y-110905000D02*
X206518190Y-110952619D01*
X206518190Y-110952619D02*
X206756285Y-110952619D01*
X197809398Y-118275711D02*
X197809398Y-117275711D01*
X197809398Y-117275711D02*
X197428446Y-117275711D01*
X197428446Y-117275711D02*
X197333208Y-117323330D01*
X197333208Y-117323330D02*
X197285589Y-117370949D01*
X197285589Y-117370949D02*
X197237970Y-117466187D01*
X197237970Y-117466187D02*
X197237970Y-117609044D01*
X197237970Y-117609044D02*
X197285589Y-117704282D01*
X197285589Y-117704282D02*
X197333208Y-117751901D01*
X197333208Y-117751901D02*
X197428446Y-117799520D01*
X197428446Y-117799520D02*
X197809398Y-117799520D01*
X196476065Y-117751901D02*
X196333208Y-117799520D01*
X196333208Y-117799520D02*
X196285589Y-117847139D01*
X196285589Y-117847139D02*
X196237970Y-117942377D01*
X196237970Y-117942377D02*
X196237970Y-118085234D01*
X196237970Y-118085234D02*
X196285589Y-118180472D01*
X196285589Y-118180472D02*
X196333208Y-118228092D01*
X196333208Y-118228092D02*
X196428446Y-118275711D01*
X196428446Y-118275711D02*
X196809398Y-118275711D01*
X196809398Y-118275711D02*
X196809398Y-117275711D01*
X196809398Y-117275711D02*
X196476065Y-117275711D01*
X196476065Y-117275711D02*
X196380827Y-117323330D01*
X196380827Y-117323330D02*
X196333208Y-117370949D01*
X196333208Y-117370949D02*
X196285589Y-117466187D01*
X196285589Y-117466187D02*
X196285589Y-117561425D01*
X196285589Y-117561425D02*
X196333208Y-117656663D01*
X196333208Y-117656663D02*
X196380827Y-117704282D01*
X196380827Y-117704282D02*
X196476065Y-117751901D01*
X196476065Y-117751901D02*
X196809398Y-117751901D01*
X195618922Y-117275711D02*
X195523684Y-117275711D01*
X195523684Y-117275711D02*
X195428446Y-117323330D01*
X195428446Y-117323330D02*
X195380827Y-117370949D01*
X195380827Y-117370949D02*
X195333208Y-117466187D01*
X195333208Y-117466187D02*
X195285589Y-117656663D01*
X195285589Y-117656663D02*
X195285589Y-117894758D01*
X195285589Y-117894758D02*
X195333208Y-118085234D01*
X195333208Y-118085234D02*
X195380827Y-118180472D01*
X195380827Y-118180472D02*
X195428446Y-118228092D01*
X195428446Y-118228092D02*
X195523684Y-118275711D01*
X195523684Y-118275711D02*
X195618922Y-118275711D01*
X195618922Y-118275711D02*
X195714160Y-118228092D01*
X195714160Y-118228092D02*
X195761779Y-118180472D01*
X195761779Y-118180472D02*
X195809398Y-118085234D01*
X195809398Y-118085234D02*
X195857017Y-117894758D01*
X195857017Y-117894758D02*
X195857017Y-117656663D01*
X195857017Y-117656663D02*
X195809398Y-117466187D01*
X195809398Y-117466187D02*
X195761779Y-117370949D01*
X195761779Y-117370949D02*
X195714160Y-117323330D01*
X195714160Y-117323330D02*
X195618922Y-117275711D01*
X197881904Y-113161619D02*
X197881904Y-112161619D01*
X197881904Y-112161619D02*
X197500952Y-112161619D01*
X197500952Y-112161619D02*
X197405714Y-112209238D01*
X197405714Y-112209238D02*
X197358095Y-112256857D01*
X197358095Y-112256857D02*
X197310476Y-112352095D01*
X197310476Y-112352095D02*
X197310476Y-112494952D01*
X197310476Y-112494952D02*
X197358095Y-112590190D01*
X197358095Y-112590190D02*
X197405714Y-112637809D01*
X197405714Y-112637809D02*
X197500952Y-112685428D01*
X197500952Y-112685428D02*
X197881904Y-112685428D01*
X196548571Y-112637809D02*
X196405714Y-112685428D01*
X196405714Y-112685428D02*
X196358095Y-112733047D01*
X196358095Y-112733047D02*
X196310476Y-112828285D01*
X196310476Y-112828285D02*
X196310476Y-112971142D01*
X196310476Y-112971142D02*
X196358095Y-113066380D01*
X196358095Y-113066380D02*
X196405714Y-113114000D01*
X196405714Y-113114000D02*
X196500952Y-113161619D01*
X196500952Y-113161619D02*
X196881904Y-113161619D01*
X196881904Y-113161619D02*
X196881904Y-112161619D01*
X196881904Y-112161619D02*
X196548571Y-112161619D01*
X196548571Y-112161619D02*
X196453333Y-112209238D01*
X196453333Y-112209238D02*
X196405714Y-112256857D01*
X196405714Y-112256857D02*
X196358095Y-112352095D01*
X196358095Y-112352095D02*
X196358095Y-112447333D01*
X196358095Y-112447333D02*
X196405714Y-112542571D01*
X196405714Y-112542571D02*
X196453333Y-112590190D01*
X196453333Y-112590190D02*
X196548571Y-112637809D01*
X196548571Y-112637809D02*
X196881904Y-112637809D01*
X195929523Y-112256857D02*
X195881904Y-112209238D01*
X195881904Y-112209238D02*
X195786666Y-112161619D01*
X195786666Y-112161619D02*
X195548571Y-112161619D01*
X195548571Y-112161619D02*
X195453333Y-112209238D01*
X195453333Y-112209238D02*
X195405714Y-112256857D01*
X195405714Y-112256857D02*
X195358095Y-112352095D01*
X195358095Y-112352095D02*
X195358095Y-112447333D01*
X195358095Y-112447333D02*
X195405714Y-112590190D01*
X195405714Y-112590190D02*
X195977142Y-113161619D01*
X195977142Y-113161619D02*
X195358095Y-113161619D01*
X197435762Y-107168608D02*
X197531000Y-107120989D01*
X197531000Y-107120989D02*
X197673857Y-107120989D01*
X197673857Y-107120989D02*
X197816714Y-107168608D01*
X197816714Y-107168608D02*
X197911952Y-107263846D01*
X197911952Y-107263846D02*
X197959571Y-107359084D01*
X197959571Y-107359084D02*
X198007190Y-107549560D01*
X198007190Y-107549560D02*
X198007190Y-107692417D01*
X198007190Y-107692417D02*
X197959571Y-107882893D01*
X197959571Y-107882893D02*
X197911952Y-107978131D01*
X197911952Y-107978131D02*
X197816714Y-108073370D01*
X197816714Y-108073370D02*
X197673857Y-108120989D01*
X197673857Y-108120989D02*
X197578619Y-108120989D01*
X197578619Y-108120989D02*
X197435762Y-108073370D01*
X197435762Y-108073370D02*
X197388143Y-108025750D01*
X197388143Y-108025750D02*
X197388143Y-107692417D01*
X197388143Y-107692417D02*
X197578619Y-107692417D01*
X196959571Y-108120989D02*
X196959571Y-107120989D01*
X196959571Y-107120989D02*
X196388143Y-108120989D01*
X196388143Y-108120989D02*
X196388143Y-107120989D01*
X195911952Y-108120989D02*
X195911952Y-107120989D01*
X195911952Y-107120989D02*
X195673857Y-107120989D01*
X195673857Y-107120989D02*
X195531000Y-107168608D01*
X195531000Y-107168608D02*
X195435762Y-107263846D01*
X195435762Y-107263846D02*
X195388143Y-107359084D01*
X195388143Y-107359084D02*
X195340524Y-107549560D01*
X195340524Y-107549560D02*
X195340524Y-107692417D01*
X195340524Y-107692417D02*
X195388143Y-107882893D01*
X195388143Y-107882893D02*
X195435762Y-107978131D01*
X195435762Y-107978131D02*
X195531000Y-108073370D01*
X195531000Y-108073370D02*
X195673857Y-108120989D01*
X195673857Y-108120989D02*
X195911952Y-108120989D01*
D11*
%TO.C,J4*%
X183355000Y-120350000D02*
X183355000Y-121620000D01*
X183355000Y-121620000D02*
X184625000Y-121620000D01*
X185667929Y-107270000D02*
X186065000Y-107270000D01*
X185667929Y-108030000D02*
X186065000Y-108030000D01*
X185667929Y-109810000D02*
X186065000Y-109810000D01*
X185667929Y-110570000D02*
X186065000Y-110570000D01*
X185667929Y-112350000D02*
X186065000Y-112350000D01*
X185667929Y-113110000D02*
X186065000Y-113110000D01*
X185667929Y-114890000D02*
X186065000Y-114890000D01*
X185667929Y-115650000D02*
X186065000Y-115650000D01*
X185667929Y-117430000D02*
X186065000Y-117430000D01*
X185667929Y-118190000D02*
X186065000Y-118190000D01*
X185735000Y-119970000D02*
X186065000Y-119970000D01*
X185735000Y-120730000D02*
X186065000Y-120730000D01*
X186065000Y-106320000D02*
X188725000Y-106320000D01*
X186065000Y-108920000D02*
X188725000Y-108920000D01*
X186065000Y-111460000D02*
X188725000Y-111460000D01*
X186065000Y-114000000D02*
X188725000Y-114000000D01*
X186065000Y-116540000D02*
X188725000Y-116540000D01*
X186065000Y-119080000D02*
X188725000Y-119080000D01*
X186065000Y-121680000D02*
X186065000Y-106320000D01*
X188725000Y-106320000D02*
X188725000Y-121680000D01*
X188725000Y-108030000D02*
X194725000Y-108030000D01*
X188725000Y-110570000D02*
X194725000Y-110570000D01*
X188725000Y-113110000D02*
X194725000Y-113110000D01*
X188725000Y-115650000D02*
X194725000Y-115650000D01*
X188725000Y-118190000D02*
X194725000Y-118190000D01*
X188725000Y-120070000D02*
X194725000Y-120070000D01*
X188725000Y-120190000D02*
X194725000Y-120190000D01*
X188725000Y-120310000D02*
X194725000Y-120310000D01*
X188725000Y-120430000D02*
X194725000Y-120430000D01*
X188725000Y-120550000D02*
X194725000Y-120550000D01*
X188725000Y-120670000D02*
X194725000Y-120670000D01*
X188725000Y-120730000D02*
X194725000Y-120730000D01*
X188725000Y-121680000D02*
X186065000Y-121680000D01*
X194725000Y-107270000D02*
X188725000Y-107270000D01*
X194725000Y-108030000D02*
X194725000Y-107270000D01*
X194725000Y-109810000D02*
X188725000Y-109810000D01*
X194725000Y-110570000D02*
X194725000Y-109810000D01*
X194725000Y-112350000D02*
X188725000Y-112350000D01*
X194725000Y-113110000D02*
X194725000Y-112350000D01*
X194725000Y-114890000D02*
X188725000Y-114890000D01*
X194725000Y-115650000D02*
X194725000Y-114890000D01*
X194725000Y-117430000D02*
X188725000Y-117430000D01*
X194725000Y-118190000D02*
X194725000Y-117430000D01*
X194725000Y-119970000D02*
X188725000Y-119970000D01*
X194725000Y-120730000D02*
X194725000Y-119970000D01*
%TD*%
M02*
