%TF.GenerationSoftware,KiCad,Pcbnew,7.0.2-0*%
%TF.CreationDate,2023-05-15T10:38:26-07:00*%
%TF.ProjectId,RagGuard_V2,52616747-7561-4726-945f-56322e6b6963,rev?*%
%TF.SameCoordinates,Original*%
%TF.FileFunction,Paste,Top*%
%TF.FilePolarity,Positive*%
%FSLAX46Y46*%
G04 Gerber Fmt 4.6, Leading zero omitted, Abs format (unit mm)*
G04 Created by KiCad (PCBNEW 7.0.2-0) date 2023-05-15 10:38:26*
%MOMM*%
%LPD*%
G01*
G04 APERTURE LIST*
G04 Aperture macros list*
%AMRoundRect*
0 Rectangle with rounded corners*
0 $1 Rounding radius*
0 $2 $3 $4 $5 $6 $7 $8 $9 X,Y pos of 4 corners*
0 Add a 4 corners polygon primitive as box body*
4,1,4,$2,$3,$4,$5,$6,$7,$8,$9,$2,$3,0*
0 Add four circle primitives for the rounded corners*
1,1,$1+$1,$2,$3*
1,1,$1+$1,$4,$5*
1,1,$1+$1,$6,$7*
1,1,$1+$1,$8,$9*
0 Add four rect primitives between the rounded corners*
20,1,$1+$1,$2,$3,$4,$5,0*
20,1,$1+$1,$4,$5,$6,$7,0*
20,1,$1+$1,$6,$7,$8,$9,0*
20,1,$1+$1,$8,$9,$2,$3,0*%
G04 Aperture macros list end*
%ADD10RoundRect,0.150000X-0.512500X-0.150000X0.512500X-0.150000X0.512500X0.150000X-0.512500X0.150000X0*%
%ADD11RoundRect,0.250000X-0.325000X-0.650000X0.325000X-0.650000X0.325000X0.650000X-0.325000X0.650000X0*%
%ADD12R,0.650000X1.700000*%
%ADD13RoundRect,0.225000X0.375000X-0.225000X0.375000X0.225000X-0.375000X0.225000X-0.375000X-0.225000X0*%
%ADD14RoundRect,0.250000X0.262500X0.450000X-0.262500X0.450000X-0.262500X-0.450000X0.262500X-0.450000X0*%
%ADD15R,2.400000X3.100000*%
%ADD16R,2.200000X0.500000*%
%ADD17RoundRect,0.250000X0.450000X-0.262500X0.450000X0.262500X-0.450000X0.262500X-0.450000X-0.262500X0*%
%ADD18RoundRect,0.225000X0.225000X0.250000X-0.225000X0.250000X-0.225000X-0.250000X0.225000X-0.250000X0*%
%ADD19R,2.790000X1.903000*%
%ADD20R,1.050000X0.650000*%
%ADD21RoundRect,0.243750X-0.243750X-0.456250X0.243750X-0.456250X0.243750X0.456250X-0.243750X0.456250X0*%
%ADD22RoundRect,0.250000X-0.650000X0.325000X-0.650000X-0.325000X0.650000X-0.325000X0.650000X0.325000X0*%
%ADD23RoundRect,0.200000X0.200000X0.275000X-0.200000X0.275000X-0.200000X-0.275000X0.200000X-0.275000X0*%
G04 APERTURE END LIST*
D10*
%TO.C,U2*%
X196193517Y-108344119D03*
X196193517Y-109294119D03*
X196193517Y-110244119D03*
X198468517Y-110244119D03*
X198468517Y-109294119D03*
X198468517Y-108344119D03*
%TD*%
D11*
%TO.C,C1*%
X195834490Y-112209274D03*
X198784490Y-112209274D03*
%TD*%
D12*
%TO.C,U1*%
X190905000Y-112350000D03*
X189635000Y-112350000D03*
X188365000Y-112350000D03*
X187095000Y-112350000D03*
X187095000Y-119650000D03*
X188365000Y-119650000D03*
X189635000Y-119650000D03*
X190905000Y-119650000D03*
%TD*%
D13*
%TO.C,D2*%
X206082351Y-110918376D03*
X206082351Y-107618376D03*
%TD*%
D14*
%TO.C,R2*%
X209181961Y-113995799D03*
X207356961Y-113995799D03*
%TD*%
D15*
%TO.C,U3*%
X201410000Y-118580000D03*
D16*
X198535000Y-116675000D03*
X198535000Y-117945000D03*
X198535000Y-119215000D03*
X198535000Y-120485000D03*
X204285000Y-120485000D03*
X204285000Y-119215000D03*
X204285000Y-117945000D03*
X204285000Y-116675000D03*
%TD*%
D17*
%TO.C,R1*%
X196210000Y-120512500D03*
X196210000Y-118687500D03*
%TD*%
D18*
%TO.C,C5*%
X190915000Y-121730000D03*
X189365000Y-121730000D03*
%TD*%
D19*
%TO.C,L1*%
X202289724Y-111771249D03*
X202289724Y-106918249D03*
%TD*%
D20*
%TO.C,SW1*%
X191071643Y-110140493D03*
X186921643Y-110140493D03*
X191071643Y-107990493D03*
X186921643Y-107990493D03*
%TD*%
D21*
%TO.C,D1*%
X210831961Y-113995799D03*
X212706961Y-113995799D03*
%TD*%
D18*
%TO.C,C2*%
X198743517Y-106744119D03*
X197193517Y-106744119D03*
%TD*%
D22*
%TO.C,C4*%
X194052627Y-107240246D03*
X194052627Y-110190246D03*
%TD*%
D23*
%TO.C,R3*%
X191211715Y-106292349D03*
X189561715Y-106292349D03*
%TD*%
M02*
