M48
; DRILL file {KiCad 7.0.2-0} date 2023 May 15, Monday 10:38:29
; FORMAT={-:-/ absolute / inch / decimal}
; #@! TF.CreationDate,2023-05-15T10:38:29-07:00
; #@! TF.GenerationSoftware,Kicad,Pcbnew,7.0.2-0
; #@! TF.FileFunction,Plated,1,2,PTH
FMAT,2
INCH
; #@! TA.AperFunction,Plated,PTH,ViaDrill
T1C0.0098
; #@! TA.AperFunction,Plated,PTH,ComponentDrill
T2C0.0130
; #@! TA.AperFunction,Plated,PTH,ComponentDrill
T3C0.0394
; #@! TA.AperFunction,Plated,PTH,ComponentDrill
T4C0.0433
; #@! TA.AperFunction,Plated,PTH,ComponentDrill
T5C0.1260
%
G90
G05
T1
X7.4661Y-4.474
X7.7242Y-4.2053
X7.7685Y-4.3409
X7.7689Y-4.3031
X7.78Y-4.4
X7.78Y-4.43
X7.8163Y-4.6935
X7.9642Y-4.2094
X8.0873Y-4.4955
X8.11Y-4.7436
T2
X7.9039Y-4.6173
X7.9039Y-4.6685
X7.9039Y-4.7197
X7.9551Y-4.6173
X7.9551Y-4.6685
X7.9551Y-4.7197
T3
X7.2687Y-4.2382
X7.2687Y-4.3382
X7.2687Y-4.4382
X7.2687Y-4.5382
X7.2687Y-4.6382
X7.2687Y-4.7382
T4
X8.29Y-4.25
X8.29Y-4.35
X8.29Y-4.6244
X8.29Y-4.7244
T5
X7.3228Y-4.0157
X7.3228Y-4.9606
X8.2677Y-4.0157
X8.2677Y-4.9606
T0
M30
