%TF.GenerationSoftware,KiCad,Pcbnew,7.0.2-0*%
%TF.CreationDate,2023-05-15T10:38:26-07:00*%
%TF.ProjectId,RagGuard_V2,52616747-7561-4726-945f-56322e6b6963,rev?*%
%TF.SameCoordinates,Original*%
%TF.FileFunction,Legend,Top*%
%TF.FilePolarity,Positive*%
%FSLAX46Y46*%
G04 Gerber Fmt 4.6, Leading zero omitted, Abs format (unit mm)*
G04 Created by KiCad (PCBNEW 7.0.2-0) date 2023-05-15 10:38:26*
%MOMM*%
%LPD*%
G01*
G04 APERTURE LIST*
%ADD10C,0.147509*%
%ADD11C,0.140486*%
%ADD12C,0.100000*%
%ADD13C,0.150000*%
%ADD14C,0.120000*%
G04 APERTURE END LIST*
D10*
X200140003Y-116666118D02*
G75*
G03*
X200140003Y-116666118I-73754J0D01*
G01*
X191008629Y-113446380D02*
G75*
G03*
X191008629Y-113446380I-73754J0D01*
G01*
D11*
X197174243Y-108351923D02*
G75*
G03*
X197174243Y-108351923I-70243J0D01*
G01*
D12*
X196153684Y-119816588D02*
X195987018Y-119578493D01*
X195867970Y-119816588D02*
X195867970Y-119316588D01*
X195867970Y-119316588D02*
X196058446Y-119316588D01*
X196058446Y-119316588D02*
X196106065Y-119340398D01*
X196106065Y-119340398D02*
X196129875Y-119364207D01*
X196129875Y-119364207D02*
X196153684Y-119411826D01*
X196153684Y-119411826D02*
X196153684Y-119483255D01*
X196153684Y-119483255D02*
X196129875Y-119530874D01*
X196129875Y-119530874D02*
X196106065Y-119554683D01*
X196106065Y-119554683D02*
X196058446Y-119578493D01*
X196058446Y-119578493D02*
X195867970Y-119578493D01*
X196629875Y-119816588D02*
X196344161Y-119816588D01*
X196487018Y-119816588D02*
X196487018Y-119316588D01*
X196487018Y-119316588D02*
X196439399Y-119388017D01*
X196439399Y-119388017D02*
X196391780Y-119435636D01*
X196391780Y-119435636D02*
X196344161Y-119459445D01*
X188587047Y-115770809D02*
X188587047Y-116175571D01*
X188587047Y-116175571D02*
X188610857Y-116223190D01*
X188610857Y-116223190D02*
X188634666Y-116247000D01*
X188634666Y-116247000D02*
X188682285Y-116270809D01*
X188682285Y-116270809D02*
X188777523Y-116270809D01*
X188777523Y-116270809D02*
X188825142Y-116247000D01*
X188825142Y-116247000D02*
X188848952Y-116223190D01*
X188848952Y-116223190D02*
X188872761Y-116175571D01*
X188872761Y-116175571D02*
X188872761Y-115770809D01*
X189372762Y-116270809D02*
X189087048Y-116270809D01*
X189229905Y-116270809D02*
X189229905Y-115770809D01*
X189229905Y-115770809D02*
X189182286Y-115842238D01*
X189182286Y-115842238D02*
X189134667Y-115889857D01*
X189134667Y-115889857D02*
X189087048Y-115913666D01*
X207588812Y-106557922D02*
X207588812Y-106915065D01*
X207588812Y-106915065D02*
X207565003Y-106986493D01*
X207565003Y-106986493D02*
X207517384Y-107034113D01*
X207517384Y-107034113D02*
X207445955Y-107057922D01*
X207445955Y-107057922D02*
X207398336Y-107057922D01*
X208088812Y-107057922D02*
X207803098Y-107057922D01*
X207945955Y-107057922D02*
X207945955Y-106557922D01*
X207945955Y-106557922D02*
X207898336Y-106629351D01*
X207898336Y-106629351D02*
X207850717Y-106676970D01*
X207850717Y-106676970D02*
X207803098Y-106700779D01*
D13*
X193096189Y-122559619D02*
X192762856Y-122083428D01*
X192524761Y-122559619D02*
X192524761Y-121559619D01*
X192524761Y-121559619D02*
X192905713Y-121559619D01*
X192905713Y-121559619D02*
X193000951Y-121607238D01*
X193000951Y-121607238D02*
X193048570Y-121654857D01*
X193048570Y-121654857D02*
X193096189Y-121750095D01*
X193096189Y-121750095D02*
X193096189Y-121892952D01*
X193096189Y-121892952D02*
X193048570Y-121988190D01*
X193048570Y-121988190D02*
X193000951Y-122035809D01*
X193000951Y-122035809D02*
X192905713Y-122083428D01*
X192905713Y-122083428D02*
X192524761Y-122083428D01*
X193953332Y-122559619D02*
X193953332Y-122035809D01*
X193953332Y-122035809D02*
X193905713Y-121940571D01*
X193905713Y-121940571D02*
X193810475Y-121892952D01*
X193810475Y-121892952D02*
X193619999Y-121892952D01*
X193619999Y-121892952D02*
X193524761Y-121940571D01*
X193953332Y-122512000D02*
X193858094Y-122559619D01*
X193858094Y-122559619D02*
X193619999Y-122559619D01*
X193619999Y-122559619D02*
X193524761Y-122512000D01*
X193524761Y-122512000D02*
X193477142Y-122416761D01*
X193477142Y-122416761D02*
X193477142Y-122321523D01*
X193477142Y-122321523D02*
X193524761Y-122226285D01*
X193524761Y-122226285D02*
X193619999Y-122178666D01*
X193619999Y-122178666D02*
X193858094Y-122178666D01*
X193858094Y-122178666D02*
X193953332Y-122131047D01*
X194858094Y-121892952D02*
X194858094Y-122702476D01*
X194858094Y-122702476D02*
X194810475Y-122797714D01*
X194810475Y-122797714D02*
X194762856Y-122845333D01*
X194762856Y-122845333D02*
X194667618Y-122892952D01*
X194667618Y-122892952D02*
X194524761Y-122892952D01*
X194524761Y-122892952D02*
X194429523Y-122845333D01*
X194858094Y-122512000D02*
X194762856Y-122559619D01*
X194762856Y-122559619D02*
X194572380Y-122559619D01*
X194572380Y-122559619D02*
X194477142Y-122512000D01*
X194477142Y-122512000D02*
X194429523Y-122464380D01*
X194429523Y-122464380D02*
X194381904Y-122369142D01*
X194381904Y-122369142D02*
X194381904Y-122083428D01*
X194381904Y-122083428D02*
X194429523Y-121988190D01*
X194429523Y-121988190D02*
X194477142Y-121940571D01*
X194477142Y-121940571D02*
X194572380Y-121892952D01*
X194572380Y-121892952D02*
X194762856Y-121892952D01*
X194762856Y-121892952D02*
X194858094Y-121940571D01*
X195858094Y-121607238D02*
X195762856Y-121559619D01*
X195762856Y-121559619D02*
X195619999Y-121559619D01*
X195619999Y-121559619D02*
X195477142Y-121607238D01*
X195477142Y-121607238D02*
X195381904Y-121702476D01*
X195381904Y-121702476D02*
X195334285Y-121797714D01*
X195334285Y-121797714D02*
X195286666Y-121988190D01*
X195286666Y-121988190D02*
X195286666Y-122131047D01*
X195286666Y-122131047D02*
X195334285Y-122321523D01*
X195334285Y-122321523D02*
X195381904Y-122416761D01*
X195381904Y-122416761D02*
X195477142Y-122512000D01*
X195477142Y-122512000D02*
X195619999Y-122559619D01*
X195619999Y-122559619D02*
X195715237Y-122559619D01*
X195715237Y-122559619D02*
X195858094Y-122512000D01*
X195858094Y-122512000D02*
X195905713Y-122464380D01*
X195905713Y-122464380D02*
X195905713Y-122131047D01*
X195905713Y-122131047D02*
X195715237Y-122131047D01*
X196762856Y-121892952D02*
X196762856Y-122559619D01*
X196334285Y-121892952D02*
X196334285Y-122416761D01*
X196334285Y-122416761D02*
X196381904Y-122512000D01*
X196381904Y-122512000D02*
X196477142Y-122559619D01*
X196477142Y-122559619D02*
X196619999Y-122559619D01*
X196619999Y-122559619D02*
X196715237Y-122512000D01*
X196715237Y-122512000D02*
X196762856Y-122464380D01*
X197667618Y-122559619D02*
X197667618Y-122035809D01*
X197667618Y-122035809D02*
X197619999Y-121940571D01*
X197619999Y-121940571D02*
X197524761Y-121892952D01*
X197524761Y-121892952D02*
X197334285Y-121892952D01*
X197334285Y-121892952D02*
X197239047Y-121940571D01*
X197667618Y-122512000D02*
X197572380Y-122559619D01*
X197572380Y-122559619D02*
X197334285Y-122559619D01*
X197334285Y-122559619D02*
X197239047Y-122512000D01*
X197239047Y-122512000D02*
X197191428Y-122416761D01*
X197191428Y-122416761D02*
X197191428Y-122321523D01*
X197191428Y-122321523D02*
X197239047Y-122226285D01*
X197239047Y-122226285D02*
X197334285Y-122178666D01*
X197334285Y-122178666D02*
X197572380Y-122178666D01*
X197572380Y-122178666D02*
X197667618Y-122131047D01*
X198143809Y-122559619D02*
X198143809Y-121892952D01*
X198143809Y-122083428D02*
X198191428Y-121988190D01*
X198191428Y-121988190D02*
X198239047Y-121940571D01*
X198239047Y-121940571D02*
X198334285Y-121892952D01*
X198334285Y-121892952D02*
X198429523Y-121892952D01*
X199191428Y-122559619D02*
X199191428Y-121559619D01*
X199191428Y-122512000D02*
X199096190Y-122559619D01*
X199096190Y-122559619D02*
X198905714Y-122559619D01*
X198905714Y-122559619D02*
X198810476Y-122512000D01*
X198810476Y-122512000D02*
X198762857Y-122464380D01*
X198762857Y-122464380D02*
X198715238Y-122369142D01*
X198715238Y-122369142D02*
X198715238Y-122083428D01*
X198715238Y-122083428D02*
X198762857Y-121988190D01*
X198762857Y-121988190D02*
X198810476Y-121940571D01*
X198810476Y-121940571D02*
X198905714Y-121892952D01*
X198905714Y-121892952D02*
X199096190Y-121892952D01*
X199096190Y-121892952D02*
X199191428Y-121940571D01*
X199905714Y-122892952D02*
X199905714Y-121464380D01*
X201191428Y-122559619D02*
X200858095Y-122083428D01*
X200620000Y-122559619D02*
X200620000Y-121559619D01*
X200620000Y-121559619D02*
X201000952Y-121559619D01*
X201000952Y-121559619D02*
X201096190Y-121607238D01*
X201096190Y-121607238D02*
X201143809Y-121654857D01*
X201143809Y-121654857D02*
X201191428Y-121750095D01*
X201191428Y-121750095D02*
X201191428Y-121892952D01*
X201191428Y-121892952D02*
X201143809Y-121988190D01*
X201143809Y-121988190D02*
X201096190Y-122035809D01*
X201096190Y-122035809D02*
X201000952Y-122083428D01*
X201000952Y-122083428D02*
X200620000Y-122083428D01*
X202000952Y-122512000D02*
X201905714Y-122559619D01*
X201905714Y-122559619D02*
X201715238Y-122559619D01*
X201715238Y-122559619D02*
X201620000Y-122512000D01*
X201620000Y-122512000D02*
X201572381Y-122416761D01*
X201572381Y-122416761D02*
X201572381Y-122035809D01*
X201572381Y-122035809D02*
X201620000Y-121940571D01*
X201620000Y-121940571D02*
X201715238Y-121892952D01*
X201715238Y-121892952D02*
X201905714Y-121892952D01*
X201905714Y-121892952D02*
X202000952Y-121940571D01*
X202000952Y-121940571D02*
X202048571Y-122035809D01*
X202048571Y-122035809D02*
X202048571Y-122131047D01*
X202048571Y-122131047D02*
X201572381Y-122226285D01*
X202381905Y-121892952D02*
X202620000Y-122559619D01*
X202620000Y-122559619D02*
X202858095Y-121892952D01*
X203191429Y-121654857D02*
X203239048Y-121607238D01*
X203239048Y-121607238D02*
X203334286Y-121559619D01*
X203334286Y-121559619D02*
X203572381Y-121559619D01*
X203572381Y-121559619D02*
X203667619Y-121607238D01*
X203667619Y-121607238D02*
X203715238Y-121654857D01*
X203715238Y-121654857D02*
X203762857Y-121750095D01*
X203762857Y-121750095D02*
X203762857Y-121845333D01*
X203762857Y-121845333D02*
X203715238Y-121988190D01*
X203715238Y-121988190D02*
X203143810Y-122559619D01*
X203143810Y-122559619D02*
X203762857Y-122559619D01*
D12*
X198175290Y-106821946D02*
X198199100Y-106845755D01*
X198199100Y-106845755D02*
X198222909Y-106917184D01*
X198222909Y-106917184D02*
X198222909Y-106964803D01*
X198222909Y-106964803D02*
X198199100Y-107036231D01*
X198199100Y-107036231D02*
X198151480Y-107083850D01*
X198151480Y-107083850D02*
X198103861Y-107107660D01*
X198103861Y-107107660D02*
X198008623Y-107131469D01*
X198008623Y-107131469D02*
X197937195Y-107131469D01*
X197937195Y-107131469D02*
X197841957Y-107107660D01*
X197841957Y-107107660D02*
X197794338Y-107083850D01*
X197794338Y-107083850D02*
X197746719Y-107036231D01*
X197746719Y-107036231D02*
X197722909Y-106964803D01*
X197722909Y-106964803D02*
X197722909Y-106917184D01*
X197722909Y-106917184D02*
X197746719Y-106845755D01*
X197746719Y-106845755D02*
X197770528Y-106821946D01*
X197770528Y-106631469D02*
X197746719Y-106607660D01*
X197746719Y-106607660D02*
X197722909Y-106560041D01*
X197722909Y-106560041D02*
X197722909Y-106440993D01*
X197722909Y-106440993D02*
X197746719Y-106393374D01*
X197746719Y-106393374D02*
X197770528Y-106369565D01*
X197770528Y-106369565D02*
X197818147Y-106345755D01*
X197818147Y-106345755D02*
X197865766Y-106345755D01*
X197865766Y-106345755D02*
X197937195Y-106369565D01*
X197937195Y-106369565D02*
X198222909Y-106655279D01*
X198222909Y-106655279D02*
X198222909Y-106345755D01*
X190328805Y-121811938D02*
X190352615Y-121835747D01*
X190352615Y-121835747D02*
X190376424Y-121907176D01*
X190376424Y-121907176D02*
X190376424Y-121954795D01*
X190376424Y-121954795D02*
X190352615Y-122026223D01*
X190352615Y-122026223D02*
X190304995Y-122073842D01*
X190304995Y-122073842D02*
X190257376Y-122097652D01*
X190257376Y-122097652D02*
X190162138Y-122121461D01*
X190162138Y-122121461D02*
X190090710Y-122121461D01*
X190090710Y-122121461D02*
X189995472Y-122097652D01*
X189995472Y-122097652D02*
X189947853Y-122073842D01*
X189947853Y-122073842D02*
X189900234Y-122026223D01*
X189900234Y-122026223D02*
X189876424Y-121954795D01*
X189876424Y-121954795D02*
X189876424Y-121907176D01*
X189876424Y-121907176D02*
X189900234Y-121835747D01*
X189900234Y-121835747D02*
X189924043Y-121811938D01*
X189876424Y-121359557D02*
X189876424Y-121597652D01*
X189876424Y-121597652D02*
X190114519Y-121621461D01*
X190114519Y-121621461D02*
X190090710Y-121597652D01*
X190090710Y-121597652D02*
X190066900Y-121550033D01*
X190066900Y-121550033D02*
X190066900Y-121430985D01*
X190066900Y-121430985D02*
X190090710Y-121383366D01*
X190090710Y-121383366D02*
X190114519Y-121359557D01*
X190114519Y-121359557D02*
X190162138Y-121335747D01*
X190162138Y-121335747D02*
X190281186Y-121335747D01*
X190281186Y-121335747D02*
X190328805Y-121359557D01*
X190328805Y-121359557D02*
X190352615Y-121383366D01*
X190352615Y-121383366D02*
X190376424Y-121430985D01*
X190376424Y-121430985D02*
X190376424Y-121550033D01*
X190376424Y-121550033D02*
X190352615Y-121597652D01*
X190352615Y-121597652D02*
X190328805Y-121621461D01*
X190631725Y-106381297D02*
X190393630Y-106547963D01*
X190631725Y-106667011D02*
X190131725Y-106667011D01*
X190131725Y-106667011D02*
X190131725Y-106476535D01*
X190131725Y-106476535D02*
X190155535Y-106428916D01*
X190155535Y-106428916D02*
X190179344Y-106405106D01*
X190179344Y-106405106D02*
X190226963Y-106381297D01*
X190226963Y-106381297D02*
X190298392Y-106381297D01*
X190298392Y-106381297D02*
X190346011Y-106405106D01*
X190346011Y-106405106D02*
X190369820Y-106428916D01*
X190369820Y-106428916D02*
X190393630Y-106476535D01*
X190393630Y-106476535D02*
X190393630Y-106667011D01*
X190131725Y-106214630D02*
X190131725Y-105905106D01*
X190131725Y-105905106D02*
X190322201Y-106071773D01*
X190322201Y-106071773D02*
X190322201Y-106000344D01*
X190322201Y-106000344D02*
X190346011Y-105952725D01*
X190346011Y-105952725D02*
X190369820Y-105928916D01*
X190369820Y-105928916D02*
X190417439Y-105905106D01*
X190417439Y-105905106D02*
X190536487Y-105905106D01*
X190536487Y-105905106D02*
X190584106Y-105928916D01*
X190584106Y-105928916D02*
X190607916Y-105952725D01*
X190607916Y-105952725D02*
X190631725Y-106000344D01*
X190631725Y-106000344D02*
X190631725Y-106143201D01*
X190631725Y-106143201D02*
X190607916Y-106190820D01*
X190607916Y-106190820D02*
X190584106Y-106214630D01*
X207017335Y-116089981D02*
X207017335Y-116447124D01*
X207017335Y-116447124D02*
X206993526Y-116518552D01*
X206993526Y-116518552D02*
X206945907Y-116566172D01*
X206945907Y-116566172D02*
X206874478Y-116589981D01*
X206874478Y-116589981D02*
X206826859Y-116589981D01*
X207231621Y-116137600D02*
X207255430Y-116113791D01*
X207255430Y-116113791D02*
X207303049Y-116089981D01*
X207303049Y-116089981D02*
X207422097Y-116089981D01*
X207422097Y-116089981D02*
X207469716Y-116113791D01*
X207469716Y-116113791D02*
X207493525Y-116137600D01*
X207493525Y-116137600D02*
X207517335Y-116185219D01*
X207517335Y-116185219D02*
X207517335Y-116232838D01*
X207517335Y-116232838D02*
X207493525Y-116304267D01*
X207493525Y-116304267D02*
X207207811Y-116589981D01*
X207207811Y-116589981D02*
X207517335Y-116589981D01*
X208511309Y-114129333D02*
X208273214Y-114295999D01*
X208511309Y-114415047D02*
X208011309Y-114415047D01*
X208011309Y-114415047D02*
X208011309Y-114224571D01*
X208011309Y-114224571D02*
X208035119Y-114176952D01*
X208035119Y-114176952D02*
X208058928Y-114153142D01*
X208058928Y-114153142D02*
X208106547Y-114129333D01*
X208106547Y-114129333D02*
X208177976Y-114129333D01*
X208177976Y-114129333D02*
X208225595Y-114153142D01*
X208225595Y-114153142D02*
X208249404Y-114176952D01*
X208249404Y-114176952D02*
X208273214Y-114224571D01*
X208273214Y-114224571D02*
X208273214Y-114415047D01*
X208058928Y-113938856D02*
X208035119Y-113915047D01*
X208035119Y-113915047D02*
X208011309Y-113867428D01*
X208011309Y-113867428D02*
X208011309Y-113748380D01*
X208011309Y-113748380D02*
X208035119Y-113700761D01*
X208035119Y-113700761D02*
X208058928Y-113676952D01*
X208058928Y-113676952D02*
X208106547Y-113653142D01*
X208106547Y-113653142D02*
X208154166Y-113653142D01*
X208154166Y-113653142D02*
X208225595Y-113676952D01*
X208225595Y-113676952D02*
X208511309Y-113962666D01*
X208511309Y-113962666D02*
X208511309Y-113653142D01*
X202354666Y-109451309D02*
X202116571Y-109451309D01*
X202116571Y-109451309D02*
X202116571Y-108951309D01*
X202783238Y-109451309D02*
X202497524Y-109451309D01*
X202640381Y-109451309D02*
X202640381Y-108951309D01*
X202640381Y-108951309D02*
X202592762Y-109022738D01*
X202592762Y-109022738D02*
X202545143Y-109070357D01*
X202545143Y-109070357D02*
X202497524Y-109094166D01*
X205741303Y-109512517D02*
X205741303Y-109012517D01*
X205741303Y-109012517D02*
X205860351Y-109012517D01*
X205860351Y-109012517D02*
X205931779Y-109036327D01*
X205931779Y-109036327D02*
X205979398Y-109083946D01*
X205979398Y-109083946D02*
X206003208Y-109131565D01*
X206003208Y-109131565D02*
X206027017Y-109226803D01*
X206027017Y-109226803D02*
X206027017Y-109298231D01*
X206027017Y-109298231D02*
X206003208Y-109393469D01*
X206003208Y-109393469D02*
X205979398Y-109441088D01*
X205979398Y-109441088D02*
X205931779Y-109488708D01*
X205931779Y-109488708D02*
X205860351Y-109512517D01*
X205860351Y-109512517D02*
X205741303Y-109512517D01*
X206217494Y-109060136D02*
X206241303Y-109036327D01*
X206241303Y-109036327D02*
X206288922Y-109012517D01*
X206288922Y-109012517D02*
X206407970Y-109012517D01*
X206407970Y-109012517D02*
X206455589Y-109036327D01*
X206455589Y-109036327D02*
X206479398Y-109060136D01*
X206479398Y-109060136D02*
X206503208Y-109107755D01*
X206503208Y-109107755D02*
X206503208Y-109155374D01*
X206503208Y-109155374D02*
X206479398Y-109226803D01*
X206479398Y-109226803D02*
X206193684Y-109512517D01*
X206193684Y-109512517D02*
X206503208Y-109512517D01*
X193972666Y-108895690D02*
X193948857Y-108919500D01*
X193948857Y-108919500D02*
X193877428Y-108943309D01*
X193877428Y-108943309D02*
X193829809Y-108943309D01*
X193829809Y-108943309D02*
X193758381Y-108919500D01*
X193758381Y-108919500D02*
X193710762Y-108871880D01*
X193710762Y-108871880D02*
X193686952Y-108824261D01*
X193686952Y-108824261D02*
X193663143Y-108729023D01*
X193663143Y-108729023D02*
X193663143Y-108657595D01*
X193663143Y-108657595D02*
X193686952Y-108562357D01*
X193686952Y-108562357D02*
X193710762Y-108514738D01*
X193710762Y-108514738D02*
X193758381Y-108467119D01*
X193758381Y-108467119D02*
X193829809Y-108443309D01*
X193829809Y-108443309D02*
X193877428Y-108443309D01*
X193877428Y-108443309D02*
X193948857Y-108467119D01*
X193948857Y-108467119D02*
X193972666Y-108490928D01*
X194401238Y-108609976D02*
X194401238Y-108943309D01*
X194282190Y-108419500D02*
X194163143Y-108776642D01*
X194163143Y-108776642D02*
X194472666Y-108776642D01*
X201041047Y-116317309D02*
X201041047Y-116722071D01*
X201041047Y-116722071D02*
X201064857Y-116769690D01*
X201064857Y-116769690D02*
X201088666Y-116793500D01*
X201088666Y-116793500D02*
X201136285Y-116817309D01*
X201136285Y-116817309D02*
X201231523Y-116817309D01*
X201231523Y-116817309D02*
X201279142Y-116793500D01*
X201279142Y-116793500D02*
X201302952Y-116769690D01*
X201302952Y-116769690D02*
X201326761Y-116722071D01*
X201326761Y-116722071D02*
X201326761Y-116317309D01*
X201517238Y-116317309D02*
X201826762Y-116317309D01*
X201826762Y-116317309D02*
X201660095Y-116507785D01*
X201660095Y-116507785D02*
X201731524Y-116507785D01*
X201731524Y-116507785D02*
X201779143Y-116531595D01*
X201779143Y-116531595D02*
X201802952Y-116555404D01*
X201802952Y-116555404D02*
X201826762Y-116603023D01*
X201826762Y-116603023D02*
X201826762Y-116722071D01*
X201826762Y-116722071D02*
X201802952Y-116769690D01*
X201802952Y-116769690D02*
X201779143Y-116793500D01*
X201779143Y-116793500D02*
X201731524Y-116817309D01*
X201731524Y-116817309D02*
X201588667Y-116817309D01*
X201588667Y-116817309D02*
X201541048Y-116793500D01*
X201541048Y-116793500D02*
X201517238Y-116769690D01*
X211996312Y-114369867D02*
X211496312Y-114369867D01*
X211496312Y-114369867D02*
X211496312Y-114250819D01*
X211496312Y-114250819D02*
X211520122Y-114179391D01*
X211520122Y-114179391D02*
X211567741Y-114131772D01*
X211567741Y-114131772D02*
X211615360Y-114107962D01*
X211615360Y-114107962D02*
X211710598Y-114084153D01*
X211710598Y-114084153D02*
X211782026Y-114084153D01*
X211782026Y-114084153D02*
X211877264Y-114107962D01*
X211877264Y-114107962D02*
X211924883Y-114131772D01*
X211924883Y-114131772D02*
X211972503Y-114179391D01*
X211972503Y-114179391D02*
X211996312Y-114250819D01*
X211996312Y-114250819D02*
X211996312Y-114369867D01*
X211996312Y-113607962D02*
X211996312Y-113893676D01*
X211996312Y-113750819D02*
X211496312Y-113750819D01*
X211496312Y-113750819D02*
X211567741Y-113798438D01*
X211567741Y-113798438D02*
X211615360Y-113846057D01*
X211615360Y-113846057D02*
X211639169Y-113893676D01*
D13*
X187158380Y-106811619D02*
X186825047Y-106335428D01*
X186586952Y-106811619D02*
X186586952Y-105811619D01*
X186586952Y-105811619D02*
X186967904Y-105811619D01*
X186967904Y-105811619D02*
X187063142Y-105859238D01*
X187063142Y-105859238D02*
X187110761Y-105906857D01*
X187110761Y-105906857D02*
X187158380Y-106002095D01*
X187158380Y-106002095D02*
X187158380Y-106144952D01*
X187158380Y-106144952D02*
X187110761Y-106240190D01*
X187110761Y-106240190D02*
X187063142Y-106287809D01*
X187063142Y-106287809D02*
X186967904Y-106335428D01*
X186967904Y-106335428D02*
X186586952Y-106335428D01*
X187539333Y-106764000D02*
X187682190Y-106811619D01*
X187682190Y-106811619D02*
X187920285Y-106811619D01*
X187920285Y-106811619D02*
X188015523Y-106764000D01*
X188015523Y-106764000D02*
X188063142Y-106716380D01*
X188063142Y-106716380D02*
X188110761Y-106621142D01*
X188110761Y-106621142D02*
X188110761Y-106525904D01*
X188110761Y-106525904D02*
X188063142Y-106430666D01*
X188063142Y-106430666D02*
X188015523Y-106383047D01*
X188015523Y-106383047D02*
X187920285Y-106335428D01*
X187920285Y-106335428D02*
X187729809Y-106287809D01*
X187729809Y-106287809D02*
X187634571Y-106240190D01*
X187634571Y-106240190D02*
X187586952Y-106192571D01*
X187586952Y-106192571D02*
X187539333Y-106097333D01*
X187539333Y-106097333D02*
X187539333Y-106002095D01*
X187539333Y-106002095D02*
X187586952Y-105906857D01*
X187586952Y-105906857D02*
X187634571Y-105859238D01*
X187634571Y-105859238D02*
X187729809Y-105811619D01*
X187729809Y-105811619D02*
X187967904Y-105811619D01*
X187967904Y-105811619D02*
X188110761Y-105859238D01*
X188396476Y-105811619D02*
X188967904Y-105811619D01*
X188682190Y-106811619D02*
X188682190Y-105811619D01*
D12*
X196816968Y-112427725D02*
X196793159Y-112451535D01*
X196793159Y-112451535D02*
X196721730Y-112475344D01*
X196721730Y-112475344D02*
X196674111Y-112475344D01*
X196674111Y-112475344D02*
X196602683Y-112451535D01*
X196602683Y-112451535D02*
X196555064Y-112403915D01*
X196555064Y-112403915D02*
X196531254Y-112356296D01*
X196531254Y-112356296D02*
X196507445Y-112261058D01*
X196507445Y-112261058D02*
X196507445Y-112189630D01*
X196507445Y-112189630D02*
X196531254Y-112094392D01*
X196531254Y-112094392D02*
X196555064Y-112046773D01*
X196555064Y-112046773D02*
X196602683Y-111999154D01*
X196602683Y-111999154D02*
X196674111Y-111975344D01*
X196674111Y-111975344D02*
X196721730Y-111975344D01*
X196721730Y-111975344D02*
X196793159Y-111999154D01*
X196793159Y-111999154D02*
X196816968Y-112022963D01*
X197293159Y-112475344D02*
X197007445Y-112475344D01*
X197150302Y-112475344D02*
X197150302Y-111975344D01*
X197150302Y-111975344D02*
X197102683Y-112046773D01*
X197102683Y-112046773D02*
X197055064Y-112094392D01*
X197055064Y-112094392D02*
X197007445Y-112118201D01*
X188316103Y-109230553D02*
X188387531Y-109254362D01*
X188387531Y-109254362D02*
X188506579Y-109254362D01*
X188506579Y-109254362D02*
X188554198Y-109230553D01*
X188554198Y-109230553D02*
X188578007Y-109206743D01*
X188578007Y-109206743D02*
X188601817Y-109159124D01*
X188601817Y-109159124D02*
X188601817Y-109111505D01*
X188601817Y-109111505D02*
X188578007Y-109063886D01*
X188578007Y-109063886D02*
X188554198Y-109040076D01*
X188554198Y-109040076D02*
X188506579Y-109016267D01*
X188506579Y-109016267D02*
X188411341Y-108992457D01*
X188411341Y-108992457D02*
X188363722Y-108968648D01*
X188363722Y-108968648D02*
X188339912Y-108944838D01*
X188339912Y-108944838D02*
X188316103Y-108897219D01*
X188316103Y-108897219D02*
X188316103Y-108849600D01*
X188316103Y-108849600D02*
X188339912Y-108801981D01*
X188339912Y-108801981D02*
X188363722Y-108778172D01*
X188363722Y-108778172D02*
X188411341Y-108754362D01*
X188411341Y-108754362D02*
X188530388Y-108754362D01*
X188530388Y-108754362D02*
X188601817Y-108778172D01*
X188768483Y-108754362D02*
X188887531Y-109254362D01*
X188887531Y-109254362D02*
X188982769Y-108897219D01*
X188982769Y-108897219D02*
X189078007Y-109254362D01*
X189078007Y-109254362D02*
X189197055Y-108754362D01*
X189649436Y-109254362D02*
X189363722Y-109254362D01*
X189506579Y-109254362D02*
X189506579Y-108754362D01*
X189506579Y-108754362D02*
X189458960Y-108825791D01*
X189458960Y-108825791D02*
X189411341Y-108873410D01*
X189411341Y-108873410D02*
X189363722Y-108897219D01*
D14*
%TO.C,U2*%
X197331017Y-107734119D02*
X195531017Y-107734119D01*
X197331017Y-107734119D02*
X198131017Y-107734119D01*
X197331017Y-110854119D02*
X196531017Y-110854119D01*
X197331017Y-110854119D02*
X198131017Y-110854119D01*
%TO.C,C1*%
X196598238Y-111299274D02*
X198020742Y-111299274D01*
X196598238Y-113119274D02*
X198020742Y-113119274D01*
D13*
%TO.C,U1*%
X191755000Y-113250000D02*
X191550000Y-113250000D01*
X191755000Y-113250000D02*
X191755000Y-118750000D01*
X191550000Y-113250000D02*
X191550000Y-111500000D01*
X186245000Y-113250000D02*
X186545000Y-113250000D01*
X186245000Y-113250000D02*
X186245000Y-118750000D01*
X191755000Y-118750000D02*
X191455000Y-118750000D01*
X186245000Y-118750000D02*
X186545000Y-118750000D01*
D14*
%TO.C,D2*%
X205282351Y-111468376D02*
X206882351Y-111468376D01*
X205282351Y-111468376D02*
X205282351Y-107618376D01*
X206882351Y-111468376D02*
X206882351Y-107618376D01*
%TO.C,R2*%
X208496525Y-114730799D02*
X208042397Y-114730799D01*
X208496525Y-113260799D02*
X208042397Y-113260799D01*
D13*
%TO.C,U3*%
X199335000Y-116005000D02*
X199335000Y-116055000D01*
X199335000Y-116005000D02*
X203485000Y-116005000D01*
X199335000Y-116055000D02*
X197935000Y-116055000D01*
X199335000Y-121155000D02*
X199335000Y-121010000D01*
X199335000Y-121155000D02*
X203485000Y-121155000D01*
X203485000Y-116005000D02*
X203485000Y-116150000D01*
X203485000Y-121155000D02*
X203485000Y-121010000D01*
D14*
%TO.C,R1*%
X195475000Y-119827064D02*
X195475000Y-119372936D01*
X196945000Y-119827064D02*
X196945000Y-119372936D01*
%TO.C,J1*%
X213536000Y-112350000D02*
X214176000Y-112350000D01*
X214176000Y-112350000D02*
X214176000Y-111950000D01*
X207196000Y-112110000D02*
X213936000Y-112110000D01*
X207196000Y-112110000D02*
X207196000Y-106330000D01*
X208316000Y-112110000D02*
X208316000Y-106330000D01*
X213416000Y-112110000D02*
X213416000Y-106330000D01*
X213936000Y-112110000D02*
X213936000Y-106330000D01*
X207196000Y-106330000D02*
X213936000Y-106330000D01*
%TO.C,C5*%
X190280580Y-122240000D02*
X189999420Y-122240000D01*
X190280580Y-121220000D02*
X189999420Y-121220000D01*
%TO.C,L1*%
X199649724Y-111984749D02*
X199649724Y-106704749D01*
X200594724Y-111984749D02*
X199649724Y-111984749D01*
X203984724Y-111984749D02*
X204929724Y-111984749D01*
X204929724Y-111984749D02*
X204929724Y-106704749D01*
X199649724Y-106704749D02*
X200594724Y-106704749D01*
X204929724Y-106704749D02*
X203984724Y-106704749D01*
%TO.C,G\u002A\u002A\u002A*%
G36*
X193107031Y-115825590D02*
G01*
X193110000Y-115840968D01*
X193106350Y-115858742D01*
X193096689Y-115861683D01*
X193089710Y-115856637D01*
X193084082Y-115841219D01*
X193092062Y-115827170D01*
X193096956Y-115824507D01*
X193107031Y-115825590D01*
G37*
G36*
X194414347Y-115640695D02*
G01*
X194414347Y-115662434D01*
X194114347Y-115662434D01*
X193814347Y-115662434D01*
X193814347Y-115640695D01*
X193814347Y-115618956D01*
X194114347Y-115618956D01*
X194414347Y-115618956D01*
X194414347Y-115640695D01*
G37*
G36*
X195030178Y-117026216D02*
G01*
X195031739Y-117035834D01*
X195027746Y-117052481D01*
X195023043Y-117058086D01*
X195016595Y-117055008D01*
X195014347Y-117041208D01*
X195017261Y-117024623D01*
X195023043Y-117018956D01*
X195030178Y-117026216D01*
G37*
G36*
X195083913Y-115966782D02*
G01*
X195083913Y-116045043D01*
X195023043Y-116045043D01*
X194962173Y-116045043D01*
X194962173Y-115966782D01*
X194962173Y-115888521D01*
X195023043Y-115888521D01*
X195083913Y-115888521D01*
X195083913Y-115966782D01*
G37*
G36*
X195063121Y-117019743D02*
G01*
X195073995Y-117034553D01*
X195069799Y-117050293D01*
X195049855Y-117069200D01*
X195047692Y-117070818D01*
X195030567Y-117082818D01*
X195024311Y-117084454D01*
X195026209Y-117076220D01*
X195026842Y-117074628D01*
X195034869Y-117053879D01*
X195042271Y-117033895D01*
X195050137Y-117017916D01*
X195058661Y-117016636D01*
X195063121Y-117019743D01*
G37*
G36*
X194854119Y-117034936D02*
G01*
X194864317Y-117055253D01*
X194871038Y-117061709D01*
X194872591Y-117053696D01*
X194870092Y-117040695D01*
X194868978Y-117023618D01*
X194874274Y-117018956D01*
X194881255Y-117026248D01*
X194882985Y-117043954D01*
X194879172Y-117065817D01*
X194876780Y-117072556D01*
X194871330Y-117080886D01*
X194862457Y-117079184D01*
X194846049Y-117067158D01*
X194830149Y-117052549D01*
X194826516Y-117040882D01*
X194831893Y-117027364D01*
X194842557Y-117007437D01*
X194854119Y-117034936D01*
G37*
G36*
X194879664Y-115940809D02*
G01*
X194881350Y-115942151D01*
X194899977Y-115950569D01*
X194922237Y-115953739D01*
X194943297Y-115957393D01*
X194949130Y-115966782D01*
X194942531Y-115976472D01*
X194923987Y-115978020D01*
X194898773Y-115981034D01*
X194880748Y-115988890D01*
X194864193Y-115999199D01*
X194853112Y-115999956D01*
X194841912Y-115993966D01*
X194834209Y-115980419D01*
X194833605Y-115968958D01*
X194842535Y-115968958D01*
X194845066Y-115975937D01*
X194856212Y-115982350D01*
X194868151Y-115975850D01*
X194873681Y-115963888D01*
X194870054Y-115951505D01*
X194863324Y-115949391D01*
X194847521Y-115955361D01*
X194842535Y-115968958D01*
X194833605Y-115968958D01*
X194833216Y-115961565D01*
X194841892Y-115940218D01*
X194858774Y-115932735D01*
X194879664Y-115940809D01*
G37*
G36*
X193328704Y-116871366D02*
G01*
X193355940Y-116888986D01*
X193368340Y-116899485D01*
X193384584Y-116924350D01*
X193393437Y-116959013D01*
X193393858Y-116997081D01*
X193388414Y-117022838D01*
X193376423Y-117045553D01*
X193357961Y-117066122D01*
X193336354Y-117082695D01*
X193314926Y-117093426D01*
X193297003Y-117096467D01*
X193285908Y-117089970D01*
X193283913Y-117080913D01*
X193291180Y-117066587D01*
X193309995Y-117059392D01*
X193334855Y-117046520D01*
X193355692Y-117021873D01*
X193368568Y-116991065D01*
X193370837Y-116972635D01*
X193364158Y-116949054D01*
X193347414Y-116924969D01*
X193325628Y-116905880D01*
X193303822Y-116897287D01*
X193301973Y-116897217D01*
X193286993Y-116891407D01*
X193283913Y-116879826D01*
X193289840Y-116866122D01*
X193305720Y-116863524D01*
X193328704Y-116871366D01*
G37*
G36*
X195203584Y-115935956D02*
G01*
X195212608Y-115942434D01*
X195222450Y-115961409D01*
X195214999Y-115981567D01*
X195209378Y-115987900D01*
X195192555Y-116000111D01*
X195177700Y-115997047D01*
X195167660Y-115988418D01*
X195148823Y-115979284D01*
X195126072Y-115977548D01*
X195105052Y-115976685D01*
X195095612Y-115968081D01*
X195095343Y-115967153D01*
X195170795Y-115967153D01*
X195176847Y-115978557D01*
X195189437Y-115982080D01*
X195199678Y-115973522D01*
X195201304Y-115966177D01*
X195194076Y-115954414D01*
X195186086Y-115951046D01*
X195173879Y-115954778D01*
X195170795Y-115967153D01*
X195095343Y-115967153D01*
X195094235Y-115963327D01*
X195094168Y-115952714D01*
X195102966Y-115949653D01*
X195121620Y-115951823D01*
X195148989Y-115952268D01*
X195162700Y-115944409D01*
X195181834Y-115933078D01*
X195203584Y-115935956D01*
G37*
G36*
X195252906Y-115885334D02*
G01*
X195266295Y-115896810D01*
X195270380Y-115913889D01*
X195261156Y-115933124D01*
X195261035Y-115933257D01*
X195241617Y-115947652D01*
X195223897Y-115945017D01*
X195213719Y-115935590D01*
X195201893Y-115927517D01*
X195181303Y-115924171D01*
X195149611Y-115924720D01*
X195119597Y-115925556D01*
X195103322Y-115923380D01*
X195098040Y-115918247D01*
X195225457Y-115918247D01*
X195227391Y-115923304D01*
X195238402Y-115931861D01*
X195247165Y-115925436D01*
X195249130Y-115914608D01*
X195245701Y-115900475D01*
X195240947Y-115897217D01*
X195228827Y-115904094D01*
X195225457Y-115918247D01*
X195098040Y-115918247D01*
X195097293Y-115917521D01*
X195096956Y-115914608D01*
X195100389Y-115907260D01*
X195113046Y-115904001D01*
X195138467Y-115904133D01*
X195147463Y-115904627D01*
X195180756Y-115905021D01*
X195202135Y-115900653D01*
X195214231Y-115892974D01*
X195234216Y-115882906D01*
X195252906Y-115885334D01*
G37*
G36*
X194826964Y-115888152D02*
G01*
X194832367Y-115893626D01*
X194844193Y-115901699D01*
X194864783Y-115905046D01*
X194896475Y-115904496D01*
X194926489Y-115903660D01*
X194942764Y-115905836D01*
X194948793Y-115911695D01*
X194949130Y-115914608D01*
X194945759Y-115921855D01*
X194933317Y-115925194D01*
X194908310Y-115925296D01*
X194896475Y-115924720D01*
X194863568Y-115924232D01*
X194843480Y-115927783D01*
X194832367Y-115935590D01*
X194813976Y-115948302D01*
X194796087Y-115946313D01*
X194783964Y-115930483D01*
X194783107Y-115927539D01*
X194783031Y-115917800D01*
X194790678Y-115917800D01*
X194792437Y-115923028D01*
X194805144Y-115930256D01*
X194820852Y-115926902D01*
X194829567Y-115916787D01*
X194826498Y-115905527D01*
X194813863Y-115899345D01*
X194799347Y-115901116D01*
X194795390Y-115904000D01*
X194790678Y-115917800D01*
X194783031Y-115917800D01*
X194782920Y-115903637D01*
X194792956Y-115887186D01*
X194809032Y-115881064D01*
X194826964Y-115888152D01*
G37*
G36*
X193320137Y-116795438D02*
G01*
X193366218Y-116810051D01*
X193408141Y-116839687D01*
X193442897Y-116882016D01*
X193451753Y-116897365D01*
X193466481Y-116928555D01*
X193473002Y-116953712D01*
X193473170Y-116980991D01*
X193472495Y-116988521D01*
X193459436Y-117041920D01*
X193433118Y-117089779D01*
X193396239Y-117128521D01*
X193351498Y-117154570D01*
X193345658Y-117156697D01*
X193311860Y-117165482D01*
X193291029Y-117164543D01*
X193283913Y-117153914D01*
X193283913Y-117153904D01*
X193291408Y-117142968D01*
X193307826Y-117135941D01*
X193355134Y-117117828D01*
X193397772Y-117086266D01*
X193407554Y-117076047D01*
X193428550Y-117040346D01*
X193438511Y-116996591D01*
X193437277Y-116950300D01*
X193424689Y-116906992D01*
X193413032Y-116886674D01*
X193392792Y-116865574D01*
X193364670Y-116844888D01*
X193334679Y-116828307D01*
X193308831Y-116819520D01*
X193302714Y-116818956D01*
X193287122Y-116813462D01*
X193283913Y-116804768D01*
X193287003Y-116796049D01*
X193299091Y-116793498D01*
X193320137Y-116795438D01*
G37*
G36*
X195148536Y-116000594D02*
G01*
X195180247Y-116009190D01*
X195197945Y-116022142D01*
X195204960Y-116042515D01*
X195205519Y-116053054D01*
X195211425Y-116076455D01*
X195219750Y-116089687D01*
X195229283Y-116109788D01*
X195221999Y-116128607D01*
X195206747Y-116140109D01*
X195189255Y-116144327D01*
X195175821Y-116135709D01*
X195164625Y-116117413D01*
X195180154Y-116117413D01*
X195185125Y-116125966D01*
X195195765Y-116127988D01*
X195204207Y-116118039D01*
X195205652Y-116109747D01*
X195198680Y-116098667D01*
X195192608Y-116097217D01*
X195181670Y-116103701D01*
X195180154Y-116117413D01*
X195164625Y-116117413D01*
X195163253Y-116115171D01*
X195167988Y-116096113D01*
X195175661Y-116088153D01*
X195185476Y-116069946D01*
X195186531Y-116050131D01*
X195181692Y-116030459D01*
X195168920Y-116022103D01*
X195159474Y-116020502D01*
X195137504Y-116021562D01*
X195123671Y-116027131D01*
X195111027Y-116031100D01*
X195101087Y-116023043D01*
X195094111Y-116007992D01*
X195102415Y-115999298D01*
X195124895Y-115997481D01*
X195148536Y-116000594D01*
G37*
G36*
X193846594Y-117875946D02*
G01*
X193874193Y-117877941D01*
X193893829Y-117882349D01*
X193910211Y-117890054D01*
X193921064Y-117897058D01*
X193948053Y-117919963D01*
X193963592Y-117946194D01*
X193970166Y-117981058D01*
X193970869Y-118003327D01*
X193963419Y-118049405D01*
X193941821Y-118086224D01*
X193907202Y-118112835D01*
X193860690Y-118128293D01*
X193817633Y-118132000D01*
X193770869Y-118132000D01*
X193770869Y-118214608D01*
X193770869Y-118297217D01*
X193744628Y-118297217D01*
X193718386Y-118297217D01*
X193720714Y-118086347D01*
X193722611Y-117914608D01*
X193770869Y-117914608D01*
X193770869Y-118002642D01*
X193770869Y-118090675D01*
X193819260Y-118086662D01*
X193853745Y-118081376D01*
X193877418Y-118070934D01*
X193889350Y-118060949D01*
X193905912Y-118033412D01*
X193911957Y-117998874D01*
X193906765Y-117964705D01*
X193900134Y-117950704D01*
X193880541Y-117933473D01*
X193848718Y-117920970D01*
X193809572Y-117914946D01*
X193799130Y-117914657D01*
X193770869Y-117914608D01*
X193722611Y-117914608D01*
X193723043Y-117875478D01*
X193806325Y-117875478D01*
X193846594Y-117875946D01*
G37*
G36*
X195013725Y-116066033D02*
G01*
X195021158Y-116081491D01*
X195012705Y-116090440D01*
X194988680Y-116092695D01*
X194970627Y-116091219D01*
X194927391Y-116086099D01*
X194927391Y-116116814D01*
X194931126Y-116141480D01*
X194940434Y-116152535D01*
X194951404Y-116164543D01*
X194952139Y-116183158D01*
X194943043Y-116199826D01*
X194926250Y-116209000D01*
X194903991Y-116204707D01*
X194903478Y-116204501D01*
X194896244Y-116194595D01*
X194893025Y-116177628D01*
X194903311Y-116177628D01*
X194905652Y-116184173D01*
X194918259Y-116192792D01*
X194931066Y-116188423D01*
X194936086Y-116175478D01*
X194930870Y-116161379D01*
X194923556Y-116158086D01*
X194908266Y-116164128D01*
X194903311Y-116177628D01*
X194893025Y-116177628D01*
X194892944Y-116177203D01*
X194893872Y-116159795D01*
X194899322Y-116149841D01*
X194901304Y-116149391D01*
X194907187Y-116141779D01*
X194909966Y-116123203D01*
X194910000Y-116120695D01*
X194914775Y-116091784D01*
X194930322Y-116075894D01*
X194957826Y-116071130D01*
X194979813Y-116068394D01*
X194993846Y-116062066D01*
X195005372Y-116058952D01*
X195013725Y-116066033D01*
G37*
G36*
X195060689Y-116059856D02*
G01*
X195075304Y-116065172D01*
X195098230Y-116070265D01*
X195101008Y-116070730D01*
X195121947Y-116076054D01*
X195131312Y-116086861D01*
X195134619Y-116106013D01*
X195141331Y-116131477D01*
X195153603Y-116151344D01*
X195154185Y-116151903D01*
X195168301Y-116168351D01*
X195167757Y-116181674D01*
X195154967Y-116195869D01*
X195135737Y-116208673D01*
X195119999Y-116206566D01*
X195111739Y-116199826D01*
X195102410Y-116182091D01*
X195102879Y-116175478D01*
X195118695Y-116175478D01*
X195124132Y-116189641D01*
X195131739Y-116192869D01*
X195142361Y-116185620D01*
X195144782Y-116175478D01*
X195139345Y-116161314D01*
X195131739Y-116158086D01*
X195121116Y-116165336D01*
X195118695Y-116175478D01*
X195102879Y-116175478D01*
X195103720Y-116163637D01*
X195114347Y-116152535D01*
X195124213Y-116139954D01*
X195127391Y-116116814D01*
X195127391Y-116086099D01*
X195084155Y-116091219D01*
X195056824Y-116092700D01*
X195039129Y-116090167D01*
X195035580Y-116087702D01*
X195035562Y-116074904D01*
X195044851Y-116062907D01*
X195057244Y-116058593D01*
X195060689Y-116059856D01*
G37*
G36*
X195177820Y-115676323D02*
G01*
X195183319Y-115685762D01*
X195181999Y-115703037D01*
X195169881Y-115719518D01*
X195152709Y-115729034D01*
X195143055Y-115729028D01*
X195127772Y-115732795D01*
X195106454Y-115751159D01*
X195092713Y-115766657D01*
X195070192Y-115795936D01*
X195059724Y-115816816D01*
X195060288Y-115832367D01*
X195067503Y-115842546D01*
X195072937Y-115856157D01*
X195071337Y-115861677D01*
X195058479Y-115870150D01*
X195042982Y-115869081D01*
X195037133Y-115864128D01*
X195034922Y-115846082D01*
X195042139Y-115819653D01*
X195056811Y-115789588D01*
X195076964Y-115760635D01*
X195083059Y-115753658D01*
X195102219Y-115730262D01*
X195115155Y-115709474D01*
X195118695Y-115698476D01*
X195119117Y-115697217D01*
X195136086Y-115697217D01*
X195140488Y-115711489D01*
X195151304Y-115712953D01*
X195164240Y-115704378D01*
X195166521Y-115697217D01*
X195159292Y-115684939D01*
X195151304Y-115681481D01*
X195138978Y-115684506D01*
X195136086Y-115697217D01*
X195119117Y-115697217D01*
X195125394Y-115678494D01*
X195141487Y-115667353D01*
X195160964Y-115666235D01*
X195177820Y-115676323D01*
G37*
G36*
X193341260Y-116721258D02*
G01*
X193373407Y-116732069D01*
X193430372Y-116761815D01*
X193476329Y-116802712D01*
X193510750Y-116852171D01*
X193533104Y-116907599D01*
X193542864Y-116966407D01*
X193539499Y-117026003D01*
X193522482Y-117083798D01*
X193491283Y-117137201D01*
X193462594Y-117168849D01*
X193429154Y-117193586D01*
X193386196Y-117216496D01*
X193341484Y-117233797D01*
X193316521Y-117240007D01*
X193295143Y-117242667D01*
X193285846Y-117239249D01*
X193283913Y-117229191D01*
X193288390Y-117217178D01*
X193304418Y-117210280D01*
X193317463Y-117208050D01*
X193374262Y-117191935D01*
X193425430Y-117160671D01*
X193468216Y-117116260D01*
X193489368Y-117082925D01*
X193504614Y-117040876D01*
X193512087Y-116991038D01*
X193511326Y-116940793D01*
X193501871Y-116897518D01*
X193501061Y-116895416D01*
X193477282Y-116852729D01*
X193443094Y-116813729D01*
X193402458Y-116781483D01*
X193359329Y-116759059D01*
X193317667Y-116749524D01*
X193312640Y-116749391D01*
X193292389Y-116747183D01*
X193284586Y-116738707D01*
X193283913Y-116732000D01*
X193290094Y-116718524D01*
X193309019Y-116714943D01*
X193341260Y-116721258D01*
G37*
G36*
X194931866Y-115727639D02*
G01*
X194946997Y-115739482D01*
X194952997Y-115757737D01*
X194947051Y-115777093D01*
X194940434Y-115784173D01*
X194930909Y-115800306D01*
X194927391Y-115820820D01*
X194928150Y-115835772D01*
X194933338Y-115843091D01*
X194947323Y-115844963D01*
X194973043Y-115843668D01*
X195000657Y-115842938D01*
X195014686Y-115845902D01*
X195018693Y-115853336D01*
X195018695Y-115853620D01*
X195015194Y-115863218D01*
X195002554Y-115867289D01*
X194977570Y-115866467D01*
X194962208Y-115864762D01*
X194932109Y-115857729D01*
X194915819Y-115843947D01*
X194910143Y-115820315D01*
X194910000Y-115814057D01*
X194907613Y-115792776D01*
X194901818Y-115780194D01*
X194901304Y-115779826D01*
X194892766Y-115765962D01*
X194893437Y-115755782D01*
X194904485Y-115755782D01*
X194907337Y-115761221D01*
X194921162Y-115766873D01*
X194933245Y-115761676D01*
X194936086Y-115753739D01*
X194929389Y-115742204D01*
X194923556Y-115740695D01*
X194909323Y-115745509D01*
X194904485Y-115755782D01*
X194893437Y-115755782D01*
X194894011Y-115747062D01*
X194903601Y-115731380D01*
X194910417Y-115727519D01*
X194931866Y-115727639D01*
G37*
G36*
X194947683Y-116001195D02*
G01*
X194951543Y-116011841D01*
X194944999Y-116023043D01*
X194932433Y-116031575D01*
X194922415Y-116027131D01*
X194905811Y-116021049D01*
X194886612Y-116020502D01*
X194868126Y-116026228D01*
X194860367Y-116041409D01*
X194859284Y-116048645D01*
X194861775Y-116072262D01*
X194870154Y-116081686D01*
X194881567Y-116096552D01*
X194882732Y-116117109D01*
X194873985Y-116135253D01*
X194867722Y-116140052D01*
X194848194Y-116143357D01*
X194835251Y-116136812D01*
X194825035Y-116126734D01*
X194823957Y-116113931D01*
X194824250Y-116112976D01*
X194837015Y-116112976D01*
X194845397Y-116123752D01*
X194856322Y-116127949D01*
X194858811Y-116127043D01*
X194865890Y-116115088D01*
X194866521Y-116109747D01*
X194860037Y-116099212D01*
X194846330Y-116097884D01*
X194837611Y-116102939D01*
X194837015Y-116112976D01*
X194824250Y-116112976D01*
X194829702Y-116095227D01*
X194837069Y-116070403D01*
X194840533Y-116049996D01*
X194840567Y-116048773D01*
X194845078Y-116026628D01*
X194860188Y-116011998D01*
X194888907Y-116002341D01*
X194897550Y-116000594D01*
X194929317Y-115997272D01*
X194947683Y-116001195D01*
G37*
G36*
X194292608Y-117892869D02*
G01*
X194292608Y-117914608D01*
X194205652Y-117914608D01*
X194118695Y-117914608D01*
X194118695Y-117984173D01*
X194118695Y-118053739D01*
X194192095Y-118053739D01*
X194232217Y-118054578D01*
X194257394Y-118057702D01*
X194270021Y-118064024D01*
X194272490Y-118074453D01*
X194269967Y-118083389D01*
X194263890Y-118090420D01*
X194250045Y-118094674D01*
X194225094Y-118096740D01*
X194191678Y-118097217D01*
X194118695Y-118097217D01*
X194118695Y-118170815D01*
X194118695Y-118244413D01*
X194203478Y-118246902D01*
X194242343Y-118248202D01*
X194267038Y-118249953D01*
X194280774Y-118253074D01*
X194286765Y-118258483D01*
X194288225Y-118267097D01*
X194288260Y-118271130D01*
X194288260Y-118292869D01*
X194183729Y-118295295D01*
X194132698Y-118295763D01*
X194097354Y-118294335D01*
X194076087Y-118290895D01*
X194068512Y-118287034D01*
X194064659Y-118277653D01*
X194061746Y-118257239D01*
X194059695Y-118224344D01*
X194058429Y-118177516D01*
X194057869Y-118115306D01*
X194057826Y-118087493D01*
X194058061Y-118031252D01*
X194058718Y-117980399D01*
X194059727Y-117937678D01*
X194061015Y-117905838D01*
X194062511Y-117887624D01*
X194063104Y-117884885D01*
X194067819Y-117879115D01*
X194078591Y-117875178D01*
X194098180Y-117872751D01*
X194129347Y-117871510D01*
X194174851Y-117871133D01*
X194180495Y-117871130D01*
X194292608Y-117871130D01*
X194292608Y-117892869D01*
G37*
G36*
X194212636Y-115063201D02*
G01*
X194231564Y-115065960D01*
X194239547Y-115071394D01*
X194240434Y-115075478D01*
X194243308Y-115081560D01*
X194253835Y-115085465D01*
X194274877Y-115087622D01*
X194309294Y-115088460D01*
X194327391Y-115088521D01*
X194414347Y-115088521D01*
X194414347Y-115110260D01*
X194414347Y-115132000D01*
X194327391Y-115132000D01*
X194287578Y-115132308D01*
X194262064Y-115133598D01*
X194247765Y-115136415D01*
X194241594Y-115141304D01*
X194240434Y-115147372D01*
X194235006Y-115167298D01*
X194221502Y-115190580D01*
X194204091Y-115211757D01*
X194186945Y-115225368D01*
X194179123Y-115227652D01*
X194162581Y-115220289D01*
X194145705Y-115201330D01*
X194144474Y-115199391D01*
X194131354Y-115175160D01*
X194122466Y-115153490D01*
X194121920Y-115151565D01*
X194119575Y-115144510D01*
X194115127Y-115139395D01*
X194106086Y-115135907D01*
X194089961Y-115133735D01*
X194064262Y-115132568D01*
X194026501Y-115132093D01*
X193974185Y-115132000D01*
X193965579Y-115132000D01*
X193814347Y-115132000D01*
X193814347Y-115110260D01*
X193814347Y-115088521D01*
X193966521Y-115088521D01*
X194022195Y-115088331D01*
X194062737Y-115087630D01*
X194090401Y-115086225D01*
X194107444Y-115083923D01*
X194116120Y-115080531D01*
X194118686Y-115075856D01*
X194118695Y-115075478D01*
X194122275Y-115068391D01*
X194135146Y-115064335D01*
X194160508Y-115062624D01*
X194179565Y-115062434D01*
X194212636Y-115063201D01*
G37*
G36*
X194552514Y-117981274D02*
G01*
X194581953Y-117995807D01*
X194607639Y-118015022D01*
X194622147Y-118033507D01*
X194625911Y-118050551D01*
X194628916Y-118081566D01*
X194630934Y-118123135D01*
X194631734Y-118171845D01*
X194631739Y-118175887D01*
X194631739Y-118297217D01*
X194606325Y-118297217D01*
X194580912Y-118297217D01*
X194578065Y-118180710D01*
X194576565Y-118132075D01*
X194574541Y-118097679D01*
X194571538Y-118074372D01*
X194567103Y-118059003D01*
X194560782Y-118048419D01*
X194558652Y-118045928D01*
X194534069Y-118030610D01*
X194504150Y-118029733D01*
X194474978Y-118042470D01*
X194457783Y-118055402D01*
X194445936Y-118068650D01*
X194438435Y-118085669D01*
X194434281Y-118109909D01*
X194432472Y-118144824D01*
X194432015Y-118190695D01*
X194431796Y-118235194D01*
X194431043Y-118265170D01*
X194429201Y-118283491D01*
X194425718Y-118293027D01*
X194420040Y-118296646D01*
X194411612Y-118297217D01*
X194411449Y-118297217D01*
X194393187Y-118294969D01*
X194385362Y-118291420D01*
X194383469Y-118281229D01*
X194381835Y-118256589D01*
X194380569Y-118220440D01*
X194379780Y-118175725D01*
X194379565Y-118134898D01*
X194379565Y-117984173D01*
X194405652Y-117984173D01*
X194424840Y-117986980D01*
X194431524Y-117997229D01*
X194431739Y-118001061D01*
X194432791Y-118010506D01*
X194438520Y-118012217D01*
X194452784Y-118005750D01*
X194468695Y-117996817D01*
X194494993Y-117984124D01*
X194518629Y-117976529D01*
X194526207Y-117975583D01*
X194552514Y-117981274D01*
G37*
G36*
X193481999Y-117868935D02*
G01*
X193506727Y-117872779D01*
X193526852Y-117880944D01*
X193546834Y-117893723D01*
X193583728Y-117929386D01*
X193609786Y-117974670D01*
X193625168Y-118026346D01*
X193630032Y-118081184D01*
X193624537Y-118135956D01*
X193608842Y-118187432D01*
X193583105Y-118232383D01*
X193547486Y-118267578D01*
X193527854Y-118279589D01*
X193492854Y-118291152D01*
X193449306Y-118296768D01*
X193404197Y-118296289D01*
X193364513Y-118289570D01*
X193347943Y-118283367D01*
X193315413Y-118263513D01*
X193291872Y-118238471D01*
X193272979Y-118203096D01*
X193266435Y-118186721D01*
X193255686Y-118153170D01*
X193250737Y-118121282D01*
X193250639Y-118104902D01*
X193310678Y-118104902D01*
X193319413Y-118154650D01*
X193337420Y-118197030D01*
X193363961Y-118228254D01*
X193369464Y-118232314D01*
X193409766Y-118250046D01*
X193452875Y-118252484D01*
X193493903Y-118239462D01*
X193498779Y-118236656D01*
X193532585Y-118206050D01*
X193554679Y-118162639D01*
X193565024Y-118106510D01*
X193565860Y-118079826D01*
X193560217Y-118019116D01*
X193544052Y-117972242D01*
X193517370Y-117939209D01*
X193480176Y-117920027D01*
X193438537Y-117914608D01*
X193394041Y-117922542D01*
X193357496Y-117945308D01*
X193331027Y-117981351D01*
X193323968Y-117998451D01*
X193311950Y-118051574D01*
X193310678Y-118104902D01*
X193250639Y-118104902D01*
X193250508Y-118082819D01*
X193251125Y-118070061D01*
X193259900Y-118006907D01*
X193279041Y-117956476D01*
X193309510Y-117916863D01*
X193340417Y-117893078D01*
X193364808Y-117879215D01*
X193386571Y-117871468D01*
X193412529Y-117868205D01*
X193446289Y-117867766D01*
X193481999Y-117868935D01*
G37*
G36*
X194893017Y-117874475D02*
G01*
X194918811Y-117887962D01*
X194933821Y-117907291D01*
X194936086Y-117919742D01*
X194933818Y-117935393D01*
X194923850Y-117937835D01*
X194916521Y-117935956D01*
X194897506Y-117928103D01*
X194888695Y-117922327D01*
X194875441Y-117917536D01*
X194852196Y-117914831D01*
X194843043Y-117914608D01*
X194807944Y-117920560D01*
X194783210Y-117937067D01*
X194771470Y-117962106D01*
X194770869Y-117970167D01*
X194775511Y-117991758D01*
X194790789Y-118012165D01*
X194818731Y-118033329D01*
X194861364Y-118057193D01*
X194862173Y-118057606D01*
X194911334Y-118087777D01*
X194943731Y-118119933D01*
X194959944Y-118154753D01*
X194962173Y-118174832D01*
X194954911Y-118211358D01*
X194935928Y-118247466D01*
X194909434Y-118275876D01*
X194900171Y-118282086D01*
X194870988Y-118292216D01*
X194832607Y-118296980D01*
X194791790Y-118296393D01*
X194755297Y-118290468D01*
X194733559Y-118281768D01*
X194713954Y-118263730D01*
X194702998Y-118242020D01*
X194703540Y-118222678D01*
X194704667Y-118220549D01*
X194714511Y-118219562D01*
X194734431Y-118225801D01*
X194750438Y-118233098D01*
X194779125Y-118245198D01*
X194805958Y-118252625D01*
X194816253Y-118253739D01*
X194849114Y-118248005D01*
X194877293Y-118232986D01*
X194895342Y-118211958D01*
X194898079Y-118204533D01*
X194900093Y-118173096D01*
X194887900Y-118146683D01*
X194860222Y-118123250D01*
X194840434Y-118112140D01*
X194794411Y-118087682D01*
X194761873Y-118067133D01*
X194740050Y-118048213D01*
X194726176Y-118028640D01*
X194719391Y-118012368D01*
X194713610Y-117970029D01*
X194724559Y-117931105D01*
X194751653Y-117897380D01*
X194759079Y-117891324D01*
X194789469Y-117875255D01*
X194824492Y-117867503D01*
X194860292Y-117867449D01*
X194893017Y-117874475D01*
G37*
G36*
X194184327Y-115252905D02*
G01*
X194187485Y-115273187D01*
X194188260Y-115292869D01*
X194188260Y-115340695D01*
X194236086Y-115340695D01*
X194283913Y-115340695D01*
X194283913Y-115471130D01*
X194283913Y-115601565D01*
X194114115Y-115601565D01*
X193944317Y-115601565D01*
X193946194Y-115501565D01*
X194144782Y-115501565D01*
X194149130Y-115505913D01*
X194152499Y-115502544D01*
X194208641Y-115502544D01*
X194210000Y-115505913D01*
X194217813Y-115514208D01*
X194219208Y-115514608D01*
X194222943Y-115507880D01*
X194223043Y-115505913D01*
X194216358Y-115497551D01*
X194213834Y-115497217D01*
X194208641Y-115502544D01*
X194152499Y-115502544D01*
X194153478Y-115501565D01*
X194149130Y-115497217D01*
X194144782Y-115501565D01*
X193946194Y-115501565D01*
X193946724Y-115473304D01*
X193947019Y-115457588D01*
X194175178Y-115457588D01*
X194176103Y-115478415D01*
X194179981Y-115486200D01*
X194182370Y-115486137D01*
X194191422Y-115476230D01*
X194191739Y-115472579D01*
X194191107Y-115459131D01*
X194190661Y-115445043D01*
X194205652Y-115445043D01*
X194208618Y-115453513D01*
X194209486Y-115453739D01*
X194216910Y-115447645D01*
X194218695Y-115445043D01*
X194218006Y-115437030D01*
X194214861Y-115436347D01*
X194206006Y-115442660D01*
X194205652Y-115445043D01*
X194190661Y-115445043D01*
X194190309Y-115433916D01*
X194189565Y-115404463D01*
X194188484Y-115375931D01*
X194186894Y-115356423D01*
X194185136Y-115350078D01*
X194185100Y-115350115D01*
X194183026Y-115359902D01*
X194180367Y-115382592D01*
X194177627Y-115413730D01*
X194177036Y-115421644D01*
X194175178Y-115457588D01*
X193947019Y-115457588D01*
X193947317Y-115441675D01*
X194147771Y-115441675D01*
X194149130Y-115445043D01*
X194156944Y-115453338D01*
X194158339Y-115453739D01*
X194162074Y-115447011D01*
X194162173Y-115445043D01*
X194155489Y-115436681D01*
X194152965Y-115436347D01*
X194147771Y-115441675D01*
X193947317Y-115441675D01*
X193949130Y-115345043D01*
X194060000Y-115342609D01*
X194170869Y-115340176D01*
X194170869Y-115292609D01*
X194172306Y-115266499D01*
X194176011Y-115249222D01*
X194179565Y-115245043D01*
X194184327Y-115252905D01*
G37*
G36*
X193152258Y-116756131D02*
G01*
X193159334Y-116774815D01*
X193168718Y-116809292D01*
X193180579Y-116860148D01*
X193185562Y-116882916D01*
X193193953Y-116915855D01*
X193202843Y-116941241D01*
X193210666Y-116954780D01*
X193212153Y-116955768D01*
X193227032Y-116954896D01*
X193248603Y-116946935D01*
X193253135Y-116944619D01*
X193273275Y-116934943D01*
X193286776Y-116934056D01*
X193301917Y-116941813D01*
X193304833Y-116943707D01*
X193323230Y-116963259D01*
X193326881Y-116984668D01*
X193317344Y-117003742D01*
X193296180Y-117016288D01*
X193276853Y-117018956D01*
X193257114Y-117012617D01*
X193249130Y-117005913D01*
X193233341Y-116996801D01*
X193210221Y-116992873D01*
X193209551Y-116992869D01*
X193192984Y-116991884D01*
X193183224Y-116986148D01*
X193179836Y-116978308D01*
X193250469Y-116978308D01*
X193256148Y-116994192D01*
X193264347Y-117000868D01*
X193280958Y-117008898D01*
X193291706Y-117006780D01*
X193299565Y-116999826D01*
X193309359Y-116981151D01*
X193305549Y-116963323D01*
X193292191Y-116953606D01*
X193271363Y-116953140D01*
X193256498Y-116962999D01*
X193250469Y-116978308D01*
X193179836Y-116978308D01*
X193176889Y-116971489D01*
X193170901Y-116945195D01*
X193164101Y-116918109D01*
X193157029Y-116898644D01*
X193152893Y-116892507D01*
X193145175Y-116889945D01*
X193144782Y-116890679D01*
X193143159Y-116899906D01*
X193138716Y-116922918D01*
X193132093Y-116956455D01*
X193123928Y-116997260D01*
X193122085Y-117006409D01*
X193112786Y-117052965D01*
X193104057Y-117097468D01*
X193096853Y-117134993D01*
X193092131Y-117160612D01*
X193092001Y-117161359D01*
X193085816Y-117192013D01*
X193080520Y-117206058D01*
X193075512Y-117204210D01*
X193070234Y-117187373D01*
X193065118Y-117166273D01*
X193057363Y-117135153D01*
X193048854Y-117101565D01*
X193040254Y-117067458D01*
X193032741Y-117036899D01*
X193028008Y-117016782D01*
X193020859Y-116999446D01*
X193005977Y-116993289D01*
X192996153Y-116992869D01*
X192977453Y-116990586D01*
X192972035Y-116982149D01*
X192972524Y-116977652D01*
X192979743Y-116966994D01*
X192998477Y-116962724D01*
X193008968Y-116962434D01*
X193042480Y-116962434D01*
X193059430Y-117017650D01*
X193068395Y-117044959D01*
X193075648Y-117063618D01*
X193079629Y-117069616D01*
X193079642Y-117069603D01*
X193082751Y-117059971D01*
X193087530Y-117038243D01*
X193091998Y-117014388D01*
X193100261Y-116968909D01*
X193109492Y-116920902D01*
X193119024Y-116873526D01*
X193128189Y-116829937D01*
X193136321Y-116793294D01*
X193142752Y-116766754D01*
X193146814Y-116753475D01*
X193147315Y-116752655D01*
X193152258Y-116756131D01*
G37*
G36*
X194988260Y-116889260D02*
G01*
X194988178Y-116960048D01*
X194987847Y-117015446D01*
X194987147Y-117057455D01*
X194985953Y-117088076D01*
X194984144Y-117109309D01*
X194981596Y-117123156D01*
X194978186Y-117131617D01*
X194973793Y-117136694D01*
X194973043Y-117137286D01*
X194967576Y-117143088D01*
X194971609Y-117146612D01*
X194987624Y-117148420D01*
X195018101Y-117149076D01*
X195025217Y-117149114D01*
X195092608Y-117149391D01*
X195092608Y-117118956D01*
X195092608Y-117088521D01*
X195153478Y-117088521D01*
X195214347Y-117088521D01*
X195214347Y-117162434D01*
X195214347Y-117236347D01*
X194954927Y-117236347D01*
X194889424Y-117236160D01*
X194829609Y-117235630D01*
X194777679Y-117234806D01*
X194735828Y-117233735D01*
X194706252Y-117232465D01*
X194691146Y-117231045D01*
X194689710Y-117230550D01*
X194686969Y-117219661D01*
X194684927Y-117196027D01*
X194683949Y-117164291D01*
X194683913Y-117156637D01*
X194683913Y-117088521D01*
X194744782Y-117088521D01*
X194805652Y-117088521D01*
X194805652Y-117118956D01*
X194805652Y-117149391D01*
X194873043Y-117149114D01*
X194906332Y-117148688D01*
X194924778Y-117147313D01*
X194930925Y-117144328D01*
X194927318Y-117139076D01*
X194923520Y-117136045D01*
X194922060Y-117134695D01*
X194944782Y-117134695D01*
X194950076Y-117136137D01*
X194962173Y-117127652D01*
X194975164Y-117112966D01*
X194979565Y-117103217D01*
X194974271Y-117101775D01*
X194962173Y-117110260D01*
X194949183Y-117124947D01*
X194944782Y-117134695D01*
X194922060Y-117134695D01*
X194918446Y-117131352D01*
X194914493Y-117124504D01*
X194911517Y-117113453D01*
X194909372Y-117096153D01*
X194907914Y-117070556D01*
X194907176Y-117041632D01*
X194918695Y-117041632D01*
X194919514Y-117061725D01*
X194923519Y-117067478D01*
X194933034Y-117061922D01*
X194933794Y-117061325D01*
X194951661Y-117045047D01*
X194963939Y-117032000D01*
X194974772Y-117009798D01*
X194979040Y-116979954D01*
X194979040Y-116979826D01*
X194979094Y-116945043D01*
X194948895Y-116977524D01*
X194928426Y-117003685D01*
X194919679Y-117027776D01*
X194918695Y-117041632D01*
X194907176Y-117041632D01*
X194906997Y-117034614D01*
X194906476Y-116986279D01*
X194906206Y-116923505D01*
X194906142Y-116896170D01*
X194918695Y-116896170D01*
X194919897Y-116914552D01*
X194925586Y-116919040D01*
X194935641Y-116914847D01*
X194953883Y-116900577D01*
X194966075Y-116886519D01*
X194974251Y-116868259D01*
X194978726Y-116845730D01*
X194979087Y-116824956D01*
X194974919Y-116811965D01*
X194971312Y-116810260D01*
X194958253Y-116817612D01*
X194943177Y-116836004D01*
X194929450Y-116859937D01*
X194920438Y-116883915D01*
X194918695Y-116896170D01*
X194906142Y-116896170D01*
X194906129Y-116890670D01*
X194905679Y-116671130D01*
X194918695Y-116671130D01*
X194918930Y-116729826D01*
X194919166Y-116788521D01*
X194949365Y-116756040D01*
X194972211Y-116725053D01*
X194979565Y-116697345D01*
X194977881Y-116679734D01*
X194969312Y-116672511D01*
X194949130Y-116671130D01*
X194918695Y-116671130D01*
X194905679Y-116671130D01*
X194905652Y-116658086D01*
X194946956Y-116655436D01*
X194988260Y-116652786D01*
X194988260Y-116889260D01*
G37*
G36*
X193370122Y-115684608D02*
G01*
X193367437Y-115706958D01*
X193360434Y-115721565D01*
X193355058Y-115730056D01*
X193363434Y-115732000D01*
X193381189Y-115724803D01*
X193397337Y-115707877D01*
X193405507Y-115688216D01*
X193405652Y-115685663D01*
X193409923Y-115673165D01*
X193414347Y-115671130D01*
X193422180Y-115678121D01*
X193423043Y-115683462D01*
X193416613Y-115711522D01*
X193396777Y-115731537D01*
X193362719Y-115743938D01*
X193313619Y-115749157D01*
X193298009Y-115749391D01*
X193254751Y-115751589D01*
X193226325Y-115758845D01*
X193210653Y-115772150D01*
X193205659Y-115792497D01*
X193205652Y-115793490D01*
X193209313Y-115805107D01*
X193223274Y-115809768D01*
X193236086Y-115810260D01*
X193256203Y-115812444D01*
X193266258Y-115817815D01*
X193266521Y-115818956D01*
X193273564Y-115826671D01*
X193279565Y-115827652D01*
X193290187Y-115834901D01*
X193292608Y-115845043D01*
X193287171Y-115859206D01*
X193279565Y-115862434D01*
X193269066Y-115869979D01*
X193266521Y-115883914D01*
X193266521Y-115905393D01*
X193377391Y-115907827D01*
X193424120Y-115909174D01*
X193456014Y-115911037D01*
X193475632Y-115913775D01*
X193485528Y-115917744D01*
X193488260Y-115923301D01*
X193488260Y-115923304D01*
X193485525Y-115928871D01*
X193475614Y-115932845D01*
X193455964Y-115935584D01*
X193424017Y-115937446D01*
X193377836Y-115938778D01*
X193267412Y-115941208D01*
X193264793Y-115986604D01*
X193262511Y-116013270D01*
X193257948Y-116027200D01*
X193248539Y-116033044D01*
X193238260Y-116034751D01*
X193220251Y-116040398D01*
X193214459Y-116054549D01*
X193214347Y-116058358D01*
X193206482Y-116079767D01*
X193184506Y-116093976D01*
X193160571Y-116098783D01*
X193158716Y-116100078D01*
X193171563Y-116102136D01*
X193196460Y-116104575D01*
X193205652Y-116105305D01*
X193239199Y-116108349D01*
X193259126Y-116112038D01*
X193269187Y-116117696D01*
X193273141Y-116126645D01*
X193273568Y-116129214D01*
X193273064Y-116140964D01*
X193264575Y-116147857D01*
X193244051Y-116152439D01*
X193234437Y-116153811D01*
X193201005Y-116158845D01*
X193184673Y-116162605D01*
X193185524Y-116165064D01*
X193199409Y-116166096D01*
X193231104Y-116171451D01*
X193261835Y-116183795D01*
X193285062Y-116200096D01*
X193291908Y-116208953D01*
X193299949Y-116237980D01*
X193299542Y-116272851D01*
X193290848Y-116304296D01*
X193290229Y-116305553D01*
X193270766Y-116325395D01*
X193241203Y-116337994D01*
X193204131Y-116344951D01*
X193177622Y-116341891D01*
X193163415Y-116329204D01*
X193161487Y-116320187D01*
X193159393Y-116309916D01*
X193156353Y-116312617D01*
X193145935Y-116323752D01*
X193126891Y-116336466D01*
X193106878Y-116346221D01*
X193095214Y-116348840D01*
X193082396Y-116345440D01*
X193068695Y-116340424D01*
X193051964Y-116330472D01*
X193051905Y-116321717D01*
X193067797Y-116315297D01*
X193086086Y-116312934D01*
X193109940Y-116309708D01*
X193120790Y-116303056D01*
X193123043Y-116292869D01*
X193117286Y-116278643D01*
X193099130Y-116272726D01*
X193080927Y-116266210D01*
X193075832Y-116255691D01*
X193084600Y-116246252D01*
X193094782Y-116243474D01*
X193111141Y-116234835D01*
X193114347Y-116223304D01*
X193111195Y-116211386D01*
X193098544Y-116207646D01*
X193086086Y-116208120D01*
X193065929Y-116205675D01*
X193056981Y-116197127D01*
X193061388Y-116186521D01*
X193071580Y-116180756D01*
X193098761Y-116176268D01*
X193123590Y-116181889D01*
X193142827Y-116194843D01*
X193153230Y-116212355D01*
X193151559Y-116231651D01*
X193143776Y-116242571D01*
X193139405Y-116254658D01*
X193148124Y-116272332D01*
X193157334Y-116284592D01*
X193161261Y-116284073D01*
X193162158Y-116268798D01*
X193162173Y-116260021D01*
X193164665Y-116236755D01*
X193172770Y-116227900D01*
X193175217Y-116227652D01*
X193183419Y-116232306D01*
X193187426Y-116248421D01*
X193188260Y-116271130D01*
X193188766Y-116296861D01*
X193192258Y-116309691D01*
X193201702Y-116314110D01*
X193216956Y-116314608D01*
X193244288Y-116310585D01*
X193259891Y-116296702D01*
X193266120Y-116270242D01*
X193266521Y-116257412D01*
X193264269Y-116230747D01*
X193255158Y-116214102D01*
X193235657Y-116204158D01*
X193202953Y-116197702D01*
X193177786Y-116193051D01*
X193165939Y-116186991D01*
X193163380Y-116176952D01*
X193163823Y-116172770D01*
X193168951Y-116160383D01*
X193182842Y-116152879D01*
X193207388Y-116148078D01*
X193242497Y-116141145D01*
X193260797Y-116133442D01*
X193262781Y-116125968D01*
X193248939Y-116119721D01*
X193219765Y-116115698D01*
X193190947Y-116114741D01*
X193156335Y-116112833D01*
X193136193Y-116107697D01*
X193131400Y-116099904D01*
X193142836Y-116090030D01*
X193148640Y-116087162D01*
X193167183Y-116071410D01*
X193170869Y-116056691D01*
X193167750Y-116042077D01*
X193154992Y-116036763D01*
X193144782Y-116036347D01*
X193129869Y-116035544D01*
X193122106Y-116030281D01*
X193119160Y-116016278D01*
X193118695Y-115989253D01*
X193118695Y-115988521D01*
X193118695Y-115940695D01*
X193005652Y-115940695D01*
X192959502Y-115940548D01*
X192927972Y-115939821D01*
X192908289Y-115938088D01*
X192897683Y-115934924D01*
X192893381Y-115929901D01*
X192892608Y-115923304D01*
X192893567Y-115916204D01*
X192898291Y-115911353D01*
X192909552Y-115908325D01*
X192930121Y-115906693D01*
X192962770Y-115906031D01*
X193005652Y-115905913D01*
X193118695Y-115905913D01*
X193118695Y-115858086D01*
X193118695Y-115810260D01*
X193153478Y-115810260D01*
X193175902Y-115809058D01*
X193185868Y-115803452D01*
X193188251Y-115790441D01*
X193188260Y-115788860D01*
X193195877Y-115761575D01*
X193218019Y-115742707D01*
X193253627Y-115732956D01*
X193274683Y-115731723D01*
X193314277Y-115728164D01*
X193340668Y-115716862D01*
X193356978Y-115696067D01*
X193361957Y-115682827D01*
X193369374Y-115658086D01*
X193370122Y-115684608D01*
G37*
G36*
X194110000Y-115882733D02*
G01*
X194104371Y-115889728D01*
X194089191Y-115906424D01*
X194067022Y-115930044D01*
X194049300Y-115948602D01*
X194000585Y-116003804D01*
X193955751Y-116063204D01*
X193916717Y-116123606D01*
X193885400Y-116181817D01*
X193863722Y-116234642D01*
X193854260Y-116273247D01*
X193849147Y-116310260D01*
X193860313Y-116276353D01*
X194075217Y-116276353D01*
X194083123Y-116278282D01*
X194104061Y-116277975D01*
X194133863Y-116275764D01*
X194168361Y-116271980D01*
X194203386Y-116266954D01*
X194212123Y-116265474D01*
X194229755Y-116261351D01*
X194236920Y-116253698D01*
X194236689Y-116236996D01*
X194234910Y-116224519D01*
X194228638Y-116193855D01*
X194219163Y-116158603D01*
X194214870Y-116145043D01*
X194205530Y-116119637D01*
X194196388Y-116106390D01*
X194188198Y-116103116D01*
X194233021Y-116103116D01*
X194237767Y-116116795D01*
X194257915Y-116162573D01*
X194271116Y-116197174D01*
X194278896Y-116224611D01*
X194278978Y-116224980D01*
X194285060Y-116252674D01*
X194355881Y-116222805D01*
X194389446Y-116207836D01*
X194417727Y-116193739D01*
X194436134Y-116182857D01*
X194439523Y-116180116D01*
X194446261Y-116168653D01*
X194444380Y-116153894D01*
X194432696Y-116133314D01*
X194410031Y-116104391D01*
X194396965Y-116089163D01*
X194363407Y-116050674D01*
X194300476Y-116069593D01*
X194269704Y-116079222D01*
X194245985Y-116087351D01*
X194233777Y-116092439D01*
X194233179Y-116092878D01*
X194233021Y-116103116D01*
X194188198Y-116103116D01*
X194182514Y-116100844D01*
X194163823Y-116098891D01*
X194127391Y-116096217D01*
X194127391Y-116131747D01*
X194121767Y-116167024D01*
X194106083Y-116209078D01*
X194101304Y-116218956D01*
X194088041Y-116246030D01*
X194078648Y-116266729D01*
X194075217Y-116276353D01*
X193860313Y-116276353D01*
X193860810Y-116274845D01*
X193890904Y-116201193D01*
X193933959Y-116124636D01*
X193991020Y-116043453D01*
X194035166Y-115988521D01*
X194057053Y-115962434D01*
X194081711Y-115988521D01*
X194101278Y-116013458D01*
X194116776Y-116040229D01*
X194118189Y-116043483D01*
X194127927Y-116062553D01*
X194138950Y-116068629D01*
X194152595Y-116066689D01*
X194170345Y-116061513D01*
X194178078Y-116058124D01*
X194176741Y-116048700D01*
X194167769Y-116031226D01*
X194154357Y-116011256D01*
X194143698Y-115998398D01*
X194133244Y-115984457D01*
X194131699Y-115976967D01*
X194139939Y-115979457D01*
X194154194Y-115991747D01*
X194170292Y-116009543D01*
X194184060Y-116028549D01*
X194187285Y-116034173D01*
X194198431Y-116048914D01*
X194213272Y-116052611D01*
X194236041Y-116045590D01*
X194249968Y-116039039D01*
X194278897Y-116023070D01*
X194292512Y-116010682D01*
X194292022Y-116000031D01*
X194281510Y-115991025D01*
X194216761Y-115959388D01*
X194149130Y-115940105D01*
X194121238Y-115933945D01*
X194101147Y-115929042D01*
X194093908Y-115926751D01*
X194096958Y-115919623D01*
X194108519Y-115905503D01*
X194109306Y-115904654D01*
X194129846Y-115891369D01*
X194159685Y-115887009D01*
X194200775Y-115891556D01*
X194249130Y-115903288D01*
X194330046Y-115935000D01*
X194402581Y-115981353D01*
X194465335Y-116041061D01*
X194516909Y-116112836D01*
X194549887Y-116179826D01*
X194560877Y-116208722D01*
X194568022Y-116233790D01*
X194572121Y-116260278D01*
X194573972Y-116293434D01*
X194574373Y-116338505D01*
X194574371Y-116340695D01*
X194572077Y-116406000D01*
X194564353Y-116459982D01*
X194549595Y-116508284D01*
X194526199Y-116556548D01*
X194501639Y-116596702D01*
X194446770Y-116665863D01*
X194381295Y-116721248D01*
X194305325Y-116762770D01*
X194273406Y-116775006D01*
X194225616Y-116787039D01*
X194168212Y-116794982D01*
X194108609Y-116798271D01*
X194054221Y-116796345D01*
X194031739Y-116793330D01*
X193945988Y-116769891D01*
X193867426Y-116732506D01*
X193798279Y-116682624D01*
X193792157Y-116676138D01*
X194034757Y-116676138D01*
X194041662Y-116691171D01*
X194045236Y-116698123D01*
X194072084Y-116745506D01*
X194095253Y-116776414D01*
X194115105Y-116791289D01*
X194123089Y-116792869D01*
X194140539Y-116790234D01*
X194168769Y-116783272D01*
X194202143Y-116773399D01*
X194207444Y-116771689D01*
X194238775Y-116760399D01*
X194271283Y-116746983D01*
X194300912Y-116733341D01*
X194323610Y-116721374D01*
X194335321Y-116712981D01*
X194336086Y-116711400D01*
X194328126Y-116711107D01*
X194307173Y-116711162D01*
X194277624Y-116711495D01*
X194243871Y-116712034D01*
X194210310Y-116712709D01*
X194181336Y-116713447D01*
X194161342Y-116714179D01*
X194160000Y-116714250D01*
X194154025Y-116721595D01*
X194153478Y-116726304D01*
X194147518Y-116740494D01*
X194136086Y-116753739D01*
X194122974Y-116762948D01*
X194119752Y-116758466D01*
X194126578Y-116741017D01*
X194131359Y-116732000D01*
X194137626Y-116718778D01*
X194135672Y-116710476D01*
X194122503Y-116703353D01*
X194102790Y-116696303D01*
X194075333Y-116686600D01*
X194052702Y-116678146D01*
X194046077Y-116675470D01*
X194036187Y-116672043D01*
X194034757Y-116676138D01*
X193792157Y-116676138D01*
X193740773Y-116621697D01*
X193717687Y-116588521D01*
X193690070Y-116540444D01*
X193671224Y-116496736D01*
X193664505Y-116470945D01*
X194003084Y-116470945D01*
X194008424Y-116534122D01*
X194013542Y-116583676D01*
X194020608Y-116618377D01*
X194031859Y-116640763D01*
X194049528Y-116653369D01*
X194075852Y-116658731D01*
X194113064Y-116659387D01*
X194118695Y-116659262D01*
X194166521Y-116658086D01*
X194166791Y-116657301D01*
X194198879Y-116657301D01*
X194203866Y-116660902D01*
X194222154Y-116661963D01*
X194249894Y-116660846D01*
X194283239Y-116657916D01*
X194318342Y-116653536D01*
X194351356Y-116648068D01*
X194378433Y-116641878D01*
X194385665Y-116639652D01*
X194410406Y-116630168D01*
X194428231Y-116619125D01*
X194443111Y-116602564D01*
X194459014Y-116576530D01*
X194470493Y-116555110D01*
X194486521Y-116521429D01*
X194492154Y-116500489D01*
X194487442Y-116491124D01*
X194473043Y-116491990D01*
X194456398Y-116495180D01*
X194427103Y-116499399D01*
X194389820Y-116504014D01*
X194362173Y-116507067D01*
X194316181Y-116511995D01*
X194284730Y-116515878D01*
X194265061Y-116519416D01*
X194254412Y-116523314D01*
X194250023Y-116528272D01*
X194249133Y-116534994D01*
X194249130Y-116535817D01*
X194245764Y-116549003D01*
X194237133Y-116572571D01*
X194225441Y-116601193D01*
X194212892Y-116629544D01*
X194201687Y-116652298D01*
X194198879Y-116657301D01*
X194166791Y-116657301D01*
X194185984Y-116601565D01*
X194198746Y-116563628D01*
X194204644Y-116538020D01*
X194201636Y-116521879D01*
X194187680Y-116512344D01*
X194160736Y-116506555D01*
X194118761Y-116501651D01*
X194114347Y-116501174D01*
X194080127Y-116495905D01*
X194048155Y-116488432D01*
X194032629Y-116483232D01*
X194003084Y-116470945D01*
X193664505Y-116470945D01*
X193659435Y-116451484D01*
X193657865Y-116438639D01*
X194014347Y-116438639D01*
X194016283Y-116453245D01*
X194025257Y-116460787D01*
X194046022Y-116464685D01*
X194051304Y-116465256D01*
X194076965Y-116466860D01*
X194109936Y-116467500D01*
X194145682Y-116467279D01*
X194179667Y-116466298D01*
X194207357Y-116464657D01*
X194224216Y-116462459D01*
X194227049Y-116461327D01*
X194227973Y-116457674D01*
X194277802Y-116457674D01*
X194287324Y-116459939D01*
X194310205Y-116457552D01*
X194311140Y-116457415D01*
X194342397Y-116451668D01*
X194379138Y-116443301D01*
X194396956Y-116438656D01*
X194430771Y-116428596D01*
X194463525Y-116417707D01*
X194477391Y-116412564D01*
X194497681Y-116403202D01*
X194507138Y-116392187D01*
X194509870Y-116373024D01*
X194510000Y-116360993D01*
X194508421Y-116336772D01*
X194504383Y-116306525D01*
X194498931Y-116276095D01*
X194493112Y-116251324D01*
X194488001Y-116238095D01*
X194479970Y-116240298D01*
X194462255Y-116248929D01*
X194454236Y-116253313D01*
X194431338Y-116264583D01*
X194413316Y-116270741D01*
X194410030Y-116271130D01*
X194393972Y-116274460D01*
X194371452Y-116282583D01*
X194368990Y-116283642D01*
X194342363Y-116293801D01*
X194318015Y-116300836D01*
X194317733Y-116300895D01*
X194306073Y-116304502D01*
X194298745Y-116311930D01*
X194294158Y-116327089D01*
X194290723Y-116353884D01*
X194289082Y-116371297D01*
X194285560Y-116404832D01*
X194281777Y-116432521D01*
X194278485Y-116448961D01*
X194278141Y-116449965D01*
X194277802Y-116457674D01*
X194227973Y-116457674D01*
X194229560Y-116451396D01*
X194232745Y-116428473D01*
X194236028Y-116396912D01*
X194236983Y-116385977D01*
X194242935Y-116314608D01*
X194191685Y-116314533D01*
X194153518Y-116313489D01*
X194113874Y-116310918D01*
X194096266Y-116309149D01*
X194070066Y-116306620D01*
X194055757Y-116308500D01*
X194048010Y-116316757D01*
X194043131Y-116328790D01*
X194027325Y-116375317D01*
X194018052Y-116409348D01*
X194014460Y-116434133D01*
X194014347Y-116438639D01*
X193657865Y-116438639D01*
X193652991Y-116398771D01*
X193650862Y-116357858D01*
X193650260Y-116336347D01*
X193842129Y-116336347D01*
X193843069Y-116351198D01*
X193845792Y-116352505D01*
X193846138Y-116351730D01*
X193847858Y-116334468D01*
X193846460Y-116325643D01*
X193843692Y-116322097D01*
X193842187Y-116333647D01*
X193842129Y-116336347D01*
X193650260Y-116336347D01*
X193649623Y-116313603D01*
X193649987Y-116281405D01*
X193652701Y-116255953D01*
X193658510Y-116231934D01*
X193668162Y-116204036D01*
X193674997Y-116186101D01*
X193688887Y-116152254D01*
X193702073Y-116123847D01*
X193712360Y-116105487D01*
X193714986Y-116102168D01*
X193725245Y-116089156D01*
X193727391Y-116083499D01*
X193733793Y-116072600D01*
X193750547Y-116054756D01*
X193773977Y-116033298D01*
X193800404Y-116011558D01*
X193826152Y-115992869D01*
X193830614Y-115989970D01*
X193856168Y-115976991D01*
X193891719Y-115962955D01*
X193931526Y-115949697D01*
X193969847Y-115939052D01*
X194000940Y-115932856D01*
X194011952Y-115931999D01*
X194025296Y-115925819D01*
X194042039Y-115910662D01*
X194044459Y-115907882D01*
X194064411Y-115890930D01*
X194085694Y-115882090D01*
X194087376Y-115881893D01*
X194104122Y-115881400D01*
X194110000Y-115882733D01*
G37*
G36*
X194151525Y-114367702D02*
G01*
X194206037Y-114368570D01*
X194248209Y-114370070D01*
X194280563Y-114372357D01*
X194305624Y-114375584D01*
X194325915Y-114379905D01*
X194335779Y-114382747D01*
X194383298Y-114397649D01*
X194402858Y-114460105D01*
X194412318Y-114494625D01*
X194422861Y-114539977D01*
X194433080Y-114589779D01*
X194440227Y-114629454D01*
X194449416Y-114681882D01*
X194460113Y-114738736D01*
X194470786Y-114792037D01*
X194477496Y-114823304D01*
X194496956Y-114910260D01*
X194570869Y-114947017D01*
X194615199Y-114967671D01*
X194665220Y-114988867D01*
X194711333Y-115006569D01*
X194718695Y-115009148D01*
X194755888Y-115022122D01*
X194790228Y-115034458D01*
X194815859Y-115044043D01*
X194821353Y-115046219D01*
X194833983Y-115050561D01*
X194846339Y-115051879D01*
X194860710Y-115049130D01*
X194879381Y-115041269D01*
X194904640Y-115027251D01*
X194938772Y-115006032D01*
X194984066Y-114976569D01*
X195007118Y-114961384D01*
X195040656Y-114939524D01*
X195068739Y-114921722D01*
X195088301Y-114909888D01*
X195096174Y-114905913D01*
X195105298Y-114901001D01*
X195123194Y-114888631D01*
X195145169Y-114872346D01*
X195166528Y-114855692D01*
X195182576Y-114842212D01*
X195188260Y-114836381D01*
X195197489Y-114828491D01*
X195216853Y-114814873D01*
X195235615Y-114802652D01*
X195273518Y-114782283D01*
X195304267Y-114775603D01*
X195331952Y-114783034D01*
X195360665Y-114805000D01*
X195372262Y-114816782D01*
X195393788Y-114838916D01*
X195424090Y-114869016D01*
X195459213Y-114903198D01*
X195495203Y-114937579D01*
X195496714Y-114939007D01*
X195535099Y-114976418D01*
X195574862Y-115017124D01*
X195611109Y-115056008D01*
X195637147Y-115085780D01*
X195662072Y-115116115D01*
X195677335Y-115136497D01*
X195684508Y-115150249D01*
X195685164Y-115160695D01*
X195680874Y-115171159D01*
X195679068Y-115174425D01*
X195663779Y-115199954D01*
X195640530Y-115236662D01*
X195611317Y-115281468D01*
X195578136Y-115331292D01*
X195561482Y-115355942D01*
X195517465Y-115420916D01*
X195482445Y-115473442D01*
X195455662Y-115515470D01*
X195436356Y-115548947D01*
X195423767Y-115575823D01*
X195417134Y-115598047D01*
X195415698Y-115617567D01*
X195418698Y-115636332D01*
X195425375Y-115656290D01*
X195434967Y-115679391D01*
X195435153Y-115679826D01*
X195450834Y-115717138D01*
X195467545Y-115757687D01*
X195474753Y-115775478D01*
X195500950Y-115837931D01*
X195524122Y-115885944D01*
X195545999Y-115921806D01*
X195568314Y-115947805D01*
X195592798Y-115966230D01*
X195621182Y-115979368D01*
X195631739Y-115982946D01*
X195651242Y-115987862D01*
X195683871Y-115994746D01*
X195725582Y-116002797D01*
X195772331Y-116011215D01*
X195788260Y-116013951D01*
X195875550Y-116029445D01*
X195946947Y-116043609D01*
X196002049Y-116056353D01*
X196040448Y-116067589D01*
X196053493Y-116072719D01*
X196075217Y-116082617D01*
X196075217Y-116350078D01*
X196075217Y-116617538D01*
X196020869Y-116634584D01*
X195981731Y-116645482D01*
X195936808Y-116656011D01*
X195905652Y-116662115D01*
X195881027Y-116666426D01*
X195851976Y-116671662D01*
X195816244Y-116678241D01*
X195771580Y-116686584D01*
X195715728Y-116697111D01*
X195646436Y-116710241D01*
X195596200Y-116719786D01*
X195580912Y-116726536D01*
X195567217Y-116742690D01*
X195552113Y-116771850D01*
X195551280Y-116773683D01*
X195530165Y-116821080D01*
X195514470Y-116858237D01*
X195502026Y-116890565D01*
X195490668Y-116923474D01*
X195487939Y-116931827D01*
X195474706Y-116969323D01*
X195458968Y-117009463D01*
X195452114Y-117025553D01*
X195436145Y-117071717D01*
X195432971Y-117112861D01*
X195443160Y-117153412D01*
X195467275Y-117197797D01*
X195475721Y-117210260D01*
X195486433Y-117226131D01*
X195504015Y-117252772D01*
X195525933Y-117286324D01*
X195547250Y-117319205D01*
X195570578Y-117354498D01*
X195591758Y-117385054D01*
X195608372Y-117407477D01*
X195617659Y-117418096D01*
X195629156Y-117430956D01*
X195631739Y-117437598D01*
X195636150Y-117449101D01*
X195647255Y-117468846D01*
X195652948Y-117477838D01*
X195670803Y-117507114D01*
X195679794Y-117530213D01*
X195679198Y-117551132D01*
X195668291Y-117573869D01*
X195646348Y-117602422D01*
X195626187Y-117625585D01*
X195552828Y-117705113D01*
X195477843Y-117780466D01*
X195404714Y-117848295D01*
X195336926Y-117905251D01*
X195328072Y-117912158D01*
X195318913Y-117918906D01*
X195310828Y-117921390D01*
X195299699Y-117918598D01*
X195281407Y-117909520D01*
X195252788Y-117893675D01*
X195223370Y-117876317D01*
X195185406Y-117852493D01*
X195142066Y-117824344D01*
X195096519Y-117794015D01*
X195051936Y-117763648D01*
X195011486Y-117735385D01*
X194978338Y-117711370D01*
X194955661Y-117693745D01*
X194950898Y-117689586D01*
X194925344Y-117673243D01*
X194895080Y-117668693D01*
X194857734Y-117676110D01*
X194810935Y-117695666D01*
X194801304Y-117700499D01*
X194763719Y-117717503D01*
X194730241Y-117728559D01*
X194709366Y-117731837D01*
X194694933Y-117731239D01*
X194683863Y-117727396D01*
X194673549Y-117717503D01*
X194661381Y-117698754D01*
X194644753Y-117668342D01*
X194637392Y-117654415D01*
X194617508Y-117615130D01*
X194598871Y-117575574D01*
X194584403Y-117542055D01*
X194579988Y-117530502D01*
X194571190Y-117507220D01*
X194556711Y-117470565D01*
X194537640Y-117423184D01*
X194515066Y-117367725D01*
X194490076Y-117306833D01*
X194463760Y-117243158D01*
X194437207Y-117179344D01*
X194411504Y-117118040D01*
X194387740Y-117061893D01*
X194375554Y-117033385D01*
X194358783Y-116991699D01*
X194344562Y-116951471D01*
X194334580Y-116917780D01*
X194330743Y-116898602D01*
X194326406Y-116858086D01*
X194370234Y-116828844D01*
X194450911Y-116764652D01*
X194521459Y-116686825D01*
X194580910Y-116596512D01*
X194603735Y-116552207D01*
X194636062Y-116484173D01*
X194636074Y-116345043D01*
X194636086Y-116205913D01*
X194600158Y-116132000D01*
X194568899Y-116075871D01*
X194531873Y-116022424D01*
X194492761Y-115976523D01*
X194459448Y-115946160D01*
X194442303Y-115932660D01*
X194432087Y-115923960D01*
X194431739Y-115923604D01*
X194419197Y-115914590D01*
X194395365Y-115900754D01*
X194364729Y-115884582D01*
X194336086Y-115870574D01*
X194281884Y-115849744D01*
X194219399Y-115832994D01*
X194156685Y-115822155D01*
X194109037Y-115818956D01*
X194011561Y-115826987D01*
X193921148Y-115850636D01*
X193838759Y-115889235D01*
X193765355Y-115942115D01*
X193701895Y-116008610D01*
X193649341Y-116088051D01*
X193615038Y-116162434D01*
X193602556Y-116195887D01*
X193594083Y-116222791D01*
X193588826Y-116248121D01*
X193585989Y-116276850D01*
X193584775Y-116313950D01*
X193584435Y-116353739D01*
X193584409Y-116400566D01*
X193585391Y-116435030D01*
X193588218Y-116462157D01*
X193593722Y-116486973D01*
X193602739Y-116514506D01*
X193616103Y-116549782D01*
X193617637Y-116553739D01*
X193651361Y-116640695D01*
X193771984Y-116758773D01*
X193809371Y-116795988D01*
X193842042Y-116829689D01*
X193868078Y-116857797D01*
X193885557Y-116878234D01*
X193892558Y-116888919D01*
X193892608Y-116889331D01*
X193889649Y-116903874D01*
X193882007Y-116928414D01*
X193874388Y-116949514D01*
X193860535Y-116987129D01*
X193846229Y-117027998D01*
X193840477Y-117045189D01*
X193827954Y-117080658D01*
X193813794Y-117116776D01*
X193807182Y-117132145D01*
X193793603Y-117162840D01*
X193775863Y-117203853D01*
X193755222Y-117252180D01*
X193732938Y-117304818D01*
X193710270Y-117358760D01*
X193688478Y-117411005D01*
X193668821Y-117458546D01*
X193652557Y-117498380D01*
X193640945Y-117527502D01*
X193636031Y-117540553D01*
X193625258Y-117568112D01*
X193614360Y-117591172D01*
X193610907Y-117597075D01*
X193602100Y-117615130D01*
X193591765Y-117642737D01*
X193585423Y-117662837D01*
X193573784Y-117693540D01*
X193559113Y-117720040D01*
X193550065Y-117731121D01*
X193533112Y-117744228D01*
X193517077Y-117746243D01*
X193499793Y-117741588D01*
X193477258Y-117732001D01*
X193447050Y-117716463D01*
X193418695Y-117700118D01*
X193376292Y-117678027D01*
X193341429Y-117669247D01*
X193310900Y-117673416D01*
X193288087Y-117685387D01*
X193268761Y-117698468D01*
X193240204Y-117717626D01*
X193207682Y-117739329D01*
X193197920Y-117745822D01*
X193163048Y-117769057D01*
X193120067Y-117797785D01*
X193075291Y-117827783D01*
X193046550Y-117847080D01*
X193009709Y-117870691D01*
X192975223Y-117890740D01*
X192947139Y-117904997D01*
X192930436Y-117911078D01*
X192915334Y-117912644D01*
X192901493Y-117909612D01*
X192885108Y-117899958D01*
X192862373Y-117881658D01*
X192842555Y-117864314D01*
X192815685Y-117839646D01*
X192782787Y-117808131D01*
X192745817Y-117771781D01*
X192706730Y-117732613D01*
X192667482Y-117692640D01*
X192630028Y-117653876D01*
X192596323Y-117618336D01*
X192568323Y-117588035D01*
X192547982Y-117564986D01*
X192537256Y-117551203D01*
X192536086Y-117548597D01*
X192540485Y-117535553D01*
X192552229Y-117511790D01*
X192569141Y-117481142D01*
X192589045Y-117447442D01*
X192609763Y-117414525D01*
X192625126Y-117391804D01*
X192670291Y-117327736D01*
X192706442Y-117276193D01*
X192734576Y-117235478D01*
X192755694Y-117203897D01*
X192770792Y-117179754D01*
X192780870Y-117161353D01*
X192786927Y-117146999D01*
X192789960Y-117134996D01*
X192790968Y-117123649D01*
X192790949Y-117111263D01*
X192790935Y-117110260D01*
X192785719Y-117071134D01*
X192770508Y-117023701D01*
X192758848Y-116995808D01*
X192744805Y-116963245D01*
X192733994Y-116936504D01*
X192728046Y-116919697D01*
X192727391Y-116916533D01*
X192724437Y-116904230D01*
X192716879Y-116881821D01*
X192710850Y-116865768D01*
X192698642Y-116834237D01*
X192687010Y-116803892D01*
X192683069Y-116793499D01*
X192667387Y-116764647D01*
X192645232Y-116738964D01*
X192621158Y-116720838D01*
X192601183Y-116714608D01*
X192585048Y-116712809D01*
X192556340Y-116707939D01*
X192519442Y-116700791D01*
X192487255Y-116694025D01*
X192438767Y-116683960D01*
X192386997Y-116673989D01*
X192339926Y-116665620D01*
X192319466Y-116662328D01*
X192278631Y-116654944D01*
X192238100Y-116645672D01*
X192205775Y-116636347D01*
X192202197Y-116635085D01*
X192177342Y-116626141D01*
X192160320Y-116620285D01*
X192155774Y-116618956D01*
X192155212Y-116610606D01*
X192154700Y-116586939D01*
X192154255Y-116550029D01*
X192153895Y-116501951D01*
X192153636Y-116444779D01*
X192153497Y-116380587D01*
X192153495Y-116376106D01*
X192251229Y-116376106D01*
X192251708Y-116399300D01*
X192251824Y-116400762D01*
X192257352Y-116448058D01*
X192265366Y-116481343D01*
X192277477Y-116503974D01*
X192295297Y-116519309D01*
X192312779Y-116527804D01*
X192335859Y-116535061D01*
X192373430Y-116544463D01*
X192422802Y-116555452D01*
X192481287Y-116567471D01*
X192546195Y-116579960D01*
X192614836Y-116592364D01*
X192666664Y-116601194D01*
X192732024Y-116612026D01*
X192759737Y-116678534D01*
X192775382Y-116717268D01*
X192793755Y-116764536D01*
X192811815Y-116812465D01*
X192818977Y-116832000D01*
X192847024Y-116906328D01*
X192873971Y-116970676D01*
X192902807Y-117031964D01*
X192919636Y-117065106D01*
X192945831Y-117115603D01*
X192914056Y-117173411D01*
X192896009Y-117205066D01*
X192878685Y-117233490D01*
X192865702Y-117252756D01*
X192865250Y-117253349D01*
X192842733Y-117284078D01*
X192816988Y-117321567D01*
X192789778Y-117362968D01*
X192762863Y-117405428D01*
X192738007Y-117446097D01*
X192716970Y-117482127D01*
X192701515Y-117510665D01*
X192693403Y-117528862D01*
X192692608Y-117532654D01*
X192698541Y-117541427D01*
X192714745Y-117559753D01*
X192738830Y-117585265D01*
X192768405Y-117615594D01*
X192801079Y-117648372D01*
X192834461Y-117681231D01*
X192866161Y-117711803D01*
X192893788Y-117737719D01*
X192914952Y-117756611D01*
X192927260Y-117766112D01*
X192928973Y-117766782D01*
X192942522Y-117763101D01*
X192956223Y-117756958D01*
X192972968Y-117747185D01*
X193000221Y-117730028D01*
X193035347Y-117707260D01*
X193075708Y-117680656D01*
X193118669Y-117651987D01*
X193161594Y-117623030D01*
X193201847Y-117595556D01*
X193236790Y-117571341D01*
X193263789Y-117552157D01*
X193280206Y-117539778D01*
X193283669Y-117536641D01*
X193303744Y-117525141D01*
X193334543Y-117526461D01*
X193376483Y-117540636D01*
X193388260Y-117545959D01*
X193425552Y-117563422D01*
X193450443Y-117573842D01*
X193466421Y-117577246D01*
X193476975Y-117573659D01*
X193485592Y-117563110D01*
X193495093Y-117546784D01*
X193510898Y-117516790D01*
X193532619Y-117471417D01*
X193560368Y-117410420D01*
X193594257Y-117333557D01*
X193610032Y-117297217D01*
X193622155Y-117267829D01*
X193637634Y-117228400D01*
X193654003Y-117185277D01*
X193662435Y-117162434D01*
X193676327Y-117124607D01*
X193688663Y-117091473D01*
X193697829Y-117067342D01*
X193701508Y-117058086D01*
X193710372Y-117035242D01*
X193720755Y-117005839D01*
X193730975Y-116975019D01*
X193739350Y-116947925D01*
X193744199Y-116929700D01*
X193744782Y-116925753D01*
X193739216Y-116915989D01*
X193724064Y-116896398D01*
X193701645Y-116869830D01*
X193674499Y-116839375D01*
X193609138Y-116763600D01*
X193557629Y-116693543D01*
X193518707Y-116626325D01*
X193491108Y-116559065D01*
X193473569Y-116488882D01*
X193464823Y-116412895D01*
X193463255Y-116358086D01*
X193468282Y-116261859D01*
X193484427Y-116175191D01*
X193513037Y-116093253D01*
X193555459Y-116011218D01*
X193563937Y-115997245D01*
X193584279Y-115969300D01*
X193613633Y-115935181D01*
X193648406Y-115898463D01*
X193685002Y-115862720D01*
X193719828Y-115831527D01*
X193749290Y-115808459D01*
X193761460Y-115800773D01*
X193789435Y-115785206D01*
X193816269Y-115769893D01*
X193818695Y-115768480D01*
X193879978Y-115740243D01*
X193952887Y-115719096D01*
X194032849Y-115705796D01*
X194115294Y-115701102D01*
X194195648Y-115705771D01*
X194196446Y-115705870D01*
X194294151Y-115725024D01*
X194383244Y-115757605D01*
X194466195Y-115804827D01*
X194545476Y-115867902D01*
X194565924Y-115887176D01*
X194630203Y-115957791D01*
X194679944Y-116031430D01*
X194716100Y-116110497D01*
X194739621Y-116197394D01*
X194751460Y-116294526D01*
X194753349Y-116360829D01*
X194750280Y-116439737D01*
X194740555Y-116507870D01*
X194723058Y-116570937D01*
X194702116Y-116622906D01*
X194682598Y-116661466D01*
X194657936Y-116701427D01*
X194626457Y-116745012D01*
X194586489Y-116794449D01*
X194536358Y-116851963D01*
X194499242Y-116892869D01*
X194484106Y-116911186D01*
X194475799Y-116924788D01*
X194475257Y-116927073D01*
X194477928Y-116938978D01*
X194484856Y-116962092D01*
X194494347Y-116991285D01*
X194504704Y-117021423D01*
X194514233Y-117047377D01*
X194518540Y-117058086D01*
X194524769Y-117073378D01*
X194535548Y-117100457D01*
X194549122Y-117134905D01*
X194558198Y-117158086D01*
X194574609Y-117199388D01*
X194591382Y-117240404D01*
X194605855Y-117274670D01*
X194611098Y-117286585D01*
X194622239Y-117312000D01*
X194629733Y-117330333D01*
X194631739Y-117336530D01*
X194635069Y-117345470D01*
X194644109Y-117367004D01*
X194657429Y-117397871D01*
X194673601Y-117434806D01*
X194691197Y-117474545D01*
X194708788Y-117513826D01*
X194723952Y-117547217D01*
X194734551Y-117565161D01*
X194747831Y-117573387D01*
X194767556Y-117572316D01*
X194797494Y-117562369D01*
X194810896Y-117556946D01*
X194864164Y-117544131D01*
X194921181Y-117548192D01*
X194981738Y-117569069D01*
X195045626Y-117606702D01*
X195081740Y-117634219D01*
X195142532Y-117682004D01*
X195193330Y-117717213D01*
X195235397Y-117740524D01*
X195269997Y-117752614D01*
X195298394Y-117754164D01*
X195303403Y-117753277D01*
X195320826Y-117744571D01*
X195346962Y-117725505D01*
X195378934Y-117698689D01*
X195413865Y-117666728D01*
X195448876Y-117632229D01*
X195481090Y-117597800D01*
X195501444Y-117573887D01*
X195527273Y-117541862D01*
X195509741Y-117500961D01*
X195493807Y-117467435D01*
X195472054Y-117428187D01*
X195443280Y-117381268D01*
X195406287Y-117324728D01*
X195359874Y-117256617D01*
X195355332Y-117250052D01*
X195326516Y-117207831D01*
X195306719Y-117176958D01*
X195294583Y-117154821D01*
X195288755Y-117138810D01*
X195287878Y-117126313D01*
X195288643Y-117121563D01*
X195294997Y-117100423D01*
X195306708Y-117067990D01*
X195321957Y-117028814D01*
X195338927Y-116987442D01*
X195355799Y-116948425D01*
X195370317Y-116917202D01*
X195381014Y-116893936D01*
X195387434Y-116877104D01*
X195388260Y-116873177D01*
X195391766Y-116861700D01*
X195400780Y-116840187D01*
X195408850Y-116822757D01*
X195421194Y-116792374D01*
X195434150Y-116753152D01*
X195445011Y-116713326D01*
X195445457Y-116711439D01*
X195456491Y-116670957D01*
X195467578Y-116645059D01*
X195479915Y-116630976D01*
X195480350Y-116630686D01*
X195499545Y-116622170D01*
X195532922Y-116611657D01*
X195577481Y-116599864D01*
X195630227Y-116587510D01*
X195688162Y-116575313D01*
X195748288Y-116563990D01*
X195783913Y-116557956D01*
X195825406Y-116549739D01*
X195869698Y-116538674D01*
X195898441Y-116529998D01*
X195927634Y-116519493D01*
X195944684Y-116510181D01*
X195954067Y-116498129D01*
X195960260Y-116479404D01*
X195961485Y-116474610D01*
X195966160Y-116444859D01*
X195968964Y-116403732D01*
X195969940Y-116356399D01*
X195969132Y-116308029D01*
X195966583Y-116263790D01*
X195962338Y-116228853D01*
X195959295Y-116215471D01*
X195949225Y-116191562D01*
X195933346Y-116177456D01*
X195914311Y-116169460D01*
X195889173Y-116162042D01*
X195850026Y-116152163D01*
X195799963Y-116140524D01*
X195742074Y-116127830D01*
X195679453Y-116114785D01*
X195636086Y-116106139D01*
X195596253Y-116097632D01*
X195553292Y-116087407D01*
X195533406Y-116082244D01*
X195513637Y-116076475D01*
X195497870Y-116069757D01*
X195484520Y-116059842D01*
X195472003Y-116044482D01*
X195458736Y-116021427D01*
X195443134Y-115988432D01*
X195423613Y-115943246D01*
X195406101Y-115901565D01*
X195384700Y-115850589D01*
X195368077Y-115811532D01*
X195354356Y-115780245D01*
X195341659Y-115752578D01*
X195328110Y-115724383D01*
X195311832Y-115691510D01*
X195303953Y-115675756D01*
X195264898Y-115597772D01*
X195283064Y-115562712D01*
X195297087Y-115536187D01*
X195310735Y-115511935D01*
X195326039Y-115486734D01*
X195345032Y-115457364D01*
X195369744Y-115420604D01*
X195402208Y-115373234D01*
X195406653Y-115366782D01*
X195435124Y-115324683D01*
X195461885Y-115283686D01*
X195484439Y-115247715D01*
X195500290Y-115220694D01*
X195503693Y-115214275D01*
X195525818Y-115170464D01*
X195495025Y-115127319D01*
X195476619Y-115104254D01*
X195449239Y-115073311D01*
X195416576Y-115038529D01*
X195382321Y-115003947D01*
X195382177Y-115003806D01*
X195300122Y-114923439D01*
X195250713Y-114950737D01*
X195224407Y-114966335D01*
X195188511Y-114989074D01*
X195147592Y-115015993D01*
X195106221Y-115044137D01*
X195103073Y-115046322D01*
X195067151Y-115071126D01*
X195036597Y-115091907D01*
X195014102Y-115106858D01*
X195002357Y-115114173D01*
X195001335Y-115114608D01*
X194992746Y-115119035D01*
X194974557Y-115130373D01*
X194960435Y-115139668D01*
X194930161Y-115158947D01*
X194898674Y-115177509D01*
X194888754Y-115182951D01*
X194854465Y-115201173D01*
X194814841Y-115178639D01*
X194790320Y-115166189D01*
X194754706Y-115149979D01*
X194713205Y-115132315D01*
X194679565Y-115118801D01*
X194622096Y-115096321D01*
X194577859Y-115078794D01*
X194543848Y-115064938D01*
X194517058Y-115053474D01*
X194494484Y-115043121D01*
X194473121Y-115032598D01*
X194453478Y-115022463D01*
X194401304Y-114995206D01*
X194376702Y-114922298D01*
X194364668Y-114881740D01*
X194352187Y-114831577D01*
X194341074Y-114779450D01*
X194335649Y-114749391D01*
X194327371Y-114701483D01*
X194318201Y-114652236D01*
X194309460Y-114608581D01*
X194304483Y-114585837D01*
X194296556Y-114554770D01*
X194287497Y-114531520D01*
X194274838Y-114514958D01*
X194256110Y-114503955D01*
X194228846Y-114497382D01*
X194190576Y-114494111D01*
X194138832Y-114493013D01*
X194101304Y-114492927D01*
X194042259Y-114493643D01*
X193996116Y-114495671D01*
X193964394Y-114498908D01*
X193949103Y-114502953D01*
X193936231Y-114516358D01*
X193924707Y-114541934D01*
X193914020Y-114581277D01*
X193903660Y-114635980D01*
X193900830Y-114653739D01*
X193894562Y-114690974D01*
X193885921Y-114737904D01*
X193876274Y-114787239D01*
X193870647Y-114814608D01*
X193861895Y-114856318D01*
X193853930Y-114894433D01*
X193847763Y-114924103D01*
X193844883Y-114938113D01*
X193834442Y-114968306D01*
X193814979Y-114993097D01*
X193783745Y-115015021D01*
X193738271Y-115036501D01*
X193699829Y-115052647D01*
X193661171Y-115069291D01*
X193630034Y-115083097D01*
X193627391Y-115084304D01*
X193597211Y-115097814D01*
X193558966Y-115114490D01*
X193520658Y-115130846D01*
X193518695Y-115131672D01*
X193466555Y-115153737D01*
X193427743Y-115169915D01*
X193399374Y-115180607D01*
X193378561Y-115186217D01*
X193362419Y-115187148D01*
X193348063Y-115183800D01*
X193332606Y-115176578D01*
X193313162Y-115165884D01*
X193305036Y-115161478D01*
X193278451Y-115146023D01*
X193241257Y-115122686D01*
X193196954Y-115093751D01*
X193149043Y-115061503D01*
X193103705Y-115030110D01*
X193059550Y-114999551D01*
X193019461Y-114972702D01*
X192985874Y-114951122D01*
X192961225Y-114936370D01*
X192947946Y-114930005D01*
X192947183Y-114929875D01*
X192924563Y-114935410D01*
X192893556Y-114953480D01*
X192856003Y-114982551D01*
X192813746Y-115021093D01*
X192768625Y-115067573D01*
X192732379Y-115108645D01*
X192689541Y-115159204D01*
X192714526Y-115208645D01*
X192730158Y-115236910D01*
X192752462Y-115273850D01*
X192778046Y-115313956D01*
X192795902Y-115340695D01*
X192839721Y-115404910D01*
X192874674Y-115456324D01*
X192901688Y-115496511D01*
X192921693Y-115527041D01*
X192935615Y-115549485D01*
X192944381Y-115565417D01*
X192948921Y-115576407D01*
X192950161Y-115584028D01*
X192949029Y-115589850D01*
X192946453Y-115595446D01*
X192946369Y-115595614D01*
X192939773Y-115610462D01*
X192928278Y-115637906D01*
X192913360Y-115674364D01*
X192896496Y-115716253D01*
X192891950Y-115727652D01*
X192872602Y-115775475D01*
X192852540Y-115823709D01*
X192834047Y-115866943D01*
X192819408Y-115899765D01*
X192818571Y-115901565D01*
X192800508Y-115940733D01*
X192781490Y-115982670D01*
X192767106Y-116014965D01*
X192754025Y-116043331D01*
X192742552Y-116060403D01*
X192727465Y-116070885D01*
X192703545Y-116079477D01*
X192691459Y-116083105D01*
X192673285Y-116087629D01*
X192641517Y-116094655D01*
X192599328Y-116103555D01*
X192549893Y-116113699D01*
X192496385Y-116124459D01*
X192441979Y-116135205D01*
X192389850Y-116145309D01*
X192343172Y-116154142D01*
X192305119Y-116161074D01*
X192278865Y-116165477D01*
X192269673Y-116166681D01*
X192266738Y-116174959D01*
X192263418Y-116196803D01*
X192260005Y-116228402D01*
X192256788Y-116265943D01*
X192254060Y-116305616D01*
X192252110Y-116343607D01*
X192251229Y-116376106D01*
X192153495Y-116376106D01*
X192153478Y-116345043D01*
X192153574Y-116278015D01*
X192153846Y-116216925D01*
X192154271Y-116163849D01*
X192154825Y-116120860D01*
X192155483Y-116090033D01*
X192156222Y-116073443D01*
X192156631Y-116071130D01*
X192165929Y-116069174D01*
X192187963Y-116063962D01*
X192218604Y-116056479D01*
X192230633Y-116053497D01*
X192275536Y-116042627D01*
X192317601Y-116033233D01*
X192362069Y-116024246D01*
X192414179Y-116014597D01*
X192466521Y-116005402D01*
X192510329Y-115996875D01*
X192556598Y-115986374D01*
X192595925Y-115976047D01*
X192598862Y-115975181D01*
X192631026Y-115964646D01*
X192651633Y-115954295D01*
X192666082Y-115940438D01*
X192679288Y-115920213D01*
X192689059Y-115901686D01*
X192703003Y-115872885D01*
X192719569Y-115837290D01*
X192737207Y-115798381D01*
X192754365Y-115759637D01*
X192769494Y-115724540D01*
X192781042Y-115696567D01*
X192787458Y-115679200D01*
X192788260Y-115675680D01*
X192791659Y-115665706D01*
X192800322Y-115645567D01*
X192806563Y-115632004D01*
X192824865Y-115593067D01*
X192793923Y-115547316D01*
X192774454Y-115518767D01*
X192749419Y-115482385D01*
X192723233Y-115444578D01*
X192714477Y-115432000D01*
X192665265Y-115361049D01*
X192625519Y-115302826D01*
X192594441Y-115256018D01*
X192571230Y-115219312D01*
X192555090Y-115191398D01*
X192545219Y-115170964D01*
X192540821Y-115156696D01*
X192541096Y-115147284D01*
X192541100Y-115147273D01*
X192548986Y-115135254D01*
X192567307Y-115113298D01*
X192594060Y-115083619D01*
X192627240Y-115048432D01*
X192664843Y-115009954D01*
X192669964Y-115004813D01*
X192710659Y-114963884D01*
X192749915Y-114924094D01*
X192785006Y-114888230D01*
X192813207Y-114859075D01*
X192831739Y-114839474D01*
X192869415Y-114804717D01*
X192904838Y-114785961D01*
X192940396Y-114782448D01*
X192977777Y-114793106D01*
X193006698Y-114808599D01*
X193032709Y-114826861D01*
X193039191Y-114832635D01*
X193060226Y-114851010D01*
X193092058Y-114876135D01*
X193130931Y-114905313D01*
X193173092Y-114935847D01*
X193214784Y-114965042D01*
X193252255Y-114990199D01*
X193281749Y-115008623D01*
X193292453Y-115014529D01*
X193328861Y-115031161D01*
X193360087Y-115039862D01*
X193391314Y-115040762D01*
X193427730Y-115033987D01*
X193474519Y-115019666D01*
X193476307Y-115019064D01*
X193533654Y-114998112D01*
X193588860Y-114975018D01*
X193638188Y-114951550D01*
X193677902Y-114929473D01*
X193702420Y-114912180D01*
X193717623Y-114891706D01*
X193733603Y-114857330D01*
X193749242Y-114812437D01*
X193763425Y-114760414D01*
X193775036Y-114704646D01*
X193779037Y-114679826D01*
X193785552Y-114635111D01*
X193792780Y-114585388D01*
X193798001Y-114549391D01*
X193808727Y-114484838D01*
X193820032Y-114436371D01*
X193832346Y-114402685D01*
X193846097Y-114382474D01*
X193854752Y-114376480D01*
X193872080Y-114372914D01*
X193906186Y-114370199D01*
X193956479Y-114368358D01*
X194022363Y-114367415D01*
X194082148Y-114367313D01*
X194151525Y-114367702D01*
G37*
%TO.C,SW1*%
X191196643Y-110765493D02*
X191196643Y-110645493D01*
X191196643Y-109635493D02*
X191196643Y-108495493D01*
X191196643Y-107485493D02*
X191196643Y-107365493D01*
X191196643Y-107365493D02*
X186796643Y-107365493D01*
X186796643Y-110765493D02*
X191196643Y-110765493D01*
X186796643Y-110645493D02*
X186796643Y-110765493D01*
X186796643Y-108495493D02*
X186796643Y-109635493D01*
X186796643Y-107365493D02*
X186796643Y-107485493D01*
%TO.C,D1*%
X210084461Y-113035799D02*
X210084461Y-114955799D01*
X210084461Y-114955799D02*
X212769461Y-114955799D01*
X212769461Y-113035799D02*
X210084461Y-113035799D01*
%TO.C,J2*%
X213536000Y-121860000D02*
X214176000Y-121860000D01*
X214176000Y-121860000D02*
X214176000Y-121460000D01*
X207196000Y-121620000D02*
X213936000Y-121620000D01*
X207196000Y-121620000D02*
X207196000Y-115840000D01*
X208316000Y-121620000D02*
X208316000Y-115840000D01*
X213416000Y-121620000D02*
X213416000Y-115840000D01*
X213936000Y-121620000D02*
X213936000Y-115840000D01*
X207196000Y-115840000D02*
X213936000Y-115840000D01*
%TO.C,C2*%
X198109097Y-107254119D02*
X197827937Y-107254119D01*
X198109097Y-106234119D02*
X197827937Y-106234119D01*
%TO.C,C4*%
X194962627Y-108003994D02*
X194962627Y-109426498D01*
X193142627Y-108003994D02*
X193142627Y-109426498D01*
%TO.C,R3*%
X190623973Y-106814849D02*
X190149457Y-106814849D01*
X190623973Y-105769849D02*
X190149457Y-105769849D01*
%TD*%
M02*
