%TF.GenerationSoftware,KiCad,Pcbnew,7.0.2-0*%
%TF.CreationDate,2023-05-15T10:38:26-07:00*%
%TF.ProjectId,RagGuard_V2,52616747-7561-4726-945f-56322e6b6963,rev?*%
%TF.SameCoordinates,Original*%
%TF.FileFunction,Copper,L1,Top*%
%TF.FilePolarity,Positive*%
%FSLAX46Y46*%
G04 Gerber Fmt 4.6, Leading zero omitted, Abs format (unit mm)*
G04 Created by KiCad (PCBNEW 7.0.2-0) date 2023-05-15 10:38:26*
%MOMM*%
%LPD*%
G01*
G04 APERTURE LIST*
G04 Aperture macros list*
%AMRoundRect*
0 Rectangle with rounded corners*
0 $1 Rounding radius*
0 $2 $3 $4 $5 $6 $7 $8 $9 X,Y pos of 4 corners*
0 Add a 4 corners polygon primitive as box body*
4,1,4,$2,$3,$4,$5,$6,$7,$8,$9,$2,$3,0*
0 Add four circle primitives for the rounded corners*
1,1,$1+$1,$2,$3*
1,1,$1+$1,$4,$5*
1,1,$1+$1,$6,$7*
1,1,$1+$1,$8,$9*
0 Add four rect primitives between the rounded corners*
20,1,$1+$1,$2,$3,$4,$5,0*
20,1,$1+$1,$4,$5,$6,$7,0*
20,1,$1+$1,$6,$7,$8,$9,0*
20,1,$1+$1,$8,$9,$2,$3,0*%
G04 Aperture macros list end*
%TA.AperFunction,SMDPad,CuDef*%
%ADD10RoundRect,0.150000X-0.512500X-0.150000X0.512500X-0.150000X0.512500X0.150000X-0.512500X0.150000X0*%
%TD*%
%TA.AperFunction,SMDPad,CuDef*%
%ADD11RoundRect,0.250000X-0.325000X-0.650000X0.325000X-0.650000X0.325000X0.650000X-0.325000X0.650000X0*%
%TD*%
%TA.AperFunction,ComponentPad*%
%ADD12C,3.600000*%
%TD*%
%TA.AperFunction,ConnectorPad*%
%ADD13C,6.400000*%
%TD*%
%TA.AperFunction,SMDPad,CuDef*%
%ADD14R,0.650000X1.700000*%
%TD*%
%TA.AperFunction,SMDPad,CuDef*%
%ADD15RoundRect,0.225000X0.375000X-0.225000X0.375000X0.225000X-0.375000X0.225000X-0.375000X-0.225000X0*%
%TD*%
%TA.AperFunction,SMDPad,CuDef*%
%ADD16RoundRect,0.250000X0.262500X0.450000X-0.262500X0.450000X-0.262500X-0.450000X0.262500X-0.450000X0*%
%TD*%
%TA.AperFunction,SMDPad,CuDef*%
%ADD17R,2.200000X0.500000*%
%TD*%
%TA.AperFunction,ComponentPad*%
%ADD18C,0.630000*%
%TD*%
%TA.AperFunction,SMDPad,CuDef*%
%ADD19R,2.950000X4.900000*%
%TD*%
%TA.AperFunction,SMDPad,CuDef*%
%ADD20RoundRect,0.250000X0.450000X-0.262500X0.450000X0.262500X-0.450000X0.262500X-0.450000X-0.262500X0*%
%TD*%
%TA.AperFunction,ComponentPad*%
%ADD21R,2.100000X2.100000*%
%TD*%
%TA.AperFunction,ComponentPad*%
%ADD22C,2.100000*%
%TD*%
%TA.AperFunction,SMDPad,CuDef*%
%ADD23RoundRect,0.225000X0.225000X0.250000X-0.225000X0.250000X-0.225000X-0.250000X0.225000X-0.250000X0*%
%TD*%
%TA.AperFunction,SMDPad,CuDef*%
%ADD24R,2.790000X1.903000*%
%TD*%
%TA.AperFunction,SMDPad,CuDef*%
%ADD25R,1.050000X0.650000*%
%TD*%
%TA.AperFunction,SMDPad,CuDef*%
%ADD26RoundRect,0.243750X-0.243750X-0.456250X0.243750X-0.456250X0.243750X0.456250X-0.243750X0.456250X0*%
%TD*%
%TA.AperFunction,SMDPad,CuDef*%
%ADD27RoundRect,0.250000X-0.650000X0.325000X-0.650000X-0.325000X0.650000X-0.325000X0.650000X0.325000X0*%
%TD*%
%TA.AperFunction,SMDPad,CuDef*%
%ADD28RoundRect,0.200000X0.200000X0.275000X-0.200000X0.275000X-0.200000X-0.275000X0.200000X-0.275000X0*%
%TD*%
%TA.AperFunction,ComponentPad*%
%ADD29R,1.700000X1.700000*%
%TD*%
%TA.AperFunction,ComponentPad*%
%ADD30O,1.700000X1.700000*%
%TD*%
%TA.AperFunction,ViaPad*%
%ADD31C,0.450000*%
%TD*%
%TA.AperFunction,Conductor*%
%ADD32C,0.250000*%
%TD*%
%TA.AperFunction,Conductor*%
%ADD33C,0.500000*%
%TD*%
G04 APERTURE END LIST*
D10*
%TO.P,U2,1,FB*%
%TO.N,+5V*%
X196193517Y-108344119D03*
%TO.P,U2,2,EN*%
%TO.N,+12V*%
X196193517Y-109294119D03*
%TO.P,U2,3,IN*%
X196193517Y-110244119D03*
%TO.P,U2,4,GND*%
%TO.N,GND*%
X198468517Y-110244119D03*
%TO.P,U2,5,SW*%
%TO.N,Net-(U2-SW)*%
X198468517Y-109294119D03*
%TO.P,U2,6,BST*%
%TO.N,Net-(U2-BST)*%
X198468517Y-108344119D03*
%TD*%
D11*
%TO.P,C1,1*%
%TO.N,+12V*%
X195834490Y-112209274D03*
%TO.P,C1,2*%
%TO.N,GND*%
X198784490Y-112209274D03*
%TD*%
D12*
%TO.P,H2,1,1*%
%TO.N,unconnected-(H2-Pad1)*%
X186000000Y-126000000D03*
D13*
X186000000Y-126000000D03*
%TD*%
D12*
%TO.P,H4,1,1*%
%TO.N,unconnected-(H4-Pad1)*%
X210000000Y-126000000D03*
D13*
X210000000Y-126000000D03*
%TD*%
D12*
%TO.P,H1,1,1*%
%TO.N,unconnected-(H1-Pad1)*%
X186000000Y-102000000D03*
D13*
X186000000Y-102000000D03*
%TD*%
D14*
%TO.P,U1,1,~{RESET}/PB5*%
%TO.N,Net-(J4-Pin_5)*%
X190905000Y-112350000D03*
%TO.P,U1,2,XTAL1/PB3*%
%TO.N,MOTOR_CTRL*%
X189635000Y-112350000D03*
%TO.P,U1,3,XTAL2/PB4*%
%TO.N,unconnected-(U1-XTAL2{slash}PB4-Pad3)*%
X188365000Y-112350000D03*
%TO.P,U1,4,GND*%
%TO.N,GND*%
X187095000Y-112350000D03*
%TO.P,U1,5,AREF/PB0*%
%TO.N,Net-(J4-Pin_2)*%
X187095000Y-119650000D03*
%TO.P,U1,6,PB1*%
%TO.N,Net-(J4-Pin_3)*%
X188365000Y-119650000D03*
%TO.P,U1,7,PB2*%
%TO.N,Net-(J4-Pin_4)*%
X189635000Y-119650000D03*
%TO.P,U1,8,VCC*%
%TO.N,+5V*%
X190905000Y-119650000D03*
%TD*%
D15*
%TO.P,D2,1,K*%
%TO.N,+12V*%
X206082351Y-110918376D03*
%TO.P,D2,2,A*%
%TO.N,Net-(D2-A)*%
X206082351Y-107618376D03*
%TD*%
D16*
%TO.P,R2,1*%
%TO.N,Net-(D1-K)*%
X209181961Y-113995799D03*
%TO.P,R2,2*%
%TO.N,GND*%
X207356961Y-113995799D03*
%TD*%
D17*
%TO.P,U3,1,GND*%
%TO.N,GND*%
X198535000Y-116675000D03*
%TO.P,U3,2,IN2*%
X198535000Y-117945000D03*
%TO.P,U3,3,IN1*%
%TO.N,MOTOR_CTRL*%
X198535000Y-119215000D03*
%TO.P,U3,4,ILIM*%
%TO.N,Net-(U3-ILIM)*%
X198535000Y-120485000D03*
%TO.P,U3,5,VM*%
%TO.N,+12V*%
X204285000Y-120485000D03*
%TO.P,U3,6,OUT1*%
%TO.N,Net-(D1-A)*%
X204285000Y-119215000D03*
%TO.P,U3,7,GND*%
%TO.N,GND*%
X204285000Y-117945000D03*
%TO.P,U3,8,OUT2*%
%TO.N,Net-(J2-Pin_2)*%
X204285000Y-116675000D03*
D18*
%TO.P,U3,9,GND*%
%TO.N,GND*%
X200760000Y-117280000D03*
X200760000Y-118580000D03*
X200760000Y-119880000D03*
D19*
X201410000Y-118580000D03*
D18*
X202060000Y-117280000D03*
X202060000Y-118580000D03*
X202060000Y-119880000D03*
%TD*%
D20*
%TO.P,R1,1*%
%TO.N,Net-(U3-ILIM)*%
X196210000Y-120512500D03*
%TO.P,R1,2*%
%TO.N,GND*%
X196210000Y-118687500D03*
%TD*%
D21*
%TO.P,J1,1,Pin_1*%
%TO.N,GND*%
X210566000Y-110490000D03*
D22*
%TO.P,J1,2,Pin_2*%
%TO.N,Net-(D2-A)*%
X210566000Y-107950000D03*
%TD*%
D23*
%TO.P,C5,1*%
%TO.N,+5V*%
X190915000Y-121730000D03*
%TO.P,C5,2*%
%TO.N,GND*%
X189365000Y-121730000D03*
%TD*%
D24*
%TO.P,L1,1*%
%TO.N,Net-(U2-SW)*%
X202289724Y-111771249D03*
%TO.P,L1,2*%
%TO.N,+5V*%
X202289724Y-106918249D03*
%TD*%
D25*
%TO.P,SW1,1,1*%
%TO.N,Net-(J4-Pin_5)*%
X191071643Y-110140493D03*
X186921643Y-110140493D03*
%TO.P,SW1,2,2*%
%TO.N,GND*%
X191071643Y-107990493D03*
X186921643Y-107990493D03*
%TD*%
D26*
%TO.P,D1,1,K*%
%TO.N,Net-(D1-K)*%
X210831961Y-113995799D03*
%TO.P,D1,2,A*%
%TO.N,Net-(D1-A)*%
X212706961Y-113995799D03*
%TD*%
D21*
%TO.P,J2,1,Pin_1*%
%TO.N,Net-(D1-A)*%
X210566000Y-120000000D03*
D22*
%TO.P,J2,2,Pin_2*%
%TO.N,Net-(J2-Pin_2)*%
X210566000Y-117460000D03*
%TD*%
D23*
%TO.P,C2,1*%
%TO.N,Net-(U2-SW)*%
X198743517Y-106744119D03*
%TO.P,C2,2*%
%TO.N,Net-(U2-BST)*%
X197193517Y-106744119D03*
%TD*%
D27*
%TO.P,C4,1*%
%TO.N,+5V*%
X194052627Y-107240246D03*
%TO.P,C4,2*%
%TO.N,GND*%
X194052627Y-110190246D03*
%TD*%
D28*
%TO.P,R3,1*%
%TO.N,+5V*%
X191211715Y-106292349D03*
%TO.P,R3,2*%
%TO.N,Net-(J4-Pin_5)*%
X189561715Y-106292349D03*
%TD*%
D12*
%TO.P,H3,1,1*%
%TO.N,unconnected-(H3-Pad1)*%
X210000000Y-102000000D03*
D13*
X210000000Y-102000000D03*
%TD*%
D29*
%TO.P,J4,1,Pin_1*%
%TO.N,+5V*%
X184625000Y-120350000D03*
D30*
%TO.P,J4,2,Pin_2*%
%TO.N,Net-(J4-Pin_2)*%
X184625000Y-117810000D03*
%TO.P,J4,3,Pin_3*%
%TO.N,Net-(J4-Pin_3)*%
X184625000Y-115270000D03*
%TO.P,J4,4,Pin_4*%
%TO.N,Net-(J4-Pin_4)*%
X184625000Y-112730000D03*
%TO.P,J4,5,Pin_5*%
%TO.N,Net-(J4-Pin_5)*%
X184625000Y-110190000D03*
%TO.P,J4,6,Pin_6*%
%TO.N,GND*%
X184625000Y-107650000D03*
%TD*%
D31*
%TO.N,GND*%
X197612000Y-112522000D03*
X197320000Y-110260000D03*
X197330000Y-109300000D03*
X197612000Y-111760000D03*
%TO.N,+5V*%
X202289724Y-106918249D03*
X196193486Y-106813444D03*
%TO.N,+12V*%
X205417724Y-114184524D03*
X205993999Y-120487267D03*
%TO.N,MOTOR_CTRL*%
X198535000Y-119215000D03*
X189640000Y-113640000D03*
%TD*%
D32*
%TO.N,+5V*%
X190905000Y-120235000D02*
X190905000Y-119650000D01*
X191211715Y-106292349D02*
X191382349Y-106292349D01*
X191382349Y-106292349D02*
X192278000Y-107188000D01*
X192278000Y-107188000D02*
X194000381Y-107188000D01*
X196193517Y-106813475D02*
X196193486Y-106813444D01*
X194000381Y-107188000D02*
X194052627Y-107240246D01*
X190905000Y-115927000D02*
X190905000Y-119650000D01*
X190905000Y-119650000D02*
X190905000Y-121669687D01*
X184625000Y-120350000D02*
X185100000Y-120825000D01*
X190315000Y-120825000D02*
X190905000Y-120235000D01*
X192532000Y-109474000D02*
X192532000Y-114300000D01*
X192532000Y-114300000D02*
X190905000Y-115927000D01*
X195156500Y-108344119D02*
X193661881Y-108344119D01*
X195156500Y-108344119D02*
X196193517Y-108344119D01*
X196193517Y-108344119D02*
X196193517Y-106813475D01*
X194052627Y-107240246D02*
X195156500Y-108344119D01*
X193661881Y-108344119D02*
X192532000Y-109474000D01*
X185100000Y-120825000D02*
X190315000Y-120825000D01*
D33*
%TO.N,Net-(D1-K)*%
X210831961Y-113995799D02*
X209181961Y-113995799D01*
D32*
%TO.N,Net-(J4-Pin_5)*%
X184674507Y-110140493D02*
X184625000Y-110190000D01*
X189561715Y-106292349D02*
X189561715Y-108027715D01*
X189561715Y-108027715D02*
X191071643Y-109537643D01*
X191071643Y-111068357D02*
X191071643Y-110140493D01*
X191071643Y-109537643D02*
X191071643Y-110140493D01*
X190905000Y-111235000D02*
X191071643Y-111068357D01*
X186921643Y-110140493D02*
X191071643Y-110140493D01*
X190905000Y-112350000D02*
X190905000Y-111235000D01*
X186921643Y-110140493D02*
X184674507Y-110140493D01*
D33*
%TO.N,Net-(D1-A)*%
X212001597Y-119976403D02*
X212706961Y-119271039D01*
X209950000Y-120050000D02*
X210023597Y-119976403D01*
X212706961Y-119271039D02*
X212706961Y-113995799D01*
X207520000Y-120050000D02*
X209950000Y-120050000D01*
X206685000Y-119215000D02*
X207520000Y-120050000D01*
X204285000Y-119215000D02*
X206685000Y-119215000D01*
X210023597Y-119976403D02*
X212001597Y-119976403D01*
%TO.N,+12V*%
X205417724Y-114184524D02*
X205993999Y-113608249D01*
X205993999Y-113608249D02*
X205993999Y-111006728D01*
X196480524Y-114184524D02*
X195834490Y-113538490D01*
X205991732Y-120485000D02*
X205993999Y-120487267D01*
X195834490Y-113538490D02*
X195834490Y-112209274D01*
X205993999Y-111006728D02*
X206082351Y-110918376D01*
X204285000Y-120485000D02*
X205991732Y-120485000D01*
X205417724Y-114184524D02*
X196480524Y-114184524D01*
%TO.N,Net-(J2-Pin_2)*%
X207450000Y-117460000D02*
X210000000Y-117460000D01*
X206665000Y-116675000D02*
X207450000Y-117460000D01*
X204285000Y-116675000D02*
X206665000Y-116675000D01*
D32*
%TO.N,Net-(J4-Pin_2)*%
X184625000Y-117810000D02*
X186710000Y-117810000D01*
X187095000Y-118195000D02*
X187095000Y-119650000D01*
X186710000Y-117810000D02*
X187095000Y-118195000D01*
%TO.N,Net-(J4-Pin_3)*%
X188365000Y-117725000D02*
X188365000Y-119650000D01*
X184625000Y-115270000D02*
X185910000Y-115270000D01*
X185910000Y-115270000D02*
X188365000Y-117725000D01*
%TO.N,Net-(J4-Pin_4)*%
X189635000Y-117185000D02*
X189635000Y-119650000D01*
X184625000Y-112730000D02*
X185180000Y-112730000D01*
X185180000Y-112730000D02*
X189635000Y-117185000D01*
%TO.N,Net-(U3-ILIM)*%
X196210000Y-120512500D02*
X198507500Y-120512500D01*
X198507500Y-120512500D02*
X198535000Y-120485000D01*
%TO.N,MOTOR_CTRL*%
X189635000Y-112350000D02*
X189635000Y-113635000D01*
X189635000Y-113635000D02*
X189640000Y-113640000D01*
D33*
%TO.N,Net-(D2-A)*%
X206123166Y-107659191D02*
X206082351Y-107618376D01*
X208069083Y-107950000D02*
X207778274Y-107659191D01*
X210566000Y-107950000D02*
X208069083Y-107950000D01*
X207778274Y-107659191D02*
X206123166Y-107659191D01*
%TD*%
%TA.AperFunction,Conductor*%
%TO.N,+12V*%
G36*
X195497690Y-108802857D02*
G01*
X195539603Y-108820321D01*
X195546959Y-108823221D01*
X195547808Y-108823537D01*
X195547894Y-108823549D01*
X195560558Y-108828283D01*
X195560461Y-108828541D01*
X195578121Y-108833957D01*
X195579626Y-108834693D01*
X195647754Y-108844619D01*
X195647757Y-108844619D01*
X196739277Y-108844619D01*
X196753339Y-108842570D01*
X196822517Y-108852382D01*
X196875407Y-108898037D01*
X196895219Y-108965039D01*
X196895219Y-108965325D01*
X196894709Y-110215473D01*
X196893183Y-110234813D01*
X196889195Y-110259996D01*
X196893148Y-110284954D01*
X196894674Y-110304399D01*
X196893581Y-112990566D01*
X196873869Y-113057598D01*
X196821047Y-113103331D01*
X196767621Y-113114501D01*
X195192142Y-113089592D01*
X195125422Y-113068850D01*
X195080507Y-113015329D01*
X195070102Y-112965490D01*
X195071881Y-111121880D01*
X195091630Y-111054860D01*
X195144478Y-111009156D01*
X195195881Y-110998000D01*
X195326000Y-110998000D01*
X195326000Y-108917319D01*
X195345685Y-108850280D01*
X195398489Y-108804525D01*
X195467647Y-108794581D01*
X195497690Y-108802857D01*
G37*
%TD.AperFunction*%
%TD*%
%TA.AperFunction,Conductor*%
%TO.N,Net-(J4-Pin_5)*%
G36*
X191079903Y-110147778D02*
G01*
X191079929Y-110147804D01*
X191390129Y-110458959D01*
X191393543Y-110467237D01*
X191391807Y-110473351D01*
X191200069Y-110784925D01*
X191192815Y-110790175D01*
X191190105Y-110790493D01*
X190953181Y-110790493D01*
X190944908Y-110787066D01*
X190943217Y-110784925D01*
X190866521Y-110660295D01*
X190751477Y-110473349D01*
X190750060Y-110464509D01*
X190753154Y-110458961D01*
X191063357Y-110147803D01*
X191071625Y-110144364D01*
X191079903Y-110147778D01*
G37*
%TD.AperFunction*%
%TD*%
%TA.AperFunction,Conductor*%
%TO.N,Net-(J4-Pin_5)*%
G36*
X187452787Y-109819274D02*
G01*
X187766075Y-110012066D01*
X187771325Y-110019320D01*
X187771643Y-110022030D01*
X187771643Y-110258955D01*
X187768216Y-110267228D01*
X187766075Y-110268919D01*
X187452787Y-110461711D01*
X187443945Y-110463129D01*
X187440505Y-110461700D01*
X187112369Y-110258955D01*
X186936750Y-110150445D01*
X186931514Y-110143182D01*
X186932948Y-110134343D01*
X186936750Y-110130540D01*
X187440506Y-109819284D01*
X187449344Y-109817851D01*
X187452787Y-109819274D01*
G37*
%TD.AperFunction*%
%TD*%
%TA.AperFunction,Conductor*%
%TO.N,Net-(J4-Pin_5)*%
G36*
X190552780Y-109819285D02*
G01*
X191056534Y-110130540D01*
X191061771Y-110137804D01*
X191060337Y-110146643D01*
X191056534Y-110150446D01*
X190552780Y-110461700D01*
X190543941Y-110463134D01*
X190540498Y-110461711D01*
X190227211Y-110268919D01*
X190221961Y-110261665D01*
X190221643Y-110258955D01*
X190221643Y-110022030D01*
X190225070Y-110013757D01*
X190227207Y-110012068D01*
X190540499Y-109819273D01*
X190549340Y-109817856D01*
X190552780Y-109819285D01*
G37*
%TD.AperFunction*%
%TD*%
%TA.AperFunction,Conductor*%
%TO.N,Net-(D1-K)*%
G36*
X209689659Y-113487114D02*
G01*
X210200494Y-113742565D01*
X210206361Y-113749331D01*
X210206961Y-113753030D01*
X210206961Y-114238567D01*
X210203534Y-114246840D01*
X210200494Y-114249032D01*
X209689661Y-114504482D01*
X209680729Y-114505117D01*
X209676062Y-114502196D01*
X209425384Y-114245799D01*
X209188956Y-114003977D01*
X209185624Y-113995667D01*
X209188956Y-113987620D01*
X209676063Y-113489400D01*
X209684296Y-113485881D01*
X209689659Y-113487114D01*
G37*
%TD.AperFunction*%
%TD*%
%TA.AperFunction,Conductor*%
%TO.N,Net-(D1-A)*%
G36*
X209523275Y-119032071D02*
G01*
X210557983Y-119991638D01*
X210561719Y-119999776D01*
X210558606Y-120008173D01*
X210558200Y-120008589D01*
X209523060Y-121019025D01*
X209514746Y-121022352D01*
X209508014Y-121020121D01*
X209506504Y-121019025D01*
X208520825Y-120303502D01*
X208516144Y-120295871D01*
X208516000Y-120294048D01*
X208516000Y-119805732D01*
X208519426Y-119797462D01*
X208520518Y-119796499D01*
X209508156Y-119031400D01*
X209516793Y-119029043D01*
X209523275Y-119032071D01*
G37*
%TD.AperFunction*%
%TD*%
%TA.AperFunction,Conductor*%
%TO.N,Net-(J4-Pin_3)*%
G36*
X188491735Y-118478427D02*
G01*
X188493426Y-118480568D01*
X188686975Y-118795084D01*
X188688393Y-118803926D01*
X188687941Y-118805390D01*
X188375930Y-119622380D01*
X188369777Y-119628886D01*
X188360826Y-119629136D01*
X188354320Y-119622983D01*
X188354070Y-119622380D01*
X188042058Y-118805390D01*
X188042308Y-118796439D01*
X188043016Y-118795098D01*
X188236573Y-118480568D01*
X188243828Y-118475318D01*
X188246538Y-118475000D01*
X188483462Y-118475000D01*
X188491735Y-118478427D01*
G37*
%TD.AperFunction*%
%TD*%
%TA.AperFunction,Conductor*%
%TO.N,Net-(U3-ILIM)*%
G36*
X198483171Y-120474077D02*
G01*
X198490579Y-120479108D01*
X198492260Y-120487904D01*
X198487229Y-120495312D01*
X198483393Y-120496945D01*
X197438497Y-120734205D01*
X197431655Y-120733695D01*
X197192449Y-120640405D01*
X197185986Y-120634207D01*
X197185000Y-120629505D01*
X197185000Y-120394599D01*
X197188427Y-120386326D01*
X197191295Y-120384222D01*
X197431308Y-120259280D01*
X197439074Y-120258201D01*
X198483171Y-120474077D01*
G37*
%TD.AperFunction*%
%TD*%
%TA.AperFunction,Conductor*%
%TO.N,+12V*%
G36*
X196390460Y-112954945D02*
G01*
X196307988Y-113107234D01*
X196307987Y-113107234D01*
X196115161Y-113463302D01*
X196113146Y-113466003D01*
X195771805Y-113807344D01*
X195763532Y-113810771D01*
X195755259Y-113807344D01*
X195753287Y-113804721D01*
X195315325Y-113010029D01*
X195833783Y-112208567D01*
X196390460Y-112954945D01*
G37*
%TD.AperFunction*%
%TD*%
%TA.AperFunction,Conductor*%
%TO.N,Net-(J4-Pin_4)*%
G36*
X189761735Y-118478427D02*
G01*
X189763426Y-118480568D01*
X189956975Y-118795084D01*
X189958393Y-118803926D01*
X189957941Y-118805390D01*
X189645930Y-119622380D01*
X189639777Y-119628886D01*
X189630826Y-119629136D01*
X189624320Y-119622983D01*
X189624070Y-119622380D01*
X189312058Y-118805390D01*
X189312308Y-118796439D01*
X189313016Y-118795098D01*
X189506573Y-118480568D01*
X189513828Y-118475318D01*
X189516538Y-118475000D01*
X189753462Y-118475000D01*
X189761735Y-118478427D01*
G37*
%TD.AperFunction*%
%TD*%
%TA.AperFunction,Conductor*%
%TO.N,+5V*%
G36*
X196392291Y-106895748D02*
G01*
X196398596Y-106902105D01*
X196399176Y-106909135D01*
X196320589Y-107254335D01*
X196315411Y-107261641D01*
X196309181Y-107263438D01*
X196077852Y-107263438D01*
X196069579Y-107260011D01*
X196066444Y-107254337D01*
X196033610Y-107110223D01*
X195987797Y-106909135D01*
X195989301Y-106900309D01*
X195994681Y-106895747D01*
X196188966Y-106814337D01*
X196197917Y-106814301D01*
X196392291Y-106895748D01*
G37*
%TD.AperFunction*%
%TD*%
%TA.AperFunction,Conductor*%
%TO.N,Net-(J4-Pin_5)*%
G36*
X186402780Y-109819285D02*
G01*
X186906534Y-110130540D01*
X186911771Y-110137804D01*
X186910337Y-110146643D01*
X186906534Y-110150446D01*
X186402780Y-110461700D01*
X186393941Y-110463134D01*
X186390498Y-110461711D01*
X186077211Y-110268919D01*
X186071961Y-110261665D01*
X186071643Y-110258955D01*
X186071643Y-110022030D01*
X186075070Y-110013757D01*
X186077207Y-110012068D01*
X186390499Y-109819273D01*
X186399340Y-109817856D01*
X186402780Y-109819285D01*
G37*
%TD.AperFunction*%
%TD*%
%TA.AperFunction,Conductor*%
%TO.N,Net-(U2-SW)*%
G36*
X200349039Y-106191685D02*
G01*
X200394794Y-106244489D01*
X200406000Y-106295999D01*
X200406000Y-110744000D01*
X203584000Y-110744000D01*
X203651039Y-110763685D01*
X203696794Y-110816489D01*
X203708000Y-110868000D01*
X203708000Y-112652000D01*
X203688315Y-112719039D01*
X203635511Y-112764794D01*
X203584000Y-112776000D01*
X199683990Y-112776000D01*
X199616951Y-112756315D01*
X199571196Y-112703511D01*
X199559990Y-112652000D01*
X199559990Y-111507900D01*
X199559989Y-111507899D01*
X199559990Y-111505008D01*
X199557136Y-111474575D01*
X199512283Y-111346392D01*
X199431640Y-111237124D01*
X199431639Y-111237123D01*
X199420542Y-111222087D01*
X199422796Y-111220423D01*
X199398113Y-111187910D01*
X199390000Y-111143794D01*
X199390000Y-109728000D01*
X197990000Y-109728000D01*
X197922961Y-109708315D01*
X197877206Y-109655511D01*
X197866000Y-109604000D01*
X197866000Y-109041500D01*
X197885685Y-108974461D01*
X197938489Y-108928706D01*
X197990000Y-108917500D01*
X199008678Y-108917500D01*
X199012000Y-108917500D01*
X199055684Y-108912803D01*
X199107195Y-108901597D01*
X199108732Y-108901232D01*
X199117350Y-108899121D01*
X199117368Y-108899111D01*
X199117373Y-108899110D01*
X199198085Y-108856100D01*
X199250889Y-108810345D01*
X199268843Y-108792754D01*
X199313490Y-108712937D01*
X199333175Y-108645898D01*
X199341500Y-108588000D01*
X199341500Y-108074720D01*
X199336676Y-108030456D01*
X199325170Y-107978292D01*
X199324776Y-107976663D01*
X199322507Y-107967570D01*
X199279017Y-107887083D01*
X199252681Y-107857044D01*
X199232958Y-107834547D01*
X199215263Y-107816695D01*
X199215262Y-107816694D01*
X199215261Y-107816693D01*
X199135191Y-107772512D01*
X199135188Y-107772511D01*
X199068037Y-107753215D01*
X199010092Y-107745225D01*
X199010090Y-107745225D01*
X198033105Y-107750884D01*
X197965953Y-107731588D01*
X197919893Y-107679050D01*
X197908387Y-107626886D01*
X197908387Y-106306639D01*
X197908387Y-106306638D01*
X197908387Y-106303375D01*
X197908257Y-106302147D01*
X197924306Y-106234534D01*
X197974633Y-106186068D01*
X198031999Y-106172000D01*
X200282000Y-106172000D01*
X200349039Y-106191685D01*
G37*
%TD.AperFunction*%
%TD*%
%TA.AperFunction,Conductor*%
%TO.N,Net-(D2-A)*%
G36*
X210168667Y-106990733D02*
G01*
X210168751Y-106990930D01*
X210565136Y-107945513D01*
X210565144Y-107954468D01*
X210565136Y-107954487D01*
X210168751Y-108909069D01*
X210162414Y-108915395D01*
X210153459Y-108915387D01*
X210153262Y-108915303D01*
X208523016Y-108203065D01*
X208516807Y-108196613D01*
X208516000Y-108192344D01*
X208516000Y-107707655D01*
X208519427Y-107699382D01*
X208523012Y-107696936D01*
X210153264Y-106984695D01*
X210162215Y-106984524D01*
X210168667Y-106990733D01*
G37*
%TD.AperFunction*%
%TD*%
%TA.AperFunction,Conductor*%
%TO.N,MOTOR_CTRL*%
G36*
X189645680Y-112377016D02*
G01*
X189645930Y-112377619D01*
X189957941Y-113194609D01*
X189957691Y-113203560D01*
X189956975Y-113204915D01*
X189763426Y-113519432D01*
X189756172Y-113524682D01*
X189753462Y-113525000D01*
X189516538Y-113525000D01*
X189508265Y-113521573D01*
X189506574Y-113519432D01*
X189423623Y-113384639D01*
X189313023Y-113204913D01*
X189311606Y-113196073D01*
X189312054Y-113194620D01*
X189624070Y-112377618D01*
X189630223Y-112371113D01*
X189639174Y-112370863D01*
X189645680Y-112377016D01*
G37*
%TD.AperFunction*%
%TD*%
%TA.AperFunction,Conductor*%
%TO.N,Net-(U2-BST)*%
G36*
X197579820Y-106179378D02*
G01*
X197646707Y-106199565D01*
X197692064Y-106252711D01*
X197702887Y-106303375D01*
X197702887Y-107958302D01*
X199011283Y-107950722D01*
X199078434Y-107970018D01*
X199124494Y-108022556D01*
X199136000Y-108074720D01*
X199136000Y-108588000D01*
X199116315Y-108655039D01*
X199063511Y-108700794D01*
X199012000Y-108712000D01*
X197228000Y-108712000D01*
X197160961Y-108692315D01*
X197115206Y-108639511D01*
X197104000Y-108588000D01*
X197104000Y-107442000D01*
X196720000Y-107442000D01*
X196652961Y-107422315D01*
X196607206Y-107369511D01*
X196596000Y-107318000D01*
X196596000Y-106990484D01*
X196601822Y-106966243D01*
X196600132Y-106965976D01*
X196624290Y-106813444D01*
X196600133Y-106660921D01*
X196601820Y-106660653D01*
X196596000Y-106636408D01*
X196596000Y-106296934D01*
X196615685Y-106229895D01*
X196668489Y-106184140D01*
X196720929Y-106172937D01*
X197579820Y-106179378D01*
G37*
%TD.AperFunction*%
%TD*%
%TA.AperFunction,Conductor*%
%TO.N,+5V*%
G36*
X195628412Y-108057962D02*
G01*
X195934420Y-108212644D01*
X196173859Y-108333677D01*
X196179697Y-108340468D01*
X196179023Y-108349397D01*
X196173859Y-108354561D01*
X195628420Y-108630271D01*
X195619491Y-108630945D01*
X195618642Y-108630629D01*
X195238217Y-108472118D01*
X195231898Y-108465773D01*
X195231017Y-108461318D01*
X195231017Y-108226919D01*
X195234444Y-108218646D01*
X195238217Y-108216119D01*
X195618643Y-108057607D01*
X195627597Y-108057589D01*
X195628412Y-108057962D01*
G37*
%TD.AperFunction*%
%TD*%
%TA.AperFunction,Conductor*%
%TO.N,+12V*%
G36*
X206089913Y-110925600D02*
G01*
X206485289Y-111355550D01*
X206488367Y-111363960D01*
X206486969Y-111369035D01*
X206247316Y-111812241D01*
X206240366Y-111817888D01*
X206237024Y-111818376D01*
X205752572Y-111818376D01*
X205744299Y-111814949D01*
X205741416Y-111810202D01*
X205592072Y-111337643D01*
X205592846Y-111328721D01*
X205595709Y-111325153D01*
X206073787Y-110924551D01*
X206082329Y-110921865D01*
X206089913Y-110925600D01*
G37*
%TD.AperFunction*%
%TD*%
%TA.AperFunction,Conductor*%
%TO.N,+5V*%
G36*
X196320070Y-107747546D02*
G01*
X196321903Y-107749924D01*
X196488980Y-108036341D01*
X196490189Y-108045214D01*
X196487161Y-108050495D01*
X196201804Y-108336804D01*
X196193536Y-108340245D01*
X196185258Y-108336832D01*
X196185230Y-108336804D01*
X195899872Y-108050495D01*
X195896459Y-108042217D01*
X195898051Y-108036344D01*
X196065130Y-107749924D01*
X196072259Y-107744504D01*
X196075237Y-107744119D01*
X196311797Y-107744119D01*
X196320070Y-107747546D01*
G37*
%TD.AperFunction*%
%TD*%
%TA.AperFunction,Conductor*%
%TO.N,+5V*%
G36*
X185482166Y-119713507D02*
G01*
X186322195Y-120696717D01*
X186325000Y-120704316D01*
X186325000Y-120941245D01*
X186321573Y-120949518D01*
X186316601Y-120952470D01*
X185481657Y-121198041D01*
X185472753Y-121197087D01*
X185470088Y-121195094D01*
X185215940Y-120941245D01*
X184633501Y-120359490D01*
X184630070Y-120351220D01*
X184633492Y-120342945D01*
X184634698Y-120341892D01*
X185466208Y-119711782D01*
X185474869Y-119709518D01*
X185482166Y-119713507D01*
G37*
%TD.AperFunction*%
%TD*%
%TA.AperFunction,Conductor*%
%TO.N,+5V*%
G36*
X191617265Y-106101559D02*
G01*
X191978293Y-106708348D01*
X191979578Y-106717210D01*
X191976511Y-106722603D01*
X191810597Y-106888517D01*
X191802324Y-106891944D01*
X191800028Y-106891717D01*
X191188592Y-106769365D01*
X191181152Y-106764381D01*
X191179215Y-106757095D01*
X191181571Y-106722603D01*
X191210551Y-106298329D01*
X191214533Y-106290311D01*
X191217003Y-106288658D01*
X191601999Y-106097065D01*
X191610931Y-106096448D01*
X191617265Y-106101559D01*
G37*
%TD.AperFunction*%
%TD*%
%TA.AperFunction,Conductor*%
%TO.N,Net-(J4-Pin_2)*%
G36*
X184960836Y-117029791D02*
G01*
X184961413Y-117030049D01*
X186318366Y-117681814D01*
X186324339Y-117688484D01*
X186325000Y-117692360D01*
X186325000Y-117927639D01*
X186321573Y-117935912D01*
X186318366Y-117938186D01*
X184961413Y-118589950D01*
X184952471Y-118590442D01*
X184945800Y-118584469D01*
X184945542Y-118583892D01*
X184625865Y-117814489D01*
X184625856Y-117805534D01*
X184625865Y-117805511D01*
X184945542Y-117036107D01*
X184951881Y-117029782D01*
X184960836Y-117029791D01*
G37*
%TD.AperFunction*%
%TD*%
%TA.AperFunction,Conductor*%
%TO.N,+5V*%
G36*
X194944082Y-107326243D02*
G01*
X194951984Y-107330454D01*
X194954397Y-107335475D01*
X195121293Y-108127240D01*
X195119647Y-108136042D01*
X195118118Y-108137926D01*
X194951471Y-108304573D01*
X194943198Y-108308000D01*
X194938508Y-108307019D01*
X194932917Y-108304573D01*
X194547704Y-108136042D01*
X193824948Y-107819836D01*
X193818742Y-107813380D01*
X193818821Y-107804658D01*
X194048611Y-107247560D01*
X194054933Y-107241220D01*
X194060556Y-107240378D01*
X194944082Y-107326243D01*
G37*
%TD.AperFunction*%
%TD*%
%TA.AperFunction,Conductor*%
%TO.N,+5V*%
G36*
X191031293Y-120808427D02*
G01*
X191033316Y-120811143D01*
X191343172Y-121385188D01*
X191344086Y-121394096D01*
X191340065Y-121399976D01*
X190922189Y-121725401D01*
X190913556Y-121727781D01*
X190907811Y-121725401D01*
X190489725Y-121399813D01*
X190485303Y-121392026D01*
X190486474Y-121385301D01*
X190486532Y-121385188D01*
X190776753Y-120811418D01*
X190783545Y-120805583D01*
X190787193Y-120805000D01*
X191023020Y-120805000D01*
X191031293Y-120808427D01*
G37*
%TD.AperFunction*%
%TD*%
%TA.AperFunction,Conductor*%
%TO.N,Net-(D1-A)*%
G36*
X212714548Y-114003935D02*
G01*
X212715868Y-114005255D01*
X213171582Y-114540251D01*
X213174338Y-114548771D01*
X213173741Y-114551636D01*
X212959673Y-115175397D01*
X212953747Y-115182110D01*
X212948607Y-115183299D01*
X212465315Y-115183299D01*
X212457042Y-115179872D01*
X212454249Y-115175397D01*
X212240180Y-114551636D01*
X212240735Y-114542698D01*
X212242336Y-114540254D01*
X212698054Y-114005254D01*
X212706028Y-114001179D01*
X212714548Y-114003935D01*
G37*
%TD.AperFunction*%
%TD*%
%TA.AperFunction,Conductor*%
%TO.N,Net-(U3-ILIM)*%
G36*
X196762975Y-120023066D02*
G01*
X197416460Y-120384162D01*
X197422042Y-120391162D01*
X197422500Y-120394402D01*
X197422500Y-120630597D01*
X197419073Y-120638870D01*
X197416459Y-120640838D01*
X196762975Y-121001933D01*
X196754076Y-121002934D01*
X196749476Y-121000377D01*
X196218621Y-120521185D01*
X196214776Y-120513098D01*
X196217776Y-120504660D01*
X196218621Y-120503815D01*
X196749476Y-120024622D01*
X196757914Y-120021622D01*
X196762975Y-120023066D01*
G37*
%TD.AperFunction*%
%TD*%
%TA.AperFunction,Conductor*%
%TO.N,Net-(J4-Pin_5)*%
G36*
X184960963Y-109409486D02*
G01*
X184961248Y-109409610D01*
X186308233Y-110012396D01*
X186314384Y-110018902D01*
X186315153Y-110023074D01*
X186315153Y-110258390D01*
X186311726Y-110266663D01*
X186308851Y-110268770D01*
X184961592Y-110969415D01*
X184952671Y-110970192D01*
X184945814Y-110964433D01*
X184945389Y-110963524D01*
X184625865Y-110194489D01*
X184625856Y-110185534D01*
X184625865Y-110185511D01*
X184693356Y-110023074D01*
X184945669Y-109415801D01*
X184952008Y-109409477D01*
X184960963Y-109409486D01*
G37*
%TD.AperFunction*%
%TD*%
%TA.AperFunction,Conductor*%
%TO.N,Net-(D2-A)*%
G36*
X206551028Y-107188596D02*
G01*
X207124802Y-107406326D01*
X207131321Y-107412465D01*
X207132351Y-107417265D01*
X207132351Y-107899977D01*
X207128924Y-107908250D01*
X207123395Y-107911351D01*
X206549591Y-108049768D01*
X206540745Y-108048377D01*
X206538848Y-108046933D01*
X206090479Y-107626926D01*
X206086784Y-107618769D01*
X206089939Y-107610388D01*
X206090471Y-107609856D01*
X206538891Y-107190984D01*
X206547275Y-107187842D01*
X206551028Y-107188596D01*
G37*
%TD.AperFunction*%
%TD*%
%TA.AperFunction,Conductor*%
%TO.N,Net-(J4-Pin_5)*%
G36*
X190867364Y-111112929D02*
G01*
X190869420Y-111114567D01*
X191035558Y-111280705D01*
X191036040Y-111281216D01*
X191225289Y-111494686D01*
X191228213Y-111503150D01*
X191227461Y-111506631D01*
X190915790Y-112320675D01*
X190909631Y-112327176D01*
X190900680Y-112327419D01*
X190894179Y-112321260D01*
X190893808Y-112320321D01*
X190612577Y-111505289D01*
X190613118Y-111496352D01*
X190613716Y-111495273D01*
X190851238Y-111116621D01*
X190858535Y-111111435D01*
X190867364Y-111112929D01*
G37*
%TD.AperFunction*%
%TD*%
%TA.AperFunction,Conductor*%
%TO.N,Net-(J4-Pin_2)*%
G36*
X187221735Y-118478427D02*
G01*
X187223426Y-118480568D01*
X187416975Y-118795084D01*
X187418393Y-118803926D01*
X187417941Y-118805390D01*
X187105929Y-119622380D01*
X187099776Y-119628886D01*
X187090825Y-119629136D01*
X187084319Y-119622983D01*
X187084080Y-119622408D01*
X186772058Y-118805388D01*
X186772308Y-118796439D01*
X186773016Y-118795098D01*
X186966573Y-118480568D01*
X186973828Y-118475318D01*
X186976538Y-118475000D01*
X187213462Y-118475000D01*
X187221735Y-118478427D01*
G37*
%TD.AperFunction*%
%TD*%
%TA.AperFunction,Conductor*%
%TO.N,+5V*%
G36*
X191031735Y-118478427D02*
G01*
X191033426Y-118480568D01*
X191226975Y-118795084D01*
X191228393Y-118803926D01*
X191227941Y-118805390D01*
X190915930Y-119622380D01*
X190909777Y-119628886D01*
X190900826Y-119629136D01*
X190894320Y-119622983D01*
X190894070Y-119622380D01*
X190582058Y-118805390D01*
X190582308Y-118796439D01*
X190583016Y-118795098D01*
X190776573Y-118480568D01*
X190783828Y-118475318D01*
X190786538Y-118475000D01*
X191023462Y-118475000D01*
X191031735Y-118478427D01*
G37*
%TD.AperFunction*%
%TD*%
%TA.AperFunction,Conductor*%
%TO.N,Net-(J4-Pin_5)*%
G36*
X191132912Y-109426239D02*
G01*
X191134516Y-109428240D01*
X191375518Y-109807800D01*
X191377060Y-109816622D01*
X191374141Y-109822112D01*
X191080406Y-110132681D01*
X191072232Y-110136336D01*
X191063866Y-110133141D01*
X191063848Y-110133124D01*
X190738131Y-109823716D01*
X190734493Y-109815533D01*
X190737706Y-109807175D01*
X190737817Y-109807059D01*
X190949915Y-109592691D01*
X191116367Y-109426238D01*
X191124639Y-109422812D01*
X191132912Y-109426239D01*
G37*
%TD.AperFunction*%
%TD*%
%TA.AperFunction,Conductor*%
%TO.N,Net-(J4-Pin_3)*%
G36*
X185234155Y-114675096D02*
G01*
X186012466Y-115263761D01*
X186281121Y-115466955D01*
X186285652Y-115474679D01*
X186283395Y-115483345D01*
X186282336Y-115484560D01*
X186116962Y-115649934D01*
X186112518Y-115652717D01*
X184960694Y-116051690D01*
X184951755Y-116051159D01*
X184946058Y-116045116D01*
X184627293Y-115276526D01*
X184627289Y-115267571D01*
X184629834Y-115263764D01*
X185218837Y-114676145D01*
X185227113Y-114672729D01*
X185234155Y-114675096D01*
G37*
%TD.AperFunction*%
%TD*%
%TA.AperFunction,Conductor*%
%TO.N,Net-(D1-A)*%
G36*
X211623937Y-118955123D02*
G01*
X212258221Y-119364502D01*
X212260149Y-119366059D01*
X212604776Y-119710686D01*
X212608203Y-119718959D01*
X212605003Y-119726999D01*
X211623100Y-120765170D01*
X211614926Y-120768825D01*
X211607673Y-120766559D01*
X210576273Y-120008774D01*
X210571634Y-120001114D01*
X210573771Y-119992418D01*
X210574920Y-119991079D01*
X211609320Y-118956679D01*
X211617592Y-118953253D01*
X211623937Y-118955123D01*
G37*
%TD.AperFunction*%
%TD*%
%TA.AperFunction,Conductor*%
%TO.N,+5V*%
G36*
X193312832Y-106688651D02*
G01*
X194040845Y-107230728D01*
X194045434Y-107238417D01*
X194043241Y-107247100D01*
X194040717Y-107249590D01*
X193302395Y-107784029D01*
X193293684Y-107786104D01*
X193289073Y-107784305D01*
X192582865Y-107316469D01*
X192577861Y-107309043D01*
X192577627Y-107306715D01*
X192577627Y-107070108D01*
X192581054Y-107061835D01*
X192583933Y-107059725D01*
X193300454Y-106687651D01*
X193309375Y-106686881D01*
X193312832Y-106688651D01*
G37*
%TD.AperFunction*%
%TD*%
%TA.AperFunction,Conductor*%
%TO.N,Net-(J4-Pin_4)*%
G36*
X185410276Y-112408434D02*
G01*
X185415592Y-112412858D01*
X185626546Y-112737127D01*
X186110315Y-113480760D01*
X186111954Y-113489563D01*
X186108781Y-113495413D01*
X185942455Y-113661739D01*
X185934182Y-113665166D01*
X185933422Y-113665141D01*
X184635930Y-113580711D01*
X184627897Y-113576754D01*
X184624990Y-113569048D01*
X184624299Y-112737125D01*
X184627719Y-112728851D01*
X184631531Y-112726303D01*
X185401323Y-112408425D01*
X185410276Y-112408434D01*
G37*
%TD.AperFunction*%
%TD*%
%TA.AperFunction,Conductor*%
%TO.N,Net-(J4-Pin_5)*%
G36*
X189569617Y-106298589D02*
G01*
X189831912Y-106538907D01*
X189940002Y-106637941D01*
X189943787Y-106646057D01*
X189942578Y-106651769D01*
X189689940Y-107160850D01*
X189683193Y-107166737D01*
X189679460Y-107167349D01*
X189443970Y-107167349D01*
X189435697Y-107163922D01*
X189433490Y-107160850D01*
X189180851Y-106651769D01*
X189180243Y-106642835D01*
X189183426Y-106637942D01*
X189553812Y-106298589D01*
X189562226Y-106295528D01*
X189569617Y-106298589D01*
G37*
%TD.AperFunction*%
%TD*%
%TA.AperFunction,Conductor*%
%TO.N,MOTOR_CTRL*%
G36*
X189759068Y-113194422D02*
G01*
X189762166Y-113199942D01*
X189845526Y-113544205D01*
X189844143Y-113553052D01*
X189838677Y-113557749D01*
X189644522Y-113639105D01*
X189635567Y-113639142D01*
X189635478Y-113639105D01*
X189441082Y-113557648D01*
X189434776Y-113551290D01*
X189434164Y-113544402D01*
X189434207Y-113544205D01*
X189508016Y-113200239D01*
X189513103Y-113192870D01*
X189519456Y-113190995D01*
X189750795Y-113190995D01*
X189759068Y-113194422D01*
G37*
%TD.AperFunction*%
%TD*%
%TA.AperFunction,Conductor*%
%TO.N,Net-(D1-K)*%
G36*
X210356546Y-113514231D02*
G01*
X210824820Y-113987570D01*
X210828202Y-113995862D01*
X210824820Y-114004028D01*
X210356546Y-114477366D01*
X210348291Y-114480837D01*
X210343156Y-114479681D01*
X209863589Y-114248987D01*
X209857619Y-114242312D01*
X209856961Y-114238443D01*
X209856961Y-113753154D01*
X209860388Y-113744881D01*
X209863586Y-113742611D01*
X210343158Y-113511915D01*
X210352097Y-113511418D01*
X210356546Y-113514231D01*
G37*
%TD.AperFunction*%
%TD*%
%TA.AperFunction,Conductor*%
%TO.N,+5V*%
G36*
X190915680Y-119677016D02*
G01*
X190915930Y-119677619D01*
X191227941Y-120494609D01*
X191227691Y-120503560D01*
X191226975Y-120504915D01*
X191033426Y-120819432D01*
X191026172Y-120824682D01*
X191023462Y-120825000D01*
X190786538Y-120825000D01*
X190778265Y-120821573D01*
X190776574Y-120819432D01*
X190693624Y-120684639D01*
X190583023Y-120504913D01*
X190581606Y-120496073D01*
X190582054Y-120494620D01*
X190894070Y-119677618D01*
X190900223Y-119671113D01*
X190909174Y-119670863D01*
X190915680Y-119677016D01*
G37*
%TD.AperFunction*%
%TD*%
%TA.AperFunction,Conductor*%
%TO.N,Net-(J2-Pin_2)*%
G36*
X210168667Y-116500733D02*
G01*
X210168751Y-116500930D01*
X210565136Y-117455513D01*
X210565144Y-117464468D01*
X210565136Y-117464487D01*
X210168751Y-118419069D01*
X210162414Y-118425395D01*
X210153459Y-118425387D01*
X210153262Y-118425303D01*
X208523016Y-117713065D01*
X208516807Y-117706613D01*
X208516000Y-117702344D01*
X208516000Y-117217655D01*
X208519427Y-117209382D01*
X208523012Y-117206936D01*
X210153264Y-116494695D01*
X210162215Y-116494524D01*
X210168667Y-116500733D01*
G37*
%TD.AperFunction*%
%TD*%
%TA.AperFunction,Conductor*%
%TO.N,GND*%
G36*
X186172951Y-98008495D02*
G01*
X186369795Y-98018166D01*
X186380787Y-98019201D01*
X186563357Y-98044668D01*
X186747242Y-98071946D01*
X186757422Y-98073894D01*
X186939341Y-98116681D01*
X187117878Y-98161402D01*
X187127095Y-98164097D01*
X187304478Y-98223550D01*
X187306618Y-98224292D01*
X187478220Y-98285692D01*
X187486519Y-98289004D01*
X187657980Y-98364712D01*
X187660909Y-98366051D01*
X187747263Y-98406892D01*
X187825119Y-98443715D01*
X187832411Y-98447465D01*
X187929135Y-98501341D01*
X187996435Y-98538827D01*
X187999810Y-98540777D01*
X188155371Y-98634017D01*
X188161670Y-98638058D01*
X188316699Y-98744256D01*
X188320459Y-98746935D01*
X188466009Y-98854882D01*
X188471305Y-98859040D01*
X188616009Y-98979200D01*
X188619947Y-98982617D01*
X188754206Y-99104303D01*
X188758590Y-99108478D01*
X188891520Y-99241408D01*
X188895698Y-99245795D01*
X189017375Y-99380045D01*
X189020805Y-99383998D01*
X189140951Y-99528684D01*
X189145124Y-99534000D01*
X189253041Y-99679509D01*
X189255742Y-99683299D01*
X189361940Y-99838328D01*
X189365999Y-99844656D01*
X189459200Y-100000153D01*
X189461171Y-100003563D01*
X189552525Y-100167573D01*
X189556291Y-100174896D01*
X189633947Y-100339089D01*
X189635286Y-100342018D01*
X189710994Y-100513479D01*
X189714311Y-100521791D01*
X189775666Y-100693265D01*
X189776487Y-100695634D01*
X189835894Y-100872881D01*
X189838606Y-100882157D01*
X189883317Y-101060653D01*
X189926102Y-101242567D01*
X189928052Y-101252753D01*
X189955337Y-101436689D01*
X189980794Y-101619186D01*
X189981834Y-101630230D01*
X189991512Y-101827238D01*
X189999368Y-101997144D01*
X189999500Y-102002871D01*
X189999500Y-102968299D01*
X189998077Y-102973142D01*
X189999184Y-102988607D01*
X189999500Y-102997452D01*
X189999500Y-102999500D01*
X189999500Y-103000000D01*
X189999500Y-103131120D01*
X190000028Y-103135135D01*
X190000029Y-103135141D01*
X190018739Y-103277254D01*
X190018638Y-103277896D01*
X190019393Y-103282227D01*
X190020643Y-103291723D01*
X190021388Y-103299058D01*
X190026379Y-103368832D01*
X190032742Y-103384793D01*
X190033202Y-103387105D01*
X190033730Y-103391116D01*
X190034776Y-103395022D01*
X190034778Y-103395029D01*
X190076983Y-103552539D01*
X190076960Y-103553465D01*
X190078626Y-103558674D01*
X190085007Y-103582487D01*
X190086399Y-103588224D01*
X190097430Y-103638933D01*
X190103770Y-103650176D01*
X190101602Y-103644419D01*
X190171562Y-103813318D01*
X190171730Y-103814889D01*
X190175324Y-103822400D01*
X190197253Y-103875342D01*
X190198873Y-103879460D01*
X190203212Y-103891093D01*
X190207699Y-103896643D01*
X190300545Y-104057458D01*
X190301098Y-104059739D01*
X190307227Y-104069031D01*
X190333076Y-104113803D01*
X190335545Y-104117021D01*
X190337805Y-104120403D01*
X190335884Y-104117722D01*
X190342829Y-104128390D01*
X190348061Y-104133334D01*
X190461479Y-104281141D01*
X190462615Y-104284080D01*
X190471568Y-104294288D01*
X190492718Y-104321851D01*
X190495592Y-104324724D01*
X190495592Y-104324725D01*
X190505786Y-104334919D01*
X190514647Y-104345145D01*
X190519495Y-104348628D01*
X190651370Y-104480503D01*
X190653266Y-104483976D01*
X190665076Y-104494209D01*
X190678149Y-104507282D01*
X190681369Y-104509753D01*
X190681375Y-104509758D01*
X190705710Y-104528431D01*
X190714669Y-104536288D01*
X190718854Y-104538516D01*
X190866665Y-104651936D01*
X190869469Y-104655776D01*
X190882300Y-104664132D01*
X190879597Y-104662195D01*
X190882975Y-104664451D01*
X190886197Y-104666924D01*
X190930980Y-104692779D01*
X190939244Y-104698230D01*
X190942537Y-104699452D01*
X190998251Y-104731618D01*
X191103354Y-104792299D01*
X191106930Y-104796050D01*
X191120523Y-104801120D01*
X191124641Y-104802740D01*
X191177595Y-104824674D01*
X191184376Y-104827918D01*
X191186680Y-104828437D01*
X191355581Y-104898398D01*
X191349629Y-104896157D01*
X191357709Y-104901839D01*
X191411765Y-104913598D01*
X191417487Y-104914985D01*
X191441335Y-104921375D01*
X191446091Y-104922896D01*
X191447455Y-104923015D01*
X191608884Y-104966270D01*
X191612920Y-104966801D01*
X191615186Y-104967252D01*
X191626758Y-104973304D01*
X191700929Y-104978609D01*
X191708248Y-104979351D01*
X191717799Y-104980609D01*
X191721791Y-104981305D01*
X191722742Y-104981260D01*
X191868880Y-105000500D01*
X191872933Y-105000500D01*
X192002560Y-105000500D01*
X192011406Y-105000816D01*
X192024727Y-105001768D01*
X192031700Y-105000500D01*
X203968299Y-105000500D01*
X203973139Y-105001921D01*
X203988593Y-105000816D01*
X203997439Y-105000500D01*
X204127067Y-105000500D01*
X204131120Y-105000500D01*
X204277255Y-104981260D01*
X204277894Y-104981360D01*
X204282193Y-104980610D01*
X204291771Y-104979349D01*
X204299070Y-104978609D01*
X204368842Y-104973619D01*
X204384814Y-104967252D01*
X204387078Y-104966801D01*
X204391116Y-104966270D01*
X204552542Y-104923016D01*
X204553464Y-104923038D01*
X204558667Y-104921375D01*
X204582497Y-104914990D01*
X204588231Y-104913599D01*
X204638977Y-104902560D01*
X204650267Y-104896197D01*
X204644419Y-104898398D01*
X204813320Y-104828436D01*
X204814890Y-104828267D01*
X204822382Y-104824683D01*
X204875430Y-104802709D01*
X204879501Y-104801108D01*
X204891098Y-104796782D01*
X204896642Y-104792300D01*
X205057459Y-104699453D01*
X205059740Y-104698900D01*
X205069019Y-104692779D01*
X205113803Y-104666924D01*
X205117027Y-104664450D01*
X205120403Y-104662195D01*
X205117704Y-104664129D01*
X205128384Y-104657174D01*
X205133329Y-104651940D01*
X205281143Y-104538517D01*
X205284081Y-104537382D01*
X205294281Y-104528437D01*
X205294289Y-104528431D01*
X205321851Y-104507282D01*
X205334936Y-104494196D01*
X205345143Y-104485353D01*
X205348626Y-104480506D01*
X205480505Y-104348627D01*
X205483976Y-104346732D01*
X205494196Y-104334936D01*
X205507282Y-104321851D01*
X205528439Y-104294277D01*
X205536288Y-104285328D01*
X205538516Y-104281145D01*
X205651938Y-104133332D01*
X205655777Y-104130529D01*
X205664129Y-104117704D01*
X205662195Y-104120403D01*
X205664450Y-104117027D01*
X205666924Y-104113803D01*
X205692779Y-104069018D01*
X205698228Y-104060758D01*
X205699452Y-104057461D01*
X205792300Y-103896643D01*
X205796046Y-103893071D01*
X205801108Y-103879501D01*
X205802709Y-103875430D01*
X205824683Y-103822382D01*
X205827916Y-103815624D01*
X205828435Y-103813322D01*
X205898398Y-103644419D01*
X205896150Y-103650392D01*
X205901836Y-103642301D01*
X205913599Y-103588231D01*
X205914990Y-103582497D01*
X205921375Y-103558667D01*
X205922894Y-103553912D01*
X205923015Y-103552545D01*
X205966270Y-103391116D01*
X205966801Y-103387078D01*
X205967252Y-103384814D01*
X205973304Y-103373240D01*
X205978609Y-103299070D01*
X205979349Y-103291771D01*
X205980610Y-103282193D01*
X205981303Y-103278218D01*
X205981260Y-103277256D01*
X206000500Y-103131120D01*
X206000500Y-103000000D01*
X206000500Y-102999500D01*
X206000500Y-102997438D01*
X206000816Y-102988592D01*
X206001768Y-102975276D01*
X206000500Y-102968298D01*
X206000500Y-102002869D01*
X206000566Y-102000000D01*
X206594506Y-102000000D01*
X206594688Y-102003356D01*
X206614286Y-102364835D01*
X206614287Y-102364846D01*
X206614469Y-102368199D01*
X206674125Y-102732081D01*
X206772773Y-103087379D01*
X206774015Y-103090496D01*
X206774018Y-103090505D01*
X206908012Y-103426806D01*
X206909257Y-103429930D01*
X206910827Y-103432892D01*
X206910832Y-103432902D01*
X207021849Y-103642301D01*
X207081978Y-103755716D01*
X207288910Y-104060917D01*
X207377586Y-104165314D01*
X207521649Y-104334919D01*
X207527627Y-104341956D01*
X207530058Y-104344259D01*
X207530064Y-104344265D01*
X207735136Y-104538519D01*
X207795330Y-104595538D01*
X207798006Y-104597572D01*
X208086202Y-104816654D01*
X208086208Y-104816658D01*
X208088881Y-104818690D01*
X208404838Y-105008795D01*
X208739497Y-105163625D01*
X209088934Y-105281364D01*
X209449052Y-105360632D01*
X209815630Y-105400500D01*
X209818988Y-105400500D01*
X210181012Y-105400500D01*
X210184370Y-105400500D01*
X210550948Y-105360632D01*
X210911066Y-105281364D01*
X211260503Y-105163625D01*
X211595162Y-105008795D01*
X211911119Y-104818690D01*
X212204670Y-104595538D01*
X212472373Y-104341956D01*
X212711090Y-104060917D01*
X212918022Y-103755716D01*
X213090743Y-103429930D01*
X213227227Y-103087379D01*
X213325875Y-102732081D01*
X213385531Y-102368199D01*
X213405494Y-102000000D01*
X213385531Y-101631801D01*
X213325875Y-101267919D01*
X213227227Y-100912621D01*
X213090743Y-100570070D01*
X212918022Y-100244284D01*
X212711090Y-99939083D01*
X212493825Y-99683299D01*
X212474546Y-99660602D01*
X212474543Y-99660599D01*
X212472373Y-99658044D01*
X212469940Y-99655739D01*
X212469935Y-99655734D01*
X212207110Y-99406773D01*
X212207107Y-99406770D01*
X212204670Y-99404462D01*
X212177820Y-99384051D01*
X211913797Y-99183345D01*
X211913787Y-99183338D01*
X211911119Y-99181310D01*
X211595162Y-98991205D01*
X211576599Y-98982617D01*
X211309542Y-98859063D01*
X211260503Y-98836375D01*
X211170393Y-98806013D01*
X210914249Y-98719708D01*
X210914240Y-98719705D01*
X210911066Y-98718636D01*
X210907798Y-98717916D01*
X210907785Y-98717913D01*
X210554235Y-98640091D01*
X210554225Y-98640089D01*
X210550948Y-98639368D01*
X210184370Y-98599500D01*
X209815630Y-98599500D01*
X209812293Y-98599862D01*
X209812291Y-98599863D01*
X209452398Y-98639004D01*
X209452396Y-98639004D01*
X209449052Y-98639368D01*
X209445777Y-98640088D01*
X209445764Y-98640091D01*
X209092214Y-98717913D01*
X209092196Y-98717917D01*
X209088934Y-98718636D01*
X209085763Y-98719704D01*
X209085750Y-98719708D01*
X208742684Y-98835301D01*
X208742681Y-98835302D01*
X208739497Y-98836375D01*
X208736448Y-98837785D01*
X208736442Y-98837788D01*
X208407893Y-98989791D01*
X208407884Y-98989795D01*
X208404838Y-98991205D01*
X208401963Y-98992934D01*
X208401955Y-98992939D01*
X208091762Y-99179576D01*
X208091754Y-99179580D01*
X208088881Y-99181310D01*
X208086220Y-99183332D01*
X208086202Y-99183345D01*
X207798006Y-99402427D01*
X207797997Y-99402434D01*
X207795330Y-99404462D01*
X207792901Y-99406762D01*
X207792889Y-99406773D01*
X207530064Y-99655734D01*
X207530049Y-99655749D01*
X207527627Y-99658044D01*
X207525464Y-99660589D01*
X207525453Y-99660602D01*
X207291083Y-99936524D01*
X207291077Y-99936531D01*
X207288910Y-99939083D01*
X207287029Y-99941855D01*
X207287023Y-99941865D01*
X207083868Y-100241496D01*
X207081978Y-100244284D01*
X207080403Y-100247254D01*
X207080401Y-100247258D01*
X206910832Y-100567097D01*
X206910823Y-100567114D01*
X206909257Y-100570070D01*
X206908016Y-100573182D01*
X206908012Y-100573193D01*
X206774018Y-100909494D01*
X206774013Y-100909508D01*
X206772773Y-100912621D01*
X206674125Y-101267919D01*
X206673581Y-101271236D01*
X206673579Y-101271246D01*
X206616537Y-101619184D01*
X206614469Y-101631801D01*
X206614287Y-101635151D01*
X206614286Y-101635164D01*
X206603858Y-101827509D01*
X206594506Y-102000000D01*
X206000566Y-102000000D01*
X206000632Y-101997143D01*
X206000655Y-101996643D01*
X206008500Y-101826939D01*
X206018166Y-101630200D01*
X206019200Y-101619217D01*
X206044670Y-101436633D01*
X206069204Y-101271246D01*
X206071947Y-101252748D01*
X206073892Y-101242586D01*
X206116689Y-101060626D01*
X206161406Y-100882107D01*
X206164093Y-100872918D01*
X206223572Y-100695457D01*
X206224270Y-100693442D01*
X206285699Y-100521759D01*
X206288996Y-100513497D01*
X206364713Y-100342015D01*
X206366051Y-100339089D01*
X206443727Y-100174855D01*
X206447452Y-100167612D01*
X206538864Y-100003497D01*
X206540745Y-100000243D01*
X206634036Y-99844598D01*
X206638034Y-99838363D01*
X206744270Y-99683278D01*
X206746899Y-99679590D01*
X206854909Y-99533954D01*
X206859011Y-99528728D01*
X206979239Y-99383944D01*
X206982577Y-99380097D01*
X207104340Y-99245752D01*
X207108437Y-99241450D01*
X207241450Y-99108437D01*
X207245752Y-99104340D01*
X207380097Y-98982577D01*
X207383944Y-98979239D01*
X207528728Y-98859011D01*
X207533954Y-98854909D01*
X207679590Y-98746899D01*
X207683278Y-98744270D01*
X207838363Y-98638034D01*
X207844598Y-98634036D01*
X208000243Y-98540745D01*
X208003497Y-98538864D01*
X208167612Y-98447452D01*
X208174855Y-98443727D01*
X208339098Y-98366046D01*
X208342018Y-98364712D01*
X208406007Y-98336458D01*
X208513497Y-98288996D01*
X208521759Y-98285699D01*
X208693442Y-98224270D01*
X208695457Y-98223572D01*
X208872922Y-98164091D01*
X208882118Y-98161403D01*
X209060626Y-98116689D01*
X209242600Y-98073889D01*
X209252734Y-98071949D01*
X209436625Y-98044671D01*
X209619214Y-98019201D01*
X209630196Y-98018167D01*
X209826958Y-98008500D01*
X209994290Y-98000764D01*
X210005710Y-98000764D01*
X210172951Y-98008495D01*
X210369795Y-98018166D01*
X210380787Y-98019201D01*
X210563357Y-98044668D01*
X210747242Y-98071946D01*
X210757422Y-98073894D01*
X210939341Y-98116681D01*
X211117878Y-98161402D01*
X211127095Y-98164097D01*
X211304478Y-98223550D01*
X211306618Y-98224292D01*
X211478220Y-98285692D01*
X211486519Y-98289004D01*
X211657980Y-98364712D01*
X211660909Y-98366051D01*
X211747263Y-98406892D01*
X211825119Y-98443715D01*
X211832411Y-98447465D01*
X211929135Y-98501341D01*
X211996435Y-98538827D01*
X211999810Y-98540777D01*
X212155371Y-98634017D01*
X212161670Y-98638058D01*
X212316699Y-98744256D01*
X212320459Y-98746935D01*
X212466009Y-98854882D01*
X212471305Y-98859040D01*
X212616009Y-98979200D01*
X212619947Y-98982617D01*
X212754206Y-99104303D01*
X212758590Y-99108478D01*
X212891520Y-99241408D01*
X212895698Y-99245795D01*
X213017375Y-99380045D01*
X213020805Y-99383998D01*
X213140951Y-99528684D01*
X213145124Y-99534000D01*
X213253041Y-99679509D01*
X213255742Y-99683299D01*
X213361940Y-99838328D01*
X213365999Y-99844656D01*
X213459200Y-100000153D01*
X213461171Y-100003563D01*
X213552525Y-100167573D01*
X213556291Y-100174896D01*
X213633947Y-100339089D01*
X213635286Y-100342018D01*
X213710994Y-100513479D01*
X213714311Y-100521791D01*
X213775666Y-100693265D01*
X213776487Y-100695634D01*
X213835894Y-100872881D01*
X213838606Y-100882157D01*
X213883317Y-101060653D01*
X213926102Y-101242567D01*
X213928052Y-101252753D01*
X213955337Y-101436689D01*
X213980794Y-101619186D01*
X213981834Y-101630230D01*
X213991512Y-101827238D01*
X213999368Y-101997144D01*
X213999500Y-102002871D01*
X213999500Y-125997127D01*
X213999368Y-126002854D01*
X213991512Y-126172761D01*
X213981834Y-126369767D01*
X213980794Y-126380813D01*
X213955337Y-126563309D01*
X213928052Y-126747242D01*
X213926101Y-126757433D01*
X213883317Y-126939344D01*
X213838605Y-127117845D01*
X213835895Y-127127113D01*
X213776487Y-127304364D01*
X213775666Y-127306733D01*
X213714311Y-127478207D01*
X213710994Y-127486519D01*
X213635286Y-127657980D01*
X213633947Y-127660909D01*
X213556291Y-127825102D01*
X213552525Y-127832425D01*
X213461171Y-127996435D01*
X213459200Y-127999845D01*
X213365999Y-128155342D01*
X213361940Y-128161670D01*
X213255742Y-128316699D01*
X213253041Y-128320489D01*
X213145135Y-128465984D01*
X213140935Y-128471334D01*
X213020851Y-128615947D01*
X213017331Y-128620004D01*
X212895717Y-128754183D01*
X212891520Y-128758590D01*
X212758590Y-128891520D01*
X212754183Y-128895717D01*
X212620004Y-129017331D01*
X212615947Y-129020851D01*
X212471334Y-129140935D01*
X212465984Y-129145135D01*
X212320489Y-129253041D01*
X212316699Y-129255742D01*
X212161670Y-129361940D01*
X212155342Y-129365999D01*
X211999845Y-129459200D01*
X211996435Y-129461171D01*
X211832425Y-129552525D01*
X211825102Y-129556291D01*
X211660909Y-129633947D01*
X211657980Y-129635286D01*
X211486519Y-129710994D01*
X211478207Y-129714311D01*
X211306733Y-129775666D01*
X211304364Y-129776487D01*
X211127117Y-129835894D01*
X211117841Y-129838606D01*
X210939346Y-129883317D01*
X210757431Y-129926102D01*
X210747245Y-129928052D01*
X210563310Y-129955337D01*
X210380812Y-129980794D01*
X210369768Y-129981834D01*
X210172761Y-129991512D01*
X210005727Y-129999235D01*
X209994273Y-129999235D01*
X209827238Y-129991512D01*
X209630231Y-129981834D01*
X209619185Y-129980794D01*
X209436690Y-129955337D01*
X209252756Y-129928052D01*
X209242565Y-129926101D01*
X209060655Y-129883317D01*
X208882153Y-129838605D01*
X208872885Y-129835895D01*
X208695634Y-129776487D01*
X208693265Y-129775666D01*
X208521791Y-129714311D01*
X208513479Y-129710994D01*
X208342018Y-129635286D01*
X208339089Y-129633947D01*
X208174896Y-129556291D01*
X208167573Y-129552525D01*
X208003563Y-129461171D01*
X208000153Y-129459200D01*
X207902218Y-129400500D01*
X207844645Y-129365992D01*
X207838328Y-129361940D01*
X207683299Y-129255742D01*
X207679509Y-129253041D01*
X207560392Y-129164698D01*
X207534000Y-129145124D01*
X207528684Y-129140951D01*
X207383998Y-129020805D01*
X207380045Y-129017375D01*
X207245795Y-128895698D01*
X207241408Y-128891520D01*
X207108478Y-128758590D01*
X207104303Y-128754206D01*
X206982617Y-128619947D01*
X206979200Y-128616009D01*
X206859040Y-128471305D01*
X206854882Y-128466009D01*
X206746935Y-128320459D01*
X206744256Y-128316699D01*
X206638058Y-128161670D01*
X206634017Y-128155371D01*
X206540777Y-127999810D01*
X206538827Y-127996435D01*
X206512261Y-127948740D01*
X206447465Y-127832411D01*
X206443715Y-127825119D01*
X206406892Y-127747263D01*
X206366051Y-127660909D01*
X206364712Y-127657980D01*
X206289004Y-127486519D01*
X206285692Y-127478220D01*
X206224292Y-127306618D01*
X206223550Y-127304478D01*
X206164096Y-127127091D01*
X206161400Y-127117867D01*
X206116675Y-126939315D01*
X206111402Y-126916895D01*
X206073891Y-126757408D01*
X206071948Y-126747256D01*
X206044674Y-126563399D01*
X206019201Y-126380789D01*
X206018166Y-126369799D01*
X206008487Y-126172761D01*
X206000632Y-126002854D01*
X206000566Y-126000000D01*
X206594506Y-126000000D01*
X206594688Y-126003356D01*
X206614286Y-126364835D01*
X206614287Y-126364846D01*
X206614469Y-126368199D01*
X206615013Y-126371520D01*
X206615014Y-126371525D01*
X206644812Y-126553285D01*
X206674125Y-126732081D01*
X206772773Y-127087379D01*
X206774015Y-127090496D01*
X206774018Y-127090505D01*
X206846604Y-127272682D01*
X206909257Y-127429930D01*
X206910827Y-127432892D01*
X206910832Y-127432902D01*
X207008760Y-127617612D01*
X207081978Y-127755716D01*
X207288910Y-128060917D01*
X207369115Y-128155342D01*
X207509392Y-128320489D01*
X207527627Y-128341956D01*
X207530058Y-128344259D01*
X207530064Y-128344265D01*
X207756162Y-128558436D01*
X207795330Y-128595538D01*
X207889685Y-128667265D01*
X208086202Y-128816654D01*
X208086208Y-128816658D01*
X208088881Y-128818690D01*
X208404838Y-129008795D01*
X208739497Y-129163625D01*
X209088934Y-129281364D01*
X209449052Y-129360632D01*
X209815630Y-129400500D01*
X209818988Y-129400500D01*
X210181012Y-129400500D01*
X210184370Y-129400500D01*
X210550948Y-129360632D01*
X210911066Y-129281364D01*
X211260503Y-129163625D01*
X211595162Y-129008795D01*
X211911119Y-128818690D01*
X212204670Y-128595538D01*
X212472373Y-128341956D01*
X212711090Y-128060917D01*
X212918022Y-127755716D01*
X213090743Y-127429930D01*
X213227227Y-127087379D01*
X213325875Y-126732081D01*
X213385531Y-126368199D01*
X213405494Y-126000000D01*
X213385531Y-125631801D01*
X213325875Y-125267919D01*
X213227227Y-124912621D01*
X213090743Y-124570070D01*
X212918022Y-124244284D01*
X212711090Y-123939083D01*
X212520470Y-123714668D01*
X212474546Y-123660602D01*
X212474543Y-123660599D01*
X212472373Y-123658044D01*
X212469940Y-123655739D01*
X212469935Y-123655734D01*
X212207110Y-123406773D01*
X212207107Y-123406770D01*
X212204670Y-123404462D01*
X212199932Y-123400860D01*
X211913797Y-123183345D01*
X211913787Y-123183338D01*
X211911119Y-123181310D01*
X211595162Y-122991205D01*
X211260503Y-122836375D01*
X211170393Y-122806013D01*
X210914249Y-122719708D01*
X210914240Y-122719705D01*
X210911066Y-122718636D01*
X210907798Y-122717916D01*
X210907785Y-122717913D01*
X210554235Y-122640091D01*
X210554225Y-122640089D01*
X210550948Y-122639368D01*
X210184370Y-122599500D01*
X209815630Y-122599500D01*
X209812293Y-122599862D01*
X209812291Y-122599863D01*
X209452398Y-122639004D01*
X209452396Y-122639004D01*
X209449052Y-122639368D01*
X209445777Y-122640088D01*
X209445764Y-122640091D01*
X209092214Y-122717913D01*
X209092196Y-122717917D01*
X209088934Y-122718636D01*
X209085763Y-122719704D01*
X209085750Y-122719708D01*
X208742684Y-122835301D01*
X208742681Y-122835302D01*
X208739497Y-122836375D01*
X208736448Y-122837785D01*
X208736442Y-122837788D01*
X208407893Y-122989791D01*
X208407884Y-122989795D01*
X208404838Y-122991205D01*
X208401963Y-122992934D01*
X208401955Y-122992939D01*
X208091762Y-123179576D01*
X208091754Y-123179580D01*
X208088881Y-123181310D01*
X208086220Y-123183332D01*
X208086202Y-123183345D01*
X207798006Y-123402427D01*
X207797997Y-123402434D01*
X207795330Y-123404462D01*
X207792901Y-123406762D01*
X207792889Y-123406773D01*
X207530064Y-123655734D01*
X207530049Y-123655749D01*
X207527627Y-123658044D01*
X207525464Y-123660589D01*
X207525453Y-123660602D01*
X207291083Y-123936524D01*
X207291077Y-123936531D01*
X207288910Y-123939083D01*
X207287029Y-123941855D01*
X207287023Y-123941865D01*
X207088392Y-124234824D01*
X207081978Y-124244284D01*
X207080403Y-124247254D01*
X207080401Y-124247258D01*
X206910832Y-124567097D01*
X206910823Y-124567114D01*
X206909257Y-124570070D01*
X206908016Y-124573182D01*
X206908012Y-124573193D01*
X206774018Y-124909494D01*
X206774013Y-124909508D01*
X206772773Y-124912621D01*
X206771873Y-124915859D01*
X206771873Y-124915862D01*
X206739709Y-125031708D01*
X206674125Y-125267919D01*
X206673581Y-125271236D01*
X206673579Y-125271246D01*
X206615014Y-125628474D01*
X206614469Y-125631801D01*
X206614287Y-125635151D01*
X206614286Y-125635164D01*
X206594688Y-125996643D01*
X206594506Y-126000000D01*
X206000566Y-126000000D01*
X206000500Y-125997128D01*
X206000500Y-125031700D01*
X206001921Y-125026859D01*
X206000816Y-125011406D01*
X206000500Y-125002560D01*
X206000500Y-124872933D01*
X206000500Y-124868880D01*
X205981260Y-124722743D01*
X205981359Y-124722105D01*
X205980609Y-124717799D01*
X205979351Y-124708248D01*
X205978609Y-124700929D01*
X205973619Y-124631162D01*
X205967252Y-124615186D01*
X205966801Y-124612920D01*
X205966270Y-124608884D01*
X205923016Y-124447457D01*
X205923038Y-124446535D01*
X205921374Y-124441330D01*
X205914989Y-124417501D01*
X205913598Y-124411765D01*
X205902563Y-124361037D01*
X205896204Y-124349754D01*
X205898398Y-124355581D01*
X205828437Y-124186680D01*
X205828267Y-124185107D01*
X205824674Y-124177595D01*
X205802740Y-124124641D01*
X205801120Y-124120523D01*
X205796788Y-124108909D01*
X205792299Y-124103354D01*
X205699453Y-123942540D01*
X205698899Y-123940258D01*
X205692779Y-123930980D01*
X205666924Y-123886197D01*
X205664451Y-123882975D01*
X205662195Y-123879597D01*
X205664132Y-123882300D01*
X205657175Y-123871616D01*
X205651936Y-123866665D01*
X205538517Y-123718855D01*
X205537380Y-123715914D01*
X205528431Y-123705710D01*
X205509758Y-123681375D01*
X205509753Y-123681369D01*
X205507282Y-123678149D01*
X205494211Y-123665078D01*
X205485356Y-123654858D01*
X205480503Y-123651370D01*
X205348628Y-123519495D01*
X205346732Y-123516022D01*
X205334919Y-123505786D01*
X205324725Y-123495592D01*
X205321851Y-123492718D01*
X205294288Y-123471568D01*
X205285329Y-123463711D01*
X205281141Y-123461479D01*
X205133334Y-123348061D01*
X205130531Y-123344222D01*
X205117722Y-123335884D01*
X205120403Y-123337805D01*
X205117021Y-123335545D01*
X205113803Y-123333076D01*
X205110287Y-123331046D01*
X205110284Y-123331044D01*
X205069031Y-123307227D01*
X205060759Y-123301771D01*
X205057458Y-123300545D01*
X204896643Y-123207699D01*
X204893066Y-123203948D01*
X204879460Y-123198873D01*
X204875342Y-123197253D01*
X204822400Y-123175324D01*
X204815625Y-123172083D01*
X204813318Y-123171562D01*
X204644419Y-123101602D01*
X204650300Y-123103817D01*
X204642253Y-123098152D01*
X204588224Y-123086399D01*
X204582487Y-123085007D01*
X204558674Y-123078626D01*
X204553913Y-123077104D01*
X204552539Y-123076983D01*
X204395029Y-123034778D01*
X204395022Y-123034776D01*
X204391116Y-123033730D01*
X204387105Y-123033202D01*
X204384793Y-123032742D01*
X204373232Y-123026693D01*
X204299058Y-123021388D01*
X204291723Y-123020643D01*
X204282227Y-123019393D01*
X204278221Y-123018695D01*
X204277254Y-123018739D01*
X204135141Y-123000029D01*
X204135135Y-123000028D01*
X204131120Y-122999500D01*
X204000099Y-122999500D01*
X203997453Y-122999500D01*
X203988607Y-122999184D01*
X203975275Y-122998230D01*
X203968300Y-122999500D01*
X192031699Y-122999500D01*
X192026856Y-122998077D01*
X192011392Y-122999184D01*
X192002546Y-122999500D01*
X192000500Y-122999500D01*
X192000000Y-122999500D01*
X191868880Y-122999500D01*
X191864865Y-123000028D01*
X191864858Y-123000029D01*
X191722744Y-123018739D01*
X191722102Y-123018638D01*
X191717761Y-123019395D01*
X191708268Y-123020644D01*
X191700941Y-123021388D01*
X191631172Y-123026378D01*
X191615207Y-123032742D01*
X191612894Y-123033201D01*
X191608884Y-123033730D01*
X191604974Y-123034777D01*
X191604967Y-123034779D01*
X191447458Y-123076983D01*
X191446535Y-123076961D01*
X191441318Y-123078628D01*
X191417501Y-123085010D01*
X191411775Y-123086399D01*
X191361082Y-123097426D01*
X191349847Y-123103762D01*
X191355580Y-123101602D01*
X191186679Y-123171562D01*
X191185107Y-123171730D01*
X191177595Y-123175325D01*
X191124659Y-123197252D01*
X191120543Y-123198871D01*
X191108908Y-123203210D01*
X191103356Y-123207699D01*
X190942540Y-123300546D01*
X190940256Y-123301099D01*
X190930960Y-123307232D01*
X190889715Y-123331044D01*
X190889705Y-123331050D01*
X190886197Y-123333076D01*
X190882980Y-123335543D01*
X190879597Y-123337805D01*
X190882275Y-123335886D01*
X190871613Y-123342826D01*
X190866665Y-123348063D01*
X190718857Y-123461481D01*
X190715915Y-123462618D01*
X190705713Y-123471566D01*
X190681374Y-123490242D01*
X190681361Y-123490252D01*
X190678149Y-123492718D01*
X190675280Y-123495587D01*
X190665078Y-123505789D01*
X190654855Y-123514646D01*
X190651371Y-123519495D01*
X190519495Y-123651371D01*
X190516023Y-123653266D01*
X190505788Y-123665078D01*
X190492718Y-123678149D01*
X190490252Y-123681361D01*
X190490242Y-123681374D01*
X190471566Y-123705713D01*
X190463711Y-123714668D01*
X190461481Y-123718857D01*
X190348063Y-123866665D01*
X190344221Y-123869469D01*
X190335886Y-123882275D01*
X190337805Y-123879597D01*
X190335543Y-123882980D01*
X190333076Y-123886197D01*
X190331050Y-123889705D01*
X190331044Y-123889715D01*
X190307232Y-123930960D01*
X190301771Y-123939237D01*
X190300546Y-123942540D01*
X190207699Y-124103356D01*
X190203947Y-124106932D01*
X190198871Y-124120543D01*
X190197252Y-124124659D01*
X190175325Y-124177595D01*
X190172080Y-124184376D01*
X190171562Y-124186679D01*
X190101602Y-124355580D01*
X190103809Y-124349723D01*
X190098149Y-124357759D01*
X190086399Y-124411775D01*
X190085008Y-124417512D01*
X190078629Y-124441318D01*
X190077102Y-124446093D01*
X190076983Y-124447458D01*
X190034778Y-124604969D01*
X190034775Y-124604983D01*
X190033730Y-124608884D01*
X190033202Y-124612892D01*
X190032742Y-124615207D01*
X190026693Y-124626769D01*
X190021388Y-124700945D01*
X190020643Y-124708284D01*
X190019394Y-124717771D01*
X190018694Y-124721784D01*
X190018739Y-124722744D01*
X190000029Y-124864858D01*
X190000029Y-124864861D01*
X189999500Y-124868880D01*
X189999500Y-124872932D01*
X189999500Y-124872933D01*
X189999500Y-125002566D01*
X189999184Y-125011412D01*
X189998231Y-125024735D01*
X189999500Y-125031708D01*
X189999500Y-125997127D01*
X189999368Y-126002854D01*
X189991512Y-126172761D01*
X189981834Y-126369767D01*
X189980794Y-126380813D01*
X189955337Y-126563309D01*
X189928052Y-126747242D01*
X189926101Y-126757433D01*
X189883317Y-126939344D01*
X189838605Y-127117845D01*
X189835895Y-127127113D01*
X189776487Y-127304364D01*
X189775666Y-127306733D01*
X189714311Y-127478207D01*
X189710994Y-127486519D01*
X189635286Y-127657980D01*
X189633947Y-127660909D01*
X189556291Y-127825102D01*
X189552525Y-127832425D01*
X189461171Y-127996435D01*
X189459200Y-127999845D01*
X189365999Y-128155342D01*
X189361940Y-128161670D01*
X189255742Y-128316699D01*
X189253041Y-128320489D01*
X189145135Y-128465984D01*
X189140935Y-128471334D01*
X189020851Y-128615947D01*
X189017331Y-128620004D01*
X188895717Y-128754183D01*
X188891520Y-128758590D01*
X188758590Y-128891520D01*
X188754183Y-128895717D01*
X188620004Y-129017331D01*
X188615947Y-129020851D01*
X188471334Y-129140935D01*
X188465984Y-129145135D01*
X188320489Y-129253041D01*
X188316699Y-129255742D01*
X188161670Y-129361940D01*
X188155342Y-129365999D01*
X187999845Y-129459200D01*
X187996435Y-129461171D01*
X187832425Y-129552525D01*
X187825102Y-129556291D01*
X187660909Y-129633947D01*
X187657980Y-129635286D01*
X187486519Y-129710994D01*
X187478207Y-129714311D01*
X187306733Y-129775666D01*
X187304364Y-129776487D01*
X187127117Y-129835894D01*
X187117841Y-129838606D01*
X186939346Y-129883317D01*
X186757431Y-129926102D01*
X186747245Y-129928052D01*
X186563310Y-129955337D01*
X186380812Y-129980794D01*
X186369768Y-129981834D01*
X186172761Y-129991512D01*
X186005727Y-129999235D01*
X185994273Y-129999235D01*
X185827238Y-129991512D01*
X185630231Y-129981834D01*
X185619185Y-129980794D01*
X185436690Y-129955337D01*
X185252756Y-129928052D01*
X185242565Y-129926101D01*
X185060655Y-129883317D01*
X184882153Y-129838605D01*
X184872885Y-129835895D01*
X184695634Y-129776487D01*
X184693265Y-129775666D01*
X184521791Y-129714311D01*
X184513479Y-129710994D01*
X184342018Y-129635286D01*
X184339089Y-129633947D01*
X184174896Y-129556291D01*
X184167573Y-129552525D01*
X184003563Y-129461171D01*
X184000153Y-129459200D01*
X183902218Y-129400500D01*
X183844645Y-129365992D01*
X183838328Y-129361940D01*
X183683299Y-129255742D01*
X183679509Y-129253041D01*
X183560392Y-129164698D01*
X183534000Y-129145124D01*
X183528684Y-129140951D01*
X183383998Y-129020805D01*
X183380045Y-129017375D01*
X183245795Y-128895698D01*
X183241408Y-128891520D01*
X183108478Y-128758590D01*
X183104303Y-128754206D01*
X182982617Y-128619947D01*
X182979200Y-128616009D01*
X182859040Y-128471305D01*
X182854882Y-128466009D01*
X182746935Y-128320459D01*
X182744256Y-128316699D01*
X182638058Y-128161670D01*
X182634017Y-128155371D01*
X182540777Y-127999810D01*
X182538827Y-127996435D01*
X182512261Y-127948740D01*
X182447465Y-127832411D01*
X182443715Y-127825119D01*
X182406892Y-127747263D01*
X182366051Y-127660909D01*
X182364712Y-127657980D01*
X182289004Y-127486519D01*
X182285692Y-127478220D01*
X182224292Y-127306618D01*
X182223550Y-127304478D01*
X182164096Y-127127091D01*
X182161400Y-127117867D01*
X182116675Y-126939315D01*
X182111402Y-126916895D01*
X182073891Y-126757408D01*
X182071948Y-126747256D01*
X182044674Y-126563399D01*
X182019201Y-126380789D01*
X182018166Y-126369799D01*
X182008487Y-126172761D01*
X182000632Y-126002854D01*
X182000566Y-126000000D01*
X182594506Y-126000000D01*
X182594688Y-126003356D01*
X182614286Y-126364835D01*
X182614287Y-126364846D01*
X182614469Y-126368199D01*
X182615013Y-126371520D01*
X182615014Y-126371525D01*
X182644812Y-126553285D01*
X182674125Y-126732081D01*
X182772773Y-127087379D01*
X182774015Y-127090496D01*
X182774018Y-127090505D01*
X182846604Y-127272682D01*
X182909257Y-127429930D01*
X182910827Y-127432892D01*
X182910832Y-127432902D01*
X183008760Y-127617612D01*
X183081978Y-127755716D01*
X183288910Y-128060917D01*
X183369115Y-128155342D01*
X183509392Y-128320489D01*
X183527627Y-128341956D01*
X183530058Y-128344259D01*
X183530064Y-128344265D01*
X183756162Y-128558436D01*
X183795330Y-128595538D01*
X183889685Y-128667265D01*
X184086202Y-128816654D01*
X184086208Y-128816658D01*
X184088881Y-128818690D01*
X184404838Y-129008795D01*
X184739497Y-129163625D01*
X185088934Y-129281364D01*
X185449052Y-129360632D01*
X185815630Y-129400500D01*
X185818988Y-129400500D01*
X186181012Y-129400500D01*
X186184370Y-129400500D01*
X186550948Y-129360632D01*
X186911066Y-129281364D01*
X187260503Y-129163625D01*
X187595162Y-129008795D01*
X187911119Y-128818690D01*
X188204670Y-128595538D01*
X188472373Y-128341956D01*
X188711090Y-128060917D01*
X188918022Y-127755716D01*
X189090743Y-127429930D01*
X189227227Y-127087379D01*
X189325875Y-126732081D01*
X189385531Y-126368199D01*
X189405494Y-126000000D01*
X189385531Y-125631801D01*
X189325875Y-125267919D01*
X189227227Y-124912621D01*
X189090743Y-124570070D01*
X188918022Y-124244284D01*
X188711090Y-123939083D01*
X188520470Y-123714668D01*
X188474546Y-123660602D01*
X188474543Y-123660599D01*
X188472373Y-123658044D01*
X188469940Y-123655739D01*
X188469935Y-123655734D01*
X188207110Y-123406773D01*
X188207107Y-123406770D01*
X188204670Y-123404462D01*
X188199932Y-123400860D01*
X187913797Y-123183345D01*
X187913787Y-123183338D01*
X187911119Y-123181310D01*
X187595162Y-122991205D01*
X187260503Y-122836375D01*
X187170393Y-122806013D01*
X186914249Y-122719708D01*
X186914240Y-122719705D01*
X186911066Y-122718636D01*
X186907798Y-122717916D01*
X186907785Y-122717913D01*
X186554235Y-122640091D01*
X186554225Y-122640089D01*
X186550948Y-122639368D01*
X186184370Y-122599500D01*
X185815630Y-122599500D01*
X185812293Y-122599862D01*
X185812291Y-122599863D01*
X185452398Y-122639004D01*
X185452396Y-122639004D01*
X185449052Y-122639368D01*
X185445777Y-122640088D01*
X185445764Y-122640091D01*
X185092214Y-122717913D01*
X185092196Y-122717917D01*
X185088934Y-122718636D01*
X185085763Y-122719704D01*
X185085750Y-122719708D01*
X184742684Y-122835301D01*
X184742681Y-122835302D01*
X184739497Y-122836375D01*
X184736448Y-122837785D01*
X184736442Y-122837788D01*
X184407893Y-122989791D01*
X184407884Y-122989795D01*
X184404838Y-122991205D01*
X184401963Y-122992934D01*
X184401955Y-122992939D01*
X184091762Y-123179576D01*
X184091754Y-123179580D01*
X184088881Y-123181310D01*
X184086220Y-123183332D01*
X184086202Y-123183345D01*
X183798006Y-123402427D01*
X183797997Y-123402434D01*
X183795330Y-123404462D01*
X183792901Y-123406762D01*
X183792889Y-123406773D01*
X183530064Y-123655734D01*
X183530049Y-123655749D01*
X183527627Y-123658044D01*
X183525464Y-123660589D01*
X183525453Y-123660602D01*
X183291083Y-123936524D01*
X183291077Y-123936531D01*
X183288910Y-123939083D01*
X183287029Y-123941855D01*
X183287023Y-123941865D01*
X183088392Y-124234824D01*
X183081978Y-124244284D01*
X183080403Y-124247254D01*
X183080401Y-124247258D01*
X182910832Y-124567097D01*
X182910823Y-124567114D01*
X182909257Y-124570070D01*
X182908016Y-124573182D01*
X182908012Y-124573193D01*
X182774018Y-124909494D01*
X182774013Y-124909508D01*
X182772773Y-124912621D01*
X182771873Y-124915859D01*
X182771873Y-124915862D01*
X182739709Y-125031708D01*
X182674125Y-125267919D01*
X182673581Y-125271236D01*
X182673579Y-125271246D01*
X182615014Y-125628474D01*
X182614469Y-125631801D01*
X182614287Y-125635151D01*
X182614286Y-125635164D01*
X182594688Y-125996643D01*
X182594506Y-126000000D01*
X182000566Y-126000000D01*
X182000500Y-125997128D01*
X182000500Y-117809999D01*
X183569417Y-117809999D01*
X183589699Y-118015932D01*
X183605907Y-118069362D01*
X183649768Y-118213954D01*
X183747315Y-118396450D01*
X183785755Y-118443289D01*
X183878589Y-118556410D01*
X183941274Y-118607853D01*
X184038550Y-118687685D01*
X184221046Y-118785232D01*
X184419066Y-118845300D01*
X184625000Y-118865583D01*
X184830934Y-118845300D01*
X185028954Y-118785232D01*
X185032120Y-118783539D01*
X185039461Y-118780682D01*
X185039366Y-118780484D01*
X186356750Y-118147725D01*
X186410437Y-118135500D01*
X186523812Y-118135500D01*
X186590851Y-118155185D01*
X186611493Y-118171819D01*
X186730294Y-118290620D01*
X186763779Y-118351943D01*
X186758795Y-118421635D01*
X186748219Y-118443289D01*
X186598000Y-118687396D01*
X186596974Y-118689160D01*
X186591289Y-118699153D01*
X186590328Y-118700939D01*
X186590581Y-118700494D01*
X186583109Y-118714795D01*
X186582575Y-118714516D01*
X186569899Y-118778241D01*
X186568357Y-118784999D01*
X186566888Y-118790695D01*
X186566638Y-118799650D01*
X186567745Y-118806157D01*
X186569500Y-118826947D01*
X186569500Y-120333784D01*
X186549815Y-120400823D01*
X186497011Y-120446578D01*
X186427853Y-120456522D01*
X186364297Y-120427497D01*
X186351223Y-120414332D01*
X185705223Y-119658223D01*
X185676642Y-119594466D01*
X185675500Y-119577675D01*
X185675500Y-119480251D01*
X185663867Y-119421769D01*
X185619552Y-119355447D01*
X185553230Y-119311132D01*
X185494749Y-119299500D01*
X185494748Y-119299500D01*
X183755252Y-119299500D01*
X183755251Y-119299500D01*
X183696769Y-119311132D01*
X183630447Y-119355447D01*
X183586132Y-119421769D01*
X183574500Y-119480251D01*
X183574500Y-121219748D01*
X183586132Y-121278230D01*
X183630447Y-121344552D01*
X183696769Y-121388867D01*
X183755251Y-121400500D01*
X183755252Y-121400500D01*
X185435665Y-121400500D01*
X185448875Y-121401206D01*
X185459760Y-121402372D01*
X185459762Y-121402371D01*
X185459764Y-121402372D01*
X185475048Y-121400997D01*
X185486151Y-121400500D01*
X185494743Y-121400500D01*
X185494748Y-121400500D01*
X185499947Y-121399465D01*
X185513009Y-121397585D01*
X185539642Y-121395191D01*
X186354461Y-121155538D01*
X186389450Y-121150500D01*
X190177988Y-121150500D01*
X190245027Y-121170185D01*
X190290782Y-121222989D01*
X190300726Y-121292147D01*
X190288476Y-121330789D01*
X190280280Y-121346874D01*
X190264500Y-121446510D01*
X190264500Y-122013490D01*
X190280280Y-122113124D01*
X190341472Y-122233221D01*
X190436778Y-122328527D01*
X190436780Y-122328528D01*
X190556874Y-122389719D01*
X190590086Y-122394979D01*
X190656510Y-122405500D01*
X190656512Y-122405500D01*
X191173490Y-122405500D01*
X191223307Y-122397609D01*
X191273126Y-122389719D01*
X191393220Y-122328528D01*
X191488528Y-122233220D01*
X191549719Y-122113126D01*
X191565500Y-122013488D01*
X191565500Y-121446512D01*
X191558324Y-121401206D01*
X191549719Y-121346874D01*
X191535754Y-121319468D01*
X191527724Y-121299648D01*
X191524009Y-121287576D01*
X191524008Y-121287575D01*
X191524008Y-121287573D01*
X191306889Y-120885336D01*
X191294975Y-120829266D01*
X195309500Y-120829266D01*
X195309769Y-120832139D01*
X195309770Y-120832151D01*
X195312353Y-120859696D01*
X195357207Y-120987884D01*
X195437849Y-121097150D01*
X195547115Y-121177792D01*
X195547118Y-121177793D01*
X195675301Y-121222646D01*
X195705734Y-121225500D01*
X195708627Y-121225500D01*
X196711373Y-121225500D01*
X196714266Y-121225500D01*
X196744699Y-121222646D01*
X196850336Y-121185681D01*
X196853542Y-121184609D01*
X196862364Y-121181800D01*
X196862369Y-121181796D01*
X196868550Y-121179828D01*
X196872545Y-121178040D01*
X196872877Y-121177794D01*
X196872882Y-121177793D01*
X196876075Y-121175435D01*
X196889726Y-121166680D01*
X197294266Y-120943143D01*
X197362462Y-120927950D01*
X197381666Y-120930749D01*
X197416379Y-120938626D01*
X197423221Y-120939136D01*
X197467383Y-120935843D01*
X197476604Y-120935500D01*
X199654749Y-120935500D01*
X199692704Y-120927950D01*
X199713231Y-120923867D01*
X199779552Y-120879552D01*
X199823867Y-120813231D01*
X199835500Y-120754748D01*
X202984500Y-120754748D01*
X202996132Y-120813230D01*
X203040447Y-120879552D01*
X203106769Y-120923867D01*
X203165251Y-120935500D01*
X203165252Y-120935500D01*
X204217098Y-120935500D01*
X205922676Y-120935500D01*
X205927313Y-120935587D01*
X206045007Y-120939991D01*
X206045007Y-120939990D01*
X206045009Y-120939991D01*
X206101693Y-120924801D01*
X206115303Y-120921962D01*
X206126019Y-120920348D01*
X206126021Y-120920346D01*
X206126432Y-120920285D01*
X206146907Y-120912687D01*
X206176186Y-120904843D01*
X206229257Y-120871495D01*
X206241411Y-120864777D01*
X206248374Y-120861425D01*
X206248376Y-120861422D01*
X206249522Y-120860871D01*
X206264701Y-120849223D01*
X206291174Y-120832590D01*
X206333085Y-120783887D01*
X206342724Y-120773880D01*
X206347926Y-120769055D01*
X206347928Y-120769051D01*
X206348991Y-120768065D01*
X206359745Y-120752907D01*
X206379757Y-120729655D01*
X206405076Y-120671622D01*
X206411330Y-120659234D01*
X206415828Y-120651445D01*
X206415828Y-120651441D01*
X206416291Y-120650641D01*
X206422617Y-120631419D01*
X206434063Y-120605186D01*
X206434063Y-120605185D01*
X206434064Y-120605183D01*
X206440771Y-120545648D01*
X206443094Y-120531978D01*
X206446047Y-120519046D01*
X206446006Y-120518499D01*
X206446439Y-120495347D01*
X206446609Y-120493842D01*
X206449269Y-120470232D01*
X206439167Y-120416842D01*
X206437357Y-120403094D01*
X206435898Y-120383622D01*
X206434323Y-120379609D01*
X206427913Y-120357357D01*
X206424022Y-120336796D01*
X206424022Y-120336795D01*
X206402015Y-120295156D01*
X206396216Y-120282514D01*
X206386284Y-120257206D01*
X206380707Y-120250213D01*
X206368023Y-120230842D01*
X206360565Y-120216729D01*
X206359087Y-120215251D01*
X206333096Y-120189260D01*
X206323829Y-120178891D01*
X206312993Y-120165303D01*
X206301611Y-120151030D01*
X206254365Y-120118818D01*
X206250602Y-120116148D01*
X206199767Y-120078629D01*
X206195156Y-120076302D01*
X206153717Y-120063520D01*
X206134777Y-120057677D01*
X206130376Y-120056230D01*
X206107064Y-120048073D01*
X206076431Y-120037354D01*
X206076430Y-120037353D01*
X206070755Y-120035368D01*
X206065646Y-120034500D01*
X206059634Y-120034500D01*
X206002470Y-120034500D01*
X205997833Y-120034413D01*
X205934702Y-120032050D01*
X205916097Y-120034500D01*
X203165251Y-120034500D01*
X203106769Y-120046132D01*
X203040447Y-120090447D01*
X202996132Y-120156769D01*
X202984500Y-120215251D01*
X202984500Y-120754748D01*
X199835500Y-120754748D01*
X199835500Y-120215252D01*
X199823867Y-120156769D01*
X199797641Y-120117519D01*
X199779552Y-120090447D01*
X199713230Y-120046132D01*
X199654749Y-120034500D01*
X199654748Y-120034500D01*
X197415252Y-120034500D01*
X197415251Y-120034500D01*
X197340530Y-120049363D01*
X197295314Y-120063520D01*
X197233131Y-120048073D01*
X196889726Y-119858318D01*
X196876064Y-119849555D01*
X196872881Y-119847206D01*
X196869709Y-119846096D01*
X196858057Y-119841278D01*
X196862364Y-119843199D01*
X196822603Y-119826791D01*
X196822601Y-119826790D01*
X196819358Y-119825452D01*
X196814297Y-119824008D01*
X196811698Y-119823501D01*
X196811693Y-119823500D01*
X196808540Y-119822885D01*
X196805650Y-119822322D01*
X196788433Y-119817657D01*
X196744697Y-119802353D01*
X196717151Y-119799770D01*
X196717139Y-119799769D01*
X196714266Y-119799500D01*
X195705734Y-119799500D01*
X195702861Y-119799769D01*
X195702848Y-119799770D01*
X195675303Y-119802353D01*
X195547115Y-119847207D01*
X195437849Y-119927849D01*
X195357207Y-120037115D01*
X195312353Y-120165303D01*
X195309770Y-120192848D01*
X195309769Y-120192861D01*
X195309500Y-120195734D01*
X195309500Y-120829266D01*
X191294975Y-120829266D01*
X191292367Y-120816992D01*
X191310402Y-120761448D01*
X191401991Y-120612617D01*
X191403022Y-120610846D01*
X191408668Y-120600924D01*
X191409636Y-120599128D01*
X191409384Y-120599569D01*
X191416912Y-120585178D01*
X191417430Y-120585449D01*
X191418865Y-120578233D01*
X191418867Y-120578231D01*
X191430114Y-120521685D01*
X191431641Y-120514996D01*
X191433111Y-120509297D01*
X191433361Y-120500346D01*
X191432956Y-120497967D01*
X191432255Y-120493842D01*
X191430500Y-120473053D01*
X191430500Y-119484748D01*
X197234500Y-119484748D01*
X197246132Y-119543230D01*
X197290447Y-119609552D01*
X197356769Y-119653867D01*
X197415251Y-119665500D01*
X197415252Y-119665500D01*
X199654749Y-119665500D01*
X199691332Y-119658223D01*
X199713231Y-119653867D01*
X199779552Y-119609552D01*
X199823867Y-119543231D01*
X199835500Y-119484748D01*
X202984500Y-119484748D01*
X202996132Y-119543230D01*
X203040447Y-119609552D01*
X203106769Y-119653867D01*
X203165251Y-119665500D01*
X203165252Y-119665500D01*
X204217098Y-119665500D01*
X206447034Y-119665500D01*
X206514073Y-119685185D01*
X206534715Y-119701819D01*
X207178630Y-120345733D01*
X207187896Y-120356101D01*
X207210121Y-120383970D01*
X207257370Y-120416184D01*
X207261104Y-120418833D01*
X207298696Y-120446578D01*
X207311969Y-120456374D01*
X207316570Y-120458696D01*
X207322326Y-120460471D01*
X207322327Y-120460472D01*
X207376954Y-120477321D01*
X207381358Y-120478770D01*
X207435300Y-120497646D01*
X207435302Y-120497646D01*
X207440989Y-120499636D01*
X207446070Y-120500500D01*
X207452098Y-120500500D01*
X207509261Y-120500500D01*
X207513898Y-120500587D01*
X207571010Y-120502724D01*
X207571010Y-120502723D01*
X207577029Y-120502949D01*
X207595635Y-120500500D01*
X208402127Y-120500500D01*
X208469166Y-120520185D01*
X208474971Y-120524152D01*
X208661025Y-120659212D01*
X209046638Y-120939136D01*
X209328034Y-121143406D01*
X209358292Y-121174863D01*
X209371447Y-121194552D01*
X209437769Y-121238867D01*
X209496251Y-121250500D01*
X209496252Y-121250500D01*
X211635749Y-121250500D01*
X211664989Y-121244683D01*
X211694231Y-121238867D01*
X211760552Y-121194552D01*
X211804867Y-121128231D01*
X211816500Y-121069748D01*
X211816500Y-120909100D01*
X211836185Y-120842062D01*
X211850407Y-120823899D01*
X212754303Y-119868207D01*
X212760106Y-119859114D01*
X212776934Y-119838168D01*
X213002710Y-119612392D01*
X213013059Y-119603144D01*
X213040931Y-119580918D01*
X213073143Y-119533669D01*
X213075781Y-119529950D01*
X213109754Y-119483922D01*
X213109756Y-119483916D01*
X213113340Y-119479060D01*
X213115655Y-119474476D01*
X213134282Y-119414084D01*
X213135720Y-119409711D01*
X213154607Y-119355739D01*
X213154607Y-119355734D01*
X213156598Y-119350045D01*
X213157461Y-119344971D01*
X213157461Y-119281777D01*
X213157548Y-119277140D01*
X213159910Y-119214010D01*
X213157461Y-119195404D01*
X213157461Y-115252833D01*
X213164176Y-115212582D01*
X213231364Y-115016806D01*
X213368113Y-114618342D01*
X213374920Y-114593557D01*
X213375517Y-114590692D01*
X213375897Y-114588592D01*
X213376345Y-114585887D01*
X213381502Y-114565992D01*
X213385224Y-114555355D01*
X213392147Y-114535573D01*
X213394961Y-114505563D01*
X213394961Y-113486035D01*
X213392147Y-113456025D01*
X213347916Y-113329620D01*
X213307799Y-113275264D01*
X213268391Y-113221868D01*
X213167534Y-113147432D01*
X213160640Y-113142344D01*
X213034235Y-113098113D01*
X213034232Y-113098112D01*
X213034230Y-113098112D01*
X213007112Y-113095569D01*
X213007096Y-113095568D01*
X213004225Y-113095299D01*
X212409697Y-113095299D01*
X212406826Y-113095568D01*
X212406809Y-113095569D01*
X212379691Y-113098112D01*
X212379688Y-113098112D01*
X212379687Y-113098113D01*
X212253282Y-113142344D01*
X212253281Y-113142344D01*
X212253280Y-113142345D01*
X212145530Y-113221868D01*
X212066007Y-113329618D01*
X212066006Y-113329620D01*
X212028320Y-113437322D01*
X212021774Y-113456029D01*
X212019231Y-113483147D01*
X212019230Y-113483164D01*
X212018961Y-113486035D01*
X212018961Y-114505563D01*
X212019230Y-114508434D01*
X212019231Y-114508450D01*
X212021774Y-114535573D01*
X212038551Y-114583520D01*
X212044392Y-114607864D01*
X212045808Y-114618344D01*
X212140234Y-114893485D01*
X212249745Y-115212582D01*
X212249746Y-115212583D01*
X212256461Y-115252834D01*
X212256461Y-118891165D01*
X212236776Y-118958204D01*
X212183972Y-119003959D01*
X212114814Y-119013903D01*
X212065220Y-118995350D01*
X211735375Y-118782462D01*
X211731492Y-118780682D01*
X211721570Y-118776133D01*
X211714980Y-118773112D01*
X211697761Y-118763492D01*
X211694163Y-118761087D01*
X211683977Y-118758579D01*
X211679105Y-118757143D01*
X211679094Y-118757140D01*
X211675686Y-118756136D01*
X211672183Y-118755529D01*
X211672180Y-118755529D01*
X211637344Y-118749500D01*
X211629122Y-118748077D01*
X211629121Y-118748077D01*
X211628480Y-118747966D01*
X211610287Y-118749500D01*
X211297862Y-118749500D01*
X211230823Y-118729815D01*
X211185068Y-118677011D01*
X211175124Y-118607853D01*
X211204149Y-118544297D01*
X211226734Y-118523928D01*
X211372877Y-118421598D01*
X211527598Y-118266877D01*
X211653102Y-118087639D01*
X211745575Y-117889330D01*
X211802207Y-117677977D01*
X211821277Y-117460000D01*
X211802207Y-117242023D01*
X211745575Y-117030670D01*
X211653102Y-116832362D01*
X211527598Y-116653123D01*
X211372877Y-116498402D01*
X211193639Y-116372898D01*
X211056249Y-116308832D01*
X210995331Y-116280425D01*
X210783974Y-116223792D01*
X210566000Y-116204722D01*
X210348025Y-116223792D01*
X210199458Y-116263600D01*
X210136670Y-116280425D01*
X210136669Y-116280425D01*
X210136667Y-116280426D01*
X210102314Y-116296444D01*
X210076437Y-116305190D01*
X210070993Y-116306381D01*
X208485362Y-116999129D01*
X208435719Y-117009500D01*
X207687965Y-117009500D01*
X207620926Y-116989815D01*
X207600284Y-116973181D01*
X207006368Y-116379265D01*
X206997102Y-116368897D01*
X206974879Y-116341030D01*
X206927608Y-116308800D01*
X206923870Y-116306148D01*
X206873035Y-116268629D01*
X206868424Y-116266302D01*
X206808049Y-116247679D01*
X206803644Y-116246230D01*
X206803418Y-116246151D01*
X206749699Y-116227354D01*
X206749698Y-116227353D01*
X206744023Y-116225368D01*
X206738914Y-116224500D01*
X206732902Y-116224500D01*
X206675738Y-116224500D01*
X206671101Y-116224413D01*
X206607970Y-116222050D01*
X206589365Y-116224500D01*
X203165251Y-116224500D01*
X203106769Y-116236132D01*
X203040447Y-116280447D01*
X202996132Y-116346769D01*
X202984500Y-116405251D01*
X202984500Y-116944748D01*
X202996132Y-117003230D01*
X203040447Y-117069552D01*
X203106769Y-117113867D01*
X203165251Y-117125500D01*
X203165252Y-117125500D01*
X204217098Y-117125500D01*
X206427034Y-117125500D01*
X206494073Y-117145185D01*
X206514715Y-117161819D01*
X207108630Y-117755733D01*
X207117896Y-117766101D01*
X207140120Y-117793969D01*
X207187364Y-117826180D01*
X207191145Y-117828863D01*
X207241973Y-117866376D01*
X207246568Y-117868695D01*
X207252325Y-117870470D01*
X207252327Y-117870472D01*
X207277351Y-117878190D01*
X207306980Y-117887330D01*
X207311371Y-117888774D01*
X207365301Y-117907646D01*
X207365303Y-117907646D01*
X207370990Y-117909636D01*
X207376071Y-117910500D01*
X207382098Y-117910500D01*
X207439246Y-117910500D01*
X207443883Y-117910586D01*
X207501010Y-117912725D01*
X207501010Y-117912724D01*
X207507026Y-117912950D01*
X207525638Y-117910500D01*
X208435722Y-117910500D01*
X208485364Y-117920870D01*
X209681144Y-118443289D01*
X209838124Y-118511871D01*
X209891676Y-118556748D01*
X209912464Y-118623453D01*
X209893889Y-118690809D01*
X209841847Y-118737429D01*
X209788481Y-118749500D01*
X209496251Y-118749500D01*
X209437769Y-118761132D01*
X209371447Y-118805447D01*
X209327132Y-118871769D01*
X209326788Y-118873503D01*
X209294401Y-118935413D01*
X209281110Y-118947336D01*
X208753919Y-119355739D01*
X208526675Y-119531780D01*
X208472785Y-119573527D01*
X208407733Y-119599021D01*
X208396846Y-119599500D01*
X207757965Y-119599500D01*
X207690926Y-119579815D01*
X207670284Y-119563181D01*
X207026368Y-118919265D01*
X207017102Y-118908897D01*
X207002961Y-118891165D01*
X206994879Y-118881030D01*
X206947608Y-118848800D01*
X206943870Y-118846148D01*
X206893035Y-118808629D01*
X206888424Y-118806302D01*
X206866858Y-118799650D01*
X206828045Y-118787677D01*
X206823644Y-118786230D01*
X206816139Y-118783604D01*
X206769699Y-118767354D01*
X206769698Y-118767353D01*
X206764023Y-118765368D01*
X206758914Y-118764500D01*
X206752902Y-118764500D01*
X206695738Y-118764500D01*
X206691101Y-118764413D01*
X206627970Y-118762050D01*
X206609365Y-118764500D01*
X203165251Y-118764500D01*
X203106769Y-118776132D01*
X203040447Y-118820447D01*
X202996132Y-118886769D01*
X202984500Y-118945251D01*
X202984500Y-119484748D01*
X199835500Y-119484748D01*
X199835500Y-118945252D01*
X199823867Y-118886769D01*
X199797641Y-118847519D01*
X199779552Y-118820447D01*
X199713230Y-118776132D01*
X199654749Y-118764500D01*
X199654748Y-118764500D01*
X197415252Y-118764500D01*
X197415251Y-118764500D01*
X197356769Y-118776132D01*
X197290447Y-118820447D01*
X197246132Y-118886769D01*
X197234500Y-118945251D01*
X197234500Y-119484748D01*
X191430500Y-119484748D01*
X191430500Y-118787659D01*
X191430765Y-118779557D01*
X191431300Y-118771384D01*
X191429883Y-118762550D01*
X191429882Y-118762549D01*
X191429882Y-118762544D01*
X191427053Y-118754922D01*
X191421696Y-118735992D01*
X191418867Y-118721769D01*
X191417699Y-118720021D01*
X191404542Y-118694258D01*
X191401991Y-118687382D01*
X191269571Y-118472200D01*
X191248894Y-118438600D01*
X191230500Y-118373612D01*
X191230500Y-116113187D01*
X191250185Y-116046148D01*
X191266814Y-116025511D01*
X192748296Y-114544029D01*
X192756250Y-114536740D01*
X192785194Y-114512455D01*
X192804102Y-114479703D01*
X192809878Y-114470638D01*
X192831553Y-114439684D01*
X192831553Y-114439681D01*
X192832171Y-114438800D01*
X192842400Y-114414105D01*
X192842586Y-114413047D01*
X192842588Y-114413045D01*
X192849150Y-114375824D01*
X192851480Y-114365312D01*
X192861263Y-114328807D01*
X192857972Y-114291187D01*
X192857500Y-114280380D01*
X192857500Y-109660187D01*
X192877185Y-109593148D01*
X192893814Y-109572511D01*
X193760388Y-108705937D01*
X193821711Y-108672453D01*
X193848069Y-108669619D01*
X195018912Y-108669619D01*
X195085951Y-108689304D01*
X195131706Y-108742108D01*
X195141650Y-108811266D01*
X195137890Y-108828549D01*
X195128825Y-108859421D01*
X195121323Y-108911598D01*
X195120500Y-108917322D01*
X195120500Y-110720490D01*
X195100815Y-110787529D01*
X195054711Y-110829978D01*
X195010054Y-110853720D01*
X194958631Y-110898191D01*
X194958619Y-110898201D01*
X194957206Y-110899424D01*
X194955880Y-110900720D01*
X194955834Y-110900763D01*
X194939235Y-110916997D01*
X194894509Y-110996776D01*
X194876017Y-111059533D01*
X194874761Y-111063794D01*
X194866494Y-111120899D01*
X194866381Y-111121682D01*
X194864673Y-112892230D01*
X194864602Y-112965292D01*
X194864928Y-112968472D01*
X194864929Y-112968474D01*
X194868611Y-113004302D01*
X194868612Y-113004313D01*
X194868939Y-113007487D01*
X194869592Y-113010618D01*
X194869593Y-113010620D01*
X194879344Y-113057326D01*
X194879644Y-113058654D01*
X194881355Y-113066030D01*
X194881364Y-113066049D01*
X194881365Y-113066050D01*
X194923093Y-113147431D01*
X194968008Y-113200952D01*
X194985314Y-113219183D01*
X195064416Y-113265086D01*
X195131136Y-113285828D01*
X195182704Y-113294076D01*
X195245791Y-113324100D01*
X195271719Y-113356669D01*
X195368570Y-113532407D01*
X195381809Y-113569206D01*
X195389846Y-113611687D01*
X195390622Y-113616255D01*
X195400040Y-113678738D01*
X195401653Y-113683638D01*
X195431177Y-113739500D01*
X195433267Y-113743640D01*
X195460674Y-113800550D01*
X195463673Y-113804777D01*
X195508336Y-113849440D01*
X195511553Y-113852779D01*
X195554533Y-113899101D01*
X195569420Y-113910524D01*
X195592485Y-113933589D01*
X195600675Y-113942627D01*
X195603679Y-113946290D01*
X195613361Y-113954465D01*
X196139154Y-114480257D01*
X196148420Y-114490625D01*
X196162684Y-114508512D01*
X196170645Y-114518494D01*
X196188247Y-114530495D01*
X196217888Y-114550704D01*
X196221665Y-114553384D01*
X196266868Y-114586746D01*
X196272497Y-114590900D01*
X196277092Y-114593219D01*
X196282849Y-114594994D01*
X196282851Y-114594996D01*
X196307875Y-114602714D01*
X196337504Y-114611854D01*
X196341895Y-114613298D01*
X196395825Y-114632170D01*
X196395826Y-114632170D01*
X196401513Y-114634160D01*
X196406597Y-114635024D01*
X196412622Y-114635024D01*
X196469786Y-114635024D01*
X196474423Y-114635111D01*
X196531534Y-114637248D01*
X196531534Y-114637247D01*
X196537553Y-114637473D01*
X196556159Y-114635024D01*
X205385462Y-114635024D01*
X205399346Y-114635804D01*
X205434757Y-114639794D01*
X205434757Y-114639793D01*
X205434759Y-114639794D01*
X205490952Y-114629160D01*
X205495450Y-114628396D01*
X205552011Y-114619872D01*
X205552012Y-114619871D01*
X205557992Y-114618970D01*
X205562852Y-114617370D01*
X205568191Y-114614547D01*
X205568196Y-114614547D01*
X205618769Y-114587816D01*
X205622860Y-114585751D01*
X205674366Y-114560949D01*
X205674368Y-114560946D01*
X205679802Y-114558330D01*
X205683995Y-114555355D01*
X205688257Y-114551092D01*
X205688262Y-114551090D01*
X205728725Y-114510625D01*
X205731983Y-114507486D01*
X205739982Y-114500065D01*
X208468961Y-114500065D01*
X208469230Y-114502938D01*
X208469231Y-114502950D01*
X208471814Y-114530495D01*
X208516668Y-114658683D01*
X208597310Y-114767949D01*
X208706576Y-114848591D01*
X208706579Y-114848592D01*
X208834762Y-114893445D01*
X208865195Y-114896299D01*
X208868088Y-114896299D01*
X209495834Y-114896299D01*
X209498727Y-114896299D01*
X209529160Y-114893445D01*
X209657343Y-114848592D01*
X209657343Y-114848591D01*
X209657345Y-114848591D01*
X209766609Y-114767951D01*
X209766609Y-114767949D01*
X209766611Y-114767949D01*
X209833369Y-114677493D01*
X209877676Y-114640223D01*
X209982707Y-114587700D01*
X210051468Y-114575323D01*
X210091918Y-114586864D01*
X210109652Y-114595395D01*
X210133146Y-114606697D01*
X210178724Y-114647814D01*
X210179908Y-114646941D01*
X210184194Y-114652748D01*
X210185025Y-114653498D01*
X210185528Y-114654556D01*
X210270530Y-114769729D01*
X210333546Y-114816237D01*
X210378282Y-114849254D01*
X210504687Y-114893485D01*
X210534697Y-114896299D01*
X210537591Y-114896299D01*
X211126331Y-114896299D01*
X211129225Y-114896299D01*
X211159235Y-114893485D01*
X211285640Y-114849254D01*
X211393391Y-114769729D01*
X211472916Y-114661978D01*
X211517147Y-114535573D01*
X211519961Y-114505563D01*
X211519961Y-113486035D01*
X211517147Y-113456025D01*
X211472916Y-113329620D01*
X211432799Y-113275264D01*
X211393391Y-113221868D01*
X211292534Y-113147432D01*
X211285640Y-113142344D01*
X211159235Y-113098113D01*
X211159232Y-113098112D01*
X211159230Y-113098112D01*
X211132112Y-113095569D01*
X211132096Y-113095568D01*
X211129225Y-113095299D01*
X210534697Y-113095299D01*
X210531826Y-113095568D01*
X210531809Y-113095569D01*
X210504691Y-113098112D01*
X210504688Y-113098112D01*
X210504687Y-113098113D01*
X210378282Y-113142344D01*
X210378281Y-113142344D01*
X210378280Y-113142345D01*
X210270530Y-113221868D01*
X210179908Y-113344657D01*
X210176387Y-113342058D01*
X210155685Y-113370907D01*
X210133147Y-113384898D01*
X210124897Y-113388867D01*
X210091920Y-113404730D01*
X210022976Y-113416054D01*
X209982706Y-113403894D01*
X209877677Y-113351373D01*
X209833367Y-113314101D01*
X209766611Y-113223649D01*
X209766610Y-113223648D01*
X209766609Y-113223646D01*
X209657345Y-113143006D01*
X209529157Y-113098152D01*
X209501612Y-113095569D01*
X209501600Y-113095568D01*
X209498727Y-113095299D01*
X208865195Y-113095299D01*
X208862322Y-113095568D01*
X208862309Y-113095569D01*
X208834764Y-113098152D01*
X208706576Y-113143006D01*
X208597310Y-113223648D01*
X208516668Y-113332914D01*
X208471814Y-113461102D01*
X208469231Y-113488647D01*
X208469230Y-113488660D01*
X208468961Y-113491533D01*
X208468961Y-114500065D01*
X205739982Y-114500065D01*
X205773918Y-114468579D01*
X205773919Y-114468577D01*
X205778337Y-114464478D01*
X205789757Y-114449593D01*
X206289743Y-113949606D01*
X206300092Y-113940358D01*
X206327969Y-113918128D01*
X206360190Y-113870867D01*
X206362858Y-113867108D01*
X206396792Y-113821131D01*
X206396793Y-113821126D01*
X206400380Y-113816267D01*
X206402691Y-113811690D01*
X206404469Y-113805924D01*
X206404471Y-113805922D01*
X206421329Y-113751263D01*
X206422774Y-113746875D01*
X206424634Y-113741562D01*
X206441645Y-113692948D01*
X206441645Y-113692946D01*
X206443636Y-113687257D01*
X206444499Y-113682179D01*
X206444499Y-113618987D01*
X206444586Y-113614350D01*
X206446948Y-113551220D01*
X206444499Y-113532614D01*
X206444499Y-111911002D01*
X206459424Y-111852022D01*
X206544492Y-111694700D01*
X206614324Y-111565554D01*
X206663525Y-111515949D01*
X206667077Y-111514064D01*
X206710571Y-111491904D01*
X206805879Y-111396596D01*
X206867070Y-111276502D01*
X206877913Y-111208041D01*
X206882851Y-111176866D01*
X206882851Y-110659885D01*
X206867070Y-110560251D01*
X206867070Y-110560250D01*
X206805879Y-110440156D01*
X206805878Y-110440154D01*
X206710572Y-110344848D01*
X206590475Y-110283656D01*
X206490841Y-110267876D01*
X206490839Y-110267876D01*
X205673863Y-110267876D01*
X205673861Y-110267876D01*
X205574226Y-110283656D01*
X205454129Y-110344848D01*
X205358823Y-110440154D01*
X205297631Y-110560251D01*
X205281851Y-110659885D01*
X205281851Y-111176866D01*
X205297631Y-111276500D01*
X205358823Y-111396597D01*
X205390559Y-111428332D01*
X205421115Y-111478648D01*
X205537734Y-111847659D01*
X205543498Y-111885025D01*
X205543499Y-113370283D01*
X205523814Y-113437322D01*
X205507180Y-113457964D01*
X205267440Y-113697705D01*
X205206117Y-113731190D01*
X205179759Y-113734024D01*
X196718490Y-113734024D01*
X196651451Y-113714339D01*
X196630809Y-113697705D01*
X196547073Y-113613969D01*
X196461369Y-113528266D01*
X196427885Y-113466944D01*
X196432869Y-113397253D01*
X196474740Y-113341319D01*
X196540205Y-113316902D01*
X196551012Y-113316602D01*
X196760923Y-113319921D01*
X196760932Y-113319920D01*
X196764372Y-113319975D01*
X196809676Y-113315652D01*
X196863102Y-113304482D01*
X196864858Y-113304074D01*
X196874802Y-113301683D01*
X196955558Y-113258692D01*
X197006920Y-113214223D01*
X197008380Y-113212959D01*
X197026342Y-113195374D01*
X197071021Y-113115574D01*
X197090733Y-113048542D01*
X197099081Y-112990650D01*
X197100174Y-110304483D01*
X197100103Y-110302041D01*
X197099544Y-110288321D01*
X197099377Y-110285888D01*
X197098091Y-110269809D01*
X197098095Y-110250352D01*
X197099572Y-110231636D01*
X197099692Y-110229214D01*
X197100209Y-110215557D01*
X197100234Y-110213132D01*
X197100688Y-109041449D01*
X197120400Y-108974418D01*
X197173223Y-108928685D01*
X197224688Y-108917500D01*
X197228000Y-108917500D01*
X197490313Y-108917500D01*
X197557352Y-108937185D01*
X197603107Y-108989989D01*
X197613051Y-109059147D01*
X197605931Y-109108022D01*
X197605517Y-109110861D01*
X197605517Y-109477382D01*
X197615443Y-109545509D01*
X197615443Y-109545510D01*
X197615444Y-109545512D01*
X197656824Y-109630158D01*
X197658460Y-109633504D01*
X197668225Y-109661603D01*
X197675205Y-109693690D01*
X197676403Y-109699193D01*
X197676768Y-109700732D01*
X197678878Y-109709350D01*
X197721899Y-109790085D01*
X197766399Y-109841441D01*
X197766420Y-109841464D01*
X197767655Y-109842889D01*
X197785246Y-109860843D01*
X197865063Y-109905490D01*
X197932102Y-109925175D01*
X197990000Y-109933500D01*
X199060500Y-109933500D01*
X199127539Y-109953185D01*
X199173294Y-110005989D01*
X199184499Y-110057499D01*
X199184500Y-111143794D01*
X199184754Y-111146584D01*
X199184755Y-111146597D01*
X199187633Y-111178160D01*
X199187634Y-111178171D01*
X199187889Y-111180962D01*
X199188397Y-111183729D01*
X199188398Y-111183730D01*
X199196002Y-111225078D01*
X199196732Y-111228850D01*
X199234436Y-111312169D01*
X199241515Y-111321494D01*
X199253179Y-111341383D01*
X199271291Y-111365924D01*
X199317448Y-111428464D01*
X199334717Y-111461140D01*
X199345482Y-111491904D01*
X199347531Y-111497758D01*
X199354490Y-111538713D01*
X199354490Y-112652000D01*
X199354844Y-112655297D01*
X199354845Y-112655306D01*
X199358830Y-112692372D01*
X199358832Y-112692388D01*
X199359187Y-112695684D01*
X199359893Y-112698933D01*
X199359894Y-112698934D01*
X199370393Y-112747195D01*
X199370758Y-112748732D01*
X199372868Y-112757350D01*
X199415889Y-112838085D01*
X199460389Y-112889441D01*
X199460410Y-112889464D01*
X199461645Y-112890889D01*
X199479236Y-112908843D01*
X199559053Y-112953490D01*
X199626092Y-112973175D01*
X199683990Y-112981500D01*
X199683994Y-112981500D01*
X203580678Y-112981500D01*
X203584000Y-112981500D01*
X203627684Y-112976803D01*
X203679195Y-112965597D01*
X203680732Y-112965232D01*
X203689350Y-112963121D01*
X203689368Y-112963111D01*
X203689373Y-112963110D01*
X203770085Y-112920100D01*
X203803796Y-112890889D01*
X203821441Y-112875600D01*
X203821446Y-112875595D01*
X203822889Y-112874345D01*
X203840843Y-112856754D01*
X203861676Y-112819507D01*
X203866798Y-112811145D01*
X203873591Y-112800980D01*
X203873591Y-112800978D01*
X203879247Y-112792515D01*
X203884021Y-112779562D01*
X203885490Y-112776937D01*
X203905175Y-112709898D01*
X203913500Y-112652000D01*
X203913500Y-110868000D01*
X203908803Y-110824316D01*
X203897597Y-110772805D01*
X203897232Y-110771268D01*
X203895121Y-110762649D01*
X203895110Y-110762629D01*
X203895110Y-110762627D01*
X203870348Y-110716159D01*
X203852100Y-110681914D01*
X203807595Y-110630553D01*
X203807586Y-110630543D01*
X203806345Y-110629111D01*
X203788754Y-110611157D01*
X203708937Y-110566510D01*
X203708936Y-110566509D01*
X203708935Y-110566509D01*
X203641901Y-110546826D01*
X203641898Y-110546825D01*
X203584000Y-110538500D01*
X203583996Y-110538500D01*
X200735500Y-110538500D01*
X200668461Y-110518815D01*
X200622706Y-110466011D01*
X200611500Y-110414500D01*
X200611500Y-108153631D01*
X200631185Y-108086592D01*
X200683989Y-108040837D01*
X200753147Y-108030893D01*
X200804392Y-108050530D01*
X200816493Y-108058616D01*
X200874975Y-108070249D01*
X200874976Y-108070249D01*
X203704473Y-108070249D01*
X203733713Y-108064432D01*
X203762955Y-108058616D01*
X203829276Y-108014301D01*
X203873591Y-107947980D01*
X203885224Y-107889497D01*
X203885224Y-107876866D01*
X205281851Y-107876866D01*
X205297631Y-107976500D01*
X205358823Y-108096597D01*
X205454129Y-108191903D01*
X205454131Y-108191904D01*
X205574225Y-108253095D01*
X205593236Y-108256106D01*
X205673861Y-108268876D01*
X205673863Y-108268876D01*
X206490842Y-108268876D01*
X206594673Y-108252431D01*
X206611368Y-108246261D01*
X207163178Y-108113149D01*
X207192256Y-108109691D01*
X207540307Y-108109691D01*
X207607346Y-108129376D01*
X207627988Y-108146009D01*
X207727717Y-108245737D01*
X207736983Y-108256106D01*
X207759203Y-108283969D01*
X207806447Y-108316180D01*
X207810228Y-108318863D01*
X207861056Y-108356376D01*
X207865651Y-108358695D01*
X207871408Y-108360470D01*
X207871410Y-108360472D01*
X207896434Y-108368190D01*
X207926063Y-108377330D01*
X207930454Y-108378774D01*
X207984384Y-108397646D01*
X207984385Y-108397646D01*
X207990072Y-108399636D01*
X207995156Y-108400500D01*
X208001181Y-108400500D01*
X208058345Y-108400500D01*
X208062982Y-108400587D01*
X208120093Y-108402724D01*
X208120093Y-108402723D01*
X208126112Y-108402949D01*
X208144718Y-108400500D01*
X208435722Y-108400500D01*
X208485364Y-108410870D01*
X210072659Y-109104336D01*
X210072856Y-109104420D01*
X210076150Y-109105094D01*
X210103677Y-109114189D01*
X210136670Y-109129575D01*
X210348023Y-109186207D01*
X210566000Y-109205277D01*
X210783977Y-109186207D01*
X210995330Y-109129575D01*
X211193639Y-109037102D01*
X211372877Y-108911598D01*
X211527598Y-108756877D01*
X211653102Y-108577639D01*
X211745575Y-108379330D01*
X211802207Y-108167977D01*
X211821277Y-107950000D01*
X211802207Y-107732023D01*
X211745575Y-107520670D01*
X211653102Y-107322362D01*
X211527598Y-107143123D01*
X211372877Y-106988402D01*
X211193639Y-106862898D01*
X211070958Y-106805691D01*
X210995331Y-106770425D01*
X210783974Y-106713792D01*
X210566000Y-106694722D01*
X210348025Y-106713792D01*
X210238562Y-106743123D01*
X210136670Y-106770425D01*
X210136669Y-106770425D01*
X210136667Y-106770426D01*
X210102314Y-106786444D01*
X210076437Y-106795190D01*
X210070993Y-106796381D01*
X208485362Y-107489129D01*
X208435719Y-107499500D01*
X208307050Y-107499500D01*
X208240011Y-107479815D01*
X208219369Y-107463182D01*
X208119638Y-107363452D01*
X208110372Y-107353083D01*
X208088153Y-107325221D01*
X208040882Y-107292991D01*
X208037144Y-107290339D01*
X207986309Y-107252820D01*
X207981698Y-107250493D01*
X207921323Y-107231870D01*
X207916918Y-107230421D01*
X207857297Y-107209559D01*
X207852188Y-107208691D01*
X207846176Y-107208691D01*
X207789012Y-107208691D01*
X207784375Y-107208604D01*
X207721244Y-107206241D01*
X207702639Y-107208691D01*
X207205945Y-107208691D01*
X207161952Y-107200625D01*
X206626311Y-106997365D01*
X206626305Y-106997363D01*
X206623936Y-106996464D01*
X206621497Y-106995761D01*
X206621493Y-106995760D01*
X206619328Y-106995136D01*
X206616183Y-106994230D01*
X206594216Y-106985562D01*
X206590476Y-106983656D01*
X206490841Y-106967876D01*
X206490839Y-106967876D01*
X205673863Y-106967876D01*
X205673861Y-106967876D01*
X205574226Y-106983656D01*
X205454129Y-107044848D01*
X205358823Y-107140154D01*
X205297631Y-107260251D01*
X205281851Y-107359885D01*
X205281851Y-107876866D01*
X203885224Y-107876866D01*
X203885224Y-105947001D01*
X203873591Y-105888518D01*
X203873590Y-105888517D01*
X203829276Y-105822196D01*
X203762954Y-105777881D01*
X203704473Y-105766249D01*
X203704472Y-105766249D01*
X200874976Y-105766249D01*
X200874975Y-105766249D01*
X200816493Y-105777881D01*
X200750171Y-105822196D01*
X200705856Y-105888518D01*
X200694223Y-105947005D01*
X200694223Y-105947178D01*
X200694116Y-105947540D01*
X200691841Y-105958980D01*
X200690816Y-105958776D01*
X200674533Y-106014216D01*
X200621725Y-106059967D01*
X200552566Y-106069904D01*
X200502720Y-106047135D01*
X200502314Y-106047861D01*
X200493430Y-106042891D01*
X200489013Y-106040874D01*
X200487824Y-106039756D01*
X200486755Y-106039158D01*
X200486754Y-106039157D01*
X200406937Y-105994510D01*
X200406936Y-105994509D01*
X200406935Y-105994509D01*
X200339901Y-105974826D01*
X200339898Y-105974825D01*
X200282000Y-105966500D01*
X198031999Y-105966500D01*
X198028310Y-105966945D01*
X198028305Y-105966946D01*
X197986755Y-105971966D01*
X197986741Y-105971968D01*
X197983054Y-105972414D01*
X197979448Y-105973298D01*
X197979433Y-105973301D01*
X197925688Y-105986482D01*
X197923400Y-105987114D01*
X197910467Y-105990831D01*
X197863133Y-106019344D01*
X197795550Y-106037074D01*
X197737807Y-106020889D01*
X197706083Y-106002830D01*
X197666326Y-105990831D01*
X197639195Y-105982642D01*
X197581364Y-105973884D01*
X196725843Y-105967468D01*
X196725837Y-105967468D01*
X196722470Y-105967443D01*
X196719113Y-105967784D01*
X196719109Y-105967785D01*
X196681356Y-105971629D01*
X196681340Y-105971631D01*
X196677996Y-105971972D01*
X196674698Y-105972676D01*
X196674695Y-105972677D01*
X196625556Y-105983175D01*
X196623900Y-105983564D01*
X196614652Y-105985810D01*
X196533914Y-106028833D01*
X196482558Y-106073333D01*
X196482518Y-106073369D01*
X196481111Y-106074589D01*
X196479769Y-106075904D01*
X196463156Y-106092181D01*
X196418509Y-106171998D01*
X196398824Y-106239039D01*
X196391965Y-106286740D01*
X196362939Y-106350295D01*
X196304160Y-106388068D01*
X196249831Y-106391563D01*
X196193486Y-106382639D01*
X196060361Y-106403724D01*
X195940264Y-106464916D01*
X195844958Y-106560222D01*
X195783766Y-106680319D01*
X195762681Y-106813444D01*
X195784608Y-106951884D01*
X195790431Y-106967955D01*
X195845278Y-107208691D01*
X195864192Y-107291710D01*
X195864919Y-107294898D01*
X195868017Y-107322443D01*
X195868017Y-107646464D01*
X195851126Y-107708943D01*
X195808453Y-107782098D01*
X195757671Y-107830087D01*
X195701344Y-107843619D01*
X195647754Y-107843619D01*
X195579624Y-107853545D01*
X195572005Y-107857270D01*
X195541999Y-107867433D01*
X195539605Y-107867914D01*
X195436031Y-107911070D01*
X195366577Y-107918684D01*
X195304033Y-107887539D01*
X195268255Y-107827525D01*
X195267011Y-107822212D01*
X195155793Y-107294583D01*
X195153127Y-107269007D01*
X195153127Y-106863872D01*
X195153127Y-106860980D01*
X195150273Y-106830547D01*
X195105420Y-106702364D01*
X195105419Y-106702361D01*
X195024777Y-106593095D01*
X194915511Y-106512453D01*
X194787323Y-106467599D01*
X194759778Y-106465016D01*
X194759766Y-106465015D01*
X194756893Y-106464746D01*
X193348361Y-106464746D01*
X193345488Y-106465015D01*
X193345475Y-106465016D01*
X193317928Y-106467599D01*
X193235384Y-106496482D01*
X193229015Y-106498519D01*
X193205750Y-106505274D01*
X193205747Y-106505275D01*
X193204273Y-106506041D01*
X193188864Y-106512696D01*
X193175925Y-106520760D01*
X192544693Y-106848547D01*
X192487548Y-106862500D01*
X192464188Y-106862500D01*
X192397149Y-106842815D01*
X192376507Y-106826181D01*
X192167767Y-106617441D01*
X192148884Y-106593164D01*
X191829650Y-106056619D01*
X191812214Y-105993215D01*
X191812214Y-105985834D01*
X191812214Y-105985831D01*
X191797361Y-105892045D01*
X191761771Y-105822196D01*
X191739765Y-105779006D01*
X191650058Y-105689299D01*
X191537017Y-105631702D01*
X191443236Y-105616849D01*
X190980200Y-105616849D01*
X190933304Y-105624276D01*
X190886411Y-105631703D01*
X190886409Y-105631703D01*
X190886408Y-105631704D01*
X190773372Y-105689298D01*
X190683665Y-105779005D01*
X190626068Y-105892046D01*
X190611215Y-105985827D01*
X190611215Y-106598863D01*
X190616401Y-106631609D01*
X190626069Y-106692653D01*
X190626069Y-106692654D01*
X190626070Y-106692655D01*
X190683664Y-106805691D01*
X190773371Y-106895398D01*
X190773373Y-106895399D01*
X190886411Y-106952995D01*
X190980196Y-106967849D01*
X191120885Y-106967848D01*
X191145216Y-106970258D01*
X191148265Y-106970868D01*
X191148270Y-106970870D01*
X191676882Y-107076648D01*
X191738754Y-107109104D01*
X191740230Y-107110556D01*
X192033950Y-107404276D01*
X192041258Y-107412250D01*
X192065545Y-107441194D01*
X192089594Y-107455079D01*
X192098256Y-107460080D01*
X192107379Y-107465892D01*
X192138316Y-107487554D01*
X192138317Y-107487554D01*
X192139198Y-107488171D01*
X192163891Y-107498400D01*
X192164954Y-107498587D01*
X192164955Y-107498588D01*
X192202143Y-107505145D01*
X192212701Y-107507485D01*
X192249193Y-107517264D01*
X192286823Y-107513971D01*
X192297630Y-107513500D01*
X192470840Y-107513500D01*
X192537879Y-107533185D01*
X192539322Y-107534126D01*
X193146985Y-107936679D01*
X193152136Y-107940282D01*
X193189745Y-107968039D01*
X193290818Y-108003405D01*
X193347593Y-108044127D01*
X193373341Y-108109079D01*
X193359885Y-108177641D01*
X193337544Y-108208128D01*
X192315714Y-109229958D01*
X192307741Y-109237264D01*
X192278806Y-109261544D01*
X192259914Y-109294264D01*
X192254106Y-109303380D01*
X192231831Y-109335193D01*
X192221597Y-109359899D01*
X192214852Y-109398148D01*
X192212512Y-109408704D01*
X192202735Y-109445191D01*
X192206028Y-109482817D01*
X192206500Y-109493626D01*
X192206500Y-114113810D01*
X192186815Y-114180849D01*
X192170181Y-114201491D01*
X190688714Y-115682958D01*
X190680741Y-115690264D01*
X190651806Y-115714544D01*
X190632914Y-115747264D01*
X190627106Y-115756380D01*
X190604831Y-115788193D01*
X190594597Y-115812899D01*
X190587852Y-115851148D01*
X190585512Y-115861704D01*
X190575735Y-115898193D01*
X190579027Y-115935819D01*
X190579499Y-115946626D01*
X190579500Y-118373610D01*
X190561106Y-118438598D01*
X190408000Y-118687396D01*
X190406974Y-118689160D01*
X190401289Y-118699153D01*
X190400328Y-118700939D01*
X190400581Y-118700494D01*
X190393098Y-118714808D01*
X190392571Y-118714532D01*
X190391615Y-118719338D01*
X190359228Y-118781248D01*
X190298511Y-118815820D01*
X190228742Y-118812077D01*
X190172071Y-118771209D01*
X190150852Y-118724741D01*
X190148867Y-118721770D01*
X190148867Y-118721769D01*
X190147699Y-118720021D01*
X190134542Y-118694258D01*
X190131991Y-118687382D01*
X189999571Y-118472200D01*
X189978894Y-118438600D01*
X189960500Y-118373612D01*
X189960500Y-117204615D01*
X189960972Y-117193807D01*
X189964263Y-117156193D01*
X189954486Y-117119706D01*
X189952145Y-117109143D01*
X189945402Y-117070901D01*
X189935169Y-117046195D01*
X189912894Y-117014382D01*
X189907083Y-117005261D01*
X189888194Y-116972545D01*
X189859261Y-116948267D01*
X189851286Y-116940959D01*
X186298357Y-113388030D01*
X186282097Y-113367968D01*
X186278619Y-113362621D01*
X185587849Y-112300796D01*
X185587847Y-112300794D01*
X185584506Y-112295658D01*
X185579089Y-112286492D01*
X185502685Y-112143550D01*
X185437047Y-112063569D01*
X185371410Y-111983589D01*
X185244726Y-111879624D01*
X185211450Y-111852315D01*
X185028954Y-111754768D01*
X184929943Y-111724733D01*
X184830932Y-111694699D01*
X184625000Y-111674417D01*
X184419067Y-111694699D01*
X184221043Y-111754769D01*
X184038551Y-111852314D01*
X183878589Y-111983589D01*
X183747314Y-112143551D01*
X183649769Y-112326043D01*
X183589699Y-112524067D01*
X183569417Y-112730000D01*
X183589699Y-112935932D01*
X183602097Y-112976803D01*
X183649768Y-113133954D01*
X183747315Y-113316450D01*
X183795045Y-113374609D01*
X183878589Y-113476410D01*
X183941778Y-113528267D01*
X184038550Y-113607685D01*
X184221046Y-113705232D01*
X184419066Y-113765300D01*
X184609935Y-113784098D01*
X184617262Y-113785431D01*
X185287942Y-113829072D01*
X185809087Y-113862984D01*
X185874706Y-113886980D01*
X185888715Y-113899041D01*
X189273181Y-117283507D01*
X189306666Y-117344830D01*
X189309500Y-117371188D01*
X189309500Y-118373610D01*
X189291106Y-118438598D01*
X189138000Y-118687396D01*
X189136974Y-118689160D01*
X189131289Y-118699153D01*
X189130328Y-118700939D01*
X189130581Y-118700494D01*
X189123098Y-118714808D01*
X189122571Y-118714532D01*
X189121615Y-118719338D01*
X189089228Y-118781248D01*
X189028511Y-118815820D01*
X188958742Y-118812077D01*
X188902071Y-118771209D01*
X188880852Y-118724741D01*
X188878867Y-118721770D01*
X188878867Y-118721769D01*
X188877699Y-118720021D01*
X188864542Y-118694258D01*
X188861991Y-118687382D01*
X188729571Y-118472200D01*
X188708894Y-118438600D01*
X188690500Y-118373612D01*
X188690500Y-117744618D01*
X188690972Y-117733810D01*
X188694263Y-117696191D01*
X188684486Y-117659704D01*
X188682144Y-117649140D01*
X188675400Y-117610891D01*
X188665173Y-117586201D01*
X188664554Y-117585317D01*
X188664554Y-117585316D01*
X188642878Y-117554360D01*
X188637085Y-117545266D01*
X188618194Y-117512545D01*
X188614957Y-117509829D01*
X188589261Y-117488267D01*
X188581286Y-117480959D01*
X186421342Y-115321016D01*
X186416364Y-115315738D01*
X186405083Y-115303053D01*
X186404915Y-115302926D01*
X186392037Y-115291711D01*
X186154043Y-115053717D01*
X186146734Y-115045741D01*
X186122454Y-115016805D01*
X186089736Y-114997915D01*
X186080627Y-114992112D01*
X186049684Y-114970446D01*
X186048803Y-114969829D01*
X186024103Y-114959597D01*
X185985853Y-114952852D01*
X185975297Y-114950512D01*
X185942427Y-114941705D01*
X185899720Y-114920829D01*
X185358119Y-114511196D01*
X185358118Y-114511195D01*
X185350108Y-114505137D01*
X185350149Y-114505082D01*
X185343356Y-114500567D01*
X185312267Y-114475053D01*
X185211450Y-114392315D01*
X185028954Y-114294768D01*
X184929943Y-114264733D01*
X184830932Y-114234699D01*
X184625000Y-114214417D01*
X184419067Y-114234699D01*
X184221043Y-114294769D01*
X184038551Y-114392314D01*
X183878589Y-114523589D01*
X183747314Y-114683551D01*
X183649769Y-114866043D01*
X183589699Y-115064067D01*
X183569417Y-115269999D01*
X183589699Y-115475932D01*
X183649769Y-115673956D01*
X183688953Y-115747264D01*
X183747315Y-115856450D01*
X183789935Y-115908383D01*
X183878589Y-116016410D01*
X183914826Y-116046148D01*
X184038550Y-116147685D01*
X184221046Y-116245232D01*
X184419066Y-116305300D01*
X184625000Y-116325583D01*
X184830934Y-116305300D01*
X185016572Y-116248987D01*
X185023056Y-116247567D01*
X185027950Y-116245871D01*
X185027955Y-116245871D01*
X185992623Y-115911724D01*
X186062411Y-115908383D01*
X186120888Y-115941214D01*
X188003181Y-117823507D01*
X188036666Y-117884830D01*
X188039500Y-117911188D01*
X188039500Y-118373610D01*
X188021106Y-118438598D01*
X187868000Y-118687396D01*
X187866974Y-118689160D01*
X187861289Y-118699153D01*
X187860328Y-118700939D01*
X187860581Y-118700494D01*
X187853098Y-118714808D01*
X187852571Y-118714532D01*
X187851615Y-118719338D01*
X187819228Y-118781248D01*
X187758511Y-118815820D01*
X187688742Y-118812077D01*
X187632071Y-118771209D01*
X187610852Y-118724741D01*
X187608867Y-118721770D01*
X187608867Y-118721769D01*
X187607699Y-118720021D01*
X187594542Y-118694258D01*
X187591991Y-118687382D01*
X187459571Y-118472200D01*
X187438894Y-118438600D01*
X187420500Y-118373612D01*
X187420500Y-118214618D01*
X187420972Y-118203810D01*
X187424263Y-118166191D01*
X187414486Y-118129704D01*
X187412144Y-118119140D01*
X187406590Y-118087639D01*
X187405588Y-118081955D01*
X187405587Y-118081954D01*
X187405400Y-118080891D01*
X187395173Y-118056201D01*
X187394554Y-118055317D01*
X187394554Y-118055316D01*
X187372878Y-118024360D01*
X187367085Y-118015266D01*
X187348194Y-117982545D01*
X187319261Y-117958267D01*
X187311286Y-117950959D01*
X186954043Y-117593717D01*
X186946734Y-117585741D01*
X186922455Y-117556806D01*
X186922454Y-117556805D01*
X186889736Y-117537915D01*
X186880627Y-117532112D01*
X186849684Y-117510446D01*
X186848803Y-117509829D01*
X186824107Y-117499599D01*
X186785852Y-117492853D01*
X186775296Y-117490512D01*
X186738807Y-117480735D01*
X186701180Y-117484028D01*
X186690372Y-117484500D01*
X186410437Y-117484500D01*
X186356750Y-117472275D01*
X185050387Y-116844809D01*
X185045297Y-116842449D01*
X185045261Y-116842433D01*
X185045121Y-116842368D01*
X185037177Y-116838823D01*
X185029443Y-116835029D01*
X185028954Y-116834768D01*
X184942729Y-116808612D01*
X184830932Y-116774699D01*
X184625000Y-116754417D01*
X184419067Y-116774699D01*
X184221043Y-116834769D01*
X184038551Y-116932314D01*
X183878589Y-117063589D01*
X183747314Y-117223551D01*
X183649769Y-117406043D01*
X183589699Y-117604067D01*
X183569417Y-117809999D01*
X182000500Y-117809999D01*
X182000500Y-110189999D01*
X183569417Y-110189999D01*
X183589699Y-110395932D01*
X183589700Y-110395934D01*
X183642557Y-110570183D01*
X183649769Y-110593956D01*
X183686622Y-110662903D01*
X183747315Y-110776450D01*
X183788710Y-110826890D01*
X183878589Y-110936410D01*
X183901159Y-110954932D01*
X184038550Y-111067685D01*
X184221046Y-111165232D01*
X184419066Y-111225300D01*
X184625000Y-111245583D01*
X184830934Y-111225300D01*
X185028954Y-111165232D01*
X185040169Y-111159236D01*
X185048545Y-111155823D01*
X186112313Y-110602608D01*
X186180872Y-110589140D01*
X186234514Y-110607015D01*
X186282796Y-110636727D01*
X186310248Y-110650733D01*
X186310255Y-110650737D01*
X186312004Y-110651629D01*
X186310841Y-110651064D01*
X186316981Y-110654504D01*
X186328504Y-110657669D01*
X186335579Y-110660172D01*
X186345084Y-110660776D01*
X186361386Y-110662908D01*
X186376895Y-110665993D01*
X186376896Y-110665993D01*
X187471772Y-110665993D01*
X187475908Y-110666128D01*
X187476482Y-110666035D01*
X187476485Y-110666036D01*
X187485327Y-110664618D01*
X187489952Y-110662901D01*
X187508896Y-110657537D01*
X187524874Y-110654360D01*
X187527638Y-110652512D01*
X187553389Y-110639361D01*
X187560489Y-110636727D01*
X187808042Y-110484387D01*
X187873031Y-110465993D01*
X190120255Y-110465993D01*
X190185243Y-110484387D01*
X190430693Y-110635433D01*
X190432796Y-110636727D01*
X190460248Y-110650733D01*
X190460255Y-110650737D01*
X190462004Y-110651629D01*
X190460841Y-110651064D01*
X190466981Y-110654504D01*
X190478504Y-110657669D01*
X190485579Y-110660172D01*
X190495084Y-110660776D01*
X190511386Y-110662908D01*
X190526895Y-110665993D01*
X190559443Y-110665993D01*
X190626482Y-110685678D01*
X190665048Y-110725004D01*
X190724048Y-110820878D01*
X190742419Y-110888290D01*
X190721429Y-110954932D01*
X190706124Y-110973548D01*
X190688709Y-110990963D01*
X190680735Y-110998270D01*
X190651806Y-111022545D01*
X190632914Y-111055264D01*
X190627106Y-111064380D01*
X190604831Y-111096193D01*
X190594597Y-111120899D01*
X190594355Y-111122274D01*
X190577284Y-111166627D01*
X190489817Y-111306065D01*
X190453666Y-111343273D01*
X190435449Y-111355445D01*
X190387499Y-111427206D01*
X190359231Y-111481246D01*
X190298515Y-111515820D01*
X190228746Y-111512079D01*
X190172074Y-111471212D01*
X190150848Y-111424734D01*
X190104552Y-111355447D01*
X190038230Y-111311132D01*
X189979749Y-111299500D01*
X189979748Y-111299500D01*
X189290252Y-111299500D01*
X189290251Y-111299500D01*
X189231769Y-111311132D01*
X189165447Y-111355447D01*
X189117499Y-111427206D01*
X189089231Y-111481246D01*
X189028515Y-111515820D01*
X188958746Y-111512079D01*
X188902074Y-111471212D01*
X188880848Y-111424734D01*
X188834552Y-111355447D01*
X188768230Y-111311132D01*
X188709749Y-111299500D01*
X188709748Y-111299500D01*
X188020252Y-111299500D01*
X188020251Y-111299500D01*
X187961769Y-111311132D01*
X187895447Y-111355447D01*
X187851132Y-111421769D01*
X187839500Y-111480251D01*
X187839500Y-113219748D01*
X187851132Y-113278230D01*
X187895447Y-113344552D01*
X187961769Y-113388867D01*
X188020251Y-113400500D01*
X188020252Y-113400500D01*
X188709749Y-113400500D01*
X188738989Y-113394683D01*
X188768231Y-113388867D01*
X188834552Y-113344552D01*
X188878867Y-113278231D01*
X188878867Y-113278229D01*
X188882503Y-113272788D01*
X188910764Y-113218758D01*
X188971478Y-113184181D01*
X189041248Y-113187919D01*
X189097921Y-113228783D01*
X189119151Y-113275266D01*
X189122299Y-113279977D01*
X189135450Y-113305725D01*
X189138007Y-113312615D01*
X189192091Y-113400500D01*
X189211818Y-113432557D01*
X189230188Y-113499968D01*
X189228685Y-113516942D01*
X189209195Y-113639999D01*
X189230280Y-113773124D01*
X189291472Y-113893221D01*
X189386778Y-113988527D01*
X189386780Y-113988528D01*
X189506874Y-114049719D01*
X189640000Y-114070804D01*
X189773126Y-114049719D01*
X189893220Y-113988528D01*
X189988528Y-113893220D01*
X190049719Y-113773126D01*
X190070804Y-113640000D01*
X190067043Y-113616255D01*
X190049267Y-113504018D01*
X190058222Y-113434725D01*
X190066131Y-113419637D01*
X190131991Y-113312617D01*
X190131994Y-113312612D01*
X190133014Y-113310859D01*
X190138668Y-113300924D01*
X190139636Y-113299128D01*
X190139384Y-113299569D01*
X190146912Y-113285178D01*
X190147430Y-113285449D01*
X190148382Y-113280665D01*
X190180767Y-113218754D01*
X190241483Y-113184180D01*
X190311252Y-113187919D01*
X190367924Y-113228785D01*
X190389151Y-113275264D01*
X190391132Y-113278230D01*
X190391133Y-113278231D01*
X190404248Y-113297858D01*
X190435447Y-113344552D01*
X190501769Y-113388867D01*
X190560251Y-113400500D01*
X190560252Y-113400500D01*
X191249749Y-113400500D01*
X191278989Y-113394683D01*
X191308231Y-113388867D01*
X191374552Y-113344552D01*
X191418867Y-113278231D01*
X191430500Y-113219748D01*
X191430500Y-111548203D01*
X191432174Y-111527898D01*
X191432328Y-111526969D01*
X191431226Y-111516827D01*
X191430500Y-111503433D01*
X191430500Y-111480251D01*
X191424408Y-111449628D01*
X191422749Y-111438815D01*
X191422301Y-111434687D01*
X191419047Y-111422675D01*
X191418867Y-111421769D01*
X191418866Y-111421767D01*
X191399036Y-111392089D01*
X191395086Y-111385776D01*
X191394398Y-111384600D01*
X191379061Y-111358361D01*
X191379059Y-111358358D01*
X191372898Y-111347819D01*
X191374472Y-111346898D01*
X191351031Y-111297068D01*
X191360193Y-111227801D01*
X191371725Y-111207376D01*
X191382042Y-111182469D01*
X191382229Y-111181404D01*
X191382231Y-111181402D01*
X191388792Y-111144187D01*
X191391121Y-111133681D01*
X191400907Y-111097164D01*
X191400745Y-111095316D01*
X191397615Y-111059533D01*
X191397143Y-111048726D01*
X191397143Y-110891879D01*
X191415538Y-110826890D01*
X191478238Y-110725004D01*
X191530138Y-110678226D01*
X191583843Y-110665993D01*
X191616392Y-110665993D01*
X191647098Y-110659885D01*
X191674874Y-110654360D01*
X191741195Y-110610045D01*
X191785510Y-110543724D01*
X191797143Y-110485241D01*
X191797143Y-109795745D01*
X191785510Y-109737262D01*
X191766875Y-109709373D01*
X191741195Y-109670940D01*
X191674873Y-109626625D01*
X191616392Y-109614993D01*
X191616391Y-109614993D01*
X191564670Y-109614993D01*
X191497631Y-109595308D01*
X191459989Y-109557460D01*
X191397939Y-109459735D01*
X191388555Y-109435550D01*
X191383124Y-109426144D01*
X191371814Y-109398841D01*
X191371197Y-109397960D01*
X191371197Y-109397959D01*
X191349535Y-109367022D01*
X191343723Y-109357899D01*
X191324837Y-109325188D01*
X191309496Y-109312315D01*
X191304220Y-109307888D01*
X191289288Y-109293022D01*
X191286143Y-109289307D01*
X191286024Y-109289223D01*
X191270105Y-109275779D01*
X189923534Y-107929208D01*
X189890049Y-107867885D01*
X189887215Y-107841527D01*
X189887215Y-107254688D01*
X189900141Y-107199566D01*
X190105157Y-106786444D01*
X190126657Y-106743121D01*
X190134637Y-106720166D01*
X190141271Y-106704603D01*
X190147361Y-106692653D01*
X190162215Y-106598868D01*
X190162214Y-105985831D01*
X190147361Y-105892045D01*
X190111771Y-105822196D01*
X190089765Y-105779006D01*
X190000058Y-105689299D01*
X189887017Y-105631702D01*
X189793236Y-105616849D01*
X189330200Y-105616849D01*
X189283304Y-105624276D01*
X189236411Y-105631703D01*
X189236409Y-105631703D01*
X189236408Y-105631704D01*
X189123372Y-105689298D01*
X189033665Y-105779005D01*
X188976068Y-105892046D01*
X188961215Y-105985827D01*
X188961215Y-106598863D01*
X188966401Y-106631609D01*
X188976069Y-106692653D01*
X188976069Y-106692654D01*
X188976070Y-106692655D01*
X188985249Y-106710670D01*
X188994456Y-106734564D01*
X188996772Y-106743121D01*
X189162289Y-107076647D01*
X189223289Y-107199564D01*
X189236215Y-107254686D01*
X189236215Y-108008087D01*
X189235743Y-108018895D01*
X189232450Y-108056522D01*
X189242227Y-108093011D01*
X189244568Y-108103567D01*
X189251314Y-108141822D01*
X189261544Y-108166518D01*
X189262161Y-108167399D01*
X189283827Y-108198342D01*
X189289630Y-108207451D01*
X189308521Y-108240170D01*
X189323924Y-108253095D01*
X189337457Y-108264450D01*
X189345433Y-108271759D01*
X190500579Y-109426905D01*
X190534064Y-109488228D01*
X190529080Y-109557920D01*
X190487208Y-109613853D01*
X190481785Y-109617690D01*
X190465649Y-109628471D01*
X190439904Y-109641619D01*
X190435818Y-109643136D01*
X190432796Y-109644257D01*
X190185241Y-109796599D01*
X190120253Y-109814993D01*
X187873032Y-109814993D01*
X187808044Y-109796599D01*
X187562591Y-109645551D01*
X187562581Y-109645545D01*
X187560489Y-109644258D01*
X187558290Y-109643136D01*
X187533473Y-109630474D01*
X187533465Y-109630470D01*
X187532864Y-109630163D01*
X187532854Y-109630158D01*
X187531281Y-109629356D01*
X187532329Y-109629864D01*
X187526285Y-109626480D01*
X187514831Y-109623330D01*
X187507726Y-109620817D01*
X187498204Y-109620210D01*
X187481914Y-109618080D01*
X187466392Y-109614993D01*
X187466391Y-109614993D01*
X186376895Y-109614993D01*
X186371595Y-109614993D01*
X186367382Y-109614855D01*
X186357973Y-109616363D01*
X186353318Y-109618090D01*
X186334396Y-109623445D01*
X186318412Y-109626625D01*
X186315647Y-109628473D01*
X186289904Y-109641619D01*
X186282797Y-109644257D01*
X186214780Y-109686113D01*
X186147368Y-109704482D01*
X186099143Y-109693690D01*
X185043235Y-109221173D01*
X185035427Y-109217778D01*
X185029639Y-109214976D01*
X185028954Y-109214768D01*
X184934800Y-109186207D01*
X184830932Y-109154699D01*
X184625000Y-109134417D01*
X184419067Y-109154699D01*
X184221043Y-109214769D01*
X184038551Y-109312314D01*
X183878589Y-109443589D01*
X183747314Y-109603551D01*
X183649769Y-109786043D01*
X183589699Y-109984067D01*
X183569417Y-110189999D01*
X182000500Y-110189999D01*
X182000500Y-102002869D01*
X182000566Y-102000000D01*
X182594506Y-102000000D01*
X182594688Y-102003356D01*
X182614286Y-102364835D01*
X182614287Y-102364846D01*
X182614469Y-102368199D01*
X182674125Y-102732081D01*
X182772773Y-103087379D01*
X182774015Y-103090496D01*
X182774018Y-103090505D01*
X182908012Y-103426806D01*
X182909257Y-103429930D01*
X182910827Y-103432892D01*
X182910832Y-103432902D01*
X183021849Y-103642301D01*
X183081978Y-103755716D01*
X183288910Y-104060917D01*
X183377586Y-104165314D01*
X183521649Y-104334919D01*
X183527627Y-104341956D01*
X183530058Y-104344259D01*
X183530064Y-104344265D01*
X183735136Y-104538519D01*
X183795330Y-104595538D01*
X183798006Y-104597572D01*
X184086202Y-104816654D01*
X184086208Y-104816658D01*
X184088881Y-104818690D01*
X184404838Y-105008795D01*
X184739497Y-105163625D01*
X185088934Y-105281364D01*
X185449052Y-105360632D01*
X185815630Y-105400500D01*
X185818988Y-105400500D01*
X186181012Y-105400500D01*
X186184370Y-105400500D01*
X186550948Y-105360632D01*
X186911066Y-105281364D01*
X187260503Y-105163625D01*
X187595162Y-105008795D01*
X187911119Y-104818690D01*
X188204670Y-104595538D01*
X188472373Y-104341956D01*
X188711090Y-104060917D01*
X188918022Y-103755716D01*
X189090743Y-103429930D01*
X189227227Y-103087379D01*
X189325875Y-102732081D01*
X189385531Y-102368199D01*
X189405494Y-102000000D01*
X189385531Y-101631801D01*
X189325875Y-101267919D01*
X189227227Y-100912621D01*
X189090743Y-100570070D01*
X188918022Y-100244284D01*
X188711090Y-99939083D01*
X188493825Y-99683299D01*
X188474546Y-99660602D01*
X188474543Y-99660599D01*
X188472373Y-99658044D01*
X188469940Y-99655739D01*
X188469935Y-99655734D01*
X188207110Y-99406773D01*
X188207107Y-99406770D01*
X188204670Y-99404462D01*
X188177820Y-99384051D01*
X187913797Y-99183345D01*
X187913787Y-99183338D01*
X187911119Y-99181310D01*
X187595162Y-98991205D01*
X187576599Y-98982617D01*
X187309542Y-98859063D01*
X187260503Y-98836375D01*
X187170393Y-98806013D01*
X186914249Y-98719708D01*
X186914240Y-98719705D01*
X186911066Y-98718636D01*
X186907798Y-98717916D01*
X186907785Y-98717913D01*
X186554235Y-98640091D01*
X186554225Y-98640089D01*
X186550948Y-98639368D01*
X186184370Y-98599500D01*
X185815630Y-98599500D01*
X185812293Y-98599862D01*
X185812291Y-98599863D01*
X185452398Y-98639004D01*
X185452396Y-98639004D01*
X185449052Y-98639368D01*
X185445777Y-98640088D01*
X185445764Y-98640091D01*
X185092214Y-98717913D01*
X185092196Y-98717917D01*
X185088934Y-98718636D01*
X185085763Y-98719704D01*
X185085750Y-98719708D01*
X184742684Y-98835301D01*
X184742681Y-98835302D01*
X184739497Y-98836375D01*
X184736448Y-98837785D01*
X184736442Y-98837788D01*
X184407893Y-98989791D01*
X184407884Y-98989795D01*
X184404838Y-98991205D01*
X184401963Y-98992934D01*
X184401955Y-98992939D01*
X184091762Y-99179576D01*
X184091754Y-99179580D01*
X184088881Y-99181310D01*
X184086220Y-99183332D01*
X184086202Y-99183345D01*
X183798006Y-99402427D01*
X183797997Y-99402434D01*
X183795330Y-99404462D01*
X183792901Y-99406762D01*
X183792889Y-99406773D01*
X183530064Y-99655734D01*
X183530049Y-99655749D01*
X183527627Y-99658044D01*
X183525464Y-99660589D01*
X183525453Y-99660602D01*
X183291083Y-99936524D01*
X183291077Y-99936531D01*
X183288910Y-99939083D01*
X183287029Y-99941855D01*
X183287023Y-99941865D01*
X183083868Y-100241496D01*
X183081978Y-100244284D01*
X183080403Y-100247254D01*
X183080401Y-100247258D01*
X182910832Y-100567097D01*
X182910823Y-100567114D01*
X182909257Y-100570070D01*
X182908016Y-100573182D01*
X182908012Y-100573193D01*
X182774018Y-100909494D01*
X182774013Y-100909508D01*
X182772773Y-100912621D01*
X182674125Y-101267919D01*
X182673581Y-101271236D01*
X182673579Y-101271246D01*
X182616537Y-101619184D01*
X182614469Y-101631801D01*
X182614287Y-101635151D01*
X182614286Y-101635164D01*
X182603858Y-101827509D01*
X182594506Y-102000000D01*
X182000566Y-102000000D01*
X182000632Y-101997143D01*
X182000655Y-101996643D01*
X182008500Y-101826939D01*
X182018166Y-101630200D01*
X182019200Y-101619217D01*
X182044670Y-101436633D01*
X182069204Y-101271246D01*
X182071947Y-101252748D01*
X182073892Y-101242586D01*
X182116689Y-101060626D01*
X182161406Y-100882107D01*
X182164093Y-100872918D01*
X182223572Y-100695457D01*
X182224270Y-100693442D01*
X182285699Y-100521759D01*
X182288996Y-100513497D01*
X182364713Y-100342015D01*
X182366051Y-100339089D01*
X182443727Y-100174855D01*
X182447452Y-100167612D01*
X182538864Y-100003497D01*
X182540745Y-100000243D01*
X182634036Y-99844598D01*
X182638034Y-99838363D01*
X182744270Y-99683278D01*
X182746899Y-99679590D01*
X182854909Y-99533954D01*
X182859011Y-99528728D01*
X182979239Y-99383944D01*
X182982577Y-99380097D01*
X183104340Y-99245752D01*
X183108437Y-99241450D01*
X183241450Y-99108437D01*
X183245752Y-99104340D01*
X183380097Y-98982577D01*
X183383944Y-98979239D01*
X183528728Y-98859011D01*
X183533954Y-98854909D01*
X183679590Y-98746899D01*
X183683278Y-98744270D01*
X183838363Y-98638034D01*
X183844598Y-98634036D01*
X184000243Y-98540745D01*
X184003497Y-98538864D01*
X184167612Y-98447452D01*
X184174855Y-98443727D01*
X184339098Y-98366046D01*
X184342018Y-98364712D01*
X184406007Y-98336458D01*
X184513497Y-98288996D01*
X184521759Y-98285699D01*
X184693442Y-98224270D01*
X184695457Y-98223572D01*
X184872922Y-98164091D01*
X184882118Y-98161403D01*
X185060626Y-98116689D01*
X185242600Y-98073889D01*
X185252734Y-98071949D01*
X185436625Y-98044671D01*
X185619214Y-98019201D01*
X185630196Y-98018167D01*
X185826958Y-98008500D01*
X185994290Y-98000764D01*
X186005710Y-98000764D01*
X186172951Y-98008495D01*
G37*
%TD.AperFunction*%
%TD*%
M02*
