M48
; DRILL file {KiCad 7.0.2-0} date 2023 May 15, Monday 10:36:07
; FORMAT={-:-/ absolute / inch / decimal}
; #@! TF.CreationDate,2023-05-15T10:36:07-07:00
; #@! TF.GenerationSoftware,Kicad,Pcbnew,7.0.2-0
; #@! TF.FileFunction,Plated,1,2,PTH
FMAT,2
INCH
; #@! TA.AperFunction,Plated,PTH,ComponentDrill
T1C0.0394
%
G90
G05
T1
X5.0472Y-2.4077
X5.1472Y-2.4077
X5.2472Y-2.4077
X5.3472Y-2.4077
X5.4071Y-4.3077
X5.4472Y-2.4077
X5.5071Y-4.3077
X5.5472Y-2.4077
X5.6071Y-4.3077
X5.6472Y-2.4077
X5.7071Y-4.3077
X5.7472Y-2.4077
X5.8071Y-4.3077
X5.8189Y-3.2264
X5.8189Y-3.3264
X5.8189Y-3.4264
X5.8189Y-3.5264
X5.8189Y-3.6264
X5.8189Y-3.7264
X5.8472Y-2.4077
X5.9071Y-4.3077
X5.9472Y-2.4077
X6.0071Y-4.3077
X6.1071Y-2.4077
X6.1071Y-4.3077
X6.2071Y-2.4077
X6.3071Y-2.4077
X6.3071Y-4.3077
X6.4071Y-2.4077
X6.4071Y-4.3077
X6.5071Y-2.4077
X6.5071Y-4.3077
X6.6071Y-2.4077
X6.6071Y-4.3077
X6.7071Y-2.4077
X6.7071Y-4.3077
X6.8071Y-2.4077
X6.8071Y-4.3077
T0
M30
