%TF.GenerationSoftware,KiCad,Pcbnew,7.0.2-0*%
%TF.CreationDate,2023-05-15T10:36:04-07:00*%
%TF.ProjectId,RGProgrammer_V2,52475072-6f67-4726-916d-6d65725f5632,rev?*%
%TF.SameCoordinates,Original*%
%TF.FileFunction,Copper,L2,Bot*%
%TF.FilePolarity,Positive*%
%FSLAX46Y46*%
G04 Gerber Fmt 4.6, Leading zero omitted, Abs format (unit mm)*
G04 Created by KiCad (PCBNEW 7.0.2-0) date 2023-05-15 10:36:04*
%MOMM*%
%LPD*%
G01*
G04 APERTURE LIST*
%TA.AperFunction,ComponentPad*%
%ADD10R,1.700000X1.700000*%
%TD*%
%TA.AperFunction,ComponentPad*%
%ADD11O,1.700000X1.700000*%
%TD*%
%TA.AperFunction,ComponentPad*%
%ADD12R,1.600000X1.600000*%
%TD*%
%TA.AperFunction,ComponentPad*%
%ADD13O,1.600000X1.600000*%
%TD*%
%TA.AperFunction,Conductor*%
%ADD14C,0.250000*%
%TD*%
G04 APERTURE END LIST*
D10*
%TO.P,J1,1,Pin_1*%
%TO.N,GND*%
X147800000Y-81950000D03*
D11*
%TO.P,J1,2,Pin_2*%
%TO.N,D10*%
X147800000Y-84490000D03*
%TO.P,J1,3,Pin_3*%
%TO.N,D13*%
X147800000Y-87030000D03*
%TO.P,J1,4,Pin_4*%
%TO.N,MISO*%
X147800000Y-89570000D03*
%TO.P,J1,5,Pin_5*%
%TO.N,MOSI*%
X147800000Y-92110000D03*
%TO.P,J1,6,Pin_6*%
%TO.N,+5V*%
X147800000Y-94650000D03*
%TD*%
D12*
%TO.P,A1,1,NC*%
%TO.N,unconnected-(A1-NC-Pad1)*%
X137340000Y-109415000D03*
D13*
%TO.P,A1,2,IOREF*%
%TO.N,unconnected-(A1-IOREF-Pad2)*%
X139880000Y-109415000D03*
%TO.P,A1,3,~{RESET}*%
%TO.N,Net-(A1-~{RESET})*%
X142420000Y-109415000D03*
%TO.P,A1,4,3V3*%
%TO.N,unconnected-(A1-3V3-Pad4)*%
X144960000Y-109415000D03*
%TO.P,A1,5,+5V*%
%TO.N,+5V*%
X147500000Y-109415000D03*
%TO.P,A1,6,GND*%
%TO.N,GND*%
X150040000Y-109415000D03*
%TO.P,A1,7,GND*%
X152580000Y-109415000D03*
%TO.P,A1,8,VIN*%
%TO.N,unconnected-(A1-VIN-Pad8)*%
X155120000Y-109415000D03*
%TO.P,A1,9,A0*%
%TO.N,unconnected-(A1-A0-Pad9)*%
X160200000Y-109415000D03*
%TO.P,A1,10,A1*%
%TO.N,unconnected-(A1-A1-Pad10)*%
X162740000Y-109415000D03*
%TO.P,A1,11,A2*%
%TO.N,unconnected-(A1-A2-Pad11)*%
X165280000Y-109415000D03*
%TO.P,A1,12,A3*%
%TO.N,unconnected-(A1-A3-Pad12)*%
X167820000Y-109415000D03*
%TO.P,A1,13,SDA/A4*%
%TO.N,unconnected-(A1-SDA{slash}A4-Pad13)*%
X170360000Y-109415000D03*
%TO.P,A1,14,SCL/A5*%
%TO.N,unconnected-(A1-SCL{slash}A5-Pad14)*%
X172900000Y-109415000D03*
%TO.P,A1,15,D0/RX*%
%TO.N,unconnected-(A1-D0{slash}RX-Pad15)*%
X172900000Y-61155000D03*
%TO.P,A1,16,D1/TX*%
%TO.N,unconnected-(A1-D1{slash}TX-Pad16)*%
X170360000Y-61155000D03*
%TO.P,A1,17,D2*%
%TO.N,unconnected-(A1-D2-Pad17)*%
X167820000Y-61155000D03*
%TO.P,A1,18,D3*%
%TO.N,unconnected-(A1-D3-Pad18)*%
X165280000Y-61155000D03*
%TO.P,A1,19,D4*%
%TO.N,unconnected-(A1-D4-Pad19)*%
X162740000Y-61155000D03*
%TO.P,A1,20,D5*%
%TO.N,unconnected-(A1-D5-Pad20)*%
X160200000Y-61155000D03*
%TO.P,A1,21,D6*%
%TO.N,unconnected-(A1-D6-Pad21)*%
X157660000Y-61155000D03*
%TO.P,A1,22,D7*%
%TO.N,unconnected-(A1-D7-Pad22)*%
X155120000Y-61155000D03*
%TO.P,A1,23,D8*%
%TO.N,unconnected-(A1-D8-Pad23)*%
X151060000Y-61155000D03*
%TO.P,A1,24,D9*%
%TO.N,unconnected-(A1-D9-Pad24)*%
X148520000Y-61155000D03*
%TO.P,A1,25,D10*%
%TO.N,D10*%
X145980000Y-61155000D03*
%TO.P,A1,26,D11*%
%TO.N,MOSI*%
X143440000Y-61155000D03*
%TO.P,A1,27,D12*%
%TO.N,MISO*%
X140900000Y-61155000D03*
%TO.P,A1,28,D13*%
%TO.N,D13*%
X138360000Y-61155000D03*
%TO.P,A1,29,GND*%
%TO.N,GND*%
X135820000Y-61155000D03*
%TO.P,A1,30,AREF*%
%TO.N,unconnected-(A1-AREF-Pad30)*%
X133280000Y-61155000D03*
%TO.P,A1,31,SDA/A4*%
%TO.N,unconnected-(A1-SDA{slash}A4-Pad31)*%
X130740000Y-61155000D03*
%TO.P,A1,32,SCL/A5*%
%TO.N,unconnected-(A1-SCL{slash}A5-Pad32)*%
X128200000Y-61155000D03*
%TD*%
D14*
%TO.N,MISO*%
X149525000Y-87845000D02*
X149525000Y-80500000D01*
X140850000Y-71825000D02*
X140850000Y-61205000D01*
X149525000Y-80500000D02*
X140850000Y-71825000D01*
X140850000Y-61205000D02*
X140900000Y-61155000D01*
X147800000Y-89570000D02*
X149525000Y-87845000D01*
%TO.N,D13*%
X147800000Y-87030000D02*
X138360000Y-77590000D01*
X138360000Y-77590000D02*
X138360000Y-61155000D01*
%TD*%
%TA.AperFunction,Conductor*%
%TO.N,GND*%
G36*
X173004042Y-59000764D02*
G01*
X173083743Y-59005988D01*
X173261590Y-59018709D01*
X173276904Y-59020772D01*
X173389441Y-59043157D01*
X173530277Y-59073794D01*
X173543690Y-59077518D01*
X173657725Y-59116228D01*
X173661074Y-59117420D01*
X173788808Y-59165062D01*
X173800300Y-59170024D01*
X173910687Y-59224461D01*
X173915187Y-59226798D01*
X174032478Y-59290844D01*
X174041942Y-59296574D01*
X174145269Y-59365615D01*
X174150688Y-59369450D01*
X174256727Y-59448830D01*
X174264145Y-59454844D01*
X174357976Y-59537131D01*
X174363898Y-59542678D01*
X174457320Y-59636100D01*
X174462867Y-59642022D01*
X174545150Y-59735848D01*
X174551173Y-59743278D01*
X174588691Y-59793396D01*
X174630548Y-59849310D01*
X174634383Y-59854729D01*
X174703424Y-59958056D01*
X174709154Y-59967520D01*
X174773183Y-60084779D01*
X174775564Y-60089363D01*
X174829969Y-60199687D01*
X174834938Y-60211196D01*
X174882556Y-60338863D01*
X174883793Y-60342338D01*
X174922470Y-60456276D01*
X174926217Y-60469777D01*
X174956847Y-60610580D01*
X174979230Y-60723107D01*
X174981290Y-60738414D01*
X174994017Y-60916350D01*
X174999235Y-60995956D01*
X174999500Y-61004051D01*
X174999500Y-109995947D01*
X174999234Y-110004058D01*
X174994017Y-110083648D01*
X174981291Y-110261574D01*
X174979225Y-110276916D01*
X174956851Y-110389402D01*
X174926212Y-110530244D01*
X174922473Y-110543714D01*
X174883793Y-110657660D01*
X174882556Y-110661135D01*
X174834938Y-110788802D01*
X174829969Y-110800311D01*
X174775564Y-110910635D01*
X174773183Y-110915219D01*
X174709154Y-111032478D01*
X174703424Y-111041942D01*
X174634383Y-111145269D01*
X174630548Y-111150688D01*
X174551181Y-111256711D01*
X174545142Y-111264160D01*
X174462867Y-111357976D01*
X174457320Y-111363898D01*
X174363898Y-111457320D01*
X174357976Y-111462867D01*
X174264160Y-111545142D01*
X174256711Y-111551181D01*
X174150688Y-111630548D01*
X174145269Y-111634383D01*
X174041942Y-111703424D01*
X174032478Y-111709154D01*
X173915219Y-111773183D01*
X173910635Y-111775564D01*
X173800311Y-111829969D01*
X173788802Y-111834938D01*
X173661135Y-111882556D01*
X173657660Y-111883793D01*
X173543722Y-111922470D01*
X173530221Y-111926217D01*
X173389419Y-111956847D01*
X173342048Y-111966270D01*
X173276896Y-111979229D01*
X173261584Y-111981290D01*
X173083649Y-111994017D01*
X173060221Y-111995552D01*
X173004030Y-111999235D01*
X172995948Y-111999500D01*
X128004053Y-111999500D01*
X127995943Y-111999234D01*
X127916352Y-111994017D01*
X127738424Y-111981291D01*
X127723082Y-111979225D01*
X127665195Y-111967710D01*
X127610600Y-111956851D01*
X127469746Y-111926210D01*
X127456284Y-111922473D01*
X127456275Y-111922470D01*
X127385362Y-111898398D01*
X127342338Y-111883793D01*
X127338863Y-111882556D01*
X127211196Y-111834938D01*
X127199687Y-111829969D01*
X127134947Y-111798043D01*
X127089348Y-111775556D01*
X127084779Y-111773183D01*
X126967520Y-111709154D01*
X126958056Y-111703424D01*
X126854729Y-111634383D01*
X126849310Y-111630548D01*
X126793396Y-111588691D01*
X126743278Y-111551173D01*
X126735848Y-111545150D01*
X126642022Y-111462867D01*
X126636100Y-111457320D01*
X126542678Y-111363898D01*
X126537131Y-111357976D01*
X126505450Y-111321851D01*
X126454844Y-111264145D01*
X126448830Y-111256727D01*
X126369450Y-111150688D01*
X126365615Y-111145269D01*
X126296574Y-111041942D01*
X126290844Y-111032478D01*
X126226798Y-110915187D01*
X126224461Y-110910687D01*
X126170024Y-110800300D01*
X126165060Y-110788802D01*
X126117420Y-110661074D01*
X126116228Y-110657725D01*
X126077522Y-110543703D01*
X126073786Y-110530240D01*
X126043157Y-110389441D01*
X126020767Y-110276879D01*
X126018709Y-110261593D01*
X126016789Y-110234748D01*
X136339500Y-110234748D01*
X136351132Y-110293230D01*
X136395447Y-110359552D01*
X136461769Y-110403867D01*
X136520251Y-110415500D01*
X136520252Y-110415500D01*
X138159749Y-110415500D01*
X138188989Y-110409683D01*
X138218231Y-110403867D01*
X138284552Y-110359552D01*
X138328867Y-110293231D01*
X138340500Y-110234748D01*
X138340500Y-109415000D01*
X138874659Y-109415000D01*
X138893976Y-109611133D01*
X138951185Y-109799726D01*
X138951186Y-109799727D01*
X139044090Y-109973538D01*
X139169117Y-110125883D01*
X139321462Y-110250910D01*
X139495273Y-110343814D01*
X139683868Y-110401024D01*
X139880000Y-110420341D01*
X140076132Y-110401024D01*
X140264727Y-110343814D01*
X140438538Y-110250910D01*
X140590883Y-110125883D01*
X140715910Y-109973538D01*
X140808814Y-109799727D01*
X140866024Y-109611132D01*
X140885341Y-109415000D01*
X141414659Y-109415000D01*
X141433976Y-109611133D01*
X141491185Y-109799726D01*
X141491186Y-109799727D01*
X141584090Y-109973538D01*
X141709117Y-110125883D01*
X141861462Y-110250910D01*
X142035273Y-110343814D01*
X142223868Y-110401024D01*
X142420000Y-110420341D01*
X142616132Y-110401024D01*
X142804727Y-110343814D01*
X142978538Y-110250910D01*
X143130883Y-110125883D01*
X143255910Y-109973538D01*
X143348814Y-109799727D01*
X143406024Y-109611132D01*
X143425341Y-109415000D01*
X143954659Y-109415000D01*
X143973976Y-109611133D01*
X144031185Y-109799726D01*
X144031186Y-109799727D01*
X144124090Y-109973538D01*
X144249117Y-110125883D01*
X144401462Y-110250910D01*
X144575273Y-110343814D01*
X144763868Y-110401024D01*
X144960000Y-110420341D01*
X145156132Y-110401024D01*
X145344727Y-110343814D01*
X145518538Y-110250910D01*
X145670883Y-110125883D01*
X145795910Y-109973538D01*
X145888814Y-109799727D01*
X145946024Y-109611132D01*
X145965341Y-109415000D01*
X146494659Y-109415000D01*
X146513976Y-109611133D01*
X146571185Y-109799726D01*
X146571186Y-109799727D01*
X146664090Y-109973538D01*
X146789117Y-110125883D01*
X146941462Y-110250910D01*
X147115273Y-110343814D01*
X147303868Y-110401024D01*
X147500000Y-110420341D01*
X147696132Y-110401024D01*
X147884727Y-110343814D01*
X148058538Y-110250910D01*
X148210883Y-110125883D01*
X148335910Y-109973538D01*
X148428814Y-109799727D01*
X148486024Y-109611132D01*
X148505341Y-109415000D01*
X154114659Y-109415000D01*
X154133976Y-109611133D01*
X154191185Y-109799726D01*
X154191186Y-109799727D01*
X154284090Y-109973538D01*
X154409117Y-110125883D01*
X154561462Y-110250910D01*
X154735273Y-110343814D01*
X154923868Y-110401024D01*
X155120000Y-110420341D01*
X155316132Y-110401024D01*
X155504727Y-110343814D01*
X155678538Y-110250910D01*
X155830883Y-110125883D01*
X155955910Y-109973538D01*
X156048814Y-109799727D01*
X156106024Y-109611132D01*
X156125341Y-109415000D01*
X159194659Y-109415000D01*
X159213976Y-109611133D01*
X159271185Y-109799726D01*
X159271186Y-109799727D01*
X159364090Y-109973538D01*
X159489117Y-110125883D01*
X159641462Y-110250910D01*
X159815273Y-110343814D01*
X160003868Y-110401024D01*
X160200000Y-110420341D01*
X160396132Y-110401024D01*
X160584727Y-110343814D01*
X160758538Y-110250910D01*
X160910883Y-110125883D01*
X161035910Y-109973538D01*
X161128814Y-109799727D01*
X161186024Y-109611132D01*
X161205341Y-109415000D01*
X161734659Y-109415000D01*
X161753976Y-109611133D01*
X161811185Y-109799726D01*
X161811186Y-109799727D01*
X161904090Y-109973538D01*
X162029117Y-110125883D01*
X162181462Y-110250910D01*
X162355273Y-110343814D01*
X162543868Y-110401024D01*
X162740000Y-110420341D01*
X162936132Y-110401024D01*
X163124727Y-110343814D01*
X163298538Y-110250910D01*
X163450883Y-110125883D01*
X163575910Y-109973538D01*
X163668814Y-109799727D01*
X163726024Y-109611132D01*
X163745341Y-109415000D01*
X164274659Y-109415000D01*
X164293976Y-109611133D01*
X164351185Y-109799726D01*
X164351186Y-109799727D01*
X164444090Y-109973538D01*
X164569117Y-110125883D01*
X164721462Y-110250910D01*
X164895273Y-110343814D01*
X165083868Y-110401024D01*
X165280000Y-110420341D01*
X165476132Y-110401024D01*
X165664727Y-110343814D01*
X165838538Y-110250910D01*
X165990883Y-110125883D01*
X166115910Y-109973538D01*
X166208814Y-109799727D01*
X166266024Y-109611132D01*
X166285341Y-109415000D01*
X166814659Y-109415000D01*
X166833976Y-109611133D01*
X166891185Y-109799726D01*
X166891186Y-109799727D01*
X166984090Y-109973538D01*
X167109117Y-110125883D01*
X167261462Y-110250910D01*
X167435273Y-110343814D01*
X167623868Y-110401024D01*
X167820000Y-110420341D01*
X168016132Y-110401024D01*
X168204727Y-110343814D01*
X168378538Y-110250910D01*
X168530883Y-110125883D01*
X168655910Y-109973538D01*
X168748814Y-109799727D01*
X168806024Y-109611132D01*
X168825341Y-109415000D01*
X169354659Y-109415000D01*
X169373976Y-109611133D01*
X169431185Y-109799726D01*
X169431186Y-109799727D01*
X169524090Y-109973538D01*
X169649117Y-110125883D01*
X169801462Y-110250910D01*
X169975273Y-110343814D01*
X170163868Y-110401024D01*
X170360000Y-110420341D01*
X170556132Y-110401024D01*
X170744727Y-110343814D01*
X170918538Y-110250910D01*
X171070883Y-110125883D01*
X171195910Y-109973538D01*
X171288814Y-109799727D01*
X171346024Y-109611132D01*
X171365341Y-109415000D01*
X171894659Y-109415000D01*
X171913976Y-109611133D01*
X171971185Y-109799726D01*
X171971186Y-109799727D01*
X172064090Y-109973538D01*
X172189117Y-110125883D01*
X172341462Y-110250910D01*
X172515273Y-110343814D01*
X172703868Y-110401024D01*
X172900000Y-110420341D01*
X173096132Y-110401024D01*
X173284727Y-110343814D01*
X173458538Y-110250910D01*
X173610883Y-110125883D01*
X173735910Y-109973538D01*
X173828814Y-109799727D01*
X173886024Y-109611132D01*
X173905341Y-109415000D01*
X173886024Y-109218868D01*
X173828814Y-109030273D01*
X173735910Y-108856462D01*
X173610883Y-108704117D01*
X173458538Y-108579090D01*
X173379361Y-108536769D01*
X173284726Y-108486185D01*
X173096133Y-108428976D01*
X172900000Y-108409659D01*
X172703866Y-108428976D01*
X172515273Y-108486185D01*
X172341463Y-108579089D01*
X172189117Y-108704117D01*
X172064089Y-108856463D01*
X171971185Y-109030273D01*
X171913976Y-109218866D01*
X171894659Y-109415000D01*
X171365341Y-109415000D01*
X171346024Y-109218868D01*
X171288814Y-109030273D01*
X171195910Y-108856462D01*
X171070883Y-108704117D01*
X170918538Y-108579090D01*
X170839361Y-108536769D01*
X170744726Y-108486185D01*
X170556133Y-108428976D01*
X170360000Y-108409659D01*
X170163866Y-108428976D01*
X169975273Y-108486185D01*
X169801463Y-108579089D01*
X169649117Y-108704117D01*
X169524089Y-108856463D01*
X169431185Y-109030273D01*
X169373976Y-109218866D01*
X169354659Y-109415000D01*
X168825341Y-109415000D01*
X168806024Y-109218868D01*
X168748814Y-109030273D01*
X168655910Y-108856462D01*
X168530883Y-108704117D01*
X168378538Y-108579090D01*
X168299361Y-108536769D01*
X168204726Y-108486185D01*
X168016133Y-108428976D01*
X167820000Y-108409659D01*
X167623866Y-108428976D01*
X167435273Y-108486185D01*
X167261463Y-108579089D01*
X167109117Y-108704117D01*
X166984089Y-108856463D01*
X166891185Y-109030273D01*
X166833976Y-109218866D01*
X166814659Y-109415000D01*
X166285341Y-109415000D01*
X166266024Y-109218868D01*
X166208814Y-109030273D01*
X166115910Y-108856462D01*
X165990883Y-108704117D01*
X165838538Y-108579090D01*
X165759361Y-108536769D01*
X165664726Y-108486185D01*
X165476133Y-108428976D01*
X165329152Y-108414500D01*
X165280000Y-108409659D01*
X165279999Y-108409659D01*
X165083866Y-108428976D01*
X164895273Y-108486185D01*
X164721463Y-108579089D01*
X164569117Y-108704117D01*
X164444089Y-108856463D01*
X164351185Y-109030273D01*
X164293976Y-109218866D01*
X164274659Y-109415000D01*
X163745341Y-109415000D01*
X163726024Y-109218868D01*
X163668814Y-109030273D01*
X163575910Y-108856462D01*
X163450883Y-108704117D01*
X163298538Y-108579090D01*
X163219361Y-108536769D01*
X163124726Y-108486185D01*
X162936133Y-108428976D01*
X162740000Y-108409659D01*
X162543866Y-108428976D01*
X162355273Y-108486185D01*
X162181463Y-108579089D01*
X162029117Y-108704117D01*
X161904089Y-108856463D01*
X161811185Y-109030273D01*
X161753976Y-109218866D01*
X161734659Y-109415000D01*
X161205341Y-109415000D01*
X161186024Y-109218868D01*
X161128814Y-109030273D01*
X161035910Y-108856462D01*
X160910883Y-108704117D01*
X160758538Y-108579090D01*
X160679361Y-108536769D01*
X160584726Y-108486185D01*
X160396133Y-108428976D01*
X160200000Y-108409659D01*
X160003866Y-108428976D01*
X159815273Y-108486185D01*
X159641463Y-108579089D01*
X159489117Y-108704117D01*
X159364089Y-108856463D01*
X159271185Y-109030273D01*
X159213976Y-109218866D01*
X159194659Y-109415000D01*
X156125341Y-109415000D01*
X156106024Y-109218868D01*
X156048814Y-109030273D01*
X155955910Y-108856462D01*
X155830883Y-108704117D01*
X155678538Y-108579090D01*
X155599361Y-108536769D01*
X155504726Y-108486185D01*
X155316133Y-108428976D01*
X155169152Y-108414500D01*
X155120000Y-108409659D01*
X155119999Y-108409659D01*
X154923866Y-108428976D01*
X154735273Y-108486185D01*
X154561463Y-108579089D01*
X154409117Y-108704117D01*
X154284089Y-108856463D01*
X154191185Y-109030273D01*
X154133976Y-109218866D01*
X154114659Y-109415000D01*
X148505341Y-109415000D01*
X148486024Y-109218868D01*
X148428814Y-109030273D01*
X148335910Y-108856462D01*
X148210883Y-108704117D01*
X148058538Y-108579090D01*
X147979361Y-108536769D01*
X147884726Y-108486185D01*
X147696133Y-108428976D01*
X147500000Y-108409659D01*
X147303866Y-108428976D01*
X147115273Y-108486185D01*
X146941463Y-108579089D01*
X146789117Y-108704117D01*
X146664089Y-108856463D01*
X146571185Y-109030273D01*
X146513976Y-109218866D01*
X146494659Y-109415000D01*
X145965341Y-109415000D01*
X145946024Y-109218868D01*
X145888814Y-109030273D01*
X145795910Y-108856462D01*
X145670883Y-108704117D01*
X145518538Y-108579090D01*
X145439361Y-108536769D01*
X145344726Y-108486185D01*
X145156133Y-108428976D01*
X145009152Y-108414500D01*
X144960000Y-108409659D01*
X144959999Y-108409659D01*
X144763866Y-108428976D01*
X144575273Y-108486185D01*
X144401463Y-108579089D01*
X144249117Y-108704117D01*
X144124089Y-108856463D01*
X144031185Y-109030273D01*
X143973976Y-109218866D01*
X143954659Y-109415000D01*
X143425341Y-109415000D01*
X143406024Y-109218868D01*
X143348814Y-109030273D01*
X143255910Y-108856462D01*
X143130883Y-108704117D01*
X142978538Y-108579090D01*
X142899361Y-108536769D01*
X142804726Y-108486185D01*
X142616133Y-108428976D01*
X142420000Y-108409659D01*
X142223866Y-108428976D01*
X142035273Y-108486185D01*
X141861463Y-108579089D01*
X141709117Y-108704117D01*
X141584089Y-108856463D01*
X141491185Y-109030273D01*
X141433976Y-109218866D01*
X141414659Y-109415000D01*
X140885341Y-109415000D01*
X140866024Y-109218868D01*
X140808814Y-109030273D01*
X140715910Y-108856462D01*
X140590883Y-108704117D01*
X140438538Y-108579090D01*
X140359361Y-108536769D01*
X140264726Y-108486185D01*
X140076133Y-108428976D01*
X139880000Y-108409659D01*
X139683866Y-108428976D01*
X139495273Y-108486185D01*
X139321463Y-108579089D01*
X139169117Y-108704117D01*
X139044089Y-108856463D01*
X138951185Y-109030273D01*
X138893976Y-109218866D01*
X138874659Y-109415000D01*
X138340500Y-109415000D01*
X138340500Y-108595252D01*
X138328867Y-108536769D01*
X138295068Y-108486186D01*
X138284552Y-108470447D01*
X138218230Y-108426132D01*
X138159749Y-108414500D01*
X138159748Y-108414500D01*
X136520252Y-108414500D01*
X136520251Y-108414500D01*
X136461769Y-108426132D01*
X136395447Y-108470447D01*
X136351132Y-108536769D01*
X136339500Y-108595251D01*
X136339500Y-110234748D01*
X126016789Y-110234748D01*
X126005988Y-110083743D01*
X126000765Y-110004041D01*
X126000500Y-109995936D01*
X126000500Y-94650000D01*
X146744417Y-94650000D01*
X146764699Y-94855932D01*
X146764700Y-94855934D01*
X146824768Y-95053954D01*
X146922315Y-95236450D01*
X146973608Y-95298952D01*
X147053589Y-95396410D01*
X147133569Y-95462047D01*
X147213550Y-95527685D01*
X147396046Y-95625232D01*
X147594066Y-95685300D01*
X147800000Y-95705583D01*
X148005934Y-95685300D01*
X148203954Y-95625232D01*
X148386450Y-95527685D01*
X148546410Y-95396410D01*
X148677685Y-95236450D01*
X148775232Y-95053954D01*
X148835300Y-94855934D01*
X148855583Y-94650000D01*
X148835300Y-94444066D01*
X148775232Y-94246046D01*
X148677685Y-94063550D01*
X148612047Y-93983569D01*
X148546410Y-93903589D01*
X148448952Y-93823609D01*
X148386450Y-93772315D01*
X148203954Y-93674768D01*
X148104944Y-93644734D01*
X148005932Y-93614699D01*
X147822497Y-93596632D01*
X147800000Y-93594417D01*
X147799999Y-93594417D01*
X147594067Y-93614699D01*
X147396043Y-93674769D01*
X147213551Y-93772314D01*
X147053589Y-93903589D01*
X146922314Y-94063551D01*
X146824769Y-94246043D01*
X146764699Y-94444067D01*
X146744417Y-94650000D01*
X126000500Y-94650000D01*
X126000500Y-92110000D01*
X146744417Y-92110000D01*
X146764699Y-92315932D01*
X146764700Y-92315934D01*
X146824768Y-92513954D01*
X146922315Y-92696450D01*
X146973608Y-92758952D01*
X147053589Y-92856410D01*
X147133569Y-92922047D01*
X147213550Y-92987685D01*
X147396046Y-93085232D01*
X147594066Y-93145300D01*
X147800000Y-93165583D01*
X148005934Y-93145300D01*
X148203954Y-93085232D01*
X148386450Y-92987685D01*
X148546410Y-92856410D01*
X148677685Y-92696450D01*
X148775232Y-92513954D01*
X148835300Y-92315934D01*
X148855583Y-92110000D01*
X148835300Y-91904066D01*
X148775232Y-91706046D01*
X148677685Y-91523550D01*
X148612047Y-91443570D01*
X148546410Y-91363589D01*
X148448952Y-91283608D01*
X148386450Y-91232315D01*
X148203954Y-91134768D01*
X148104944Y-91104733D01*
X148005932Y-91074699D01*
X147822497Y-91056632D01*
X147800000Y-91054417D01*
X147799999Y-91054417D01*
X147594067Y-91074699D01*
X147396043Y-91134769D01*
X147213551Y-91232314D01*
X147053589Y-91363589D01*
X146922314Y-91523551D01*
X146824769Y-91706043D01*
X146764699Y-91904067D01*
X146744417Y-92110000D01*
X126000500Y-92110000D01*
X126000500Y-61154999D01*
X127194659Y-61154999D01*
X127213976Y-61351133D01*
X127271185Y-61539726D01*
X127271186Y-61539727D01*
X127364090Y-61713538D01*
X127489117Y-61865883D01*
X127641462Y-61990910D01*
X127815273Y-62083814D01*
X128003868Y-62141024D01*
X128200000Y-62160341D01*
X128396132Y-62141024D01*
X128584727Y-62083814D01*
X128758538Y-61990910D01*
X128910883Y-61865883D01*
X129035910Y-61713538D01*
X129128814Y-61539727D01*
X129186024Y-61351132D01*
X129205341Y-61155000D01*
X129205341Y-61154999D01*
X129734659Y-61154999D01*
X129753976Y-61351133D01*
X129811185Y-61539726D01*
X129811186Y-61539727D01*
X129904090Y-61713538D01*
X130029117Y-61865883D01*
X130181462Y-61990910D01*
X130355273Y-62083814D01*
X130543868Y-62141024D01*
X130740000Y-62160341D01*
X130936132Y-62141024D01*
X131124727Y-62083814D01*
X131298538Y-61990910D01*
X131450883Y-61865883D01*
X131575910Y-61713538D01*
X131668814Y-61539727D01*
X131726024Y-61351132D01*
X131745341Y-61155000D01*
X131745341Y-61154999D01*
X132274659Y-61154999D01*
X132293976Y-61351133D01*
X132351185Y-61539726D01*
X132351186Y-61539727D01*
X132444090Y-61713538D01*
X132569117Y-61865883D01*
X132721462Y-61990910D01*
X132895273Y-62083814D01*
X133083868Y-62141024D01*
X133280000Y-62160341D01*
X133476132Y-62141024D01*
X133664727Y-62083814D01*
X133838538Y-61990910D01*
X133990883Y-61865883D01*
X134115910Y-61713538D01*
X134208814Y-61539727D01*
X134266024Y-61351132D01*
X134285341Y-61155000D01*
X134285341Y-61154999D01*
X137354659Y-61154999D01*
X137373976Y-61351133D01*
X137431185Y-61539726D01*
X137431186Y-61539727D01*
X137524090Y-61713538D01*
X137649117Y-61865883D01*
X137801462Y-61990910D01*
X137939623Y-62064759D01*
X137968953Y-62080436D01*
X138018797Y-62129398D01*
X138034500Y-62189794D01*
X138034500Y-77570372D01*
X138034028Y-77581180D01*
X138030735Y-77618807D01*
X138040512Y-77655296D01*
X138042853Y-77665852D01*
X138049599Y-77704107D01*
X138059829Y-77728803D01*
X138060446Y-77729684D01*
X138082112Y-77760627D01*
X138087915Y-77769736D01*
X138106806Y-77802455D01*
X138135742Y-77826735D01*
X138143718Y-77834044D01*
X146798386Y-86488712D01*
X146831871Y-86550035D01*
X146827293Y-86614049D01*
X146828313Y-86614359D01*
X146826949Y-86618854D01*
X146826887Y-86619727D01*
X146826269Y-86621095D01*
X146764699Y-86824067D01*
X146744417Y-87029999D01*
X146764699Y-87235932D01*
X146764700Y-87235934D01*
X146824768Y-87433954D01*
X146922315Y-87616450D01*
X146957079Y-87658810D01*
X147053589Y-87776410D01*
X147113260Y-87825380D01*
X147213550Y-87907685D01*
X147396046Y-88005232D01*
X147594066Y-88065300D01*
X147800000Y-88085583D01*
X148005934Y-88065300D01*
X148203954Y-88005232D01*
X148386450Y-87907685D01*
X148546410Y-87776410D01*
X148677685Y-87616450D01*
X148775232Y-87433954D01*
X148835300Y-87235934D01*
X148855583Y-87030000D01*
X148835300Y-86824066D01*
X148775232Y-86626046D01*
X148677685Y-86443550D01*
X148612047Y-86363569D01*
X148546410Y-86283589D01*
X148448952Y-86203608D01*
X148386450Y-86152315D01*
X148203954Y-86054768D01*
X148104944Y-86024733D01*
X148005932Y-85994699D01*
X147822497Y-85976632D01*
X147800000Y-85974417D01*
X147799999Y-85974417D01*
X147594067Y-85994699D01*
X147384359Y-86058313D01*
X147383222Y-86054567D01*
X147336418Y-86064303D01*
X147271179Y-86039289D01*
X147258712Y-86028386D01*
X145720326Y-84490000D01*
X146744417Y-84490000D01*
X146764699Y-84695932D01*
X146764700Y-84695934D01*
X146824768Y-84893954D01*
X146922315Y-85076450D01*
X146973608Y-85138952D01*
X147053589Y-85236410D01*
X147133569Y-85302047D01*
X147213550Y-85367685D01*
X147396046Y-85465232D01*
X147594066Y-85525300D01*
X147800000Y-85545583D01*
X148005934Y-85525300D01*
X148203954Y-85465232D01*
X148386450Y-85367685D01*
X148546410Y-85236410D01*
X148677685Y-85076450D01*
X148775232Y-84893954D01*
X148835300Y-84695934D01*
X148855583Y-84490000D01*
X148835300Y-84284066D01*
X148775232Y-84086046D01*
X148677685Y-83903550D01*
X148612047Y-83823569D01*
X148546410Y-83743589D01*
X148448952Y-83663609D01*
X148386450Y-83612315D01*
X148203954Y-83514768D01*
X148104944Y-83484733D01*
X148005932Y-83454699D01*
X147800000Y-83434417D01*
X147594067Y-83454699D01*
X147396043Y-83514769D01*
X147213551Y-83612314D01*
X147053589Y-83743589D01*
X146922314Y-83903551D01*
X146824769Y-84086043D01*
X146764699Y-84284067D01*
X146744417Y-84490000D01*
X145720326Y-84490000D01*
X138721819Y-77491493D01*
X138688334Y-77430170D01*
X138685500Y-77403812D01*
X138685500Y-62189794D01*
X138705185Y-62122755D01*
X138751047Y-62080436D01*
X138767118Y-62071845D01*
X138918538Y-61990910D01*
X139070883Y-61865883D01*
X139195910Y-61713538D01*
X139288814Y-61539727D01*
X139346024Y-61351132D01*
X139365341Y-61155000D01*
X139365341Y-61154999D01*
X139894659Y-61154999D01*
X139913976Y-61351133D01*
X139971185Y-61539726D01*
X139971186Y-61539727D01*
X140064090Y-61713538D01*
X140189117Y-61865883D01*
X140341462Y-61990910D01*
X140458953Y-62053710D01*
X140508797Y-62102672D01*
X140524500Y-62163068D01*
X140524500Y-71805372D01*
X140524028Y-71816180D01*
X140520735Y-71853807D01*
X140530512Y-71890296D01*
X140532853Y-71900852D01*
X140539599Y-71939107D01*
X140549829Y-71963803D01*
X140550446Y-71964684D01*
X140572112Y-71995627D01*
X140577915Y-72004736D01*
X140596806Y-72037455D01*
X140625742Y-72061735D01*
X140633718Y-72069044D01*
X149163181Y-80598507D01*
X149196666Y-80659830D01*
X149199500Y-80686188D01*
X149199500Y-87658810D01*
X149179815Y-87725849D01*
X149163181Y-87746491D01*
X148341285Y-88568386D01*
X148279962Y-88601871D01*
X148215950Y-88597293D01*
X148215641Y-88598314D01*
X148211142Y-88596949D01*
X148210270Y-88596887D01*
X148208903Y-88596270D01*
X148203957Y-88594769D01*
X148203954Y-88594768D01*
X148075451Y-88555787D01*
X148005932Y-88534699D01*
X147822497Y-88516632D01*
X147800000Y-88514417D01*
X147799999Y-88514417D01*
X147594067Y-88534699D01*
X147396043Y-88594769D01*
X147213551Y-88692314D01*
X147053589Y-88823589D01*
X146922314Y-88983551D01*
X146824769Y-89166043D01*
X146764699Y-89364067D01*
X146744417Y-89570000D01*
X146764699Y-89775932D01*
X146764700Y-89775934D01*
X146824768Y-89973954D01*
X146922315Y-90156450D01*
X146973608Y-90218952D01*
X147053589Y-90316410D01*
X147133569Y-90382047D01*
X147213550Y-90447685D01*
X147396046Y-90545232D01*
X147594066Y-90605300D01*
X147800000Y-90625583D01*
X148005934Y-90605300D01*
X148203954Y-90545232D01*
X148386450Y-90447685D01*
X148546410Y-90316410D01*
X148677685Y-90156450D01*
X148775232Y-89973954D01*
X148835300Y-89775934D01*
X148855583Y-89570000D01*
X148835300Y-89364066D01*
X148775232Y-89166046D01*
X148775230Y-89166043D01*
X148771686Y-89154358D01*
X148775433Y-89153221D01*
X148765694Y-89106444D01*
X148790694Y-89041200D01*
X148801606Y-89028719D01*
X149741296Y-88089029D01*
X149749250Y-88081740D01*
X149778194Y-88057455D01*
X149797102Y-88024703D01*
X149802878Y-88015638D01*
X149824553Y-87984684D01*
X149824553Y-87984681D01*
X149825171Y-87983800D01*
X149835400Y-87959105D01*
X149835586Y-87958047D01*
X149835588Y-87958045D01*
X149842150Y-87920824D01*
X149844480Y-87910312D01*
X149854263Y-87873807D01*
X149850972Y-87836187D01*
X149850500Y-87825380D01*
X149850500Y-80519626D01*
X149850972Y-80508818D01*
X149854264Y-80471192D01*
X149844487Y-80434706D01*
X149842145Y-80424143D01*
X149835400Y-80385891D01*
X149825171Y-80361198D01*
X149824554Y-80360317D01*
X149824554Y-80360316D01*
X149802892Y-80329379D01*
X149797080Y-80320256D01*
X149778194Y-80287544D01*
X149749255Y-80263262D01*
X149741280Y-80255954D01*
X141211819Y-71726493D01*
X141178334Y-71665170D01*
X141175500Y-71638812D01*
X141175500Y-62208912D01*
X141195185Y-62141873D01*
X141247989Y-62096118D01*
X141263507Y-62090251D01*
X141284727Y-62083814D01*
X141291047Y-62080436D01*
X141458538Y-61990910D01*
X141610883Y-61865883D01*
X141735910Y-61713538D01*
X141828814Y-61539727D01*
X141886024Y-61351132D01*
X141905341Y-61155000D01*
X141905341Y-61154999D01*
X142434659Y-61154999D01*
X142453976Y-61351133D01*
X142511185Y-61539726D01*
X142511186Y-61539727D01*
X142604090Y-61713538D01*
X142729117Y-61865883D01*
X142881462Y-61990910D01*
X143055273Y-62083814D01*
X143243868Y-62141024D01*
X143440000Y-62160341D01*
X143636132Y-62141024D01*
X143824727Y-62083814D01*
X143998538Y-61990910D01*
X144150883Y-61865883D01*
X144275910Y-61713538D01*
X144368814Y-61539727D01*
X144426024Y-61351132D01*
X144445341Y-61155000D01*
X144445341Y-61154999D01*
X144974659Y-61154999D01*
X144993976Y-61351133D01*
X145051185Y-61539726D01*
X145051186Y-61539727D01*
X145144090Y-61713538D01*
X145269117Y-61865883D01*
X145421462Y-61990910D01*
X145595273Y-62083814D01*
X145783868Y-62141024D01*
X145980000Y-62160341D01*
X146176132Y-62141024D01*
X146364727Y-62083814D01*
X146538538Y-61990910D01*
X146690883Y-61865883D01*
X146815910Y-61713538D01*
X146908814Y-61539727D01*
X146966024Y-61351132D01*
X146985341Y-61155000D01*
X146985341Y-61154999D01*
X147514659Y-61154999D01*
X147533976Y-61351133D01*
X147591185Y-61539726D01*
X147591186Y-61539727D01*
X147684090Y-61713538D01*
X147809117Y-61865883D01*
X147961462Y-61990910D01*
X148135273Y-62083814D01*
X148323868Y-62141024D01*
X148520000Y-62160341D01*
X148716132Y-62141024D01*
X148904727Y-62083814D01*
X149078538Y-61990910D01*
X149230883Y-61865883D01*
X149355910Y-61713538D01*
X149448814Y-61539727D01*
X149506024Y-61351132D01*
X149525341Y-61155000D01*
X149525341Y-61154999D01*
X150054659Y-61154999D01*
X150073976Y-61351133D01*
X150131185Y-61539726D01*
X150131186Y-61539727D01*
X150224090Y-61713538D01*
X150349117Y-61865883D01*
X150501462Y-61990910D01*
X150675273Y-62083814D01*
X150863868Y-62141024D01*
X151060000Y-62160341D01*
X151256132Y-62141024D01*
X151444727Y-62083814D01*
X151618538Y-61990910D01*
X151770883Y-61865883D01*
X151895910Y-61713538D01*
X151988814Y-61539727D01*
X152046024Y-61351132D01*
X152065341Y-61155000D01*
X152065341Y-61154999D01*
X154114659Y-61154999D01*
X154133976Y-61351133D01*
X154191185Y-61539726D01*
X154191186Y-61539727D01*
X154284090Y-61713538D01*
X154409117Y-61865883D01*
X154561462Y-61990910D01*
X154735273Y-62083814D01*
X154923868Y-62141024D01*
X155120000Y-62160341D01*
X155316132Y-62141024D01*
X155504727Y-62083814D01*
X155678538Y-61990910D01*
X155830883Y-61865883D01*
X155955910Y-61713538D01*
X156048814Y-61539727D01*
X156106024Y-61351132D01*
X156125341Y-61155000D01*
X156125341Y-61154999D01*
X156654659Y-61154999D01*
X156673976Y-61351133D01*
X156731185Y-61539726D01*
X156731186Y-61539727D01*
X156824090Y-61713538D01*
X156949117Y-61865883D01*
X157101462Y-61990910D01*
X157275273Y-62083814D01*
X157463868Y-62141024D01*
X157660000Y-62160341D01*
X157856132Y-62141024D01*
X158044727Y-62083814D01*
X158218538Y-61990910D01*
X158370883Y-61865883D01*
X158495910Y-61713538D01*
X158588814Y-61539727D01*
X158646024Y-61351132D01*
X158665341Y-61155000D01*
X158665341Y-61154999D01*
X159194659Y-61154999D01*
X159213976Y-61351133D01*
X159271185Y-61539726D01*
X159271186Y-61539727D01*
X159364090Y-61713538D01*
X159489117Y-61865883D01*
X159641462Y-61990910D01*
X159815273Y-62083814D01*
X160003868Y-62141024D01*
X160200000Y-62160341D01*
X160396132Y-62141024D01*
X160584727Y-62083814D01*
X160758538Y-61990910D01*
X160910883Y-61865883D01*
X161035910Y-61713538D01*
X161128814Y-61539727D01*
X161186024Y-61351132D01*
X161205341Y-61155000D01*
X161205341Y-61154999D01*
X161734659Y-61154999D01*
X161753976Y-61351133D01*
X161811185Y-61539726D01*
X161811186Y-61539727D01*
X161904090Y-61713538D01*
X162029117Y-61865883D01*
X162181462Y-61990910D01*
X162355273Y-62083814D01*
X162543868Y-62141024D01*
X162740000Y-62160341D01*
X162936132Y-62141024D01*
X163124727Y-62083814D01*
X163298538Y-61990910D01*
X163450883Y-61865883D01*
X163575910Y-61713538D01*
X163668814Y-61539727D01*
X163726024Y-61351132D01*
X163745341Y-61155000D01*
X163745341Y-61154999D01*
X164274659Y-61154999D01*
X164293976Y-61351133D01*
X164351185Y-61539726D01*
X164351186Y-61539727D01*
X164444090Y-61713538D01*
X164569117Y-61865883D01*
X164721462Y-61990910D01*
X164895273Y-62083814D01*
X165083868Y-62141024D01*
X165280000Y-62160341D01*
X165476132Y-62141024D01*
X165664727Y-62083814D01*
X165838538Y-61990910D01*
X165990883Y-61865883D01*
X166115910Y-61713538D01*
X166208814Y-61539727D01*
X166266024Y-61351132D01*
X166285341Y-61155000D01*
X166285341Y-61154999D01*
X166814659Y-61154999D01*
X166833976Y-61351133D01*
X166891185Y-61539726D01*
X166891186Y-61539727D01*
X166984090Y-61713538D01*
X167109117Y-61865883D01*
X167261462Y-61990910D01*
X167435273Y-62083814D01*
X167623868Y-62141024D01*
X167820000Y-62160341D01*
X168016132Y-62141024D01*
X168204727Y-62083814D01*
X168378538Y-61990910D01*
X168530883Y-61865883D01*
X168655910Y-61713538D01*
X168748814Y-61539727D01*
X168806024Y-61351132D01*
X168825341Y-61155000D01*
X168825341Y-61154999D01*
X169354659Y-61154999D01*
X169373976Y-61351133D01*
X169431185Y-61539726D01*
X169431186Y-61539727D01*
X169524090Y-61713538D01*
X169649117Y-61865883D01*
X169801462Y-61990910D01*
X169975273Y-62083814D01*
X170163868Y-62141024D01*
X170360000Y-62160341D01*
X170556132Y-62141024D01*
X170744727Y-62083814D01*
X170918538Y-61990910D01*
X171070883Y-61865883D01*
X171195910Y-61713538D01*
X171288814Y-61539727D01*
X171346024Y-61351132D01*
X171365341Y-61155000D01*
X171365341Y-61154999D01*
X171894659Y-61154999D01*
X171913976Y-61351133D01*
X171971185Y-61539726D01*
X171971186Y-61539727D01*
X172064090Y-61713538D01*
X172189117Y-61865883D01*
X172341462Y-61990910D01*
X172515273Y-62083814D01*
X172703868Y-62141024D01*
X172900000Y-62160341D01*
X173096132Y-62141024D01*
X173284727Y-62083814D01*
X173458538Y-61990910D01*
X173610883Y-61865883D01*
X173735910Y-61713538D01*
X173828814Y-61539727D01*
X173886024Y-61351132D01*
X173905341Y-61155000D01*
X173886024Y-60958868D01*
X173828814Y-60770273D01*
X173735910Y-60596462D01*
X173610883Y-60444117D01*
X173458538Y-60319090D01*
X173300888Y-60234824D01*
X173284726Y-60226185D01*
X173096133Y-60168976D01*
X172900000Y-60149659D01*
X172703866Y-60168976D01*
X172515273Y-60226185D01*
X172341463Y-60319089D01*
X172189117Y-60444117D01*
X172064089Y-60596463D01*
X171971185Y-60770273D01*
X171913976Y-60958866D01*
X171894659Y-61154999D01*
X171365341Y-61154999D01*
X171346024Y-60958868D01*
X171288814Y-60770273D01*
X171195910Y-60596462D01*
X171070883Y-60444117D01*
X170918538Y-60319090D01*
X170760888Y-60234824D01*
X170744726Y-60226185D01*
X170556133Y-60168976D01*
X170360000Y-60149659D01*
X170163866Y-60168976D01*
X169975273Y-60226185D01*
X169801463Y-60319089D01*
X169649117Y-60444117D01*
X169524089Y-60596463D01*
X169431185Y-60770273D01*
X169373976Y-60958866D01*
X169354659Y-61154999D01*
X168825341Y-61154999D01*
X168806024Y-60958868D01*
X168748814Y-60770273D01*
X168655910Y-60596462D01*
X168530883Y-60444117D01*
X168378538Y-60319090D01*
X168220888Y-60234824D01*
X168204726Y-60226185D01*
X168016133Y-60168976D01*
X167820000Y-60149659D01*
X167623866Y-60168976D01*
X167435273Y-60226185D01*
X167261463Y-60319089D01*
X167109117Y-60444117D01*
X166984089Y-60596463D01*
X166891185Y-60770273D01*
X166833976Y-60958866D01*
X166814659Y-61154999D01*
X166285341Y-61154999D01*
X166266024Y-60958868D01*
X166208814Y-60770273D01*
X166115910Y-60596462D01*
X165990883Y-60444117D01*
X165838538Y-60319090D01*
X165680888Y-60234824D01*
X165664726Y-60226185D01*
X165476133Y-60168976D01*
X165280000Y-60149659D01*
X165083866Y-60168976D01*
X164895273Y-60226185D01*
X164721463Y-60319089D01*
X164569117Y-60444117D01*
X164444089Y-60596463D01*
X164351185Y-60770273D01*
X164293976Y-60958866D01*
X164274659Y-61154999D01*
X163745341Y-61154999D01*
X163726024Y-60958868D01*
X163668814Y-60770273D01*
X163575910Y-60596462D01*
X163450883Y-60444117D01*
X163298538Y-60319090D01*
X163140888Y-60234824D01*
X163124726Y-60226185D01*
X162936133Y-60168976D01*
X162740000Y-60149659D01*
X162543866Y-60168976D01*
X162355273Y-60226185D01*
X162181463Y-60319089D01*
X162029117Y-60444117D01*
X161904089Y-60596463D01*
X161811185Y-60770273D01*
X161753976Y-60958866D01*
X161734659Y-61154999D01*
X161205341Y-61154999D01*
X161186024Y-60958868D01*
X161128814Y-60770273D01*
X161035910Y-60596462D01*
X160910883Y-60444117D01*
X160758538Y-60319090D01*
X160600888Y-60234824D01*
X160584726Y-60226185D01*
X160396133Y-60168976D01*
X160200000Y-60149659D01*
X160003866Y-60168976D01*
X159815273Y-60226185D01*
X159641463Y-60319089D01*
X159489117Y-60444117D01*
X159364089Y-60596463D01*
X159271185Y-60770273D01*
X159213976Y-60958866D01*
X159194659Y-61154999D01*
X158665341Y-61154999D01*
X158646024Y-60958868D01*
X158588814Y-60770273D01*
X158495910Y-60596462D01*
X158370883Y-60444117D01*
X158218538Y-60319090D01*
X158060888Y-60234824D01*
X158044726Y-60226185D01*
X157856133Y-60168976D01*
X157660000Y-60149659D01*
X157463866Y-60168976D01*
X157275273Y-60226185D01*
X157101463Y-60319089D01*
X156949117Y-60444117D01*
X156824089Y-60596463D01*
X156731185Y-60770273D01*
X156673976Y-60958866D01*
X156654659Y-61154999D01*
X156125341Y-61154999D01*
X156106024Y-60958868D01*
X156048814Y-60770273D01*
X155955910Y-60596462D01*
X155830883Y-60444117D01*
X155678538Y-60319090D01*
X155520888Y-60234824D01*
X155504726Y-60226185D01*
X155316133Y-60168976D01*
X155120000Y-60149659D01*
X154923866Y-60168976D01*
X154735273Y-60226185D01*
X154561463Y-60319089D01*
X154409117Y-60444117D01*
X154284089Y-60596463D01*
X154191185Y-60770273D01*
X154133976Y-60958866D01*
X154114659Y-61154999D01*
X152065341Y-61154999D01*
X152046024Y-60958868D01*
X151988814Y-60770273D01*
X151895910Y-60596462D01*
X151770883Y-60444117D01*
X151618538Y-60319090D01*
X151460888Y-60234824D01*
X151444726Y-60226185D01*
X151256133Y-60168976D01*
X151060000Y-60149659D01*
X150863866Y-60168976D01*
X150675273Y-60226185D01*
X150501463Y-60319089D01*
X150349117Y-60444117D01*
X150224089Y-60596463D01*
X150131185Y-60770273D01*
X150073976Y-60958866D01*
X150054659Y-61154999D01*
X149525341Y-61154999D01*
X149506024Y-60958868D01*
X149448814Y-60770273D01*
X149355910Y-60596462D01*
X149230883Y-60444117D01*
X149078538Y-60319090D01*
X148920888Y-60234824D01*
X148904726Y-60226185D01*
X148716133Y-60168976D01*
X148520000Y-60149659D01*
X148323866Y-60168976D01*
X148135273Y-60226185D01*
X147961463Y-60319089D01*
X147809117Y-60444117D01*
X147684089Y-60596463D01*
X147591185Y-60770273D01*
X147533976Y-60958866D01*
X147514659Y-61154999D01*
X146985341Y-61154999D01*
X146966024Y-60958868D01*
X146908814Y-60770273D01*
X146815910Y-60596462D01*
X146690883Y-60444117D01*
X146538538Y-60319090D01*
X146380888Y-60234824D01*
X146364726Y-60226185D01*
X146176133Y-60168976D01*
X145980000Y-60149659D01*
X145783866Y-60168976D01*
X145595273Y-60226185D01*
X145421463Y-60319089D01*
X145269117Y-60444117D01*
X145144089Y-60596463D01*
X145051185Y-60770273D01*
X144993976Y-60958866D01*
X144974659Y-61154999D01*
X144445341Y-61154999D01*
X144426024Y-60958868D01*
X144368814Y-60770273D01*
X144275910Y-60596462D01*
X144150883Y-60444117D01*
X143998538Y-60319090D01*
X143840888Y-60234824D01*
X143824726Y-60226185D01*
X143636133Y-60168976D01*
X143440000Y-60149659D01*
X143243866Y-60168976D01*
X143055273Y-60226185D01*
X142881463Y-60319089D01*
X142729117Y-60444117D01*
X142604089Y-60596463D01*
X142511185Y-60770273D01*
X142453976Y-60958866D01*
X142434659Y-61154999D01*
X141905341Y-61154999D01*
X141886024Y-60958868D01*
X141828814Y-60770273D01*
X141735910Y-60596462D01*
X141610883Y-60444117D01*
X141458538Y-60319090D01*
X141300888Y-60234824D01*
X141284726Y-60226185D01*
X141096133Y-60168976D01*
X140900000Y-60149659D01*
X140703866Y-60168976D01*
X140515273Y-60226185D01*
X140341463Y-60319089D01*
X140189117Y-60444117D01*
X140064089Y-60596463D01*
X139971185Y-60770273D01*
X139913976Y-60958866D01*
X139894659Y-61154999D01*
X139365341Y-61154999D01*
X139346024Y-60958868D01*
X139288814Y-60770273D01*
X139195910Y-60596462D01*
X139070883Y-60444117D01*
X138918538Y-60319090D01*
X138760888Y-60234824D01*
X138744726Y-60226185D01*
X138556133Y-60168976D01*
X138360000Y-60149659D01*
X138163866Y-60168976D01*
X137975273Y-60226185D01*
X137801463Y-60319089D01*
X137649117Y-60444117D01*
X137524089Y-60596463D01*
X137431185Y-60770273D01*
X137373976Y-60958866D01*
X137354659Y-61154999D01*
X134285341Y-61154999D01*
X134266024Y-60958868D01*
X134208814Y-60770273D01*
X134115910Y-60596462D01*
X133990883Y-60444117D01*
X133838538Y-60319090D01*
X133680888Y-60234824D01*
X133664726Y-60226185D01*
X133476133Y-60168976D01*
X133280000Y-60149659D01*
X133083866Y-60168976D01*
X132895273Y-60226185D01*
X132721463Y-60319089D01*
X132569117Y-60444117D01*
X132444089Y-60596463D01*
X132351185Y-60770273D01*
X132293976Y-60958866D01*
X132274659Y-61154999D01*
X131745341Y-61154999D01*
X131726024Y-60958868D01*
X131668814Y-60770273D01*
X131575910Y-60596462D01*
X131450883Y-60444117D01*
X131298538Y-60319090D01*
X131140888Y-60234824D01*
X131124726Y-60226185D01*
X130936133Y-60168976D01*
X130740000Y-60149659D01*
X130543866Y-60168976D01*
X130355273Y-60226185D01*
X130181463Y-60319089D01*
X130029117Y-60444117D01*
X129904089Y-60596463D01*
X129811185Y-60770273D01*
X129753976Y-60958866D01*
X129734659Y-61154999D01*
X129205341Y-61154999D01*
X129186024Y-60958868D01*
X129128814Y-60770273D01*
X129035910Y-60596462D01*
X128910883Y-60444117D01*
X128758538Y-60319090D01*
X128600888Y-60234824D01*
X128584726Y-60226185D01*
X128396133Y-60168976D01*
X128200000Y-60149659D01*
X128003866Y-60168976D01*
X127815273Y-60226185D01*
X127641463Y-60319089D01*
X127489117Y-60444117D01*
X127364089Y-60596463D01*
X127271185Y-60770273D01*
X127213976Y-60958866D01*
X127194659Y-61154999D01*
X126000500Y-61154999D01*
X126000500Y-61004065D01*
X126000765Y-60995956D01*
X126000766Y-60995943D01*
X126005991Y-60916208D01*
X126018709Y-60738405D01*
X126020770Y-60723101D01*
X126043163Y-60610523D01*
X126073795Y-60469717D01*
X126077515Y-60456318D01*
X126116243Y-60342230D01*
X126117404Y-60338967D01*
X126165068Y-60211177D01*
X126170017Y-60199713D01*
X126224481Y-60089272D01*
X126226777Y-60084851D01*
X126290855Y-59967501D01*
X126296562Y-59958075D01*
X126365639Y-59854694D01*
X126369425Y-59849344D01*
X126448850Y-59743246D01*
X126454823Y-59735878D01*
X126537161Y-59641989D01*
X126542648Y-59636131D01*
X126636131Y-59542648D01*
X126641989Y-59537161D01*
X126735878Y-59454823D01*
X126743246Y-59448850D01*
X126849344Y-59369425D01*
X126854694Y-59365639D01*
X126958075Y-59296562D01*
X126967501Y-59290855D01*
X127084851Y-59226777D01*
X127089272Y-59224481D01*
X127199713Y-59170017D01*
X127211177Y-59165068D01*
X127338967Y-59117404D01*
X127342230Y-59116243D01*
X127456305Y-59077519D01*
X127469754Y-59073787D01*
X127610546Y-59043159D01*
X127723125Y-59020766D01*
X127738402Y-59018709D01*
X127916208Y-59005991D01*
X127992267Y-59001006D01*
X127995958Y-59000765D01*
X128004063Y-59000500D01*
X172995935Y-59000500D01*
X173004042Y-59000764D01*
G37*
%TD.AperFunction*%
%TD*%
M02*
