%TF.GenerationSoftware,KiCad,Pcbnew,7.0.2-0*%
%TF.CreationDate,2023-05-15T10:36:04-07:00*%
%TF.ProjectId,RGProgrammer_V2,52475072-6f67-4726-916d-6d65725f5632,rev?*%
%TF.SameCoordinates,Original*%
%TF.FileFunction,Copper,L1,Top*%
%TF.FilePolarity,Positive*%
%FSLAX46Y46*%
G04 Gerber Fmt 4.6, Leading zero omitted, Abs format (unit mm)*
G04 Created by KiCad (PCBNEW 7.0.2-0) date 2023-05-15 10:36:04*
%MOMM*%
%LPD*%
G01*
G04 APERTURE LIST*
G04 Aperture macros list*
%AMRoundRect*
0 Rectangle with rounded corners*
0 $1 Rounding radius*
0 $2 $3 $4 $5 $6 $7 $8 $9 X,Y pos of 4 corners*
0 Add a 4 corners polygon primitive as box body*
4,1,4,$2,$3,$4,$5,$6,$7,$8,$9,$2,$3,0*
0 Add four circle primitives for the rounded corners*
1,1,$1+$1,$2,$3*
1,1,$1+$1,$4,$5*
1,1,$1+$1,$6,$7*
1,1,$1+$1,$8,$9*
0 Add four rect primitives between the rounded corners*
20,1,$1+$1,$2,$3,$4,$5,0*
20,1,$1+$1,$4,$5,$6,$7,0*
20,1,$1+$1,$6,$7,$8,$9,0*
20,1,$1+$1,$8,$9,$2,$3,0*%
G04 Aperture macros list end*
%TA.AperFunction,ComponentPad*%
%ADD10R,1.700000X1.700000*%
%TD*%
%TA.AperFunction,ComponentPad*%
%ADD11O,1.700000X1.700000*%
%TD*%
%TA.AperFunction,SMDPad,CuDef*%
%ADD12RoundRect,0.243750X-0.243750X-0.456250X0.243750X-0.456250X0.243750X0.456250X-0.243750X0.456250X0*%
%TD*%
%TA.AperFunction,SMDPad,CuDef*%
%ADD13RoundRect,0.250000X-0.262500X-0.450000X0.262500X-0.450000X0.262500X0.450000X-0.262500X0.450000X0*%
%TD*%
%TA.AperFunction,SMDPad,CuDef*%
%ADD14RoundRect,0.250000X1.050000X0.550000X-1.050000X0.550000X-1.050000X-0.550000X1.050000X-0.550000X0*%
%TD*%
%TA.AperFunction,ComponentPad*%
%ADD15R,1.600000X1.600000*%
%TD*%
%TA.AperFunction,ComponentPad*%
%ADD16O,1.600000X1.600000*%
%TD*%
%TA.AperFunction,SMDPad,CuDef*%
%ADD17RoundRect,0.250000X0.262500X0.450000X-0.262500X0.450000X-0.262500X-0.450000X0.262500X-0.450000X0*%
%TD*%
%TA.AperFunction,Conductor*%
%ADD18C,0.250000*%
%TD*%
G04 APERTURE END LIST*
D10*
%TO.P,J1,1,Pin_1*%
%TO.N,GND*%
X147800000Y-81950000D03*
D11*
%TO.P,J1,2,Pin_2*%
%TO.N,D10*%
X147800000Y-84490000D03*
%TO.P,J1,3,Pin_3*%
%TO.N,D13*%
X147800000Y-87030000D03*
%TO.P,J1,4,Pin_4*%
%TO.N,MISO*%
X147800000Y-89570000D03*
%TO.P,J1,5,Pin_5*%
%TO.N,MOSI*%
X147800000Y-92110000D03*
%TO.P,J1,6,Pin_6*%
%TO.N,+5V*%
X147800000Y-94650000D03*
%TD*%
D12*
%TO.P,D1,1,K*%
%TO.N,Net-(D1-K)*%
X145662500Y-106775000D03*
%TO.P,D1,2,A*%
%TO.N,+5V*%
X147537500Y-106775000D03*
%TD*%
D13*
%TO.P,R1,1*%
%TO.N,Net-(D1-K)*%
X145687500Y-104750000D03*
%TO.P,R1,2*%
%TO.N,GND*%
X147512500Y-104750000D03*
%TD*%
D14*
%TO.P,C1,1*%
%TO.N,Net-(A1-~{RESET})*%
X142490000Y-105340000D03*
%TO.P,C1,2*%
%TO.N,GND*%
X138890000Y-105340000D03*
%TD*%
D15*
%TO.P,A1,1,NC*%
%TO.N,unconnected-(A1-NC-Pad1)*%
X137340000Y-109415000D03*
D16*
%TO.P,A1,2,IOREF*%
%TO.N,unconnected-(A1-IOREF-Pad2)*%
X139880000Y-109415000D03*
%TO.P,A1,3,~{RESET}*%
%TO.N,Net-(A1-~{RESET})*%
X142420000Y-109415000D03*
%TO.P,A1,4,3V3*%
%TO.N,unconnected-(A1-3V3-Pad4)*%
X144960000Y-109415000D03*
%TO.P,A1,5,+5V*%
%TO.N,+5V*%
X147500000Y-109415000D03*
%TO.P,A1,6,GND*%
%TO.N,GND*%
X150040000Y-109415000D03*
%TO.P,A1,7,GND*%
X152580000Y-109415000D03*
%TO.P,A1,8,VIN*%
%TO.N,unconnected-(A1-VIN-Pad8)*%
X155120000Y-109415000D03*
%TO.P,A1,9,A0*%
%TO.N,unconnected-(A1-A0-Pad9)*%
X160200000Y-109415000D03*
%TO.P,A1,10,A1*%
%TO.N,unconnected-(A1-A1-Pad10)*%
X162740000Y-109415000D03*
%TO.P,A1,11,A2*%
%TO.N,unconnected-(A1-A2-Pad11)*%
X165280000Y-109415000D03*
%TO.P,A1,12,A3*%
%TO.N,unconnected-(A1-A3-Pad12)*%
X167820000Y-109415000D03*
%TO.P,A1,13,SDA/A4*%
%TO.N,unconnected-(A1-SDA{slash}A4-Pad13)*%
X170360000Y-109415000D03*
%TO.P,A1,14,SCL/A5*%
%TO.N,unconnected-(A1-SCL{slash}A5-Pad14)*%
X172900000Y-109415000D03*
%TO.P,A1,15,D0/RX*%
%TO.N,unconnected-(A1-D0{slash}RX-Pad15)*%
X172900000Y-61155000D03*
%TO.P,A1,16,D1/TX*%
%TO.N,unconnected-(A1-D1{slash}TX-Pad16)*%
X170360000Y-61155000D03*
%TO.P,A1,17,D2*%
%TO.N,unconnected-(A1-D2-Pad17)*%
X167820000Y-61155000D03*
%TO.P,A1,18,D3*%
%TO.N,unconnected-(A1-D3-Pad18)*%
X165280000Y-61155000D03*
%TO.P,A1,19,D4*%
%TO.N,unconnected-(A1-D4-Pad19)*%
X162740000Y-61155000D03*
%TO.P,A1,20,D5*%
%TO.N,unconnected-(A1-D5-Pad20)*%
X160200000Y-61155000D03*
%TO.P,A1,21,D6*%
%TO.N,unconnected-(A1-D6-Pad21)*%
X157660000Y-61155000D03*
%TO.P,A1,22,D7*%
%TO.N,unconnected-(A1-D7-Pad22)*%
X155120000Y-61155000D03*
%TO.P,A1,23,D8*%
%TO.N,unconnected-(A1-D8-Pad23)*%
X151060000Y-61155000D03*
%TO.P,A1,24,D9*%
%TO.N,unconnected-(A1-D9-Pad24)*%
X148520000Y-61155000D03*
%TO.P,A1,25,D10*%
%TO.N,D10*%
X145980000Y-61155000D03*
%TO.P,A1,26,D11*%
%TO.N,MOSI*%
X143440000Y-61155000D03*
%TO.P,A1,27,D12*%
%TO.N,MISO*%
X140900000Y-61155000D03*
%TO.P,A1,28,D13*%
%TO.N,D13*%
X138360000Y-61155000D03*
%TO.P,A1,29,GND*%
%TO.N,GND*%
X135820000Y-61155000D03*
%TO.P,A1,30,AREF*%
%TO.N,unconnected-(A1-AREF-Pad30)*%
X133280000Y-61155000D03*
%TO.P,A1,31,SDA/A4*%
%TO.N,unconnected-(A1-SDA{slash}A4-Pad31)*%
X130740000Y-61155000D03*
%TO.P,A1,32,SCL/A5*%
%TO.N,unconnected-(A1-SCL{slash}A5-Pad32)*%
X128200000Y-61155000D03*
%TD*%
D17*
%TO.P,R2,1*%
%TO.N,Net-(D2-K)*%
X155550000Y-106775000D03*
%TO.P,R2,2*%
%TO.N,GND*%
X153725000Y-106775000D03*
%TD*%
D12*
%TO.P,D2,1,K*%
%TO.N,Net-(D2-K)*%
X157225000Y-106775000D03*
%TO.P,D2,2,A*%
%TO.N,MOSI*%
X159100000Y-106775000D03*
%TD*%
D17*
%TO.P,R3,1*%
%TO.N,Net-(D3-K)*%
X155537500Y-104675000D03*
%TO.P,R3,2*%
%TO.N,GND*%
X153712500Y-104675000D03*
%TD*%
D12*
%TO.P,D3,1,K*%
%TO.N,Net-(D3-K)*%
X157212500Y-104675000D03*
%TO.P,D3,2,A*%
%TO.N,MISO*%
X159087500Y-104675000D03*
%TD*%
D18*
%TO.N,Net-(A1-~{RESET})*%
X142420000Y-109415000D02*
X142420000Y-105410000D01*
X142420000Y-105410000D02*
X142490000Y-105340000D01*
%TO.N,+5V*%
X146600000Y-101375000D02*
X146600000Y-105837500D01*
X147800000Y-94650000D02*
X147800000Y-100175000D01*
X147500000Y-109415000D02*
X147500000Y-106812500D01*
X147800000Y-100175000D02*
X146600000Y-101375000D01*
X146600000Y-105837500D02*
X147537500Y-106775000D01*
X147500000Y-106812500D02*
X147537500Y-106775000D01*
%TO.N,D10*%
X147800000Y-84490000D02*
X145980000Y-82670000D01*
X145980000Y-82670000D02*
X145980000Y-61155000D01*
%TO.N,MOSI*%
X158150000Y-105825000D02*
X159100000Y-106775000D01*
X158150000Y-100450000D02*
X158150000Y-105825000D01*
X147800000Y-92110000D02*
X149810000Y-92110000D01*
X149810000Y-92110000D02*
X158150000Y-100450000D01*
X143440000Y-61155000D02*
X143440000Y-87750000D01*
X143440000Y-87750000D02*
X147800000Y-92110000D01*
%TO.N,MISO*%
X159087500Y-104675000D02*
X159087500Y-99987500D01*
X159087500Y-99987500D02*
X148650000Y-89550000D01*
X148650000Y-89550000D02*
X147820000Y-89550000D01*
X147820000Y-89550000D02*
X147800000Y-89570000D01*
%TO.N,Net-(D1-K)*%
X145662500Y-104775000D02*
X145687500Y-104750000D01*
X145662500Y-106775000D02*
X145662500Y-104775000D01*
%TO.N,Net-(D2-K)*%
X155550000Y-106775000D02*
X157225000Y-106775000D01*
%TO.N,Net-(D3-K)*%
X155537500Y-104675000D02*
X157212500Y-104675000D01*
%TD*%
%TA.AperFunction,Conductor*%
%TO.N,GND*%
G36*
X173004042Y-59000764D02*
G01*
X173083743Y-59005988D01*
X173261590Y-59018709D01*
X173276904Y-59020772D01*
X173389441Y-59043157D01*
X173530277Y-59073794D01*
X173543690Y-59077518D01*
X173657725Y-59116228D01*
X173661074Y-59117420D01*
X173788808Y-59165062D01*
X173800300Y-59170024D01*
X173910687Y-59224461D01*
X173915187Y-59226798D01*
X174032478Y-59290844D01*
X174041942Y-59296574D01*
X174145269Y-59365615D01*
X174150688Y-59369450D01*
X174256727Y-59448830D01*
X174264145Y-59454844D01*
X174357976Y-59537131D01*
X174363898Y-59542678D01*
X174457320Y-59636100D01*
X174462867Y-59642022D01*
X174545150Y-59735848D01*
X174551173Y-59743278D01*
X174588691Y-59793396D01*
X174630548Y-59849310D01*
X174634383Y-59854729D01*
X174703424Y-59958056D01*
X174709154Y-59967520D01*
X174773183Y-60084779D01*
X174775564Y-60089363D01*
X174829969Y-60199687D01*
X174834938Y-60211196D01*
X174882556Y-60338863D01*
X174883793Y-60342338D01*
X174922470Y-60456276D01*
X174926217Y-60469777D01*
X174956847Y-60610580D01*
X174979230Y-60723107D01*
X174981290Y-60738414D01*
X174994017Y-60916350D01*
X174999235Y-60995956D01*
X174999500Y-61004051D01*
X174999500Y-109995947D01*
X174999234Y-110004058D01*
X174994017Y-110083648D01*
X174981291Y-110261574D01*
X174979225Y-110276916D01*
X174956851Y-110389402D01*
X174926212Y-110530244D01*
X174922473Y-110543714D01*
X174883793Y-110657660D01*
X174882556Y-110661135D01*
X174834938Y-110788802D01*
X174829969Y-110800311D01*
X174775564Y-110910635D01*
X174773183Y-110915219D01*
X174709154Y-111032478D01*
X174703424Y-111041942D01*
X174634383Y-111145269D01*
X174630548Y-111150688D01*
X174551181Y-111256711D01*
X174545142Y-111264160D01*
X174462867Y-111357976D01*
X174457320Y-111363898D01*
X174363898Y-111457320D01*
X174357976Y-111462867D01*
X174264160Y-111545142D01*
X174256711Y-111551181D01*
X174150688Y-111630548D01*
X174145269Y-111634383D01*
X174041942Y-111703424D01*
X174032478Y-111709154D01*
X173915219Y-111773183D01*
X173910635Y-111775564D01*
X173800311Y-111829969D01*
X173788802Y-111834938D01*
X173661135Y-111882556D01*
X173657660Y-111883793D01*
X173543722Y-111922470D01*
X173530221Y-111926217D01*
X173389419Y-111956847D01*
X173342048Y-111966270D01*
X173276896Y-111979229D01*
X173261584Y-111981290D01*
X173083649Y-111994017D01*
X173060221Y-111995552D01*
X173004030Y-111999235D01*
X172995948Y-111999500D01*
X128004053Y-111999500D01*
X127995943Y-111999234D01*
X127916352Y-111994017D01*
X127738424Y-111981291D01*
X127723082Y-111979225D01*
X127665195Y-111967710D01*
X127610600Y-111956851D01*
X127469746Y-111926210D01*
X127456284Y-111922473D01*
X127456275Y-111922470D01*
X127385362Y-111898398D01*
X127342338Y-111883793D01*
X127338863Y-111882556D01*
X127211196Y-111834938D01*
X127199687Y-111829969D01*
X127134947Y-111798043D01*
X127089348Y-111775556D01*
X127084779Y-111773183D01*
X126967520Y-111709154D01*
X126958056Y-111703424D01*
X126854729Y-111634383D01*
X126849310Y-111630548D01*
X126793396Y-111588691D01*
X126743278Y-111551173D01*
X126735848Y-111545150D01*
X126642022Y-111462867D01*
X126636100Y-111457320D01*
X126542678Y-111363898D01*
X126537131Y-111357976D01*
X126505450Y-111321851D01*
X126454844Y-111264145D01*
X126448830Y-111256727D01*
X126369450Y-111150688D01*
X126365615Y-111145269D01*
X126296574Y-111041942D01*
X126290844Y-111032478D01*
X126226798Y-110915187D01*
X126224461Y-110910687D01*
X126170024Y-110800300D01*
X126165060Y-110788802D01*
X126117420Y-110661074D01*
X126116228Y-110657725D01*
X126077522Y-110543703D01*
X126073786Y-110530240D01*
X126043157Y-110389441D01*
X126020767Y-110276879D01*
X126018709Y-110261593D01*
X126016789Y-110234748D01*
X136339500Y-110234748D01*
X136351132Y-110293230D01*
X136395447Y-110359552D01*
X136461769Y-110403867D01*
X136520251Y-110415500D01*
X136520252Y-110415500D01*
X138159749Y-110415500D01*
X138188989Y-110409683D01*
X138218231Y-110403867D01*
X138284552Y-110359552D01*
X138328867Y-110293231D01*
X138340500Y-110234748D01*
X138340500Y-109415000D01*
X138874659Y-109415000D01*
X138893976Y-109611133D01*
X138951185Y-109799726D01*
X138951186Y-109799727D01*
X139044090Y-109973538D01*
X139169117Y-110125883D01*
X139321462Y-110250910D01*
X139495273Y-110343814D01*
X139683868Y-110401024D01*
X139880000Y-110420341D01*
X140076132Y-110401024D01*
X140264727Y-110343814D01*
X140438538Y-110250910D01*
X140590883Y-110125883D01*
X140715910Y-109973538D01*
X140808814Y-109799727D01*
X140866024Y-109611132D01*
X140885341Y-109415000D01*
X140866024Y-109218868D01*
X140808814Y-109030273D01*
X140715910Y-108856462D01*
X140590883Y-108704117D01*
X140438538Y-108579090D01*
X140359361Y-108536769D01*
X140264726Y-108486185D01*
X140076133Y-108428976D01*
X139880000Y-108409659D01*
X139683866Y-108428976D01*
X139495273Y-108486185D01*
X139321463Y-108579089D01*
X139169117Y-108704117D01*
X139044089Y-108856463D01*
X138951185Y-109030273D01*
X138893976Y-109218866D01*
X138874659Y-109415000D01*
X138340500Y-109415000D01*
X138340500Y-108595252D01*
X138328867Y-108536769D01*
X138328867Y-108536768D01*
X138284552Y-108470447D01*
X138218230Y-108426132D01*
X138159749Y-108414500D01*
X138159748Y-108414500D01*
X136520252Y-108414500D01*
X136520251Y-108414500D01*
X136461769Y-108426132D01*
X136395447Y-108470447D01*
X136351132Y-108536769D01*
X136339500Y-108595251D01*
X136339500Y-110234748D01*
X126016789Y-110234748D01*
X126005988Y-110083743D01*
X126000765Y-110004041D01*
X126000500Y-109995936D01*
X126000500Y-105944266D01*
X140989500Y-105944266D01*
X140989769Y-105947139D01*
X140989770Y-105947151D01*
X140992353Y-105974696D01*
X141037207Y-106102884D01*
X141117849Y-106212150D01*
X141227115Y-106292792D01*
X141227118Y-106292793D01*
X141355301Y-106337646D01*
X141385734Y-106340500D01*
X141970500Y-106340500D01*
X142037539Y-106360185D01*
X142083294Y-106412989D01*
X142094500Y-106464500D01*
X142094500Y-108380205D01*
X142074815Y-108447244D01*
X142028954Y-108489563D01*
X141861461Y-108579090D01*
X141709117Y-108704117D01*
X141584089Y-108856463D01*
X141491185Y-109030273D01*
X141433976Y-109218866D01*
X141414659Y-109415000D01*
X141433976Y-109611133D01*
X141491185Y-109799726D01*
X141491186Y-109799727D01*
X141584090Y-109973538D01*
X141709117Y-110125883D01*
X141861462Y-110250910D01*
X142035273Y-110343814D01*
X142223868Y-110401024D01*
X142420000Y-110420341D01*
X142616132Y-110401024D01*
X142804727Y-110343814D01*
X142978538Y-110250910D01*
X143130883Y-110125883D01*
X143255910Y-109973538D01*
X143348814Y-109799727D01*
X143406024Y-109611132D01*
X143425341Y-109415000D01*
X143954659Y-109415000D01*
X143973976Y-109611133D01*
X144031185Y-109799726D01*
X144031186Y-109799727D01*
X144124090Y-109973538D01*
X144249117Y-110125883D01*
X144401462Y-110250910D01*
X144575273Y-110343814D01*
X144763868Y-110401024D01*
X144960000Y-110420341D01*
X145156132Y-110401024D01*
X145344727Y-110343814D01*
X145518538Y-110250910D01*
X145670883Y-110125883D01*
X145795910Y-109973538D01*
X145888814Y-109799727D01*
X145946024Y-109611132D01*
X145965341Y-109415000D01*
X145946024Y-109218868D01*
X145888814Y-109030273D01*
X145795910Y-108856462D01*
X145670883Y-108704117D01*
X145518538Y-108579090D01*
X145439361Y-108536769D01*
X145344726Y-108486185D01*
X145156133Y-108428976D01*
X145009152Y-108414500D01*
X144960000Y-108409659D01*
X144959999Y-108409659D01*
X144763866Y-108428976D01*
X144575273Y-108486185D01*
X144401463Y-108579089D01*
X144249117Y-108704117D01*
X144124089Y-108856463D01*
X144031185Y-109030273D01*
X143973976Y-109218866D01*
X143954659Y-109415000D01*
X143425341Y-109415000D01*
X143406024Y-109218868D01*
X143348814Y-109030273D01*
X143255910Y-108856462D01*
X143130883Y-108704117D01*
X142978538Y-108579090D01*
X142978536Y-108579089D01*
X142811046Y-108489563D01*
X142761202Y-108440600D01*
X142745500Y-108380205D01*
X142745500Y-107284764D01*
X144974500Y-107284764D01*
X144974769Y-107287635D01*
X144974770Y-107287651D01*
X144977313Y-107314769D01*
X144977313Y-107314771D01*
X144977314Y-107314774D01*
X145021545Y-107441179D01*
X145021546Y-107441180D01*
X145101069Y-107548930D01*
X145164085Y-107595438D01*
X145208821Y-107628455D01*
X145335226Y-107672686D01*
X145365236Y-107675500D01*
X145368130Y-107675500D01*
X145956870Y-107675500D01*
X145959764Y-107675500D01*
X145989774Y-107672686D01*
X146116179Y-107628455D01*
X146223930Y-107548930D01*
X146303455Y-107441179D01*
X146347686Y-107314774D01*
X146350500Y-107284764D01*
X146350500Y-106347687D01*
X146370185Y-106280649D01*
X146422989Y-106234894D01*
X146492147Y-106224950D01*
X146555703Y-106253975D01*
X146562181Y-106260007D01*
X146813181Y-106511007D01*
X146846666Y-106572330D01*
X146849500Y-106598687D01*
X146849500Y-107284764D01*
X146849769Y-107287635D01*
X146849770Y-107287651D01*
X146852313Y-107314769D01*
X146852313Y-107314771D01*
X146852314Y-107314774D01*
X146896545Y-107441179D01*
X146896546Y-107441180D01*
X146976069Y-107548930D01*
X147083819Y-107628454D01*
X147083820Y-107628454D01*
X147083821Y-107628455D01*
X147091451Y-107631124D01*
X147148228Y-107671843D01*
X147173977Y-107736795D01*
X147174500Y-107748167D01*
X147174500Y-108380205D01*
X147154815Y-108447244D01*
X147108954Y-108489563D01*
X146941461Y-108579090D01*
X146789117Y-108704117D01*
X146664089Y-108856463D01*
X146571185Y-109030273D01*
X146513976Y-109218866D01*
X146494659Y-109415000D01*
X146513976Y-109611133D01*
X146571185Y-109799726D01*
X146571186Y-109799727D01*
X146664090Y-109973538D01*
X146789117Y-110125883D01*
X146941462Y-110250910D01*
X147115273Y-110343814D01*
X147303868Y-110401024D01*
X147500000Y-110420341D01*
X147696132Y-110401024D01*
X147884727Y-110343814D01*
X148058538Y-110250910D01*
X148210883Y-110125883D01*
X148335910Y-109973538D01*
X148428814Y-109799727D01*
X148486024Y-109611132D01*
X148505341Y-109415000D01*
X154114659Y-109415000D01*
X154133976Y-109611133D01*
X154191185Y-109799726D01*
X154191186Y-109799727D01*
X154284090Y-109973538D01*
X154409117Y-110125883D01*
X154561462Y-110250910D01*
X154735273Y-110343814D01*
X154923868Y-110401024D01*
X155120000Y-110420341D01*
X155316132Y-110401024D01*
X155504727Y-110343814D01*
X155678538Y-110250910D01*
X155830883Y-110125883D01*
X155955910Y-109973538D01*
X156048814Y-109799727D01*
X156106024Y-109611132D01*
X156125341Y-109415000D01*
X159194659Y-109415000D01*
X159213976Y-109611133D01*
X159271185Y-109799726D01*
X159271186Y-109799727D01*
X159364090Y-109973538D01*
X159489117Y-110125883D01*
X159641462Y-110250910D01*
X159815273Y-110343814D01*
X160003868Y-110401024D01*
X160200000Y-110420341D01*
X160396132Y-110401024D01*
X160584727Y-110343814D01*
X160758538Y-110250910D01*
X160910883Y-110125883D01*
X161035910Y-109973538D01*
X161128814Y-109799727D01*
X161186024Y-109611132D01*
X161205341Y-109415000D01*
X161734659Y-109415000D01*
X161753976Y-109611133D01*
X161811185Y-109799726D01*
X161811186Y-109799727D01*
X161904090Y-109973538D01*
X162029117Y-110125883D01*
X162181462Y-110250910D01*
X162355273Y-110343814D01*
X162543868Y-110401024D01*
X162740000Y-110420341D01*
X162936132Y-110401024D01*
X163124727Y-110343814D01*
X163298538Y-110250910D01*
X163450883Y-110125883D01*
X163575910Y-109973538D01*
X163668814Y-109799727D01*
X163726024Y-109611132D01*
X163745341Y-109415000D01*
X164274659Y-109415000D01*
X164293976Y-109611133D01*
X164351185Y-109799726D01*
X164351186Y-109799727D01*
X164444090Y-109973538D01*
X164569117Y-110125883D01*
X164721462Y-110250910D01*
X164895273Y-110343814D01*
X165083868Y-110401024D01*
X165280000Y-110420341D01*
X165476132Y-110401024D01*
X165664727Y-110343814D01*
X165838538Y-110250910D01*
X165990883Y-110125883D01*
X166115910Y-109973538D01*
X166208814Y-109799727D01*
X166266024Y-109611132D01*
X166285341Y-109415000D01*
X166814659Y-109415000D01*
X166833976Y-109611133D01*
X166891185Y-109799726D01*
X166891186Y-109799727D01*
X166984090Y-109973538D01*
X167109117Y-110125883D01*
X167261462Y-110250910D01*
X167435273Y-110343814D01*
X167623868Y-110401024D01*
X167820000Y-110420341D01*
X168016132Y-110401024D01*
X168204727Y-110343814D01*
X168378538Y-110250910D01*
X168530883Y-110125883D01*
X168655910Y-109973538D01*
X168748814Y-109799727D01*
X168806024Y-109611132D01*
X168825341Y-109415000D01*
X169354659Y-109415000D01*
X169373976Y-109611133D01*
X169431185Y-109799726D01*
X169431186Y-109799727D01*
X169524090Y-109973538D01*
X169649117Y-110125883D01*
X169801462Y-110250910D01*
X169975273Y-110343814D01*
X170163868Y-110401024D01*
X170360000Y-110420341D01*
X170556132Y-110401024D01*
X170744727Y-110343814D01*
X170918538Y-110250910D01*
X171070883Y-110125883D01*
X171195910Y-109973538D01*
X171288814Y-109799727D01*
X171346024Y-109611132D01*
X171365341Y-109415000D01*
X171894659Y-109415000D01*
X171913976Y-109611133D01*
X171971185Y-109799726D01*
X171971186Y-109799727D01*
X172064090Y-109973538D01*
X172189117Y-110125883D01*
X172341462Y-110250910D01*
X172515273Y-110343814D01*
X172703868Y-110401024D01*
X172900000Y-110420341D01*
X173096132Y-110401024D01*
X173284727Y-110343814D01*
X173458538Y-110250910D01*
X173610883Y-110125883D01*
X173735910Y-109973538D01*
X173828814Y-109799727D01*
X173886024Y-109611132D01*
X173905341Y-109415000D01*
X173886024Y-109218868D01*
X173828814Y-109030273D01*
X173735910Y-108856462D01*
X173610883Y-108704117D01*
X173458538Y-108579090D01*
X173379361Y-108536769D01*
X173284726Y-108486185D01*
X173096133Y-108428976D01*
X172900000Y-108409659D01*
X172703866Y-108428976D01*
X172515273Y-108486185D01*
X172341463Y-108579089D01*
X172189117Y-108704117D01*
X172064089Y-108856463D01*
X171971185Y-109030273D01*
X171913976Y-109218866D01*
X171894659Y-109415000D01*
X171365341Y-109415000D01*
X171346024Y-109218868D01*
X171288814Y-109030273D01*
X171195910Y-108856462D01*
X171070883Y-108704117D01*
X170918538Y-108579090D01*
X170839361Y-108536769D01*
X170744726Y-108486185D01*
X170556133Y-108428976D01*
X170360000Y-108409659D01*
X170163866Y-108428976D01*
X169975273Y-108486185D01*
X169801463Y-108579089D01*
X169649117Y-108704117D01*
X169524089Y-108856463D01*
X169431185Y-109030273D01*
X169373976Y-109218866D01*
X169354659Y-109415000D01*
X168825341Y-109415000D01*
X168806024Y-109218868D01*
X168748814Y-109030273D01*
X168655910Y-108856462D01*
X168530883Y-108704117D01*
X168378538Y-108579090D01*
X168299361Y-108536769D01*
X168204726Y-108486185D01*
X168016133Y-108428976D01*
X167820000Y-108409659D01*
X167623866Y-108428976D01*
X167435273Y-108486185D01*
X167261463Y-108579089D01*
X167109117Y-108704117D01*
X166984089Y-108856463D01*
X166891185Y-109030273D01*
X166833976Y-109218866D01*
X166814659Y-109415000D01*
X166285341Y-109415000D01*
X166266024Y-109218868D01*
X166208814Y-109030273D01*
X166115910Y-108856462D01*
X165990883Y-108704117D01*
X165838538Y-108579090D01*
X165759361Y-108536769D01*
X165664726Y-108486185D01*
X165476133Y-108428976D01*
X165329152Y-108414500D01*
X165280000Y-108409659D01*
X165279999Y-108409659D01*
X165083866Y-108428976D01*
X164895273Y-108486185D01*
X164721463Y-108579089D01*
X164569117Y-108704117D01*
X164444089Y-108856463D01*
X164351185Y-109030273D01*
X164293976Y-109218866D01*
X164274659Y-109415000D01*
X163745341Y-109415000D01*
X163726024Y-109218868D01*
X163668814Y-109030273D01*
X163575910Y-108856462D01*
X163450883Y-108704117D01*
X163298538Y-108579090D01*
X163219361Y-108536769D01*
X163124726Y-108486185D01*
X162936133Y-108428976D01*
X162740000Y-108409659D01*
X162543866Y-108428976D01*
X162355273Y-108486185D01*
X162181463Y-108579089D01*
X162029117Y-108704117D01*
X161904089Y-108856463D01*
X161811185Y-109030273D01*
X161753976Y-109218866D01*
X161734659Y-109415000D01*
X161205341Y-109415000D01*
X161186024Y-109218868D01*
X161128814Y-109030273D01*
X161035910Y-108856462D01*
X160910883Y-108704117D01*
X160758538Y-108579090D01*
X160679361Y-108536769D01*
X160584726Y-108486185D01*
X160396133Y-108428976D01*
X160200000Y-108409659D01*
X160003866Y-108428976D01*
X159815273Y-108486185D01*
X159641463Y-108579089D01*
X159489117Y-108704117D01*
X159364089Y-108856463D01*
X159271185Y-109030273D01*
X159213976Y-109218866D01*
X159194659Y-109415000D01*
X156125341Y-109415000D01*
X156106024Y-109218868D01*
X156048814Y-109030273D01*
X155955910Y-108856462D01*
X155830883Y-108704117D01*
X155678538Y-108579090D01*
X155599361Y-108536769D01*
X155504726Y-108486185D01*
X155316133Y-108428976D01*
X155169152Y-108414500D01*
X155120000Y-108409659D01*
X155119999Y-108409659D01*
X154923866Y-108428976D01*
X154735273Y-108486185D01*
X154561463Y-108579089D01*
X154409117Y-108704117D01*
X154284089Y-108856463D01*
X154191185Y-109030273D01*
X154133976Y-109218866D01*
X154114659Y-109415000D01*
X148505341Y-109415000D01*
X148486024Y-109218868D01*
X148428814Y-109030273D01*
X148335910Y-108856462D01*
X148210883Y-108704117D01*
X148058538Y-108579090D01*
X148058536Y-108579089D01*
X147891046Y-108489563D01*
X147841202Y-108440600D01*
X147825500Y-108380205D01*
X147825500Y-107774410D01*
X147845185Y-107707371D01*
X147897989Y-107661616D01*
X147908516Y-107657379D01*
X147991179Y-107628455D01*
X148098930Y-107548930D01*
X148178455Y-107441179D01*
X148222686Y-107314774D01*
X148225500Y-107284764D01*
X148225500Y-106265236D01*
X148222686Y-106235226D01*
X148178455Y-106108821D01*
X148100244Y-106002850D01*
X148098930Y-106001069D01*
X147991180Y-105921546D01*
X147991179Y-105921545D01*
X147864774Y-105877314D01*
X147864771Y-105877313D01*
X147864769Y-105877313D01*
X147837651Y-105874770D01*
X147837635Y-105874769D01*
X147834764Y-105874500D01*
X147240236Y-105874500D01*
X147237365Y-105874769D01*
X147237348Y-105874770D01*
X147210227Y-105877313D01*
X147202212Y-105880118D01*
X147132433Y-105883676D01*
X147073582Y-105850755D01*
X146961819Y-105738992D01*
X146928334Y-105677669D01*
X146925500Y-105651311D01*
X146925500Y-101561188D01*
X146945185Y-101494149D01*
X146961819Y-101473507D01*
X147304368Y-101130958D01*
X148016296Y-100419029D01*
X148024249Y-100411741D01*
X148053194Y-100387455D01*
X148072082Y-100354738D01*
X148077881Y-100345635D01*
X148099554Y-100314684D01*
X148099554Y-100314682D01*
X148100173Y-100313799D01*
X148110398Y-100289112D01*
X148110585Y-100288049D01*
X148110588Y-100288045D01*
X148117150Y-100250822D01*
X148119479Y-100240316D01*
X148129263Y-100203807D01*
X148125972Y-100166187D01*
X148125500Y-100155380D01*
X148125500Y-95740995D01*
X148145185Y-95673956D01*
X148193684Y-95631930D01*
X148193182Y-95630990D01*
X148197327Y-95628774D01*
X148197989Y-95628201D01*
X148199390Y-95627671D01*
X148203951Y-95625232D01*
X148203954Y-95625232D01*
X148386450Y-95527685D01*
X148546410Y-95396410D01*
X148677685Y-95236450D01*
X148775232Y-95053954D01*
X148835300Y-94855934D01*
X148855583Y-94650000D01*
X148835300Y-94444066D01*
X148775232Y-94246046D01*
X148677685Y-94063550D01*
X148612047Y-93983569D01*
X148546410Y-93903589D01*
X148448952Y-93823609D01*
X148386450Y-93772315D01*
X148203954Y-93674768D01*
X148104944Y-93644734D01*
X148005932Y-93614699D01*
X147822497Y-93596632D01*
X147800000Y-93594417D01*
X147799999Y-93594417D01*
X147594067Y-93614699D01*
X147396043Y-93674769D01*
X147213551Y-93772314D01*
X147053589Y-93903589D01*
X146922314Y-94063551D01*
X146824769Y-94246043D01*
X146764699Y-94444067D01*
X146744417Y-94650000D01*
X146764699Y-94855932D01*
X146764700Y-94855934D01*
X146824768Y-95053954D01*
X146922315Y-95236450D01*
X146973608Y-95298952D01*
X147053589Y-95396410D01*
X147184864Y-95504143D01*
X147213550Y-95527685D01*
X147349647Y-95600431D01*
X147406818Y-95630990D01*
X147404969Y-95634447D01*
X147444901Y-95660593D01*
X147473384Y-95724394D01*
X147474500Y-95740995D01*
X147474500Y-99988811D01*
X147454815Y-100055850D01*
X147438181Y-100076492D01*
X146383714Y-101130958D01*
X146375741Y-101138264D01*
X146346806Y-101162544D01*
X146327914Y-101195264D01*
X146322106Y-101204380D01*
X146299831Y-101236193D01*
X146289597Y-101260899D01*
X146282852Y-101299148D01*
X146280512Y-101309704D01*
X146270735Y-101346191D01*
X146274028Y-101383817D01*
X146274500Y-101394626D01*
X146274500Y-103761502D01*
X146254815Y-103828541D01*
X146202011Y-103874296D01*
X146132853Y-103884240D01*
X146109546Y-103878544D01*
X146034696Y-103852353D01*
X146007151Y-103849770D01*
X146007139Y-103849769D01*
X146004266Y-103849500D01*
X145370734Y-103849500D01*
X145367861Y-103849769D01*
X145367848Y-103849770D01*
X145340303Y-103852353D01*
X145212115Y-103897207D01*
X145102849Y-103977849D01*
X145022207Y-104087115D01*
X144977353Y-104215303D01*
X144974770Y-104242848D01*
X144974769Y-104242861D01*
X144974500Y-104245734D01*
X144974500Y-105254266D01*
X144974769Y-105257139D01*
X144974770Y-105257151D01*
X144977353Y-105284696D01*
X145022207Y-105412884D01*
X145102847Y-105522148D01*
X145171270Y-105572646D01*
X145212118Y-105602793D01*
X145253953Y-105617431D01*
X145310730Y-105658152D01*
X145336478Y-105723104D01*
X145337000Y-105734473D01*
X145337000Y-105788710D01*
X145317315Y-105855749D01*
X145264511Y-105901504D01*
X145253956Y-105905751D01*
X145208821Y-105921544D01*
X145101069Y-106001069D01*
X145021546Y-106108819D01*
X145021545Y-106108821D01*
X144977431Y-106234894D01*
X144977313Y-106235230D01*
X144974770Y-106262348D01*
X144974769Y-106262365D01*
X144974500Y-106265236D01*
X144974500Y-107284764D01*
X142745500Y-107284764D01*
X142745500Y-106464500D01*
X142765185Y-106397461D01*
X142817989Y-106351706D01*
X142869500Y-106340500D01*
X143591373Y-106340500D01*
X143594266Y-106340500D01*
X143624699Y-106337646D01*
X143752882Y-106292793D01*
X143752882Y-106292792D01*
X143752884Y-106292792D01*
X143862150Y-106212150D01*
X143942792Y-106102884D01*
X143955973Y-106065215D01*
X143987646Y-105974699D01*
X143990500Y-105944266D01*
X143990500Y-104735734D01*
X143987646Y-104705301D01*
X143942793Y-104577118D01*
X143942792Y-104577115D01*
X143862150Y-104467849D01*
X143752884Y-104387207D01*
X143624696Y-104342353D01*
X143597151Y-104339770D01*
X143597139Y-104339769D01*
X143594266Y-104339500D01*
X141385734Y-104339500D01*
X141382861Y-104339769D01*
X141382848Y-104339770D01*
X141355303Y-104342353D01*
X141227115Y-104387207D01*
X141117849Y-104467849D01*
X141037207Y-104577115D01*
X140992353Y-104705303D01*
X140989770Y-104732848D01*
X140989769Y-104732861D01*
X140989500Y-104735734D01*
X140989500Y-105944266D01*
X126000500Y-105944266D01*
X126000500Y-61154999D01*
X127194659Y-61154999D01*
X127213976Y-61351133D01*
X127271185Y-61539726D01*
X127271186Y-61539727D01*
X127364090Y-61713538D01*
X127489117Y-61865883D01*
X127641462Y-61990910D01*
X127815273Y-62083814D01*
X128003868Y-62141024D01*
X128200000Y-62160341D01*
X128396132Y-62141024D01*
X128584727Y-62083814D01*
X128758538Y-61990910D01*
X128910883Y-61865883D01*
X129035910Y-61713538D01*
X129128814Y-61539727D01*
X129186024Y-61351132D01*
X129205341Y-61155000D01*
X129205341Y-61154999D01*
X129734659Y-61154999D01*
X129753976Y-61351133D01*
X129811185Y-61539726D01*
X129811186Y-61539727D01*
X129904090Y-61713538D01*
X130029117Y-61865883D01*
X130181462Y-61990910D01*
X130355273Y-62083814D01*
X130543868Y-62141024D01*
X130740000Y-62160341D01*
X130936132Y-62141024D01*
X131124727Y-62083814D01*
X131298538Y-61990910D01*
X131450883Y-61865883D01*
X131575910Y-61713538D01*
X131668814Y-61539727D01*
X131726024Y-61351132D01*
X131745341Y-61155000D01*
X131745341Y-61154999D01*
X132274659Y-61154999D01*
X132293976Y-61351133D01*
X132351185Y-61539726D01*
X132351186Y-61539727D01*
X132444090Y-61713538D01*
X132569117Y-61865883D01*
X132721462Y-61990910D01*
X132895273Y-62083814D01*
X133083868Y-62141024D01*
X133280000Y-62160341D01*
X133476132Y-62141024D01*
X133664727Y-62083814D01*
X133838538Y-61990910D01*
X133990883Y-61865883D01*
X134115910Y-61713538D01*
X134208814Y-61539727D01*
X134266024Y-61351132D01*
X134285341Y-61155000D01*
X134285341Y-61154999D01*
X137354659Y-61154999D01*
X137373976Y-61351133D01*
X137431185Y-61539726D01*
X137431186Y-61539727D01*
X137524090Y-61713538D01*
X137649117Y-61865883D01*
X137801462Y-61990910D01*
X137975273Y-62083814D01*
X138163868Y-62141024D01*
X138360000Y-62160341D01*
X138556132Y-62141024D01*
X138744727Y-62083814D01*
X138918538Y-61990910D01*
X139070883Y-61865883D01*
X139195910Y-61713538D01*
X139288814Y-61539727D01*
X139346024Y-61351132D01*
X139365341Y-61155000D01*
X139365341Y-61154999D01*
X139894659Y-61154999D01*
X139913976Y-61351133D01*
X139971185Y-61539726D01*
X139971186Y-61539727D01*
X140064090Y-61713538D01*
X140189117Y-61865883D01*
X140341462Y-61990910D01*
X140515273Y-62083814D01*
X140703868Y-62141024D01*
X140900000Y-62160341D01*
X141096132Y-62141024D01*
X141284727Y-62083814D01*
X141458538Y-61990910D01*
X141610883Y-61865883D01*
X141735910Y-61713538D01*
X141828814Y-61539727D01*
X141886024Y-61351132D01*
X141905341Y-61155000D01*
X141905341Y-61154999D01*
X142434659Y-61154999D01*
X142453976Y-61351133D01*
X142511185Y-61539726D01*
X142511186Y-61539727D01*
X142604090Y-61713538D01*
X142729117Y-61865883D01*
X142881462Y-61990910D01*
X143019623Y-62064759D01*
X143048953Y-62080436D01*
X143098797Y-62129398D01*
X143114500Y-62189794D01*
X143114500Y-87730372D01*
X143114028Y-87741180D01*
X143110735Y-87778807D01*
X143120512Y-87815296D01*
X143122853Y-87825852D01*
X143129599Y-87864107D01*
X143139829Y-87888803D01*
X143140446Y-87889684D01*
X143162112Y-87920627D01*
X143167915Y-87929736D01*
X143186806Y-87962455D01*
X143215742Y-87986735D01*
X143223718Y-87994044D01*
X146798386Y-91568712D01*
X146831871Y-91630035D01*
X146827293Y-91694049D01*
X146828313Y-91694359D01*
X146826949Y-91698854D01*
X146826887Y-91699727D01*
X146826269Y-91701095D01*
X146764699Y-91904067D01*
X146744417Y-92110000D01*
X146764699Y-92315932D01*
X146764700Y-92315934D01*
X146824768Y-92513954D01*
X146922315Y-92696450D01*
X146973608Y-92758952D01*
X147053589Y-92856410D01*
X147133569Y-92922047D01*
X147213550Y-92987685D01*
X147396046Y-93085232D01*
X147594066Y-93145300D01*
X147800000Y-93165583D01*
X148005934Y-93145300D01*
X148203954Y-93085232D01*
X148386450Y-92987685D01*
X148546410Y-92856410D01*
X148677685Y-92696450D01*
X148775232Y-92513954D01*
X148775231Y-92513954D01*
X148780990Y-92503182D01*
X148784443Y-92505027D01*
X148810635Y-92465064D01*
X148874448Y-92436609D01*
X148890996Y-92435500D01*
X149623812Y-92435500D01*
X149690851Y-92455185D01*
X149711493Y-92471819D01*
X157788181Y-100548506D01*
X157821666Y-100609829D01*
X157824500Y-100636187D01*
X157824500Y-103702182D01*
X157804815Y-103769221D01*
X157752011Y-103814976D01*
X157682853Y-103824920D01*
X157659546Y-103819224D01*
X157608905Y-103801504D01*
X157539774Y-103777314D01*
X157539772Y-103777313D01*
X157539770Y-103777313D01*
X157512651Y-103774770D01*
X157512635Y-103774769D01*
X157509764Y-103774500D01*
X156915236Y-103774500D01*
X156912365Y-103774769D01*
X156912348Y-103774770D01*
X156885230Y-103777313D01*
X156885227Y-103777313D01*
X156885226Y-103777314D01*
X156758821Y-103821545D01*
X156758820Y-103821545D01*
X156758819Y-103821546D01*
X156651069Y-103901069D01*
X156571546Y-104008819D01*
X156571545Y-104008821D01*
X156570392Y-104012118D01*
X156527313Y-104135230D01*
X156524770Y-104162348D01*
X156524769Y-104162365D01*
X156524500Y-104165236D01*
X156524500Y-104168130D01*
X156524500Y-104225500D01*
X156504815Y-104292539D01*
X156452011Y-104338294D01*
X156400500Y-104349500D01*
X156374500Y-104349500D01*
X156307461Y-104329815D01*
X156261706Y-104277011D01*
X156250500Y-104225500D01*
X156250500Y-104173626D01*
X156250500Y-104170734D01*
X156247646Y-104140301D01*
X156202793Y-104012118D01*
X156202792Y-104012115D01*
X156122150Y-103902849D01*
X156012884Y-103822207D01*
X155884696Y-103777353D01*
X155857151Y-103774770D01*
X155857139Y-103774769D01*
X155854266Y-103774500D01*
X155220734Y-103774500D01*
X155217861Y-103774769D01*
X155217848Y-103774770D01*
X155190303Y-103777353D01*
X155062115Y-103822207D01*
X154952849Y-103902849D01*
X154872207Y-104012115D01*
X154827353Y-104140303D01*
X154824770Y-104167848D01*
X154824769Y-104167861D01*
X154824500Y-104170734D01*
X154824500Y-105179266D01*
X154824769Y-105182139D01*
X154824770Y-105182151D01*
X154827353Y-105209696D01*
X154872207Y-105337884D01*
X154952849Y-105447150D01*
X155062115Y-105527792D01*
X155062118Y-105527793D01*
X155190301Y-105572646D01*
X155220734Y-105575500D01*
X155223627Y-105575500D01*
X155851373Y-105575500D01*
X155854266Y-105575500D01*
X155884699Y-105572646D01*
X156012882Y-105527793D01*
X156012882Y-105527792D01*
X156012884Y-105527792D01*
X156122150Y-105447150D01*
X156202792Y-105337884D01*
X156221402Y-105284699D01*
X156247646Y-105209699D01*
X156250500Y-105179266D01*
X156250500Y-105124499D01*
X156270185Y-105057461D01*
X156322989Y-105011706D01*
X156374500Y-105000500D01*
X156400500Y-105000500D01*
X156467539Y-105020185D01*
X156513294Y-105072989D01*
X156524500Y-105124499D01*
X156524500Y-105184764D01*
X156524769Y-105187635D01*
X156524770Y-105187651D01*
X156527313Y-105214769D01*
X156527313Y-105214771D01*
X156527314Y-105214774D01*
X156571545Y-105341179D01*
X156571546Y-105341180D01*
X156651069Y-105448930D01*
X156714085Y-105495438D01*
X156758821Y-105528455D01*
X156885226Y-105572686D01*
X156915236Y-105575500D01*
X156918130Y-105575500D01*
X157506870Y-105575500D01*
X157509764Y-105575500D01*
X157539774Y-105572686D01*
X157659546Y-105530775D01*
X157729324Y-105527214D01*
X157789951Y-105561942D01*
X157822179Y-105623936D01*
X157824500Y-105647817D01*
X157824500Y-105797808D01*
X157804815Y-105864847D01*
X157752011Y-105910602D01*
X157682853Y-105920546D01*
X157659546Y-105914850D01*
X157594324Y-105892028D01*
X157552274Y-105877314D01*
X157552273Y-105877313D01*
X157552271Y-105877313D01*
X157525151Y-105874770D01*
X157525135Y-105874769D01*
X157522264Y-105874500D01*
X156927736Y-105874500D01*
X156924865Y-105874769D01*
X156924848Y-105874770D01*
X156897730Y-105877313D01*
X156897727Y-105877313D01*
X156897726Y-105877314D01*
X156771321Y-105921545D01*
X156771320Y-105921545D01*
X156771319Y-105921546D01*
X156663569Y-106001069D01*
X156584046Y-106108819D01*
X156584045Y-106108821D01*
X156539931Y-106234894D01*
X156539813Y-106235230D01*
X156537270Y-106262348D01*
X156537269Y-106262365D01*
X156537000Y-106265236D01*
X156537000Y-106268130D01*
X156537000Y-106325500D01*
X156517315Y-106392539D01*
X156464511Y-106438294D01*
X156413000Y-106449500D01*
X156387000Y-106449500D01*
X156319961Y-106429815D01*
X156274206Y-106377011D01*
X156263000Y-106325500D01*
X156263000Y-106273626D01*
X156263000Y-106270734D01*
X156260146Y-106240301D01*
X156215293Y-106112118D01*
X156215292Y-106112115D01*
X156134650Y-106002849D01*
X156025384Y-105922207D01*
X155897196Y-105877353D01*
X155869651Y-105874770D01*
X155869639Y-105874769D01*
X155866766Y-105874500D01*
X155233234Y-105874500D01*
X155230361Y-105874769D01*
X155230348Y-105874770D01*
X155202803Y-105877353D01*
X155074615Y-105922207D01*
X154965349Y-106002849D01*
X154884707Y-106112115D01*
X154839853Y-106240303D01*
X154837270Y-106267848D01*
X154837269Y-106267861D01*
X154837000Y-106270734D01*
X154837000Y-107279266D01*
X154837269Y-107282139D01*
X154837270Y-107282151D01*
X154839853Y-107309696D01*
X154884707Y-107437884D01*
X154965349Y-107547150D01*
X155074615Y-107627792D01*
X155074618Y-107627793D01*
X155202801Y-107672646D01*
X155233234Y-107675500D01*
X155236127Y-107675500D01*
X155863873Y-107675500D01*
X155866766Y-107675500D01*
X155897199Y-107672646D01*
X156025382Y-107627793D01*
X156025382Y-107627792D01*
X156025384Y-107627792D01*
X156134650Y-107547150D01*
X156215292Y-107437884D01*
X156215293Y-107437882D01*
X156260146Y-107309699D01*
X156263000Y-107279266D01*
X156263000Y-107224499D01*
X156282685Y-107157461D01*
X156335489Y-107111706D01*
X156387000Y-107100500D01*
X156413000Y-107100500D01*
X156480039Y-107120185D01*
X156525794Y-107172989D01*
X156537000Y-107224500D01*
X156537000Y-107284764D01*
X156537269Y-107287635D01*
X156537270Y-107287651D01*
X156539813Y-107314769D01*
X156539813Y-107314771D01*
X156539814Y-107314774D01*
X156584045Y-107441179D01*
X156584046Y-107441180D01*
X156663569Y-107548930D01*
X156726585Y-107595438D01*
X156771321Y-107628455D01*
X156897726Y-107672686D01*
X156927736Y-107675500D01*
X156930630Y-107675500D01*
X157519370Y-107675500D01*
X157522264Y-107675500D01*
X157552274Y-107672686D01*
X157678679Y-107628455D01*
X157786430Y-107548930D01*
X157865955Y-107441179D01*
X157910186Y-107314774D01*
X157913000Y-107284764D01*
X157913000Y-106347687D01*
X157932685Y-106280648D01*
X157985489Y-106234893D01*
X158054647Y-106224949D01*
X158118203Y-106253974D01*
X158124672Y-106259997D01*
X158190175Y-106325500D01*
X158375681Y-106511006D01*
X158409166Y-106572329D01*
X158412000Y-106598686D01*
X158412000Y-107284764D01*
X158412269Y-107287635D01*
X158412270Y-107287651D01*
X158414813Y-107314769D01*
X158414813Y-107314771D01*
X158414814Y-107314774D01*
X158459045Y-107441179D01*
X158459046Y-107441180D01*
X158538569Y-107548930D01*
X158601585Y-107595438D01*
X158646321Y-107628455D01*
X158772726Y-107672686D01*
X158802736Y-107675500D01*
X158805630Y-107675500D01*
X159394370Y-107675500D01*
X159397264Y-107675500D01*
X159427274Y-107672686D01*
X159553679Y-107628455D01*
X159661430Y-107548930D01*
X159740955Y-107441179D01*
X159785186Y-107314774D01*
X159788000Y-107284764D01*
X159788000Y-106265236D01*
X159785186Y-106235226D01*
X159740955Y-106108821D01*
X159662744Y-106002850D01*
X159661430Y-106001069D01*
X159553680Y-105921546D01*
X159553679Y-105921545D01*
X159427274Y-105877314D01*
X159427271Y-105877313D01*
X159427269Y-105877313D01*
X159400151Y-105874770D01*
X159400135Y-105874769D01*
X159397264Y-105874500D01*
X158802736Y-105874500D01*
X158799865Y-105874769D01*
X158799848Y-105874770D01*
X158772727Y-105877313D01*
X158764712Y-105880118D01*
X158694933Y-105883676D01*
X158636082Y-105850755D01*
X158525672Y-105740345D01*
X158492187Y-105679022D01*
X158497171Y-105609330D01*
X158539043Y-105553397D01*
X158604507Y-105528980D01*
X158654304Y-105535622D01*
X158760226Y-105572686D01*
X158790236Y-105575500D01*
X158793130Y-105575500D01*
X159381870Y-105575500D01*
X159384764Y-105575500D01*
X159414774Y-105572686D01*
X159541179Y-105528455D01*
X159648930Y-105448930D01*
X159728455Y-105341179D01*
X159772686Y-105214774D01*
X159775500Y-105184764D01*
X159775500Y-104165236D01*
X159772686Y-104135226D01*
X159728455Y-104008821D01*
X159650244Y-103902850D01*
X159648930Y-103901069D01*
X159541178Y-103821544D01*
X159496044Y-103805751D01*
X159439268Y-103765028D01*
X159413522Y-103700075D01*
X159413000Y-103688710D01*
X159413000Y-100007126D01*
X159413472Y-99996318D01*
X159416764Y-99958692D01*
X159406987Y-99922206D01*
X159404645Y-99911643D01*
X159397900Y-99873391D01*
X159387671Y-99848698D01*
X159387054Y-99847817D01*
X159387054Y-99847816D01*
X159365392Y-99816879D01*
X159359580Y-99807756D01*
X159340694Y-99775044D01*
X159311755Y-99750762D01*
X159303780Y-99743454D01*
X148894043Y-89333717D01*
X148886734Y-89325741D01*
X148862454Y-89296805D01*
X148847233Y-89288017D01*
X148799018Y-89237449D01*
X148790576Y-89216631D01*
X148775232Y-89166046D01*
X148677685Y-88983550D01*
X148612047Y-88903570D01*
X148546410Y-88823589D01*
X148448952Y-88743609D01*
X148386450Y-88692315D01*
X148203954Y-88594768D01*
X148104944Y-88564733D01*
X148005932Y-88534699D01*
X147822497Y-88516632D01*
X147800000Y-88514417D01*
X147799999Y-88514417D01*
X147594067Y-88534699D01*
X147396043Y-88594769D01*
X147213551Y-88692314D01*
X147053589Y-88823589D01*
X146922314Y-88983551D01*
X146824769Y-89166043D01*
X146764699Y-89364067D01*
X146744417Y-89570000D01*
X146764699Y-89775932D01*
X146764700Y-89775934D01*
X146824768Y-89973954D01*
X146922315Y-90156450D01*
X146973608Y-90218952D01*
X147053589Y-90316410D01*
X147133569Y-90382047D01*
X147213550Y-90447685D01*
X147396046Y-90545232D01*
X147594066Y-90605300D01*
X147800000Y-90625583D01*
X148005934Y-90605300D01*
X148203954Y-90545232D01*
X148386450Y-90447685D01*
X148546410Y-90316410D01*
X148644279Y-90197154D01*
X148702023Y-90157821D01*
X148771868Y-90155950D01*
X148827813Y-90188139D01*
X158725681Y-100086007D01*
X158759166Y-100147330D01*
X158762000Y-100173688D01*
X158762000Y-103688710D01*
X158742315Y-103755749D01*
X158689511Y-103801504D01*
X158678955Y-103805751D01*
X158640455Y-103819223D01*
X158570677Y-103822786D01*
X158510049Y-103788057D01*
X158477821Y-103726064D01*
X158475500Y-103702182D01*
X158475500Y-100469618D01*
X158475972Y-100458810D01*
X158479263Y-100421191D01*
X158469486Y-100384704D01*
X158467144Y-100374140D01*
X158460400Y-100335891D01*
X158450171Y-100311198D01*
X158449554Y-100310317D01*
X158449554Y-100310316D01*
X158427892Y-100279379D01*
X158422080Y-100270256D01*
X158403194Y-100237544D01*
X158374255Y-100213262D01*
X158366280Y-100205954D01*
X150054043Y-91893717D01*
X150046734Y-91885741D01*
X150022454Y-91856805D01*
X149989736Y-91837915D01*
X149980627Y-91832112D01*
X149949684Y-91810446D01*
X149948803Y-91809829D01*
X149924107Y-91799599D01*
X149885852Y-91792853D01*
X149875296Y-91790512D01*
X149838807Y-91780735D01*
X149801180Y-91784028D01*
X149790372Y-91784500D01*
X148890996Y-91784500D01*
X148823957Y-91764815D01*
X148781931Y-91716314D01*
X148780990Y-91716818D01*
X148778772Y-91712669D01*
X148778202Y-91712011D01*
X148777673Y-91710613D01*
X148775232Y-91706046D01*
X148677685Y-91523550D01*
X148654143Y-91494863D01*
X148546410Y-91363589D01*
X148448952Y-91283608D01*
X148386450Y-91232315D01*
X148203954Y-91134768D01*
X148104944Y-91104733D01*
X148005932Y-91074699D01*
X147822497Y-91056632D01*
X147800000Y-91054417D01*
X147799999Y-91054417D01*
X147594067Y-91074699D01*
X147384359Y-91138313D01*
X147383222Y-91134567D01*
X147336418Y-91144303D01*
X147271179Y-91119289D01*
X147258712Y-91108386D01*
X143801819Y-87651492D01*
X143768334Y-87590169D01*
X143765500Y-87563811D01*
X143765500Y-87029999D01*
X146744417Y-87029999D01*
X146764699Y-87235932D01*
X146764700Y-87235934D01*
X146824768Y-87433954D01*
X146922315Y-87616450D01*
X146951073Y-87651492D01*
X147053589Y-87776410D01*
X147133569Y-87842047D01*
X147213550Y-87907685D01*
X147396046Y-88005232D01*
X147594066Y-88065300D01*
X147800000Y-88085583D01*
X148005934Y-88065300D01*
X148203954Y-88005232D01*
X148386450Y-87907685D01*
X148546410Y-87776410D01*
X148677685Y-87616450D01*
X148775232Y-87433954D01*
X148835300Y-87235934D01*
X148855583Y-87030000D01*
X148835300Y-86824066D01*
X148775232Y-86626046D01*
X148677685Y-86443550D01*
X148612047Y-86363569D01*
X148546410Y-86283589D01*
X148448952Y-86203608D01*
X148386450Y-86152315D01*
X148203954Y-86054768D01*
X148104944Y-86024733D01*
X148005932Y-85994699D01*
X147822497Y-85976632D01*
X147800000Y-85974417D01*
X147799999Y-85974417D01*
X147594067Y-85994699D01*
X147396043Y-86054769D01*
X147213551Y-86152314D01*
X147053589Y-86283589D01*
X146922314Y-86443551D01*
X146824769Y-86626043D01*
X146764699Y-86824067D01*
X146744417Y-87029999D01*
X143765500Y-87029999D01*
X143765500Y-62189794D01*
X143785185Y-62122755D01*
X143831047Y-62080436D01*
X143847118Y-62071845D01*
X143998538Y-61990910D01*
X144150883Y-61865883D01*
X144275910Y-61713538D01*
X144368814Y-61539727D01*
X144426024Y-61351132D01*
X144445341Y-61155000D01*
X144445341Y-61154999D01*
X144974659Y-61154999D01*
X144993976Y-61351133D01*
X145051185Y-61539726D01*
X145051186Y-61539727D01*
X145144090Y-61713538D01*
X145269117Y-61865883D01*
X145421462Y-61990910D01*
X145559623Y-62064759D01*
X145588953Y-62080436D01*
X145638797Y-62129398D01*
X145654500Y-62189794D01*
X145654500Y-82650372D01*
X145654028Y-82661180D01*
X145650735Y-82698807D01*
X145660512Y-82735296D01*
X145662853Y-82745852D01*
X145669599Y-82784107D01*
X145679829Y-82808803D01*
X145680446Y-82809684D01*
X145702112Y-82840627D01*
X145707915Y-82849736D01*
X145726806Y-82882455D01*
X145755742Y-82906735D01*
X145763718Y-82914044D01*
X146798386Y-83948712D01*
X146831871Y-84010035D01*
X146827293Y-84074049D01*
X146828313Y-84074359D01*
X146826949Y-84078854D01*
X146826887Y-84079727D01*
X146826269Y-84081095D01*
X146764699Y-84284067D01*
X146744417Y-84490000D01*
X146764699Y-84695932D01*
X146764700Y-84695934D01*
X146824768Y-84893954D01*
X146922315Y-85076450D01*
X146973608Y-85138952D01*
X147053589Y-85236410D01*
X147133569Y-85302047D01*
X147213550Y-85367685D01*
X147396046Y-85465232D01*
X147594066Y-85525300D01*
X147800000Y-85545583D01*
X148005934Y-85525300D01*
X148203954Y-85465232D01*
X148386450Y-85367685D01*
X148546410Y-85236410D01*
X148677685Y-85076450D01*
X148775232Y-84893954D01*
X148835300Y-84695934D01*
X148855583Y-84490000D01*
X148835300Y-84284066D01*
X148775232Y-84086046D01*
X148677685Y-83903550D01*
X148612047Y-83823569D01*
X148546410Y-83743589D01*
X148448952Y-83663609D01*
X148386450Y-83612315D01*
X148203954Y-83514768D01*
X148104944Y-83484733D01*
X148005932Y-83454699D01*
X147800000Y-83434417D01*
X147594067Y-83454699D01*
X147384359Y-83518313D01*
X147383222Y-83514567D01*
X147336418Y-83524303D01*
X147271179Y-83499289D01*
X147258712Y-83488386D01*
X146341819Y-82571493D01*
X146308334Y-82510170D01*
X146305500Y-82483812D01*
X146305500Y-62189794D01*
X146325185Y-62122755D01*
X146371047Y-62080436D01*
X146387118Y-62071845D01*
X146538538Y-61990910D01*
X146690883Y-61865883D01*
X146815910Y-61713538D01*
X146908814Y-61539727D01*
X146966024Y-61351132D01*
X146985341Y-61155000D01*
X146985341Y-61154999D01*
X147514659Y-61154999D01*
X147533976Y-61351133D01*
X147591185Y-61539726D01*
X147591186Y-61539727D01*
X147684090Y-61713538D01*
X147809117Y-61865883D01*
X147961462Y-61990910D01*
X148135273Y-62083814D01*
X148323868Y-62141024D01*
X148520000Y-62160341D01*
X148716132Y-62141024D01*
X148904727Y-62083814D01*
X149078538Y-61990910D01*
X149230883Y-61865883D01*
X149355910Y-61713538D01*
X149448814Y-61539727D01*
X149506024Y-61351132D01*
X149525341Y-61155000D01*
X149525341Y-61154999D01*
X150054659Y-61154999D01*
X150073976Y-61351133D01*
X150131185Y-61539726D01*
X150131186Y-61539727D01*
X150224090Y-61713538D01*
X150349117Y-61865883D01*
X150501462Y-61990910D01*
X150675273Y-62083814D01*
X150863868Y-62141024D01*
X151060000Y-62160341D01*
X151256132Y-62141024D01*
X151444727Y-62083814D01*
X151618538Y-61990910D01*
X151770883Y-61865883D01*
X151895910Y-61713538D01*
X151988814Y-61539727D01*
X152046024Y-61351132D01*
X152065341Y-61155000D01*
X152065341Y-61154999D01*
X154114659Y-61154999D01*
X154133976Y-61351133D01*
X154191185Y-61539726D01*
X154191186Y-61539727D01*
X154284090Y-61713538D01*
X154409117Y-61865883D01*
X154561462Y-61990910D01*
X154735273Y-62083814D01*
X154923868Y-62141024D01*
X155120000Y-62160341D01*
X155316132Y-62141024D01*
X155504727Y-62083814D01*
X155678538Y-61990910D01*
X155830883Y-61865883D01*
X155955910Y-61713538D01*
X156048814Y-61539727D01*
X156106024Y-61351132D01*
X156125341Y-61155000D01*
X156125341Y-61154999D01*
X156654659Y-61154999D01*
X156673976Y-61351133D01*
X156731185Y-61539726D01*
X156731186Y-61539727D01*
X156824090Y-61713538D01*
X156949117Y-61865883D01*
X157101462Y-61990910D01*
X157275273Y-62083814D01*
X157463868Y-62141024D01*
X157660000Y-62160341D01*
X157856132Y-62141024D01*
X158044727Y-62083814D01*
X158218538Y-61990910D01*
X158370883Y-61865883D01*
X158495910Y-61713538D01*
X158588814Y-61539727D01*
X158646024Y-61351132D01*
X158665341Y-61155000D01*
X158665341Y-61154999D01*
X159194659Y-61154999D01*
X159213976Y-61351133D01*
X159271185Y-61539726D01*
X159271186Y-61539727D01*
X159364090Y-61713538D01*
X159489117Y-61865883D01*
X159641462Y-61990910D01*
X159815273Y-62083814D01*
X160003868Y-62141024D01*
X160200000Y-62160341D01*
X160396132Y-62141024D01*
X160584727Y-62083814D01*
X160758538Y-61990910D01*
X160910883Y-61865883D01*
X161035910Y-61713538D01*
X161128814Y-61539727D01*
X161186024Y-61351132D01*
X161205341Y-61155000D01*
X161205341Y-61154999D01*
X161734659Y-61154999D01*
X161753976Y-61351133D01*
X161811185Y-61539726D01*
X161811186Y-61539727D01*
X161904090Y-61713538D01*
X162029117Y-61865883D01*
X162181462Y-61990910D01*
X162355273Y-62083814D01*
X162543868Y-62141024D01*
X162740000Y-62160341D01*
X162936132Y-62141024D01*
X163124727Y-62083814D01*
X163298538Y-61990910D01*
X163450883Y-61865883D01*
X163575910Y-61713538D01*
X163668814Y-61539727D01*
X163726024Y-61351132D01*
X163745341Y-61155000D01*
X163745341Y-61154999D01*
X164274659Y-61154999D01*
X164293976Y-61351133D01*
X164351185Y-61539726D01*
X164351186Y-61539727D01*
X164444090Y-61713538D01*
X164569117Y-61865883D01*
X164721462Y-61990910D01*
X164895273Y-62083814D01*
X165083868Y-62141024D01*
X165280000Y-62160341D01*
X165476132Y-62141024D01*
X165664727Y-62083814D01*
X165838538Y-61990910D01*
X165990883Y-61865883D01*
X166115910Y-61713538D01*
X166208814Y-61539727D01*
X166266024Y-61351132D01*
X166285341Y-61155000D01*
X166285341Y-61154999D01*
X166814659Y-61154999D01*
X166833976Y-61351133D01*
X166891185Y-61539726D01*
X166891186Y-61539727D01*
X166984090Y-61713538D01*
X167109117Y-61865883D01*
X167261462Y-61990910D01*
X167435273Y-62083814D01*
X167623868Y-62141024D01*
X167820000Y-62160341D01*
X168016132Y-62141024D01*
X168204727Y-62083814D01*
X168378538Y-61990910D01*
X168530883Y-61865883D01*
X168655910Y-61713538D01*
X168748814Y-61539727D01*
X168806024Y-61351132D01*
X168825341Y-61155000D01*
X168825341Y-61154999D01*
X169354659Y-61154999D01*
X169373976Y-61351133D01*
X169431185Y-61539726D01*
X169431186Y-61539727D01*
X169524090Y-61713538D01*
X169649117Y-61865883D01*
X169801462Y-61990910D01*
X169975273Y-62083814D01*
X170163868Y-62141024D01*
X170360000Y-62160341D01*
X170556132Y-62141024D01*
X170744727Y-62083814D01*
X170918538Y-61990910D01*
X171070883Y-61865883D01*
X171195910Y-61713538D01*
X171288814Y-61539727D01*
X171346024Y-61351132D01*
X171365341Y-61155000D01*
X171365341Y-61154999D01*
X171894659Y-61154999D01*
X171913976Y-61351133D01*
X171971185Y-61539726D01*
X171971186Y-61539727D01*
X172064090Y-61713538D01*
X172189117Y-61865883D01*
X172341462Y-61990910D01*
X172515273Y-62083814D01*
X172703868Y-62141024D01*
X172900000Y-62160341D01*
X173096132Y-62141024D01*
X173284727Y-62083814D01*
X173458538Y-61990910D01*
X173610883Y-61865883D01*
X173735910Y-61713538D01*
X173828814Y-61539727D01*
X173886024Y-61351132D01*
X173905341Y-61155000D01*
X173886024Y-60958868D01*
X173828814Y-60770273D01*
X173735910Y-60596462D01*
X173610883Y-60444117D01*
X173458538Y-60319090D01*
X173300888Y-60234824D01*
X173284726Y-60226185D01*
X173096133Y-60168976D01*
X172900000Y-60149659D01*
X172703866Y-60168976D01*
X172515273Y-60226185D01*
X172341463Y-60319089D01*
X172189117Y-60444117D01*
X172064089Y-60596463D01*
X171971185Y-60770273D01*
X171913976Y-60958866D01*
X171894659Y-61154999D01*
X171365341Y-61154999D01*
X171346024Y-60958868D01*
X171288814Y-60770273D01*
X171195910Y-60596462D01*
X171070883Y-60444117D01*
X170918538Y-60319090D01*
X170760888Y-60234824D01*
X170744726Y-60226185D01*
X170556133Y-60168976D01*
X170360000Y-60149659D01*
X170163866Y-60168976D01*
X169975273Y-60226185D01*
X169801463Y-60319089D01*
X169649117Y-60444117D01*
X169524089Y-60596463D01*
X169431185Y-60770273D01*
X169373976Y-60958866D01*
X169354659Y-61154999D01*
X168825341Y-61154999D01*
X168806024Y-60958868D01*
X168748814Y-60770273D01*
X168655910Y-60596462D01*
X168530883Y-60444117D01*
X168378538Y-60319090D01*
X168220888Y-60234824D01*
X168204726Y-60226185D01*
X168016133Y-60168976D01*
X167820000Y-60149659D01*
X167623866Y-60168976D01*
X167435273Y-60226185D01*
X167261463Y-60319089D01*
X167109117Y-60444117D01*
X166984089Y-60596463D01*
X166891185Y-60770273D01*
X166833976Y-60958866D01*
X166814659Y-61154999D01*
X166285341Y-61154999D01*
X166266024Y-60958868D01*
X166208814Y-60770273D01*
X166115910Y-60596462D01*
X165990883Y-60444117D01*
X165838538Y-60319090D01*
X165680888Y-60234824D01*
X165664726Y-60226185D01*
X165476133Y-60168976D01*
X165280000Y-60149659D01*
X165083866Y-60168976D01*
X164895273Y-60226185D01*
X164721463Y-60319089D01*
X164569117Y-60444117D01*
X164444089Y-60596463D01*
X164351185Y-60770273D01*
X164293976Y-60958866D01*
X164274659Y-61154999D01*
X163745341Y-61154999D01*
X163726024Y-60958868D01*
X163668814Y-60770273D01*
X163575910Y-60596462D01*
X163450883Y-60444117D01*
X163298538Y-60319090D01*
X163140888Y-60234824D01*
X163124726Y-60226185D01*
X162936133Y-60168976D01*
X162740000Y-60149659D01*
X162543866Y-60168976D01*
X162355273Y-60226185D01*
X162181463Y-60319089D01*
X162029117Y-60444117D01*
X161904089Y-60596463D01*
X161811185Y-60770273D01*
X161753976Y-60958866D01*
X161734659Y-61154999D01*
X161205341Y-61154999D01*
X161186024Y-60958868D01*
X161128814Y-60770273D01*
X161035910Y-60596462D01*
X160910883Y-60444117D01*
X160758538Y-60319090D01*
X160600888Y-60234824D01*
X160584726Y-60226185D01*
X160396133Y-60168976D01*
X160200000Y-60149659D01*
X160003866Y-60168976D01*
X159815273Y-60226185D01*
X159641463Y-60319089D01*
X159489117Y-60444117D01*
X159364089Y-60596463D01*
X159271185Y-60770273D01*
X159213976Y-60958866D01*
X159194659Y-61154999D01*
X158665341Y-61154999D01*
X158646024Y-60958868D01*
X158588814Y-60770273D01*
X158495910Y-60596462D01*
X158370883Y-60444117D01*
X158218538Y-60319090D01*
X158060888Y-60234824D01*
X158044726Y-60226185D01*
X157856133Y-60168976D01*
X157660000Y-60149659D01*
X157463866Y-60168976D01*
X157275273Y-60226185D01*
X157101463Y-60319089D01*
X156949117Y-60444117D01*
X156824089Y-60596463D01*
X156731185Y-60770273D01*
X156673976Y-60958866D01*
X156654659Y-61154999D01*
X156125341Y-61154999D01*
X156106024Y-60958868D01*
X156048814Y-60770273D01*
X155955910Y-60596462D01*
X155830883Y-60444117D01*
X155678538Y-60319090D01*
X155520888Y-60234824D01*
X155504726Y-60226185D01*
X155316133Y-60168976D01*
X155120000Y-60149659D01*
X154923866Y-60168976D01*
X154735273Y-60226185D01*
X154561463Y-60319089D01*
X154409117Y-60444117D01*
X154284089Y-60596463D01*
X154191185Y-60770273D01*
X154133976Y-60958866D01*
X154114659Y-61154999D01*
X152065341Y-61154999D01*
X152046024Y-60958868D01*
X151988814Y-60770273D01*
X151895910Y-60596462D01*
X151770883Y-60444117D01*
X151618538Y-60319090D01*
X151460888Y-60234824D01*
X151444726Y-60226185D01*
X151256133Y-60168976D01*
X151060000Y-60149659D01*
X150863866Y-60168976D01*
X150675273Y-60226185D01*
X150501463Y-60319089D01*
X150349117Y-60444117D01*
X150224089Y-60596463D01*
X150131185Y-60770273D01*
X150073976Y-60958866D01*
X150054659Y-61154999D01*
X149525341Y-61154999D01*
X149506024Y-60958868D01*
X149448814Y-60770273D01*
X149355910Y-60596462D01*
X149230883Y-60444117D01*
X149078538Y-60319090D01*
X148920888Y-60234824D01*
X148904726Y-60226185D01*
X148716133Y-60168976D01*
X148520000Y-60149659D01*
X148323866Y-60168976D01*
X148135273Y-60226185D01*
X147961463Y-60319089D01*
X147809117Y-60444117D01*
X147684089Y-60596463D01*
X147591185Y-60770273D01*
X147533976Y-60958866D01*
X147514659Y-61154999D01*
X146985341Y-61154999D01*
X146966024Y-60958868D01*
X146908814Y-60770273D01*
X146815910Y-60596462D01*
X146690883Y-60444117D01*
X146538538Y-60319090D01*
X146380888Y-60234824D01*
X146364726Y-60226185D01*
X146176133Y-60168976D01*
X145980000Y-60149659D01*
X145783866Y-60168976D01*
X145595273Y-60226185D01*
X145421463Y-60319089D01*
X145269117Y-60444117D01*
X145144089Y-60596463D01*
X145051185Y-60770273D01*
X144993976Y-60958866D01*
X144974659Y-61154999D01*
X144445341Y-61154999D01*
X144426024Y-60958868D01*
X144368814Y-60770273D01*
X144275910Y-60596462D01*
X144150883Y-60444117D01*
X143998538Y-60319090D01*
X143840888Y-60234824D01*
X143824726Y-60226185D01*
X143636133Y-60168976D01*
X143440000Y-60149659D01*
X143243866Y-60168976D01*
X143055273Y-60226185D01*
X142881463Y-60319089D01*
X142729117Y-60444117D01*
X142604089Y-60596463D01*
X142511185Y-60770273D01*
X142453976Y-60958866D01*
X142434659Y-61154999D01*
X141905341Y-61154999D01*
X141886024Y-60958868D01*
X141828814Y-60770273D01*
X141735910Y-60596462D01*
X141610883Y-60444117D01*
X141458538Y-60319090D01*
X141300888Y-60234824D01*
X141284726Y-60226185D01*
X141096133Y-60168976D01*
X140900000Y-60149659D01*
X140703866Y-60168976D01*
X140515273Y-60226185D01*
X140341463Y-60319089D01*
X140189117Y-60444117D01*
X140064089Y-60596463D01*
X139971185Y-60770273D01*
X139913976Y-60958866D01*
X139894659Y-61154999D01*
X139365341Y-61154999D01*
X139346024Y-60958868D01*
X139288814Y-60770273D01*
X139195910Y-60596462D01*
X139070883Y-60444117D01*
X138918538Y-60319090D01*
X138760888Y-60234824D01*
X138744726Y-60226185D01*
X138556133Y-60168976D01*
X138360000Y-60149659D01*
X138163866Y-60168976D01*
X137975273Y-60226185D01*
X137801463Y-60319089D01*
X137649117Y-60444117D01*
X137524089Y-60596463D01*
X137431185Y-60770273D01*
X137373976Y-60958866D01*
X137354659Y-61154999D01*
X134285341Y-61154999D01*
X134266024Y-60958868D01*
X134208814Y-60770273D01*
X134115910Y-60596462D01*
X133990883Y-60444117D01*
X133838538Y-60319090D01*
X133680888Y-60234824D01*
X133664726Y-60226185D01*
X133476133Y-60168976D01*
X133280000Y-60149659D01*
X133083866Y-60168976D01*
X132895273Y-60226185D01*
X132721463Y-60319089D01*
X132569117Y-60444117D01*
X132444089Y-60596463D01*
X132351185Y-60770273D01*
X132293976Y-60958866D01*
X132274659Y-61154999D01*
X131745341Y-61154999D01*
X131726024Y-60958868D01*
X131668814Y-60770273D01*
X131575910Y-60596462D01*
X131450883Y-60444117D01*
X131298538Y-60319090D01*
X131140888Y-60234824D01*
X131124726Y-60226185D01*
X130936133Y-60168976D01*
X130740000Y-60149659D01*
X130543866Y-60168976D01*
X130355273Y-60226185D01*
X130181463Y-60319089D01*
X130029117Y-60444117D01*
X129904089Y-60596463D01*
X129811185Y-60770273D01*
X129753976Y-60958866D01*
X129734659Y-61154999D01*
X129205341Y-61154999D01*
X129186024Y-60958868D01*
X129128814Y-60770273D01*
X129035910Y-60596462D01*
X128910883Y-60444117D01*
X128758538Y-60319090D01*
X128600888Y-60234824D01*
X128584726Y-60226185D01*
X128396133Y-60168976D01*
X128200000Y-60149659D01*
X128003866Y-60168976D01*
X127815273Y-60226185D01*
X127641463Y-60319089D01*
X127489117Y-60444117D01*
X127364089Y-60596463D01*
X127271185Y-60770273D01*
X127213976Y-60958866D01*
X127194659Y-61154999D01*
X126000500Y-61154999D01*
X126000500Y-61004065D01*
X126000765Y-60995956D01*
X126000766Y-60995943D01*
X126005991Y-60916208D01*
X126018709Y-60738405D01*
X126020770Y-60723101D01*
X126043163Y-60610523D01*
X126073795Y-60469717D01*
X126077515Y-60456318D01*
X126116243Y-60342230D01*
X126117404Y-60338967D01*
X126165068Y-60211177D01*
X126170017Y-60199713D01*
X126224481Y-60089272D01*
X126226777Y-60084851D01*
X126290855Y-59967501D01*
X126296562Y-59958075D01*
X126365639Y-59854694D01*
X126369425Y-59849344D01*
X126448850Y-59743246D01*
X126454823Y-59735878D01*
X126537161Y-59641989D01*
X126542648Y-59636131D01*
X126636131Y-59542648D01*
X126641989Y-59537161D01*
X126735878Y-59454823D01*
X126743246Y-59448850D01*
X126849344Y-59369425D01*
X126854694Y-59365639D01*
X126958075Y-59296562D01*
X126967501Y-59290855D01*
X127084851Y-59226777D01*
X127089272Y-59224481D01*
X127199713Y-59170017D01*
X127211177Y-59165068D01*
X127338967Y-59117404D01*
X127342230Y-59116243D01*
X127456305Y-59077519D01*
X127469754Y-59073787D01*
X127610546Y-59043159D01*
X127723125Y-59020766D01*
X127738402Y-59018709D01*
X127916208Y-59005991D01*
X127992267Y-59001006D01*
X127995958Y-59000765D01*
X128004063Y-59000500D01*
X172995935Y-59000500D01*
X173004042Y-59000764D01*
G37*
%TD.AperFunction*%
%TD*%
M02*
