%TF.GenerationSoftware,KiCad,Pcbnew,7.0.2-0*%
%TF.CreationDate,2023-04-20T17:22:28-07:00*%
%TF.ProjectId,RGProgrammer_V1,52475072-6f67-4726-916d-6d65725f5631,rev?*%
%TF.SameCoordinates,Original*%
%TF.FileFunction,Legend,Top*%
%TF.FilePolarity,Positive*%
%FSLAX46Y46*%
G04 Gerber Fmt 4.6, Leading zero omitted, Abs format (unit mm)*
G04 Created by KiCad (PCBNEW 7.0.2-0) date 2023-04-20 17:22:28*
%MOMM*%
%LPD*%
G01*
G04 APERTURE LIST*
%ADD10C,0.150000*%
%ADD11C,0.200000*%
%ADD12C,0.120000*%
G04 APERTURE END LIST*
D10*
X134999999Y-81766504D02*
X134499999Y-81266504D01*
X133499999Y-81766504D02*
X134999999Y-81766504D01*
X134999999Y-81766504D02*
X134499999Y-82266504D01*
X147510456Y-92369434D02*
X147510456Y-91369434D01*
X147510456Y-91369434D02*
X147748551Y-91369434D01*
X147748551Y-91369434D02*
X147891408Y-91417053D01*
X147891408Y-91417053D02*
X147986646Y-91512291D01*
X147986646Y-91512291D02*
X148034265Y-91607529D01*
X148034265Y-91607529D02*
X148081884Y-91798005D01*
X148081884Y-91798005D02*
X148081884Y-91940862D01*
X148081884Y-91940862D02*
X148034265Y-92131338D01*
X148034265Y-92131338D02*
X147986646Y-92226576D01*
X147986646Y-92226576D02*
X147891408Y-92321815D01*
X147891408Y-92321815D02*
X147748551Y-92369434D01*
X147748551Y-92369434D02*
X147510456Y-92369434D01*
X149034265Y-92369434D02*
X148462837Y-92369434D01*
X148748551Y-92369434D02*
X148748551Y-91369434D01*
X148748551Y-91369434D02*
X148653313Y-91512291D01*
X148653313Y-91512291D02*
X148558075Y-91607529D01*
X148558075Y-91607529D02*
X148462837Y-91655148D01*
X149986646Y-92369434D02*
X149415218Y-92369434D01*
X149700932Y-92369434D02*
X149700932Y-91369434D01*
X149700932Y-91369434D02*
X149605694Y-91512291D01*
X149605694Y-91512291D02*
X149510456Y-91607529D01*
X149510456Y-91607529D02*
X149415218Y-91655148D01*
X151238095Y-106541983D02*
X151238095Y-105541983D01*
X151238095Y-105541983D02*
X151619047Y-105541983D01*
X151619047Y-105541983D02*
X151714285Y-105589602D01*
X151714285Y-105589602D02*
X151761904Y-105637221D01*
X151761904Y-105637221D02*
X151809523Y-105732459D01*
X151809523Y-105732459D02*
X151809523Y-105875316D01*
X151809523Y-105875316D02*
X151761904Y-105970554D01*
X151761904Y-105970554D02*
X151714285Y-106018173D01*
X151714285Y-106018173D02*
X151619047Y-106065792D01*
X151619047Y-106065792D02*
X151238095Y-106065792D01*
X152142857Y-105541983D02*
X152380952Y-106541983D01*
X152380952Y-106541983D02*
X152571428Y-105827697D01*
X152571428Y-105827697D02*
X152761904Y-106541983D01*
X152761904Y-106541983D02*
X153000000Y-105541983D01*
X153952380Y-106541983D02*
X153619047Y-106065792D01*
X153380952Y-106541983D02*
X153380952Y-105541983D01*
X153380952Y-105541983D02*
X153761904Y-105541983D01*
X153761904Y-105541983D02*
X153857142Y-105589602D01*
X153857142Y-105589602D02*
X153904761Y-105637221D01*
X153904761Y-105637221D02*
X153952380Y-105732459D01*
X153952380Y-105732459D02*
X153952380Y-105875316D01*
X153952380Y-105875316D02*
X153904761Y-105970554D01*
X153904761Y-105970554D02*
X153857142Y-106018173D01*
X153857142Y-106018173D02*
X153761904Y-106065792D01*
X153761904Y-106065792D02*
X153380952Y-106065792D01*
D11*
X127828771Y-63523809D02*
X127495438Y-63523809D01*
X127495438Y-64047619D02*
X127495438Y-63047619D01*
X127495438Y-63047619D02*
X127971628Y-63047619D01*
X128495438Y-64047619D02*
X128400200Y-64000000D01*
X128400200Y-64000000D02*
X128352581Y-63904761D01*
X128352581Y-63904761D02*
X128352581Y-63047619D01*
X129304962Y-64047619D02*
X129304962Y-63523809D01*
X129304962Y-63523809D02*
X129257343Y-63428571D01*
X129257343Y-63428571D02*
X129162105Y-63380952D01*
X129162105Y-63380952D02*
X128971629Y-63380952D01*
X128971629Y-63380952D02*
X128876391Y-63428571D01*
X129304962Y-64000000D02*
X129209724Y-64047619D01*
X129209724Y-64047619D02*
X128971629Y-64047619D01*
X128971629Y-64047619D02*
X128876391Y-64000000D01*
X128876391Y-64000000D02*
X128828772Y-63904761D01*
X128828772Y-63904761D02*
X128828772Y-63809523D01*
X128828772Y-63809523D02*
X128876391Y-63714285D01*
X128876391Y-63714285D02*
X128971629Y-63666666D01*
X128971629Y-63666666D02*
X129209724Y-63666666D01*
X129209724Y-63666666D02*
X129304962Y-63619047D01*
X129733534Y-64000000D02*
X129828772Y-64047619D01*
X129828772Y-64047619D02*
X130019248Y-64047619D01*
X130019248Y-64047619D02*
X130114486Y-64000000D01*
X130114486Y-64000000D02*
X130162105Y-63904761D01*
X130162105Y-63904761D02*
X130162105Y-63857142D01*
X130162105Y-63857142D02*
X130114486Y-63761904D01*
X130114486Y-63761904D02*
X130019248Y-63714285D01*
X130019248Y-63714285D02*
X129876391Y-63714285D01*
X129876391Y-63714285D02*
X129781153Y-63666666D01*
X129781153Y-63666666D02*
X129733534Y-63571428D01*
X129733534Y-63571428D02*
X129733534Y-63523809D01*
X129733534Y-63523809D02*
X129781153Y-63428571D01*
X129781153Y-63428571D02*
X129876391Y-63380952D01*
X129876391Y-63380952D02*
X130019248Y-63380952D01*
X130019248Y-63380952D02*
X130114486Y-63428571D01*
X130590677Y-64047619D02*
X130590677Y-63047619D01*
X131019248Y-64047619D02*
X131019248Y-63523809D01*
X131019248Y-63523809D02*
X130971629Y-63428571D01*
X130971629Y-63428571D02*
X130876391Y-63380952D01*
X130876391Y-63380952D02*
X130733534Y-63380952D01*
X130733534Y-63380952D02*
X130638296Y-63428571D01*
X130638296Y-63428571D02*
X130590677Y-63476190D01*
X132257344Y-64047619D02*
X132257344Y-63047619D01*
X132733534Y-63380952D02*
X132733534Y-64047619D01*
X132733534Y-63476190D02*
X132781153Y-63428571D01*
X132781153Y-63428571D02*
X132876391Y-63380952D01*
X132876391Y-63380952D02*
X133019248Y-63380952D01*
X133019248Y-63380952D02*
X133114486Y-63428571D01*
X133114486Y-63428571D02*
X133162105Y-63523809D01*
X133162105Y-63523809D02*
X133162105Y-64047619D01*
X133590677Y-64000000D02*
X133685915Y-64047619D01*
X133685915Y-64047619D02*
X133876391Y-64047619D01*
X133876391Y-64047619D02*
X133971629Y-64000000D01*
X133971629Y-64000000D02*
X134019248Y-63904761D01*
X134019248Y-63904761D02*
X134019248Y-63857142D01*
X134019248Y-63857142D02*
X133971629Y-63761904D01*
X133971629Y-63761904D02*
X133876391Y-63714285D01*
X133876391Y-63714285D02*
X133733534Y-63714285D01*
X133733534Y-63714285D02*
X133638296Y-63666666D01*
X133638296Y-63666666D02*
X133590677Y-63571428D01*
X133590677Y-63571428D02*
X133590677Y-63523809D01*
X133590677Y-63523809D02*
X133638296Y-63428571D01*
X133638296Y-63428571D02*
X133733534Y-63380952D01*
X133733534Y-63380952D02*
X133876391Y-63380952D01*
X133876391Y-63380952D02*
X133971629Y-63428571D01*
X134304963Y-63380952D02*
X134685915Y-63380952D01*
X134447820Y-63047619D02*
X134447820Y-63904761D01*
X134447820Y-63904761D02*
X134495439Y-64000000D01*
X134495439Y-64000000D02*
X134590677Y-64047619D01*
X134590677Y-64047619D02*
X134685915Y-64047619D01*
X135019249Y-64047619D02*
X135019249Y-63380952D01*
X135019249Y-63571428D02*
X135066868Y-63476190D01*
X135066868Y-63476190D02*
X135114487Y-63428571D01*
X135114487Y-63428571D02*
X135209725Y-63380952D01*
X135209725Y-63380952D02*
X135304963Y-63380952D01*
X136066868Y-63380952D02*
X136066868Y-64047619D01*
X135638297Y-63380952D02*
X135638297Y-63904761D01*
X135638297Y-63904761D02*
X135685916Y-64000000D01*
X135685916Y-64000000D02*
X135781154Y-64047619D01*
X135781154Y-64047619D02*
X135924011Y-64047619D01*
X135924011Y-64047619D02*
X136019249Y-64000000D01*
X136019249Y-64000000D02*
X136066868Y-63952380D01*
X136971630Y-64000000D02*
X136876392Y-64047619D01*
X136876392Y-64047619D02*
X136685916Y-64047619D01*
X136685916Y-64047619D02*
X136590678Y-64000000D01*
X136590678Y-64000000D02*
X136543059Y-63952380D01*
X136543059Y-63952380D02*
X136495440Y-63857142D01*
X136495440Y-63857142D02*
X136495440Y-63571428D01*
X136495440Y-63571428D02*
X136543059Y-63476190D01*
X136543059Y-63476190D02*
X136590678Y-63428571D01*
X136590678Y-63428571D02*
X136685916Y-63380952D01*
X136685916Y-63380952D02*
X136876392Y-63380952D01*
X136876392Y-63380952D02*
X136971630Y-63428571D01*
X137257345Y-63380952D02*
X137638297Y-63380952D01*
X137400202Y-63047619D02*
X137400202Y-63904761D01*
X137400202Y-63904761D02*
X137447821Y-64000000D01*
X137447821Y-64000000D02*
X137543059Y-64047619D01*
X137543059Y-64047619D02*
X137638297Y-64047619D01*
X137971631Y-64047619D02*
X137971631Y-63380952D01*
X137971631Y-63047619D02*
X137924012Y-63095238D01*
X137924012Y-63095238D02*
X137971631Y-63142857D01*
X137971631Y-63142857D02*
X138019250Y-63095238D01*
X138019250Y-63095238D02*
X137971631Y-63047619D01*
X137971631Y-63047619D02*
X137971631Y-63142857D01*
X138590678Y-64047619D02*
X138495440Y-64000000D01*
X138495440Y-64000000D02*
X138447821Y-63952380D01*
X138447821Y-63952380D02*
X138400202Y-63857142D01*
X138400202Y-63857142D02*
X138400202Y-63571428D01*
X138400202Y-63571428D02*
X138447821Y-63476190D01*
X138447821Y-63476190D02*
X138495440Y-63428571D01*
X138495440Y-63428571D02*
X138590678Y-63380952D01*
X138590678Y-63380952D02*
X138733535Y-63380952D01*
X138733535Y-63380952D02*
X138828773Y-63428571D01*
X138828773Y-63428571D02*
X138876392Y-63476190D01*
X138876392Y-63476190D02*
X138924011Y-63571428D01*
X138924011Y-63571428D02*
X138924011Y-63857142D01*
X138924011Y-63857142D02*
X138876392Y-63952380D01*
X138876392Y-63952380D02*
X138828773Y-64000000D01*
X138828773Y-64000000D02*
X138733535Y-64047619D01*
X138733535Y-64047619D02*
X138590678Y-64047619D01*
X139352583Y-63380952D02*
X139352583Y-64047619D01*
X139352583Y-63476190D02*
X139400202Y-63428571D01*
X139400202Y-63428571D02*
X139495440Y-63380952D01*
X139495440Y-63380952D02*
X139638297Y-63380952D01*
X139638297Y-63380952D02*
X139733535Y-63428571D01*
X139733535Y-63428571D02*
X139781154Y-63523809D01*
X139781154Y-63523809D02*
X139781154Y-64047619D01*
X140209726Y-64000000D02*
X140304964Y-64047619D01*
X140304964Y-64047619D02*
X140495440Y-64047619D01*
X140495440Y-64047619D02*
X140590678Y-64000000D01*
X140590678Y-64000000D02*
X140638297Y-63904761D01*
X140638297Y-63904761D02*
X140638297Y-63857142D01*
X140638297Y-63857142D02*
X140590678Y-63761904D01*
X140590678Y-63761904D02*
X140495440Y-63714285D01*
X140495440Y-63714285D02*
X140352583Y-63714285D01*
X140352583Y-63714285D02*
X140257345Y-63666666D01*
X140257345Y-63666666D02*
X140209726Y-63571428D01*
X140209726Y-63571428D02*
X140209726Y-63523809D01*
X140209726Y-63523809D02*
X140257345Y-63428571D01*
X140257345Y-63428571D02*
X140352583Y-63380952D01*
X140352583Y-63380952D02*
X140495440Y-63380952D01*
X140495440Y-63380952D02*
X140590678Y-63428571D01*
X141066869Y-63952380D02*
X141114488Y-64000000D01*
X141114488Y-64000000D02*
X141066869Y-64047619D01*
X141066869Y-64047619D02*
X141019250Y-64000000D01*
X141019250Y-64000000D02*
X141066869Y-63952380D01*
X141066869Y-63952380D02*
X141066869Y-64047619D01*
X141066869Y-63428571D02*
X141114488Y-63476190D01*
X141114488Y-63476190D02*
X141066869Y-63523809D01*
X141066869Y-63523809D02*
X141019250Y-63476190D01*
X141019250Y-63476190D02*
X141066869Y-63428571D01*
X141066869Y-63428571D02*
X141066869Y-63523809D01*
X127495438Y-65286666D02*
X128257343Y-65286666D01*
X129495438Y-65667619D02*
X129495438Y-64667619D01*
X129971628Y-65000952D02*
X129971628Y-65667619D01*
X129971628Y-65096190D02*
X130019247Y-65048571D01*
X130019247Y-65048571D02*
X130114485Y-65000952D01*
X130114485Y-65000952D02*
X130257342Y-65000952D01*
X130257342Y-65000952D02*
X130352580Y-65048571D01*
X130352580Y-65048571D02*
X130400199Y-65143809D01*
X130400199Y-65143809D02*
X130400199Y-65667619D01*
X131495438Y-65000952D02*
X131876390Y-65000952D01*
X131638295Y-64667619D02*
X131638295Y-65524761D01*
X131638295Y-65524761D02*
X131685914Y-65620000D01*
X131685914Y-65620000D02*
X131781152Y-65667619D01*
X131781152Y-65667619D02*
X131876390Y-65667619D01*
X132352581Y-65667619D02*
X132257343Y-65620000D01*
X132257343Y-65620000D02*
X132209724Y-65572380D01*
X132209724Y-65572380D02*
X132162105Y-65477142D01*
X132162105Y-65477142D02*
X132162105Y-65191428D01*
X132162105Y-65191428D02*
X132209724Y-65096190D01*
X132209724Y-65096190D02*
X132257343Y-65048571D01*
X132257343Y-65048571D02*
X132352581Y-65000952D01*
X132352581Y-65000952D02*
X132495438Y-65000952D01*
X132495438Y-65000952D02*
X132590676Y-65048571D01*
X132590676Y-65048571D02*
X132638295Y-65096190D01*
X132638295Y-65096190D02*
X132685914Y-65191428D01*
X132685914Y-65191428D02*
X132685914Y-65477142D01*
X132685914Y-65477142D02*
X132638295Y-65572380D01*
X132638295Y-65572380D02*
X132590676Y-65620000D01*
X132590676Y-65620000D02*
X132495438Y-65667619D01*
X132495438Y-65667619D02*
X132352581Y-65667619D01*
X133257343Y-65667619D02*
X133162105Y-65620000D01*
X133162105Y-65620000D02*
X133114486Y-65572380D01*
X133114486Y-65572380D02*
X133066867Y-65477142D01*
X133066867Y-65477142D02*
X133066867Y-65191428D01*
X133066867Y-65191428D02*
X133114486Y-65096190D01*
X133114486Y-65096190D02*
X133162105Y-65048571D01*
X133162105Y-65048571D02*
X133257343Y-65000952D01*
X133257343Y-65000952D02*
X133400200Y-65000952D01*
X133400200Y-65000952D02*
X133495438Y-65048571D01*
X133495438Y-65048571D02*
X133543057Y-65096190D01*
X133543057Y-65096190D02*
X133590676Y-65191428D01*
X133590676Y-65191428D02*
X133590676Y-65477142D01*
X133590676Y-65477142D02*
X133543057Y-65572380D01*
X133543057Y-65572380D02*
X133495438Y-65620000D01*
X133495438Y-65620000D02*
X133400200Y-65667619D01*
X133400200Y-65667619D02*
X133257343Y-65667619D01*
X134162105Y-65667619D02*
X134066867Y-65620000D01*
X134066867Y-65620000D02*
X134019248Y-65524761D01*
X134019248Y-65524761D02*
X134019248Y-64667619D01*
X134495439Y-65620000D02*
X134590677Y-65667619D01*
X134590677Y-65667619D02*
X134781153Y-65667619D01*
X134781153Y-65667619D02*
X134876391Y-65620000D01*
X134876391Y-65620000D02*
X134924010Y-65524761D01*
X134924010Y-65524761D02*
X134924010Y-65477142D01*
X134924010Y-65477142D02*
X134876391Y-65381904D01*
X134876391Y-65381904D02*
X134781153Y-65334285D01*
X134781153Y-65334285D02*
X134638296Y-65334285D01*
X134638296Y-65334285D02*
X134543058Y-65286666D01*
X134543058Y-65286666D02*
X134495439Y-65191428D01*
X134495439Y-65191428D02*
X134495439Y-65143809D01*
X134495439Y-65143809D02*
X134543058Y-65048571D01*
X134543058Y-65048571D02*
X134638296Y-65000952D01*
X134638296Y-65000952D02*
X134781153Y-65000952D01*
X134781153Y-65000952D02*
X134876391Y-65048571D01*
X136066868Y-65620000D02*
X136162106Y-65667619D01*
X136162106Y-65667619D02*
X136352582Y-65667619D01*
X136352582Y-65667619D02*
X136447820Y-65620000D01*
X136447820Y-65620000D02*
X136495439Y-65524761D01*
X136495439Y-65524761D02*
X136495439Y-65477142D01*
X136495439Y-65477142D02*
X136447820Y-65381904D01*
X136447820Y-65381904D02*
X136352582Y-65334285D01*
X136352582Y-65334285D02*
X136209725Y-65334285D01*
X136209725Y-65334285D02*
X136114487Y-65286666D01*
X136114487Y-65286666D02*
X136066868Y-65191428D01*
X136066868Y-65191428D02*
X136066868Y-65143809D01*
X136066868Y-65143809D02*
X136114487Y-65048571D01*
X136114487Y-65048571D02*
X136209725Y-65000952D01*
X136209725Y-65000952D02*
X136352582Y-65000952D01*
X136352582Y-65000952D02*
X136447820Y-65048571D01*
X137304963Y-65620000D02*
X137209725Y-65667619D01*
X137209725Y-65667619D02*
X137019249Y-65667619D01*
X137019249Y-65667619D02*
X136924011Y-65620000D01*
X136924011Y-65620000D02*
X136876392Y-65524761D01*
X136876392Y-65524761D02*
X136876392Y-65143809D01*
X136876392Y-65143809D02*
X136924011Y-65048571D01*
X136924011Y-65048571D02*
X137019249Y-65000952D01*
X137019249Y-65000952D02*
X137209725Y-65000952D01*
X137209725Y-65000952D02*
X137304963Y-65048571D01*
X137304963Y-65048571D02*
X137352582Y-65143809D01*
X137352582Y-65143809D02*
X137352582Y-65239047D01*
X137352582Y-65239047D02*
X136876392Y-65334285D01*
X137638297Y-65000952D02*
X138019249Y-65000952D01*
X137781154Y-64667619D02*
X137781154Y-65524761D01*
X137781154Y-65524761D02*
X137828773Y-65620000D01*
X137828773Y-65620000D02*
X137924011Y-65667619D01*
X137924011Y-65667619D02*
X138019249Y-65667619D01*
X138971631Y-65000952D02*
X139352583Y-65000952D01*
X139114488Y-64667619D02*
X139114488Y-65524761D01*
X139114488Y-65524761D02*
X139162107Y-65620000D01*
X139162107Y-65620000D02*
X139257345Y-65667619D01*
X139257345Y-65667619D02*
X139352583Y-65667619D01*
X139685917Y-65667619D02*
X139685917Y-64667619D01*
X140114488Y-65667619D02*
X140114488Y-65143809D01*
X140114488Y-65143809D02*
X140066869Y-65048571D01*
X140066869Y-65048571D02*
X139971631Y-65000952D01*
X139971631Y-65000952D02*
X139828774Y-65000952D01*
X139828774Y-65000952D02*
X139733536Y-65048571D01*
X139733536Y-65048571D02*
X139685917Y-65096190D01*
X140971631Y-65620000D02*
X140876393Y-65667619D01*
X140876393Y-65667619D02*
X140685917Y-65667619D01*
X140685917Y-65667619D02*
X140590679Y-65620000D01*
X140590679Y-65620000D02*
X140543060Y-65524761D01*
X140543060Y-65524761D02*
X140543060Y-65143809D01*
X140543060Y-65143809D02*
X140590679Y-65048571D01*
X140590679Y-65048571D02*
X140685917Y-65000952D01*
X140685917Y-65000952D02*
X140876393Y-65000952D01*
X140876393Y-65000952D02*
X140971631Y-65048571D01*
X140971631Y-65048571D02*
X141019250Y-65143809D01*
X141019250Y-65143809D02*
X141019250Y-65239047D01*
X141019250Y-65239047D02*
X140543060Y-65334285D01*
X142066870Y-65000952D02*
X142447822Y-65000952D01*
X142209727Y-65667619D02*
X142209727Y-64810476D01*
X142209727Y-64810476D02*
X142257346Y-64715238D01*
X142257346Y-64715238D02*
X142352584Y-64667619D01*
X142352584Y-64667619D02*
X142447822Y-64667619D01*
X142924013Y-65667619D02*
X142828775Y-65620000D01*
X142828775Y-65620000D02*
X142781156Y-65572380D01*
X142781156Y-65572380D02*
X142733537Y-65477142D01*
X142733537Y-65477142D02*
X142733537Y-65191428D01*
X142733537Y-65191428D02*
X142781156Y-65096190D01*
X142781156Y-65096190D02*
X142828775Y-65048571D01*
X142828775Y-65048571D02*
X142924013Y-65000952D01*
X142924013Y-65000952D02*
X143066870Y-65000952D01*
X143066870Y-65000952D02*
X143162108Y-65048571D01*
X143162108Y-65048571D02*
X143209727Y-65096190D01*
X143209727Y-65096190D02*
X143257346Y-65191428D01*
X143257346Y-65191428D02*
X143257346Y-65477142D01*
X143257346Y-65477142D02*
X143209727Y-65572380D01*
X143209727Y-65572380D02*
X143162108Y-65620000D01*
X143162108Y-65620000D02*
X143066870Y-65667619D01*
X143066870Y-65667619D02*
X142924013Y-65667619D01*
X143828775Y-65667619D02*
X143733537Y-65620000D01*
X143733537Y-65620000D02*
X143685918Y-65524761D01*
X143685918Y-65524761D02*
X143685918Y-64667619D01*
X144352585Y-65667619D02*
X144257347Y-65620000D01*
X144257347Y-65620000D02*
X144209728Y-65524761D01*
X144209728Y-65524761D02*
X144209728Y-64667619D01*
X144876395Y-65667619D02*
X144781157Y-65620000D01*
X144781157Y-65620000D02*
X144733538Y-65572380D01*
X144733538Y-65572380D02*
X144685919Y-65477142D01*
X144685919Y-65477142D02*
X144685919Y-65191428D01*
X144685919Y-65191428D02*
X144733538Y-65096190D01*
X144733538Y-65096190D02*
X144781157Y-65048571D01*
X144781157Y-65048571D02*
X144876395Y-65000952D01*
X144876395Y-65000952D02*
X145019252Y-65000952D01*
X145019252Y-65000952D02*
X145114490Y-65048571D01*
X145114490Y-65048571D02*
X145162109Y-65096190D01*
X145162109Y-65096190D02*
X145209728Y-65191428D01*
X145209728Y-65191428D02*
X145209728Y-65477142D01*
X145209728Y-65477142D02*
X145162109Y-65572380D01*
X145162109Y-65572380D02*
X145114490Y-65620000D01*
X145114490Y-65620000D02*
X145019252Y-65667619D01*
X145019252Y-65667619D02*
X144876395Y-65667619D01*
X145543062Y-65000952D02*
X145733538Y-65667619D01*
X145733538Y-65667619D02*
X145924014Y-65191428D01*
X145924014Y-65191428D02*
X146114490Y-65667619D01*
X146114490Y-65667619D02*
X146304966Y-65000952D01*
X146685919Y-65667619D02*
X146685919Y-65000952D01*
X146685919Y-64667619D02*
X146638300Y-64715238D01*
X146638300Y-64715238D02*
X146685919Y-64762857D01*
X146685919Y-64762857D02*
X146733538Y-64715238D01*
X146733538Y-64715238D02*
X146685919Y-64667619D01*
X146685919Y-64667619D02*
X146685919Y-64762857D01*
X147162109Y-65000952D02*
X147162109Y-65667619D01*
X147162109Y-65096190D02*
X147209728Y-65048571D01*
X147209728Y-65048571D02*
X147304966Y-65000952D01*
X147304966Y-65000952D02*
X147447823Y-65000952D01*
X147447823Y-65000952D02*
X147543061Y-65048571D01*
X147543061Y-65048571D02*
X147590680Y-65143809D01*
X147590680Y-65143809D02*
X147590680Y-65667619D01*
X148495442Y-65000952D02*
X148495442Y-65810476D01*
X148495442Y-65810476D02*
X148447823Y-65905714D01*
X148447823Y-65905714D02*
X148400204Y-65953333D01*
X148400204Y-65953333D02*
X148304966Y-66000952D01*
X148304966Y-66000952D02*
X148162109Y-66000952D01*
X148162109Y-66000952D02*
X148066871Y-65953333D01*
X148495442Y-65620000D02*
X148400204Y-65667619D01*
X148400204Y-65667619D02*
X148209728Y-65667619D01*
X148209728Y-65667619D02*
X148114490Y-65620000D01*
X148114490Y-65620000D02*
X148066871Y-65572380D01*
X148066871Y-65572380D02*
X148019252Y-65477142D01*
X148019252Y-65477142D02*
X148019252Y-65191428D01*
X148019252Y-65191428D02*
X148066871Y-65096190D01*
X148066871Y-65096190D02*
X148114490Y-65048571D01*
X148114490Y-65048571D02*
X148209728Y-65000952D01*
X148209728Y-65000952D02*
X148400204Y-65000952D01*
X148400204Y-65000952D02*
X148495442Y-65048571D01*
X148971633Y-65572380D02*
X149019252Y-65620000D01*
X149019252Y-65620000D02*
X148971633Y-65667619D01*
X148971633Y-65667619D02*
X148924014Y-65620000D01*
X148924014Y-65620000D02*
X148971633Y-65572380D01*
X148971633Y-65572380D02*
X148971633Y-65667619D01*
X148971633Y-65048571D02*
X149019252Y-65096190D01*
X149019252Y-65096190D02*
X148971633Y-65143809D01*
X148971633Y-65143809D02*
X148924014Y-65096190D01*
X148924014Y-65096190D02*
X148971633Y-65048571D01*
X148971633Y-65048571D02*
X148971633Y-65143809D01*
X131685913Y-67287619D02*
X131685913Y-66763809D01*
X131685913Y-66763809D02*
X131638294Y-66668571D01*
X131638294Y-66668571D02*
X131543056Y-66620952D01*
X131543056Y-66620952D02*
X131352580Y-66620952D01*
X131352580Y-66620952D02*
X131257342Y-66668571D01*
X131685913Y-67240000D02*
X131590675Y-67287619D01*
X131590675Y-67287619D02*
X131352580Y-67287619D01*
X131352580Y-67287619D02*
X131257342Y-67240000D01*
X131257342Y-67240000D02*
X131209723Y-67144761D01*
X131209723Y-67144761D02*
X131209723Y-67049523D01*
X131209723Y-67049523D02*
X131257342Y-66954285D01*
X131257342Y-66954285D02*
X131352580Y-66906666D01*
X131352580Y-66906666D02*
X131590675Y-66906666D01*
X131590675Y-66906666D02*
X131685913Y-66859047D01*
X132162104Y-67192380D02*
X132209723Y-67240000D01*
X132209723Y-67240000D02*
X132162104Y-67287619D01*
X132162104Y-67287619D02*
X132114485Y-67240000D01*
X132114485Y-67240000D02*
X132162104Y-67192380D01*
X132162104Y-67192380D02*
X132162104Y-67287619D01*
X133733532Y-66763809D02*
X133876389Y-66811428D01*
X133876389Y-66811428D02*
X133924008Y-66859047D01*
X133924008Y-66859047D02*
X133971627Y-66954285D01*
X133971627Y-66954285D02*
X133971627Y-67097142D01*
X133971627Y-67097142D02*
X133924008Y-67192380D01*
X133924008Y-67192380D02*
X133876389Y-67240000D01*
X133876389Y-67240000D02*
X133781151Y-67287619D01*
X133781151Y-67287619D02*
X133400199Y-67287619D01*
X133400199Y-67287619D02*
X133400199Y-66287619D01*
X133400199Y-66287619D02*
X133733532Y-66287619D01*
X133733532Y-66287619D02*
X133828770Y-66335238D01*
X133828770Y-66335238D02*
X133876389Y-66382857D01*
X133876389Y-66382857D02*
X133924008Y-66478095D01*
X133924008Y-66478095D02*
X133924008Y-66573333D01*
X133924008Y-66573333D02*
X133876389Y-66668571D01*
X133876389Y-66668571D02*
X133828770Y-66716190D01*
X133828770Y-66716190D02*
X133733532Y-66763809D01*
X133733532Y-66763809D02*
X133400199Y-66763809D01*
X134543056Y-67287619D02*
X134447818Y-67240000D01*
X134447818Y-67240000D02*
X134400199Y-67192380D01*
X134400199Y-67192380D02*
X134352580Y-67097142D01*
X134352580Y-67097142D02*
X134352580Y-66811428D01*
X134352580Y-66811428D02*
X134400199Y-66716190D01*
X134400199Y-66716190D02*
X134447818Y-66668571D01*
X134447818Y-66668571D02*
X134543056Y-66620952D01*
X134543056Y-66620952D02*
X134685913Y-66620952D01*
X134685913Y-66620952D02*
X134781151Y-66668571D01*
X134781151Y-66668571D02*
X134828770Y-66716190D01*
X134828770Y-66716190D02*
X134876389Y-66811428D01*
X134876389Y-66811428D02*
X134876389Y-67097142D01*
X134876389Y-67097142D02*
X134828770Y-67192380D01*
X134828770Y-67192380D02*
X134781151Y-67240000D01*
X134781151Y-67240000D02*
X134685913Y-67287619D01*
X134685913Y-67287619D02*
X134543056Y-67287619D01*
X135733532Y-67287619D02*
X135733532Y-66763809D01*
X135733532Y-66763809D02*
X135685913Y-66668571D01*
X135685913Y-66668571D02*
X135590675Y-66620952D01*
X135590675Y-66620952D02*
X135400199Y-66620952D01*
X135400199Y-66620952D02*
X135304961Y-66668571D01*
X135733532Y-67240000D02*
X135638294Y-67287619D01*
X135638294Y-67287619D02*
X135400199Y-67287619D01*
X135400199Y-67287619D02*
X135304961Y-67240000D01*
X135304961Y-67240000D02*
X135257342Y-67144761D01*
X135257342Y-67144761D02*
X135257342Y-67049523D01*
X135257342Y-67049523D02*
X135304961Y-66954285D01*
X135304961Y-66954285D02*
X135400199Y-66906666D01*
X135400199Y-66906666D02*
X135638294Y-66906666D01*
X135638294Y-66906666D02*
X135733532Y-66859047D01*
X136209723Y-67287619D02*
X136209723Y-66620952D01*
X136209723Y-66811428D02*
X136257342Y-66716190D01*
X136257342Y-66716190D02*
X136304961Y-66668571D01*
X136304961Y-66668571D02*
X136400199Y-66620952D01*
X136400199Y-66620952D02*
X136495437Y-66620952D01*
X137257342Y-67287619D02*
X137257342Y-66287619D01*
X137257342Y-67240000D02*
X137162104Y-67287619D01*
X137162104Y-67287619D02*
X136971628Y-67287619D01*
X136971628Y-67287619D02*
X136876390Y-67240000D01*
X136876390Y-67240000D02*
X136828771Y-67192380D01*
X136828771Y-67192380D02*
X136781152Y-67097142D01*
X136781152Y-67097142D02*
X136781152Y-66811428D01*
X136781152Y-66811428D02*
X136828771Y-66716190D01*
X136828771Y-66716190D02*
X136876390Y-66668571D01*
X136876390Y-66668571D02*
X136971628Y-66620952D01*
X136971628Y-66620952D02*
X137162104Y-66620952D01*
X137162104Y-66620952D02*
X137257342Y-66668571D01*
X137733533Y-67192380D02*
X137781152Y-67240000D01*
X137781152Y-67240000D02*
X137733533Y-67287619D01*
X137733533Y-67287619D02*
X137685914Y-67240000D01*
X137685914Y-67240000D02*
X137733533Y-67192380D01*
X137733533Y-67192380D02*
X137733533Y-67287619D01*
X137733533Y-66668571D02*
X137781152Y-66716190D01*
X137781152Y-66716190D02*
X137733533Y-66763809D01*
X137733533Y-66763809D02*
X137685914Y-66716190D01*
X137685914Y-66716190D02*
X137733533Y-66668571D01*
X137733533Y-66668571D02*
X137733533Y-66763809D01*
X138924009Y-66287619D02*
X138924009Y-66478095D01*
X139304961Y-66287619D02*
X139304961Y-66478095D01*
X139685914Y-67001904D02*
X140162104Y-67001904D01*
X139590676Y-67287619D02*
X139924009Y-66287619D01*
X139924009Y-66287619D02*
X140257342Y-67287619D01*
X140447819Y-66287619D02*
X141019247Y-66287619D01*
X140733533Y-67287619D02*
X140733533Y-66287619D01*
X141209724Y-66620952D02*
X141590676Y-66620952D01*
X141352581Y-66287619D02*
X141352581Y-67144761D01*
X141352581Y-67144761D02*
X141400200Y-67240000D01*
X141400200Y-67240000D02*
X141495438Y-67287619D01*
X141495438Y-67287619D02*
X141590676Y-67287619D01*
X141924010Y-67287619D02*
X141924010Y-66620952D01*
X141924010Y-66287619D02*
X141876391Y-66335238D01*
X141876391Y-66335238D02*
X141924010Y-66382857D01*
X141924010Y-66382857D02*
X141971629Y-66335238D01*
X141971629Y-66335238D02*
X141924010Y-66287619D01*
X141924010Y-66287619D02*
X141924010Y-66382857D01*
X142400200Y-66620952D02*
X142400200Y-67287619D01*
X142400200Y-66716190D02*
X142447819Y-66668571D01*
X142447819Y-66668571D02*
X142543057Y-66620952D01*
X142543057Y-66620952D02*
X142685914Y-66620952D01*
X142685914Y-66620952D02*
X142781152Y-66668571D01*
X142781152Y-66668571D02*
X142828771Y-66763809D01*
X142828771Y-66763809D02*
X142828771Y-67287619D01*
X143209724Y-66620952D02*
X143447819Y-67287619D01*
X143685914Y-66620952D02*
X143447819Y-67287619D01*
X143447819Y-67287619D02*
X143352581Y-67525714D01*
X143352581Y-67525714D02*
X143304962Y-67573333D01*
X143304962Y-67573333D02*
X143209724Y-67620952D01*
X144019248Y-66382857D02*
X144066867Y-66335238D01*
X144066867Y-66335238D02*
X144162105Y-66287619D01*
X144162105Y-66287619D02*
X144400200Y-66287619D01*
X144400200Y-66287619D02*
X144495438Y-66335238D01*
X144495438Y-66335238D02*
X144543057Y-66382857D01*
X144543057Y-66382857D02*
X144590676Y-66478095D01*
X144590676Y-66478095D02*
X144590676Y-66573333D01*
X144590676Y-66573333D02*
X144543057Y-66716190D01*
X144543057Y-66716190D02*
X143971629Y-67287619D01*
X143971629Y-67287619D02*
X144590676Y-67287619D01*
X145495438Y-66287619D02*
X145019248Y-66287619D01*
X145019248Y-66287619D02*
X144971629Y-66763809D01*
X144971629Y-66763809D02*
X145019248Y-66716190D01*
X145019248Y-66716190D02*
X145114486Y-66668571D01*
X145114486Y-66668571D02*
X145352581Y-66668571D01*
X145352581Y-66668571D02*
X145447819Y-66716190D01*
X145447819Y-66716190D02*
X145495438Y-66763809D01*
X145495438Y-66763809D02*
X145543057Y-66859047D01*
X145543057Y-66859047D02*
X145543057Y-67097142D01*
X145543057Y-67097142D02*
X145495438Y-67192380D01*
X145495438Y-67192380D02*
X145447819Y-67240000D01*
X145447819Y-67240000D02*
X145352581Y-67287619D01*
X145352581Y-67287619D02*
X145114486Y-67287619D01*
X145114486Y-67287619D02*
X145019248Y-67240000D01*
X145019248Y-67240000D02*
X144971629Y-67192380D01*
X146685914Y-66240000D02*
X145828772Y-67525714D01*
X147447819Y-66620952D02*
X147447819Y-67287619D01*
X147209724Y-66240000D02*
X146971629Y-66954285D01*
X146971629Y-66954285D02*
X147590676Y-66954285D01*
X148447819Y-66287619D02*
X147971629Y-66287619D01*
X147971629Y-66287619D02*
X147924010Y-66763809D01*
X147924010Y-66763809D02*
X147971629Y-66716190D01*
X147971629Y-66716190D02*
X148066867Y-66668571D01*
X148066867Y-66668571D02*
X148304962Y-66668571D01*
X148304962Y-66668571D02*
X148400200Y-66716190D01*
X148400200Y-66716190D02*
X148447819Y-66763809D01*
X148447819Y-66763809D02*
X148495438Y-66859047D01*
X148495438Y-66859047D02*
X148495438Y-67097142D01*
X148495438Y-67097142D02*
X148447819Y-67192380D01*
X148447819Y-67192380D02*
X148400200Y-67240000D01*
X148400200Y-67240000D02*
X148304962Y-67287619D01*
X148304962Y-67287619D02*
X148066867Y-67287619D01*
X148066867Y-67287619D02*
X147971629Y-67240000D01*
X147971629Y-67240000D02*
X147924010Y-67192380D01*
X149638295Y-66240000D02*
X148781153Y-67525714D01*
X150114486Y-66716190D02*
X150019248Y-66668571D01*
X150019248Y-66668571D02*
X149971629Y-66620952D01*
X149971629Y-66620952D02*
X149924010Y-66525714D01*
X149924010Y-66525714D02*
X149924010Y-66478095D01*
X149924010Y-66478095D02*
X149971629Y-66382857D01*
X149971629Y-66382857D02*
X150019248Y-66335238D01*
X150019248Y-66335238D02*
X150114486Y-66287619D01*
X150114486Y-66287619D02*
X150304962Y-66287619D01*
X150304962Y-66287619D02*
X150400200Y-66335238D01*
X150400200Y-66335238D02*
X150447819Y-66382857D01*
X150447819Y-66382857D02*
X150495438Y-66478095D01*
X150495438Y-66478095D02*
X150495438Y-66525714D01*
X150495438Y-66525714D02*
X150447819Y-66620952D01*
X150447819Y-66620952D02*
X150400200Y-66668571D01*
X150400200Y-66668571D02*
X150304962Y-66716190D01*
X150304962Y-66716190D02*
X150114486Y-66716190D01*
X150114486Y-66716190D02*
X150019248Y-66763809D01*
X150019248Y-66763809D02*
X149971629Y-66811428D01*
X149971629Y-66811428D02*
X149924010Y-66906666D01*
X149924010Y-66906666D02*
X149924010Y-67097142D01*
X149924010Y-67097142D02*
X149971629Y-67192380D01*
X149971629Y-67192380D02*
X150019248Y-67240000D01*
X150019248Y-67240000D02*
X150114486Y-67287619D01*
X150114486Y-67287619D02*
X150304962Y-67287619D01*
X150304962Y-67287619D02*
X150400200Y-67240000D01*
X150400200Y-67240000D02*
X150447819Y-67192380D01*
X150447819Y-67192380D02*
X150495438Y-67097142D01*
X150495438Y-67097142D02*
X150495438Y-66906666D01*
X150495438Y-66906666D02*
X150447819Y-66811428D01*
X150447819Y-66811428D02*
X150400200Y-66763809D01*
X150400200Y-66763809D02*
X150304962Y-66716190D01*
X151400200Y-66287619D02*
X150924010Y-66287619D01*
X150924010Y-66287619D02*
X150876391Y-66763809D01*
X150876391Y-66763809D02*
X150924010Y-66716190D01*
X150924010Y-66716190D02*
X151019248Y-66668571D01*
X151019248Y-66668571D02*
X151257343Y-66668571D01*
X151257343Y-66668571D02*
X151352581Y-66716190D01*
X151352581Y-66716190D02*
X151400200Y-66763809D01*
X151400200Y-66763809D02*
X151447819Y-66859047D01*
X151447819Y-66859047D02*
X151447819Y-67097142D01*
X151447819Y-67097142D02*
X151400200Y-67192380D01*
X151400200Y-67192380D02*
X151352581Y-67240000D01*
X151352581Y-67240000D02*
X151257343Y-67287619D01*
X151257343Y-67287619D02*
X151019248Y-67287619D01*
X151019248Y-67287619D02*
X150924010Y-67240000D01*
X150924010Y-67240000D02*
X150876391Y-67192380D01*
X151828772Y-66287619D02*
X151828772Y-66478095D01*
X152209724Y-66287619D02*
X152209724Y-66478095D01*
X131257342Y-68907619D02*
X131257342Y-67907619D01*
X131257342Y-68288571D02*
X131352580Y-68240952D01*
X131352580Y-68240952D02*
X131543056Y-68240952D01*
X131543056Y-68240952D02*
X131638294Y-68288571D01*
X131638294Y-68288571D02*
X131685913Y-68336190D01*
X131685913Y-68336190D02*
X131733532Y-68431428D01*
X131733532Y-68431428D02*
X131733532Y-68717142D01*
X131733532Y-68717142D02*
X131685913Y-68812380D01*
X131685913Y-68812380D02*
X131638294Y-68860000D01*
X131638294Y-68860000D02*
X131543056Y-68907619D01*
X131543056Y-68907619D02*
X131352580Y-68907619D01*
X131352580Y-68907619D02*
X131257342Y-68860000D01*
X132162104Y-68812380D02*
X132209723Y-68860000D01*
X132209723Y-68860000D02*
X132162104Y-68907619D01*
X132162104Y-68907619D02*
X132114485Y-68860000D01*
X132114485Y-68860000D02*
X132162104Y-68812380D01*
X132162104Y-68812380D02*
X132162104Y-68907619D01*
X133400199Y-68907619D02*
X133400199Y-67907619D01*
X133400199Y-67907619D02*
X133781151Y-67907619D01*
X133781151Y-67907619D02*
X133876389Y-67955238D01*
X133876389Y-67955238D02*
X133924008Y-68002857D01*
X133924008Y-68002857D02*
X133971627Y-68098095D01*
X133971627Y-68098095D02*
X133971627Y-68240952D01*
X133971627Y-68240952D02*
X133924008Y-68336190D01*
X133924008Y-68336190D02*
X133876389Y-68383809D01*
X133876389Y-68383809D02*
X133781151Y-68431428D01*
X133781151Y-68431428D02*
X133400199Y-68431428D01*
X134400199Y-68907619D02*
X134400199Y-68240952D01*
X134400199Y-68431428D02*
X134447818Y-68336190D01*
X134447818Y-68336190D02*
X134495437Y-68288571D01*
X134495437Y-68288571D02*
X134590675Y-68240952D01*
X134590675Y-68240952D02*
X134685913Y-68240952D01*
X135162104Y-68907619D02*
X135066866Y-68860000D01*
X135066866Y-68860000D02*
X135019247Y-68812380D01*
X135019247Y-68812380D02*
X134971628Y-68717142D01*
X134971628Y-68717142D02*
X134971628Y-68431428D01*
X134971628Y-68431428D02*
X135019247Y-68336190D01*
X135019247Y-68336190D02*
X135066866Y-68288571D01*
X135066866Y-68288571D02*
X135162104Y-68240952D01*
X135162104Y-68240952D02*
X135304961Y-68240952D01*
X135304961Y-68240952D02*
X135400199Y-68288571D01*
X135400199Y-68288571D02*
X135447818Y-68336190D01*
X135447818Y-68336190D02*
X135495437Y-68431428D01*
X135495437Y-68431428D02*
X135495437Y-68717142D01*
X135495437Y-68717142D02*
X135447818Y-68812380D01*
X135447818Y-68812380D02*
X135400199Y-68860000D01*
X135400199Y-68860000D02*
X135304961Y-68907619D01*
X135304961Y-68907619D02*
X135162104Y-68907619D01*
X136352580Y-68860000D02*
X136257342Y-68907619D01*
X136257342Y-68907619D02*
X136066866Y-68907619D01*
X136066866Y-68907619D02*
X135971628Y-68860000D01*
X135971628Y-68860000D02*
X135924009Y-68812380D01*
X135924009Y-68812380D02*
X135876390Y-68717142D01*
X135876390Y-68717142D02*
X135876390Y-68431428D01*
X135876390Y-68431428D02*
X135924009Y-68336190D01*
X135924009Y-68336190D02*
X135971628Y-68288571D01*
X135971628Y-68288571D02*
X136066866Y-68240952D01*
X136066866Y-68240952D02*
X136257342Y-68240952D01*
X136257342Y-68240952D02*
X136352580Y-68288571D01*
X137162104Y-68860000D02*
X137066866Y-68907619D01*
X137066866Y-68907619D02*
X136876390Y-68907619D01*
X136876390Y-68907619D02*
X136781152Y-68860000D01*
X136781152Y-68860000D02*
X136733533Y-68764761D01*
X136733533Y-68764761D02*
X136733533Y-68383809D01*
X136733533Y-68383809D02*
X136781152Y-68288571D01*
X136781152Y-68288571D02*
X136876390Y-68240952D01*
X136876390Y-68240952D02*
X137066866Y-68240952D01*
X137066866Y-68240952D02*
X137162104Y-68288571D01*
X137162104Y-68288571D02*
X137209723Y-68383809D01*
X137209723Y-68383809D02*
X137209723Y-68479047D01*
X137209723Y-68479047D02*
X136733533Y-68574285D01*
X137590676Y-68860000D02*
X137685914Y-68907619D01*
X137685914Y-68907619D02*
X137876390Y-68907619D01*
X137876390Y-68907619D02*
X137971628Y-68860000D01*
X137971628Y-68860000D02*
X138019247Y-68764761D01*
X138019247Y-68764761D02*
X138019247Y-68717142D01*
X138019247Y-68717142D02*
X137971628Y-68621904D01*
X137971628Y-68621904D02*
X137876390Y-68574285D01*
X137876390Y-68574285D02*
X137733533Y-68574285D01*
X137733533Y-68574285D02*
X137638295Y-68526666D01*
X137638295Y-68526666D02*
X137590676Y-68431428D01*
X137590676Y-68431428D02*
X137590676Y-68383809D01*
X137590676Y-68383809D02*
X137638295Y-68288571D01*
X137638295Y-68288571D02*
X137733533Y-68240952D01*
X137733533Y-68240952D02*
X137876390Y-68240952D01*
X137876390Y-68240952D02*
X137971628Y-68288571D01*
X138400200Y-68860000D02*
X138495438Y-68907619D01*
X138495438Y-68907619D02*
X138685914Y-68907619D01*
X138685914Y-68907619D02*
X138781152Y-68860000D01*
X138781152Y-68860000D02*
X138828771Y-68764761D01*
X138828771Y-68764761D02*
X138828771Y-68717142D01*
X138828771Y-68717142D02*
X138781152Y-68621904D01*
X138781152Y-68621904D02*
X138685914Y-68574285D01*
X138685914Y-68574285D02*
X138543057Y-68574285D01*
X138543057Y-68574285D02*
X138447819Y-68526666D01*
X138447819Y-68526666D02*
X138400200Y-68431428D01*
X138400200Y-68431428D02*
X138400200Y-68383809D01*
X138400200Y-68383809D02*
X138447819Y-68288571D01*
X138447819Y-68288571D02*
X138543057Y-68240952D01*
X138543057Y-68240952D02*
X138685914Y-68240952D01*
X138685914Y-68240952D02*
X138781152Y-68288571D01*
X139400200Y-68907619D02*
X139304962Y-68860000D01*
X139304962Y-68860000D02*
X139257343Y-68812380D01*
X139257343Y-68812380D02*
X139209724Y-68717142D01*
X139209724Y-68717142D02*
X139209724Y-68431428D01*
X139209724Y-68431428D02*
X139257343Y-68336190D01*
X139257343Y-68336190D02*
X139304962Y-68288571D01*
X139304962Y-68288571D02*
X139400200Y-68240952D01*
X139400200Y-68240952D02*
X139543057Y-68240952D01*
X139543057Y-68240952D02*
X139638295Y-68288571D01*
X139638295Y-68288571D02*
X139685914Y-68336190D01*
X139685914Y-68336190D02*
X139733533Y-68431428D01*
X139733533Y-68431428D02*
X139733533Y-68717142D01*
X139733533Y-68717142D02*
X139685914Y-68812380D01*
X139685914Y-68812380D02*
X139638295Y-68860000D01*
X139638295Y-68860000D02*
X139543057Y-68907619D01*
X139543057Y-68907619D02*
X139400200Y-68907619D01*
X140162105Y-68907619D02*
X140162105Y-68240952D01*
X140162105Y-68431428D02*
X140209724Y-68336190D01*
X140209724Y-68336190D02*
X140257343Y-68288571D01*
X140257343Y-68288571D02*
X140352581Y-68240952D01*
X140352581Y-68240952D02*
X140447819Y-68240952D01*
X140781153Y-68812380D02*
X140828772Y-68860000D01*
X140828772Y-68860000D02*
X140781153Y-68907619D01*
X140781153Y-68907619D02*
X140733534Y-68860000D01*
X140733534Y-68860000D02*
X140781153Y-68812380D01*
X140781153Y-68812380D02*
X140781153Y-68907619D01*
X140781153Y-68288571D02*
X140828772Y-68336190D01*
X140828772Y-68336190D02*
X140781153Y-68383809D01*
X140781153Y-68383809D02*
X140733534Y-68336190D01*
X140733534Y-68336190D02*
X140781153Y-68288571D01*
X140781153Y-68288571D02*
X140781153Y-68383809D01*
X141971629Y-67907619D02*
X141971629Y-68098095D01*
X142352581Y-67907619D02*
X142352581Y-68098095D01*
X142733534Y-68621904D02*
X143209724Y-68621904D01*
X142638296Y-68907619D02*
X142971629Y-67907619D01*
X142971629Y-67907619D02*
X143304962Y-68907619D01*
X143495439Y-67907619D02*
X144066867Y-67907619D01*
X143781153Y-68907619D02*
X143781153Y-67907619D01*
X144257344Y-68240952D02*
X144638296Y-68240952D01*
X144400201Y-67907619D02*
X144400201Y-68764761D01*
X144400201Y-68764761D02*
X144447820Y-68860000D01*
X144447820Y-68860000D02*
X144543058Y-68907619D01*
X144543058Y-68907619D02*
X144638296Y-68907619D01*
X144971630Y-68907619D02*
X144971630Y-68240952D01*
X144971630Y-67907619D02*
X144924011Y-67955238D01*
X144924011Y-67955238D02*
X144971630Y-68002857D01*
X144971630Y-68002857D02*
X145019249Y-67955238D01*
X145019249Y-67955238D02*
X144971630Y-67907619D01*
X144971630Y-67907619D02*
X144971630Y-68002857D01*
X145447820Y-68240952D02*
X145447820Y-68907619D01*
X145447820Y-68336190D02*
X145495439Y-68288571D01*
X145495439Y-68288571D02*
X145590677Y-68240952D01*
X145590677Y-68240952D02*
X145733534Y-68240952D01*
X145733534Y-68240952D02*
X145828772Y-68288571D01*
X145828772Y-68288571D02*
X145876391Y-68383809D01*
X145876391Y-68383809D02*
X145876391Y-68907619D01*
X146257344Y-68240952D02*
X146495439Y-68907619D01*
X146733534Y-68240952D02*
X146495439Y-68907619D01*
X146495439Y-68907619D02*
X146400201Y-69145714D01*
X146400201Y-69145714D02*
X146352582Y-69193333D01*
X146352582Y-69193333D02*
X146257344Y-69240952D01*
X147257344Y-68336190D02*
X147162106Y-68288571D01*
X147162106Y-68288571D02*
X147114487Y-68240952D01*
X147114487Y-68240952D02*
X147066868Y-68145714D01*
X147066868Y-68145714D02*
X147066868Y-68098095D01*
X147066868Y-68098095D02*
X147114487Y-68002857D01*
X147114487Y-68002857D02*
X147162106Y-67955238D01*
X147162106Y-67955238D02*
X147257344Y-67907619D01*
X147257344Y-67907619D02*
X147447820Y-67907619D01*
X147447820Y-67907619D02*
X147543058Y-67955238D01*
X147543058Y-67955238D02*
X147590677Y-68002857D01*
X147590677Y-68002857D02*
X147638296Y-68098095D01*
X147638296Y-68098095D02*
X147638296Y-68145714D01*
X147638296Y-68145714D02*
X147590677Y-68240952D01*
X147590677Y-68240952D02*
X147543058Y-68288571D01*
X147543058Y-68288571D02*
X147447820Y-68336190D01*
X147447820Y-68336190D02*
X147257344Y-68336190D01*
X147257344Y-68336190D02*
X147162106Y-68383809D01*
X147162106Y-68383809D02*
X147114487Y-68431428D01*
X147114487Y-68431428D02*
X147066868Y-68526666D01*
X147066868Y-68526666D02*
X147066868Y-68717142D01*
X147066868Y-68717142D02*
X147114487Y-68812380D01*
X147114487Y-68812380D02*
X147162106Y-68860000D01*
X147162106Y-68860000D02*
X147257344Y-68907619D01*
X147257344Y-68907619D02*
X147447820Y-68907619D01*
X147447820Y-68907619D02*
X147543058Y-68860000D01*
X147543058Y-68860000D02*
X147590677Y-68812380D01*
X147590677Y-68812380D02*
X147638296Y-68717142D01*
X147638296Y-68717142D02*
X147638296Y-68526666D01*
X147638296Y-68526666D02*
X147590677Y-68431428D01*
X147590677Y-68431428D02*
X147543058Y-68383809D01*
X147543058Y-68383809D02*
X147447820Y-68336190D01*
X148543058Y-67907619D02*
X148066868Y-67907619D01*
X148066868Y-67907619D02*
X148019249Y-68383809D01*
X148019249Y-68383809D02*
X148066868Y-68336190D01*
X148066868Y-68336190D02*
X148162106Y-68288571D01*
X148162106Y-68288571D02*
X148400201Y-68288571D01*
X148400201Y-68288571D02*
X148495439Y-68336190D01*
X148495439Y-68336190D02*
X148543058Y-68383809D01*
X148543058Y-68383809D02*
X148590677Y-68479047D01*
X148590677Y-68479047D02*
X148590677Y-68717142D01*
X148590677Y-68717142D02*
X148543058Y-68812380D01*
X148543058Y-68812380D02*
X148495439Y-68860000D01*
X148495439Y-68860000D02*
X148400201Y-68907619D01*
X148400201Y-68907619D02*
X148162106Y-68907619D01*
X148162106Y-68907619D02*
X148066868Y-68860000D01*
X148066868Y-68860000D02*
X148019249Y-68812380D01*
X148971630Y-67907619D02*
X148971630Y-68098095D01*
X149352582Y-67907619D02*
X149352582Y-68098095D01*
X131685913Y-70480000D02*
X131590675Y-70527619D01*
X131590675Y-70527619D02*
X131400199Y-70527619D01*
X131400199Y-70527619D02*
X131304961Y-70480000D01*
X131304961Y-70480000D02*
X131257342Y-70432380D01*
X131257342Y-70432380D02*
X131209723Y-70337142D01*
X131209723Y-70337142D02*
X131209723Y-70051428D01*
X131209723Y-70051428D02*
X131257342Y-69956190D01*
X131257342Y-69956190D02*
X131304961Y-69908571D01*
X131304961Y-69908571D02*
X131400199Y-69860952D01*
X131400199Y-69860952D02*
X131590675Y-69860952D01*
X131590675Y-69860952D02*
X131685913Y-69908571D01*
X132114485Y-70432380D02*
X132162104Y-70480000D01*
X132162104Y-70480000D02*
X132114485Y-70527619D01*
X132114485Y-70527619D02*
X132066866Y-70480000D01*
X132066866Y-70480000D02*
X132114485Y-70432380D01*
X132114485Y-70432380D02*
X132114485Y-70527619D01*
X133924008Y-70432380D02*
X133876389Y-70480000D01*
X133876389Y-70480000D02*
X133733532Y-70527619D01*
X133733532Y-70527619D02*
X133638294Y-70527619D01*
X133638294Y-70527619D02*
X133495437Y-70480000D01*
X133495437Y-70480000D02*
X133400199Y-70384761D01*
X133400199Y-70384761D02*
X133352580Y-70289523D01*
X133352580Y-70289523D02*
X133304961Y-70099047D01*
X133304961Y-70099047D02*
X133304961Y-69956190D01*
X133304961Y-69956190D02*
X133352580Y-69765714D01*
X133352580Y-69765714D02*
X133400199Y-69670476D01*
X133400199Y-69670476D02*
X133495437Y-69575238D01*
X133495437Y-69575238D02*
X133638294Y-69527619D01*
X133638294Y-69527619D02*
X133733532Y-69527619D01*
X133733532Y-69527619D02*
X133876389Y-69575238D01*
X133876389Y-69575238D02*
X133924008Y-69622857D01*
X134495437Y-70527619D02*
X134400199Y-70480000D01*
X134400199Y-70480000D02*
X134352580Y-70384761D01*
X134352580Y-70384761D02*
X134352580Y-69527619D01*
X135019247Y-70527619D02*
X134924009Y-70480000D01*
X134924009Y-70480000D02*
X134876390Y-70432380D01*
X134876390Y-70432380D02*
X134828771Y-70337142D01*
X134828771Y-70337142D02*
X134828771Y-70051428D01*
X134828771Y-70051428D02*
X134876390Y-69956190D01*
X134876390Y-69956190D02*
X134924009Y-69908571D01*
X134924009Y-69908571D02*
X135019247Y-69860952D01*
X135019247Y-69860952D02*
X135162104Y-69860952D01*
X135162104Y-69860952D02*
X135257342Y-69908571D01*
X135257342Y-69908571D02*
X135304961Y-69956190D01*
X135304961Y-69956190D02*
X135352580Y-70051428D01*
X135352580Y-70051428D02*
X135352580Y-70337142D01*
X135352580Y-70337142D02*
X135304961Y-70432380D01*
X135304961Y-70432380D02*
X135257342Y-70480000D01*
X135257342Y-70480000D02*
X135162104Y-70527619D01*
X135162104Y-70527619D02*
X135019247Y-70527619D01*
X136209723Y-70480000D02*
X136114485Y-70527619D01*
X136114485Y-70527619D02*
X135924009Y-70527619D01*
X135924009Y-70527619D02*
X135828771Y-70480000D01*
X135828771Y-70480000D02*
X135781152Y-70432380D01*
X135781152Y-70432380D02*
X135733533Y-70337142D01*
X135733533Y-70337142D02*
X135733533Y-70051428D01*
X135733533Y-70051428D02*
X135781152Y-69956190D01*
X135781152Y-69956190D02*
X135828771Y-69908571D01*
X135828771Y-69908571D02*
X135924009Y-69860952D01*
X135924009Y-69860952D02*
X136114485Y-69860952D01*
X136114485Y-69860952D02*
X136209723Y-69908571D01*
X136638295Y-70527619D02*
X136638295Y-69527619D01*
X136733533Y-70146666D02*
X137019247Y-70527619D01*
X137019247Y-69860952D02*
X136638295Y-70241904D01*
X137447819Y-70432380D02*
X137495438Y-70480000D01*
X137495438Y-70480000D02*
X137447819Y-70527619D01*
X137447819Y-70527619D02*
X137400200Y-70480000D01*
X137400200Y-70480000D02*
X137447819Y-70432380D01*
X137447819Y-70432380D02*
X137447819Y-70527619D01*
X137447819Y-69908571D02*
X137495438Y-69956190D01*
X137495438Y-69956190D02*
X137447819Y-70003809D01*
X137447819Y-70003809D02*
X137400200Y-69956190D01*
X137400200Y-69956190D02*
X137447819Y-69908571D01*
X137447819Y-69908571D02*
X137447819Y-70003809D01*
X138638295Y-69527619D02*
X138638295Y-69718095D01*
X139019247Y-69527619D02*
X139019247Y-69718095D01*
X139447819Y-70527619D02*
X139447819Y-69527619D01*
X139924009Y-69860952D02*
X139924009Y-70527619D01*
X139924009Y-69956190D02*
X139971628Y-69908571D01*
X139971628Y-69908571D02*
X140066866Y-69860952D01*
X140066866Y-69860952D02*
X140209723Y-69860952D01*
X140209723Y-69860952D02*
X140304961Y-69908571D01*
X140304961Y-69908571D02*
X140352580Y-70003809D01*
X140352580Y-70003809D02*
X140352580Y-70527619D01*
X140685914Y-69860952D02*
X141066866Y-69860952D01*
X140828771Y-69527619D02*
X140828771Y-70384761D01*
X140828771Y-70384761D02*
X140876390Y-70480000D01*
X140876390Y-70480000D02*
X140971628Y-70527619D01*
X140971628Y-70527619D02*
X141066866Y-70527619D01*
X141781152Y-70480000D02*
X141685914Y-70527619D01*
X141685914Y-70527619D02*
X141495438Y-70527619D01*
X141495438Y-70527619D02*
X141400200Y-70480000D01*
X141400200Y-70480000D02*
X141352581Y-70384761D01*
X141352581Y-70384761D02*
X141352581Y-70003809D01*
X141352581Y-70003809D02*
X141400200Y-69908571D01*
X141400200Y-69908571D02*
X141495438Y-69860952D01*
X141495438Y-69860952D02*
X141685914Y-69860952D01*
X141685914Y-69860952D02*
X141781152Y-69908571D01*
X141781152Y-69908571D02*
X141828771Y-70003809D01*
X141828771Y-70003809D02*
X141828771Y-70099047D01*
X141828771Y-70099047D02*
X141352581Y-70194285D01*
X142257343Y-70527619D02*
X142257343Y-69860952D01*
X142257343Y-70051428D02*
X142304962Y-69956190D01*
X142304962Y-69956190D02*
X142352581Y-69908571D01*
X142352581Y-69908571D02*
X142447819Y-69860952D01*
X142447819Y-69860952D02*
X142543057Y-69860952D01*
X142876391Y-69860952D02*
X142876391Y-70527619D01*
X142876391Y-69956190D02*
X142924010Y-69908571D01*
X142924010Y-69908571D02*
X143019248Y-69860952D01*
X143019248Y-69860952D02*
X143162105Y-69860952D01*
X143162105Y-69860952D02*
X143257343Y-69908571D01*
X143257343Y-69908571D02*
X143304962Y-70003809D01*
X143304962Y-70003809D02*
X143304962Y-70527619D01*
X144209724Y-70527619D02*
X144209724Y-70003809D01*
X144209724Y-70003809D02*
X144162105Y-69908571D01*
X144162105Y-69908571D02*
X144066867Y-69860952D01*
X144066867Y-69860952D02*
X143876391Y-69860952D01*
X143876391Y-69860952D02*
X143781153Y-69908571D01*
X144209724Y-70480000D02*
X144114486Y-70527619D01*
X144114486Y-70527619D02*
X143876391Y-70527619D01*
X143876391Y-70527619D02*
X143781153Y-70480000D01*
X143781153Y-70480000D02*
X143733534Y-70384761D01*
X143733534Y-70384761D02*
X143733534Y-70289523D01*
X143733534Y-70289523D02*
X143781153Y-70194285D01*
X143781153Y-70194285D02*
X143876391Y-70146666D01*
X143876391Y-70146666D02*
X144114486Y-70146666D01*
X144114486Y-70146666D02*
X144209724Y-70099047D01*
X144828772Y-70527619D02*
X144733534Y-70480000D01*
X144733534Y-70480000D02*
X144685915Y-70384761D01*
X144685915Y-70384761D02*
X144685915Y-69527619D01*
X146114487Y-69956190D02*
X146019249Y-69908571D01*
X146019249Y-69908571D02*
X145971630Y-69860952D01*
X145971630Y-69860952D02*
X145924011Y-69765714D01*
X145924011Y-69765714D02*
X145924011Y-69718095D01*
X145924011Y-69718095D02*
X145971630Y-69622857D01*
X145971630Y-69622857D02*
X146019249Y-69575238D01*
X146019249Y-69575238D02*
X146114487Y-69527619D01*
X146114487Y-69527619D02*
X146304963Y-69527619D01*
X146304963Y-69527619D02*
X146400201Y-69575238D01*
X146400201Y-69575238D02*
X146447820Y-69622857D01*
X146447820Y-69622857D02*
X146495439Y-69718095D01*
X146495439Y-69718095D02*
X146495439Y-69765714D01*
X146495439Y-69765714D02*
X146447820Y-69860952D01*
X146447820Y-69860952D02*
X146400201Y-69908571D01*
X146400201Y-69908571D02*
X146304963Y-69956190D01*
X146304963Y-69956190D02*
X146114487Y-69956190D01*
X146114487Y-69956190D02*
X146019249Y-70003809D01*
X146019249Y-70003809D02*
X145971630Y-70051428D01*
X145971630Y-70051428D02*
X145924011Y-70146666D01*
X145924011Y-70146666D02*
X145924011Y-70337142D01*
X145924011Y-70337142D02*
X145971630Y-70432380D01*
X145971630Y-70432380D02*
X146019249Y-70480000D01*
X146019249Y-70480000D02*
X146114487Y-70527619D01*
X146114487Y-70527619D02*
X146304963Y-70527619D01*
X146304963Y-70527619D02*
X146400201Y-70480000D01*
X146400201Y-70480000D02*
X146447820Y-70432380D01*
X146447820Y-70432380D02*
X146495439Y-70337142D01*
X146495439Y-70337142D02*
X146495439Y-70146666D01*
X146495439Y-70146666D02*
X146447820Y-70051428D01*
X146447820Y-70051428D02*
X146400201Y-70003809D01*
X146400201Y-70003809D02*
X146304963Y-69956190D01*
X147685916Y-70527619D02*
X147685916Y-69527619D01*
X147685916Y-69527619D02*
X148019249Y-70241904D01*
X148019249Y-70241904D02*
X148352582Y-69527619D01*
X148352582Y-69527619D02*
X148352582Y-70527619D01*
X148828773Y-70527619D02*
X148828773Y-69527619D01*
X148828773Y-70003809D02*
X149400201Y-70003809D01*
X149400201Y-70527619D02*
X149400201Y-69527619D01*
X149781154Y-69860952D02*
X150304963Y-69860952D01*
X150304963Y-69860952D02*
X149781154Y-70527619D01*
X149781154Y-70527619D02*
X150304963Y-70527619D01*
X150638297Y-69527619D02*
X150638297Y-69718095D01*
X151019249Y-69527619D02*
X151019249Y-69718095D01*
X131685913Y-72147619D02*
X131685913Y-71147619D01*
X131685913Y-72100000D02*
X131590675Y-72147619D01*
X131590675Y-72147619D02*
X131400199Y-72147619D01*
X131400199Y-72147619D02*
X131304961Y-72100000D01*
X131304961Y-72100000D02*
X131257342Y-72052380D01*
X131257342Y-72052380D02*
X131209723Y-71957142D01*
X131209723Y-71957142D02*
X131209723Y-71671428D01*
X131209723Y-71671428D02*
X131257342Y-71576190D01*
X131257342Y-71576190D02*
X131304961Y-71528571D01*
X131304961Y-71528571D02*
X131400199Y-71480952D01*
X131400199Y-71480952D02*
X131590675Y-71480952D01*
X131590675Y-71480952D02*
X131685913Y-71528571D01*
X132162104Y-72052380D02*
X132209723Y-72100000D01*
X132209723Y-72100000D02*
X132162104Y-72147619D01*
X132162104Y-72147619D02*
X132114485Y-72100000D01*
X132114485Y-72100000D02*
X132162104Y-72052380D01*
X132162104Y-72052380D02*
X132162104Y-72147619D01*
X133400199Y-72147619D02*
X133400199Y-71147619D01*
X133400199Y-71147619D02*
X133781151Y-71147619D01*
X133781151Y-71147619D02*
X133876389Y-71195238D01*
X133876389Y-71195238D02*
X133924008Y-71242857D01*
X133924008Y-71242857D02*
X133971627Y-71338095D01*
X133971627Y-71338095D02*
X133971627Y-71480952D01*
X133971627Y-71480952D02*
X133924008Y-71576190D01*
X133924008Y-71576190D02*
X133876389Y-71623809D01*
X133876389Y-71623809D02*
X133781151Y-71671428D01*
X133781151Y-71671428D02*
X133400199Y-71671428D01*
X134400199Y-72147619D02*
X134400199Y-71480952D01*
X134400199Y-71671428D02*
X134447818Y-71576190D01*
X134447818Y-71576190D02*
X134495437Y-71528571D01*
X134495437Y-71528571D02*
X134590675Y-71480952D01*
X134590675Y-71480952D02*
X134685913Y-71480952D01*
X135162104Y-72147619D02*
X135066866Y-72100000D01*
X135066866Y-72100000D02*
X135019247Y-72052380D01*
X135019247Y-72052380D02*
X134971628Y-71957142D01*
X134971628Y-71957142D02*
X134971628Y-71671428D01*
X134971628Y-71671428D02*
X135019247Y-71576190D01*
X135019247Y-71576190D02*
X135066866Y-71528571D01*
X135066866Y-71528571D02*
X135162104Y-71480952D01*
X135162104Y-71480952D02*
X135304961Y-71480952D01*
X135304961Y-71480952D02*
X135400199Y-71528571D01*
X135400199Y-71528571D02*
X135447818Y-71576190D01*
X135447818Y-71576190D02*
X135495437Y-71671428D01*
X135495437Y-71671428D02*
X135495437Y-71957142D01*
X135495437Y-71957142D02*
X135447818Y-72052380D01*
X135447818Y-72052380D02*
X135400199Y-72100000D01*
X135400199Y-72100000D02*
X135304961Y-72147619D01*
X135304961Y-72147619D02*
X135162104Y-72147619D01*
X136352580Y-71480952D02*
X136352580Y-72290476D01*
X136352580Y-72290476D02*
X136304961Y-72385714D01*
X136304961Y-72385714D02*
X136257342Y-72433333D01*
X136257342Y-72433333D02*
X136162104Y-72480952D01*
X136162104Y-72480952D02*
X136019247Y-72480952D01*
X136019247Y-72480952D02*
X135924009Y-72433333D01*
X136352580Y-72100000D02*
X136257342Y-72147619D01*
X136257342Y-72147619D02*
X136066866Y-72147619D01*
X136066866Y-72147619D02*
X135971628Y-72100000D01*
X135971628Y-72100000D02*
X135924009Y-72052380D01*
X135924009Y-72052380D02*
X135876390Y-71957142D01*
X135876390Y-71957142D02*
X135876390Y-71671428D01*
X135876390Y-71671428D02*
X135924009Y-71576190D01*
X135924009Y-71576190D02*
X135971628Y-71528571D01*
X135971628Y-71528571D02*
X136066866Y-71480952D01*
X136066866Y-71480952D02*
X136257342Y-71480952D01*
X136257342Y-71480952D02*
X136352580Y-71528571D01*
X136828771Y-72147619D02*
X136828771Y-71480952D01*
X136828771Y-71671428D02*
X136876390Y-71576190D01*
X136876390Y-71576190D02*
X136924009Y-71528571D01*
X136924009Y-71528571D02*
X137019247Y-71480952D01*
X137019247Y-71480952D02*
X137114485Y-71480952D01*
X137876390Y-72147619D02*
X137876390Y-71623809D01*
X137876390Y-71623809D02*
X137828771Y-71528571D01*
X137828771Y-71528571D02*
X137733533Y-71480952D01*
X137733533Y-71480952D02*
X137543057Y-71480952D01*
X137543057Y-71480952D02*
X137447819Y-71528571D01*
X137876390Y-72100000D02*
X137781152Y-72147619D01*
X137781152Y-72147619D02*
X137543057Y-72147619D01*
X137543057Y-72147619D02*
X137447819Y-72100000D01*
X137447819Y-72100000D02*
X137400200Y-72004761D01*
X137400200Y-72004761D02*
X137400200Y-71909523D01*
X137400200Y-71909523D02*
X137447819Y-71814285D01*
X137447819Y-71814285D02*
X137543057Y-71766666D01*
X137543057Y-71766666D02*
X137781152Y-71766666D01*
X137781152Y-71766666D02*
X137876390Y-71719047D01*
X138352581Y-72147619D02*
X138352581Y-71480952D01*
X138352581Y-71576190D02*
X138400200Y-71528571D01*
X138400200Y-71528571D02*
X138495438Y-71480952D01*
X138495438Y-71480952D02*
X138638295Y-71480952D01*
X138638295Y-71480952D02*
X138733533Y-71528571D01*
X138733533Y-71528571D02*
X138781152Y-71623809D01*
X138781152Y-71623809D02*
X138781152Y-72147619D01*
X138781152Y-71623809D02*
X138828771Y-71528571D01*
X138828771Y-71528571D02*
X138924009Y-71480952D01*
X138924009Y-71480952D02*
X139066866Y-71480952D01*
X139066866Y-71480952D02*
X139162105Y-71528571D01*
X139162105Y-71528571D02*
X139209724Y-71623809D01*
X139209724Y-71623809D02*
X139209724Y-72147619D01*
X139685914Y-72147619D02*
X139685914Y-71480952D01*
X139685914Y-71576190D02*
X139733533Y-71528571D01*
X139733533Y-71528571D02*
X139828771Y-71480952D01*
X139828771Y-71480952D02*
X139971628Y-71480952D01*
X139971628Y-71480952D02*
X140066866Y-71528571D01*
X140066866Y-71528571D02*
X140114485Y-71623809D01*
X140114485Y-71623809D02*
X140114485Y-72147619D01*
X140114485Y-71623809D02*
X140162104Y-71528571D01*
X140162104Y-71528571D02*
X140257342Y-71480952D01*
X140257342Y-71480952D02*
X140400199Y-71480952D01*
X140400199Y-71480952D02*
X140495438Y-71528571D01*
X140495438Y-71528571D02*
X140543057Y-71623809D01*
X140543057Y-71623809D02*
X140543057Y-72147619D01*
X141400199Y-72100000D02*
X141304961Y-72147619D01*
X141304961Y-72147619D02*
X141114485Y-72147619D01*
X141114485Y-72147619D02*
X141019247Y-72100000D01*
X141019247Y-72100000D02*
X140971628Y-72004761D01*
X140971628Y-72004761D02*
X140971628Y-71623809D01*
X140971628Y-71623809D02*
X141019247Y-71528571D01*
X141019247Y-71528571D02*
X141114485Y-71480952D01*
X141114485Y-71480952D02*
X141304961Y-71480952D01*
X141304961Y-71480952D02*
X141400199Y-71528571D01*
X141400199Y-71528571D02*
X141447818Y-71623809D01*
X141447818Y-71623809D02*
X141447818Y-71719047D01*
X141447818Y-71719047D02*
X140971628Y-71814285D01*
X141876390Y-72147619D02*
X141876390Y-71480952D01*
X141876390Y-71671428D02*
X141924009Y-71576190D01*
X141924009Y-71576190D02*
X141971628Y-71528571D01*
X141971628Y-71528571D02*
X142066866Y-71480952D01*
X142066866Y-71480952D02*
X142162104Y-71480952D01*
X142495438Y-72052380D02*
X142543057Y-72100000D01*
X142543057Y-72100000D02*
X142495438Y-72147619D01*
X142495438Y-72147619D02*
X142447819Y-72100000D01*
X142447819Y-72100000D02*
X142495438Y-72052380D01*
X142495438Y-72052380D02*
X142495438Y-72147619D01*
X142495438Y-71528571D02*
X142543057Y-71576190D01*
X142543057Y-71576190D02*
X142495438Y-71623809D01*
X142495438Y-71623809D02*
X142447819Y-71576190D01*
X142447819Y-71576190D02*
X142495438Y-71528571D01*
X142495438Y-71528571D02*
X142495438Y-71623809D01*
X143685914Y-71147619D02*
X143685914Y-71338095D01*
X144066866Y-71147619D02*
X144066866Y-71338095D01*
X144447819Y-71861904D02*
X144924009Y-71861904D01*
X144352581Y-72147619D02*
X144685914Y-71147619D01*
X144685914Y-71147619D02*
X145019247Y-72147619D01*
X145352581Y-72147619D02*
X145352581Y-71480952D01*
X145352581Y-71671428D02*
X145400200Y-71576190D01*
X145400200Y-71576190D02*
X145447819Y-71528571D01*
X145447819Y-71528571D02*
X145543057Y-71480952D01*
X145543057Y-71480952D02*
X145638295Y-71480952D01*
X146400200Y-72147619D02*
X146400200Y-71147619D01*
X146400200Y-72100000D02*
X146304962Y-72147619D01*
X146304962Y-72147619D02*
X146114486Y-72147619D01*
X146114486Y-72147619D02*
X146019248Y-72100000D01*
X146019248Y-72100000D02*
X145971629Y-72052380D01*
X145971629Y-72052380D02*
X145924010Y-71957142D01*
X145924010Y-71957142D02*
X145924010Y-71671428D01*
X145924010Y-71671428D02*
X145971629Y-71576190D01*
X145971629Y-71576190D02*
X146019248Y-71528571D01*
X146019248Y-71528571D02*
X146114486Y-71480952D01*
X146114486Y-71480952D02*
X146304962Y-71480952D01*
X146304962Y-71480952D02*
X146400200Y-71528571D01*
X147304962Y-71480952D02*
X147304962Y-72147619D01*
X146876391Y-71480952D02*
X146876391Y-72004761D01*
X146876391Y-72004761D02*
X146924010Y-72100000D01*
X146924010Y-72100000D02*
X147019248Y-72147619D01*
X147019248Y-72147619D02*
X147162105Y-72147619D01*
X147162105Y-72147619D02*
X147257343Y-72100000D01*
X147257343Y-72100000D02*
X147304962Y-72052380D01*
X147781153Y-72147619D02*
X147781153Y-71480952D01*
X147781153Y-71147619D02*
X147733534Y-71195238D01*
X147733534Y-71195238D02*
X147781153Y-71242857D01*
X147781153Y-71242857D02*
X147828772Y-71195238D01*
X147828772Y-71195238D02*
X147781153Y-71147619D01*
X147781153Y-71147619D02*
X147781153Y-71242857D01*
X148257343Y-71480952D02*
X148257343Y-72147619D01*
X148257343Y-71576190D02*
X148304962Y-71528571D01*
X148304962Y-71528571D02*
X148400200Y-71480952D01*
X148400200Y-71480952D02*
X148543057Y-71480952D01*
X148543057Y-71480952D02*
X148638295Y-71528571D01*
X148638295Y-71528571D02*
X148685914Y-71623809D01*
X148685914Y-71623809D02*
X148685914Y-72147619D01*
X149304962Y-72147619D02*
X149209724Y-72100000D01*
X149209724Y-72100000D02*
X149162105Y-72052380D01*
X149162105Y-72052380D02*
X149114486Y-71957142D01*
X149114486Y-71957142D02*
X149114486Y-71671428D01*
X149114486Y-71671428D02*
X149162105Y-71576190D01*
X149162105Y-71576190D02*
X149209724Y-71528571D01*
X149209724Y-71528571D02*
X149304962Y-71480952D01*
X149304962Y-71480952D02*
X149447819Y-71480952D01*
X149447819Y-71480952D02*
X149543057Y-71528571D01*
X149543057Y-71528571D02*
X149590676Y-71576190D01*
X149590676Y-71576190D02*
X149638295Y-71671428D01*
X149638295Y-71671428D02*
X149638295Y-71957142D01*
X149638295Y-71957142D02*
X149590676Y-72052380D01*
X149590676Y-72052380D02*
X149543057Y-72100000D01*
X149543057Y-72100000D02*
X149447819Y-72147619D01*
X149447819Y-72147619D02*
X149304962Y-72147619D01*
X151257343Y-72147619D02*
X151257343Y-71623809D01*
X151257343Y-71623809D02*
X151209724Y-71528571D01*
X151209724Y-71528571D02*
X151114486Y-71480952D01*
X151114486Y-71480952D02*
X150924010Y-71480952D01*
X150924010Y-71480952D02*
X150828772Y-71528571D01*
X151257343Y-72100000D02*
X151162105Y-72147619D01*
X151162105Y-72147619D02*
X150924010Y-72147619D01*
X150924010Y-72147619D02*
X150828772Y-72100000D01*
X150828772Y-72100000D02*
X150781153Y-72004761D01*
X150781153Y-72004761D02*
X150781153Y-71909523D01*
X150781153Y-71909523D02*
X150828772Y-71814285D01*
X150828772Y-71814285D02*
X150924010Y-71766666D01*
X150924010Y-71766666D02*
X151162105Y-71766666D01*
X151162105Y-71766666D02*
X151257343Y-71719047D01*
X151685915Y-72100000D02*
X151781153Y-72147619D01*
X151781153Y-72147619D02*
X151971629Y-72147619D01*
X151971629Y-72147619D02*
X152066867Y-72100000D01*
X152066867Y-72100000D02*
X152114486Y-72004761D01*
X152114486Y-72004761D02*
X152114486Y-71957142D01*
X152114486Y-71957142D02*
X152066867Y-71861904D01*
X152066867Y-71861904D02*
X151971629Y-71814285D01*
X151971629Y-71814285D02*
X151828772Y-71814285D01*
X151828772Y-71814285D02*
X151733534Y-71766666D01*
X151733534Y-71766666D02*
X151685915Y-71671428D01*
X151685915Y-71671428D02*
X151685915Y-71623809D01*
X151685915Y-71623809D02*
X151733534Y-71528571D01*
X151733534Y-71528571D02*
X151828772Y-71480952D01*
X151828772Y-71480952D02*
X151971629Y-71480952D01*
X151971629Y-71480952D02*
X152066867Y-71528571D01*
X153304963Y-72147619D02*
X153304963Y-71147619D01*
X153733534Y-72100000D02*
X153876391Y-72147619D01*
X153876391Y-72147619D02*
X154114486Y-72147619D01*
X154114486Y-72147619D02*
X154209724Y-72100000D01*
X154209724Y-72100000D02*
X154257343Y-72052380D01*
X154257343Y-72052380D02*
X154304962Y-71957142D01*
X154304962Y-71957142D02*
X154304962Y-71861904D01*
X154304962Y-71861904D02*
X154257343Y-71766666D01*
X154257343Y-71766666D02*
X154209724Y-71719047D01*
X154209724Y-71719047D02*
X154114486Y-71671428D01*
X154114486Y-71671428D02*
X153924010Y-71623809D01*
X153924010Y-71623809D02*
X153828772Y-71576190D01*
X153828772Y-71576190D02*
X153781153Y-71528571D01*
X153781153Y-71528571D02*
X153733534Y-71433333D01*
X153733534Y-71433333D02*
X153733534Y-71338095D01*
X153733534Y-71338095D02*
X153781153Y-71242857D01*
X153781153Y-71242857D02*
X153828772Y-71195238D01*
X153828772Y-71195238D02*
X153924010Y-71147619D01*
X153924010Y-71147619D02*
X154162105Y-71147619D01*
X154162105Y-71147619D02*
X154304962Y-71195238D01*
X154733534Y-72147619D02*
X154733534Y-71147619D01*
X154733534Y-71147619D02*
X155114486Y-71147619D01*
X155114486Y-71147619D02*
X155209724Y-71195238D01*
X155209724Y-71195238D02*
X155257343Y-71242857D01*
X155257343Y-71242857D02*
X155304962Y-71338095D01*
X155304962Y-71338095D02*
X155304962Y-71480952D01*
X155304962Y-71480952D02*
X155257343Y-71576190D01*
X155257343Y-71576190D02*
X155209724Y-71623809D01*
X155209724Y-71623809D02*
X155114486Y-71671428D01*
X155114486Y-71671428D02*
X154733534Y-71671428D01*
X155685915Y-71147619D02*
X155685915Y-71338095D01*
X156066867Y-71147619D02*
X156066867Y-71338095D01*
D10*
X147520741Y-87377618D02*
X147520741Y-86377618D01*
X147520741Y-86377618D02*
X147758836Y-86377618D01*
X147758836Y-86377618D02*
X147901693Y-86425237D01*
X147901693Y-86425237D02*
X147996931Y-86520475D01*
X147996931Y-86520475D02*
X148044550Y-86615713D01*
X148044550Y-86615713D02*
X148092169Y-86806189D01*
X148092169Y-86806189D02*
X148092169Y-86949046D01*
X148092169Y-86949046D02*
X148044550Y-87139522D01*
X148044550Y-87139522D02*
X147996931Y-87234760D01*
X147996931Y-87234760D02*
X147901693Y-87329999D01*
X147901693Y-87329999D02*
X147758836Y-87377618D01*
X147758836Y-87377618D02*
X147520741Y-87377618D01*
X149044550Y-87377618D02*
X148473122Y-87377618D01*
X148758836Y-87377618D02*
X148758836Y-86377618D01*
X148758836Y-86377618D02*
X148663598Y-86520475D01*
X148663598Y-86520475D02*
X148568360Y-86615713D01*
X148568360Y-86615713D02*
X148473122Y-86663332D01*
X149377884Y-86377618D02*
X149996931Y-86377618D01*
X149996931Y-86377618D02*
X149663598Y-86758570D01*
X149663598Y-86758570D02*
X149806455Y-86758570D01*
X149806455Y-86758570D02*
X149901693Y-86806189D01*
X149901693Y-86806189D02*
X149949312Y-86853808D01*
X149949312Y-86853808D02*
X149996931Y-86949046D01*
X149996931Y-86949046D02*
X149996931Y-87187141D01*
X149996931Y-87187141D02*
X149949312Y-87282379D01*
X149949312Y-87282379D02*
X149901693Y-87329999D01*
X149901693Y-87329999D02*
X149806455Y-87377618D01*
X149806455Y-87377618D02*
X149520741Y-87377618D01*
X149520741Y-87377618D02*
X149425503Y-87329999D01*
X149425503Y-87329999D02*
X149377884Y-87282379D01*
X147520741Y-89895166D02*
X147520741Y-88895166D01*
X147520741Y-88895166D02*
X147758836Y-88895166D01*
X147758836Y-88895166D02*
X147901693Y-88942785D01*
X147901693Y-88942785D02*
X147996931Y-89038023D01*
X147996931Y-89038023D02*
X148044550Y-89133261D01*
X148044550Y-89133261D02*
X148092169Y-89323737D01*
X148092169Y-89323737D02*
X148092169Y-89466594D01*
X148092169Y-89466594D02*
X148044550Y-89657070D01*
X148044550Y-89657070D02*
X147996931Y-89752308D01*
X147996931Y-89752308D02*
X147901693Y-89847547D01*
X147901693Y-89847547D02*
X147758836Y-89895166D01*
X147758836Y-89895166D02*
X147520741Y-89895166D01*
X149044550Y-89895166D02*
X148473122Y-89895166D01*
X148758836Y-89895166D02*
X148758836Y-88895166D01*
X148758836Y-88895166D02*
X148663598Y-89038023D01*
X148663598Y-89038023D02*
X148568360Y-89133261D01*
X148568360Y-89133261D02*
X148473122Y-89180880D01*
X149425503Y-88990404D02*
X149473122Y-88942785D01*
X149473122Y-88942785D02*
X149568360Y-88895166D01*
X149568360Y-88895166D02*
X149806455Y-88895166D01*
X149806455Y-88895166D02*
X149901693Y-88942785D01*
X149901693Y-88942785D02*
X149949312Y-88990404D01*
X149949312Y-88990404D02*
X149996931Y-89085642D01*
X149996931Y-89085642D02*
X149996931Y-89180880D01*
X149996931Y-89180880D02*
X149949312Y-89323737D01*
X149949312Y-89323737D02*
X149377884Y-89895166D01*
X149377884Y-89895166D02*
X149996931Y-89895166D01*
X148097560Y-81260894D02*
X148002322Y-81213275D01*
X148002322Y-81213275D02*
X147859465Y-81213275D01*
X147859465Y-81213275D02*
X147716608Y-81260894D01*
X147716608Y-81260894D02*
X147621370Y-81356132D01*
X147621370Y-81356132D02*
X147573751Y-81451370D01*
X147573751Y-81451370D02*
X147526132Y-81641846D01*
X147526132Y-81641846D02*
X147526132Y-81784703D01*
X147526132Y-81784703D02*
X147573751Y-81975179D01*
X147573751Y-81975179D02*
X147621370Y-82070417D01*
X147621370Y-82070417D02*
X147716608Y-82165656D01*
X147716608Y-82165656D02*
X147859465Y-82213275D01*
X147859465Y-82213275D02*
X147954703Y-82213275D01*
X147954703Y-82213275D02*
X148097560Y-82165656D01*
X148097560Y-82165656D02*
X148145179Y-82118036D01*
X148145179Y-82118036D02*
X148145179Y-81784703D01*
X148145179Y-81784703D02*
X147954703Y-81784703D01*
X148573751Y-82213275D02*
X148573751Y-81213275D01*
X148573751Y-81213275D02*
X149145179Y-82213275D01*
X149145179Y-82213275D02*
X149145179Y-81213275D01*
X149621370Y-82213275D02*
X149621370Y-81213275D01*
X149621370Y-81213275D02*
X149859465Y-81213275D01*
X149859465Y-81213275D02*
X150002322Y-81260894D01*
X150002322Y-81260894D02*
X150097560Y-81356132D01*
X150097560Y-81356132D02*
X150145179Y-81451370D01*
X150145179Y-81451370D02*
X150192798Y-81641846D01*
X150192798Y-81641846D02*
X150192798Y-81784703D01*
X150192798Y-81784703D02*
X150145179Y-81975179D01*
X150145179Y-81975179D02*
X150097560Y-82070417D01*
X150097560Y-82070417D02*
X150002322Y-82165656D01*
X150002322Y-82165656D02*
X149859465Y-82213275D01*
X149859465Y-82213275D02*
X149621370Y-82213275D01*
X147520741Y-84780149D02*
X147520741Y-83780149D01*
X147520741Y-83780149D02*
X147758836Y-83780149D01*
X147758836Y-83780149D02*
X147901693Y-83827768D01*
X147901693Y-83827768D02*
X147996931Y-83923006D01*
X147996931Y-83923006D02*
X148044550Y-84018244D01*
X148044550Y-84018244D02*
X148092169Y-84208720D01*
X148092169Y-84208720D02*
X148092169Y-84351577D01*
X148092169Y-84351577D02*
X148044550Y-84542053D01*
X148044550Y-84542053D02*
X147996931Y-84637291D01*
X147996931Y-84637291D02*
X147901693Y-84732530D01*
X147901693Y-84732530D02*
X147758836Y-84780149D01*
X147758836Y-84780149D02*
X147520741Y-84780149D01*
X149044550Y-84780149D02*
X148473122Y-84780149D01*
X148758836Y-84780149D02*
X148758836Y-83780149D01*
X148758836Y-83780149D02*
X148663598Y-83923006D01*
X148663598Y-83923006D02*
X148568360Y-84018244D01*
X148568360Y-84018244D02*
X148473122Y-84065863D01*
X149663598Y-83780149D02*
X149758836Y-83780149D01*
X149758836Y-83780149D02*
X149854074Y-83827768D01*
X149854074Y-83827768D02*
X149901693Y-83875387D01*
X149901693Y-83875387D02*
X149949312Y-83970625D01*
X149949312Y-83970625D02*
X149996931Y-84161101D01*
X149996931Y-84161101D02*
X149996931Y-84399196D01*
X149996931Y-84399196D02*
X149949312Y-84589672D01*
X149949312Y-84589672D02*
X149901693Y-84684910D01*
X149901693Y-84684910D02*
X149854074Y-84732530D01*
X149854074Y-84732530D02*
X149758836Y-84780149D01*
X149758836Y-84780149D02*
X149663598Y-84780149D01*
X149663598Y-84780149D02*
X149568360Y-84732530D01*
X149568360Y-84732530D02*
X149520741Y-84684910D01*
X149520741Y-84684910D02*
X149473122Y-84589672D01*
X149473122Y-84589672D02*
X149425503Y-84399196D01*
X149425503Y-84399196D02*
X149425503Y-84161101D01*
X149425503Y-84161101D02*
X149473122Y-83970625D01*
X149473122Y-83970625D02*
X149520741Y-83875387D01*
X149520741Y-83875387D02*
X149568360Y-83827768D01*
X149568360Y-83827768D02*
X149663598Y-83780149D01*
D11*
X157309521Y-64047619D02*
X156976188Y-63571428D01*
X156738093Y-64047619D02*
X156738093Y-63047619D01*
X156738093Y-63047619D02*
X157119045Y-63047619D01*
X157119045Y-63047619D02*
X157214283Y-63095238D01*
X157214283Y-63095238D02*
X157261902Y-63142857D01*
X157261902Y-63142857D02*
X157309521Y-63238095D01*
X157309521Y-63238095D02*
X157309521Y-63380952D01*
X157309521Y-63380952D02*
X157261902Y-63476190D01*
X157261902Y-63476190D02*
X157214283Y-63523809D01*
X157214283Y-63523809D02*
X157119045Y-63571428D01*
X157119045Y-63571428D02*
X156738093Y-63571428D01*
X158166664Y-64047619D02*
X158166664Y-63523809D01*
X158166664Y-63523809D02*
X158119045Y-63428571D01*
X158119045Y-63428571D02*
X158023807Y-63380952D01*
X158023807Y-63380952D02*
X157833331Y-63380952D01*
X157833331Y-63380952D02*
X157738093Y-63428571D01*
X158166664Y-64000000D02*
X158071426Y-64047619D01*
X158071426Y-64047619D02*
X157833331Y-64047619D01*
X157833331Y-64047619D02*
X157738093Y-64000000D01*
X157738093Y-64000000D02*
X157690474Y-63904761D01*
X157690474Y-63904761D02*
X157690474Y-63809523D01*
X157690474Y-63809523D02*
X157738093Y-63714285D01*
X157738093Y-63714285D02*
X157833331Y-63666666D01*
X157833331Y-63666666D02*
X158071426Y-63666666D01*
X158071426Y-63666666D02*
X158166664Y-63619047D01*
X159071426Y-63380952D02*
X159071426Y-64190476D01*
X159071426Y-64190476D02*
X159023807Y-64285714D01*
X159023807Y-64285714D02*
X158976188Y-64333333D01*
X158976188Y-64333333D02*
X158880950Y-64380952D01*
X158880950Y-64380952D02*
X158738093Y-64380952D01*
X158738093Y-64380952D02*
X158642855Y-64333333D01*
X159071426Y-64000000D02*
X158976188Y-64047619D01*
X158976188Y-64047619D02*
X158785712Y-64047619D01*
X158785712Y-64047619D02*
X158690474Y-64000000D01*
X158690474Y-64000000D02*
X158642855Y-63952380D01*
X158642855Y-63952380D02*
X158595236Y-63857142D01*
X158595236Y-63857142D02*
X158595236Y-63571428D01*
X158595236Y-63571428D02*
X158642855Y-63476190D01*
X158642855Y-63476190D02*
X158690474Y-63428571D01*
X158690474Y-63428571D02*
X158785712Y-63380952D01*
X158785712Y-63380952D02*
X158976188Y-63380952D01*
X158976188Y-63380952D02*
X159071426Y-63428571D01*
X160071426Y-63095238D02*
X159976188Y-63047619D01*
X159976188Y-63047619D02*
X159833331Y-63047619D01*
X159833331Y-63047619D02*
X159690474Y-63095238D01*
X159690474Y-63095238D02*
X159595236Y-63190476D01*
X159595236Y-63190476D02*
X159547617Y-63285714D01*
X159547617Y-63285714D02*
X159499998Y-63476190D01*
X159499998Y-63476190D02*
X159499998Y-63619047D01*
X159499998Y-63619047D02*
X159547617Y-63809523D01*
X159547617Y-63809523D02*
X159595236Y-63904761D01*
X159595236Y-63904761D02*
X159690474Y-64000000D01*
X159690474Y-64000000D02*
X159833331Y-64047619D01*
X159833331Y-64047619D02*
X159928569Y-64047619D01*
X159928569Y-64047619D02*
X160071426Y-64000000D01*
X160071426Y-64000000D02*
X160119045Y-63952380D01*
X160119045Y-63952380D02*
X160119045Y-63619047D01*
X160119045Y-63619047D02*
X159928569Y-63619047D01*
X160976188Y-63380952D02*
X160976188Y-64047619D01*
X160547617Y-63380952D02*
X160547617Y-63904761D01*
X160547617Y-63904761D02*
X160595236Y-64000000D01*
X160595236Y-64000000D02*
X160690474Y-64047619D01*
X160690474Y-64047619D02*
X160833331Y-64047619D01*
X160833331Y-64047619D02*
X160928569Y-64000000D01*
X160928569Y-64000000D02*
X160976188Y-63952380D01*
X161880950Y-64047619D02*
X161880950Y-63523809D01*
X161880950Y-63523809D02*
X161833331Y-63428571D01*
X161833331Y-63428571D02*
X161738093Y-63380952D01*
X161738093Y-63380952D02*
X161547617Y-63380952D01*
X161547617Y-63380952D02*
X161452379Y-63428571D01*
X161880950Y-64000000D02*
X161785712Y-64047619D01*
X161785712Y-64047619D02*
X161547617Y-64047619D01*
X161547617Y-64047619D02*
X161452379Y-64000000D01*
X161452379Y-64000000D02*
X161404760Y-63904761D01*
X161404760Y-63904761D02*
X161404760Y-63809523D01*
X161404760Y-63809523D02*
X161452379Y-63714285D01*
X161452379Y-63714285D02*
X161547617Y-63666666D01*
X161547617Y-63666666D02*
X161785712Y-63666666D01*
X161785712Y-63666666D02*
X161880950Y-63619047D01*
X162357141Y-64047619D02*
X162357141Y-63380952D01*
X162357141Y-63571428D02*
X162404760Y-63476190D01*
X162404760Y-63476190D02*
X162452379Y-63428571D01*
X162452379Y-63428571D02*
X162547617Y-63380952D01*
X162547617Y-63380952D02*
X162642855Y-63380952D01*
X163404760Y-64047619D02*
X163404760Y-63047619D01*
X163404760Y-64000000D02*
X163309522Y-64047619D01*
X163309522Y-64047619D02*
X163119046Y-64047619D01*
X163119046Y-64047619D02*
X163023808Y-64000000D01*
X163023808Y-64000000D02*
X162976189Y-63952380D01*
X162976189Y-63952380D02*
X162928570Y-63857142D01*
X162928570Y-63857142D02*
X162928570Y-63571428D01*
X162928570Y-63571428D02*
X162976189Y-63476190D01*
X162976189Y-63476190D02*
X163023808Y-63428571D01*
X163023808Y-63428571D02*
X163119046Y-63380952D01*
X163119046Y-63380952D02*
X163309522Y-63380952D01*
X163309522Y-63380952D02*
X163404760Y-63428571D01*
X164642856Y-64047619D02*
X164642856Y-63047619D01*
X164642856Y-63047619D02*
X165023808Y-63047619D01*
X165023808Y-63047619D02*
X165119046Y-63095238D01*
X165119046Y-63095238D02*
X165166665Y-63142857D01*
X165166665Y-63142857D02*
X165214284Y-63238095D01*
X165214284Y-63238095D02*
X165214284Y-63380952D01*
X165214284Y-63380952D02*
X165166665Y-63476190D01*
X165166665Y-63476190D02*
X165119046Y-63523809D01*
X165119046Y-63523809D02*
X165023808Y-63571428D01*
X165023808Y-63571428D02*
X164642856Y-63571428D01*
X165642856Y-64047619D02*
X165642856Y-63380952D01*
X165642856Y-63571428D02*
X165690475Y-63476190D01*
X165690475Y-63476190D02*
X165738094Y-63428571D01*
X165738094Y-63428571D02*
X165833332Y-63380952D01*
X165833332Y-63380952D02*
X165928570Y-63380952D01*
X166404761Y-64047619D02*
X166309523Y-64000000D01*
X166309523Y-64000000D02*
X166261904Y-63952380D01*
X166261904Y-63952380D02*
X166214285Y-63857142D01*
X166214285Y-63857142D02*
X166214285Y-63571428D01*
X166214285Y-63571428D02*
X166261904Y-63476190D01*
X166261904Y-63476190D02*
X166309523Y-63428571D01*
X166309523Y-63428571D02*
X166404761Y-63380952D01*
X166404761Y-63380952D02*
X166547618Y-63380952D01*
X166547618Y-63380952D02*
X166642856Y-63428571D01*
X166642856Y-63428571D02*
X166690475Y-63476190D01*
X166690475Y-63476190D02*
X166738094Y-63571428D01*
X166738094Y-63571428D02*
X166738094Y-63857142D01*
X166738094Y-63857142D02*
X166690475Y-63952380D01*
X166690475Y-63952380D02*
X166642856Y-64000000D01*
X166642856Y-64000000D02*
X166547618Y-64047619D01*
X166547618Y-64047619D02*
X166404761Y-64047619D01*
X167595237Y-63380952D02*
X167595237Y-64190476D01*
X167595237Y-64190476D02*
X167547618Y-64285714D01*
X167547618Y-64285714D02*
X167499999Y-64333333D01*
X167499999Y-64333333D02*
X167404761Y-64380952D01*
X167404761Y-64380952D02*
X167261904Y-64380952D01*
X167261904Y-64380952D02*
X167166666Y-64333333D01*
X167595237Y-64000000D02*
X167499999Y-64047619D01*
X167499999Y-64047619D02*
X167309523Y-64047619D01*
X167309523Y-64047619D02*
X167214285Y-64000000D01*
X167214285Y-64000000D02*
X167166666Y-63952380D01*
X167166666Y-63952380D02*
X167119047Y-63857142D01*
X167119047Y-63857142D02*
X167119047Y-63571428D01*
X167119047Y-63571428D02*
X167166666Y-63476190D01*
X167166666Y-63476190D02*
X167214285Y-63428571D01*
X167214285Y-63428571D02*
X167309523Y-63380952D01*
X167309523Y-63380952D02*
X167499999Y-63380952D01*
X167499999Y-63380952D02*
X167595237Y-63428571D01*
X168071428Y-64047619D02*
X168071428Y-63380952D01*
X168071428Y-63571428D02*
X168119047Y-63476190D01*
X168119047Y-63476190D02*
X168166666Y-63428571D01*
X168166666Y-63428571D02*
X168261904Y-63380952D01*
X168261904Y-63380952D02*
X168357142Y-63380952D01*
X169119047Y-64047619D02*
X169119047Y-63523809D01*
X169119047Y-63523809D02*
X169071428Y-63428571D01*
X169071428Y-63428571D02*
X168976190Y-63380952D01*
X168976190Y-63380952D02*
X168785714Y-63380952D01*
X168785714Y-63380952D02*
X168690476Y-63428571D01*
X169119047Y-64000000D02*
X169023809Y-64047619D01*
X169023809Y-64047619D02*
X168785714Y-64047619D01*
X168785714Y-64047619D02*
X168690476Y-64000000D01*
X168690476Y-64000000D02*
X168642857Y-63904761D01*
X168642857Y-63904761D02*
X168642857Y-63809523D01*
X168642857Y-63809523D02*
X168690476Y-63714285D01*
X168690476Y-63714285D02*
X168785714Y-63666666D01*
X168785714Y-63666666D02*
X169023809Y-63666666D01*
X169023809Y-63666666D02*
X169119047Y-63619047D01*
X169595238Y-64047619D02*
X169595238Y-63380952D01*
X169595238Y-63476190D02*
X169642857Y-63428571D01*
X169642857Y-63428571D02*
X169738095Y-63380952D01*
X169738095Y-63380952D02*
X169880952Y-63380952D01*
X169880952Y-63380952D02*
X169976190Y-63428571D01*
X169976190Y-63428571D02*
X170023809Y-63523809D01*
X170023809Y-63523809D02*
X170023809Y-64047619D01*
X170023809Y-63523809D02*
X170071428Y-63428571D01*
X170071428Y-63428571D02*
X170166666Y-63380952D01*
X170166666Y-63380952D02*
X170309523Y-63380952D01*
X170309523Y-63380952D02*
X170404762Y-63428571D01*
X170404762Y-63428571D02*
X170452381Y-63523809D01*
X170452381Y-63523809D02*
X170452381Y-64047619D01*
X170928571Y-64047619D02*
X170928571Y-63380952D01*
X170928571Y-63476190D02*
X170976190Y-63428571D01*
X170976190Y-63428571D02*
X171071428Y-63380952D01*
X171071428Y-63380952D02*
X171214285Y-63380952D01*
X171214285Y-63380952D02*
X171309523Y-63428571D01*
X171309523Y-63428571D02*
X171357142Y-63523809D01*
X171357142Y-63523809D02*
X171357142Y-64047619D01*
X171357142Y-63523809D02*
X171404761Y-63428571D01*
X171404761Y-63428571D02*
X171499999Y-63380952D01*
X171499999Y-63380952D02*
X171642856Y-63380952D01*
X171642856Y-63380952D02*
X171738095Y-63428571D01*
X171738095Y-63428571D02*
X171785714Y-63523809D01*
X171785714Y-63523809D02*
X171785714Y-64047619D01*
X172642856Y-64000000D02*
X172547618Y-64047619D01*
X172547618Y-64047619D02*
X172357142Y-64047619D01*
X172357142Y-64047619D02*
X172261904Y-64000000D01*
X172261904Y-64000000D02*
X172214285Y-63904761D01*
X172214285Y-63904761D02*
X172214285Y-63523809D01*
X172214285Y-63523809D02*
X172261904Y-63428571D01*
X172261904Y-63428571D02*
X172357142Y-63380952D01*
X172357142Y-63380952D02*
X172547618Y-63380952D01*
X172547618Y-63380952D02*
X172642856Y-63428571D01*
X172642856Y-63428571D02*
X172690475Y-63523809D01*
X172690475Y-63523809D02*
X172690475Y-63619047D01*
X172690475Y-63619047D02*
X172214285Y-63714285D01*
X173119047Y-64047619D02*
X173119047Y-63380952D01*
X173119047Y-63571428D02*
X173166666Y-63476190D01*
X173166666Y-63476190D02*
X173214285Y-63428571D01*
X173214285Y-63428571D02*
X173309523Y-63380952D01*
X173309523Y-63380952D02*
X173404761Y-63380952D01*
X170738094Y-65667619D02*
X170404761Y-65191428D01*
X170166666Y-65667619D02*
X170166666Y-64667619D01*
X170166666Y-64667619D02*
X170547618Y-64667619D01*
X170547618Y-64667619D02*
X170642856Y-64715238D01*
X170642856Y-64715238D02*
X170690475Y-64762857D01*
X170690475Y-64762857D02*
X170738094Y-64858095D01*
X170738094Y-64858095D02*
X170738094Y-65000952D01*
X170738094Y-65000952D02*
X170690475Y-65096190D01*
X170690475Y-65096190D02*
X170642856Y-65143809D01*
X170642856Y-65143809D02*
X170547618Y-65191428D01*
X170547618Y-65191428D02*
X170166666Y-65191428D01*
X171547618Y-65620000D02*
X171452380Y-65667619D01*
X171452380Y-65667619D02*
X171261904Y-65667619D01*
X171261904Y-65667619D02*
X171166666Y-65620000D01*
X171166666Y-65620000D02*
X171119047Y-65524761D01*
X171119047Y-65524761D02*
X171119047Y-65143809D01*
X171119047Y-65143809D02*
X171166666Y-65048571D01*
X171166666Y-65048571D02*
X171261904Y-65000952D01*
X171261904Y-65000952D02*
X171452380Y-65000952D01*
X171452380Y-65000952D02*
X171547618Y-65048571D01*
X171547618Y-65048571D02*
X171595237Y-65143809D01*
X171595237Y-65143809D02*
X171595237Y-65239047D01*
X171595237Y-65239047D02*
X171119047Y-65334285D01*
X171928571Y-65000952D02*
X172166666Y-65667619D01*
X172166666Y-65667619D02*
X172404761Y-65000952D01*
X173309523Y-65667619D02*
X172738095Y-65667619D01*
X173023809Y-65667619D02*
X173023809Y-64667619D01*
X173023809Y-64667619D02*
X172928571Y-64810476D01*
X172928571Y-64810476D02*
X172833333Y-64905714D01*
X172833333Y-64905714D02*
X172738095Y-64953333D01*
D10*
X147391765Y-94421651D02*
X148153670Y-94421651D01*
X147772717Y-94802604D02*
X147772717Y-94040699D01*
X149106050Y-93802604D02*
X148629860Y-93802604D01*
X148629860Y-93802604D02*
X148582241Y-94278794D01*
X148582241Y-94278794D02*
X148629860Y-94231175D01*
X148629860Y-94231175D02*
X148725098Y-94183556D01*
X148725098Y-94183556D02*
X148963193Y-94183556D01*
X148963193Y-94183556D02*
X149058431Y-94231175D01*
X149058431Y-94231175D02*
X149106050Y-94278794D01*
X149106050Y-94278794D02*
X149153669Y-94374032D01*
X149153669Y-94374032D02*
X149153669Y-94612127D01*
X149153669Y-94612127D02*
X149106050Y-94707365D01*
X149106050Y-94707365D02*
X149058431Y-94754985D01*
X149058431Y-94754985D02*
X148963193Y-94802604D01*
X148963193Y-94802604D02*
X148725098Y-94802604D01*
X148725098Y-94802604D02*
X148629860Y-94754985D01*
X148629860Y-94754985D02*
X148582241Y-94707365D01*
X149439384Y-93802604D02*
X149772717Y-94802604D01*
X149772717Y-94802604D02*
X150106050Y-93802604D01*
D12*
%TO.C,J1*%
X135910000Y-80345000D02*
X135910000Y-95705000D01*
X135910000Y-80345000D02*
X144540000Y-80345000D01*
X135910000Y-80465000D02*
X144540000Y-80465000D01*
X135910000Y-80583095D02*
X144540000Y-80583095D01*
X135910000Y-80701190D02*
X144540000Y-80701190D01*
X135910000Y-80819285D02*
X144540000Y-80819285D01*
X135910000Y-80937380D02*
X144540000Y-80937380D01*
X135910000Y-81055475D02*
X144540000Y-81055475D01*
X135910000Y-81173570D02*
X144540000Y-81173570D01*
X135910000Y-81291665D02*
X144540000Y-81291665D01*
X135910000Y-81409760D02*
X144540000Y-81409760D01*
X135910000Y-81527855D02*
X144540000Y-81527855D01*
X135910000Y-81645950D02*
X144540000Y-81645950D01*
X135910000Y-81764045D02*
X144540000Y-81764045D01*
X135910000Y-81882140D02*
X144540000Y-81882140D01*
X135910000Y-82000235D02*
X144540000Y-82000235D01*
X135910000Y-82118330D02*
X144540000Y-82118330D01*
X135910000Y-82236425D02*
X144540000Y-82236425D01*
X135910000Y-82354520D02*
X144540000Y-82354520D01*
X135910000Y-82472615D02*
X144540000Y-82472615D01*
X135910000Y-82590710D02*
X144540000Y-82590710D01*
X135910000Y-82708805D02*
X144540000Y-82708805D01*
X135910000Y-82826900D02*
X144540000Y-82826900D01*
X135910000Y-82945000D02*
X144540000Y-82945000D01*
X135910000Y-85485000D02*
X144540000Y-85485000D01*
X135910000Y-88025000D02*
X144540000Y-88025000D01*
X135910000Y-90565000D02*
X144540000Y-90565000D01*
X135910000Y-93105000D02*
X144540000Y-93105000D01*
X135910000Y-95705000D02*
X144540000Y-95705000D01*
X144540000Y-80345000D02*
X144540000Y-95705000D01*
X144540000Y-81315000D02*
X144890000Y-81315000D01*
X144540000Y-82035000D02*
X144890000Y-82035000D01*
X144540000Y-83855000D02*
X144950000Y-83855000D01*
X144540000Y-84575000D02*
X144950000Y-84575000D01*
X144540000Y-86395000D02*
X144950000Y-86395000D01*
X144540000Y-87115000D02*
X144950000Y-87115000D01*
X144540000Y-88935000D02*
X144950000Y-88935000D01*
X144540000Y-89655000D02*
X144950000Y-89655000D01*
X144540000Y-91475000D02*
X144950000Y-91475000D01*
X144540000Y-92195000D02*
X144950000Y-92195000D01*
X144540000Y-94015000D02*
X144950000Y-94015000D01*
X144540000Y-94735000D02*
X144950000Y-94735000D01*
X146000000Y-80345000D02*
X147110000Y-80345000D01*
X147110000Y-80345000D02*
X147110000Y-81675000D01*
%TO.C,D1*%
X150685000Y-106960000D02*
X150685000Y-105040000D01*
X150685000Y-105040000D02*
X148000000Y-105040000D01*
X148000000Y-106960000D02*
X150685000Y-106960000D01*
%TO.C,R1*%
X149727064Y-103410000D02*
X148272936Y-103410000D01*
X149727064Y-101590000D02*
X148272936Y-101590000D01*
%TO.C,G\u002A\u002A\u002A*%
G36*
X165495289Y-67240256D02*
G01*
X165499743Y-67263327D01*
X165494268Y-67289992D01*
X165479774Y-67294405D01*
X165469303Y-67286835D01*
X165460861Y-67263704D01*
X165472833Y-67242626D01*
X165480175Y-67238631D01*
X165495289Y-67240256D01*
G37*
G36*
X167456600Y-66962866D02*
G01*
X167456600Y-66995480D01*
X167006523Y-66995480D01*
X166556446Y-66995480D01*
X166556446Y-66962866D01*
X166556446Y-66930252D01*
X167006523Y-66930252D01*
X167456600Y-66930252D01*
X167456600Y-66962866D01*
G37*
G36*
X168380504Y-69041503D02*
G01*
X168382846Y-69055933D01*
X168376855Y-69080907D01*
X168369800Y-69089317D01*
X168360126Y-69084698D01*
X168356754Y-69063996D01*
X168361126Y-69039113D01*
X168369800Y-69030611D01*
X168380504Y-69041503D01*
G37*
G36*
X168461120Y-67452080D02*
G01*
X168461120Y-67569492D01*
X168369800Y-67569492D01*
X168278480Y-67569492D01*
X168278480Y-67452080D01*
X168278480Y-67334669D01*
X168369800Y-67334669D01*
X168461120Y-67334669D01*
X168461120Y-67452080D01*
G37*
G36*
X168429927Y-69031791D02*
G01*
X168446242Y-69054011D01*
X168439945Y-69077625D01*
X168410024Y-69105990D01*
X168406779Y-69108418D01*
X168381088Y-69126421D01*
X168371703Y-69128875D01*
X168374550Y-69116523D01*
X168375499Y-69114133D01*
X168387542Y-69083005D01*
X168398647Y-69053024D01*
X168410448Y-69029052D01*
X168423236Y-69027131D01*
X168429927Y-69031791D01*
G37*
G36*
X168116371Y-69054585D02*
G01*
X168131669Y-69085066D01*
X168141753Y-69094752D01*
X168144083Y-69082730D01*
X168140334Y-69063226D01*
X168138662Y-69037606D01*
X168146608Y-69030611D01*
X168157081Y-69041551D01*
X168159677Y-69068114D01*
X168153956Y-69100914D01*
X168150367Y-69111024D01*
X168142192Y-69123522D01*
X168128880Y-69120969D01*
X168104263Y-69102926D01*
X168080409Y-69081009D01*
X168074959Y-69063506D01*
X168083025Y-69043225D01*
X168099025Y-69013330D01*
X168116371Y-69054585D01*
G37*
G36*
X168154695Y-67413115D02*
G01*
X168157224Y-67415127D01*
X168185169Y-67427757D01*
X168218565Y-67432512D01*
X168250160Y-67437993D01*
X168258911Y-67452080D01*
X168249012Y-67466617D01*
X168221190Y-67468940D01*
X168183364Y-67473462D01*
X168156320Y-67485247D01*
X168131485Y-67500714D01*
X168114859Y-67501850D01*
X168098057Y-67492863D01*
X168086500Y-67472539D01*
X168085595Y-67455344D01*
X168098992Y-67455344D01*
X168102788Y-67465815D01*
X168119510Y-67475436D01*
X168137422Y-67465685D01*
X168145718Y-67447738D01*
X168140277Y-67429160D01*
X168130181Y-67425989D01*
X168106471Y-67434945D01*
X168098992Y-67455344D01*
X168085595Y-67455344D01*
X168085011Y-67444253D01*
X168098027Y-67412227D01*
X168123354Y-67401001D01*
X168154695Y-67413115D01*
G37*
G36*
X165827857Y-68809188D02*
G01*
X165868718Y-68835623D01*
X165887320Y-68851374D01*
X165911690Y-68888678D01*
X165924972Y-68940681D01*
X165925605Y-68997793D01*
X165917437Y-69036436D01*
X165899447Y-69070514D01*
X165871749Y-69101372D01*
X165839333Y-69126236D01*
X165807186Y-69142336D01*
X165780296Y-69146898D01*
X165763652Y-69137151D01*
X165760658Y-69123562D01*
X165771561Y-69102069D01*
X165799787Y-69091275D01*
X165837084Y-69071965D01*
X165868345Y-69034987D01*
X165887662Y-68988767D01*
X165891066Y-68961118D01*
X165881046Y-68925741D01*
X165855927Y-68889606D01*
X165823242Y-68860968D01*
X165790527Y-68848077D01*
X165787752Y-68847971D01*
X165765278Y-68839255D01*
X165760658Y-68821880D01*
X165769550Y-68801321D01*
X165793375Y-68797423D01*
X165827857Y-68809188D01*
G37*
G36*
X168640657Y-67405834D02*
G01*
X168654196Y-67415552D01*
X168668962Y-67444019D01*
X168657783Y-67474262D01*
X168649351Y-67483763D01*
X168624111Y-67502083D01*
X168601824Y-67497485D01*
X168586763Y-67484540D01*
X168558502Y-67470836D01*
X168524370Y-67468232D01*
X168492835Y-67466937D01*
X168478673Y-67454029D01*
X168478270Y-67452637D01*
X168591466Y-67452637D01*
X168600546Y-67469746D01*
X168619434Y-67475031D01*
X168634798Y-67462192D01*
X168637237Y-67451172D01*
X168626393Y-67433524D01*
X168614407Y-67428472D01*
X168596093Y-67434071D01*
X168591466Y-67452637D01*
X168478270Y-67452637D01*
X168476606Y-67446897D01*
X168476506Y-67430975D01*
X168489704Y-67426383D01*
X168517691Y-67429638D01*
X168558751Y-67430305D01*
X168579321Y-67418515D01*
X168608028Y-67401515D01*
X168640657Y-67405834D01*
G37*
G36*
X168714653Y-67329887D02*
G01*
X168734741Y-67347105D01*
X168740869Y-67372727D01*
X168727030Y-67401584D01*
X168726849Y-67401784D01*
X168697717Y-67423380D01*
X168671133Y-67419427D01*
X168655863Y-67405284D01*
X168638121Y-67393173D01*
X168607230Y-67388152D01*
X168559684Y-67388977D01*
X168514656Y-67390231D01*
X168490240Y-67386966D01*
X168482315Y-67379265D01*
X168673473Y-67379265D01*
X168676374Y-67386852D01*
X168692894Y-67399689D01*
X168706040Y-67390050D01*
X168708988Y-67373806D01*
X168703844Y-67352602D01*
X168696713Y-67347715D01*
X168678528Y-67358032D01*
X168673473Y-67379265D01*
X168482315Y-67379265D01*
X168481194Y-67378176D01*
X168480688Y-67373806D01*
X168485838Y-67362781D01*
X168504827Y-67357892D01*
X168542965Y-67358090D01*
X168556462Y-67358832D01*
X168606410Y-67359423D01*
X168638485Y-67352870D01*
X168656632Y-67341349D01*
X168686614Y-67326245D01*
X168714653Y-67329887D01*
G37*
G36*
X168075631Y-67334114D02*
G01*
X168083737Y-67342328D01*
X168101478Y-67354439D01*
X168132369Y-67359460D01*
X168179916Y-67358635D01*
X168224944Y-67357381D01*
X168249360Y-67360646D01*
X168258406Y-67369436D01*
X168258911Y-67373806D01*
X168253854Y-67384679D01*
X168235188Y-67389688D01*
X168197671Y-67389840D01*
X168179916Y-67388977D01*
X168130547Y-67388244D01*
X168100410Y-67393571D01*
X168083737Y-67405284D01*
X168056145Y-67424355D01*
X168029307Y-67421371D01*
X168011120Y-67397623D01*
X168009835Y-67393205D01*
X168009721Y-67378595D01*
X168021193Y-67378595D01*
X168023832Y-67386437D01*
X168042895Y-67397281D01*
X168066462Y-67392250D01*
X168079537Y-67377074D01*
X168074932Y-67360181D01*
X168055976Y-67350907D01*
X168034199Y-67353564D01*
X168028262Y-67357891D01*
X168021193Y-67378595D01*
X168009721Y-67378595D01*
X168009554Y-67357346D01*
X168024610Y-67332665D01*
X168048728Y-67323481D01*
X168075631Y-67334114D01*
G37*
G36*
X165815004Y-68695277D02*
G01*
X165884136Y-68717200D01*
X165947031Y-68761662D01*
X165999174Y-68825166D01*
X166012461Y-68848194D01*
X166034558Y-68894986D01*
X166044340Y-68932729D01*
X166044592Y-68973654D01*
X166043580Y-68984951D01*
X166023987Y-69065063D01*
X165984504Y-69136863D01*
X165929176Y-69194987D01*
X165862053Y-69234067D01*
X165853292Y-69237258D01*
X165802586Y-69250438D01*
X165771334Y-69249030D01*
X165760658Y-69233083D01*
X165760658Y-69233068D01*
X165771903Y-69216661D01*
X165796533Y-69206119D01*
X165867509Y-69178945D01*
X165931475Y-69131594D01*
X165946151Y-69116262D01*
X165977651Y-69062701D01*
X165992596Y-68997058D01*
X165990744Y-68927610D01*
X165971858Y-68862637D01*
X165954370Y-68832155D01*
X165924004Y-68800500D01*
X165881815Y-68769465D01*
X165836821Y-68744589D01*
X165798042Y-68731407D01*
X165788864Y-68730560D01*
X165765472Y-68722318D01*
X165760658Y-68709274D01*
X165765293Y-68696194D01*
X165783429Y-68692367D01*
X165815004Y-68695277D01*
G37*
G36*
X168558072Y-67502806D02*
G01*
X168605646Y-67515703D01*
X168632197Y-67535134D01*
X168642722Y-67565699D01*
X168643560Y-67581510D01*
X168652422Y-67616618D01*
X168664911Y-67636469D01*
X168679213Y-67666626D01*
X168668285Y-67694860D01*
X168645403Y-67712115D01*
X168619160Y-67718444D01*
X168599006Y-67705514D01*
X168582209Y-67678065D01*
X168605506Y-67678065D01*
X168612965Y-67690897D01*
X168628928Y-67693931D01*
X168641592Y-67679004D01*
X168643760Y-67666565D01*
X168633300Y-67649941D01*
X168624191Y-67647766D01*
X168607781Y-67657494D01*
X168605506Y-67678065D01*
X168582209Y-67678065D01*
X168580150Y-67674701D01*
X168587255Y-67646109D01*
X168598766Y-67634167D01*
X168613490Y-67606852D01*
X168615073Y-67577126D01*
X168607814Y-67547612D01*
X168588653Y-67535075D01*
X168574481Y-67532673D01*
X168541521Y-67534264D01*
X168520767Y-67542618D01*
X168501798Y-67548573D01*
X168486886Y-67536485D01*
X168476420Y-67513906D01*
X168488878Y-67500862D01*
X168522603Y-67498137D01*
X168558072Y-67502806D01*
G37*
G36*
X166604824Y-70316316D02*
G01*
X166646229Y-70319309D01*
X166675689Y-70325922D01*
X166700267Y-70337482D01*
X166716549Y-70347989D01*
X166757039Y-70382353D01*
X166780351Y-70421707D01*
X166790214Y-70474012D01*
X166791269Y-70507421D01*
X166780092Y-70576550D01*
X166747689Y-70631787D01*
X166695752Y-70671711D01*
X166625972Y-70694902D01*
X166561376Y-70700462D01*
X166491217Y-70700462D01*
X166491217Y-70824397D01*
X166491217Y-70948331D01*
X166451848Y-70948331D01*
X166412479Y-70948331D01*
X166415973Y-70631972D01*
X166418818Y-70374320D01*
X166491217Y-70374320D01*
X166491217Y-70506392D01*
X166491217Y-70638465D01*
X166563816Y-70632444D01*
X166615553Y-70624515D01*
X166651069Y-70608849D01*
X166668969Y-70593869D01*
X166693817Y-70552556D01*
X166702886Y-70500740D01*
X166695095Y-70449477D01*
X166685149Y-70428472D01*
X166655753Y-70402621D01*
X166608011Y-70383864D01*
X166549282Y-70374826D01*
X166533616Y-70374392D01*
X166491217Y-70374320D01*
X166418818Y-70374320D01*
X166419466Y-70315614D01*
X166544410Y-70315614D01*
X166604824Y-70316316D01*
G37*
G36*
X168355821Y-67600982D02*
G01*
X168366972Y-67624174D01*
X168354290Y-67637599D01*
X168318247Y-67640982D01*
X168291162Y-67638768D01*
X168226297Y-67631086D01*
X168226297Y-67677167D01*
X168231901Y-67714171D01*
X168245866Y-67730758D01*
X168262323Y-67748772D01*
X168263425Y-67776700D01*
X168249779Y-67801705D01*
X168224585Y-67815470D01*
X168191192Y-67809029D01*
X168190421Y-67808720D01*
X168179569Y-67793859D01*
X168174739Y-67768403D01*
X168190172Y-67768403D01*
X168193683Y-67778223D01*
X168212597Y-67791154D01*
X168231810Y-67784599D01*
X168239343Y-67765177D01*
X168231517Y-67744025D01*
X168220544Y-67739086D01*
X168197605Y-67748150D01*
X168190172Y-67768403D01*
X168174739Y-67768403D01*
X168174618Y-67767766D01*
X168176010Y-67741649D01*
X168184187Y-67726715D01*
X168187160Y-67726040D01*
X168195986Y-67714621D01*
X168200156Y-67686751D01*
X168200206Y-67682989D01*
X168207371Y-67639615D01*
X168230694Y-67615776D01*
X168271957Y-67608629D01*
X168304944Y-67604525D01*
X168325997Y-67595030D01*
X168343288Y-67590358D01*
X168355821Y-67600982D01*
G37*
G36*
X168426279Y-67591716D02*
G01*
X168448205Y-67599690D01*
X168482599Y-67607332D01*
X168486768Y-67608029D01*
X168518181Y-67616016D01*
X168532232Y-67632229D01*
X168537193Y-67660962D01*
X168547263Y-67699165D01*
X168565673Y-67728971D01*
X168566546Y-67729810D01*
X168587725Y-67754486D01*
X168586909Y-67774473D01*
X168567720Y-67795770D01*
X168538869Y-67814978D01*
X168515258Y-67811818D01*
X168502866Y-67801705D01*
X168488870Y-67775098D01*
X168489575Y-67765177D01*
X168513303Y-67765177D01*
X168521460Y-67786426D01*
X168532871Y-67791269D01*
X168548808Y-67780393D01*
X168552440Y-67765177D01*
X168544283Y-67743929D01*
X168532871Y-67739086D01*
X168516935Y-67749962D01*
X168513303Y-67765177D01*
X168489575Y-67765177D01*
X168490836Y-67747414D01*
X168506780Y-67730758D01*
X168521580Y-67711882D01*
X168526348Y-67677167D01*
X168526348Y-67631086D01*
X168461483Y-67638768D01*
X168420480Y-67640989D01*
X168393934Y-67637190D01*
X168388609Y-67633491D01*
X168388582Y-67614291D01*
X168402518Y-67596293D01*
X168421110Y-67589820D01*
X168426279Y-67591716D01*
G37*
G36*
X168602004Y-67016317D02*
G01*
X168610255Y-67030478D01*
X168608274Y-67056395D01*
X168590095Y-67081121D01*
X168564332Y-67095397D01*
X168549849Y-67095389D01*
X168526921Y-67101040D01*
X168494937Y-67128591D01*
X168474323Y-67151841D01*
X168440536Y-67195767D01*
X168424830Y-67227093D01*
X168425676Y-67250423D01*
X168436501Y-67265694D01*
X168444654Y-67286114D01*
X168442254Y-67294395D01*
X168422962Y-67307108D01*
X168399713Y-67305503D01*
X168390939Y-67298073D01*
X168387621Y-67271000D01*
X168398448Y-67231349D01*
X168420460Y-67186244D01*
X168450695Y-67142807D01*
X168459839Y-67132339D01*
X168488584Y-67097240D01*
X168507992Y-67066051D01*
X168513303Y-67049552D01*
X168513936Y-67047663D01*
X168539394Y-67047663D01*
X168545997Y-67069075D01*
X168562224Y-67071271D01*
X168581632Y-67058407D01*
X168585054Y-67047663D01*
X168574209Y-67029243D01*
X168562224Y-67024055D01*
X168543732Y-67028593D01*
X168539394Y-67047663D01*
X168513936Y-67047663D01*
X168523353Y-67019573D01*
X168547496Y-67002859D01*
X168576717Y-67001183D01*
X168602004Y-67016317D01*
G37*
G36*
X165846693Y-68583987D02*
G01*
X165894922Y-68600207D01*
X165980384Y-68644834D01*
X166049332Y-68706190D01*
X166100971Y-68780390D01*
X166134509Y-68863547D01*
X166149151Y-68951774D01*
X166144103Y-69041184D01*
X166118573Y-69127892D01*
X166071766Y-69208009D01*
X166028726Y-69255490D01*
X165978557Y-69292601D01*
X165914109Y-69326972D01*
X165847030Y-69352928D01*
X165809579Y-69362245D01*
X165777505Y-69366235D01*
X165763558Y-69361107D01*
X165760658Y-69346017D01*
X165767375Y-69327996D01*
X165791421Y-69317646D01*
X165810992Y-69314301D01*
X165896205Y-69290125D01*
X165972970Y-69243221D01*
X166037160Y-69176593D01*
X166068894Y-69126581D01*
X166091767Y-69063496D01*
X166102978Y-68988728D01*
X166101836Y-68913346D01*
X166087651Y-68848424D01*
X166086437Y-68845270D01*
X166050761Y-68781228D01*
X165999471Y-68722718D01*
X165938506Y-68674341D01*
X165873802Y-68640699D01*
X165811297Y-68626394D01*
X165803756Y-68626194D01*
X165773374Y-68622882D01*
X165761667Y-68610165D01*
X165760658Y-68600103D01*
X165769931Y-68579886D01*
X165798324Y-68574514D01*
X165846693Y-68583987D01*
G37*
G36*
X168233011Y-67093304D02*
G01*
X168255712Y-67111072D01*
X168264713Y-67138459D01*
X168255792Y-67167498D01*
X168245866Y-67178120D01*
X168231575Y-67202324D01*
X168226297Y-67233099D01*
X168227435Y-67255531D01*
X168235219Y-67266512D01*
X168256200Y-67269321D01*
X168294787Y-67267377D01*
X168336214Y-67266283D01*
X168357262Y-67270729D01*
X168363273Y-67281882D01*
X168363277Y-67282307D01*
X168358024Y-67296707D01*
X168339060Y-67302816D01*
X168301579Y-67301581D01*
X168278532Y-67299024D01*
X168233376Y-67288472D01*
X168208937Y-67267797D01*
X168200420Y-67232341D01*
X168200206Y-67222953D01*
X168196626Y-67191026D01*
X168187931Y-67172150D01*
X168187160Y-67171597D01*
X168174352Y-67150798D01*
X168175358Y-67135527D01*
X168191933Y-67135527D01*
X168196212Y-67143686D01*
X168216952Y-67152166D01*
X168235080Y-67144369D01*
X168239343Y-67132460D01*
X168229295Y-67115156D01*
X168220544Y-67112892D01*
X168199191Y-67120114D01*
X168191933Y-67135527D01*
X168175358Y-67135527D01*
X168176219Y-67122444D01*
X168190606Y-67098916D01*
X168200832Y-67093124D01*
X168233011Y-67093304D01*
G37*
G36*
X168256740Y-67503709D02*
G01*
X168262531Y-67519680D01*
X168252714Y-67536485D01*
X168233862Y-67549286D01*
X168218832Y-67542618D01*
X168193922Y-67533495D01*
X168165119Y-67532673D01*
X168137384Y-67541264D01*
X168125744Y-67564040D01*
X168124119Y-67574895D01*
X168127856Y-67610327D01*
X168140427Y-67624465D01*
X168157550Y-67646768D01*
X168159297Y-67677610D01*
X168146174Y-67704829D01*
X168136779Y-67712030D01*
X168107481Y-67716987D01*
X168088064Y-67707168D01*
X168072737Y-67692049D01*
X168071120Y-67672842D01*
X168071560Y-67671409D01*
X168090711Y-67671409D01*
X168103286Y-67687576D01*
X168119675Y-67693872D01*
X168123409Y-67692512D01*
X168134030Y-67674578D01*
X168134977Y-67666565D01*
X168125249Y-67650760D01*
X168104685Y-67648767D01*
X168091604Y-67656350D01*
X168090711Y-67671409D01*
X168071560Y-67671409D01*
X168079739Y-67644780D01*
X168090791Y-67607539D01*
X168095988Y-67576922D01*
X168096040Y-67575088D01*
X168102806Y-67541864D01*
X168125476Y-67519916D01*
X168168561Y-67505428D01*
X168181528Y-67502806D01*
X168229187Y-67497823D01*
X168256740Y-67503709D01*
G37*
G36*
X167273960Y-70341705D02*
G01*
X167273960Y-70374320D01*
X167143503Y-70374320D01*
X167013046Y-70374320D01*
X167013046Y-70478685D01*
X167013046Y-70583051D01*
X167123164Y-70583051D01*
X167183357Y-70584310D01*
X167221130Y-70588998D01*
X167240074Y-70598481D01*
X167243778Y-70614128D01*
X167239992Y-70627534D01*
X167230875Y-70638083D01*
X167210105Y-70644465D01*
X167172671Y-70647564D01*
X167122539Y-70648280D01*
X167013046Y-70648280D01*
X167013046Y-70758696D01*
X167013046Y-70869112D01*
X167140242Y-70872846D01*
X167198550Y-70874796D01*
X167235598Y-70877423D01*
X167256205Y-70882105D01*
X167265194Y-70890219D01*
X167267384Y-70903144D01*
X167267437Y-70909194D01*
X167267437Y-70941808D01*
X167110614Y-70945447D01*
X167034054Y-70946150D01*
X166981029Y-70944008D01*
X166949123Y-70938846D01*
X166937758Y-70933054D01*
X166931978Y-70918979D01*
X166927608Y-70888355D01*
X166924531Y-70839003D01*
X166922631Y-70768749D01*
X166921791Y-70675418D01*
X166921726Y-70633692D01*
X166922079Y-70549316D01*
X166923065Y-70473022D01*
X166924578Y-70408931D01*
X166926510Y-70361162D01*
X166928755Y-70333836D01*
X166929644Y-70329727D01*
X166936719Y-70321070D01*
X166952880Y-70315164D01*
X166982268Y-70311523D01*
X167029026Y-70309662D01*
X167097294Y-70309095D01*
X167105762Y-70309091D01*
X167273960Y-70309091D01*
X167273960Y-70341705D01*
G37*
G36*
X167153981Y-66096477D02*
G01*
X167182378Y-66100615D01*
X167194354Y-66108769D01*
X167195686Y-66114895D01*
X167199997Y-66124020D01*
X167215791Y-66129879D01*
X167247359Y-66133114D01*
X167298994Y-66134371D01*
X167326143Y-66134463D01*
X167456600Y-66134463D01*
X167456600Y-66167078D01*
X167456600Y-66199692D01*
X167326143Y-66199692D01*
X167266413Y-66200155D01*
X167228136Y-66202090D01*
X167206684Y-66206316D01*
X167197426Y-66213651D01*
X167195686Y-66222755D01*
X167187542Y-66252649D01*
X167167282Y-66287578D01*
X167141162Y-66319349D01*
X167115438Y-66339769D01*
X167103704Y-66343195D01*
X167078886Y-66332149D01*
X167053567Y-66303706D01*
X167051721Y-66300796D01*
X167032038Y-66264443D01*
X167018702Y-66231933D01*
X167017884Y-66229045D01*
X167014366Y-66218461D01*
X167007693Y-66210787D01*
X166994129Y-66205554D01*
X166969937Y-66202296D01*
X166931383Y-66200545D01*
X166874730Y-66199833D01*
X166796244Y-66199693D01*
X166783332Y-66199692D01*
X166556446Y-66199692D01*
X166556446Y-66167078D01*
X166556446Y-66134463D01*
X166784746Y-66134463D01*
X166868272Y-66134177D01*
X166929094Y-66133126D01*
X166970597Y-66131018D01*
X166996166Y-66127565D01*
X167009183Y-66122476D01*
X167013032Y-66115462D01*
X167013046Y-66114895D01*
X167018416Y-66104263D01*
X167037727Y-66098178D01*
X167075776Y-66095612D01*
X167104366Y-66095326D01*
X167153981Y-66096477D01*
G37*
G36*
X167663885Y-70474336D02*
G01*
X167708052Y-70496138D01*
X167746587Y-70524966D01*
X167768354Y-70552698D01*
X167773999Y-70578269D01*
X167778508Y-70624798D01*
X167781535Y-70687163D01*
X167782736Y-70760241D01*
X167782743Y-70766305D01*
X167782743Y-70948331D01*
X167744616Y-70948331D01*
X167706490Y-70948331D01*
X167702218Y-70773541D01*
X167699968Y-70700576D01*
X167696932Y-70648974D01*
X167692427Y-70614007D01*
X167685773Y-70590948D01*
X167676289Y-70575070D01*
X167673094Y-70571333D01*
X167636213Y-70548353D01*
X167591327Y-70547037D01*
X167547561Y-70566145D01*
X167521765Y-70585546D01*
X167503990Y-70605422D01*
X167492738Y-70630954D01*
X167486505Y-70667321D01*
X167483791Y-70719703D01*
X167483106Y-70788521D01*
X167482777Y-70855280D01*
X167481647Y-70900252D01*
X167478885Y-70927739D01*
X167473659Y-70942045D01*
X167465140Y-70947475D01*
X167452496Y-70948331D01*
X167452251Y-70948331D01*
X167424854Y-70944959D01*
X167413114Y-70939634D01*
X167410275Y-70924345D01*
X167407824Y-70887378D01*
X167405924Y-70833146D01*
X167404740Y-70766062D01*
X167404417Y-70704811D01*
X167404417Y-70478685D01*
X167443554Y-70478685D01*
X167472342Y-70482896D01*
X167482370Y-70498272D01*
X167482691Y-70504020D01*
X167484270Y-70518191D01*
X167492865Y-70520758D01*
X167514265Y-70511056D01*
X167538136Y-70497655D01*
X167577589Y-70478611D01*
X167613050Y-70467217D01*
X167624418Y-70465797D01*
X167663885Y-70474336D01*
G37*
G36*
X166057838Y-70305798D02*
G01*
X166094936Y-70311565D01*
X166125129Y-70323815D01*
X166155107Y-70342987D01*
X166210458Y-70396490D01*
X166249552Y-70464427D01*
X166272629Y-70541954D01*
X166279926Y-70624227D01*
X166271682Y-70706399D01*
X166248135Y-70783626D01*
X166209524Y-70851063D01*
X166156086Y-70903865D01*
X166126632Y-70921885D01*
X166074123Y-70939232D01*
X166008791Y-70947657D01*
X165941116Y-70946939D01*
X165881578Y-70936859D01*
X165856720Y-70927553D01*
X165807917Y-70897766D01*
X165772599Y-70860197D01*
X165744255Y-70807126D01*
X165734436Y-70782558D01*
X165718310Y-70732223D01*
X165710886Y-70684383D01*
X165710740Y-70659810D01*
X165800812Y-70659810D01*
X165813917Y-70734444D01*
X165840932Y-70798025D01*
X165880750Y-70844869D01*
X165889007Y-70850960D01*
X165949470Y-70877563D01*
X166014145Y-70881220D01*
X166075697Y-70861684D01*
X166083013Y-70857474D01*
X166133731Y-70811556D01*
X166166877Y-70746430D01*
X166182396Y-70662222D01*
X166183652Y-70622188D01*
X166175186Y-70531108D01*
X166150934Y-70460785D01*
X166110903Y-70411228D01*
X166055103Y-70382449D01*
X165992634Y-70374320D01*
X165925878Y-70386222D01*
X165871052Y-70420377D01*
X165831341Y-70474450D01*
X165820751Y-70500105D01*
X165802721Y-70579803D01*
X165800812Y-70659810D01*
X165710740Y-70659810D01*
X165710542Y-70626678D01*
X165711468Y-70607538D01*
X165724632Y-70512792D01*
X165753349Y-70437133D01*
X165799060Y-70377702D01*
X165845429Y-70342019D01*
X165882021Y-70321221D01*
X165914672Y-70309598D01*
X165953615Y-70304703D01*
X166004265Y-70304044D01*
X166057838Y-70305798D01*
G37*
G36*
X168174727Y-70314109D02*
G01*
X168213425Y-70334343D01*
X168235944Y-70363341D01*
X168239343Y-70382022D01*
X168235939Y-70405502D01*
X168220985Y-70409165D01*
X168209990Y-70406347D01*
X168181462Y-70394565D01*
X168168244Y-70385899D01*
X168148359Y-70378712D01*
X168113485Y-70374654D01*
X168099754Y-70374320D01*
X168047096Y-70383249D01*
X168009989Y-70408013D01*
X167992376Y-70445578D01*
X167991474Y-70457671D01*
X167998438Y-70490065D01*
X168021359Y-70520680D01*
X168063279Y-70552432D01*
X168127240Y-70588233D01*
X168128454Y-70588853D01*
X168202207Y-70634117D01*
X168250811Y-70682359D01*
X168275135Y-70734598D01*
X168278480Y-70764722D01*
X168267584Y-70819521D01*
X168239105Y-70873692D01*
X168199357Y-70916313D01*
X168185460Y-70925631D01*
X168141678Y-70940828D01*
X168084097Y-70947976D01*
X168022861Y-70947095D01*
X167968112Y-70938205D01*
X167935499Y-70925154D01*
X167906088Y-70898091D01*
X167889651Y-70865522D01*
X167890463Y-70836504D01*
X167892154Y-70833309D01*
X167906923Y-70831829D01*
X167936808Y-70841189D01*
X167960822Y-70852136D01*
X168003861Y-70870289D01*
X168044117Y-70881432D01*
X168059562Y-70883102D01*
X168108862Y-70874500D01*
X168151137Y-70851968D01*
X168178215Y-70820421D01*
X168182322Y-70809282D01*
X168185343Y-70762117D01*
X168167050Y-70722491D01*
X168125527Y-70687335D01*
X168095840Y-70670668D01*
X168026794Y-70633974D01*
X167977977Y-70603146D01*
X167945238Y-70574761D01*
X167924424Y-70545397D01*
X167914243Y-70520984D01*
X167905571Y-70457465D01*
X167921997Y-70399069D01*
X167962646Y-70348473D01*
X167973785Y-70339387D01*
X168019379Y-70315279D01*
X168071922Y-70303649D01*
X168125632Y-70303569D01*
X168174727Y-70314109D01*
G37*
G36*
X167111510Y-66381082D02*
G01*
X167116249Y-66411509D01*
X167117412Y-66441038D01*
X167117412Y-66512789D01*
X167189163Y-66512789D01*
X167260914Y-66512789D01*
X167260914Y-66708475D01*
X167260914Y-66904160D01*
X167006174Y-66904160D01*
X166751434Y-66904160D01*
X166754249Y-66754135D01*
X167052183Y-66754135D01*
X167058706Y-66760658D01*
X167063760Y-66755604D01*
X167147987Y-66755604D01*
X167150026Y-66760658D01*
X167161749Y-66773103D01*
X167163841Y-66773703D01*
X167169445Y-66763610D01*
X167169594Y-66760658D01*
X167159565Y-66748113D01*
X167155779Y-66747612D01*
X167147987Y-66755604D01*
X167063760Y-66755604D01*
X167065229Y-66754135D01*
X167058706Y-66747612D01*
X167052183Y-66754135D01*
X166754249Y-66754135D01*
X166755044Y-66711736D01*
X166755486Y-66688159D01*
X167097785Y-66688159D01*
X167099172Y-66719404D01*
X167104991Y-66731084D01*
X167108575Y-66730989D01*
X167122155Y-66716126D01*
X167122630Y-66710649D01*
X167121683Y-66690474D01*
X167121014Y-66669338D01*
X167143503Y-66669338D01*
X167147954Y-66682044D01*
X167149256Y-66682383D01*
X167160394Y-66673242D01*
X167163072Y-66669338D01*
X167162037Y-66657316D01*
X167157319Y-66656292D01*
X167144034Y-66665762D01*
X167143503Y-66669338D01*
X167121014Y-66669338D01*
X167120485Y-66652645D01*
X167119368Y-66608458D01*
X167117747Y-66565652D01*
X167115362Y-66536384D01*
X167112724Y-66526866D01*
X167112669Y-66526922D01*
X167109558Y-66541604D01*
X167105570Y-66575645D01*
X167101458Y-66622360D01*
X167100571Y-66634233D01*
X167097785Y-66688159D01*
X166755486Y-66688159D01*
X166755934Y-66664284D01*
X167056667Y-66664284D01*
X167058706Y-66669338D01*
X167070429Y-66681783D01*
X167072521Y-66682383D01*
X167078125Y-66672290D01*
X167078274Y-66669338D01*
X167068245Y-66656793D01*
X167064459Y-66656292D01*
X167056667Y-66664284D01*
X166755934Y-66664284D01*
X166758654Y-66519312D01*
X166924987Y-66515661D01*
X167091320Y-66512009D01*
X167091320Y-66440648D01*
X167093476Y-66401476D01*
X167099034Y-66375556D01*
X167104366Y-66369286D01*
X167111510Y-66381082D01*
G37*
G36*
X165563141Y-68636306D02*
G01*
X165573758Y-68664337D01*
X165587836Y-68716061D01*
X165605631Y-68792359D01*
X165613107Y-68826517D01*
X165625695Y-68875933D01*
X165639033Y-68914018D01*
X165650769Y-68934331D01*
X165653000Y-68935814D01*
X165675323Y-68934505D01*
X165707685Y-68922561D01*
X165714483Y-68919087D01*
X165744699Y-68904570D01*
X165764954Y-68903239D01*
X165787669Y-68914876D01*
X165792044Y-68917718D01*
X165819643Y-68947051D01*
X165825121Y-68979170D01*
X165810814Y-69007786D01*
X165779062Y-69026608D01*
X165750067Y-69030611D01*
X165720452Y-69021101D01*
X165708475Y-69011043D01*
X165684787Y-68997373D01*
X165650102Y-68991479D01*
X165649097Y-68991474D01*
X165624241Y-68989997D01*
X165609599Y-68981391D01*
X165604516Y-68969629D01*
X165710484Y-68969629D01*
X165719004Y-68993459D01*
X165731305Y-69003475D01*
X165756224Y-69015521D01*
X165772350Y-69012344D01*
X165784140Y-69001911D01*
X165798833Y-68973894D01*
X165793117Y-68947147D01*
X165773077Y-68932570D01*
X165741829Y-68931871D01*
X165719529Y-68946662D01*
X165710484Y-68969629D01*
X165604516Y-68969629D01*
X165600095Y-68959399D01*
X165591111Y-68919950D01*
X165580910Y-68879314D01*
X165570300Y-68850112D01*
X165564094Y-68840906D01*
X165552516Y-68837061D01*
X165551926Y-68838163D01*
X165549491Y-68852005D01*
X165542826Y-68886529D01*
X165532889Y-68936844D01*
X165520640Y-68998061D01*
X165517875Y-69011788D01*
X165503924Y-69081633D01*
X165490828Y-69148400D01*
X165480020Y-69204696D01*
X165472936Y-69243132D01*
X165472740Y-69244253D01*
X165463462Y-69290242D01*
X165455516Y-69311312D01*
X165448003Y-69308540D01*
X165440085Y-69283281D01*
X165432410Y-69251625D01*
X165420775Y-69204936D01*
X165408010Y-69154546D01*
X165395107Y-69103377D01*
X165383836Y-69057530D01*
X165376735Y-69027350D01*
X165366010Y-69001341D01*
X165343682Y-68992104D01*
X165328944Y-68991474D01*
X165300889Y-68988048D01*
X165292761Y-68975391D01*
X165293495Y-68968644D01*
X165304325Y-68952655D01*
X165332432Y-68946249D01*
X165348169Y-68945814D01*
X165398447Y-68945814D01*
X165423876Y-69028651D01*
X165437326Y-69069622D01*
X165448208Y-69097616D01*
X165454180Y-69106614D01*
X165454199Y-69106596D01*
X165458863Y-69092144D01*
X165466033Y-69059546D01*
X165472737Y-69023758D01*
X165485133Y-68955527D01*
X165498982Y-68883505D01*
X165513282Y-68812429D01*
X165527033Y-68747035D01*
X165539233Y-68692061D01*
X165548881Y-68652244D01*
X165554975Y-68632321D01*
X165555726Y-68631091D01*
X165563141Y-68636306D01*
G37*
G36*
X168317617Y-68836034D02*
G01*
X168317493Y-68942234D01*
X168316997Y-69025346D01*
X168315946Y-69088370D01*
X168314155Y-69134309D01*
X168311441Y-69166164D01*
X168307618Y-69186938D01*
X168302503Y-69199632D01*
X168295912Y-69207249D01*
X168294787Y-69208137D01*
X168286585Y-69216841D01*
X168292636Y-69222127D01*
X168316662Y-69224841D01*
X168362386Y-69225824D01*
X168373061Y-69225882D01*
X168474165Y-69226297D01*
X168474165Y-69180637D01*
X168474165Y-69134977D01*
X168565485Y-69134977D01*
X168656805Y-69134977D01*
X168656805Y-69245866D01*
X168656805Y-69356754D01*
X168267608Y-69356754D01*
X168169337Y-69356473D01*
X168079600Y-69355678D01*
X168001691Y-69354441D01*
X167938904Y-69352834D01*
X167894532Y-69350930D01*
X167871869Y-69348799D01*
X167869714Y-69348057D01*
X167865602Y-69331720D01*
X167862539Y-69296263D01*
X167861071Y-69248651D01*
X167861017Y-69237168D01*
X167861017Y-69134977D01*
X167952337Y-69134977D01*
X168043657Y-69134977D01*
X168043657Y-69180637D01*
X168043657Y-69226297D01*
X168144761Y-69225882D01*
X168194704Y-69225243D01*
X168222377Y-69223179D01*
X168231599Y-69218702D01*
X168226188Y-69210822D01*
X168220490Y-69206275D01*
X168218299Y-69204249D01*
X168252388Y-69204249D01*
X168260330Y-69206413D01*
X168278480Y-69193683D01*
X168297969Y-69171650D01*
X168304571Y-69157025D01*
X168296630Y-69154861D01*
X168278480Y-69167591D01*
X168258990Y-69189624D01*
X168252388Y-69204249D01*
X168218299Y-69204249D01*
X168212877Y-69199234D01*
X168206947Y-69188960D01*
X168202482Y-69172381D01*
X168199264Y-69146427D01*
X168197076Y-69108024D01*
X168195969Y-69064631D01*
X168213251Y-69064631D01*
X168214480Y-69094775D01*
X168220488Y-69103406D01*
X168234764Y-69095072D01*
X168235903Y-69094176D01*
X168262709Y-69069754D01*
X168281129Y-69050180D01*
X168297381Y-69016872D01*
X168303784Y-68972099D01*
X168303784Y-68971906D01*
X168303865Y-68919723D01*
X168258558Y-68968453D01*
X168227850Y-69007701D01*
X168214728Y-69043843D01*
X168213251Y-69064631D01*
X168195969Y-69064631D01*
X168195700Y-69054102D01*
X168194919Y-68981587D01*
X168194514Y-68887410D01*
X168194417Y-68846400D01*
X168213251Y-68846400D01*
X168215055Y-68873979D01*
X168223589Y-68880712D01*
X168238674Y-68874421D01*
X168266043Y-68853013D01*
X168284334Y-68831922D01*
X168296599Y-68804527D01*
X168303313Y-68770727D01*
X168303854Y-68739562D01*
X168297601Y-68720071D01*
X168292189Y-68717514D01*
X168272599Y-68728544D01*
X168249981Y-68756136D01*
X168229386Y-68792042D01*
X168215866Y-68828015D01*
X168213251Y-68846400D01*
X168194417Y-68846400D01*
X168194398Y-68838149D01*
X168193723Y-68508783D01*
X168213251Y-68508783D01*
X168213604Y-68596841D01*
X168213957Y-68684900D01*
X168259264Y-68636170D01*
X168293539Y-68589681D01*
X168304571Y-68548112D01*
X168302045Y-68521691D01*
X168289189Y-68510854D01*
X168258911Y-68508783D01*
X168213251Y-68508783D01*
X168193723Y-68508783D01*
X168193683Y-68489214D01*
X168255650Y-68485238D01*
X168317617Y-68481262D01*
X168317617Y-68836034D01*
G37*
G36*
X165889993Y-67028747D02*
G01*
X165885965Y-67062277D01*
X165875460Y-67084191D01*
X165867394Y-67096930D01*
X165879961Y-67099846D01*
X165906597Y-67089049D01*
X165930824Y-67063656D01*
X165943081Y-67034160D01*
X165943297Y-67030329D01*
X165949706Y-67011580D01*
X165956343Y-67008526D01*
X165968094Y-67019014D01*
X165969389Y-67027028D01*
X165959742Y-67069125D01*
X165929984Y-67099152D01*
X165878887Y-67117757D01*
X165805226Y-67125587D01*
X165781806Y-67125937D01*
X165716908Y-67129235D01*
X165674261Y-67140121D01*
X165650750Y-67160083D01*
X165643257Y-67190609D01*
X165643246Y-67192098D01*
X165648738Y-67209526D01*
X165669684Y-67216519D01*
X165688906Y-67217257D01*
X165719086Y-67220534D01*
X165734172Y-67228591D01*
X165734566Y-67230303D01*
X165745133Y-67241877D01*
X165754135Y-67243349D01*
X165770071Y-67254225D01*
X165773703Y-67269440D01*
X165765546Y-67290689D01*
X165754135Y-67295532D01*
X165738383Y-67306851D01*
X165734566Y-67327756D01*
X165734566Y-67359981D01*
X165900899Y-67363632D01*
X165971004Y-67365653D01*
X166018855Y-67368449D01*
X166048286Y-67372557D01*
X166063133Y-67378511D01*
X166067232Y-67386847D01*
X166067232Y-67386852D01*
X166063129Y-67395204D01*
X166048259Y-67401166D01*
X166018779Y-67405274D01*
X165970850Y-67408069D01*
X165901567Y-67410066D01*
X165735903Y-67413713D01*
X165731973Y-67481818D01*
X165728550Y-67521824D01*
X165721704Y-67542722D01*
X165707589Y-67551490D01*
X165692168Y-67554051D01*
X165665148Y-67562523D01*
X165656459Y-67583754D01*
X165656292Y-67589468D01*
X165644492Y-67621586D01*
X165611522Y-67642904D01*
X165575614Y-67650116D01*
X165572830Y-67652058D01*
X165592104Y-67655146D01*
X165629457Y-67658804D01*
X165643246Y-67659900D01*
X165693576Y-67664467D01*
X165723471Y-67670002D01*
X165738566Y-67678490D01*
X165744497Y-67691915D01*
X165745138Y-67695770D01*
X165744382Y-67713398D01*
X165731646Y-67723740D01*
X165700854Y-67730613D01*
X165686432Y-67732672D01*
X165636275Y-67740223D01*
X165611773Y-67745865D01*
X165613050Y-67749553D01*
X165633881Y-67751102D01*
X165681431Y-67759136D01*
X165727536Y-67777655D01*
X165762382Y-67802111D01*
X165772653Y-67815398D01*
X165784716Y-67858947D01*
X165784105Y-67911262D01*
X165771062Y-67958438D01*
X165770133Y-67960323D01*
X165740934Y-67990092D01*
X165696582Y-68008993D01*
X165640965Y-68019430D01*
X165601195Y-68014840D01*
X165579880Y-67995806D01*
X165576988Y-67982279D01*
X165573846Y-67966869D01*
X165569286Y-67970922D01*
X165553655Y-67987627D01*
X165525084Y-68006700D01*
X165495060Y-68021336D01*
X165477561Y-68025265D01*
X165458331Y-68020165D01*
X165437776Y-68012639D01*
X165412676Y-67997708D01*
X165412586Y-67984574D01*
X165436429Y-67974943D01*
X165463868Y-67971397D01*
X165499654Y-67966557D01*
X165515932Y-67956578D01*
X165519312Y-67941294D01*
X165510674Y-67919951D01*
X165483436Y-67911075D01*
X165456127Y-67901299D01*
X165448483Y-67885517D01*
X165461638Y-67871357D01*
X165476913Y-67867189D01*
X165501456Y-67854229D01*
X165506266Y-67836929D01*
X165501537Y-67819049D01*
X165482557Y-67813438D01*
X165463868Y-67814148D01*
X165433626Y-67810482D01*
X165420202Y-67797657D01*
X165426814Y-67781744D01*
X165442105Y-67773096D01*
X165482883Y-67766363D01*
X165520133Y-67774795D01*
X165548993Y-67794230D01*
X165564600Y-67820503D01*
X165562093Y-67849452D01*
X165550416Y-67865834D01*
X165543860Y-67883967D01*
X165556939Y-67910484D01*
X165570756Y-67928877D01*
X165576648Y-67928098D01*
X165577995Y-67905182D01*
X165578018Y-67892014D01*
X165581756Y-67857109D01*
X165593915Y-67843824D01*
X165597586Y-67843452D01*
X165609892Y-67850435D01*
X165615903Y-67874611D01*
X165617155Y-67908680D01*
X165617913Y-67947283D01*
X165623153Y-67966531D01*
X165637320Y-67973162D01*
X165660206Y-67973909D01*
X165701211Y-67967872D01*
X165724619Y-67947045D01*
X165733964Y-67907349D01*
X165734566Y-67888100D01*
X165731187Y-67848096D01*
X165717518Y-67823123D01*
X165688262Y-67808204D01*
X165639198Y-67798520D01*
X165601440Y-67791542D01*
X165583666Y-67782450D01*
X165579828Y-67767389D01*
X165580492Y-67761115D01*
X165588186Y-67742531D01*
X165609026Y-67731273D01*
X165645852Y-67724071D01*
X165698524Y-67713669D01*
X165725979Y-67702113D01*
X165728954Y-67690900D01*
X165708188Y-67681527D01*
X165664420Y-67675492D01*
X165621186Y-67674057D01*
X165569259Y-67671194D01*
X165539041Y-67663488D01*
X165531850Y-67651798D01*
X165549006Y-67636983D01*
X165557713Y-67632682D01*
X165585533Y-67609049D01*
X165591063Y-67586966D01*
X165586384Y-67565041D01*
X165567244Y-67557070D01*
X165551926Y-67556446D01*
X165529552Y-67555241D01*
X165517907Y-67547345D01*
X165513487Y-67526336D01*
X165512789Y-67485792D01*
X165512789Y-67484695D01*
X165512789Y-67412943D01*
X165343195Y-67412943D01*
X165273959Y-67412722D01*
X165226655Y-67411631D01*
X165197126Y-67409032D01*
X165181213Y-67404285D01*
X165174759Y-67396749D01*
X165173601Y-67386852D01*
X165175039Y-67376200D01*
X165182126Y-67368923D01*
X165199020Y-67364380D01*
X165229880Y-67361931D01*
X165278862Y-67360939D01*
X165343195Y-67360760D01*
X165512789Y-67360760D01*
X165512789Y-67289009D01*
X165512789Y-67217257D01*
X165564972Y-67217257D01*
X165598614Y-67215454D01*
X165613566Y-67207043D01*
X165617141Y-67187524D01*
X165617155Y-67185151D01*
X165628581Y-67144217D01*
X165661800Y-67115910D01*
X165715222Y-67101282D01*
X165746810Y-67099431D01*
X165806212Y-67094092D01*
X165845805Y-67077136D01*
X165870274Y-67045938D01*
X165877744Y-67026074D01*
X165888872Y-66988957D01*
X165889993Y-67028747D01*
G37*
G36*
X167000000Y-67325985D02*
G01*
X166991555Y-67336479D01*
X166968783Y-67361528D01*
X166935523Y-67396963D01*
X166908935Y-67424806D01*
X166835851Y-67507623D01*
X166768588Y-67596737D01*
X166710026Y-67687356D01*
X166663044Y-67774687D01*
X166630520Y-67853939D01*
X166616326Y-67911857D01*
X166608655Y-67967386D01*
X166625407Y-67916516D01*
X166947817Y-67916516D01*
X166959678Y-67919410D01*
X166991090Y-67918950D01*
X167035801Y-67915633D01*
X167087557Y-67909956D01*
X167140104Y-67902415D01*
X167153211Y-67900195D01*
X167179664Y-67894010D01*
X167190414Y-67882528D01*
X167190068Y-67857470D01*
X167187398Y-67838752D01*
X167177989Y-67792748D01*
X167163773Y-67739860D01*
X167157333Y-67719517D01*
X167143320Y-67681402D01*
X167129605Y-67661528D01*
X167117318Y-67656616D01*
X167184564Y-67656616D01*
X167191684Y-67677138D01*
X167221912Y-67745816D01*
X167241716Y-67797728D01*
X167253389Y-67838889D01*
X167253511Y-67839444D01*
X167262637Y-67880991D01*
X167368886Y-67836181D01*
X167419241Y-67813723D01*
X167461670Y-67792574D01*
X167489286Y-67776249D01*
X167494369Y-67772136D01*
X167504479Y-67754939D01*
X167501656Y-67732796D01*
X167484128Y-67701921D01*
X167450124Y-67658529D01*
X167430522Y-67635683D01*
X167380177Y-67577939D01*
X167285764Y-67606323D01*
X167239598Y-67620769D01*
X167204013Y-67632965D01*
X167185698Y-67640597D01*
X167184801Y-67641256D01*
X167184564Y-67656616D01*
X167117318Y-67656616D01*
X167108790Y-67653207D01*
X167080749Y-67650277D01*
X167026092Y-67646266D01*
X167026092Y-67699571D01*
X167017654Y-67752494D01*
X166994124Y-67815586D01*
X166986954Y-67830406D01*
X166967056Y-67871024D01*
X166952965Y-67902078D01*
X166947817Y-67916516D01*
X166625407Y-67916516D01*
X166626152Y-67914253D01*
X166671301Y-67803757D01*
X166735894Y-67688901D01*
X166821501Y-67567106D01*
X166887731Y-67484695D01*
X166920567Y-67445557D01*
X166957560Y-67484695D01*
X166986915Y-67522106D01*
X167010167Y-67562269D01*
X167012287Y-67567151D01*
X167026896Y-67595761D01*
X167043433Y-67604877D01*
X167063905Y-67601967D01*
X167090534Y-67594200D01*
X167102135Y-67589117D01*
X167100130Y-67574979D01*
X167086669Y-67548763D01*
X167066548Y-67518803D01*
X167050556Y-67499511D01*
X167034872Y-67478597D01*
X167032554Y-67467360D01*
X167044917Y-67471096D01*
X167066304Y-67489534D01*
X167090455Y-67516232D01*
X167111110Y-67544747D01*
X167115949Y-67553184D01*
X167132669Y-67575300D01*
X167154936Y-67580845D01*
X167189095Y-67570313D01*
X167209989Y-67560483D01*
X167253390Y-67536527D01*
X167273815Y-67517941D01*
X167273080Y-67501962D01*
X167257309Y-67488451D01*
X167160170Y-67440987D01*
X167058706Y-67412058D01*
X167016860Y-67402817D01*
X166986719Y-67395460D01*
X166975858Y-67392023D01*
X166980435Y-67381329D01*
X166997779Y-67360146D01*
X166998959Y-67358872D01*
X167029775Y-67338941D01*
X167074542Y-67332401D01*
X167136186Y-67339222D01*
X167208731Y-67356823D01*
X167330127Y-67404399D01*
X167438948Y-67473940D01*
X167533095Y-67563517D01*
X167610468Y-67671199D01*
X167659944Y-67771700D01*
X167676432Y-67815052D01*
X167687152Y-67852660D01*
X167693300Y-67892399D01*
X167696077Y-67942141D01*
X167696680Y-68009761D01*
X167696676Y-68013046D01*
X167693235Y-68111019D01*
X167681647Y-68192006D01*
X167659506Y-68264472D01*
X167624407Y-68336881D01*
X167587560Y-68397122D01*
X167505243Y-68500881D01*
X167407013Y-68583972D01*
X167293038Y-68646266D01*
X167245152Y-68664623D01*
X167173455Y-68682676D01*
X167087334Y-68694592D01*
X166997913Y-68699527D01*
X166916318Y-68696637D01*
X166882589Y-68692114D01*
X166753940Y-68656950D01*
X166636077Y-68600862D01*
X166532339Y-68526026D01*
X166523155Y-68516296D01*
X166887118Y-68516296D01*
X166897476Y-68538849D01*
X166902838Y-68549280D01*
X166943118Y-68620365D01*
X166977877Y-68666736D01*
X167007659Y-68689052D01*
X167019637Y-68691423D01*
X167045817Y-68687470D01*
X167088170Y-68677025D01*
X167138240Y-68662213D01*
X167146192Y-68659648D01*
X167193197Y-68642709D01*
X167241967Y-68622582D01*
X167286418Y-68602115D01*
X167320470Y-68584162D01*
X167338040Y-68571570D01*
X167339189Y-68569198D01*
X167327246Y-68568758D01*
X167295811Y-68568841D01*
X167251479Y-68569340D01*
X167200842Y-68570149D01*
X167150492Y-68571161D01*
X167107023Y-68572270D01*
X167077027Y-68573368D01*
X167075013Y-68573474D01*
X167066050Y-68584494D01*
X167065229Y-68591558D01*
X167056287Y-68612847D01*
X167039137Y-68632717D01*
X167019465Y-68646533D01*
X167014632Y-68639810D01*
X167024872Y-68613631D01*
X167032044Y-68600103D01*
X167041447Y-68580268D01*
X167038515Y-68567812D01*
X167018758Y-68557126D01*
X166989184Y-68546548D01*
X166947992Y-68531992D01*
X166914040Y-68519309D01*
X166904100Y-68515294D01*
X166889262Y-68510152D01*
X166887118Y-68516296D01*
X166523155Y-68516296D01*
X166446066Y-68434621D01*
X166411431Y-68384849D01*
X166369997Y-68312720D01*
X166341724Y-68247148D01*
X166331644Y-68208453D01*
X166839600Y-68208453D01*
X166847612Y-68303235D01*
X166855289Y-68377579D01*
X166865891Y-68429641D01*
X166882769Y-68463225D01*
X166909278Y-68482136D01*
X166948770Y-68490182D01*
X167004598Y-68491165D01*
X167013046Y-68490977D01*
X167084797Y-68489214D01*
X167085203Y-68488036D01*
X167133342Y-68488036D01*
X167140825Y-68493439D01*
X167168260Y-68495030D01*
X167209877Y-68493355D01*
X167259903Y-68488959D01*
X167312567Y-68482387D01*
X167362096Y-68474185D01*
X167402719Y-68464898D01*
X167413569Y-68461558D01*
X167450688Y-68447330D01*
X167477430Y-68430761D01*
X167499752Y-68405917D01*
X167523612Y-68366859D01*
X167540834Y-68334723D01*
X167564879Y-68284193D01*
X167573331Y-68252778D01*
X167566261Y-68238728D01*
X167544659Y-68240027D01*
X167519687Y-68244812D01*
X167475737Y-68251142D01*
X167419803Y-68258066D01*
X167378326Y-68262646D01*
X167309325Y-68270040D01*
X167262141Y-68275864D01*
X167232632Y-68281174D01*
X167216657Y-68287021D01*
X167210072Y-68294460D01*
X167208736Y-68304544D01*
X167208731Y-68305778D01*
X167203681Y-68325562D01*
X167190733Y-68360919D01*
X167173192Y-68403859D01*
X167154365Y-68446393D01*
X167137554Y-68480530D01*
X167133342Y-68488036D01*
X167085203Y-68488036D01*
X167113997Y-68404417D01*
X167133143Y-68347503D01*
X167141991Y-68309084D01*
X167137478Y-68284868D01*
X167116541Y-68270564D01*
X167076118Y-68261878D01*
X167013145Y-68254521D01*
X167006523Y-68253805D01*
X166955183Y-68245900D01*
X166907218Y-68234689D01*
X166883924Y-68226888D01*
X166839600Y-68208453D01*
X166331644Y-68208453D01*
X166324038Y-68179257D01*
X166321682Y-68159986D01*
X166856497Y-68159986D01*
X166859401Y-68181900D01*
X166872865Y-68193214D01*
X166904018Y-68199062D01*
X166911942Y-68199919D01*
X166950440Y-68202325D01*
X166999905Y-68203286D01*
X167053533Y-68202955D01*
X167104520Y-68201482D01*
X167146062Y-68199021D01*
X167171354Y-68195723D01*
X167175604Y-68194024D01*
X167176990Y-68188543D01*
X167251747Y-68188543D01*
X167266033Y-68191943D01*
X167300360Y-68188361D01*
X167301763Y-68188156D01*
X167348656Y-68179533D01*
X167403777Y-68166981D01*
X167430509Y-68160013D01*
X167481240Y-68144919D01*
X167530379Y-68128583D01*
X167551181Y-68120868D01*
X167581622Y-68106822D01*
X167595810Y-68090296D01*
X167599909Y-68061547D01*
X167600103Y-68043498D01*
X167597735Y-68007161D01*
X167591677Y-67961782D01*
X167583498Y-67916129D01*
X167574767Y-67878967D01*
X167567099Y-67859119D01*
X167555051Y-67862425D01*
X167528474Y-67875373D01*
X167516444Y-67881949D01*
X167482090Y-67898858D01*
X167455053Y-67908096D01*
X167450123Y-67908680D01*
X167426032Y-67913676D01*
X167392245Y-67925863D01*
X167388553Y-67927452D01*
X167348605Y-67942693D01*
X167312077Y-67953246D01*
X167311654Y-67953335D01*
X167294161Y-67958746D01*
X167283167Y-67969891D01*
X167276286Y-67992633D01*
X167271132Y-68032833D01*
X167268670Y-68058957D01*
X167263386Y-68109267D01*
X167257711Y-68150809D01*
X167252771Y-68175472D01*
X167252256Y-68176978D01*
X167251747Y-68188543D01*
X167176990Y-68188543D01*
X167179372Y-68179125D01*
X167184150Y-68144735D01*
X167189075Y-68097386D01*
X167190508Y-68080980D01*
X167199437Y-67973909D01*
X167122549Y-67973795D01*
X167065290Y-67972229D01*
X167005813Y-67968372D01*
X166979396Y-67965719D01*
X166940090Y-67961925D01*
X166918623Y-67964744D01*
X166907000Y-67977132D01*
X166899680Y-67995185D01*
X166875967Y-68064987D01*
X166862055Y-68116043D01*
X166856666Y-68153227D01*
X166856497Y-68159986D01*
X166321682Y-68159986D01*
X166314371Y-68100174D01*
X166311176Y-68038795D01*
X166310273Y-68006523D01*
X166598126Y-68006523D01*
X166599536Y-68028803D01*
X166603620Y-68030764D01*
X166604140Y-68029601D01*
X166606721Y-68003703D01*
X166604624Y-67990464D01*
X166600471Y-67985144D01*
X166598212Y-68002472D01*
X166598126Y-68006523D01*
X166310273Y-68006523D01*
X166309318Y-67972400D01*
X166309864Y-67924096D01*
X166313935Y-67885911D01*
X166322650Y-67849877D01*
X166337130Y-67808022D01*
X166347385Y-67781115D01*
X166368223Y-67730336D01*
X166388005Y-67687717D01*
X166403438Y-67660173D01*
X166407379Y-67655194D01*
X166422769Y-67635672D01*
X166425989Y-67627186D01*
X166435593Y-67610834D01*
X166460729Y-67584063D01*
X166495880Y-67551870D01*
X166535528Y-67519256D01*
X166574156Y-67491217D01*
X166580850Y-67486867D01*
X166619188Y-67467396D01*
X166672524Y-67446339D01*
X166732245Y-67426448D01*
X166789736Y-67410478D01*
X166836383Y-67401182D01*
X166852903Y-67399897D01*
X166872923Y-67390625D01*
X166898041Y-67367886D01*
X166901673Y-67363715D01*
X166931605Y-67338283D01*
X166963536Y-67325020D01*
X166966059Y-67324724D01*
X166991182Y-67323986D01*
X167000000Y-67325985D01*
G37*
G36*
X167062299Y-65053049D02*
G01*
X167144082Y-65054351D01*
X167207350Y-65056603D01*
X167255890Y-65060034D01*
X167293487Y-65064875D01*
X167323929Y-65071356D01*
X167338727Y-65075621D01*
X167410018Y-65097978D01*
X167439363Y-65191677D01*
X167453556Y-65243467D01*
X167469373Y-65311506D01*
X167484703Y-65386222D01*
X167495427Y-65445744D01*
X167509212Y-65524400D01*
X167525261Y-65609696D01*
X167541272Y-65689662D01*
X167551340Y-65736569D01*
X167580534Y-65867026D01*
X167691423Y-65922171D01*
X167757928Y-65953157D01*
X167832974Y-65984956D01*
X167902155Y-66011514D01*
X167913200Y-66015383D01*
X167968998Y-66034847D01*
X168020518Y-66053355D01*
X168058970Y-66067734D01*
X168067213Y-66070999D01*
X168086161Y-66077513D01*
X168104699Y-66079491D01*
X168126259Y-66075366D01*
X168154270Y-66063572D01*
X168192164Y-66042542D01*
X168243372Y-66010709D01*
X168311324Y-65966506D01*
X168345909Y-65943725D01*
X168396223Y-65910930D01*
X168438355Y-65884222D01*
X168467704Y-65866468D01*
X168479515Y-65860503D01*
X168493203Y-65853135D01*
X168520053Y-65834577D01*
X168553021Y-65810145D01*
X168585064Y-65785159D01*
X168609140Y-65764936D01*
X168617668Y-65756189D01*
X168631513Y-65744352D01*
X168660565Y-65723921D01*
X168688712Y-65705586D01*
X168745577Y-65675028D01*
X168791708Y-65665006D01*
X168833243Y-65676155D01*
X168876320Y-65709109D01*
X168893718Y-65726785D01*
X168926013Y-65759991D01*
X168971473Y-65805149D01*
X169024167Y-65856431D01*
X169078161Y-65908012D01*
X169080427Y-65910153D01*
X169138015Y-65966280D01*
X169197671Y-66027349D01*
X169252050Y-66085685D01*
X169291114Y-66130350D01*
X169328507Y-66175861D01*
X169351405Y-66206440D01*
X169362168Y-66227071D01*
X169363152Y-66242743D01*
X169356716Y-66258441D01*
X169354006Y-66263340D01*
X169331069Y-66301641D01*
X169296189Y-66356713D01*
X169252362Y-66423934D01*
X169202582Y-66498681D01*
X169177597Y-66535663D01*
X169111560Y-66633141D01*
X169059021Y-66711944D01*
X169018840Y-66774996D01*
X168989876Y-66825221D01*
X168970988Y-66865542D01*
X168961038Y-66898883D01*
X168958883Y-66928167D01*
X168963384Y-66956320D01*
X168973401Y-66986262D01*
X168987792Y-67020920D01*
X168988070Y-67021572D01*
X169011597Y-67077550D01*
X169036667Y-67138383D01*
X169047480Y-67165075D01*
X169086783Y-67258770D01*
X169121547Y-67330802D01*
X169154368Y-67384604D01*
X169187846Y-67423609D01*
X169224579Y-67451251D01*
X169267162Y-67470963D01*
X169283000Y-67476330D01*
X169312260Y-67483705D01*
X169361212Y-67494033D01*
X169423789Y-67506112D01*
X169493924Y-67518740D01*
X169517822Y-67522845D01*
X169648779Y-67546090D01*
X169755894Y-67567340D01*
X169838560Y-67586460D01*
X169896169Y-67603316D01*
X169915740Y-67611013D01*
X169948331Y-67625863D01*
X169948331Y-68027122D01*
X169948331Y-68428381D01*
X169866795Y-68453955D01*
X169808079Y-68470305D01*
X169740682Y-68486100D01*
X169693940Y-68495257D01*
X169656996Y-68501726D01*
X169613412Y-68509580D01*
X169559806Y-68519451D01*
X169492797Y-68531968D01*
X169409005Y-68547761D01*
X169305050Y-68567460D01*
X169229682Y-68581779D01*
X169206747Y-68591906D01*
X169186200Y-68616141D01*
X169163540Y-68659888D01*
X169162292Y-68662639D01*
X169130614Y-68733746D01*
X169107066Y-68789491D01*
X169088398Y-68837992D01*
X169071358Y-68887364D01*
X169067263Y-68899895D01*
X169047411Y-68956148D01*
X169023799Y-69016369D01*
X169013517Y-69040508D01*
X168989559Y-69109766D01*
X168984798Y-69171492D01*
X169000083Y-69232329D01*
X169036263Y-69298919D01*
X169048932Y-69317617D01*
X169065003Y-69341427D01*
X169091381Y-69381396D01*
X169124263Y-69431732D01*
X169156245Y-69481062D01*
X169191243Y-69534010D01*
X169223019Y-69579853D01*
X169247944Y-69613492D01*
X169261876Y-69629424D01*
X169279124Y-69648717D01*
X169283000Y-69658683D01*
X169289618Y-69675939D01*
X169306278Y-69705562D01*
X169314820Y-69719052D01*
X169341606Y-69762974D01*
X169355095Y-69797628D01*
X169354201Y-69829012D01*
X169337837Y-69863123D01*
X169304917Y-69905959D01*
X169274670Y-69940711D01*
X169164613Y-70060023D01*
X169052116Y-70173072D01*
X168942405Y-70274832D01*
X168840705Y-70360282D01*
X168827422Y-70370643D01*
X168813681Y-70380767D01*
X168801552Y-70384494D01*
X168784855Y-70380306D01*
X168757413Y-70366686D01*
X168714476Y-70342914D01*
X168670341Y-70316873D01*
X168613386Y-70281130D01*
X168548365Y-70238901D01*
X168480033Y-70193399D01*
X168413147Y-70147840D01*
X168352461Y-70105439D01*
X168302730Y-70069410D01*
X168268710Y-70042967D01*
X168261563Y-70036729D01*
X168223227Y-70012210D01*
X168177823Y-70005384D01*
X168121794Y-70016511D01*
X168051583Y-70045850D01*
X168037134Y-70053100D01*
X167980748Y-70078610D01*
X167930522Y-70095198D01*
X167899204Y-70100116D01*
X167877550Y-70099218D01*
X167860942Y-70093453D01*
X167845468Y-70078611D01*
X167827215Y-70050482D01*
X167802268Y-70004857D01*
X167791224Y-69983963D01*
X167761393Y-69925025D01*
X167733433Y-69865681D01*
X167711727Y-69815395D01*
X167705104Y-69798061D01*
X167691904Y-69763132D01*
X167670182Y-69708140D01*
X167641571Y-69637057D01*
X167607703Y-69553854D01*
X167570213Y-69462501D01*
X167530732Y-69366971D01*
X167490895Y-69271235D01*
X167452334Y-69179263D01*
X167416682Y-69095027D01*
X167398401Y-69052258D01*
X167373239Y-68989718D01*
X167351903Y-68929366D01*
X167336928Y-68878822D01*
X167331172Y-68850049D01*
X167324666Y-68789266D01*
X167390419Y-68745394D01*
X167511454Y-68649090D01*
X167617296Y-68532329D01*
X167706487Y-68396837D01*
X167740730Y-68330368D01*
X167789229Y-68228300D01*
X167789247Y-68019569D01*
X167789266Y-67810837D01*
X167735364Y-67699949D01*
X167688468Y-67615742D01*
X167632918Y-67535558D01*
X167574241Y-67466693D01*
X167524262Y-67421142D01*
X167498541Y-67400888D01*
X167483215Y-67387836D01*
X167482691Y-67387301D01*
X167463876Y-67373779D01*
X167428121Y-67353021D01*
X167382160Y-67328759D01*
X167339189Y-67307743D01*
X167257870Y-67276493D01*
X167164128Y-67251363D01*
X167070041Y-67235102D01*
X166998555Y-67230303D01*
X166852316Y-67242352D01*
X166716674Y-67277832D01*
X166593070Y-67335739D01*
X166482945Y-67415074D01*
X166387739Y-67514832D01*
X166308894Y-67634014D01*
X166257431Y-67745609D01*
X166238704Y-67795796D01*
X166225994Y-67836160D01*
X166218107Y-67874161D01*
X166213849Y-67917261D01*
X166212029Y-67972922D01*
X166211519Y-68032614D01*
X166211479Y-68102868D01*
X166212953Y-68154572D01*
X166217194Y-68195269D01*
X166225451Y-68232501D01*
X166238979Y-68273807D01*
X166259028Y-68326730D01*
X166261329Y-68332666D01*
X166311924Y-68463123D01*
X166492891Y-68640271D01*
X166548980Y-68696102D01*
X166597995Y-68746662D01*
X166637056Y-68788832D01*
X166663278Y-68819492D01*
X166673782Y-68835523D01*
X166673857Y-68836140D01*
X166669418Y-68857959D01*
X166657953Y-68894776D01*
X166646522Y-68926430D01*
X166625739Y-68982862D01*
X166604276Y-69044177D01*
X166595648Y-69069967D01*
X166576859Y-69123180D01*
X166555616Y-69177366D01*
X166545697Y-69200424D01*
X166525324Y-69246474D01*
X166498710Y-69308004D01*
X166467742Y-69380508D01*
X166434311Y-69459477D01*
X166400304Y-69540405D01*
X166367610Y-69618785D01*
X166338119Y-69690109D01*
X166313718Y-69749870D01*
X166296298Y-69793561D01*
X166288926Y-69813140D01*
X166272764Y-69854486D01*
X166256414Y-69889082D01*
X166251233Y-69897938D01*
X166238021Y-69925025D01*
X166222515Y-69966443D01*
X166213000Y-69996598D01*
X166195539Y-70042661D01*
X166173529Y-70082417D01*
X166159954Y-70099042D01*
X166134520Y-70118705D01*
X166110464Y-70121728D01*
X166084533Y-70114745D01*
X166050725Y-70100361D01*
X166005405Y-70077051D01*
X165962866Y-70052530D01*
X165899251Y-70019387D01*
X165846947Y-70006215D01*
X165801145Y-70012470D01*
X165766920Y-70030430D01*
X165737927Y-70050054D01*
X165695084Y-70078795D01*
X165646291Y-70111356D01*
X165631646Y-70121097D01*
X165579330Y-70155955D01*
X165514848Y-70199054D01*
X165447671Y-70244059D01*
X165404552Y-70273010D01*
X165349282Y-70308432D01*
X165297544Y-70338512D01*
X165255411Y-70359900D01*
X165230352Y-70369024D01*
X165207696Y-70371373D01*
X165186930Y-70366824D01*
X165162348Y-70352341D01*
X165128240Y-70324886D01*
X165098508Y-70298866D01*
X165058195Y-70261858D01*
X165008840Y-70214576D01*
X164953376Y-70160043D01*
X164894736Y-70101280D01*
X164835854Y-70041310D01*
X164779663Y-69983155D01*
X164729097Y-69929836D01*
X164687089Y-69884376D01*
X164656572Y-69849796D01*
X164640481Y-69829118D01*
X164638726Y-69825209D01*
X164645325Y-69805640D01*
X164662944Y-69769989D01*
X164688317Y-69724009D01*
X164718177Y-69673451D01*
X164749260Y-69624066D01*
X164772309Y-69589979D01*
X164840068Y-69493861D01*
X164894303Y-69416533D01*
X164936512Y-69355451D01*
X164968194Y-69308071D01*
X164990845Y-69271849D01*
X165005965Y-69244243D01*
X165015051Y-69222708D01*
X165019601Y-69204701D01*
X165021114Y-69187678D01*
X165021086Y-69169095D01*
X165021064Y-69167591D01*
X165013239Y-69108891D01*
X164990419Y-69037731D01*
X164972926Y-68995884D01*
X164951858Y-68947030D01*
X164935638Y-68906912D01*
X164926716Y-68881698D01*
X164925732Y-68876950D01*
X164921301Y-68858493D01*
X164909962Y-68824873D01*
X164900916Y-68800790D01*
X164882602Y-68753485D01*
X164865151Y-68707960D01*
X164859237Y-68692369D01*
X164835710Y-68649082D01*
X164802472Y-68610551D01*
X164766355Y-68583358D01*
X164736388Y-68574011D01*
X164712181Y-68571312D01*
X164669112Y-68564006D01*
X164613756Y-68553282D01*
X164565467Y-68543131D01*
X164492722Y-68528031D01*
X164415053Y-68513073D01*
X164344435Y-68500517D01*
X164313740Y-68495577D01*
X164252477Y-68484499D01*
X164191670Y-68470589D01*
X164143175Y-68456600D01*
X164137807Y-68454706D01*
X164100517Y-68441289D01*
X164074980Y-68432502D01*
X164068161Y-68430509D01*
X164067317Y-68417982D01*
X164066549Y-68382475D01*
X164065881Y-68327101D01*
X164065341Y-68254971D01*
X164064953Y-68169198D01*
X164064744Y-68072893D01*
X164064740Y-68066171D01*
X164211367Y-68066171D01*
X164212086Y-68100968D01*
X164212260Y-68103162D01*
X164220553Y-68174118D01*
X164232576Y-68224053D01*
X164250746Y-68258006D01*
X164277481Y-68281013D01*
X164303709Y-68293757D01*
X164338334Y-68304645D01*
X164394700Y-68318751D01*
X164468771Y-68335237D01*
X164556513Y-68353267D01*
X164653891Y-68372005D01*
X164756872Y-68390614D01*
X164834626Y-68403861D01*
X164932683Y-68420111D01*
X164974260Y-68519891D01*
X164997731Y-68578002D01*
X165025295Y-68648916D01*
X165052391Y-68720821D01*
X165063134Y-68750129D01*
X165105213Y-68861641D01*
X165145641Y-68958179D01*
X165188902Y-69050126D01*
X165214148Y-69099848D01*
X165253449Y-69175607D01*
X165205777Y-69262334D01*
X165178703Y-69309824D01*
X165152712Y-69352468D01*
X165133234Y-69381372D01*
X165132556Y-69382261D01*
X165098775Y-69428362D01*
X165060151Y-69484606D01*
X165019328Y-69546717D01*
X164978950Y-69610418D01*
X164941659Y-69671433D01*
X164910098Y-69725486D01*
X164886911Y-69768301D01*
X164874741Y-69795601D01*
X164873549Y-69801290D01*
X164882450Y-69814452D01*
X164906760Y-69841946D01*
X164942894Y-69880221D01*
X164987264Y-69925722D01*
X165036283Y-69974897D01*
X165086365Y-70024194D01*
X165133924Y-70070059D01*
X165175371Y-70108940D01*
X165207121Y-70137283D01*
X165225587Y-70151537D01*
X165228156Y-70152542D01*
X165248484Y-70147019D01*
X165269040Y-70137803D01*
X165294161Y-70123142D01*
X165335048Y-70097402D01*
X165387745Y-70063244D01*
X165448297Y-70023330D01*
X165512750Y-69980321D01*
X165577149Y-69936877D01*
X165637538Y-69895660D01*
X165689962Y-69859330D01*
X165730467Y-69830549D01*
X165755097Y-69811979D01*
X165760292Y-69807272D01*
X165790410Y-69790019D01*
X165836616Y-69791998D01*
X165899537Y-69813265D01*
X165917206Y-69821251D01*
X165973153Y-69847451D01*
X166010496Y-69863083D01*
X166034467Y-69868189D01*
X166050300Y-69862809D01*
X166063229Y-69846983D01*
X166077483Y-69822489D01*
X166101194Y-69777490D01*
X166133781Y-69709418D01*
X166175411Y-69617908D01*
X166226254Y-69502594D01*
X166249920Y-69448074D01*
X166268108Y-69403984D01*
X166291331Y-69344831D01*
X166315888Y-69280135D01*
X166328539Y-69245866D01*
X166349380Y-69189115D01*
X166367887Y-69139405D01*
X166381639Y-69103203D01*
X166387158Y-69089317D01*
X166400456Y-69055045D01*
X166416033Y-69010932D01*
X166431366Y-68964694D01*
X166443931Y-68924046D01*
X166451205Y-68896704D01*
X166452080Y-68890783D01*
X166443730Y-68876135D01*
X166420998Y-68846743D01*
X166387364Y-68806884D01*
X166346637Y-68761194D01*
X166248579Y-68647511D01*
X166171302Y-68542409D01*
X166112909Y-68441564D01*
X166071505Y-68340657D01*
X166045190Y-68235364D01*
X166032070Y-68121365D01*
X166029717Y-68039137D01*
X166037259Y-67894771D01*
X166061481Y-67764746D01*
X166104403Y-67641819D01*
X166168047Y-67518746D01*
X166180766Y-67497782D01*
X166211285Y-67455858D01*
X166255324Y-67404670D01*
X166307491Y-67349583D01*
X166362394Y-67295960D01*
X166414642Y-67249163D01*
X166458843Y-67214556D01*
X166477101Y-67203024D01*
X166519071Y-67179670D01*
X166559329Y-67156697D01*
X166562969Y-67154576D01*
X166654909Y-67112213D01*
X166764290Y-67080487D01*
X166884255Y-67060534D01*
X167007943Y-67053492D01*
X167128495Y-67060496D01*
X167129692Y-67060645D01*
X167276275Y-67089380D01*
X167409937Y-67138261D01*
X167534385Y-67209107D01*
X167653327Y-67303735D01*
X167684004Y-67332650D01*
X167780438Y-67438592D01*
X167855064Y-67549069D01*
X167909307Y-67667689D01*
X167944595Y-67798057D01*
X167962355Y-67943780D01*
X167965190Y-68043252D01*
X167960585Y-68161634D01*
X167945995Y-68263851D01*
X167919746Y-68358468D01*
X167888327Y-68436435D01*
X167859045Y-68494285D01*
X167822046Y-68554236D01*
X167774819Y-68619625D01*
X167714856Y-68693793D01*
X167639647Y-68780078D01*
X167583964Y-68841448D01*
X167561256Y-68868929D01*
X167548794Y-68889336D01*
X167547980Y-68892763D01*
X167551988Y-68910623D01*
X167562382Y-68945301D01*
X167576620Y-68989097D01*
X167592158Y-69034313D01*
X167606454Y-69073249D01*
X167612915Y-69089317D01*
X167622261Y-69112258D01*
X167638432Y-69152884D01*
X167658797Y-69204564D01*
X167672413Y-69239343D01*
X167697034Y-69301306D01*
X167722198Y-69362840D01*
X167743911Y-69414247D01*
X167751777Y-69432124D01*
X167768491Y-69470252D01*
X167779734Y-69497757D01*
X167782743Y-69507055D01*
X167787740Y-69520466D01*
X167801301Y-69552773D01*
X167821285Y-69599081D01*
X167845547Y-69654493D01*
X167871945Y-69714112D01*
X167898336Y-69773043D01*
X167921086Y-69823138D01*
X167936988Y-69850059D01*
X167956911Y-69862400D01*
X167986504Y-69860793D01*
X168031418Y-69845871D01*
X168051525Y-69837734D01*
X168131441Y-69818509D01*
X168216980Y-69824601D01*
X168307831Y-69855921D01*
X168403680Y-69912381D01*
X168457861Y-69953663D01*
X168549064Y-70025354D01*
X168625274Y-70078176D01*
X168688386Y-70113148D01*
X168740295Y-70131287D01*
X168782898Y-70133613D01*
X168790412Y-70132282D01*
X168816550Y-70119219D01*
X168855761Y-70090617D01*
X168903728Y-70050385D01*
X168956133Y-70002436D01*
X169008658Y-69950679D01*
X169056987Y-69899025D01*
X169087524Y-69863151D01*
X169126274Y-69815104D01*
X169099972Y-69753743D01*
X169076067Y-69703444D01*
X169043431Y-69644562D01*
X169000264Y-69574172D01*
X168944764Y-69489348D01*
X168875133Y-69387164D01*
X168868318Y-69377315D01*
X168825088Y-69313972D01*
X168795386Y-69267654D01*
X168777180Y-69234444D01*
X168768436Y-69210423D01*
X168767120Y-69191674D01*
X168768268Y-69184548D01*
X168777801Y-69152833D01*
X168795370Y-69104175D01*
X168818248Y-69045400D01*
X168843707Y-68983332D01*
X168869019Y-68924797D01*
X168890800Y-68877954D01*
X168906848Y-68843049D01*
X168916479Y-68817796D01*
X168917720Y-68811906D01*
X168922980Y-68794687D01*
X168936502Y-68762412D01*
X168948609Y-68736263D01*
X168967128Y-68690680D01*
X168986566Y-68631837D01*
X169002860Y-68572087D01*
X169003529Y-68569257D01*
X169020083Y-68508523D01*
X169036717Y-68469669D01*
X169055226Y-68448541D01*
X169055877Y-68448106D01*
X169084676Y-68435331D01*
X169134749Y-68419558D01*
X169201600Y-68401866D01*
X169280732Y-68383332D01*
X169367648Y-68365032D01*
X169457853Y-68348045D01*
X169511300Y-68338993D01*
X169573551Y-68326665D01*
X169640001Y-68310064D01*
X169683122Y-68297049D01*
X169726918Y-68281289D01*
X169752498Y-68267318D01*
X169766575Y-68249237D01*
X169775866Y-68221145D01*
X169777704Y-68213952D01*
X169784717Y-68169318D01*
X169788924Y-68107617D01*
X169790388Y-68036606D01*
X169789176Y-67964038D01*
X169785352Y-67897669D01*
X169778984Y-67845254D01*
X169774418Y-67825177D01*
X169759310Y-67789308D01*
X169735488Y-67768145D01*
X169706930Y-67756149D01*
X169669217Y-67745021D01*
X169610487Y-67730199D01*
X169535379Y-67712738D01*
X169448531Y-67693694D01*
X169354583Y-67674122D01*
X169289522Y-67661151D01*
X169229762Y-67648389D01*
X169165310Y-67633048D01*
X169135476Y-67625303D01*
X169105817Y-67616648D01*
X169082162Y-67606569D01*
X169062133Y-67591694D01*
X169043355Y-67568649D01*
X169023451Y-67534062D01*
X169000044Y-67484560D01*
X168970758Y-67416770D01*
X168944486Y-67354237D01*
X168912378Y-67277761D01*
X168887439Y-67219166D01*
X168866854Y-67172227D01*
X168847805Y-67130719D01*
X168827479Y-67088419D01*
X168803058Y-67039102D01*
X168791237Y-67015466D01*
X168732645Y-66898471D01*
X168759898Y-66845871D01*
X168780936Y-66806077D01*
X168801412Y-66769692D01*
X168824372Y-66731885D01*
X168852866Y-66687822D01*
X168889941Y-66632673D01*
X168938645Y-66561606D01*
X168945313Y-66551926D01*
X168988027Y-66488766D01*
X169028175Y-66427260D01*
X169062013Y-66373295D01*
X169085794Y-66332756D01*
X169090898Y-66323127D01*
X169124092Y-66257398D01*
X169077894Y-66192669D01*
X169050280Y-66158067D01*
X169009203Y-66111644D01*
X168960200Y-66059462D01*
X168908809Y-66007581D01*
X168908593Y-66007369D01*
X168785489Y-65886797D01*
X168711363Y-65927751D01*
X168671898Y-65951153D01*
X168618044Y-65985266D01*
X168556656Y-66025653D01*
X168494588Y-66067876D01*
X168489865Y-66071153D01*
X168435973Y-66108366D01*
X168390134Y-66139542D01*
X168356387Y-66161973D01*
X168338766Y-66172947D01*
X168337232Y-66173601D01*
X168324347Y-66180241D01*
X168297058Y-66197252D01*
X168275872Y-66211197D01*
X168230453Y-66240120D01*
X168183215Y-66267968D01*
X168168332Y-66276132D01*
X168116890Y-66303471D01*
X168057444Y-66269663D01*
X168020656Y-66250984D01*
X167967225Y-66226667D01*
X167904963Y-66200165D01*
X167854494Y-66179891D01*
X167768277Y-66146165D01*
X167701910Y-66119869D01*
X167650885Y-66099082D01*
X167610693Y-66081883D01*
X167576826Y-66066351D01*
X167544776Y-66050564D01*
X167515306Y-66035360D01*
X167437031Y-65994467D01*
X167400123Y-65885087D01*
X167382068Y-65824238D01*
X167363344Y-65748980D01*
X167346671Y-65670777D01*
X167338532Y-65625681D01*
X167326113Y-65553807D01*
X167312356Y-65479923D01*
X167299242Y-65414430D01*
X167291776Y-65380308D01*
X167279883Y-65333700D01*
X167266292Y-65298819D01*
X167247300Y-65273972D01*
X167219204Y-65257464D01*
X167178300Y-65247603D01*
X167120885Y-65242696D01*
X167043256Y-65241048D01*
X166986954Y-65240919D01*
X166898371Y-65241994D01*
X166829146Y-65245035D01*
X166781555Y-65249892D01*
X166758615Y-65255961D01*
X166739303Y-65276071D01*
X166722013Y-65314443D01*
X166705980Y-65373467D01*
X166690438Y-65455536D01*
X166686192Y-65482178D01*
X166676788Y-65538041D01*
X166663825Y-65608448D01*
X166649352Y-65682463D01*
X166640910Y-65723523D01*
X166627780Y-65786099D01*
X166615829Y-65843282D01*
X166606578Y-65887795D01*
X166602257Y-65908812D01*
X166586593Y-65954110D01*
X166557394Y-65991302D01*
X166510535Y-66024194D01*
X166442312Y-66056419D01*
X166384639Y-66080643D01*
X166326642Y-66105613D01*
X166279929Y-66126326D01*
X166275963Y-66128137D01*
X166230686Y-66148405D01*
X166173308Y-66173423D01*
X166115837Y-66197961D01*
X166112892Y-66199201D01*
X166034668Y-66232304D01*
X165976440Y-66256575D01*
X165933879Y-66272616D01*
X165902654Y-66281033D01*
X165878438Y-66282428D01*
X165856899Y-66277406D01*
X165833710Y-66266572D01*
X165804540Y-66250527D01*
X165792348Y-66243917D01*
X165752464Y-66220731D01*
X165696663Y-66185720D01*
X165630197Y-66142310D01*
X165558318Y-66093929D01*
X165490300Y-66046832D01*
X165424055Y-66000986D01*
X165363912Y-65960705D01*
X165313524Y-65928329D01*
X165276543Y-65906197D01*
X165256622Y-65896649D01*
X165255477Y-65896454D01*
X165221540Y-65904758D01*
X165175022Y-65931866D01*
X165118684Y-65975481D01*
X165055287Y-66033304D01*
X164987595Y-66103035D01*
X164933215Y-66164655D01*
X164868947Y-66240506D01*
X164906432Y-66314680D01*
X164929884Y-66357085D01*
X164963346Y-66412504D01*
X165001727Y-66472674D01*
X165028517Y-66512789D01*
X165094256Y-66609127D01*
X165146694Y-66686263D01*
X165187223Y-66746552D01*
X165217235Y-66792355D01*
X165238121Y-66826028D01*
X165251274Y-66849930D01*
X165258084Y-66866418D01*
X165259944Y-66877850D01*
X165258246Y-66886585D01*
X165254381Y-66894981D01*
X165254256Y-66895233D01*
X165244360Y-66917508D01*
X165227115Y-66958682D01*
X165204733Y-67013378D01*
X165179433Y-67076222D01*
X165172614Y-67093323D01*
X165143586Y-67165070D01*
X165113488Y-67237435D01*
X165085744Y-67302297D01*
X165063781Y-67351537D01*
X165062526Y-67354237D01*
X165035427Y-67413001D01*
X165006894Y-67475916D01*
X164985316Y-67524367D01*
X164965691Y-67566923D01*
X164948477Y-67592536D01*
X164925843Y-67608261D01*
X164889957Y-67621152D01*
X164871825Y-67626594D01*
X164844560Y-67633381D01*
X164796899Y-67643923D01*
X164733605Y-67657275D01*
X164659439Y-67672494D01*
X164579164Y-67688636D01*
X164497542Y-67704758D01*
X164419335Y-67719917D01*
X164349305Y-67733168D01*
X164292216Y-67743568D01*
X164252829Y-67750173D01*
X164239038Y-67751980D01*
X164234634Y-67764399D01*
X164229654Y-67797170D01*
X164224533Y-67844577D01*
X164219708Y-67900899D01*
X164215614Y-67960417D01*
X164212689Y-68017414D01*
X164211367Y-68066171D01*
X164064740Y-68066171D01*
X164064715Y-68019569D01*
X164064859Y-67919009D01*
X164065268Y-67827359D01*
X164065905Y-67747731D01*
X164066736Y-67683237D01*
X164067723Y-67636989D01*
X164068832Y-67612098D01*
X164069446Y-67608629D01*
X164083394Y-67605694D01*
X164116452Y-67597876D01*
X164162421Y-67586649D01*
X164180468Y-67582174D01*
X164247833Y-67565867D01*
X164310943Y-67551773D01*
X164377656Y-67538290D01*
X164455833Y-67523815D01*
X164534361Y-67510020D01*
X164600084Y-67497228D01*
X164669499Y-67481474D01*
X164728500Y-67465980D01*
X164732906Y-67464681D01*
X164781160Y-67448875D01*
X164812076Y-67433346D01*
X164833753Y-67412558D01*
X164853565Y-67382214D01*
X164868224Y-67354419D01*
X164889144Y-67311210D01*
X164913997Y-67257808D01*
X164940458Y-67199435D01*
X164966201Y-67141310D01*
X164988897Y-67088654D01*
X165006222Y-67046689D01*
X165015849Y-67020634D01*
X165017052Y-67015352D01*
X165022151Y-67000389D01*
X165035147Y-66970175D01*
X165044510Y-66949826D01*
X165071969Y-66891411D01*
X165025548Y-66822773D01*
X164996339Y-66779943D01*
X164958780Y-66725360D01*
X164919495Y-66668640D01*
X164906358Y-66649769D01*
X164832528Y-66543325D01*
X164772899Y-66455975D01*
X164726273Y-66385751D01*
X164691451Y-66330684D01*
X164667236Y-66288805D01*
X164652428Y-66258148D01*
X164645830Y-66236743D01*
X164646242Y-66222623D01*
X164646247Y-66222606D01*
X164658079Y-66204575D01*
X164685566Y-66171635D01*
X164725702Y-66127108D01*
X164775480Y-66074319D01*
X164831895Y-66016592D01*
X164839577Y-66008880D01*
X164900631Y-65947475D01*
X164959524Y-65887781D01*
X165012169Y-65833975D01*
X165054478Y-65790235D01*
X165082281Y-65760829D01*
X165138806Y-65708685D01*
X165191949Y-65680546D01*
X165245295Y-65675275D01*
X165301376Y-65691264D01*
X165344765Y-65714508D01*
X165383787Y-65741906D01*
X165393513Y-65750568D01*
X165425071Y-65778135D01*
X165472826Y-65815829D01*
X165531146Y-65859604D01*
X165594398Y-65905413D01*
X165656948Y-65949212D01*
X165713163Y-65986955D01*
X165757412Y-66014596D01*
X165773470Y-66023457D01*
X165828092Y-66048408D01*
X165874938Y-66061462D01*
X165921787Y-66062812D01*
X165976420Y-66052648D01*
X166046617Y-66031162D01*
X166049298Y-66030259D01*
X166135334Y-65998826D01*
X166218157Y-65964180D01*
X166292162Y-65928971D01*
X166351742Y-65895850D01*
X166388526Y-65869906D01*
X166411334Y-65839190D01*
X166435308Y-65787616D01*
X166458771Y-65720266D01*
X166480050Y-65642218D01*
X166497469Y-65558552D01*
X166503472Y-65521315D01*
X166513245Y-65454231D01*
X166524089Y-65379634D01*
X166531923Y-65325629D01*
X166548013Y-65228783D01*
X166564974Y-65156070D01*
X166583448Y-65105532D01*
X166604078Y-65075212D01*
X166617063Y-65066218D01*
X166643060Y-65060869D01*
X166694228Y-65056795D01*
X166769679Y-65054034D01*
X166868523Y-65052619D01*
X166958215Y-65052466D01*
X167062299Y-65053049D01*
G37*
%TO.C,C1*%
X140940000Y-107000000D02*
X140940000Y-106500000D01*
X140690000Y-106750000D02*
X141190000Y-106750000D01*
X141304437Y-106260000D02*
X141440000Y-106260000D01*
X141304437Y-106260000D02*
X140240000Y-105195563D01*
X143695563Y-106260000D02*
X143560000Y-106260000D01*
X143695563Y-106260000D02*
X144760000Y-105195563D01*
X140240000Y-105195563D02*
X140240000Y-101740000D01*
X144760000Y-105195563D02*
X144760000Y-101740000D01*
X140240000Y-101740000D02*
X141440000Y-101740000D01*
X144760000Y-101740000D02*
X143560000Y-101740000D01*
%TO.C,A1*%
X102920000Y-68015000D02*
X109270000Y-68015000D01*
X102920000Y-79695000D02*
X102920000Y-68015000D01*
X107370000Y-99765000D02*
X109270000Y-99765000D01*
X107370000Y-108905000D02*
X107370000Y-99765000D01*
X109270000Y-58485000D02*
X173920000Y-58485000D01*
X109270000Y-68015000D02*
X109270000Y-58485000D01*
X109270000Y-79695000D02*
X102920000Y-79695000D01*
X109270000Y-99765000D02*
X109270000Y-79695000D01*
X109270000Y-108905000D02*
X107370000Y-108905000D01*
X109270000Y-112085000D02*
X109270000Y-108905000D01*
X173920000Y-58485000D02*
X175570000Y-60135000D01*
X175570000Y-60135000D02*
X175570000Y-71565000D01*
X175570000Y-71565000D02*
X178110000Y-74105000D01*
X175570000Y-109415000D02*
X175570000Y-112085000D01*
X175570000Y-112085000D02*
X109270000Y-112085000D01*
X178110000Y-74105000D02*
X178110000Y-106875000D01*
X178110000Y-106875000D02*
X175570000Y-109415000D01*
%TD*%
M02*
