%TF.GenerationSoftware,KiCad,Pcbnew,7.0.2-0*%
%TF.CreationDate,2023-04-20T17:22:29-07:00*%
%TF.ProjectId,RGProgrammer_V1,52475072-6f67-4726-916d-6d65725f5631,rev?*%
%TF.SameCoordinates,Original*%
%TF.FileFunction,Soldermask,Top*%
%TF.FilePolarity,Negative*%
%FSLAX46Y46*%
G04 Gerber Fmt 4.6, Leading zero omitted, Abs format (unit mm)*
G04 Created by KiCad (PCBNEW 7.0.2-0) date 2023-04-20 17:22:29*
%MOMM*%
%LPD*%
G01*
G04 APERTURE LIST*
G04 Aperture macros list*
%AMRoundRect*
0 Rectangle with rounded corners*
0 $1 Rounding radius*
0 $2 $3 $4 $5 $6 $7 $8 $9 X,Y pos of 4 corners*
0 Add a 4 corners polygon primitive as box body*
4,1,4,$2,$3,$4,$5,$6,$7,$8,$9,$2,$3,0*
0 Add four circle primitives for the rounded corners*
1,1,$1+$1,$2,$3*
1,1,$1+$1,$4,$5*
1,1,$1+$1,$6,$7*
1,1,$1+$1,$8,$9*
0 Add four rect primitives between the rounded corners*
20,1,$1+$1,$2,$3,$4,$5,0*
20,1,$1+$1,$4,$5,$6,$7,0*
20,1,$1+$1,$6,$7,$8,$9,0*
20,1,$1+$1,$8,$9,$2,$3,0*%
G04 Aperture macros list end*
%ADD10R,1.700000X1.700000*%
%ADD11O,1.700000X1.700000*%
%ADD12RoundRect,0.243750X0.243750X0.456250X-0.243750X0.456250X-0.243750X-0.456250X0.243750X-0.456250X0*%
%ADD13RoundRect,0.250000X0.312500X0.625000X-0.312500X0.625000X-0.312500X-0.625000X0.312500X-0.625000X0*%
%ADD14RoundRect,0.250000X0.550000X-1.050000X0.550000X1.050000X-0.550000X1.050000X-0.550000X-1.050000X0*%
%ADD15R,1.600000X1.600000*%
%ADD16O,1.600000X1.600000*%
G04 APERTURE END LIST*
D10*
%TO.C,J1*%
X146000000Y-81675000D03*
D11*
X146000000Y-84215000D03*
X146000000Y-86755000D03*
X146000000Y-89295000D03*
X146000000Y-91835000D03*
X146000000Y-94375000D03*
%TD*%
D12*
%TO.C,D1*%
X149937500Y-106000000D03*
X148062500Y-106000000D03*
%TD*%
D13*
%TO.C,R1*%
X150462500Y-102500000D03*
X147537500Y-102500000D03*
%TD*%
D14*
%TO.C,C1*%
X142500000Y-105800000D03*
X142500000Y-102200000D03*
%TD*%
D15*
%TO.C,A1*%
X137340000Y-109415000D03*
D16*
X139880000Y-109415000D03*
X142420000Y-109415000D03*
X144960000Y-109415000D03*
X147500000Y-109415000D03*
X150040000Y-109415000D03*
X152580000Y-109415000D03*
X155120000Y-109415000D03*
X160200000Y-109415000D03*
X162740000Y-109415000D03*
X165280000Y-109415000D03*
X167820000Y-109415000D03*
X170360000Y-109415000D03*
X172900000Y-109415000D03*
X172900000Y-61155000D03*
X170360000Y-61155000D03*
X167820000Y-61155000D03*
X165280000Y-61155000D03*
X162740000Y-61155000D03*
X160200000Y-61155000D03*
X157660000Y-61155000D03*
X155120000Y-61155000D03*
X151060000Y-61155000D03*
X148520000Y-61155000D03*
X145980000Y-61155000D03*
X143440000Y-61155000D03*
X140900000Y-61155000D03*
X138360000Y-61155000D03*
X135820000Y-61155000D03*
X133280000Y-61155000D03*
X130740000Y-61155000D03*
X128200000Y-61155000D03*
%TD*%
M02*
